<svg
  width="24"
  height="24"
  viewBox="0 0 24 24"
  fill="none"
  xmlns="http://www.w3.org/2000/svg"
>
  <path
    d="M5.71383 1.27979C6.14913 1.24679 6.58563 1.25009 7.02153 1.25009C10.5012 1.25069 13.9809 1.24979 17.4606 1.25069C18.1095 1.26029 18.7827 1.26479 19.3905 1.52279C20.4987 1.96859 21.3579 2.97629 21.6303 4.13849C21.7557 4.71959 21.7455 5.31809 21.7509 5.90939C21.7509 10.7292 21.7509 15.5493 21.7509 20.3691C21.7566 20.8482 21.5535 21.3243 21.2025 21.6504C20.877 21.9573 20.4315 22.1382 19.9824 22.1262C19.5993 22.1181 19.2234 21.9657 18.9363 21.7128C18.8823 21.6687 18.8262 21.6123 18.7509 21.6159C18.6831 21.612 18.6291 21.6576 18.582 21.6999C18.4203 21.8484 18.2592 21.9978 18.096 22.1451C17.676 22.5174 17.1228 22.737 16.5609 22.749C15.9597 22.7661 15.3552 22.5462 14.907 22.1451C14.7879 22.0341 14.6481 21.9423 14.4897 21.9012C14.1906 21.8157 13.8543 21.903 13.629 22.1157C13.2333 22.4784 12.7146 22.7052 12.1785 22.743C11.6031 22.7877 11.0148 22.6146 10.5546 22.2663C10.4445 22.1865 10.3515 22.0851 10.2372 22.011C9.89313 21.7824 9.40293 21.8391 9.11223 22.1301C8.68323 22.5186 8.11023 22.7445 7.53123 22.7493C6.95463 22.7586 6.37803 22.5501 5.94033 22.1745C5.75253 22.0107 5.57373 21.8373 5.38743 21.6723C5.33013 21.618 5.24013 21.5967 5.16873 21.6351C5.11233 21.6681 5.06553 21.7143 5.01453 21.7551C4.65843 22.0488 4.17513 22.1829 3.71883 22.1055C3.05943 22.0047 2.48523 21.4926 2.31393 20.8473C2.23023 20.5656 2.25393 20.2692 2.25093 19.9797C2.25093 15.2493 2.25063 10.5189 2.25123 5.78849C2.25813 5.20529 2.25213 4.61309 2.39433 4.04339C2.64993 3.08849 3.29403 2.24369 4.15023 1.74929C4.62423 1.46849 5.16453 1.31009 5.71383 1.27979ZM5.77473 2.77919C4.97043 2.82269 4.25943 3.40109 3.94893 4.12859C3.82533 4.39529 3.78423 4.69019 3.77103 4.98119C3.74823 5.44019 3.75183 5.89979 3.75093 6.35909C3.75123 11.0298 3.75003 15.7005 3.75153 20.3712C3.74253 20.4927 3.83613 20.6136 3.96063 20.6202C4.03713 20.6286 4.09353 20.5692 4.14783 20.5257C4.47183 20.2413 4.91043 20.0943 5.34033 20.1183C5.72583 20.1366 6.10173 20.295 6.38763 20.5536C6.55503 20.7054 6.72063 20.8593 6.88833 21.0114C7.08363 21.1899 7.35843 21.279 7.62153 21.2412C7.81923 21.2178 8.00103 21.1191 8.14473 20.9841C8.58753 20.583 9.18513 20.3592 9.78213 20.3694C10.3305 20.3742 10.8735 20.5767 11.2932 20.9289C11.3853 21.0069 11.4732 21.093 11.583 21.1467C11.8332 21.2793 12.1461 21.2838 12.3996 21.1569C12.5688 21.0765 12.69 20.9286 12.8427 20.8239C13.3545 20.4513 14.0175 20.2953 14.6418 20.4009C15.1056 20.4756 15.5433 20.6937 15.8886 21.0114C16.1433 21.2484 16.5384 21.318 16.8573 21.1764C17.04 21.102 17.1741 20.9523 17.3184 20.8239C17.5302 20.6346 17.7282 20.4207 17.9886 20.2968C18.5244 20.0208 19.2051 20.0649 19.701 20.4072C19.8012 20.4675 19.8759 20.565 19.9827 20.6139C20.1267 20.6523 20.2641 20.5119 20.2503 20.3697C20.2518 15.9195 20.2503 11.4696 20.2509 7.01939C20.2491 6.41579 20.2563 5.81159 20.2404 5.20799C20.2272 4.88039 20.2182 4.54349 20.0955 4.23479C19.8468 3.56219 19.2696 3.00719 18.5697 2.82899C18.1755 2.74739 17.7696 2.76029 17.3691 2.75129C13.8603 2.74919 10.3515 2.75129 6.84273 2.75039C6.48663 2.75279 6.13023 2.75159 5.77473 2.77919Z"
    fill="#4B4B4B"
  />
  <path
    opacity="0.5"
    d="M13.9323 7.51166C14.0514 7.37426 14.2194 7.27946 14.4006 7.25726C14.6499 7.22096 14.9127 7.32296 15.0741 7.51616C15.2502 7.71896 15.2997 8.02046 15.201 8.27006C15.1521 8.40986 15.0468 8.51726 14.9496 8.62466C13.8465 9.85976 12.7437 11.0952 11.6406 12.3306C11.5227 12.4617 11.4111 12.6102 11.244 12.6819C10.959 12.8175 10.5927 12.7467 10.3812 12.5112C9.96964 12.0525 9.56014 11.5917 9.14914 11.1321C9.00034 10.9596 8.81134 10.7988 8.76904 10.563C8.68654 10.2234 8.87974 9.84596 9.20194 9.71246C9.48754 9.58466 9.84934 9.65996 10.0557 9.89636C10.3479 10.2213 10.6383 10.5483 10.9296 10.8744C11.9307 9.75356 12.9315 8.63246 13.9323 7.51166Z"
    fill="#4B4B4B"
  />
  <path
    opacity="0.5"
    d="M7.30294 14.7765C7.43614 14.7402 7.57534 14.7525 7.71154 14.7513C10.6416 14.751 13.5717 14.7513 16.5018 14.751C16.7511 14.7474 16.9944 14.8815 17.1294 15.0903C17.2683 15.2997 17.2899 15.5796 17.1855 15.8082C17.07 16.0722 16.7913 16.2543 16.5024 16.2507C13.5018 16.2516 10.5015 16.2513 7.50124 16.2507C7.12624 16.2588 6.78304 15.9462 6.75454 15.5727C6.71314 15.2199 6.95974 14.8647 7.30294 14.7765Z"
    fill="#4B4B4B"
  />
</svg>
