<svg width="24" height="24" viewBox="0 0 24 24" fill="none" xmlns="http://www.w3.org/2000/svg">
<path d="M8.04064 1.78486C8.44079 1.44184 8.9651 1.24885 9.49234 1.24953C11.1641 1.2493 12.8355 1.24908 14.5072 1.24953C15.0079 1.25043 15.5056 1.42565 15.8964 1.73897C16.3629 2.10763 16.6728 2.66793 16.7324 3.26017C16.7515 3.43989 16.7434 3.62074 16.745 3.80113C16.7392 4.12075 16.7592 4.44128 16.7302 4.75978C16.6537 5.46044 16.2225 6.10801 15.6089 6.4535C15.3282 6.6141 15.0122 6.71239 14.6901 6.73961C14.5625 6.75108 14.4343 6.74748 14.3065 6.74793C12.7017 6.74793 11.0968 6.74793 9.49166 6.74793C9.00402 6.74861 8.51839 6.58396 8.13196 6.28638C7.65196 5.92244 7.32919 5.35899 7.26284 4.76C7.23719 4.53148 7.25114 4.30092 7.24754 4.07149C7.25226 3.80158 7.23629 3.53076 7.25991 3.26152C7.31749 2.69313 7.60405 2.15307 8.04064 1.78486ZM9.42891 2.75228C9.06677 2.7777 8.75704 3.10025 8.74827 3.46351C8.74647 3.82362 8.74535 4.18396 8.74895 4.54407C8.76222 4.91791 9.09556 5.24315 9.46962 5.24765C11.0889 5.24923 12.7084 5.24788 14.3279 5.24833C14.4723 5.24923 14.6219 5.25642 14.7584 5.20109C14.9858 5.11742 15.166 4.91633 15.2231 4.6806C15.2562 4.55509 15.2429 4.42418 15.2456 4.29597C15.2441 4.01144 15.249 3.72668 15.2432 3.44237C15.2236 3.06763 14.8839 2.74666 14.5085 2.74936C12.8155 2.75026 11.122 2.74486 9.42891 2.75228Z" fill="#4B4B4B"/>
<path d="M6.93502 9.74955C7.13993 9.74482 7.34506 9.74595 7.5502 9.74887C7.91774 9.76597 8.23601 10.0908 8.24681 10.4585C8.26953 10.7894 8.0437 11.1146 7.72677 11.2109C7.57832 11.2617 7.41929 11.2431 7.26544 11.2465C7.08055 11.2422 6.88666 11.2678 6.71256 11.1902C6.40193 11.0679 6.2022 10.7208 6.25573 10.3906C6.29779 10.0534 6.59582 9.77181 6.93502 9.74955Z" fill="#4B4B4B"/>
<path d="M10.4222 9.75049C11.5964 9.74217 12.771 9.74936 13.9451 9.74689C14.9726 9.74756 16.0003 9.74554 17.0278 9.74801C17.3863 9.75566 17.7073 10.0564 17.7399 10.4134C17.7824 10.7415 17.5775 11.0789 17.2684 11.195C17.1636 11.2375 17.0493 11.2499 16.9371 11.2467C14.8453 11.246 12.7536 11.2467 10.662 11.2465C10.541 11.2454 10.4173 11.2548 10.2997 11.2202C10.0597 11.1572 9.85945 10.9658 9.78387 10.7298C9.69323 10.4626 9.77173 10.1493 9.97709 9.95585C10.0972 9.84046 10.2562 9.76646 10.4222 9.75049Z" fill="#4B4B4B"/>
<path d="M6.84647 13.2609C6.9767 13.2353 7.11031 13.2488 7.24235 13.2456C7.40924 13.2497 7.58221 13.2278 7.74236 13.2866C8.00981 13.3763 8.21359 13.6282 8.24283 13.9092C8.28377 14.2223 8.1018 14.5459 7.81434 14.6755C7.58694 14.7855 7.32827 14.7326 7.08557 14.7452C6.86964 14.7605 6.64471 14.6964 6.48681 14.5439C6.2594 14.3383 6.18405 13.987 6.30596 13.7058C6.39886 13.4807 6.60737 13.3086 6.84647 13.2609Z" fill="#4B4B4B"/>
<path d="M10.3363 13.2626C10.3989 13.2489 10.4632 13.2451 10.5271 13.2451C12.6862 13.246 14.8453 13.2446 17.0041 13.2458C17.3991 13.2406 17.752 13.5946 17.7442 13.9898C17.7577 14.3796 17.4191 14.7366 17.0293 14.7442C14.8466 14.7458 12.6639 14.7447 10.4812 14.7447C10.1004 14.7469 9.75869 14.4154 9.7479 14.035C9.72158 13.679 9.98677 13.3326 10.3363 13.2626Z" fill="#4B4B4B"/>
<path d="M6.93706 16.747C7.06167 16.7421 7.18628 16.7463 7.31111 16.745C7.43078 16.7472 7.55269 16.7351 7.6701 16.7645C7.9047 16.8183 8.10647 16.9933 8.19441 17.2171C8.30216 17.4803 8.24165 17.8017 8.04461 18.0068C7.91348 18.1481 7.72589 18.2358 7.5329 18.243C7.42785 18.2464 7.32281 18.2435 7.21777 18.2444C7.04772 18.2435 6.87003 18.259 6.71055 18.1872C6.39948 18.0642 6.20064 17.7153 6.25574 17.3849C6.29916 17.0482 6.59809 16.7684 6.93706 16.747Z" fill="#4B4B4B"/>
<path d="M10.4231 16.7482C12.5265 16.7408 14.63 16.7473 16.7335 16.7451C16.9155 16.7491 17.1062 16.7237 17.2781 16.8002C17.5487 16.9075 17.741 17.1846 17.7439 17.4761C17.7545 17.7539 17.5937 18.0272 17.348 18.1561C17.2358 18.2166 17.108 18.2458 16.981 18.2447C14.8151 18.2443 12.649 18.2452 10.4832 18.244C10.0981 18.2467 9.7526 17.9087 9.74743 17.5236C9.72291 17.1396 10.0399 16.7766 10.4231 16.7482Z" fill="#4B4B4B"/>
<path opacity="0.5" d="M5.87078 3.33446C6.33234 3.2879 6.79637 3.26698 7.25995 3.26136C7.23633 3.5306 7.2523 3.80142 7.24758 4.07133C7.25117 4.30076 7.23723 4.53131 7.26287 4.75984C6.69087 4.77356 6.11618 4.79246 5.55183 4.89165C5.12469 4.96813 4.6818 5.10961 4.37882 5.43688C4.03895 5.79362 3.92581 6.29521 3.85721 6.76779C3.74227 7.64817 3.75689 8.53844 3.74902 9.42444C3.74924 11.8386 3.74812 14.2528 3.74969 16.667C3.75217 17.3195 3.75352 17.9727 3.7967 18.6241C3.82999 19.0683 3.87565 19.5175 4.01938 19.9417C4.1197 20.2404 4.29717 20.5175 4.54954 20.7099C4.89571 20.9757 5.33522 21.0706 5.75787 21.1336C6.526 21.2371 7.30291 21.2344 8.07644 21.242C9.75532 21.2459 11.4339 21.2427 13.1126 21.2438C14.3274 21.2402 15.5423 21.2526 16.7569 21.2321C17.3152 21.2177 17.8759 21.1986 18.4272 21.103C18.7867 21.0374 19.1533 20.935 19.4464 20.7074C19.681 20.5265 19.8526 20.273 19.9534 19.9962C20.0971 19.6061 20.1477 19.19 20.1844 18.7784C20.2323 18.1805 20.2377 17.5804 20.242 16.9812C20.246 14.6797 20.2426 12.3785 20.2438 10.0772C20.2415 9.21997 20.2512 8.36232 20.2049 7.50624C20.1743 7.03388 20.1336 6.55636 19.9907 6.10267C19.8958 5.79924 19.7282 5.51223 19.4788 5.3107C19.1805 5.06395 18.7968 4.95598 18.4227 4.8885C17.864 4.79201 17.2956 4.77356 16.7301 4.75962C16.7592 4.44112 16.7391 4.12059 16.745 3.80097C16.7434 3.62057 16.7515 3.43973 16.7324 3.26001C17.2304 3.26968 17.7288 3.28948 18.2239 3.34549C18.7291 3.40352 19.2352 3.50339 19.703 3.7083C20.3515 3.98631 20.8963 4.49758 21.2096 5.1303C21.5333 5.77788 21.6354 6.50755 21.6887 7.22192C21.7429 7.99973 21.7409 8.78024 21.7434 9.55962C21.7434 11.1263 21.7434 12.6931 21.7434 14.26C21.7414 15.3019 21.7479 16.3437 21.7382 17.3856C21.7306 17.965 21.7166 18.5451 21.6581 19.1221C21.6095 19.5861 21.5297 20.0504 21.3695 20.4901C21.1599 21.0796 20.7748 21.6087 20.2613 21.9695C19.932 22.2043 19.555 22.3662 19.1657 22.4724C18.6589 22.6112 18.1337 22.6663 17.6105 22.6989C16.5554 22.7583 15.4982 22.7389 14.4419 22.743C12.4623 22.743 10.4827 22.743 8.50336 22.743C7.70868 22.7398 6.91311 22.7421 6.12045 22.6807C5.45084 22.6251 4.7693 22.5219 4.16019 22.2234C3.53579 21.9231 3.0252 21.3984 2.73796 20.7681C2.40776 20.0492 2.32926 19.2483 2.2854 18.4675C2.23232 17.3359 2.25459 16.2027 2.24941 15.0702C2.24941 13.1808 2.24941 11.2914 2.24941 9.40194C2.25189 8.75549 2.25324 8.10882 2.28878 7.46305C2.31599 6.9826 2.36143 6.50125 2.46849 6.03115C2.55937 5.63325 2.6995 5.24299 2.91475 4.89458C3.22763 4.38376 3.69863 3.97326 4.24499 3.72809C4.75625 3.49551 5.3152 3.39227 5.87078 3.33446Z" fill="#4B4B4B"/>
</svg>
