<svg width="24" height="24" viewBox="0 0 24 24" fill="none" xmlns="http://www.w3.org/2000/svg">
<path d="M8.04058 1.78481C8.44073 1.4418 8.96504 1.24881 9.49228 1.24948C11.164 1.24926 12.8354 1.24903 14.5071 1.24948C15.0078 1.25038 15.5055 1.4256 15.8963 1.73893C16.3628 2.10759 16.6727 2.66789 16.7323 3.26013C16.7514 3.43985 16.7433 3.62069 16.7449 3.80108C16.7391 4.12071 16.7591 4.44123 16.7301 4.75973C16.6536 5.46039 16.2224 6.10796 15.6088 6.45346C15.3281 6.61406 15.0121 6.71235 14.69 6.73957C14.5624 6.75104 14.4342 6.74744 14.3064 6.74789C12.7016 6.74789 11.0967 6.74789 9.4916 6.74789C9.00396 6.74856 8.51833 6.58392 8.1319 6.28633C7.6519 5.9224 7.32913 5.35895 7.26278 4.75996C7.23713 4.53143 7.25108 4.30088 7.24748 4.07145C7.2522 3.80153 7.23623 3.53072 7.25985 3.26148C7.31743 2.69308 7.60399 2.15302 8.04058 1.78481ZM9.42885 2.75224C9.06671 2.77765 8.75698 3.1002 8.74821 3.46346C8.74641 3.82358 8.74529 4.18391 8.74889 4.54403C8.76216 4.91786 9.0955 5.24311 9.46956 5.24761C11.0888 5.24918 12.7083 5.24783 14.3278 5.24828C14.4722 5.24918 14.6218 5.25638 14.7583 5.20105C14.9857 5.11737 15.1659 4.91629 15.223 4.68056C15.2561 4.55505 15.2428 4.42414 15.2455 4.29593C15.244 4.01139 15.2489 3.72663 15.2431 3.44232C15.2235 3.06759 14.8838 2.74661 14.5084 2.74931C12.8154 2.75021 11.1219 2.74481 9.42885 2.75224Z" fill="#4B4B4B"/>
<path d="M6.93484 9.74958C7.13975 9.74485 7.34488 9.74598 7.55002 9.7489C7.91756 9.766 8.23583 10.0908 8.24663 10.4586C8.26935 10.7894 8.04352 11.1147 7.72659 11.2109C7.57814 11.2618 7.41911 11.2431 7.26526 11.2465C7.08037 11.2422 6.88648 11.2679 6.71238 11.1903C6.40175 11.0679 6.20202 10.7208 6.25555 10.3906C6.29761 10.0535 6.59564 9.77184 6.93484 9.74958Z" fill="#4B4B4B"/>
<path d="M10.4223 9.75047C11.5965 9.74215 12.7711 9.74935 13.9452 9.74687C14.9727 9.74755 16.0004 9.74552 17.0279 9.748C17.3864 9.75565 17.7074 10.0564 17.74 10.4133C17.7825 10.7415 17.5776 11.0789 17.2685 11.195C17.1637 11.2375 17.0494 11.2499 16.9372 11.2467C14.8454 11.246 12.7537 11.2467 10.6621 11.2465C10.5411 11.2454 10.4174 11.2548 10.2998 11.2202C10.0598 11.1572 9.85957 10.9658 9.78399 10.7298C9.69335 10.4626 9.77185 10.1493 9.97721 9.95583C10.0973 9.84044 10.2563 9.76644 10.4223 9.75047Z" fill="#4B4B4B"/>
<path d="M6.84644 13.261C6.97667 13.2353 7.11028 13.2488 7.24232 13.2457C7.40921 13.2497 7.58219 13.2279 7.74234 13.2866C8.00978 13.3763 8.21356 13.6283 8.2428 13.9092C8.28374 14.2223 8.10177 14.546 7.81431 14.6755C7.58691 14.7855 7.32824 14.7327 7.08554 14.7453C6.86961 14.7606 6.64468 14.6965 6.48678 14.544C6.25937 14.3384 6.18402 13.987 6.30593 13.7059C6.39883 13.4807 6.60734 13.3086 6.84644 13.261Z" fill="#4B4B4B"/>
<path d="M10.3364 13.2628C10.399 13.249 10.4633 13.2452 10.5272 13.2452C12.6863 13.2461 14.8454 13.2448 17.0042 13.2459C17.3992 13.2407 17.7521 13.5947 17.7443 13.99C17.7578 14.3798 17.4192 14.7367 17.0294 14.7444C14.8467 14.7459 12.664 14.7448 10.4813 14.7448C10.1005 14.7471 9.75881 14.4155 9.74802 14.0352C9.7217 13.6791 9.98689 13.3327 10.3364 13.2628Z" fill="#4B4B4B"/>
<path d="M6.9373 16.7471C7.06191 16.7422 7.18652 16.7465 7.31135 16.7451C7.43102 16.7474 7.55293 16.7352 7.67034 16.7647C7.90494 16.8184 8.10671 16.9934 8.19465 17.2172C8.3024 17.4804 8.24189 17.8018 8.04485 18.007C7.91372 18.1482 7.72613 18.2359 7.53314 18.2431C7.42809 18.2465 7.32305 18.2436 7.21801 18.2445C7.04796 18.2436 6.87027 18.2591 6.71079 18.1874C6.39972 18.0643 6.20088 17.7155 6.25598 17.385C6.2994 17.0483 6.59833 16.7685 6.9373 16.7471Z" fill="#4B4B4B"/>
<path d="M10.4233 16.7483C12.5266 16.7408 14.6301 16.7474 16.7337 16.7451C16.9156 16.7492 17.1064 16.7237 17.2782 16.8002C17.5488 16.9075 17.7411 17.1846 17.7441 17.4761C17.7546 17.7539 17.5938 18.0272 17.3482 18.1561C17.2359 18.2166 17.1082 18.2458 16.9811 18.2447C14.8152 18.2443 12.6492 18.2452 10.4833 18.244C10.0982 18.2467 9.75275 17.9087 9.74758 17.5236C9.72306 17.1396 10.04 16.7766 10.4233 16.7483Z" fill="#4B4B4B"/>
<path opacity="0.5" d="M5.87066 3.33458C6.33222 3.28802 6.79625 3.2671 7.25983 3.26148C7.23621 3.53072 7.25218 3.80154 7.24746 4.07145C7.25105 4.30088 7.23711 4.53143 7.26275 4.75996C6.69075 4.77368 6.11606 4.79258 5.55171 4.89177C5.12457 4.96825 4.68168 5.10973 4.3787 5.437C4.03883 5.79374 3.92569 6.29533 3.85709 6.76791C3.74215 7.64829 3.75677 8.53856 3.7489 9.42456C3.74912 11.8387 3.748 14.2529 3.74957 16.6671C3.75205 17.3196 3.7534 17.9728 3.79658 18.6242C3.82987 19.0684 3.87553 19.5176 4.01926 19.9418C4.11958 20.2405 4.29705 20.5176 4.54942 20.71C4.89559 20.9758 5.3351 21.0707 5.75775 21.1337C6.52588 21.2372 7.30279 21.2345 8.07632 21.2421C9.7552 21.246 11.4338 21.2428 13.1125 21.2439C14.3273 21.2403 15.5422 21.2527 16.7568 21.2322C17.3151 21.2178 17.8758 21.1987 18.4271 21.1031C18.7866 21.0375 19.1532 20.9351 19.4463 20.7075C19.6809 20.5266 19.8525 20.2731 19.9533 19.9963C20.097 19.6062 20.1476 19.1901 20.1843 18.7785C20.2322 18.1806 20.2376 17.5805 20.2419 16.9813C20.2459 14.6798 20.2425 12.3786 20.2437 10.0773C20.2414 9.22009 20.2511 8.36244 20.2048 7.50636C20.1742 7.034 20.1335 6.55648 19.9906 6.10279C19.8957 5.79936 19.7281 5.51235 19.4787 5.31082C19.1804 5.06407 18.7967 4.9561 18.4226 4.88862C17.8639 4.79213 17.2955 4.77368 16.73 4.75974C16.7591 4.44124 16.739 4.12071 16.7449 3.80109C16.7433 3.62069 16.7514 3.43985 16.7323 3.26013C17.2303 3.2698 17.7287 3.2896 18.2238 3.34561C18.729 3.40364 19.2351 3.50351 19.7029 3.70842C20.3514 3.98643 20.8962 4.4977 21.2095 5.13042C21.5332 5.778 21.6353 6.50767 21.6886 7.22204C21.7428 7.99985 21.7408 8.78036 21.7433 9.55974C21.7433 11.1264 21.7433 12.6932 21.7433 14.2601C21.7413 15.302 21.7478 16.3438 21.7381 17.3857C21.7305 17.9651 21.7165 18.5452 21.658 19.1222C21.6094 19.5862 21.5296 20.0505 21.3694 20.4902C21.1598 21.0797 20.7747 21.6088 20.2612 21.9696C19.9319 22.2044 19.5549 22.3663 19.1656 22.4725C18.6588 22.6113 18.1336 22.6664 17.6104 22.699C16.5553 22.7584 15.4981 22.739 14.4418 22.7431C12.4622 22.7431 10.4826 22.7431 8.50324 22.7431C7.70856 22.7399 6.91299 22.7422 6.12033 22.6808C5.45072 22.6252 4.76918 22.522 4.16007 22.2235C3.53567 21.9232 3.02508 21.3985 2.73784 20.7682C2.40764 20.0493 2.32914 19.2484 2.28528 18.4676C2.2322 17.336 2.25447 16.2028 2.24929 15.0703C2.24929 13.1809 2.24929 11.2915 2.24929 9.40206C2.25177 8.75561 2.25312 8.10894 2.28866 7.46317C2.31587 6.98272 2.36131 6.50137 2.46837 6.03127C2.55925 5.63337 2.69938 5.24311 2.91463 4.8947C3.22751 4.38388 3.69851 3.97338 4.24487 3.72821C4.75613 3.49563 5.31508 3.39239 5.87066 3.33458Z" fill="#4B4B4B"/>
</svg>
