<svg width="24" height="24" viewBox="0 0 24 24" fill="none" xmlns="http://www.w3.org/2000/svg">
<path d="M11.5185 7.14458C11.7516 6.98707 12.0625 6.95662 12.3232 7.06128C12.6491 7.18589 12.878 7.52086 12.8749 7.86984C12.8759 8.95493 12.8749 10.04 12.8752 11.1251C13.8899 11.1251 14.9047 11.1251 15.9194 11.1251C16.0699 11.1262 16.2243 11.1143 16.3702 11.1598C16.6086 11.2284 16.8134 11.4034 16.9177 11.6288C17.0461 11.898 17.023 12.2329 16.8568 12.4808C16.7017 12.7219 16.4203 12.8749 16.1336 12.8745C15.0475 12.8763 13.9614 12.8749 12.8752 12.8752C12.8752 13.8907 12.8749 14.9061 12.8752 15.9219C12.8752 16.0811 12.885 16.2457 12.8315 16.3986C12.7443 16.6685 12.5185 16.888 12.2452 16.9653C12.0026 17.0378 11.7289 16.9972 11.5182 16.8565C11.2773 16.7003 11.1244 16.4186 11.1254 16.1316C11.1244 15.0461 11.1254 13.9607 11.1251 12.8752C10.0393 12.8749 8.95351 12.8756 7.86807 12.8749C7.5723 12.8756 7.28212 12.7132 7.13021 12.4594C6.96115 12.1923 6.9566 11.8329 7.11726 11.5612C7.26742 11.2963 7.56494 11.1237 7.86947 11.1255C8.95455 11.1244 10.04 11.1255 11.1251 11.1251C11.1254 10.039 11.1244 8.95283 11.1254 7.86704C11.1251 7.58072 11.2777 7.2993 11.5185 7.14458Z" fill="#4B4B4B"/>
</svg>
