<svg width="24" height="24" viewBox="0 0 24 24" fill="none" xmlns="http://www.w3.org/2000/svg">
<path d="M11.1746 1.28153C12.86 1.15223 14.576 1.42133 16.136 2.07443C18.047 2.86823 19.715 4.22994 20.8808 5.93904C22.0973 7.70904 22.7582 9.85254 22.7507 11.9999C22.7585 14.1539 22.0934 16.3034 20.8703 18.0767C19.7054 19.7789 18.0413 21.1352 16.136 21.9263C13.9463 22.8449 11.4494 22.9991 9.1607 22.3712C7.1492 21.8252 5.3102 20.6717 3.9347 19.1066C2.4977 17.4839 1.5707 15.4166 1.3244 13.2623C1.0556 11.0081 1.5194 8.67174 2.6468 6.69984C3.8912 4.49604 5.9381 2.75874 8.3186 1.89773C9.2366 1.56293 10.2005 1.35533 11.1746 1.28153ZM11.2343 2.78183C9.5201 2.91864 7.85 3.55164 6.4742 4.58274C4.9367 5.72604 3.7673 7.35683 3.1877 9.18384C2.7623 10.5134 2.6474 11.9399 2.8448 13.3214C3.0119 14.4962 3.4103 15.6371 4.0097 16.6613C5.0075 18.3758 6.5714 19.7537 8.4002 20.5232C10.4927 21.4145 12.9173 21.4886 15.062 20.732C16.0661 20.3801 17.0078 19.8524 17.8328 19.181C19.3166 17.9783 20.4155 16.3073 20.9195 14.4641C21.293 13.1102 21.3512 11.6708 21.0932 10.2902C20.8973 9.23814 20.5142 8.22144 19.9697 7.30014C19.0169 5.68344 17.5613 4.36854 15.8543 3.58884C14.4182 2.92643 12.8096 2.65134 11.2343 2.78183Z" fill="#4B4B4B"/>
<path opacity="0.5" d="M11.7912 8.27972C11.9934 8.22002 12.2208 8.25122 12.3987 8.36462C12.6138 8.49842 12.7527 8.74562 12.7497 8.99972C12.7503 9.74972 12.7497 10.4997 12.75 11.25C13.4403 11.25 14.1303 11.25 14.8206 11.25C14.9598 11.2503 15.1032 11.2407 15.2367 11.2881C15.5364 11.3838 15.7551 11.6844 15.75 11.9997C15.7554 12.3153 15.5364 12.6168 15.2361 12.7119C15.1029 12.7593 14.9595 12.7497 14.8206 12.75C14.1306 12.75 13.4403 12.75 12.75 12.75C12.7497 13.5003 12.7503 14.2506 12.7497 15.0009C12.7509 15.2043 12.6642 15.4062 12.5151 15.5445C12.3351 15.7197 12.063 15.7899 11.8203 15.7284C11.565 15.6675 11.3499 15.4614 11.2794 15.2082C11.2404 15.0822 11.2509 14.949 11.25 14.8191C11.25 14.1294 11.25 13.4397 11.25 12.75C10.5597 12.75 9.86942 12.75 9.17912 12.75C9.03992 12.7497 8.89652 12.7593 8.76302 12.7119C8.46332 12.6159 8.24462 12.3153 8.25002 11.9997C8.24042 11.6112 8.57882 11.2566 8.96792 11.2512C9.72872 11.2482 10.4892 11.2509 11.25 11.25C11.25 10.5603 11.25 9.87032 11.25 9.18062C11.2506 9.05102 11.241 8.91812 11.2791 8.79212C11.3475 8.54912 11.5476 8.34752 11.7912 8.27972Z" fill="#4B4B4B"/>
</svg>
