<svg width="24" height="25" viewBox="0 0 24 25" fill="none" xmlns="http://www.w3.org/2000/svg">
<path d="M11.1746 1.78153C12.86 1.65223 14.576 1.92133 16.136 2.57443C18.047 3.36823 19.715 4.72994 20.8808 6.43904C22.0973 8.20904 22.7582 10.3525 22.7507 12.4999C22.7585 14.6539 22.0934 16.8034 20.8703 18.5767C19.7054 20.2789 18.0413 21.6352 16.136 22.4263C13.9463 23.3449 11.4494 23.4991 9.1607 22.8712C7.1492 22.3252 5.3102 21.1717 3.9347 19.6066C2.4977 17.9839 1.5707 15.9166 1.3244 13.7623C1.0556 11.5081 1.5194 9.17174 2.6468 7.19984C3.8912 4.99604 5.9381 3.25874 8.3186 2.39773C9.2366 2.06293 10.2005 1.85533 11.1746 1.78153ZM11.2343 3.28183C9.5201 3.41864 7.85 4.05164 6.4742 5.08274C4.9367 6.22604 3.7673 7.85683 3.1877 9.68384C2.7623 11.0134 2.6474 12.4399 2.8448 13.8214C3.0119 14.9962 3.4103 16.1371 4.0097 17.1613C5.0075 18.8758 6.5714 20.2537 8.4002 21.0232C10.4927 21.9145 12.9173 21.9886 15.062 21.232C16.0661 20.8801 17.0078 20.3524 17.8328 19.681C19.3166 18.4783 20.4155 16.8073 20.9195 14.9641C21.293 13.6102 21.3512 12.1708 21.0932 10.7902C20.8973 9.73814 20.5142 8.72144 19.9697 7.80014C19.0169 6.18344 17.5613 4.86854 15.8543 4.08884C14.4182 3.42643 12.8096 3.15134 11.2343 3.28183Z" fill="#4B4B4B"/>
<path opacity="0.5" d="M11.7914 8.77972C11.9936 8.72002 12.221 8.75122 12.3989 8.86462C12.614 8.99842 12.7529 9.24562 12.7499 9.49972C12.7505 10.2497 12.7499 10.9997 12.7502 11.75C13.4405 11.75 14.1305 11.75 14.8208 11.75C14.96 11.7503 15.1034 11.7407 15.2369 11.7881C15.5366 11.8838 15.7553 12.1844 15.7502 12.4997C15.7556 12.8153 15.5366 13.1168 15.2363 13.2119C15.1031 13.2593 14.9597 13.2497 14.8208 13.25C14.1308 13.25 13.4405 13.25 12.7502 13.25C12.7499 14.0003 12.7505 14.7506 12.7499 15.5009C12.7511 15.7043 12.6644 15.9062 12.5153 16.0445C12.3353 16.2197 12.0632 16.2899 11.8205 16.2284C11.5652 16.1675 11.3501 15.9614 11.2796 15.7082C11.2406 15.5822 11.2511 15.449 11.2502 15.3191C11.2502 14.6294 11.2502 13.9397 11.2502 13.25C10.5599 13.25 9.8696 13.25 9.1793 13.25C9.0401 13.2497 8.8967 13.2593 8.7632 13.2119C8.4635 13.1159 8.2448 12.8153 8.2502 12.4997C8.2406 12.1112 8.579 11.7566 8.9681 11.7512C9.7289 11.7482 10.4894 11.7509 11.2502 11.75C11.2502 11.0603 11.2502 10.3703 11.2502 9.68062C11.2508 9.55102 11.2412 9.41812 11.2793 9.29212C11.3477 9.04912 11.5478 8.84752 11.7914 8.77972Z" fill="#4B4B4B"/>
</svg>
