<svg width="24" height="24" viewBox="0 0 24 24" fill="none" xmlns="http://www.w3.org/2000/svg">
<g clip-path="url(#clip0_27038_11320)">
<path d="M11.7114 0.253516C13.3158 0.213916 14.9289 0.503416 16.416 1.10882C18.4233 1.91972 20.1927 3.30272 21.4734 5.04752C22.8537 6.91412 23.6508 9.20132 23.7417 11.5203C23.8356 13.74 23.2833 15.9825 22.1637 17.9019C21.2337 19.5012 19.9212 20.8749 18.3669 21.8775C16.5609 23.0499 14.4249 23.703 12.2724 23.7471C9.9963 23.8059 7.7076 23.1828 5.7798 21.9702C4.0245 20.8752 2.5653 19.3101 1.6035 17.478C0.997804 16.3308 0.582304 15.0825 0.386404 13.8C0.038404 11.5416 0.357004 9.18242 1.3152 7.10642C2.0163 5.57402 3.0549 4.19852 4.3311 3.09812C5.4267 2.15282 6.6975 1.41002 8.0622 0.927316C9.2325 0.510616 10.4694 0.282016 11.7114 0.253516ZM11.7105 1.75412C9.6834 1.80512 7.677 2.47982 6.0324 3.66602C4.2957 4.90772 2.9601 6.70322 2.2833 8.72912C1.8546 9.99932 1.6833 11.3544 1.773 12.6915C1.9203 15.0501 2.9292 17.3403 4.5591 19.05C5.9952 20.5707 7.9065 21.6378 9.9585 22.0476C12.2469 22.5126 14.6931 22.1751 16.7589 21.0819C18.5259 20.1555 20.0115 18.7029 20.9757 16.9563C21.5256 15.9621 21.9066 14.8752 22.101 13.7562C22.335 12.4008 22.2963 10.9983 21.981 9.65942C21.7302 8.59142 21.3102 7.56242 20.7327 6.62942C19.6776 4.91522 18.1086 3.52112 16.2777 2.68292C14.8545 2.02562 13.2771 1.70912 11.7105 1.75412Z" fill="#4B4B4B"/>
<path opacity="0.5" d="M11.3259 2.57341C12.8571 2.46451 14.4153 2.73031 15.819 3.35371C17.5842 4.13161 19.0968 5.46601 20.0928 7.11751C20.6418 8.02471 21.0333 9.02611 21.2508 10.0638C21.5385 11.4399 21.5154 12.8808 21.1803 14.2464C20.7372 16.0836 19.7199 17.7741 18.3114 19.0332C17.5152 19.7481 16.5978 20.3283 15.6084 20.7372C13.4214 21.6462 10.8894 21.6876 8.6742 20.8488C6.8913 20.1798 5.3229 18.9567 4.2384 17.3919C3.5553 16.4097 3.0594 15.2973 2.7912 14.1312C2.2932 11.9823 2.5713 9.65911 3.5847 7.69771C4.4199 6.06121 5.7447 4.68001 7.3434 3.77461C8.5599 3.08551 9.9309 2.67001 11.3259 2.57341ZM11.3577 9.39061C11.3514 10.0452 11.3574 10.6998 11.3547 11.3544C10.7106 11.3565 10.0662 11.3535 9.4221 11.3559C9.1632 11.3523 8.9166 11.5221 8.8236 11.7624C8.7354 11.9802 8.7795 12.2442 8.9349 12.4206C9.0543 12.561 9.2361 12.6447 9.4206 12.6444C10.0653 12.6462 10.71 12.6438 11.3547 12.6453C11.3562 13.2903 11.3535 13.935 11.3559 14.5797C11.352 14.838 11.5233 15.0843 11.763 15.177C11.9754 15.2625 12.2316 15.2226 12.4074 15.0765C12.5556 14.9568 12.6447 14.769 12.6441 14.5788C12.6462 13.9341 12.6438 13.2897 12.6453 12.6453C13.2999 12.6429 13.9545 12.648 14.6091 12.6429C14.9424 12.6366 15.2301 12.3309 15.2214 11.9988C15.2286 11.667 14.9409 11.3628 14.6082 11.358C13.9539 11.3514 13.2996 11.3574 12.6453 11.3547C12.6429 10.6998 12.6483 10.0452 12.6426 9.39061C12.6366 9.05761 12.3315 8.77051 12 8.77831C11.6682 8.77051 11.3634 9.05791 11.3577 9.39061Z" fill="#4B4B4B"/>
</g>
<defs>
<clipPath id="clip0_27038_11320">
<rect width="24" height="24" fill="white"/>
</clipPath>
</defs>
</svg>
