<svg width="24" height="24" viewBox="0 0 24 24" fill="none" xmlns="http://www.w3.org/2000/svg">
<g clip-path="url(#clip0_35569_35248)">
<mask id="mask0_35569_35248" style="mask-type:luminance" maskUnits="userSpaceOnUse" x="0" y="0" width="24" height="24">
<path d="M24 0H0V24H24V0Z" fill="white"/>
</mask>
<g mask="url(#mask0_35569_35248)">
<mask id="mask1_35569_35248" style="mask-type:luminance" maskUnits="userSpaceOnUse" x="0" y="0" width="24" height="24">
<path d="M24 0H0V24H24V0Z" fill="white"/>
</mask>
<g mask="url(#mask1_35569_35248)">
<path d="M11.7113 0.253577C13.3157 0.213977 14.9288 0.503477 16.4159 1.10888C18.4232 1.91978 20.1926 3.30278 21.4733 5.04758C22.8536 6.91418 23.6507 9.20138 23.7416 11.5204C23.8355 13.7401 23.2832 15.9826 22.1636 17.902C21.2336 19.5013 19.9211 20.875 18.3668 21.8776C16.5608 23.05 14.4248 23.7031 12.2723 23.7472C9.99615 23.806 7.70745 23.1829 5.77965 21.9703C4.02435 20.8753 2.56515 19.3102 1.60335 17.4781C0.997652 16.3309 0.582151 15.0826 0.386251 13.8001C0.0382518 11.5417 0.356851 9.18248 1.31505 7.10648C2.01615 5.57408 3.05475 4.19858 4.33095 3.09818C5.42655 2.15288 6.69735 1.41008 8.06205 0.927377C9.23235 0.510677 10.4693 0.282077 11.7113 0.253577ZM11.7104 1.75418C9.68325 1.80518 7.67685 2.47988 6.03225 3.66608C4.29555 4.90778 2.95995 6.70328 2.28315 8.72918C1.85445 9.99938 1.68315 11.3545 1.77285 12.6916C1.92015 15.0502 2.92905 17.3404 4.55895 19.0501C5.99505 20.5708 7.90635 21.6379 9.95835 22.0477C12.2468 22.5127 14.693 22.1752 16.7588 21.082C18.5258 20.1556 20.0114 18.703 20.9756 16.9564C21.5255 15.9622 21.9065 14.8753 22.1009 13.7563C22.3349 12.4009 22.2962 10.9984 21.9809 9.65948C21.7301 8.59148 21.3101 7.56248 20.7326 6.62948C19.6775 4.91528 18.1085 3.52118 16.2776 2.68298C14.8544 2.02568 13.277 1.70918 11.7104 1.75418Z" fill="#4B4B4B"/>
<path opacity="0.5" d="M11.326 2.57359C12.8572 2.46469 14.4154 2.73049 15.8191 3.35389C17.5843 4.13179 19.0969 5.46619 20.0929 7.11769C20.6419 8.02489 21.0334 9.02629 21.2509 10.064C21.5386 11.4401 21.5155 12.881 21.1804 14.2466C20.7373 16.0838 19.72 17.7743 18.3115 19.0334C17.5153 19.7483 16.5979 20.3285 15.6085 20.7374C13.4215 21.6464 10.8895 21.6878 8.67432 20.849C6.89142 20.18 5.32302 18.9569 4.23852 17.3921C3.55542 16.4099 3.05952 15.2975 2.79132 14.1314C2.29332 11.9825 2.57142 9.6593 3.58482 7.6979C4.42002 6.0614 5.74482 4.68019 7.34352 3.77479C8.56002 3.08569 9.93102 2.67019 11.326 2.57359ZM11.3578 9.39081C11.3515 10.0454 11.3575 10.7 11.3548 11.3546C10.7107 11.3567 10.0663 11.3537 9.42222 11.3561C9.16332 11.3525 8.91672 11.5223 8.82372 11.7626C8.73552 11.9804 8.77962 12.2444 8.93502 12.4208C9.05442 12.5612 9.23622 12.6449 9.42072 12.6446C10.0654 12.6464 10.7101 12.644 11.3548 12.6455C11.3563 13.2905 11.3536 13.9352 11.356 14.5799C11.3521 14.8382 11.5234 15.0845 11.7631 15.1772C11.9755 15.2627 12.2317 15.2228 12.4075 15.0767C12.5557 14.957 12.6448 14.7692 12.6442 14.579C12.6463 13.9343 12.6439 13.2899 12.6454 12.6455C13.3 12.6431 13.9546 12.6482 14.6092 12.6431C14.9425 12.6368 15.2302 12.3311 15.2215 11.999C15.2287 11.6672 14.941 11.363 14.6083 11.3582C13.954 11.3516 13.2997 11.3576 12.6454 11.3549C12.643 10.7 12.6484 10.0454 12.6427 9.39081C12.6367 9.05781 12.3316 8.7707 12.0001 8.7785C11.6683 8.7707 11.3635 9.05811 11.3578 9.39081Z" fill="#4B4B4B"/>
</g>
</g>
</g>
<defs>
<clipPath id="clip0_35569_35248">
<rect width="24" height="24" fill="white"/>
</clipPath>
</defs>
</svg>
