<svg width="24" height="24" viewBox="0 0 24 24" fill="none" xmlns="http://www.w3.org/2000/svg">
<path d="M17.6674 0.551075C17.8322 0.39205 18.0922 0.344815 18.3032 0.433437C18.5178 0.51846 18.6714 0.736642 18.6764 0.968095C18.6782 1.4418 18.6744 1.9155 18.6782 2.3892C19.1476 2.38875 19.617 2.38898 20.0865 2.38898C20.2873 2.38965 20.4819 2.50212 20.5865 2.67284C20.6875 2.83434 20.7044 3.04465 20.6297 3.21987C20.5422 3.43557 20.3195 3.58718 20.0865 3.58808C19.6173 3.58853 19.1481 3.58898 18.6789 3.58785C18.6723 4.07055 18.6807 4.55392 18.6748 5.03662C18.657 5.33623 18.3842 5.59108 18.0841 5.5877C17.7713 5.5994 17.4847 5.32881 17.4777 5.01615C17.4762 4.54043 17.4777 4.0647 17.4768 3.58875C17.0117 3.58808 16.5465 3.58875 16.0814 3.58853C15.9352 3.58965 15.7896 3.53544 15.6803 3.43827C15.5114 3.29229 15.4381 3.04802 15.4979 2.83299C15.5609 2.58332 15.8007 2.39235 16.0587 2.38898C16.5312 2.38853 17.004 2.38943 17.4766 2.38875C17.4775 1.92202 17.4768 1.45507 17.4771 0.988338C17.4757 0.82459 17.547 0.66219 17.6674 0.551075Z" fill="#4B4B4B"/>
<path d="M8.481 2.29159C9.21314 2.22253 9.94934 2.22771 10.684 2.22411C11.7785 2.22478 12.8732 2.22208 13.9677 2.22591C14.228 2.22568 14.4787 2.37863 14.6018 2.60739C14.7406 2.85593 14.7185 3.18298 14.5474 3.41084C14.4101 3.60068 14.1818 3.72079 13.9475 3.72529C12.7396 3.72236 11.5317 3.72281 10.3241 3.72484C9.60385 3.73429 8.87732 3.72191 8.16564 3.84877C7.94679 3.89219 7.72703 3.95269 7.53449 4.06853C7.33925 4.18527 7.18338 4.36364 7.08891 4.57012C6.97397 4.82002 6.92426 5.09376 6.88804 5.36458C6.82664 5.86077 6.81877 6.36146 6.81157 6.86081C6.80347 7.8406 6.81112 8.8204 6.80662 9.80019C6.79335 10.1547 6.49487 10.4694 6.14173 10.502C5.81175 10.5449 5.47211 10.3373 5.35807 10.0253C5.29284 9.87082 5.31039 9.701 5.30836 9.53792C5.30814 9.00416 5.30881 8.47063 5.30814 7.9371C5.31399 7.34598 5.29554 6.75329 5.33693 6.16353C5.33423 6.1597 5.32861 6.15205 5.32591 6.14823L5.32186 6.14058C5.35087 5.76608 5.36235 5.38684 5.4233 5.01459C5.48516 4.60926 5.58885 4.20596 5.77734 3.84C6.05333 3.2932 6.52861 2.85346 7.09138 2.61369C7.53067 2.42317 8.00707 2.33882 8.481 2.29159Z" fill="#4B4B4B"/>
<path d="M9.86408 6.24787C9.97677 6.21548 10.0949 6.22403 10.2109 6.22313C11.5004 6.22335 12.7902 6.22268 14.0799 6.22335C14.3858 6.22853 14.6728 6.44311 14.7666 6.73417C14.8422 6.95595 14.8056 7.21259 14.6692 7.40356C14.5329 7.60037 14.2977 7.72408 14.0579 7.72273C12.7756 7.72251 11.4932 7.72251 10.2109 7.72251C10.0942 7.72161 9.97497 7.73038 9.86138 7.69687C9.62273 7.63434 9.42231 7.4454 9.34561 7.21102C9.24889 6.93256 9.33729 6.60326 9.56042 6.41072C9.64747 6.33424 9.75184 6.27756 9.86408 6.24787Z" fill="#4B4B4B"/>
<path d="M17.5502 6.52835C17.7135 6.37405 17.9478 6.30252 18.1701 6.33356C18.2267 6.33649 18.2819 6.36168 18.339 6.35448C18.3417 6.3619 18.3473 6.37697 18.35 6.3844C18.604 6.48719 18.7884 6.74158 18.8008 7.01622C18.8062 7.32303 18.803 7.63006 18.8044 7.93686C18.8026 8.56059 18.8066 9.18432 18.8026 9.80805C18.7852 10.1866 18.4411 10.5121 18.0616 10.5062C17.677 10.5202 17.3228 10.1916 17.3063 9.80715C17.3014 8.90001 17.3077 7.99264 17.3027 7.08528C17.3039 6.87609 17.3959 6.66983 17.5502 6.52835Z" fill="#4B4B4B"/>
<path d="M9.29253 9.22683C9.66636 9.21604 10.0411 9.22504 10.4154 9.22211C11.8021 9.22211 13.189 9.22211 14.5759 9.22211C14.7185 9.22099 14.8663 9.21469 15.001 9.27047C15.2235 9.35347 15.4 9.54871 15.4599 9.77859C15.5141 9.97855 15.4801 10.2006 15.3677 10.3749C15.2331 10.5883 14.9862 10.7251 14.7334 10.7217C12.9409 10.7215 11.1482 10.7219 9.35574 10.7213C8.96886 10.7197 8.62606 10.3747 8.62786 9.98755C8.61054 9.61214 8.9187 9.26102 9.29253 9.22683Z" fill="#4B4B4B"/>
<path opacity="0.5" d="M5.30023 6.16262C5.30675 6.15902 5.31957 6.15182 5.32587 6.14822C5.32857 6.15205 5.33419 6.1597 5.33689 6.16352C5.2955 6.75328 5.31395 7.34597 5.3081 7.93709C4.98128 8.00659 4.65535 8.09544 4.35642 8.24704C4.04737 8.4 3.77363 8.62358 3.56489 8.89776C3.21783 9.35167 3.07005 9.91962 2.97963 10.4743C2.87031 11.1684 2.84355 11.872 2.82533 12.5733C2.80171 13.765 2.80958 14.9574 2.81071 16.1493C2.81453 16.8243 2.82015 17.4995 2.85412 18.1739C2.88201 18.693 2.92474 19.213 3.02574 19.7239C3.10176 20.0968 3.21153 20.4681 3.40272 20.7997C3.60088 21.1443 3.89217 21.4344 4.23788 21.6304C4.58225 21.827 4.96823 21.9363 5.35511 22.0116C6.13292 22.1565 6.92669 22.1828 7.71575 22.2033C9.0651 22.2278 10.4147 22.215 11.7643 22.2183C13.0459 22.217 14.328 22.2217 15.6097 22.2143C16.2471 22.2084 16.885 22.1988 17.5213 22.1576C18.0196 22.1236 18.5189 22.0737 19.0056 21.9581C19.3705 21.8704 19.731 21.7404 20.0414 21.5255C20.3647 21.3031 20.6254 20.9931 20.7945 20.6395C20.9965 20.2205 21.0921 19.7601 21.1575 19.3023C21.2475 18.6451 21.2723 17.9811 21.2882 17.3187C21.3103 16.1342 21.3031 14.9495 21.3017 13.765C21.297 13.0147 21.2912 12.2634 21.2435 11.5141C21.1998 10.8942 21.1382 10.2676 20.9448 9.67377C20.8067 9.24438 20.566 8.84176 20.2176 8.55025C19.8206 8.20858 19.3093 8.04168 18.8043 7.93686C18.803 7.63006 18.8061 7.32303 18.8007 7.01623C18.7884 6.74159 18.6039 6.48719 18.35 6.3844C18.3527 6.3763 18.3581 6.35988 18.3608 6.35179C19.2031 6.4539 20.0606 6.64329 20.7837 7.108C21.3078 7.44314 21.746 7.91145 22.0456 8.4569C22.3299 8.97087 22.4932 9.54286 22.5937 10.1191C22.706 10.766 22.7474 11.4228 22.7725 12.0783C22.8124 13.2322 22.8007 14.3869 22.8031 15.5415C22.7971 16.7197 22.8072 17.9006 22.6945 19.0747C22.609 19.9144 22.4477 20.7689 22.0296 21.5125C21.6452 22.2008 21.0361 22.7588 20.3195 23.087C19.8413 23.3097 19.3257 23.4408 18.8068 23.5256C18.2263 23.6192 17.6385 23.659 17.0515 23.6833C15.9493 23.7256 14.846 23.7157 13.7434 23.7177C12.3934 23.7177 11.0436 23.7177 9.69378 23.7177C9.01157 23.717 8.32936 23.717 7.64737 23.7015C6.9186 23.6837 6.18825 23.6532 5.46578 23.5501C4.83192 23.4577 4.1983 23.3036 3.62765 23.0054C3.0741 22.7195 2.5941 22.2923 2.24546 21.7759C2.01693 21.4378 1.84621 21.0626 1.7234 20.674C1.552 20.133 1.4654 19.5693 1.41119 19.0059C1.31335 17.937 1.3147 16.8623 1.3102 15.7901C1.3111 14.5824 1.29963 13.3745 1.33674 12.1673C1.36306 11.4309 1.40737 10.692 1.5466 9.96731C1.68111 9.26867 1.92493 8.57657 2.35927 8.00547C2.63301 7.64333 2.97265 7.33113 3.35728 7.09C3.94817 6.7164 4.63286 6.52566 5.31687 6.41184C5.30653 6.32952 5.34499 6.23325 5.30023 6.16262Z" fill="#4B4B4B"/>
<path opacity="0.5" d="M4.5312 10.3598C4.74444 10.3191 4.97386 10.3769 5.14121 10.5155C5.83175 11.0904 6.52205 11.666 7.21236 12.2413C7.86039 12.7796 8.50391 13.3233 9.16003 13.8518C9.55253 14.1663 9.94976 14.476 10.3693 14.7538C10.7386 14.9949 11.1284 15.2196 11.5596 15.3283C11.9438 15.4261 12.3547 15.4045 12.7297 15.2772C13.1941 15.12 13.61 14.8507 14.0095 14.5716C14.6915 14.0846 15.3323 13.5435 15.9779 13.0097C16.9516 12.1991 17.9246 11.3875 18.8981 10.5764C19.0421 10.4399 19.2322 10.3465 19.4335 10.3474C19.74 10.3384 20.0372 10.54 20.144 10.8272C20.2385 11.0672 20.1964 11.3544 20.0365 11.5571C19.9886 11.621 19.9267 11.672 19.8653 11.7224C18.8961 12.5297 17.9273 13.3374 16.9583 14.1447C16.3459 14.6526 15.7352 15.1639 15.095 15.6371C14.5734 16.0193 14.0277 16.3803 13.424 16.6196C12.9546 16.8067 12.4478 16.9055 11.9417 16.8873C11.4424 16.8731 10.9511 16.7433 10.4968 16.5391C9.76172 16.2073 9.11235 15.7199 8.47962 15.2266C7.77716 14.6724 7.09518 14.0932 6.40689 13.5219C5.66282 12.9015 4.91853 12.2818 4.17469 11.6612C3.92659 11.4518 3.84697 11.0737 3.98777 10.7815C4.08742 10.5647 4.2957 10.4014 4.5312 10.3598Z" fill="#4B4B4B"/>
</svg>
