<svg width="24" height="24" viewBox="0 0 24 24" fill="none" xmlns="http://www.w3.org/2000/svg">
<path d="M4.6804 2.74774C4.95577 2.68643 5.24132 2.66866 5.52211 2.69769C5.59426 2.70723 5.6651 2.68253 5.73747 2.68426C9.26202 2.68448 12.7866 2.68426 16.3113 2.68426C16.7947 2.68513 17.2785 2.68426 17.7614 2.70983C18.2181 2.73539 18.68 2.78717 19.1123 2.94533C19.98 3.27616 20.698 3.97271 21.0719 4.82092C21.2587 5.25596 21.3247 5.73065 21.3559 6.19949C21.3967 6.86333 21.3861 7.52889 21.3882 8.19359C21.3882 11.3642 21.3882 14.5345 21.3882 17.705C21.3841 18.1968 21.4019 18.6899 21.3607 19.1807C21.331 19.5254 21.2357 19.8787 21.0071 20.1469C20.7311 20.4871 20.3171 20.7105 19.8814 20.7553C19.5384 20.7932 19.2004 20.6816 18.8952 20.5348C18.5069 20.3469 18.138 20.1229 17.7625 19.9114C17.6277 19.8369 17.4975 19.7535 17.3567 19.6911C17.2605 19.6545 17.1719 19.7214 17.0906 19.7632C16.3308 20.194 15.5747 20.6307 14.8149 21.0614C14.5514 21.2112 14.2566 21.3162 13.9502 21.3147C13.6291 21.3253 13.3163 21.2216 13.0401 21.0634C12.4321 20.7187 11.8261 20.3701 11.2188 20.0239C11.0236 19.9153 10.8338 19.7964 10.6337 19.6978C10.5596 19.6601 10.4766 19.6909 10.4107 19.7307C9.91068 20.0026 9.42862 20.309 8.91451 20.5545C8.65321 20.6758 8.37071 20.7692 8.0793 20.762C7.62671 20.7482 7.18624 20.5365 6.88726 20.1974C6.6758 19.9682 6.55729 19.6677 6.51331 19.3618C6.45351 18.9497 6.46629 18.5318 6.46348 18.1167C6.46348 16.0218 6.46369 13.9268 6.46326 11.8317C5.41227 11.8311 4.36105 11.8326 3.30984 11.8311C2.94348 11.8289 2.61806 11.5056 2.61221 11.1395C2.61048 9.2045 2.61199 7.26934 2.61134 5.33439C2.60939 4.79383 2.77882 4.25436 3.09059 3.8126C3.46432 3.27703 4.04214 2.8877 4.6804 2.74774ZM4.80866 4.2093C4.48086 4.34124 4.20961 4.62268 4.11298 4.96542C4.03325 5.1953 4.06056 5.4412 4.05601 5.67974C4.0545 7.24962 4.0586 8.81972 4.05384 10.3896C4.85698 10.3964 5.66055 10.3914 6.46369 10.392C6.46283 8.6984 6.46434 7.00459 6.46304 5.31099C6.46088 4.86533 6.18486 4.43787 5.78275 4.24786C5.4816 4.10465 5.11913 4.0819 4.80866 4.2093ZM7.61868 4.12848C7.80262 4.48705 7.90164 4.88851 7.90727 5.29149C7.90879 9.67486 7.90705 14.0585 7.90814 18.4419C7.91247 18.6876 7.90619 18.9356 7.94735 19.1787C7.95363 19.2615 8.04637 19.3141 8.12134 19.3141C8.27624 19.2704 8.41771 19.1902 8.55962 19.1163C8.91277 18.9241 9.25898 18.7203 9.60866 18.5222C9.86345 18.3751 10.1423 18.2551 10.44 18.2408C10.7829 18.2118 11.125 18.3084 11.4214 18.4778C12.1544 18.8923 12.8838 19.313 13.6157 19.7297C13.6991 19.7756 13.7808 19.8265 13.8694 19.8625C13.9751 19.8967 14.0676 19.8181 14.1569 19.7741C14.6303 19.5054 15.1024 19.2342 15.5754 18.9644C15.8904 18.7876 16.1995 18.6005 16.5189 18.4315C16.819 18.272 17.1667 18.2053 17.5042 18.2499C17.7473 18.2763 17.9759 18.3741 18.1878 18.4919C18.5814 18.712 18.9686 18.9441 19.3668 19.156C19.4862 19.2164 19.6058 19.2816 19.736 19.3156C19.7969 19.3124 19.8562 19.2769 19.8913 19.2272C19.9345 19.063 19.9325 18.891 19.9397 18.7224C19.9481 18.1812 19.942 17.6398 19.944 17.0984C19.944 14.4623 19.944 11.8261 19.944 9.18999C19.942 8.42454 19.949 7.6591 19.9379 6.89387C19.9271 6.48721 19.9204 6.07665 19.8348 5.67735C19.7637 5.33634 19.5687 5.03324 19.3304 4.78473C19.0689 4.51976 18.7413 4.30419 18.3713 4.23248C17.9291 4.14322 17.4752 4.14148 17.0259 4.13217C16.3973 4.12567 15.7686 4.12957 15.1401 4.12848C12.633 4.12848 10.1258 4.12848 7.61868 4.12848Z" fill="#4B4B4B"/>
<path d="M11.8457 12.6137C11.8546 12.321 12.1182 12.0668 12.4112 12.0684C12.7119 12.0547 12.9907 12.3132 12.9989 12.6143C13.0018 13.0741 12.9992 13.534 13.0002 13.994C13.4468 13.994 13.8933 13.994 14.34 13.994C14.5116 13.9907 14.6821 14.0687 14.7913 14.2011C14.9261 14.3586 14.9634 14.5909 14.886 14.7831C14.8052 14.9954 14.5896 15.1477 14.3619 15.149C13.908 15.1499 13.4541 15.149 13.0002 15.1494C12.9996 15.6037 13.0009 16.0583 12.9996 16.5126C12.9974 16.7288 12.8601 16.9344 12.6636 17.0228C12.4131 17.1437 12.0855 17.0493 11.9384 16.8136C11.8515 16.6881 11.8368 16.5317 11.8448 16.3837C11.8448 15.9723 11.8448 15.5609 11.8448 15.1494C11.3911 15.149 10.9375 15.1501 10.4838 15.149C10.3007 15.1475 10.1226 15.0502 10.0201 14.899C9.91203 14.7451 9.88885 14.5372 9.95775 14.3625C10.0379 14.1491 10.2546 13.9962 10.4827 13.9944C10.9368 13.9933 11.3907 13.9944 11.8446 13.994C11.8455 13.5338 11.8433 13.0736 11.8457 12.6137Z" fill="#4B4B4B"/>
<path opacity="0.5" d="M4.80866 4.20947C5.11913 4.08207 5.48159 4.10482 5.78274 4.24803C6.18486 4.43804 6.46087 4.8655 6.46304 5.31116C6.46434 7.00476 6.46282 8.69857 6.46369 10.3921C5.66055 10.3915 4.85697 10.3965 4.05383 10.3897C4.0586 8.81989 4.05448 7.24979 4.056 5.67991C4.06055 5.44137 4.03325 5.19547 4.11298 4.9656C4.20961 4.62285 4.48086 4.34141 4.80866 4.20947Z" fill="#4B4B4B"/>
<path opacity="0.5" d="M10.4227 6.14013C11.4753 6.13125 12.5282 6.13905 13.5807 6.13645C14.8306 6.13645 16.0805 6.13601 17.3304 6.13666C17.5327 6.13645 17.7329 6.22679 17.8666 6.37888C18.0514 6.58211 18.1017 6.89431 17.9901 7.14519C17.8813 7.40345 17.6116 7.5837 17.3308 7.58067C15.0921 7.58089 12.8534 7.58067 10.6147 7.58089C10.476 7.58522 10.3326 7.5798 10.205 7.51979C9.92353 7.39998 9.74132 7.08756 9.77816 6.78338C9.80675 6.45233 10.0915 6.16786 10.4227 6.14013Z" fill="#4B4B4B"/>
<path opacity="0.5" d="M10.3398 10.0048C10.4364 9.98254 10.5363 9.98861 10.6349 9.98839C12.8372 9.98818 15.0393 9.98861 17.2416 9.98817C17.3638 9.98406 17.489 9.99338 17.6025 10.0428C17.9026 10.161 18.0945 10.4975 18.0412 10.8164C17.9973 11.16 17.676 11.4384 17.3293 11.4324C15.0542 11.433 12.7791 11.4326 10.5038 11.4326C10.2919 11.4356 10.0815 11.3401 9.94553 11.1774C9.76202 10.9668 9.7215 10.6461 9.84586 10.3961C9.93968 10.1996 10.1268 10.0508 10.3398 10.0048Z" fill="#4B4B4B"/>
<path opacity="0.5" d="M16.2513 13.855C16.6032 13.8422 16.9561 13.8533 17.3084 13.8494C17.5233 13.844 17.7384 13.9389 17.8769 14.104C18.061 14.3152 18.1018 14.6367 17.9768 14.8874C17.8821 15.0839 17.6938 15.233 17.48 15.2778C17.3879 15.2988 17.2928 15.2936 17.199 15.2941C16.9173 15.2941 16.6355 15.2938 16.3536 15.2943C15.9838 15.3099 15.6401 14.9988 15.62 14.6291C15.5808 14.2563 15.8789 13.8921 16.2513 13.855Z" fill="#4B4B4B"/>
</svg>
