<svg width="24" height="24" viewBox="0 0 24 24" fill="none" xmlns="http://www.w3.org/2000/svg">
<path d="M17.6674 0.551029C17.8322 0.392004 18.0922 0.344769 18.3032 0.433391C18.5178 0.518415 18.6714 0.736596 18.6764 0.968049C18.6782 1.44175 18.6744 1.91545 18.6782 2.38916C19.1476 2.38871 19.617 2.38893 20.0865 2.38893C20.2873 2.38961 20.4819 2.50207 20.5865 2.67279C20.6875 2.83429 20.7044 3.0446 20.6297 3.21982C20.5422 3.43553 20.3195 3.58713 20.0865 3.58803C19.6173 3.58848 19.1481 3.58893 18.6789 3.58781C18.6723 4.07051 18.6807 4.55388 18.6748 5.03658C18.657 5.33619 18.3842 5.59103 18.0841 5.58766C17.7713 5.59935 17.4847 5.32876 17.4777 5.01611C17.4762 4.54038 17.4777 4.06466 17.4768 3.58871C17.0117 3.58803 16.5465 3.58871 16.0814 3.58848C15.9352 3.58961 15.7896 3.5354 15.6803 3.43823C15.5114 3.29225 15.4381 3.04798 15.4979 2.83294C15.5609 2.58327 15.8007 2.39231 16.0587 2.38893C16.5312 2.38848 17.004 2.38938 17.4766 2.38871C17.4775 1.92198 17.4768 1.45502 17.4771 0.988293C17.4757 0.824544 17.547 0.662145 17.6674 0.551029Z" fill="#4B4B4B"/>
<path d="M8.48097 2.29142C9.21311 2.22236 9.94931 2.22754 10.6839 2.22394C11.7784 2.22461 12.8732 2.22191 13.9677 2.22574C14.2279 2.22551 14.4787 2.37847 14.6018 2.60722C14.7405 2.85577 14.7185 3.18281 14.5473 3.41067C14.4101 3.60051 14.1818 3.72062 13.9474 3.72512C12.7396 3.7222 11.5317 3.72265 10.324 3.72467C9.60381 3.73412 8.87729 3.72175 8.16561 3.84861C7.94676 3.89202 7.727 3.95252 7.53446 4.06836C7.33922 4.1851 7.18335 4.36347 7.08888 4.56996C6.97394 4.81985 6.92423 5.09359 6.88801 5.36441C6.82661 5.8606 6.81873 6.3613 6.81154 6.86064C6.80344 7.84043 6.81109 8.82023 6.80659 9.80002C6.79332 10.1545 6.49484 10.4692 6.1417 10.5018C5.81172 10.5447 5.47208 10.3371 5.35804 10.0252C5.29281 9.87065 5.31036 9.70083 5.30833 9.53775C5.30811 9.004 5.30878 8.47046 5.30811 7.93693C5.31396 7.34581 5.29551 6.75312 5.3369 6.16336C5.3342 6.15953 5.32858 6.15189 5.32588 6.14806L5.32183 6.14041C5.35084 5.76591 5.36231 5.38668 5.42327 5.01442C5.48513 4.60909 5.58882 4.20579 5.77731 3.83983C6.0533 3.29303 6.52858 2.85329 7.09135 2.61352C7.53064 2.423 8.00704 2.33865 8.48097 2.29142Z" fill="#4B4B4B"/>
<path d="M9.86408 6.24779C9.97677 6.2154 10.0949 6.22394 10.2109 6.22304C11.5004 6.22327 12.7902 6.22259 14.0799 6.22327C14.3858 6.22844 14.6728 6.44303 14.7666 6.73409C14.8422 6.95587 14.8056 7.21251 14.6692 7.40348C14.5329 7.60029 14.2977 7.724 14.0579 7.72265C12.7756 7.72243 11.4932 7.72243 10.2109 7.72243C10.0942 7.72153 9.97497 7.7303 9.86138 7.69678C9.62273 7.63425 9.42231 7.44531 9.34561 7.21094C9.24889 6.93247 9.33729 6.60318 9.56042 6.41064C9.64747 6.33416 9.75184 6.27748 9.86408 6.24779Z" fill="#4B4B4B"/>
<path d="M17.5502 6.52808C17.7135 6.37378 17.9478 6.30225 18.1701 6.33329C18.2267 6.33622 18.2819 6.36141 18.339 6.35421C18.3417 6.36163 18.3473 6.3767 18.35 6.38413C18.604 6.48692 18.7884 6.74131 18.8008 7.01595C18.8062 7.32276 18.803 7.62979 18.8044 7.93659C18.8026 8.56032 18.8066 9.18405 18.8026 9.80778C18.7852 10.1864 18.4411 10.5119 18.0616 10.506C17.677 10.5199 17.3228 10.1913 17.3063 9.80688C17.3014 8.89974 17.3077 7.99237 17.3027 7.08501C17.3039 6.87582 17.3959 6.66956 17.5502 6.52808Z" fill="#4B4B4B"/>
<path d="M9.29244 9.2267C9.66627 9.2159 10.041 9.2249 10.4152 9.22197C11.8019 9.22197 13.1889 9.22197 14.5758 9.22197C14.7184 9.22085 14.8662 9.21455 15.0009 9.27033C15.2233 9.35333 15.3999 9.54857 15.4597 9.77845C15.514 9.97841 15.48 10.2004 15.3675 10.3748C15.233 10.5882 14.986 10.725 14.7332 10.7216C12.9408 10.7214 11.1481 10.7218 9.35565 10.7211C8.96877 10.7196 8.62597 10.3745 8.62777 9.98741C8.61045 9.612 8.91861 9.26089 9.29244 9.2267Z" fill="#4B4B4B"/>
<path opacity="0.5" d="M5.30023 6.16284C5.30675 6.15924 5.31957 6.15204 5.32587 6.14844C5.32857 6.15227 5.33419 6.15992 5.33689 6.16374C5.2955 6.75351 5.31395 7.3462 5.3081 7.93731C4.98128 8.00681 4.65535 8.09566 4.35642 8.24726C4.04737 8.40022 3.77363 8.6238 3.56489 8.89798C3.21783 9.35189 3.07005 9.91984 2.97963 10.4745C2.87031 11.1687 2.84355 11.8722 2.82533 12.5736C2.80171 13.7652 2.80958 14.9576 2.81071 16.1495C2.81453 16.8245 2.82015 17.4998 2.85412 18.1741C2.88201 18.6932 2.92474 19.2133 3.02574 19.7241C3.10176 20.097 3.21153 20.4684 3.40272 20.7999C3.60088 21.1445 3.89217 21.4347 4.23788 21.6306C4.58225 21.8272 4.96823 21.9365 5.35511 22.0118C6.13292 22.1567 6.92669 22.183 7.71575 22.2035C9.0651 22.228 10.4147 22.2152 11.7643 22.2186C13.0459 22.2172 14.328 22.2219 15.6097 22.2145C16.2471 22.2087 16.885 22.199 17.5213 22.1578C18.0196 22.1239 18.5189 22.0739 19.0056 21.9583C19.3705 21.8706 19.731 21.7406 20.0414 21.5258C20.3647 21.3033 20.6254 20.9934 20.7945 20.6398C20.9965 20.2207 21.0921 19.7603 21.1575 19.3026C21.2475 18.6453 21.2723 17.9813 21.2882 17.3189C21.3103 16.1344 21.3031 14.9497 21.3017 13.7652C21.297 13.0149 21.2912 12.2636 21.2435 11.5144C21.1998 10.8945 21.1382 10.2678 20.9448 9.67399C20.8067 9.2446 20.566 8.84198 20.2176 8.55047C19.8206 8.2088 19.3093 8.0419 18.8043 7.93709C18.803 7.63028 18.8061 7.32325 18.8007 7.01645C18.7884 6.74181 18.6039 6.48741 18.35 6.38462C18.3527 6.37652 18.3581 6.3601 18.3608 6.35201C19.2031 6.45412 20.0606 6.64352 20.7837 7.10822C21.3078 7.44337 21.746 7.91167 22.0456 8.45712C22.3299 8.97109 22.4932 9.54308 22.5937 10.1194C22.706 10.7663 22.7474 11.4231 22.7725 12.0785C22.8124 13.2324 22.8007 14.3872 22.8031 15.5417C22.7971 16.7199 22.8072 17.9008 22.6945 19.0749C22.609 19.9146 22.4477 20.7691 22.0296 21.5127C21.6452 22.201 21.0361 22.7591 20.3195 23.0872C19.8413 23.3099 19.3257 23.4411 18.8068 23.5259C18.2263 23.6194 17.6385 23.6592 17.0515 23.6835C15.9493 23.7258 14.846 23.7159 13.7434 23.7179C12.3934 23.7179 11.0436 23.7179 9.69378 23.7179C9.01157 23.7173 8.32936 23.7173 7.64737 23.7017C6.9186 23.684 6.18825 23.6534 5.46578 23.5504C4.83192 23.4579 4.1983 23.3038 3.62765 23.0056C3.0741 22.7197 2.5941 22.2926 2.24546 21.7761C2.01693 21.4381 1.84621 21.0629 1.7234 20.6742C1.552 20.1332 1.4654 19.5696 1.41119 19.0061C1.31335 17.9372 1.3147 16.8625 1.3102 15.7903C1.3111 14.5826 1.29963 13.3748 1.33674 12.1676C1.36306 11.4312 1.40737 10.6923 1.5466 9.96753C1.68111 9.26889 1.92493 8.57679 2.35927 8.00569C2.63301 7.64355 2.97265 7.33135 3.35728 7.09023C3.94817 6.71662 4.63286 6.52588 5.31687 6.41206C5.30653 6.32974 5.34499 6.23347 5.30023 6.16284Z" fill="#4B4B4B"/>
<path opacity="0.5" d="M4.53126 10.3599C4.7445 10.3192 4.97392 10.377 5.14127 10.5156C5.83181 11.0905 6.52211 11.6661 7.21242 12.2415C7.86045 12.7797 8.50397 13.3234 9.16009 13.852C9.55259 14.1664 9.94982 14.4761 10.3694 14.7539C10.7387 14.9951 11.1285 15.2198 11.5597 15.3284C11.9439 15.4262 12.3548 15.4046 12.7298 15.2773C13.1942 15.1201 13.6101 14.8509 14.0096 14.5717C14.6916 14.0848 15.3324 13.5436 15.978 13.0098C16.9517 12.1992 17.9247 11.3876 18.8982 10.5765C19.0422 10.44 19.2323 10.3467 19.4336 10.3476C19.7401 10.3386 20.0373 10.5401 20.1441 10.8273C20.2386 11.0673 20.1965 11.3546 20.0366 11.5572C19.9887 11.6211 19.9268 11.6722 19.8654 11.7225C18.8962 12.5298 17.9274 13.3375 16.9584 14.1448C16.346 14.6527 15.7353 15.164 15.0951 15.6372C14.5735 16.0194 14.0278 16.3804 13.4241 16.6197C12.9547 16.8069 12.4479 16.9056 11.9418 16.8874C11.4425 16.8732 10.9512 16.7434 10.4969 16.5392C9.76178 16.2074 9.11241 15.72 8.47968 15.2267C7.77722 14.6725 7.09524 14.0933 6.40695 13.522C5.66288 12.9016 4.91859 12.282 4.17475 11.6614C3.92665 11.452 3.84703 11.0739 3.98783 10.7817C4.08748 10.5648 4.29576 10.4015 4.53126 10.3599Z" fill="#4B4B4B"/>
</svg>
