<svg width="24" height="24" viewBox="0 0 24 24" fill="none" xmlns="http://www.w3.org/2000/svg">
<path d="M4.68043 2.74798C4.9558 2.68667 5.24135 2.6689 5.52214 2.69794C5.59429 2.70747 5.66513 2.68277 5.7375 2.6845C9.26205 2.68472 12.7866 2.6845 16.3114 2.6845C16.7947 2.68537 17.2785 2.6845 17.7614 2.71007C18.2181 2.73563 18.6801 2.78741 19.1123 2.94557C19.98 3.27641 20.698 3.97295 21.0719 4.82116C21.2587 5.2562 21.3248 5.7309 21.356 6.19974C21.3967 6.86357 21.3861 7.52914 21.3882 8.19383C21.3882 11.3644 21.3882 14.5347 21.3882 17.7052C21.3841 18.197 21.4019 18.6901 21.3607 19.1809C21.3311 19.5256 21.2357 19.8789 21.0072 20.1471C20.7311 20.4873 20.3171 20.7107 19.8814 20.7555C19.5384 20.7934 19.2005 20.6819 18.8952 20.535C18.5069 20.3471 18.138 20.1231 17.7625 19.9116C17.6278 19.8371 17.4976 19.7537 17.3567 19.6913C17.2605 19.6547 17.1719 19.7216 17.0907 19.7634C16.3309 20.1942 15.5747 20.6309 14.8149 21.0616C14.5515 21.2114 14.2566 21.3164 13.9503 21.3149C13.6292 21.3255 13.3163 21.2218 13.0401 21.0636C12.4321 20.7189 11.8262 20.3703 11.2189 20.0241C11.0237 19.9155 10.8339 19.7966 10.6337 19.698C10.5596 19.6603 10.4766 19.6911 10.4108 19.731C9.91071 20.0029 9.42865 20.3092 8.91453 20.5547C8.65324 20.676 8.37073 20.7694 8.07932 20.7622C7.62673 20.7484 7.18627 20.5367 6.88729 20.1976C6.67583 19.9684 6.55732 19.6679 6.51334 19.362C6.45354 18.9499 6.46632 18.532 6.46351 18.1169C6.46351 16.022 6.46372 13.927 6.46329 11.8319C5.4123 11.8313 4.36108 11.8328 3.30987 11.8313C2.94351 11.8291 2.61809 11.5058 2.61224 11.1397C2.61051 9.20475 2.61203 7.26958 2.61138 5.33463C2.60943 4.79408 2.77885 4.25461 3.09062 3.81284C3.46435 3.27727 4.04217 2.88794 4.68043 2.74798ZM4.80869 4.20954C4.48089 4.34148 4.20964 4.62292 4.11301 4.96567C4.03328 5.19554 4.06058 5.44144 4.05603 5.67998C4.05452 7.24987 4.05863 8.81997 4.05387 10.3899C4.85701 10.3966 5.66058 10.3916 6.46372 10.3922C6.46286 8.69864 6.46437 7.00483 6.46307 5.31123C6.46091 4.86557 6.18489 4.43811 5.78278 4.24811C5.48163 4.1049 5.11916 4.08215 4.80869 4.20954ZM7.61871 4.12873C7.80266 4.48729 7.90167 4.88876 7.9073 5.29173C7.90882 9.67511 7.90708 14.0587 7.90817 18.4421C7.9125 18.6878 7.90622 18.9358 7.94738 19.1789C7.95366 19.2617 8.04639 19.3143 8.12136 19.3143C8.27626 19.2706 8.41774 19.1904 8.55965 19.1165C8.9128 18.9243 9.25901 18.7205 9.60869 18.5224C9.86348 18.3753 10.1423 18.2553 10.44 18.241C10.783 18.212 11.1251 18.3086 11.4214 18.478C12.1544 18.8925 12.8839 19.3132 13.6157 19.7299C13.6991 19.7758 13.7808 19.8267 13.8694 19.8627C13.9752 19.8969 14.0677 19.8183 14.1569 19.7743C14.6303 19.5056 15.1024 19.2344 15.5754 18.9646C15.8904 18.7878 16.1996 18.6007 16.5189 18.4317C16.819 18.2722 17.1667 18.2055 17.5043 18.2501C17.7474 18.2765 17.9759 18.3743 18.1878 18.4921C18.5815 18.7122 18.9686 18.9443 19.3669 19.1562C19.4862 19.2166 19.6058 19.2818 19.736 19.3158C19.7969 19.3126 19.8563 19.2771 19.8914 19.2274C19.9345 19.0632 19.9325 18.8912 19.9397 18.7226C19.9481 18.1814 19.9421 17.64 19.944 17.0986C19.944 14.4625 19.944 11.8263 19.944 9.19023C19.9421 8.42479 19.949 7.65935 19.938 6.89412C19.9271 6.48746 19.9204 6.07689 19.8348 5.6776C19.7638 5.33658 19.5688 5.03348 19.3305 4.78498C19.069 4.52001 18.7414 4.30444 18.3713 4.23272C17.9291 4.14346 17.4752 4.14173 17.0259 4.13241C16.3974 4.12591 15.7686 4.12981 15.1401 4.12873C12.633 4.12873 10.1259 4.12873 7.61871 4.12873Z" fill="#4B4B4B"/>
<path d="M11.8457 12.6136C11.8545 12.3209 12.1182 12.0668 12.4111 12.0683C12.7118 12.0546 12.9907 12.3131 12.9989 12.6143C13.0017 13.074 12.9991 13.534 13.0002 13.9939C13.4467 13.9939 13.8933 13.9939 14.34 13.9939C14.5116 13.9907 14.6821 14.0687 14.7913 14.201C14.9261 14.3586 14.9633 14.5908 14.886 14.783C14.8052 14.9953 14.5896 15.1476 14.3619 15.1489C13.908 15.1498 13.4541 15.1489 13.0002 15.1493C12.9996 15.6037 13.0009 16.0582 12.9996 16.5125C12.9974 16.7288 12.86 16.9344 12.6635 17.0228C12.4131 17.1437 12.0855 17.0492 11.9384 16.8135C11.8515 16.688 11.8368 16.5316 11.8448 16.3836C11.8448 15.9722 11.8448 15.5608 11.8448 15.1493C11.3911 15.1489 10.9374 15.15 10.4838 15.1489C10.3007 15.1474 10.1226 15.0501 10.0201 14.8989C9.912 14.7451 9.88882 14.5371 9.95772 14.3625C10.0379 14.149 10.2545 13.9961 10.4827 13.9944C10.9368 13.9933 11.3907 13.9944 11.8446 13.9939C11.8454 13.5337 11.8433 13.0736 11.8457 12.6136Z" fill="#4B4B4B"/>
<path opacity="0.5" d="M4.80866 4.20954C5.11913 4.08214 5.48159 4.10489 5.78274 4.2481C6.18486 4.43811 6.46087 4.86557 6.46304 5.31123C6.46434 7.00482 6.46282 8.69863 6.46369 10.3922C5.66055 10.3916 4.85697 10.3966 4.05383 10.3898C4.0586 8.81996 4.05448 7.24986 4.056 5.67998C4.06055 5.44144 4.03325 5.19553 4.11298 4.96566C4.20961 4.62291 4.48086 4.34148 4.80866 4.20954Z" fill="#4B4B4B"/>
<path opacity="0.5" d="M10.4226 6.14016C11.4752 6.13127 12.5281 6.13907 13.5806 6.13647C14.8305 6.13647 16.0804 6.13604 17.3303 6.13669C17.5326 6.13647 17.7328 6.22682 17.8665 6.37891C18.0513 6.58213 18.1016 6.89433 17.99 7.14522C17.8812 7.40347 17.6115 7.58373 17.3307 7.5807C15.092 7.58091 12.8533 7.5807 10.6146 7.58091C10.4759 7.58525 10.3325 7.57983 10.2049 7.51982C9.92347 7.40001 9.74126 7.08759 9.7781 6.78341C9.80669 6.45236 10.0914 6.16789 10.4226 6.14016Z" fill="#4B4B4B"/>
<path opacity="0.5" d="M10.3399 10.0051C10.4365 9.98275 10.5364 9.98882 10.635 9.9886C12.8373 9.98839 15.0394 9.98882 17.2417 9.98839C17.3639 9.98427 17.4891 9.99359 17.6026 10.043C17.9027 10.1613 18.0946 10.4977 18.0413 10.8167C17.9974 11.1603 17.6761 11.4387 17.3294 11.4326C15.0543 11.4333 12.7792 11.4328 10.5039 11.4328C10.292 11.4359 10.0816 11.3403 9.94559 11.1776C9.76208 10.967 9.72156 10.6464 9.84592 10.3963C9.93974 10.1998 10.1269 10.051 10.3399 10.0051Z" fill="#4B4B4B"/>
<path opacity="0.5" d="M16.2513 13.8548C16.6032 13.842 16.9561 13.8531 17.3084 13.8492C17.5233 13.8438 17.7384 13.9387 17.8769 14.1038C18.061 14.315 18.1018 14.6365 17.9768 14.8872C17.8821 15.0837 17.6938 15.2327 17.48 15.2776C17.3879 15.2986 17.2928 15.2934 17.199 15.2938C16.9173 15.2938 16.6355 15.2936 16.3536 15.2941C15.9838 15.3097 15.6401 14.9985 15.62 14.6289C15.5808 14.2561 15.8789 13.8919 16.2513 13.8548Z" fill="#4B4B4B"/>
</svg>
