<svg width="24" height="24" viewBox="0 0 24 24" fill="none" xmlns="http://www.w3.org/2000/svg">
<path d="M4.53995 2.07505C5.07866 2.0105 5.62186 2.0069 6.16349 2.00645C6.68061 2.00375 7.19795 2.00105 7.71529 2.0069C8.16155 2.01477 8.61253 2.04086 9.04552 2.15805C9.77024 2.36094 10.4009 2.83846 10.8432 3.44173C11.3911 4.17612 11.731 5.03378 12.1549 5.8397C13.4719 5.8415 14.7889 5.84038 16.1058 5.84083C16.6679 5.8415 17.2303 5.83655 17.7921 5.8532C18.2359 5.86692 18.6808 5.88694 19.1197 5.95914C19.5128 6.02459 19.9033 6.13683 20.2506 6.3368C20.8289 6.66767 21.3109 7.16814 21.6117 7.7633C21.9306 8.42549 21.9871 9.17294 22.0156 9.89631C22.0336 10.2506 21.7455 10.5879 21.3942 10.6305C21.0712 10.6799 20.7324 10.4739 20.6231 10.1669C20.5504 9.96446 20.5804 9.74606 20.5563 9.5362C20.521 9.13087 20.4866 8.70913 20.2911 8.34362C20.1031 8.01882 19.8284 7.74058 19.4951 7.56536C19.2209 7.41668 18.9058 7.38137 18.6017 7.34133C18.0414 7.28128 17.477 7.28712 16.9147 7.28218C13.5781 7.27655 10.2415 7.28173 6.90509 7.27948C6.54587 7.28195 6.21523 6.97425 6.19229 6.61548C6.15742 6.26482 6.42621 5.92023 6.76923 5.85342C6.85088 5.83768 6.93433 5.84218 7.0171 5.84173C8.19371 5.83655 9.37009 5.8433 10.5467 5.83993C10.3143 5.38962 10.1047 4.92559 9.82648 4.50092C9.70074 4.30883 9.56533 4.12011 9.39416 3.96581C9.19577 3.78429 8.96095 3.64034 8.70453 3.55734C8.45845 3.47479 8.19596 3.47119 7.93954 3.45567C7.36957 3.43453 6.79937 3.44555 6.22917 3.4442C5.72781 3.446 5.22531 3.4469 4.72619 3.50133C4.42929 3.53507 4.12563 3.5958 3.86809 3.75573C3.51675 3.97323 3.21602 4.28566 3.04799 4.66647C2.9416 4.90422 2.90876 5.16536 2.87952 5.42178C2.82936 5.92203 2.83521 6.42542 2.83139 6.92746C2.82599 8.62996 2.82869 10.3324 2.83206 12.0351C2.84196 13.1227 2.84916 14.2131 2.96702 15.2957C3.03045 15.8432 3.11795 16.3929 3.30666 16.9132C3.40856 17.1905 3.53564 17.4611 3.70839 17.702C3.90295 17.9758 4.1452 18.2158 4.42096 18.4072C4.78985 18.6661 5.22014 18.821 5.65335 18.9333C6.49999 19.147 7.37654 19.1917 8.24499 19.2336C9.40968 19.2813 10.5757 19.2615 11.7411 19.2745C12.0836 19.2783 12.3895 19.5689 12.4267 19.9068C12.4831 20.2961 12.1545 20.6889 11.7633 20.7093C10.7734 20.7075 9.78306 20.7147 8.79337 20.6904C7.87543 20.665 6.95502 20.6263 6.04698 20.4828C5.29279 20.3609 4.53905 20.1558 3.87618 19.7662C3.17238 19.3517 2.58599 18.7376 2.2153 18.0088C1.85294 17.3059 1.67502 16.5245 1.57223 15.7451C1.43862 14.7165 1.4114 13.678 1.39881 12.642C1.38486 11.135 1.39116 9.62797 1.38981 8.12094C1.38981 7.5359 1.39229 6.95063 1.39566 6.36559C1.40983 5.7738 1.41568 5.17458 1.55828 4.59652C1.69234 4.03127 2.00184 3.51663 2.40199 3.09938C2.7783 2.71003 3.24548 2.40615 3.75967 2.23385C4.01204 2.14928 4.27611 2.10587 4.53995 2.07505Z" fill="#4B4B4B"/>
<path opacity="0.5" d="M13.8656 17.1484C13.8542 16.7559 14.2008 16.3983 14.5937 16.3991C15.5287 16.3979 16.4638 16.3991 17.3991 16.3985C17.3995 15.5241 17.3993 14.6499 17.3993 13.7755C17.3995 13.6696 17.3945 13.5623 17.4163 13.4577C17.4606 13.2428 17.6049 13.0506 17.7998 12.9494C18.0268 12.826 18.3183 12.8345 18.5383 12.9696C18.7572 13.1003 18.9006 13.3485 18.9002 13.6039C18.8987 14.5345 18.9025 15.4649 18.8983 16.3953C19.7618 16.4032 20.6256 16.3964 21.4892 16.3987C21.6222 16.4015 21.7586 16.3864 21.8883 16.4252C22.1038 16.4842 22.2877 16.6456 22.3751 16.851C22.4691 17.0654 22.4542 17.3242 22.3337 17.5253C22.2101 17.7419 21.971 17.8889 21.7211 17.8961C20.7805 17.8995 19.8397 17.893 18.8993 17.8995C18.9012 18.8302 18.8995 19.761 18.9002 20.6916C18.9006 20.936 18.7699 21.1753 18.565 21.3081C18.3346 21.4655 18.0156 21.4744 17.7754 21.3327C17.5998 21.2326 17.4685 21.058 17.422 20.8609C17.3921 20.7427 17.4 20.6199 17.3993 20.4992C17.3991 19.6318 17.3998 18.7644 17.3989 17.8968C16.4645 17.8966 15.53 17.8972 14.5956 17.8966C14.2023 17.8987 13.8548 17.541 13.8656 17.1484Z" fill="#4B4B4B"/>
</svg>
