<svg width="24" height="24" viewBox="0 0 24 24" fill="none" xmlns="http://www.w3.org/2000/svg">
<path opacity="0.5" d="M5.42704 1.57221C5.77324 1.48114 6.19565 1.60265 6.38781 1.92669C6.45069 2.04533 6.47243 2.18027 6.51194 2.30778C6.58043 2.53523 6.71134 2.74495 6.89344 2.89426C7.03557 3.01242 7.20762 3.08505 7.3806 3.14185C7.72237 3.25066 8.08143 3.28182 8.43628 3.31178C9.27526 3.36547 10.1163 3.35756 10.9565 3.36043C11.7122 3.35971 12.4682 3.36331 13.2235 3.33287C13.7011 3.31106 14.1843 3.2847 14.6469 3.15168C14.926 3.07282 15.1981 2.92159 15.3692 2.67568C15.4981 2.49664 15.5586 2.2795 15.6138 2.06762C15.665 1.8663 15.8277 1.71458 16.007 1.62998C16.3382 1.46963 16.7711 1.52859 17.0271 1.80566C17.1468 1.93389 17.2246 2.1158 17.1933 2.29532C17.1101 2.74806 16.92 3.18307 16.6278 3.53444C16.1484 4.1123 15.431 4.41956 14.7166 4.55018C14.1011 4.66786 13.4739 4.69423 12.8495 4.71053C11.6031 4.73042 10.3562 4.73114 9.10975 4.70813C8.49566 4.68872 7.87805 4.66187 7.27424 4.53604C6.94183 4.46534 6.61199 4.36875 6.30669 4.21392C5.97101 4.04519 5.6615 3.81462 5.41933 3.52126C5.18042 3.23149 5.01375 2.88372 4.91556 2.51893C4.88027 2.38328 4.83538 2.24067 4.87208 2.09998C4.9359 1.83178 5.172 1.63573 5.42704 1.57221Z" fill="#4B4B4B"/>
<path d="M4.32949 6.35245C4.93322 6.27011 5.5431 6.26064 6.15093 6.25275C8.83729 6.24381 11.5234 6.25065 14.2098 6.24907C15.3892 6.25933 16.5744 6.20987 17.7485 6.35403C18.2134 6.42111 18.6755 6.55343 19.0837 6.79624C19.4934 7.038 19.829 7.40629 20.0458 7.83614C20.0803 7.90383 20.1121 7.97283 20.1413 8.0429C20.3246 8.48282 19.9506 8.92021 19.474 8.92016C19.4456 8.92015 19.4173 8.92015 19.389 8.92015C19.0971 8.92009 18.8663 8.71317 18.7173 8.46224C18.5736 8.22258 18.3386 8.04791 18.0792 7.96189C17.6912 7.83351 17.282 7.79616 16.8769 7.7759C16.2193 7.7417 15.5604 7.74617 14.902 7.74512C12.6359 7.7467 10.3696 7.7446 8.10322 7.74512C7.33324 7.74775 6.56325 7.74302 5.79326 7.75538C5.24958 7.76538 4.70102 7.78142 4.16862 7.90454C3.85893 7.98004 3.54822 8.1384 3.37015 8.4191C3.16361 8.75108 3.10023 9.14936 3.06406 9.53449C3.03173 9.8407 3.0248 10.149 3.01531 10.4567C2.98939 11.4035 3.00222 12.3505 3.00966 13.2973C3.03224 13.9763 3.01787 14.6774 3.2493 15.3242C3.36451 15.6055 3.58337 15.8464 3.8615 15.9611C4.18068 16.0932 4.52449 16.1461 4.86574 16.1734C5.54952 16.2252 6.23586 16.2231 6.92118 16.2255C8.68641 16.2255 10.4516 16.2253 12.2169 16.2256C12.6306 16.2257 12.966 16.5611 12.966 16.9747C12.9661 17.3881 12.6308 17.7228 12.2175 17.7228C10.4435 17.7226 8.66951 17.7226 6.89552 17.7226C6.27948 17.7195 5.66318 17.721 5.04816 17.6863C4.48395 17.6534 3.91256 17.5863 3.38221 17.3746C2.95937 17.2091 2.57707 16.9321 2.29176 16.5712C2.02569 16.2355 1.85173 15.8312 1.74807 15.4139C1.63672 14.9633 1.59387 14.4982 1.57258 14.035C1.53409 13.2287 1.54307 12.4213 1.54256 11.6142C1.54512 11.0439 1.54307 10.473 1.57386 9.90331C1.60157 9.43532 1.63698 8.96364 1.75962 8.50985C1.86943 8.09658 2.04673 7.69645 2.31665 7.36657C2.49471 7.15243 2.70331 6.96355 2.93936 6.81913C3.36092 6.55817 3.84456 6.42111 4.32949 6.35245Z" fill="#4B4B4B"/>
<path d="M19.9458 9.38922C20.2668 9.33923 20.5988 9.40105 20.8916 9.54179C21.2664 9.71989 21.5825 10.0045 21.8573 10.3168C22.1265 10.6272 22.352 10.9942 22.429 11.4075C22.5042 11.7913 22.428 12.1964 22.2489 12.5394C22.0926 12.8459 21.8676 13.1079 21.6274 13.3481C20.3612 14.6458 19.0955 15.944 17.8293 17.2417C17.5461 17.5542 17.1499 17.7584 16.7361 17.8034C16.2663 17.8707 15.7973 17.9417 15.3275 18.0086C14.9721 18.0601 14.587 17.9523 14.3342 17.6842C14.0869 17.4309 13.9861 17.0523 14.0325 16.7016C14.1015 16.1913 14.1739 15.6812 14.245 15.1711C14.2965 14.7763 14.4859 14.4025 14.7697 14.1307C15.914 12.9535 17.0609 11.7789 18.207 10.6038C18.468 10.3455 18.7097 10.0653 18.9955 9.83511C19.2723 9.61414 19.5954 9.44051 19.9458 9.38922ZM19.8324 10.2715C19.465 10.4349 19.2018 10.7566 18.9208 11.0368C18.9893 11.2212 19.0719 11.4004 19.17 11.5703C19.5389 12.2266 20.1396 12.738 20.8341 12.9953C21.0222 12.7988 21.2251 12.6157 21.3878 12.3955C21.5461 12.1824 21.6759 11.9228 21.6511 11.6474C21.6223 11.342 21.4432 11.081 21.2513 10.8571C21.036 10.6185 20.7946 10.3897 20.4977 10.265C20.2866 10.1732 20.0415 10.1753 19.8324 10.2715ZM15.2849 14.765C15.1289 14.9281 15.0462 15.1527 15.0255 15.3776C14.9639 15.854 14.8926 16.3289 14.8292 16.805C14.812 16.9258 14.8405 17.0681 14.9454 17.1399C15.0614 17.2204 15.2081 17.197 15.338 17.1762C15.796 17.1073 16.2545 17.0426 16.7125 16.9739C16.8513 16.9508 16.9834 16.8911 17.0984 16.8087C17.2043 16.734 17.2854 16.6304 17.3778 16.5399C18.3232 15.5705 19.268 14.6 20.214 13.6309C19.3855 13.2244 18.6958 12.5273 18.293 11.6808C17.2903 12.7088 16.2876 13.7369 15.2849 14.765Z" fill="#4B4B4B"/>
<path opacity="0.5" d="M9.56103 19.3023C10.1973 19.2918 10.8336 19.2968 11.4699 19.2956C12.0859 19.2973 12.7021 19.2978 13.3176 19.3251C14.1246 19.362 14.9544 19.4303 15.699 19.7778C16.019 19.9307 16.3182 20.1371 16.5578 20.4048C16.8811 20.7624 17.098 21.2161 17.1887 21.694C17.2254 21.858 17.1726 22.0313 17.0716 22.1604C16.8453 22.4574 16.4239 22.5482 16.0856 22.4224C15.8778 22.3464 15.6814 22.1887 15.6179 21.9646C15.5786 21.8194 15.5409 21.6729 15.4785 21.5363C15.396 21.3479 15.2609 21.185 15.0928 21.0714C14.8167 20.8849 14.4864 20.8113 14.1636 20.7643C13.7054 20.6972 13.2423 20.6843 12.7804 20.6718C12.0721 20.6548 11.3633 20.6596 10.6548 20.6586C9.98391 20.6596 9.31277 20.6617 8.64234 20.6946C8.2059 20.7205 7.76432 20.755 7.34425 20.8882C7.05836 20.9786 6.78766 21.1584 6.63501 21.428C6.53239 21.5998 6.48914 21.7985 6.43257 21.9893C6.35426 22.2283 6.12798 22.3829 5.89912 22.4454C5.55479 22.5413 5.13846 22.4198 4.9456 22.0986C4.86074 21.9649 4.83784 21.7964 4.87991 21.6432C4.9795 21.1636 5.20905 20.7118 5.54287 20.36C6.00712 19.8687 6.65348 19.6077 7.2975 19.4775C8.0425 19.3282 8.80481 19.3208 9.56103 19.3023Z" fill="#4B4B4B"/>
<path opacity="0.5" d="M6.26562 9.78869C6.58686 9.77133 6.9086 9.78712 7.23009 9.78159C10.0616 9.78133 12.8935 9.78107 15.7248 9.78185C15.9257 9.7808 16.1153 9.91733 16.1879 10.108C16.2449 10.2793 16.2179 10.464 16.2208 10.6413C16.2244 10.9096 15.9834 11.1498 15.7227 11.1429C12.5925 11.1429 9.46231 11.1427 6.33233 11.1429C6.0619 11.1458 5.82585 10.8909 5.83842 10.6147C5.84561 10.4366 5.81071 10.2464 5.88589 10.0788C5.95568 9.92654 6.10193 9.81053 6.26562 9.78869Z" fill="#4B4B4B"/>
<path opacity="0.5" d="M20.0437 10.519C20.2471 10.449 20.4619 10.5342 20.6305 10.6523C20.8863 10.8333 21.1008 11.0743 21.2627 11.3458C21.3756 11.521 21.3943 11.7541 21.3096 11.9453C21.1888 12.252 20.9337 12.4685 20.7149 12.7003C20.0211 12.4546 19.441 11.8709 19.209 11.1548C19.4387 10.8875 19.707 10.631 20.0437 10.519Z" fill="#4B4B4B"/>
<path opacity="0.5" d="M6.2384 12.8382C6.26842 12.8324 6.29895 12.8292 6.32974 12.8284C8.55374 12.8271 10.7778 12.8274 13.002 12.8274C13.2388 12.819 13.4677 13.0065 13.5047 13.2478C13.5244 13.3867 13.5116 13.5277 13.5147 13.6673C13.5188 13.8754 13.3877 14.0777 13.198 14.1527C13.0875 14.2006 12.9653 14.1887 12.8483 14.1901C10.6846 14.1898 8.52065 14.1898 6.35668 14.1898C6.1314 14.1993 5.91126 14.0335 5.85712 13.8086C5.82479 13.6584 5.84147 13.5037 5.83942 13.3517C5.83044 13.1118 6.00953 12.8837 6.2384 12.8382Z" fill="#4B4B4B"/>
</svg>
