<svg width="24" height="24" viewBox="0 0 24 24" fill="none" xmlns="http://www.w3.org/2000/svg">
<path opacity="0.5" d="M5.4271 1.57221C5.77331 1.48114 6.19572 1.60265 6.38787 1.92669C6.45075 2.04533 6.47249 2.18027 6.512 2.30778C6.58049 2.53523 6.7114 2.74495 6.8935 2.89426C7.03563 3.01242 7.20768 3.08505 7.38066 3.14185C7.72243 3.25066 8.08149 3.28182 8.43634 3.31178C9.27532 3.36547 10.1164 3.35756 10.9565 3.36043C11.7123 3.35971 12.4683 3.36331 13.2236 3.33287C13.7012 3.31106 14.1844 3.2847 14.647 3.15168C14.9261 3.07282 15.1982 2.92159 15.3693 2.67568C15.4981 2.49664 15.5587 2.2795 15.6138 2.06762C15.665 1.8663 15.8277 1.71458 16.007 1.62998C16.3383 1.46963 16.7712 1.52859 17.0272 1.80566C17.1468 1.93389 17.2247 2.1158 17.1934 2.29532C17.1101 2.74806 16.9201 3.18307 16.6279 3.53444C16.1484 4.1123 15.431 4.41956 14.7166 4.55018C14.1011 4.66786 13.474 4.69423 12.8496 4.71053C11.6031 4.73042 10.3562 4.73114 9.10982 4.70813C8.49572 4.68872 7.87811 4.66187 7.2743 4.53604C6.94189 4.46534 6.61205 4.36875 6.30675 4.21392C5.97107 4.04519 5.66157 3.81462 5.41939 3.52126C5.18048 3.23149 5.01381 2.88372 4.91563 2.51893C4.88033 2.38328 4.83545 2.24067 4.87215 2.09998C4.93596 1.83178 5.17206 1.63573 5.4271 1.57221Z" fill="#4B4B4B"/>
<path d="M4.32949 6.35209C4.93322 6.26975 5.5431 6.26028 6.15093 6.25239C8.83729 6.24345 11.5234 6.25029 14.2098 6.24871C15.3892 6.25897 16.5744 6.20951 17.7485 6.35367C18.2134 6.42075 18.6755 6.55307 19.0837 6.79588C19.4934 7.03764 19.829 7.40593 20.0458 7.83578C20.0803 7.90347 20.1121 7.97247 20.1413 8.04254C20.3246 8.48246 19.9506 8.91985 19.474 8.9198C19.4456 8.91979 19.4173 8.91979 19.389 8.91979C19.0971 8.91973 18.8663 8.71281 18.7173 8.46188C18.5736 8.22222 18.3386 8.04755 18.0792 7.96153C17.6912 7.83315 17.282 7.7958 16.8769 7.77554C16.2193 7.74134 15.5604 7.74581 14.902 7.74476C12.6359 7.74634 10.3696 7.74424 8.10322 7.74476C7.33324 7.74739 6.56325 7.74266 5.79326 7.75502C5.24958 7.76502 4.70102 7.78106 4.16862 7.90418C3.85893 7.97968 3.54822 8.13804 3.37015 8.41874C3.16361 8.75072 3.10023 9.149 3.06406 9.53413C3.03173 9.84034 3.0248 10.1487 3.01531 10.4564C2.98939 11.4032 3.00222 12.3502 3.00966 13.297C3.03224 13.976 3.01787 14.6771 3.2493 15.3239C3.36451 15.6052 3.58337 15.8461 3.8615 15.9608C4.18068 16.0929 4.52449 16.1458 4.86574 16.1731C5.54952 16.2249 6.23586 16.2228 6.92118 16.2252C8.68641 16.2252 10.4516 16.225 12.2169 16.2253C12.6306 16.2254 12.966 16.5608 12.966 16.9744C12.9661 17.3878 12.6308 17.7225 12.2175 17.7225C10.4435 17.7223 8.66951 17.7223 6.89552 17.7223C6.27948 17.7192 5.66318 17.7207 5.04816 17.686C4.48395 17.6531 3.91256 17.586 3.38221 17.3743C2.95937 17.2088 2.57707 16.9318 2.29176 16.5709C2.02569 16.2352 1.85173 15.8309 1.74807 15.4136C1.63672 14.963 1.59387 14.4979 1.57258 14.0347C1.53409 13.2284 1.54307 12.421 1.54256 11.6139C1.54512 11.0436 1.54307 10.4727 1.57386 9.90295C1.60157 9.43496 1.63698 8.96328 1.75962 8.50949C1.86943 8.09622 2.04673 7.69609 2.31665 7.36621C2.49471 7.15207 2.70331 6.96319 2.93936 6.81877C3.36092 6.55781 3.84456 6.42075 4.32949 6.35209Z" fill="#4B4B4B"/>
<path d="M19.946 9.38922C20.267 9.33923 20.599 9.40105 20.8918 9.54179C21.2666 9.71989 21.5827 10.0045 21.8575 10.3168C22.1267 10.6272 22.3522 10.9942 22.4292 11.4075C22.5044 11.7913 22.4282 12.1964 22.2491 12.5394C22.0928 12.8459 21.8678 13.1079 21.6276 13.3481C20.3614 14.6458 19.0957 15.944 17.8295 17.2417C17.5463 17.5542 17.1501 17.7584 16.7363 17.8034C16.2665 17.8707 15.7975 17.9417 15.3277 18.0086C14.9723 18.0601 14.5872 17.9523 14.3344 17.6842C14.0871 17.4309 13.9863 17.0523 14.0327 16.7016C14.1017 16.1913 14.1741 15.6812 14.2452 15.1711C14.2967 14.7763 14.4861 14.4025 14.7699 14.1307C15.9142 12.9535 17.0611 11.7789 18.2072 10.6038C18.4682 10.3455 18.7099 10.0653 18.9957 9.83511C19.2725 9.61414 19.5956 9.44051 19.946 9.38922ZM19.8326 10.2715C19.4652 10.4349 19.202 10.7566 18.921 11.0368C18.9895 11.2212 19.0721 11.4004 19.1702 11.5703C19.5391 12.2266 20.1398 12.738 20.8343 12.9953C21.0224 12.7988 21.2253 12.6157 21.388 12.3955C21.5463 12.1824 21.6761 11.9228 21.6513 11.6474C21.6225 11.342 21.4434 11.081 21.2515 10.8571C21.0362 10.6185 20.7948 10.3897 20.4979 10.265C20.2868 10.1732 20.0417 10.1753 19.8326 10.2715ZM15.2851 14.765C15.1291 14.9281 15.0464 15.1527 15.0257 15.3776C14.9641 15.854 14.8928 16.3289 14.8294 16.805C14.8122 16.9258 14.8407 17.0681 14.9456 17.1399C15.0616 17.2204 15.2083 17.197 15.3382 17.1762C15.7962 17.1073 16.2547 17.0426 16.7127 16.9739C16.8515 16.9508 16.9836 16.8911 17.0986 16.8087C17.2045 16.734 17.2856 16.6304 17.378 16.5399C18.3234 15.5705 19.2682 14.6 20.2142 13.6309C19.3857 13.2244 18.696 12.5273 18.2932 11.6808C17.2905 12.7088 16.2878 13.7369 15.2851 14.765Z" fill="#4B4B4B"/>
<path opacity="0.5" d="M9.56097 19.3026C10.1973 19.2921 10.8336 19.2971 11.4699 19.2959C12.0859 19.2976 12.7021 19.2981 13.3176 19.3254C14.1245 19.3623 14.9544 19.4306 15.6989 19.7781C16.0189 19.931 16.3181 20.1374 16.5578 20.4051C16.881 20.7627 17.098 21.2164 17.1887 21.6943C17.2254 21.8583 17.1726 22.0316 17.0716 22.1607C16.8453 22.4577 16.4238 22.5485 16.0856 22.4227C15.8777 22.3467 15.6814 22.189 15.6178 21.9649C15.5785 21.8197 15.5409 21.6732 15.4785 21.5366C15.3959 21.3482 15.2608 21.1853 15.0928 21.0717C14.8167 20.8852 14.4864 20.8116 14.1635 20.7646C13.7054 20.6975 13.2423 20.6846 12.7804 20.6721C12.0721 20.6551 11.3633 20.6599 10.6548 20.6589C9.98385 20.6599 9.31271 20.662 8.64228 20.6949C8.20584 20.7208 7.76426 20.7553 7.34419 20.8885C7.0583 20.9789 6.7876 21.1587 6.63495 21.4283C6.53233 21.6001 6.48908 21.7988 6.43251 21.9896C6.3542 22.2286 6.12792 22.3832 5.89906 22.4457C5.55473 22.5416 5.13839 22.4201 4.94554 22.0989C4.86068 21.9652 4.83777 21.7967 4.87985 21.6435C4.97943 21.1639 5.20899 20.7121 5.54281 20.3603C6.00706 19.869 6.65342 19.608 7.29744 19.4778C8.04244 19.3285 8.80474 19.3211 9.56097 19.3026Z" fill="#4B4B4B"/>
<path opacity="0.5" d="M6.26538 9.78857C6.58662 9.77121 6.90836 9.787 7.22985 9.78147C10.0614 9.78121 12.8933 9.78095 15.7246 9.78173C15.9255 9.78068 16.1151 9.91721 16.1877 10.1079C16.2447 10.2792 16.2177 10.4639 16.2206 10.6412C16.2242 10.9095 15.9832 11.1497 15.7225 11.1428C12.5923 11.1428 9.46207 11.1426 6.33209 11.1428C6.06166 11.1457 5.82561 10.8908 5.83818 10.6146C5.84537 10.4365 5.81047 10.2463 5.88565 10.0787C5.95544 9.92642 6.10169 9.81041 6.26538 9.78857Z" fill="#4B4B4B"/>
<path opacity="0.5" d="M20.0438 10.5191C20.2473 10.4491 20.462 10.5343 20.6306 10.6524C20.8864 10.8334 21.1009 11.0744 21.2628 11.3459C21.3757 11.5211 21.3944 11.7542 21.3098 11.9454C21.1889 12.2521 20.9339 12.4686 20.715 12.7004C20.0212 12.4547 19.4411 11.871 19.2092 11.1549C19.4388 10.8876 19.7072 10.6311 20.0438 10.5191Z" fill="#4B4B4B"/>
<path opacity="0.5" d="M6.23846 12.8383C6.26848 12.8325 6.29901 12.8293 6.3298 12.8285C8.55381 12.8272 10.7778 12.8275 13.0021 12.8275C13.2389 12.8191 13.4678 13.0066 13.5047 13.2479C13.5245 13.3868 13.5116 13.5278 13.5147 13.6674C13.5188 13.8755 13.3877 14.0778 13.1981 14.1528C13.0875 14.2007 12.9654 14.1888 12.8484 14.1902C10.6847 14.1899 8.52071 14.1899 6.35674 14.1899C6.13146 14.1994 5.91132 14.0336 5.85718 13.8087C5.82486 13.6585 5.84153 13.5038 5.83948 13.3518C5.8305 13.1119 6.00959 12.8838 6.23846 12.8383Z" fill="#4B4B4B"/>
</svg>
