<svg width="24" height="24" viewBox="0 0 24 24" fill="none" xmlns="http://www.w3.org/2000/svg">
<g clip-path="url(#clip0_35569_36329)">
<mask id="mask0_35569_36329" style="mask-type:luminance" maskUnits="userSpaceOnUse" x="0" y="0" width="24" height="24">
<path d="M24 0H0V24H24V0Z" fill="white"/>
</mask>
<g mask="url(#mask0_35569_36329)">
<mask id="mask1_35569_36329" style="mask-type:luminance" maskUnits="userSpaceOnUse" x="0" y="0" width="24" height="24">
<path d="M24 0H0V24H24V0Z" fill="white"/>
</mask>
<g mask="url(#mask1_35569_36329)">
<path d="M11.5275 0.648801C12.416 0.567827 13.3267 0.741247 14.1201 1.1504C14.8812 1.53953 15.5328 2.13896 15.9854 2.86436C16.3945 3.51688 16.6397 4.27107 16.6928 5.03966C16.7506 5.84468 16.601 6.66455 16.2564 7.3949C15.8936 8.16955 15.316 8.84164 14.6061 9.31917C13.9817 9.74069 13.255 10.0099 12.5062 10.0952C11.6215 10.1984 10.7081 10.0493 9.9053 9.66219C8.77233 9.12371 7.87284 8.11737 7.46684 6.93019C7.16229 6.05161 7.1254 5.08307 7.35932 4.18335C7.55524 3.42264 7.94662 2.71411 8.48262 2.14031C9.26898 1.29188 10.3743 0.747096 11.5275 0.648801ZM11.6778 2.14099C10.8925 2.20442 10.1383 2.5697 9.5985 3.1426C9.17158 3.59111 8.87692 4.16423 8.76333 4.77311C8.63108 5.4713 8.73274 6.21266 9.05709 6.84584C9.41586 7.55999 10.0488 8.13064 10.7963 8.41405C11.5455 8.70241 12.4023 8.69791 13.1484 8.40146C13.8657 8.12052 14.4739 7.57417 14.8317 6.89195C15.211 6.17915 15.3052 5.32262 15.0967 4.54301C14.9078 3.82346 14.4604 3.17679 13.8567 2.74267C13.2338 2.28899 12.445 2.07283 11.6778 2.14099Z" fill="#4B4B4B"/>
<path d="M10.369 11.2012C12.1745 11.012 14.0207 11.1346 15.7709 11.6281C16.5975 11.8652 17.4039 12.1859 18.1444 12.6261C18.7051 12.9597 19.2297 13.3621 19.6665 13.8488C20.0448 14.2717 20.355 14.7625 20.5331 15.3032C20.6463 15.6485 20.7061 16.0118 20.7047 16.3752C20.7056 16.9619 20.7065 17.5536 20.593 18.1317C20.4733 18.7678 20.1885 19.381 19.7337 19.8468C19.2207 20.381 18.5411 20.72 17.8461 20.9526C17.809 20.965 17.7718 20.9772 17.7345 20.9891C17.2725 21.1364 16.8245 20.7704 16.8246 20.2856C16.8247 19.9342 17.0668 19.6343 17.3994 19.521C17.6443 19.4376 17.8832 19.3374 18.1106 19.2136C18.4476 19.0274 18.7571 18.7653 18.9327 18.4171C19.1199 18.0429 19.1703 17.6193 19.1892 17.2066C19.2011 16.9214 19.2063 16.6357 19.2047 16.3503C19.2015 15.8966 19.0166 15.4616 18.7521 15.0992C18.4006 14.6181 17.9228 14.2452 17.4169 13.9379C16.7779 13.5521 16.0773 13.2773 15.3615 13.0712C14.404 12.7998 13.4118 12.6571 12.4179 12.6241C11.5368 12.5953 10.6524 12.6482 9.78283 12.7941C8.90696 12.9428 8.04323 13.1839 7.23325 13.5519C6.62954 13.8272 6.05237 14.1768 5.56945 14.6354C5.19517 14.9953 4.87757 15.4384 4.75745 15.9506C4.6839 16.2513 4.71427 16.5624 4.71314 16.8685C4.72664 17.3577 4.74058 17.8645 4.93582 18.3216C5.0809 18.667 5.35802 18.9412 5.67314 19.1362C6.01009 19.343 6.37877 19.4865 6.75734 19.5976C7.09899 19.6978 7.34764 20.0006 7.34769 20.3567C7.34777 20.8339 6.91183 21.1981 6.45199 21.0703C6.03349 20.954 5.62428 20.8064 5.23633 20.6098C4.92278 20.4498 4.62542 20.2559 4.36158 20.0225C4.02283 19.7204 3.74909 19.3457 3.56578 18.9302C3.42362 18.6041 3.33342 18.257 3.28214 17.9054C3.20454 17.3768 3.20701 16.8411 3.21016 16.3082C3.21781 15.5952 3.4722 14.897 3.87843 14.3153C4.28757 13.7283 4.82718 13.2413 5.42055 12.8454C6.09556 12.3956 6.8394 12.0557 7.60641 11.7954C8.50051 11.4922 9.43082 11.3013 10.369 11.2012Z" fill="#4B4B4B"/>
<path opacity="0.5" d="M5.71743 4.08208C5.98701 4.02503 6.26446 4.00653 6.53924 4.02608C6.77367 4.04276 6.9135 4.27723 6.87031 4.50824C6.82459 4.75284 6.58737 4.91962 6.33853 4.91854C6.06167 4.91734 5.78471 4.97089 5.53006 5.08054C5.08605 5.26858 4.71357 5.6188 4.49763 6.04976C4.26663 6.50232 4.21377 7.04103 4.34648 7.53093C4.4612 7.96167 4.72054 8.35169 5.07233 8.62498C5.41917 8.89692 5.85576 9.05168 6.2964 9.05685C6.66094 9.06484 7.02406 8.96814 7.34012 8.78836C7.55774 8.66458 7.84915 8.69315 8.00953 8.8854C8.15882 9.06435 8.15173 9.33455 7.9578 9.46378C7.73846 9.60994 7.49967 9.72682 7.2492 9.80924C6.69925 9.99166 6.09509 10.0047 5.53726 9.84905C4.88069 9.66798 4.29497 9.24826 3.90764 8.68841C3.52774 8.14656 3.33992 7.47492 3.38041 6.81452C3.41482 6.17662 3.66337 5.55312 4.07702 5.06637C4.49471 4.56883 5.0811 4.21501 5.71743 4.08208Z" fill="#4B4B4B"/>
<path opacity="0.5" d="M17.0945 4.50899C17.0514 4.27749 17.1908 4.04195 17.4257 4.02563C18.0803 3.98013 18.7495 4.15474 19.2908 4.52825C19.9114 4.94864 20.3613 5.61174 20.5196 6.34456C20.6953 7.13159 20.536 7.98789 20.0803 8.65436C19.6329 9.32285 18.9028 9.79565 18.107 9.91959C17.382 10.0414 16.6176 9.87113 16.0071 9.46544C15.8122 9.33592 15.8065 9.06442 15.9562 8.88456C16.1163 8.69218 16.4064 8.66365 16.6236 8.78822C16.7745 8.87481 16.9362 8.9424 17.1045 8.98726C17.5409 9.10534 18.0161 9.07363 18.432 8.89616C18.7859 8.74658 19.0954 8.49466 19.3153 8.17976C19.5526 7.84169 19.6847 7.43164 19.6892 7.01867C19.6961 6.62684 19.5893 6.23367 19.3835 5.90032C19.1635 5.54066 18.8308 5.25117 18.4435 5.08473C18.186 4.97235 17.9056 4.91767 17.6253 4.91889C17.3766 4.91998 17.14 4.75348 17.0945 4.50899Z" fill="#4B4B4B"/>
<path opacity="0.5" d="M4.84539 10.6099C5.70282 10.5197 6.57262 10.5436 7.42308 10.6853C7.87226 10.7608 8.31605 10.8713 8.74567 11.0236C8.25195 11.1371 7.76407 11.2764 7.287 11.4464C7.15834 11.4887 7.03463 11.5454 6.90552 11.585C5.94957 11.4784 4.97337 11.5094 4.03384 11.7244C3.38109 11.8756 2.73802 12.1079 2.17839 12.4822C1.87811 12.6838 1.59897 12.9296 1.40598 13.2389C1.2744 13.4508 1.1878 13.6957 1.18848 13.9472C1.19028 14.2205 1.18915 14.4951 1.22132 14.7671C1.25281 15.0109 1.32276 15.2601 1.48246 15.4526C1.66016 15.6704 1.9123 15.8112 2.16917 15.9153C2.22644 15.9389 2.2844 15.9605 2.3429 15.9806C2.55831 16.0547 2.7109 16.2535 2.71035 16.4813C2.7096 16.7896 2.42846 17.0251 2.13477 16.9313C1.93854 16.8686 1.74634 16.7937 1.56119 16.703C1.21457 16.5325 0.894495 16.2941 0.667316 15.9785C0.469153 15.7059 0.347016 15.3838 0.287634 15.0536C0.22173 14.6955 0.22128 14.33 0.221955 13.9674C0.212958 13.4265 0.425291 12.8997 0.758412 12.4795C1.17813 11.9467 1.7544 11.5584 2.36329 11.2717C3.14402 10.9084 3.99133 10.7021 4.84539 10.6099Z" fill="#4B4B4B"/>
<path opacity="0.5" d="M15.2183 11.0235C16.051 10.7293 16.9329 10.5889 17.8142 10.5608C18.7196 10.5347 19.6308 10.6299 20.5051 10.8708C21.1522 11.0514 21.7824 11.3116 22.3405 11.6893C22.7017 11.9351 23.0333 12.2318 23.2874 12.5892C23.4932 12.8787 23.6457 13.2098 23.7076 13.5609C23.7551 13.8063 23.7407 14.0571 23.7404 14.3055C23.7339 14.7814 23.6833 15.2724 23.464 15.7023C23.2778 16.0806 22.9633 16.3845 22.6016 16.5955C22.359 16.7371 22.0994 16.8451 21.8322 16.9303C21.5373 17.0244 21.2544 16.7878 21.2535 16.4782C21.2529 16.2516 21.4038 16.0537 21.6185 15.9812C21.8755 15.8944 22.1229 15.7796 22.3319 15.6051C22.5218 15.449 22.6477 15.2261 22.7022 14.9879C22.7807 14.6541 22.7701 14.3086 22.7759 13.9683C22.7811 13.6469 22.6466 13.3383 22.4529 13.0872C22.2033 12.7638 21.8686 12.517 21.5161 12.3157C20.9722 12.0098 20.3719 11.8141 19.7626 11.6882C18.8856 11.51 17.98 11.4815 17.0917 11.584C17.0416 11.5917 16.9966 11.5642 16.9514 11.5483C16.3877 11.3308 15.8067 11.1591 15.2183 11.0235Z" fill="#4B4B4B"/>
<path d="M11.8611 16.7383C12.141 16.6184 12.495 16.7419 12.6378 17.0111C12.728 17.1575 12.7197 17.3341 12.717 17.4994C12.7166 18.2084 12.7186 18.9176 12.7154 19.6268C13.5009 19.6351 14.2863 19.6257 15.0716 19.6313C15.3948 19.6419 15.6697 19.9446 15.6532 20.267C15.6537 20.5866 15.37 20.8745 15.0493 20.8732C14.2717 20.8772 13.4937 20.8696 12.7161 20.8765C12.7186 21.6177 12.7161 22.359 12.7175 23.1002C12.728 23.2642 12.6938 23.4356 12.5895 23.5665C12.4275 23.786 12.1144 23.8708 11.8629 23.7664C11.6315 23.6769 11.4698 23.4387 11.4713 23.1904C11.4693 22.4184 11.4716 21.6465 11.4704 20.8745C10.6904 20.8743 9.91059 20.8741 9.13076 20.8732C8.80619 20.8702 8.52233 20.5673 8.5356 20.2438C8.53088 19.9172 8.82733 19.621 9.15461 19.63C9.92656 19.6295 10.6983 19.63 11.4702 19.6297C11.4716 18.8591 11.4695 18.0888 11.4713 17.3184C11.4677 17.0691 11.629 16.8289 11.8611 16.7383Z" fill="#4B4B4B"/>
</g>
</g>
</g>
<defs>
<clipPath id="clip0_35569_36329">
<rect width="24" height="24" fill="white"/>
</clipPath>
</defs>
</svg>
