<svg width="24" height="24" viewBox="0 0 24 24" fill="none" xmlns="http://www.w3.org/2000/svg">
<path d="M7.76705 1.31589C9.16655 1.24029 10.5687 1.25169 11.9697 1.25019C13.0791 1.25019 14.1885 1.24599 15.2976 1.27689C16.0596 1.29969 16.8225 1.33809 17.5791 1.43829C18.2661 1.53069 18.952 1.67679 19.5924 1.94889C20.4379 2.30889 21.2146 2.90649 21.6501 3.72999C21.9903 4.35549 22.1871 5.04789 22.3296 5.74239C22.587 7.04259 22.6644 8.36979 22.7109 9.69159C22.7355 10.4611 22.7449 11.2309 22.7472 12.0007C22.752 12.2965 22.5597 12.58 22.287 12.6919C21.9555 12.838 21.5355 12.6991 21.3543 12.3862C21.2146 12.163 21.253 11.8927 21.246 11.6428C21.2341 10.3006 21.2113 8.95659 21.0847 7.61949C21.0142 6.91149 20.9184 6.20349 20.7366 5.51469C20.6094 5.04279 20.4454 4.56909 20.1567 4.16949C19.903 3.84729 19.5621 3.60189 19.1985 3.41769C18.6541 3.15099 18.0546 3.02079 17.4576 2.93589C16.1157 2.75619 14.7585 2.76279 13.407 2.75109C11.8377 2.75229 10.2678 2.73819 8.69855 2.77599C8.01095 2.80029 7.32275 2.83269 6.63995 2.92239C6.15185 2.98809 5.66435 3.07959 5.20025 3.24879C4.73975 3.41289 4.30505 3.66789 3.96605 4.02369C3.64655 4.34799 3.41165 4.74909 3.25805 5.17629C2.97305 5.95839 2.88875 6.79479 2.82815 7.61949C2.74325 8.95869 2.75345 10.3015 2.75015 11.6428C2.74895 11.8906 2.74925 12.1384 2.75015 12.3862C2.75315 13.7284 2.74385 15.0721 2.82995 16.4122C2.84585 16.6606 2.86745 16.909 2.89685 17.1562C2.97035 17.7661 3.07565 18.379 3.30695 18.9511C3.48005 19.3741 3.73175 19.7722 4.07495 20.0773C4.43345 20.362 4.87595 20.5126 5.30975 20.6413C5.81195 20.7838 6.32675 20.8768 6.84275 20.9521C7.09985 20.9899 7.35785 21.0214 7.61645 21.0466C8.95415 21.1834 10.2993 21.223 11.643 21.2404C11.9031 21.2473 12.1884 21.2113 12.4152 21.3688C12.648 21.5203 12.7809 21.8092 12.7443 22.0849C12.714 22.3582 12.5199 22.6045 12.2613 22.6975C12.0921 22.7641 11.9073 22.7395 11.7303 22.7416C10.2675 22.7239 8.80295 22.6822 7.34765 22.5262C6.54065 22.4371 5.73455 22.3147 4.95065 22.0984C4.40225 21.9439 3.85925 21.7435 3.38135 21.4279C3.04625 21.2104 2.76935 20.9155 2.52815 20.5999C2.19455 20.1604 1.94945 19.6588 1.77815 19.1359C1.56545 18.487 1.45595 17.8093 1.38605 17.1319C1.31285 16.4038 1.28465 15.6721 1.26845 14.941C1.24175 13.6507 1.25255 12.3601 1.25045 11.0698C1.25525 9.74919 1.25285 8.42589 1.36325 7.10859C1.44185 6.23469 1.57385 5.35419 1.89725 4.53369C2.22275 3.69009 2.79545 2.94069 3.54035 2.42529C4.07225 2.05299 4.68335 1.80699 5.31005 1.64769C6.11345 1.44459 6.94175 1.36449 7.76705 1.31589Z" fill="#4B4B4B"/>
<path opacity="0.5" d="M6.63993 2.92291C7.32273 2.83321 8.01092 2.80081 8.69852 2.77651C10.2678 2.73871 11.8377 2.75281 13.407 2.75161C14.7585 2.76331 16.1157 2.75671 17.4576 2.93641C18.0546 3.02131 18.654 3.15151 19.1985 3.41821C19.5621 3.60241 19.9029 3.84781 20.1567 4.17001C20.4453 4.56961 20.6094 5.04331 20.7366 5.51521C20.9184 6.20401 21.0141 6.91201 21.0846 7.62001C19.7952 7.62001 18.5058 7.62001 17.2164 7.62001C16.9584 7.61971 16.7007 7.61971 16.443 7.62001C15.1008 7.62001 13.7586 7.62001 12.4164 7.62001C12.1587 7.61971 11.9007 7.61971 11.643 7.62001C10.3008 7.62001 8.95863 7.62001 7.61643 7.62001C7.35873 7.61971 7.10073 7.61971 6.84303 7.62001C5.50473 7.62001 4.16643 7.62001 2.82812 7.62001C2.88873 6.79531 2.97303 5.95891 3.25803 5.17681C3.41163 4.74961 3.64653 4.34851 3.96603 4.02421C4.30503 3.66841 4.73973 3.41341 5.20023 3.24931C5.66433 3.08011 6.15182 2.98861 6.63993 2.92291Z" fill="#4B4B4B"/>
<path d="M13.8657 18.1484C13.8543 17.756 14.2009 17.3983 14.5938 17.3992C15.5288 17.3979 16.4639 17.3992 17.3992 17.3985C17.3996 16.5241 17.3994 15.6499 17.3994 14.7755C17.3996 14.6696 17.3945 14.5623 17.4164 14.4577C17.4607 14.2428 17.605 14.0506 17.7999 13.9495C18.0269 13.826 18.3184 13.8345 18.5384 13.9696C18.7573 14.1003 18.9007 14.3485 18.9003 14.6039C18.8988 15.5345 18.9026 16.4649 18.8983 17.3953C19.7619 17.4032 20.6257 17.3964 21.4893 17.3987C21.6223 17.4015 21.7587 17.3864 21.8883 17.4252C22.1039 17.4842 22.2878 17.6456 22.3752 17.851C22.4692 18.0655 22.4543 18.3243 22.3338 18.5254C22.2102 18.7419 21.9711 18.889 21.7212 18.8962C20.7806 18.8996 19.8398 18.893 18.8994 18.8996C18.9013 19.8302 18.8996 20.761 18.9003 21.6916C18.9007 21.936 18.77 22.1753 18.5651 22.3081C18.3347 22.4655 18.0157 22.4744 17.7755 22.3327C17.5999 22.2326 17.4686 22.058 17.4221 21.8609C17.3922 21.7428 17.4001 21.6199 17.3994 21.4992C17.3992 20.6318 17.3998 19.7644 17.399 18.8968C16.4646 18.8966 15.5301 18.8972 14.5957 18.8966C14.2024 18.8987 13.8549 18.5411 13.8657 18.1484Z" fill="#4B4B4B"/>
<path opacity="0.5" d="M16.5994 11.3873C16.6262 11.5558 16.6089 11.7276 16.612 11.8975C16.6075 12.1903 16.3432 12.4465 16.0504 12.4422C12.5644 12.4429 9.07844 12.4422 5.59248 12.4427C5.50273 12.442 5.41164 12.4481 5.32324 12.427C5.13475 12.3829 4.97482 12.2362 4.91544 12.0518C4.87563 11.9366 4.88868 11.8131 4.88688 11.6937C4.88823 11.5619 4.87406 11.4238 4.92804 11.2996C5.01059 11.0879 5.22922 10.9397 5.4564 10.9431C8.93584 10.9429 12.4151 10.9431 15.8943 10.9431C16.0065 10.9433 16.1226 10.9345 16.2299 10.9741C16.4134 11.0362 16.5583 11.1979 16.5994 11.3873Z" fill="#4B4B4B"/>
<path opacity="0.5" d="M13.5397 15.0994C13.5687 15.2512 13.5489 15.4071 13.5552 15.5607C13.5633 15.7387 13.4864 15.9186 13.3474 16.0308C13.2426 16.1183 13.1058 16.164 12.9697 16.1609C10.4656 16.1604 7.96123 16.1611 5.45709 16.1606C5.22833 16.164 5.00858 16.0138 4.92715 15.8003C4.8743 15.6748 4.88937 15.5362 4.88757 15.4035C4.88757 15.2672 4.87609 15.1237 4.9375 14.9973C5.025 14.7969 5.23621 14.659 5.45506 14.6615C7.96775 14.6613 10.4804 14.6608 12.9929 14.6617C13.2473 14.6599 13.4848 14.8515 13.5397 15.0994Z" fill="#4B4B4B"/>
</svg>
