<svg width="24" height="24" viewBox="0 0 24 24" fill="none" xmlns="http://www.w3.org/2000/svg">
<g clip-path="url(#clip0_35569_35247)">
<mask id="mask0_35569_35247" style="mask-type:luminance" maskUnits="userSpaceOnUse" x="0" y="0" width="24" height="24">
<path d="M24 0H0V24H24V0Z" fill="white"/>
</mask>
<g mask="url(#mask0_35569_35247)">
<mask id="mask1_35569_35247" style="mask-type:luminance" maskUnits="userSpaceOnUse" x="0" y="0" width="24" height="24">
<path d="M24 0H0V24H24V0Z" fill="white"/>
</mask>
<g mask="url(#mask1_35569_35247)">
<path d="M9.69853 0.57847C11.056 0.56557 12.4135 0.57037 13.7707 0.57427C15.2524 0.58837 16.741 0.59197 18.2101 0.80977C19.1818 0.95647 20.1568 1.23517 20.9752 1.79617C21.7498 2.32597 22.3564 3.09097 22.7074 3.96067C22.9828 4.62547 23.1334 5.33467 23.2273 6.04567C23.4034 7.38277 23.4121 8.73427 23.4253 10.0807C23.4325 11.7103 23.4376 13.3402 23.4136 14.9701C23.3854 16.2352 23.3455 17.509 23.0941 18.7534C22.9129 19.6348 22.5901 20.5057 22.0273 21.2176C21.4873 21.9061 20.755 22.4398 19.9369 22.7494C18.9379 23.1394 17.8615 23.2663 16.7989 23.3422C15.1717 23.446 13.54 23.4277 11.9104 23.4301C10.3195 23.428 8.72653 23.4433 7.13833 23.338C5.96503 23.2507 4.76653 23.098 3.69253 22.5889C2.83213 22.186 2.10193 21.5176 1.61953 20.6998C1.08793 19.8001 0.865924 18.7579 0.743524 17.731C0.652624 16.9537 0.616924 16.1713 0.596224 15.3895C0.566524 14.1994 0.570724 13.009 0.569824 11.8189C0.571624 10.4497 0.565324 9.07957 0.629224 7.71157C0.670624 6.87427 0.741424 6.03547 0.913324 5.21407C1.06153 4.51177 1.29613 3.81967 1.67713 3.20767C2.16643 2.41147 2.90293 1.77457 3.75073 1.38397C4.40893 1.08217 5.11903 0.90967 5.83333 0.80287C7.11253 0.61567 8.40823 0.59467 9.69853 0.57847ZM9.37063 2.08207C8.16163 2.10457 6.94543 2.12707 5.75173 2.33677C5.24173 2.43067 4.73443 2.56687 4.26913 2.79967C3.73123 3.06967 3.26593 3.48727 2.95003 4.00057C2.68993 4.42267 2.52553 4.89637 2.41333 5.37757C2.29843 5.87587 2.23243 6.38437 2.18683 6.89347C2.11093 7.77337 2.09143 8.65717 2.07883 9.54007C2.06503 10.9003 2.06983 12.2608 2.07193 13.6213C2.08693 15.0418 2.08183 16.4692 2.27533 17.8795C2.36143 18.4723 2.49313 19.0642 2.74033 19.612C2.97643 20.1265 3.34123 20.5843 3.80023 20.9173C4.20883 21.2137 4.68373 21.4063 5.16943 21.5356C5.77513 21.6955 6.39883 21.7735 7.02193 21.8248C8.47843 21.9361 9.94033 21.9277 11.3998 21.9301C12.8197 21.9265 14.2402 21.9436 15.6598 21.8959C16.4116 21.8698 17.164 21.8284 17.9092 21.7213C18.4531 21.6418 18.9952 21.5206 19.5034 21.3067C19.9921 21.1066 20.431 20.7865 20.7724 20.3836C21.3655 19.6855 21.5953 18.7651 21.724 17.8783C21.8425 17.0644 21.8791 16.2418 21.9022 15.4204C21.9373 13.9804 21.9313 12.5395 21.9298 11.0992C21.9193 9.68797 21.9343 8.27407 21.8104 6.86677C21.7387 6.12277 21.6376 5.37217 21.3745 4.66807C21.082 3.84637 20.4661 3.13927 19.6708 2.77207C19.096 2.49337 18.4636 2.36107 17.8351 2.27047C16.3984 2.07787 14.9455 2.08687 13.4989 2.07247C12.1228 2.07097 10.7467 2.06497 9.37063 2.08207Z" fill="#4B4B4B"/>
<path opacity="0.5" d="M9.6984 2.64998C11.0055 2.63528 12.3126 2.63918 13.6197 2.64398C14.52 2.65178 15.4212 2.65808 16.3194 2.72858C17.3184 2.81108 18.3516 2.94188 19.2393 3.44108C19.6743 3.68648 20.0544 4.02788 20.3478 4.43228C20.6433 4.83878 20.8425 5.30798 20.9754 5.79068C21.1332 6.36728 21.2103 6.96248 21.2622 7.55708C21.3708 8.97578 21.3534 10.3999 21.3597 11.8216C21.3525 13.2286 21.3729 14.6374 21.291 16.0429C21.2493 16.6573 21.1905 17.2729 21.0588 17.8753C20.949 18.3703 20.7855 18.8587 20.526 19.2964C20.2398 19.783 19.8315 20.1961 19.3518 20.4931C18.9102 20.7658 18.4134 20.938 17.9094 21.0523C17.3376 21.1807 16.7532 21.2422 16.1694 21.2827C14.8314 21.3718 13.4895 21.355 12.1494 21.3601C10.6803 21.3565 9.2088 21.3757 7.7418 21.2773C7.1088 21.2302 6.4746 21.1567 5.8593 20.9956C5.3934 20.8723 4.9377 20.6926 4.5366 20.4223C4.0935 20.1229 3.7158 19.7245 3.4506 19.2595C3.1857 18.8005 3.0249 18.2893 2.9178 17.7724C2.655 16.4254 2.6628 15.0463 2.643 13.6798C2.6376 12.4402 2.6373 11.2003 2.646 9.96068C2.6532 9.19928 2.6715 8.43788 2.7273 7.67828C2.7789 7.02548 2.8572 6.37088 3.0378 5.73968C3.1638 5.29538 3.3489 4.86458 3.6135 4.48448C3.9117 4.05698 4.3065 3.69758 4.7598 3.44018C5.2182 3.18008 5.7264 3.02048 6.2412 2.91638C7.3788 2.69108 8.5431 2.67338 9.6984 2.64998ZM11.5725 8.87168C11.4225 8.99738 11.3367 9.19268 11.3415 9.38798C11.3412 10.0399 11.3424 10.6918 11.3412 11.3434C10.6794 11.3449 10.0179 11.3431 9.3561 11.3443C9.1041 11.344 8.8641 11.509 8.7663 11.74C8.6667 11.9638 8.7093 12.2422 8.8701 12.4273C8.9973 12.577 9.1932 12.6634 9.3897 12.6583C10.0401 12.6586 10.6905 12.6574 11.3412 12.6586C11.3421 13.2589 11.3415 13.8589 11.3415 14.4592C11.3424 14.5861 11.3316 14.7175 11.3766 14.839C11.4327 15.0058 11.5575 15.1483 11.7168 15.2236C11.9445 15.3346 12.2361 15.2962 12.4266 15.1285C12.5676 15.0088 12.6555 14.8273 12.6555 14.6416C12.6567 13.9807 12.6549 13.3198 12.6564 12.6586C13.3077 12.6577 13.959 12.6586 14.6106 12.6583C14.7918 12.6628 14.9721 12.5887 15.0987 12.4591C15.2478 12.3097 15.3147 12.085 15.2739 11.8783C15.2331 11.6404 15.0468 11.4373 14.8161 11.3704C14.7009 11.3338 14.5788 11.3452 14.46 11.344C13.8588 11.3437 13.2576 11.3446 12.6564 11.3434C12.6549 10.6819 12.6564 10.0201 12.6558 9.35858C12.6555 9.11468 12.5022 8.88038 12.282 8.77778C12.0546 8.66618 11.7627 8.70368 11.5725 8.87168Z" fill="#4B4B4B"/>
</g>
</g>
</g>
<defs>
<clipPath id="clip0_35569_35247">
<rect width="24" height="24" fill="white"/>
</clipPath>
</defs>
</svg>
