<svg width="24" height="24" viewBox="0 0 24 24" fill="none" xmlns="http://www.w3.org/2000/svg">
<path d="M8.83079 1.2738C10.3173 1.2381 11.8044 1.2543 13.2912 1.2507C14.7 1.2618 16.1139 1.2579 17.5146 1.4301C18.5532 1.563 19.6113 1.8243 20.4774 2.4384C21.2796 2.997 21.8712 3.8295 22.1838 4.7517C22.5918 5.9427 22.6641 7.2138 22.7148 8.4621C22.7664 10.0608 22.7445 11.661 22.7496 13.2603C22.7394 14.6211 22.7418 15.9861 22.5909 17.3403C22.4751 18.333 22.26 19.3413 21.7383 20.2068C21.2607 21.0042 20.5275 21.6411 19.677 22.0137C18.6879 22.4508 17.6001 22.5864 16.5312 22.6647C14.9337 22.7685 13.332 22.7451 11.7321 22.7493C10.2132 22.7457 8.69159 22.7619 7.17629 22.6422C6.13949 22.5522 5.08469 22.3914 4.14149 21.9288C3.23369 21.4863 2.48429 20.73 2.05169 19.8174C1.57799 18.8307 1.42889 17.7285 1.34369 16.6485C1.27919 15.7707 1.26329 14.8902 1.25519 14.0106C1.24739 12.7701 1.24979 11.5296 1.25279 10.2891C1.25939 9.3882 1.27019 8.487 1.32749 7.5876C1.37159 6.9141 1.44029 6.2397 1.58459 5.5791C1.71659 4.9761 1.91609 4.3827 2.22899 3.8484C2.64269 3.1368 3.25649 2.5437 3.98129 2.1543C4.58579 1.8264 5.25479 1.6356 5.92889 1.5153C6.88649 1.3464 7.86059 1.3017 8.83079 1.2738ZM8.85959 2.7738C8.22509 2.7909 7.59029 2.8182 6.95909 2.8851C6.40229 2.9454 5.84489 3.033 5.31209 3.21C4.89029 3.3489 4.48649 3.5562 4.15079 3.8496C3.84599 4.1124 3.59759 4.4388 3.41939 4.7994C3.19379 5.2563 3.06719 5.7549 2.98109 6.2553C2.87429 6.8841 2.82839 7.5216 2.79839 8.1582C2.75789 9.0678 2.75429 9.9786 2.75069 10.8888C2.75249 12.0396 2.74559 13.1907 2.75879 14.3415C2.77079 15.1824 2.78969 16.0242 2.86709 16.8624C2.91749 17.3856 2.98949 17.9088 3.12779 18.417C3.24179 18.8334 3.40529 19.2411 3.65369 19.5969C3.93839 20.0091 4.33049 20.3457 4.77839 20.5695C5.29019 20.8272 5.85479 20.9577 6.41789 21.0453C7.21169 21.1647 8.01539 21.2019 8.81699 21.225C10.2774 21.2613 11.7384 21.2457 13.1991 21.2493C14.532 21.2388 15.8688 21.2463 17.1951 21.0975C17.8149 21.0228 18.438 20.9106 19.0158 20.6661C19.4619 20.4765 19.8684 20.1885 20.1795 19.8153C20.511 19.4253 20.7234 18.9483 20.8608 18.4587C21.0255 17.868 21.1008 17.2569 21.1518 16.6473C21.2556 15.291 21.2454 13.929 21.2493 12.5697C21.2451 11.0295 21.267 9.4884 21.1914 7.9497C21.1542 7.2768 21.0978 6.6021 20.9589 5.9415C20.8524 5.4429 20.694 4.9476 20.4198 4.5141C20.1417 4.0698 19.7427 3.7035 19.2789 3.4599C18.8073 3.2109 18.2853 3.0756 17.7627 2.9841C17.1081 2.8719 16.4442 2.8254 15.7815 2.7954C14.8914 2.7579 14.0004 2.754 13.11 2.7507C11.6931 2.754 10.2759 2.7396 8.85959 2.7738Z" fill="#4B4B4B"/>
<path opacity="0.5" d="M11.5176 8.42563C11.7393 8.23363 12.0774 8.19493 12.3375 8.32993C12.5853 8.45293 12.7533 8.72143 12.7494 8.99893C12.75 9.74923 12.7494 10.4995 12.7497 11.2498C13.4997 11.2501 14.25 11.2495 15 11.2501C15.2187 11.248 15.4344 11.3497 15.5739 11.5177C15.7662 11.7397 15.8046 12.079 15.6687 12.3391C15.5454 12.5866 15.2769 12.7537 14.9994 12.7495C14.2494 12.7501 13.4997 12.7495 12.7497 12.7498C12.7494 13.4998 12.75 14.2498 12.7494 14.9995C12.7509 15.2038 12.6636 15.4063 12.5136 15.5452C12.3342 15.7192 12.0636 15.7894 11.8215 15.7285C11.5656 15.6682 11.3502 15.4621 11.2794 15.2086C11.2401 15.0823 11.2506 14.9482 11.2497 14.818C11.2497 14.1286 11.2497 13.4392 11.2497 12.7498C10.4997 12.7495 9.75 12.7501 9.0003 12.7495C8.7813 12.7519 8.5656 12.6505 8.4258 12.4822C8.2332 12.2602 8.1948 11.9212 8.3307 11.6608C8.4534 11.4139 8.7207 11.2468 8.9973 11.2501C9.7482 11.2492 10.4988 11.2501 11.2497 11.2498C11.25 10.4992 11.2494 9.74893 11.25 8.99833C11.2482 8.77993 11.3499 8.56483 11.5176 8.42563Z" fill="#4B4B4B"/>
</svg>
