<svg width="24" height="24" viewBox="0 0 24 24" fill="none" xmlns="http://www.w3.org/2000/svg">
<g clip-path="url(#clip0_27038_11318)">
<path d="M9.69871 0.578409C11.0562 0.565509 12.4137 0.570309 13.7709 0.574209C15.2526 0.588309 16.7412 0.591909 18.2103 0.809709C19.182 0.956409 20.157 1.23511 20.9754 1.79611C21.75 2.32591 22.3566 3.09091 22.7076 3.96061C22.983 4.62541 23.1336 5.33461 23.2275 6.04561C23.4036 7.38271 23.4123 8.73421 23.4255 10.0806C23.4327 11.7102 23.4378 13.3401 23.4138 14.97C23.3856 16.2351 23.3457 17.5089 23.0943 18.7533C22.9131 19.6347 22.5903 20.5056 22.0275 21.2175C21.4875 21.906 20.7552 22.4397 19.9371 22.7493C18.9381 23.1393 17.8617 23.2662 16.7991 23.3421C15.1719 23.4459 13.5402 23.4276 11.9106 23.43C10.3197 23.4279 8.72671 23.4432 7.13851 23.3379C5.96521 23.2506 4.76671 23.0979 3.69271 22.5888C2.83231 22.1859 2.10211 21.5175 1.61971 20.6997C1.08811 19.8 0.866107 18.7578 0.743707 17.7309C0.652807 16.9536 0.617107 16.1712 0.596407 15.3894C0.566707 14.1993 0.570907 13.0089 0.570007 11.8188C0.571807 10.4496 0.565507 9.07951 0.629407 7.71151C0.670807 6.87421 0.741607 6.03541 0.913507 5.21401C1.06171 4.51171 1.29631 3.81961 1.67731 3.20761C2.16661 2.41141 2.90311 1.77451 3.75091 1.38391C4.40911 1.08211 5.11921 0.909609 5.83351 0.802809C7.11271 0.615609 8.40841 0.594609 9.69871 0.578409ZM9.37081 2.08201C8.16181 2.10451 6.94561 2.12701 5.75191 2.33671C5.24191 2.43061 4.73461 2.56681 4.26931 2.79961C3.73141 3.06961 3.26611 3.48721 2.95021 4.00051C2.69011 4.42261 2.52571 4.89631 2.41351 5.37751C2.29861 5.87581 2.23261 6.38431 2.18701 6.89341C2.11111 7.77331 2.09161 8.65711 2.07901 9.54001C2.06521 10.9002 2.07001 12.2607 2.07211 13.6212C2.08711 15.0417 2.08201 16.4691 2.27551 17.8794C2.36161 18.4722 2.49331 19.0641 2.74051 19.6119C2.97661 20.1264 3.34141 20.5842 3.80041 20.9172C4.20901 21.2136 4.68391 21.4062 5.16961 21.5355C5.77531 21.6954 6.39901 21.7734 7.02211 21.8247C8.47861 21.936 9.94051 21.9276 11.4 21.93C12.8199 21.9264 14.2404 21.9435 15.66 21.8958C16.4118 21.8697 17.1642 21.8283 17.9094 21.7212C18.4533 21.6417 18.9954 21.5205 19.5036 21.3066C19.9923 21.1065 20.4312 20.7864 20.7726 20.3835C21.3657 19.6854 21.5955 18.765 21.7242 17.8782C21.8427 17.0643 21.8793 16.2417 21.9024 15.4203C21.9375 13.9803 21.9315 12.5394 21.93 11.0991C21.9195 9.68791 21.9345 8.27401 21.8106 6.86671C21.7389 6.12271 21.6378 5.37211 21.3747 4.66801C21.0822 3.84631 20.4663 3.13921 19.671 2.77201C19.0962 2.49331 18.4638 2.36101 17.8353 2.27041C16.3986 2.07781 14.9457 2.08681 13.4991 2.07241C12.123 2.07091 10.7469 2.06491 9.37081 2.08201Z" fill="#4B4B4B"/>
<path opacity="0.5" d="M9.6987 2.64992C11.0058 2.63522 12.3129 2.63912 13.62 2.64392C14.5203 2.65172 15.4215 2.65802 16.3197 2.72852C17.3187 2.81102 18.3519 2.94182 19.2396 3.44102C19.6746 3.68642 20.0547 4.02782 20.3481 4.43222C20.6436 4.83872 20.8428 5.30792 20.9757 5.79062C21.1335 6.36722 21.2106 6.96242 21.2625 7.55702C21.3711 8.97572 21.3537 10.3998 21.36 11.8215C21.3528 13.2285 21.3732 14.6373 21.2913 16.0428C21.2496 16.6572 21.1908 17.2728 21.0591 17.8752C20.9493 18.3702 20.7858 18.8586 20.5263 19.2963C20.2401 19.7829 19.8318 20.196 19.3521 20.493C18.9105 20.7657 18.4137 20.9379 17.9097 21.0522C17.3379 21.1806 16.7535 21.2421 16.1697 21.2826C14.8317 21.3717 13.4898 21.3549 12.1497 21.36C10.6806 21.3564 9.2091 21.3756 7.7421 21.2772C7.1091 21.2301 6.4749 21.1566 5.8596 20.9955C5.3937 20.8722 4.938 20.6925 4.5369 20.4222C4.0938 20.1228 3.7161 19.7244 3.4509 19.2594C3.186 18.8004 3.0252 18.2892 2.9181 17.7723C2.6553 16.4253 2.6631 15.0462 2.6433 13.6797C2.6379 12.4401 2.6376 11.2002 2.6463 9.96062C2.6535 9.19922 2.6718 8.43782 2.7276 7.67822C2.7792 7.02542 2.8575 6.37082 3.0381 5.73962C3.1641 5.29532 3.3492 4.86452 3.6138 4.48442C3.912 4.05692 4.3068 3.69752 4.7601 3.44012C5.2185 3.18002 5.7267 3.02042 6.2415 2.91632C7.3791 2.69102 8.5434 2.67332 9.6987 2.64992ZM11.5728 8.87162C11.4228 8.99732 11.337 9.19262 11.3418 9.38792C11.3415 10.0398 11.3427 10.6917 11.3415 11.3433C10.6797 11.3448 10.0182 11.343 9.3564 11.3442C9.1044 11.3439 8.8644 11.5089 8.7666 11.7399C8.667 11.9637 8.7096 12.2421 8.8704 12.4272C8.9976 12.5769 9.1935 12.6633 9.39 12.6582C10.0404 12.6585 10.6908 12.6573 11.3415 12.6585C11.3424 13.2588 11.3418 13.8588 11.3418 14.4591C11.3427 14.586 11.3319 14.7174 11.3769 14.8389C11.433 15.0057 11.5578 15.1482 11.7171 15.2235C11.9448 15.3345 12.2364 15.2961 12.4269 15.1284C12.5679 15.0087 12.6558 14.8272 12.6558 14.6415C12.657 13.9806 12.6552 13.3197 12.6567 12.6585C13.308 12.6576 13.9593 12.6585 14.6109 12.6582C14.7921 12.6627 14.9724 12.5886 15.099 12.459C15.2481 12.3096 15.315 12.0849 15.2742 11.8782C15.2334 11.6403 15.0471 11.4372 14.8164 11.3703C14.7012 11.3337 14.5791 11.3451 14.4603 11.3439C13.8591 11.3436 13.2579 11.3445 12.6567 11.3433C12.6552 10.6818 12.6567 10.02 12.6561 9.35852C12.6558 9.11462 12.5025 8.88032 12.2823 8.77772C12.0549 8.66612 11.763 8.70362 11.5728 8.87162Z" fill="#4B4B4B"/>
</g>
<defs>
<clipPath id="clip0_27038_11318">
<rect width="24" height="24" fill="white"/>
</clipPath>
</defs>
</svg>
