<svg width="24" height="24" viewBox="0 0 24 24" fill="none" xmlns="http://www.w3.org/2000/svg">
<path d="M8.83085 1.27374C10.3174 1.23804 11.8045 1.25424 13.2913 1.25064C14.7001 1.26174 16.114 1.25784 17.5147 1.43004C18.5533 1.56294 19.6114 1.82424 20.4775 2.43834C21.2797 2.99694 21.8713 3.82944 22.1839 4.75164C22.5919 5.94264 22.6642 7.21374 22.7149 8.46204C22.7665 10.0607 22.7446 11.6609 22.7497 13.2602C22.7395 14.621 22.7419 15.986 22.591 17.3402C22.4752 18.3329 22.2601 19.3412 21.7384 20.2067C21.2608 21.0041 20.5276 21.641 19.6771 22.0136C18.688 22.4507 17.6002 22.5863 16.5313 22.6646C14.9338 22.7684 13.3321 22.745 11.7322 22.7492C10.2133 22.7456 8.69165 22.7618 7.17635 22.6421C6.13955 22.5521 5.08475 22.3913 4.14155 21.9287C3.23375 21.4862 2.48435 20.7299 2.05175 19.8173C1.57805 18.8306 1.42895 17.7284 1.34375 16.6484C1.27925 15.7706 1.26335 14.8901 1.25525 14.0105C1.24745 12.77 1.24985 11.5295 1.25285 10.289C1.25945 9.38814 1.27025 8.48694 1.32755 7.58754C1.37165 6.91404 1.44035 6.23964 1.58465 5.57904C1.71665 4.97604 1.91615 4.38264 2.22905 3.84834C2.64275 3.13674 3.25655 2.54364 3.98135 2.15424C4.58585 1.82634 5.25485 1.63554 5.92895 1.51524C6.88655 1.34634 7.86065 1.30164 8.83085 1.27374ZM8.85965 2.77374C8.22515 2.79084 7.59035 2.81814 6.95915 2.88504C6.40235 2.94534 5.84495 3.03294 5.31215 3.20994C4.89035 3.34884 4.48655 3.55614 4.15085 3.84954C3.84605 4.11234 3.59765 4.43874 3.41945 4.79934C3.19385 5.25624 3.06725 5.75484 2.98115 6.25524C2.87435 6.88404 2.82845 7.52154 2.79845 8.15814C2.75795 9.06774 2.75435 9.97854 2.75075 10.8887C2.75255 12.0395 2.74565 13.1906 2.75885 14.3414C2.77085 15.1823 2.78975 16.0241 2.86715 16.8623C2.91755 17.3855 2.98955 17.9087 3.12785 18.4169C3.24185 18.8333 3.40535 19.241 3.65375 19.5968C3.93845 20.009 4.33055 20.3456 4.77845 20.5694C5.29025 20.8271 5.85485 20.9576 6.41795 21.0452C7.21175 21.1646 8.01545 21.2018 8.81705 21.2249C10.2775 21.2612 11.7385 21.2456 13.1992 21.2492C14.5321 21.2387 15.8689 21.2462 17.1952 21.0974C17.815 21.0227 18.4381 20.9105 19.0159 20.666C19.462 20.4764 19.8685 20.1884 20.1796 19.8152C20.5111 19.4252 20.7235 18.9482 20.8609 18.4586C21.0256 17.8679 21.1009 17.2568 21.1519 16.6472C21.2557 15.2909 21.2455 13.9289 21.2494 12.5696C21.2452 11.0294 21.2671 9.48834 21.1915 7.94964C21.1543 7.27674 21.0979 6.60204 20.959 5.94144C20.8525 5.44284 20.6941 4.94754 20.4199 4.51404C20.1418 4.06974 19.7428 3.70344 19.279 3.45984C18.8074 3.21084 18.2854 3.07554 17.7628 2.98404C17.1082 2.87184 16.4443 2.82534 15.7816 2.79534C14.8915 2.75784 14.0005 2.75394 13.1101 2.75064C11.6932 2.75394 10.276 2.73954 8.85965 2.77374Z" fill="#4B4B4B"/>
<path opacity="0.5" d="M11.5176 8.42563C11.7393 8.23363 12.0774 8.19493 12.3375 8.32993C12.5853 8.45293 12.7533 8.72143 12.7494 8.99893C12.75 9.74923 12.7494 10.4995 12.7497 11.2498C13.4997 11.2501 14.25 11.2495 15 11.2501C15.2187 11.248 15.4344 11.3497 15.5739 11.5177C15.7662 11.7397 15.8046 12.079 15.6687 12.3391C15.5454 12.5866 15.2769 12.7537 14.9994 12.7495C14.2494 12.7501 13.4997 12.7495 12.7497 12.7498C12.7494 13.4998 12.75 14.2498 12.7494 14.9995C12.7509 15.2038 12.6636 15.4063 12.5136 15.5452C12.3342 15.7192 12.0636 15.7894 11.8215 15.7285C11.5656 15.6682 11.3502 15.4621 11.2794 15.2086C11.2401 15.0823 11.2506 14.9482 11.2497 14.818C11.2497 14.1286 11.2497 13.4392 11.2497 12.7498C10.4997 12.7495 9.75 12.7501 9.0003 12.7495C8.7813 12.7519 8.5656 12.6505 8.4258 12.4822C8.2332 12.2602 8.1948 11.9212 8.3307 11.6608C8.4534 11.4139 8.7207 11.2468 8.9973 11.2501C9.7482 11.2492 10.4988 11.2501 11.2497 11.2498C11.25 10.4992 11.2494 9.74893 11.25 8.99833C11.2482 8.77993 11.3499 8.56483 11.5176 8.42563Z" fill="#4B4B4B"/>
</svg>
