<svg width="24" height="24" viewBox="0 0 24 24" fill="none" xmlns="http://www.w3.org/2000/svg">
<path d="M10.1055 1.26816C11.0397 1.18566 11.9976 1.38546 12.8172 1.84236C13.7664 2.36556 14.5257 3.22356 14.9277 4.23006C15.3702 5.32326 15.3819 6.58266 14.9613 7.68456C14.5839 8.68746 13.8534 9.55116 12.9297 10.0936C11.9364 10.6855 10.7226 10.8871 9.58976 10.6594C8.73056 10.4911 7.92233 10.0753 7.28273 9.47736C6.58073 8.82666 6.08243 7.95906 5.87903 7.02336C5.68193 6.12696 5.74913 5.17326 6.07613 4.31496C6.42323 3.39546 7.06583 2.59116 7.88453 2.04726C8.54336 1.60566 9.31496 1.33476 10.1055 1.26816ZM10.0542 2.78316C9.46406 2.86686 8.89886 3.11856 8.44133 3.50076C7.88723 3.95916 7.49213 4.60686 7.34183 5.31066C7.18673 6.02376 7.27883 6.78906 7.60523 7.44216C7.93433 8.10996 8.50013 8.65656 9.17876 8.96196C9.80966 9.24966 10.5342 9.32406 11.2113 9.17616C11.892 9.03006 12.5205 8.65536 12.975 8.12826C13.3044 7.74906 13.5447 7.29246 13.668 6.80556C13.8381 6.14046 13.7919 5.42196 13.5339 4.78566C13.227 4.01706 12.6135 3.37806 11.859 3.03876C11.2983 2.78316 10.6638 2.69586 10.0542 2.78316Z" fill="#4B4B4B"/>
<path opacity="0.5" fill-rule="evenodd" clip-rule="evenodd" d="M13.0186 12.4619C12.0601 12.2946 11.0835 12.2301 10.1113 12.2553C8.39314 12.3054 6.66484 12.6309 5.09854 13.3548C4.08544 13.8297 3.12514 14.4879 2.46784 15.4077C2.04664 15.9951 1.78114 16.7034 1.76974 17.43L1.7697 17.4367C1.76521 18.2389 1.7606 19.0632 2.03254 19.8288C2.22514 20.3862 2.57764 20.8851 3.03604 21.2559C3.75484 21.8403 4.65544 22.14 5.54794 22.3398C6.91444 22.6344 8.31634 22.713 9.71075 22.743C11.2024 22.7646 12.6988 22.74 14.1814 22.56C15.1774 22.4319 16.1815 22.2414 17.0983 21.8163C17.5999 21.5808 18.0706 21.2622 18.4303 20.8368C18.7645 20.4474 18.9907 19.9719 19.1119 19.4748C19.1346 19.3836 19.1541 19.292 19.1708 19.2H17.6329C17.6028 19.3051 17.5653 19.4083 17.5183 19.5087C17.3353 19.9056 16.9807 20.193 16.5994 20.3898C16.0042 20.6952 15.3463 20.8506 14.692 20.9685C13.4332 21.1824 12.1537 21.2349 10.8793 21.2487C9.52895 21.2553 8.17414 21.2241 6.83404 21.0444C6.13954 20.9454 5.44294 20.8119 4.78894 20.5506C4.36804 20.3784 3.95134 20.1441 3.67624 19.7718C3.43234 19.4433 3.34234 19.0311 3.30514 18.6312C3.27407 18.3077 3.27171 17.9826 3.26935 17.658C3.2691 17.6222 3.26884 17.5864 3.26854 17.5506C3.26524 17.3301 3.29914 17.1093 3.37024 16.9005C3.53734 16.4052 3.87754 15.9885 4.26454 15.6456C4.95424 15.0453 5.79274 14.6412 6.65284 14.3475C7.71964 13.9905 8.84045 13.8078 9.96305 13.7616C10.9851 13.7211 12.0145 13.7895 13.0186 13.9879V12.4619Z" fill="#4B4B4B"/>
<path d="M14.3206 14.2433C14.31 13.8811 14.63 13.5509 14.9926 13.5517C15.8557 13.5505 16.7188 13.5517 17.5821 13.5511C17.5825 12.744 17.5823 11.9371 17.5823 11.13C17.5825 11.0323 17.5778 10.9333 17.5979 10.8367C17.6388 10.6384 17.772 10.461 17.9519 10.3676C18.1614 10.2536 18.4305 10.2615 18.6335 10.3862C18.8356 10.5068 18.9679 10.7359 18.9676 10.9716C18.9662 11.8306 18.9697 12.6894 18.9658 13.5482C19.7629 13.5554 20.5602 13.5492 21.3573 13.5513C21.4801 13.5539 21.606 13.54 21.7256 13.5758C21.9245 13.6302 22.0943 13.7792 22.175 13.9688C22.2617 14.1667 22.248 14.4056 22.1368 14.5912C22.0226 14.7911 21.802 14.9268 21.5713 14.9335C20.7031 14.9366 19.8348 14.9305 18.9668 14.9366C18.9685 15.7956 18.967 16.6548 18.9676 17.5138C18.9679 17.7393 18.8473 17.9602 18.6582 18.0828C18.4456 18.228 18.1511 18.2363 17.9294 18.1055C17.7673 18.013 17.6461 17.8519 17.6032 17.67C17.5756 17.5609 17.5829 17.4476 17.5823 17.3362C17.5821 16.5355 17.5827 15.7349 17.5819 14.9341C16.7194 14.9339 15.8569 14.9345 14.9944 14.9339C14.6313 14.9358 14.3106 14.6057 14.3206 14.2433Z" fill="#4B4B4B"/>
</svg>
