<svg width="24" height="24" viewBox="0 0 24 24" fill="none" xmlns="http://www.w3.org/2000/svg">
<path d="M11.5869 1.26816C12.5211 1.18566 13.479 1.38546 14.2986 1.84236C15.2478 2.36556 16.0071 3.22356 16.4091 4.23006C16.8516 5.32326 16.8633 6.58266 16.4427 7.68456C16.0653 8.68746 15.3348 9.55116 14.4111 10.0936C13.4178 10.6855 12.204 10.8871 11.0712 10.6594C10.212 10.4911 9.40377 10.0753 8.76417 9.47736C8.06217 8.82666 7.56387 7.95906 7.36047 7.02336C7.16337 6.12696 7.23057 5.17326 7.55757 4.31496C7.90467 3.39546 8.54727 2.59116 9.36597 2.04726C10.0248 1.60566 10.7964 1.33476 11.5869 1.26816ZM11.5356 2.78316C10.9455 2.86686 10.3803 3.11856 9.92277 3.50076C9.36867 3.95916 8.97357 4.60686 8.82327 5.31066C8.66817 6.02376 8.76027 6.78906 9.08667 7.44216C9.41577 8.10996 9.98157 8.65656 10.6602 8.96196C11.2911 9.24966 12.0156 9.32406 12.6927 9.17616C13.3734 9.03006 14.0019 8.65536 14.4564 8.12826C14.7858 7.74906 15.0261 7.29246 15.1494 6.80556C15.3195 6.14046 15.2733 5.42196 15.0153 4.78566C14.7084 4.01706 14.0949 3.37806 13.3404 3.03876C12.7797 2.78316 12.1452 2.69586 11.5356 2.78316Z" fill="#4B4B4B"/>
<path opacity="0.5" fill-rule="evenodd" clip-rule="evenodd" d="M14.5 12.4619C13.5415 12.2946 12.5649 12.2301 11.5927 12.2553C9.87459 12.3054 8.14629 12.6309 6.57999 13.3548C5.56689 13.8297 4.60659 14.4879 3.94929 15.4077C3.52809 15.9951 3.26259 16.7034 3.25119 17.43L3.25115 17.4367C3.24666 18.2389 3.24205 19.0632 3.51399 19.8288C3.70659 20.3862 4.05909 20.8851 4.51749 21.2559C5.23629 21.8403 6.13689 22.14 7.02939 22.3398C8.39589 22.6344 9.79779 22.713 11.1922 22.743C12.6838 22.7646 14.1802 22.74 15.6628 22.56C16.6588 22.4319 17.6629 22.2414 18.5797 21.8163C19.0813 21.5808 19.552 21.2622 19.9117 20.8368C20.2459 20.4474 20.4721 19.9719 20.5933 19.4748C20.616 19.3836 20.6355 19.292 20.6522 19.2H19.1143C19.0842 19.3051 19.0467 19.4083 18.9997 19.5087C18.8167 19.9056 18.4621 20.193 18.0808 20.3898C17.4856 20.6952 16.8277 20.8506 16.1734 20.9685C14.9146 21.1824 13.6351 21.2349 12.3607 21.2487C11.0104 21.2553 9.65559 21.2241 8.31549 21.0444C7.62099 20.9454 6.92439 20.8119 6.27039 20.5506C5.84949 20.3784 5.43279 20.1441 5.15769 19.7718C4.91379 19.4433 4.82379 19.0311 4.78659 18.6312C4.75552 18.3077 4.75316 17.9826 4.7508 17.658C4.75055 17.6222 4.75029 17.5864 4.74999 17.5506C4.74669 17.3301 4.78059 17.1093 4.85169 16.9005C5.01879 16.4052 5.35899 15.9885 5.74599 15.6456C6.43569 15.0453 7.27419 14.6412 8.13429 14.3475C9.20109 13.9905 10.3219 13.8078 11.4445 13.7616C12.4665 13.7211 13.4959 13.7895 14.5 13.9879V12.4619Z" fill="#4B4B4B"/>
<path d="M15.802 14.2433C15.7914 13.8811 16.1114 13.5509 16.474 13.5517C17.3371 13.5505 18.2002 13.5517 19.0635 13.5511C19.0639 12.744 19.0637 11.9371 19.0637 11.13C19.0639 11.0323 19.0592 10.9333 19.0793 10.8367C19.1202 10.6384 19.2534 10.461 19.4333 10.3676C19.6428 10.2536 19.9119 10.2615 20.1149 10.3862C20.317 10.5068 20.4493 10.7359 20.449 10.9716C20.4476 11.8306 20.4511 12.6894 20.4472 13.5482C21.2443 13.5554 22.0416 13.5492 22.8387 13.5513C22.9615 13.5539 23.0874 13.54 23.207 13.5758C23.4059 13.6302 23.5757 13.7792 23.6564 13.9688C23.7431 14.1667 23.7294 14.4056 23.6182 14.5912C23.504 14.7911 23.2834 14.9268 23.0527 14.9335C22.1845 14.9366 21.3162 14.9305 20.4482 14.9366C20.4499 15.7956 20.4484 16.6548 20.449 17.5138C20.4493 17.7393 20.3287 17.9602 20.1396 18.0828C19.927 18.228 19.6325 18.2363 19.4108 18.1055C19.2487 18.013 19.1275 17.8519 19.0846 17.67C19.057 17.5609 19.0643 17.4476 19.0637 17.3362C19.0635 16.5355 19.0641 15.7349 19.0633 14.9341C18.2008 14.9339 17.3383 14.9345 16.4758 14.9339C16.1127 14.9358 15.792 14.6057 15.802 14.2433Z" fill="#4B4B4B"/>
</svg>
