<svg width="24" height="24" viewBox="0 0 24 24" fill="none" xmlns="http://www.w3.org/2000/svg">
<path d="M5.6962 1.37926C6.78464 1.25713 7.88207 1.25758 8.9759 1.25038C11.5172 1.24948 14.0584 1.24656 16.5999 1.25195C17.1699 1.2569 17.7408 1.26455 18.3092 1.31269C18.8197 1.357 19.3324 1.43752 19.8137 1.62016C20.4482 1.86646 21.0144 2.27516 21.478 2.77113C21.9409 3.27587 22.3136 3.87711 22.4904 4.54313C22.6748 5.22309 22.7074 5.93207 22.7288 6.63272C22.7441 7.26275 22.7432 7.893 22.7423 8.52326C22.7378 8.87932 22.4445 9.2012 22.0911 9.24078C21.7668 9.28937 21.4278 9.09548 21.3034 8.79227C21.2186 8.60986 21.2488 8.40494 21.2436 8.21061C21.2386 7.39951 21.251 6.58684 21.1826 5.77776C21.141 5.34095 21.0771 4.89402 20.8763 4.49814C20.6705 4.10204 20.3817 3.74935 20.0341 3.46931C19.7604 3.25158 19.4554 3.06489 19.1178 2.96659C18.7534 2.85885 18.373 2.81926 17.9954 2.79227C17.418 2.75448 16.8392 2.75313 16.2609 2.74976C14.2373 2.74774 12.2133 2.74931 10.1896 2.74886C9.28946 2.74999 8.38929 2.74594 7.48934 2.76798C6.87236 2.78507 6.25425 2.81229 5.64245 2.89799C5.19978 2.96254 4.7551 3.05589 4.34842 3.24798C4.05602 3.38496 3.79127 3.58268 3.58186 3.8292C3.35603 4.09057 3.20128 4.40614 3.09647 4.73364C2.95791 5.16866 2.892 5.62256 2.84634 6.07557C2.75457 7.05402 2.75615 8.03763 2.74985 9.01945C2.74917 10.0953 2.74558 11.1711 2.75277 12.247C2.75795 12.7468 2.76672 13.2468 2.80563 13.745C2.84567 14.2023 2.89853 14.6683 3.0787 15.0948C3.21275 15.414 3.45545 15.687 3.76226 15.849C4.10685 16.0314 4.49688 16.1018 4.87993 16.1513C5.53673 16.2294 6.1996 16.235 6.86021 16.2422C8.58498 16.2482 10.3098 16.2417 12.0345 16.2458C12.3721 16.2523 12.6801 16.517 12.7406 16.8486C12.761 16.9496 12.7565 17.0539 12.7408 17.1554C12.669 17.4707 12.3838 17.726 12.0579 17.7422C11.7875 17.747 11.5172 17.7427 11.2468 17.744C9.92736 17.7443 8.60792 17.744 7.28848 17.7443C6.67757 17.7416 6.06621 17.7384 5.4562 17.7049C4.99217 17.6781 4.52724 17.6347 4.07266 17.5346C3.67633 17.4476 3.28743 17.3128 2.93744 17.105C2.40706 16.7919 1.97991 16.3099 1.72822 15.748C1.44661 15.1263 1.35371 14.4403 1.30355 13.7655C1.28173 13.5111 1.28376 13.2553 1.25429 13.0016C1.26914 12.7616 1.25227 12.5212 1.25317 12.2809C1.24664 11.4788 1.25002 10.677 1.24912 9.87486C1.25227 8.74234 1.24215 7.60824 1.31052 6.47707C1.37058 5.5814 1.47562 4.66931 1.83326 3.8373C2.13399 3.13012 2.652 2.51628 3.30565 2.11119C4.02273 1.66313 4.86599 1.47643 5.6962 1.37926Z" fill="#4B4B4B"/>
<path d="M16.3839 4.89223C16.6961 4.81036 17.0483 4.95948 17.2085 5.2393C17.2771 5.35469 17.3131 5.48897 17.3124 5.62303C17.3119 6.30546 17.3131 6.9879 17.3117 7.67034C17.3086 8.02393 17.02 8.34558 16.6693 8.38876C16.3326 8.44387 15.9792 8.23469 15.8623 7.91529C15.8263 7.82306 15.811 7.72365 15.8126 7.62468C15.8135 6.94966 15.8119 6.27465 15.8135 5.59986C15.8162 5.27079 16.0638 4.96578 16.3839 4.89223Z" fill="#4B4B4B"/>
<path d="M9.63647 11.6436C9.69157 11.6306 9.74826 11.6243 9.80494 11.624C10.4876 11.6243 11.1701 11.6238 11.8527 11.6243C12.1971 11.6249 12.5147 11.8958 12.572 12.235C12.6343 12.5391 12.4818 12.8693 12.2124 13.0218C12.0972 13.0892 11.9638 13.1239 11.8307 13.1237C11.1563 13.1237 10.4818 13.1239 9.80741 13.1234C9.59395 13.1241 9.3832 13.0278 9.24374 12.8663C9.05007 12.6493 9.00396 12.3166 9.13015 12.0548C9.22507 11.8506 9.41693 11.6944 9.63647 11.6436Z" fill="#4B4B4B"/>
<path opacity="0.5" d="M11.4605 6.7391C11.7081 6.67184 11.989 6.7427 12.1719 6.92354C12.6787 7.42986 13.1848 7.9364 13.6913 8.44271C13.7518 8.50232 13.8139 8.5617 13.8589 8.63458C13.9995 8.85209 14.0143 9.14404 13.8958 9.37437C13.7833 9.60178 13.5485 9.76305 13.2954 9.78375C13.0356 9.81344 12.7833 9.68545 12.6188 9.48931C12.1132 8.98322 11.6064 8.47803 11.1015 7.97126C10.8725 7.73261 10.8385 7.33741 11.02 7.06165C11.1201 6.9042 11.2798 6.78611 11.4605 6.7391Z" fill="#4B4B4B"/>
<path d="M14.7192 10.5156C14.9356 10.2679 15.2582 10.1177 15.5875 10.1156C16.0045 10.11 16.3988 10.274 16.7697 10.4483C17.4342 10.7729 18.0673 11.1566 18.7111 11.5194C19.5213 11.9835 20.3328 12.4452 21.1423 12.9104C21.4422 13.0897 21.7546 13.2651 21.9883 13.5298C22.175 13.7384 22.2787 14.0222 22.2501 14.3027C22.2261 14.5967 22.0567 14.856 21.8502 15.0576C21.4982 15.3972 21.0859 15.6647 20.6983 15.9607C20.9876 16.3691 21.2766 16.7778 21.5657 17.1863C21.7967 17.5188 22.04 17.8427 22.2609 18.1818C22.4951 18.5357 22.498 19.0177 22.2845 19.3814C22.1653 19.5946 21.9627 19.7395 21.7708 19.8819C21.6048 20.0013 21.4449 20.1315 21.262 20.2249C20.8531 20.432 20.3175 20.3461 19.9941 20.0215C19.8578 19.8848 19.7521 19.7222 19.6398 19.5661C19.2001 18.9471 18.7648 18.3247 18.3222 17.7079C18.0977 17.8753 17.8728 18.0417 17.6451 18.2046C17.4159 18.3649 17.1827 18.5269 16.9193 18.6263C16.6721 18.7212 16.388 18.7354 16.1422 18.629C15.8936 18.5289 15.7047 18.3179 15.5947 18.0777C15.4476 17.7599 15.3882 17.4115 15.3187 17.0707C15.0681 15.7409 14.8135 14.412 14.5667 13.0818C14.479 12.5714 14.3832 12.0581 14.3873 11.5383C14.3915 11.1764 14.4723 10.7931 14.7192 10.5156ZM15.4586 11.3325C15.4183 11.5448 15.4397 11.763 15.4595 11.9767C15.5126 12.4527 15.605 12.9228 15.6918 13.3933C15.9201 14.5971 16.1449 15.8014 16.3759 17.0046C16.4233 17.22 16.4564 17.4434 16.5524 17.6443C16.79 17.5392 16.9951 17.3759 17.2058 17.227C17.4827 17.0244 17.7585 16.8206 18.0347 16.6172C18.1128 16.5601 18.189 16.4951 18.2842 16.4679C18.4967 16.3959 18.7486 16.4814 18.8742 16.6669C19.4077 17.4209 19.9412 18.1749 20.4748 18.9291C20.558 19.0424 20.6329 19.163 20.7264 19.2683C20.7737 19.3171 20.8328 19.2613 20.8758 19.2345C21.0404 19.1146 21.2096 18.9997 21.3643 18.867C21.4312 18.7986 21.3569 18.7152 21.3173 18.6549C20.7692 17.875 20.2168 17.0984 19.6668 16.3199C19.6016 16.2205 19.5172 16.1312 19.4772 16.0176C19.3996 15.8093 19.4749 15.5571 19.654 15.4256C19.9639 15.1955 20.2759 14.9683 20.5859 14.7382C20.7973 14.5746 21.0256 14.4246 21.1959 14.2157C21.0517 14.0728 20.8724 13.9736 20.7008 13.8686C19.9878 13.4554 19.2705 13.0498 18.5557 12.6398C17.9731 12.3087 17.3943 11.9706 16.807 11.6479C16.5137 11.4911 16.2191 11.3316 15.9037 11.2232C15.7949 11.1897 15.6801 11.1512 15.5654 11.1717C15.4953 11.191 15.4728 11.2695 15.4586 11.3325Z" fill="#4B4B4B"/>
<path opacity="0.5" d="M2.75293 12.2468C4.04718 12.2457 5.34142 12.2468 6.63567 12.2464C6.77107 12.2497 6.90963 12.2335 7.04211 12.2704C7.23061 12.3192 7.3975 12.4452 7.49625 12.613C7.61928 12.8166 7.6348 13.0797 7.53831 13.297C7.42495 13.562 7.14806 13.7464 6.85947 13.7455C5.50809 13.7457 4.15694 13.7469 2.80579 13.7448C2.76688 13.2466 2.7581 12.7466 2.75293 12.2468Z" fill="#4B4B4B"/>
<path opacity="0.5" d="M12.0582 17.7423C12.3841 17.7261 12.6693 17.4708 12.7411 17.1555C12.753 18.5177 12.7422 19.8807 12.7467 21.2434C13.7609 21.2445 14.7751 21.2434 15.7896 21.2438C15.9324 21.2463 16.0797 21.2303 16.2178 21.2771C16.434 21.343 16.6155 21.5126 16.6951 21.7243C16.7754 21.9299 16.7577 22.1708 16.6481 22.3624C16.5386 22.5576 16.3377 22.6982 16.1166 22.7335C15.9936 22.7508 15.8692 22.7405 15.7455 22.7432C13.1658 22.7432 10.586 22.7434 8.00634 22.7432C7.79423 22.7463 7.58302 22.6546 7.44177 22.4962C7.2436 22.283 7.19142 21.9505 7.31333 21.6865C7.42692 21.426 7.69976 21.2443 7.9843 21.244C9.07183 21.2431 10.1591 21.2449 11.2467 21.2431C11.2471 20.0769 11.246 18.9106 11.2471 17.7441C11.5175 17.7428 11.7878 17.7471 12.0582 17.7423Z" fill="#4B4B4B"/>
</svg>
