<svg width="24" height="24" viewBox="0 0 24 24" fill="none" xmlns="http://www.w3.org/2000/svg">
<path d="M2.43016 2.37026C2.85978 2.24475 3.31256 2.25465 3.75567 2.24903C9.0269 2.24903 14.2981 2.24903 19.5695 2.24903C20.0869 2.2542 20.6062 2.23193 21.1222 2.28367C21.517 2.32393 21.9187 2.45551 22.2073 2.73847C22.4959 3.00839 22.6475 3.39414 22.697 3.78012C22.7584 4.25675 22.7395 4.73855 22.7431 5.21765C22.7377 5.66166 22.7487 6.11467 22.6279 6.54608C22.5341 6.88415 22.3292 7.19298 22.0408 7.39564C21.8042 7.56637 21.519 7.65589 21.2329 7.69885C20.7396 7.76385 20.2407 7.74294 19.7448 7.74766C14.5793 7.74766 9.41401 7.74766 4.24872 7.74766C3.7487 7.74249 3.24576 7.76543 2.74911 7.6966C2.38518 7.64509 2.02394 7.50136 1.7628 7.23572C1.50818 6.98582 1.36377 6.64303 1.30821 6.29439C1.24658 5.91673 1.25266 5.53278 1.24951 5.15152C1.25041 4.82087 1.24636 4.49 1.26188 4.15981C1.28032 3.76573 1.34015 3.35636 1.55676 3.01761C1.75425 2.70271 2.07432 2.47283 2.43016 2.37026ZM3.01251 3.77697C2.94863 3.79047 2.8735 3.788 2.81997 3.82848C2.78015 3.92678 2.77566 4.03497 2.76531 4.13934C2.74102 4.55816 2.75091 4.97832 2.75046 5.39782C2.75856 5.65806 2.74417 5.9255 2.82019 6.17765C3.0215 6.23973 3.23474 6.23726 3.44325 6.24445C3.98263 6.25143 4.52224 6.2467 5.06162 6.24805C10.0777 6.24805 15.0937 6.24828 20.1096 6.24805C20.4029 6.24468 20.6973 6.25278 20.9891 6.21814C21.0509 6.20779 21.1173 6.20329 21.1728 6.17068C21.2104 6.07576 21.2167 5.97184 21.2266 5.8713C21.2473 5.57911 21.2417 5.28603 21.2439 4.99339C21.2417 4.70031 21.2475 4.407 21.2257 4.11459C21.2151 4.01585 21.2102 3.91306 21.1695 3.82084C21.0959 3.78935 21.0152 3.78192 20.9369 3.7718C20.6915 3.74796 20.4447 3.75066 20.1987 3.74863C14.7405 3.74841 9.2822 3.74863 3.82405 3.74841C3.55346 3.75111 3.28175 3.74593 3.01251 3.77697Z" fill="#4B4B4B"/>
<path d="M13.9373 10.4958C14.0604 10.358 14.2358 10.2684 14.42 10.2507C14.6551 10.225 14.8989 10.32 15.055 10.4976C15.3035 10.7646 15.308 11.2147 15.0633 11.486C13.8685 12.825 12.673 14.1638 11.4773 15.5023C11.2602 15.7473 10.8758 15.817 10.5863 15.6643C10.4282 15.5898 10.3247 15.445 10.2098 15.3199C9.7786 14.8356 9.34471 14.3536 8.91509 13.8682C8.66429 13.5751 8.70163 13.0915 8.99404 12.8401C9.27498 12.5728 9.7624 12.5857 10.0287 12.8675C10.3292 13.2 10.6259 13.536 10.9251 13.8696C11.9294 12.7451 12.9335 11.6205 13.9373 10.4958Z" fill="#4B4B4B"/>
<path opacity="0.5" d="M2.74902 7.69678C3.24567 7.76561 3.74861 7.74266 4.24863 7.74784C4.2484 9.22878 4.24863 10.7097 4.24863 12.1907C4.2502 13.2629 4.24255 14.3351 4.2655 15.4072C4.27989 16.0003 4.30396 16.5943 4.37549 17.1839C4.4279 17.6002 4.5028 18.017 4.64923 18.4116C4.75944 18.7091 4.91869 18.9905 5.13508 19.224C5.36225 19.473 5.64814 19.6651 5.95877 19.7944C6.38928 19.975 6.85241 20.0594 7.3133 20.1174C8.12552 20.2144 8.94494 20.2272 9.76188 20.238C10.5637 20.2459 11.3658 20.2432 12.1677 20.2436C13.0026 20.2432 13.8376 20.2461 14.6725 20.2319C15.2823 20.2202 15.8928 20.2009 16.4996 20.1379C16.9074 20.0943 17.315 20.0317 17.7082 19.9123C18.035 19.8126 18.3517 19.6662 18.6178 19.4492C18.8735 19.2433 19.0811 18.9795 19.2253 18.6848C19.4122 18.3061 19.5094 17.8906 19.5762 17.4758C19.6624 16.9257 19.6948 16.3685 19.7155 15.8125C19.7429 15.0255 19.7422 14.2378 19.744 13.4503C19.7447 11.5494 19.7436 9.64849 19.7447 7.74784C20.2407 7.74311 20.7396 7.76403 21.2328 7.69903C21.2571 7.85985 21.2375 8.02405 21.2438 8.18645C21.2438 9.95642 21.2438 11.7264 21.2438 13.4964C21.2391 14.6141 21.2468 15.7338 21.1582 16.849C21.0871 17.683 20.9586 18.5301 20.5972 19.2931C20.2625 20.0061 19.699 20.6096 19.0074 20.987C18.2759 21.3901 17.4403 21.548 16.6182 21.633C15.4764 21.7443 14.3277 21.7374 13.1817 21.7432C11.8096 21.7389 10.4373 21.7542 9.06527 21.7266C8.22673 21.7045 7.38415 21.6694 6.55731 21.5181C5.88612 21.3943 5.2201 21.1757 4.65575 20.783C4.04867 20.3655 3.57631 19.7623 3.301 19.08C2.95776 18.2377 2.86081 17.3218 2.80458 16.4214C2.74205 15.305 2.75172 14.1865 2.74902 13.0688C2.74902 11.2781 2.74902 9.48745 2.74902 7.69678Z" fill="#4B4B4B"/>
</svg>
