<svg width="24" height="25" viewBox="0 0 24 25" fill="none" xmlns="http://www.w3.org/2000/svg">
<path d="M2.42992 2.87053C2.85954 2.74502 3.31232 2.75492 3.75543 2.7493C9.02666 2.7493 14.2979 2.7493 19.5693 2.7493C20.0867 2.75447 20.606 2.7322 21.122 2.78394C21.5168 2.8242 21.9185 2.95578 22.2071 3.23874C22.4957 3.50866 22.6473 3.89442 22.6968 4.28039C22.7582 4.75702 22.7393 5.23882 22.7429 5.71792C22.7375 6.16193 22.7485 6.61494 22.6277 7.04636C22.5339 7.38442 22.329 7.69325 22.0406 7.89591C21.804 8.06664 21.5188 8.15616 21.2327 8.19912C20.7394 8.26412 20.2405 8.24321 19.7446 8.24793C14.5791 8.24793 9.41377 8.24793 4.24848 8.24793C3.74846 8.24276 3.24552 8.2657 2.74887 8.19687C2.38494 8.14536 2.0237 8.00163 1.76256 7.73599C1.50794 7.48609 1.36353 7.1433 1.30797 6.79466C1.24634 6.417 1.25242 6.03305 1.24927 5.65179C1.25017 5.32114 1.24612 4.99027 1.26164 4.66008C1.28008 4.266 1.33991 3.85663 1.55652 3.51788C1.75401 3.20298 2.07408 2.9731 2.42992 2.87053ZM3.01227 4.27725C2.94839 4.29074 2.87326 4.28827 2.81973 4.32875C2.77991 4.42705 2.77542 4.53524 2.76507 4.63961C2.74078 5.05843 2.75067 5.4786 2.75022 5.89809C2.75832 6.15833 2.74393 6.42577 2.81995 6.67792C3.02126 6.74 3.2345 6.73753 3.44301 6.74472C3.98239 6.7517 4.522 6.74697 5.06138 6.74832C10.0775 6.74832 15.0935 6.74855 20.1094 6.74832C20.4027 6.74495 20.6971 6.75305 20.9889 6.71841C21.0507 6.70806 21.1171 6.70356 21.1726 6.67095C21.2102 6.57603 21.2165 6.47211 21.2264 6.37157C21.2471 6.07938 21.2415 5.7863 21.2437 5.49367C21.2415 5.20058 21.2473 4.90727 21.2255 4.61486C21.2149 4.51612 21.21 4.41333 21.1693 4.32111C21.0957 4.28962 21.015 4.28219 20.9367 4.27207C20.6913 4.24823 20.4445 4.25093 20.1985 4.2489C14.7403 4.24868 9.28196 4.2489 3.82381 4.24868C3.55322 4.25138 3.28151 4.2462 3.01227 4.27725Z" fill="#4B4B4B"/>
<path d="M13.9373 10.9957C14.0604 10.8578 14.2358 10.7683 14.42 10.7505C14.6551 10.7249 14.8989 10.8198 15.055 10.9975C15.3035 11.2645 15.308 11.7146 15.0633 11.9858C13.8685 13.3248 12.673 14.6636 11.4773 16.0022C11.2602 16.2471 10.8758 16.3168 10.5863 16.1641C10.4282 16.0897 10.3247 15.9448 10.2098 15.8197C9.7786 15.3355 9.34471 14.8534 8.91509 14.368C8.66429 14.075 8.70163 13.5914 8.99404 13.3399C9.27498 13.0727 9.7624 13.0855 10.0287 13.3673C10.3292 13.6998 10.6259 14.0358 10.9251 14.3694C11.9294 13.245 12.9335 12.1203 13.9373 10.9957Z" fill="#4B4B4B"/>
<path opacity="0.5" d="M2.74884 8.19687C3.24549 8.2657 3.74843 8.24275 4.24845 8.24793C4.24822 9.72886 4.24845 11.2098 4.24845 12.6907C4.25002 13.763 4.24237 14.8352 4.26532 15.9072C4.27971 16.5004 4.30378 17.0944 4.37531 17.684C4.42772 18.1003 4.50262 18.5171 4.64905 18.9116C4.75926 19.2092 4.91851 19.4906 5.13489 19.7241C5.36207 19.9731 5.64796 20.1652 5.95859 20.2945C6.3891 20.4751 6.85223 20.5595 7.31311 20.6175C8.12534 20.7144 8.94475 20.7273 9.7617 20.7381C10.5636 20.7459 11.3657 20.7432 12.1675 20.7437C13.0025 20.7432 13.8374 20.7461 14.6724 20.732C15.2821 20.7203 15.8926 20.7009 16.4995 20.638C16.9073 20.5943 17.3148 20.5318 17.708 20.4124C18.0348 20.3127 18.3515 20.1663 18.6176 19.9492C18.8734 19.7434 19.081 19.4796 19.2252 19.1849C19.4121 18.8061 19.5093 18.3907 19.5761 17.9759C19.6622 17.4257 19.6946 16.8686 19.7153 16.3126C19.7427 15.5255 19.7421 14.7378 19.7439 13.9503C19.7445 12.0495 19.7434 10.1486 19.7445 8.24793C20.2405 8.2432 20.7394 8.26412 21.2327 8.19912C21.257 8.35994 21.2374 8.52414 21.2437 8.68654C21.2437 10.4565 21.2437 12.2265 21.2437 13.9965C21.239 15.1141 21.2466 16.2338 21.158 17.349C21.0869 18.1831 20.9585 19.0302 20.597 19.7931C20.2623 20.5061 19.6989 21.1096 19.0072 21.4871C18.2757 21.8901 17.4401 22.048 16.618 22.1331C15.4763 22.2444 14.3275 22.2374 13.1815 22.2433C11.8095 22.239 10.4372 22.2543 9.06509 22.2266C8.22655 22.2046 7.38397 22.1695 6.55713 22.0181C5.88594 21.8944 5.21992 21.6758 4.65557 21.2831C4.04848 20.8656 3.57613 20.2623 3.30082 19.5801C2.95758 18.7378 2.86063 17.8218 2.8044 16.9214C2.74187 15.8051 2.75154 14.6865 2.74884 13.5689C2.74884 11.7782 2.74884 9.98753 2.74884 8.19687Z" fill="#4B4B4B"/>
</svg>
