<svg width="24" height="24" viewBox="0 0 24 24" fill="none" xmlns="http://www.w3.org/2000/svg">
<path d="M14.4353 4.50566C14.5946 4.32176 14.8475 4.22456 15.089 4.25576C15.3065 4.27976 15.5087 4.40756 15.6278 4.59056C15.8087 4.86056 15.7838 5.24666 15.5675 5.48996C13.7072 7.65986 11.8472 9.83006 9.98723 12.0003C11.8466 14.1708 13.7072 16.3407 15.5669 18.5109C15.7088 18.6747 15.7754 18.9015 15.74 19.1157C15.7022 19.3788 15.5117 19.6119 15.2621 19.7031C14.9783 19.8135 14.6324 19.7274 14.435 19.4949C12.431 17.157 10.427 14.8194 8.42333 12.4809C8.19143 12.2145 8.19233 11.7834 8.42543 11.5179C10.4282 9.17996 12.4319 6.84296 14.4353 4.50566Z" fill="#4B4B4B"/>
</svg>
