<svg width="24" height="24" viewBox="0 0 24 24" fill="none" xmlns="http://www.w3.org/2000/svg">
<path d="M11.5183 8.42445C11.785 8.19135 12.2173 8.19195 12.4834 8.42565C14.821 10.4288 17.1583 12.4325 19.4956 14.4359C19.696 14.609 19.7911 14.8934 19.7344 15.1523C19.6768 15.449 19.4218 15.6937 19.123 15.739C18.9061 15.7757 18.6748 15.7114 18.5092 15.5662C16.3396 13.7065 14.17 11.8469 12.0004 9.98715C9.82962 11.8469 7.65972 13.7075 5.48922 15.5678C5.28072 15.7499 4.96902 15.8009 4.71402 15.6923C4.44792 15.5861 4.25862 15.3152 4.25082 15.0287C4.24002 14.8055 4.33662 14.5814 4.50552 14.4353C6.84282 12.4316 9.18042 10.4279 11.5183 8.42445Z" fill="#4B4B4B"/>
</svg>
