<svg width="24" height="24" viewBox="0 0 24 24" fill="none" xmlns="http://www.w3.org/2000/svg">
<path d="M8.28447 4.77586C8.36487 4.51066 8.60367 4.30246 8.87787 4.26046C9.12927 4.21666 9.39867 4.31266 9.56487 4.50646C11.5677 6.84376 13.5717 9.18046 15.5745 11.5181C15.8079 11.7845 15.8076 12.2168 15.5739 12.4832C13.5759 14.8157 11.5764 17.1467 9.57807 19.4792C9.41247 19.6817 9.13647 19.7852 8.87877 19.7405C8.59587 19.6982 8.34987 19.4771 8.27727 19.2005C8.20977 18.9635 8.26977 18.695 8.43297 18.5102C10.2927 16.3403 12.1524 14.1704 14.0121 12.0008C12.1524 9.82966 10.2912 7.65946 8.43087 5.48866C8.26437 5.29666 8.20617 5.01796 8.28447 4.77586Z" fill="#4B4B4B"/>
</svg>
