<svg width="24" height="24" viewBox="0 0 24 24" fill="none" xmlns="http://www.w3.org/2000/svg">
<path d="M9.58824 8.50755C9.71357 8.24916 9.97564 8.05589 10.2689 8.01236C10.5564 7.96422 10.8659 8.05873 11.0695 8.26119C12.1207 9.28698 13.1675 10.317 14.2183 11.3431C14.4322 11.5417 14.5377 11.8408 14.4877 12.1233C14.4536 12.358 14.2977 12.5509 14.1452 12.7278C13.1197 13.731 12.0961 14.7362 11.0699 15.7387C10.8405 15.9677 10.477 16.0558 10.1616 15.9645C9.80473 15.8682 9.52906 15.5457 9.5037 15.189C9.47797 14.9235 9.58787 14.6534 9.78855 14.4708C10.6295 13.6471 11.4694 12.8227 12.3118 12.0001C11.5054 11.2136 10.703 10.4232 9.89698 9.63669C9.80068 9.53935 9.69373 9.44838 9.62463 9.33016C9.47356 9.0838 9.45923 8.76523 9.58824 8.50755Z" fill="#4B4B4B"/>
</svg>
