<svg width="24" height="24" viewBox="0 0 24 24" fill="none" xmlns="http://www.w3.org/2000/svg">
<path d="M12.9126 8.27722C13.1008 8.08255 13.3834 7.97884 13.6583 8.00362C13.9707 8.02592 14.2603 8.2174 14.4 8.48641C14.5797 8.8177 14.5073 9.25377 14.2272 9.51251C13.3812 10.3422 12.5348 11.1718 11.6873 12.0001C12.5058 12.7986 13.3202 13.6006 14.1387 14.3991C14.4235 14.6296 14.5767 15.0136 14.4613 15.3633C14.3735 15.6617 14.11 15.9048 13.7961 15.9746C13.4911 16.0489 13.1489 15.9572 12.9299 15.7395C11.9574 14.7895 10.9875 13.8371 10.0162 12.8864C9.91365 12.7848 9.80523 12.6881 9.70968 12.5802C9.52996 12.3763 9.46087 12.09 9.52151 11.8302C9.56524 11.6157 9.71115 11.4405 9.85081 11.2759C10.8718 10.2763 11.8913 9.27607 12.9126 8.27722Z" fill="#4B4B4B"/>
</svg>
