<svg width="24" height="24" viewBox="0 0 24 24" fill="none" xmlns="http://www.w3.org/2000/svg">
<path d="M4.77187 8.28637C5.01427 8.20627 5.29567 8.26267 5.48797 8.43097C7.65877 10.2916 9.82927 12.1522 11.9998 14.0125C14.1601 12.1618 16.3198 10.3105 18.4792 8.45887C18.6469 8.30167 18.886 8.22127 19.1146 8.25937C19.417 8.30167 19.6759 8.54797 19.7347 8.84767C19.8058 9.15517 19.6504 9.47347 19.3969 9.64837C17.0923 11.6236 14.7883 13.5991 12.4837 15.574C12.2173 15.808 11.7844 15.8083 11.5177 15.5746C9.26077 13.6411 7.00447 11.7064 4.74787 9.77227C4.63267 9.66637 4.49917 9.57787 4.40167 9.45367C4.25857 9.26587 4.21267 9.00997 4.28137 8.78407C4.35067 8.55157 4.53937 8.35747 4.77187 8.28637Z" fill="#4B4B4B"/>
</svg>
