<svg width="24" height="24" viewBox="0 0 24 24" fill="none" xmlns="http://www.w3.org/2000/svg">
<path d="M15.4925 9.58824C15.7508 9.71357 15.9441 9.97564 15.9876 10.2689C16.0358 10.5564 15.9413 10.8659 15.7388 11.0695C14.713 12.1207 13.683 13.1675 12.6569 14.2183C12.4583 14.4322 12.1592 14.5377 11.8767 14.4877C11.642 14.4536 11.4491 14.2977 11.2722 14.1452C10.269 13.1197 9.26377 12.0961 8.26135 11.0699C8.03233 10.8405 7.9442 10.477 8.03552 10.1616C8.1318 9.80473 8.45426 9.52906 8.81105 9.5037C9.07652 9.47797 9.3466 9.58787 9.52924 9.78855C10.3529 10.6295 11.1773 11.4694 11.9999 12.3118C12.7864 11.5054 13.5768 10.703 14.3633 9.89698C14.4606 9.80068 14.5516 9.69373 14.6698 9.62463C14.9162 9.47356 15.2348 9.45923 15.4925 9.58824Z" fill="#4B4B4B"/>
</svg>
