<svg width="24" height="24" viewBox="0 0 24 24" fill="none" xmlns="http://www.w3.org/2000/svg">
<path d="M11.3654 9.76018C11.5665 9.55469 11.8646 9.46058 12.1418 9.51536C12.3688 9.55322 12.5546 9.70541 12.7271 9.85282C13.7371 10.8858 14.7507 11.9154 15.759 12.9506C16.0872 13.2899 16.0787 13.8994 15.7424 14.2299C15.4248 14.5795 14.8389 14.5894 14.5111 14.2501C13.6727 13.3976 12.8368 12.543 12.0009 11.6883C11.2022 12.5069 10.4 13.3215 9.60127 14.1402C9.51064 14.2306 9.42213 14.3273 9.30919 14.3883C9.05853 14.5324 8.73955 14.5376 8.48499 14.4008C8.2269 14.2663 8.03997 13.9939 8.00704 13.6954C7.97235 13.4182 8.06723 13.126 8.26089 12.9311C9.29432 11.8728 10.3313 10.8178 11.3654 9.76018Z" fill="#4B4B4B"/>
</svg>
