<svg width="24" height="24" viewBox="0 0 24 24" fill="none" xmlns="http://www.w3.org/2000/svg">
<path opacity="0.5" d="M11.7777 1.63476C13.4172 1.09686 15.2349 1.12386 16.8579 1.71006C17.8629 2.07096 18.7908 2.64636 19.5576 3.38976C19.5969 3.42996 19.6374 3.47076 19.6671 3.51906C19.7364 3.68106 19.785 3.85956 19.7493 4.03626C19.6977 4.34946 19.4268 4.60956 19.1118 4.64736C18.9564 4.67196 18.8016 4.63026 18.6564 4.57806C18.5769 4.53426 18.516 4.46556 18.4494 4.40586C17.7558 3.75276 16.9044 3.27096 15.99 3.00456C14.8914 2.68146 13.7049 2.66556 12.5973 2.95656C11.6166 3.21216 10.6995 3.71316 9.96181 4.40916C7.81531 6.46266 5.67001 8.51676 3.52411 10.5709C3.35701 10.7356 3.11071 10.8145 2.87911 10.7746C2.63461 10.7374 2.41651 10.5682 2.31631 10.3429C2.18191 10.0564 2.25721 9.69156 2.49331 9.48156C4.62331 7.44156 6.75451 5.40246 8.88481 3.36306C9.70231 2.57856 10.7001 1.98426 11.7777 1.63476Z" fill="#4B4B4B"/>
<path opacity="0.5" d="M15.6065 6.24775C15.7976 6.18925 16.0037 6.22645 16.1825 6.30775C16.4768 6.52795 16.7039 6.82915 16.8881 7.14505C17.2175 7.72825 17.3423 8.42425 17.234 9.08545C17.1521 9.60325 16.9289 10.0967 16.5986 10.5035C16.475 10.658 16.3307 10.7942 16.1882 10.9307C13.6019 13.4054 11.0168 15.8816 8.43024 18.356C8.13864 18.6428 7.61604 18.6149 7.35564 18.3002C7.09314 18.0134 7.11444 17.5253 7.40304 17.264C10.0178 14.7599 12.6335 12.2564 15.2492 9.75325C15.4316 9.58675 15.581 9.38215 15.6704 9.15085C15.8618 8.67415 15.7763 8.10385 15.4613 7.69915C15.3851 7.59235 15.2813 7.51015 15.1967 7.41115C15.1109 7.26595 15.0488 7.09975 15.0626 6.92845C15.0743 6.61615 15.3047 6.32845 15.6065 6.24775Z" fill="#4B4B4B"/>
<path d="M19.6692 3.51562C19.7469 3.55644 19.7979 3.62903 19.857 3.69113C20.6268 4.52153 21.1977 5.53643 21.4986 6.62873C21.8139 7.76453 21.8355 8.98013 21.5607 10.1264C21.303 11.2148 20.7771 12.2363 20.0514 13.0865C19.7469 13.4507 19.392 13.7672 19.0515 14.0966C16.5537 16.4879 14.0556 18.8792 11.5572 21.2699C10.8126 21.977 9.85945 22.457 8.85145 22.6472C7.67845 22.8728 6.43195 22.7108 5.36125 22.1795C4.50535 21.7586 3.76405 21.1046 3.24745 20.3021C2.65375 19.3865 2.37175 18.2735 2.46175 17.1857C2.54335 16.1237 2.97985 15.0959 3.67675 14.2916C3.90145 14.027 4.16275 13.7969 4.41115 13.5548C6.88885 11.1833 9.36655 8.81183 11.844 6.44005C12.2451 6.04975 12.7509 5.76894 13.2939 5.63424C14.0844 5.43384 14.9493 5.54035 15.6636 5.93515C15.846 6.04255 16.0344 6.14995 16.1817 6.30445C16.0029 6.22314 15.7968 6.18595 15.6057 6.24445C15.3039 6.32514 15.0735 6.61283 15.0618 6.92513C15.048 7.09643 15.1101 7.26264 15.1959 7.40784C14.9868 7.27164 14.7687 7.14085 14.5218 7.08715C13.9596 6.94555 13.3272 7.09703 12.9063 7.49993C10.3308 9.96474 7.75555 12.4301 5.18035 14.8952C4.87975 15.1682 4.61395 15.482 4.41295 15.836C4.01845 16.5194 3.86425 17.3381 3.98695 18.1178C4.12255 19.0238 4.63465 19.8572 5.35705 20.4152C6.23725 21.1076 7.41925 21.3821 8.51785 21.1835C9.07615 21.0851 9.61345 20.8664 10.0797 20.5433C10.4496 20.2901 10.7508 19.9553 11.0781 19.6523C13.311 17.5151 15.5439 15.3779 17.7765 13.2407C18.0906 12.9356 18.4146 12.641 18.7194 12.3266C19.4604 11.5406 19.9752 10.541 20.1645 9.47604C20.3556 8.42782 20.2317 7.32564 19.8144 6.34555C19.5762 5.78155 19.2432 5.25834 18.8376 4.79994C18.7782 4.72464 18.6927 4.66703 18.6585 4.57463C18.8037 4.62683 18.9585 4.66853 19.1139 4.64393C19.4289 4.60614 19.6998 4.34604 19.7514 4.03284C19.7871 3.85614 19.7385 3.67763 19.6692 3.51562Z" fill="#4B4B4B"/>
</svg>
