<svg width="24" height="24" viewBox="0 0 24 24" fill="none" xmlns="http://www.w3.org/2000/svg">
<path opacity="0.5" d="M11.82 3.60225C13.1483 3.16646 14.6209 3.18834 15.9358 3.66325C16.75 3.95564 17.5017 4.4218 18.1229 5.02407C18.1548 5.05664 18.1876 5.08969 18.2117 5.12883C18.2678 5.26007 18.3072 5.40468 18.2783 5.54784C18.2364 5.80158 18.017 6.0123 17.7618 6.04293C17.6359 6.06286 17.5105 6.02907 17.3928 5.98678C17.3284 5.9513 17.2791 5.89564 17.2251 5.84727C16.6632 5.31816 15.9734 4.92783 15.2326 4.712C14.3426 4.45024 13.3813 4.43736 12.484 4.67311C11.6895 4.88019 10.9465 5.28608 10.3488 5.84995C8.60985 7.5136 6.87182 9.17775 5.1333 10.8419C4.99793 10.9753 4.79838 11.0393 4.61075 11.0069C4.41267 10.9768 4.23597 10.8397 4.15479 10.6572C4.04591 10.4251 4.10691 10.1295 4.29819 9.95939C6.02383 8.30667 7.75044 6.65468 9.47631 5.00244C10.1386 4.36687 10.947 3.8854 11.82 3.60225Z" fill="#4B4B4B"/>
<path opacity="0.5" d="M14.9223 7.3395C15.0771 7.29211 15.2441 7.32225 15.3889 7.38811C15.6274 7.56651 15.8114 7.81053 15.9606 8.06646C16.2275 8.53894 16.3286 9.10281 16.2408 9.63849C16.1745 10.0579 15.9936 10.4578 15.7261 10.7873C15.6259 10.9125 15.509 11.0228 15.3936 11.1334C13.2983 13.1383 11.2039 15.1444 9.10834 17.1491C8.8721 17.3814 8.44871 17.3588 8.23775 17.1039C8.02508 16.8715 8.04234 16.4761 8.27615 16.2644C10.3946 14.2357 12.5137 12.2075 14.6328 10.1795C14.7806 10.0446 14.9016 9.87886 14.9741 9.69147C15.1291 9.30527 15.0599 8.84324 14.8047 8.51536C14.7429 8.42884 14.6588 8.36224 14.5903 8.28204C14.5208 8.1644 14.4705 8.02976 14.4817 7.89098C14.4911 7.63796 14.6778 7.40488 14.9223 7.3395Z" fill="#4B4B4B"/>
<path d="M18.2128 5.12598C18.2758 5.15903 18.3171 5.21785 18.365 5.26816C18.9886 5.94091 19.4512 6.76314 19.6949 7.64808C19.9504 8.56825 19.9679 9.55308 19.7452 10.4818C19.5365 11.3635 19.1104 12.1911 18.5225 12.8799C18.2758 13.175 17.9883 13.4314 17.7124 13.6983C15.6888 15.6356 13.6649 17.5729 11.6408 19.5098C11.0376 20.0826 10.2654 20.4715 9.44877 20.6256C8.49846 20.8084 7.4886 20.6771 6.62116 20.2467C5.92775 19.9057 5.32718 19.3758 4.90865 18.7257C4.42766 17.9839 4.1992 17.0822 4.27211 16.2009C4.33822 15.3405 4.69185 14.5078 5.25645 13.8562C5.43849 13.6419 5.65019 13.4554 5.85143 13.2593C7.85876 11.338 9.86609 9.41673 11.8732 7.4952C12.1981 7.179 12.6079 6.9515 13.0478 6.84238C13.6883 6.68002 14.389 6.7663 14.9677 7.08615C15.1154 7.17316 15.2681 7.26017 15.3874 7.38534C15.2426 7.31948 15.0756 7.28934 14.9208 7.33673C14.6763 7.40211 14.4896 7.6352 14.4801 7.88821C14.4689 8.02699 14.5192 8.16164 14.5888 8.27927C14.4194 8.16893 14.2427 8.06296 14.0426 8.01945C13.5872 7.90474 13.0748 8.02747 12.7338 8.35389C10.6473 10.3508 8.56092 12.3481 6.4746 14.3452C6.23107 14.5664 6.01573 14.8206 5.85289 15.1074C5.53328 15.6611 5.40836 16.3244 5.50776 16.9561C5.61762 17.6901 6.0325 18.3652 6.61776 18.8173C7.33086 19.3783 8.28846 19.6007 9.1785 19.4398C9.63081 19.36 10.0661 19.1829 10.4438 18.9211C10.7435 18.716 10.9875 18.4447 11.2527 18.1992C13.0617 16.4678 14.8707 14.7363 16.6794 13.0048C16.9339 12.7577 17.1964 12.519 17.4433 12.2643C18.0437 11.6275 18.4607 10.8177 18.6141 9.95484C18.7689 9.10563 18.6685 8.21268 18.3305 7.41864C18.1375 6.96171 17.8677 6.53784 17.5391 6.16646C17.491 6.10546 17.4217 6.05879 17.394 5.98393C17.5116 6.02622 17.6371 6.06001 17.763 6.04008C18.0182 6.00945 18.2376 5.79873 18.2794 5.54499C18.3084 5.40184 18.269 5.25722 18.2128 5.12598Z" fill="#4B4B4B"/>
</svg>
