<svg width="24" height="24" viewBox="0 0 24 24" fill="none" xmlns="http://www.w3.org/2000/svg">
<path opacity="0.5" d="M11.7777 1.635C13.4172 1.0971 15.2349 1.1241 16.8579 1.7103C17.8629 2.0712 18.7908 2.6466 19.5576 3.39C19.5969 3.4302 19.6374 3.471 19.6671 3.5193C19.7364 3.6813 19.785 3.8598 19.7493 4.0365C19.6977 4.3497 19.4268 4.6098 19.1118 4.6476C18.9564 4.6722 18.8016 4.6305 18.6564 4.5783C18.5769 4.5345 18.516 4.4658 18.4494 4.4061C17.7558 3.753 16.9044 3.2712 15.99 3.0048C14.8914 2.6817 13.7049 2.6658 12.5973 2.9568C11.6166 3.2124 10.6995 3.7134 9.9618 4.4094C7.8153 6.4629 5.67 8.517 3.5241 10.5711C3.357 10.7358 3.1107 10.8147 2.8791 10.7748C2.6346 10.7376 2.4165 10.5684 2.3163 10.3431C2.1819 10.0566 2.2572 9.6918 2.4933 9.4818C4.6233 7.4418 6.7545 5.4027 8.8848 3.3633C9.7023 2.5788 10.7001 1.9845 11.7777 1.635Z" fill="#4B4B4B"/>
<path opacity="0.5" d="M15.6065 6.24751C15.7976 6.18901 16.0037 6.22621 16.1825 6.30751C16.4768 6.52771 16.7039 6.82891 16.8881 7.14481C17.2175 7.72801 17.3423 8.42401 17.234 9.08521C17.1521 9.60301 16.9289 10.0965 16.5986 10.5033C16.475 10.6578 16.3307 10.794 16.1882 10.9305C13.6019 13.4052 11.0168 15.8814 8.43022 18.3558C8.13862 18.6426 7.61602 18.6147 7.35562 18.3C7.09312 18.0132 7.11442 17.5251 7.40302 17.2638C10.0178 14.7597 12.6335 12.2562 15.2492 9.75301C15.4316 9.58651 15.581 9.38191 15.6704 9.15061C15.8618 8.67391 15.7763 8.10361 15.4613 7.69891C15.3851 7.59211 15.2813 7.50991 15.1967 7.41091C15.1109 7.26571 15.0488 7.09951 15.0626 6.92821C15.0743 6.61591 15.3047 6.32821 15.6065 6.24751Z" fill="#4B4B4B"/>
<path d="M19.6692 3.51562C19.7469 3.55643 19.7979 3.62903 19.857 3.69113C20.6268 4.52153 21.1977 5.53643 21.4986 6.62873C21.8139 7.76453 21.8355 8.98013 21.5607 10.1264C21.303 11.2148 20.7771 12.2363 20.0514 13.0865C19.7469 13.4507 19.392 13.7672 19.0515 14.0966C16.5537 16.4879 14.0556 18.8792 11.5572 21.2699C10.8126 21.977 9.85945 22.457 8.85145 22.6472C7.67845 22.8728 6.43195 22.7108 5.36125 22.1795C4.50535 21.7586 3.76405 21.1046 3.24745 20.3021C2.65375 19.3865 2.37175 18.2735 2.46175 17.1857C2.54335 16.1237 2.97985 15.0959 3.67675 14.2916C3.90145 14.027 4.16275 13.7969 4.41115 13.5548C6.88885 11.1833 9.36655 8.81182 11.844 6.44003C12.2451 6.04973 12.7509 5.76892 13.2939 5.63422C14.0844 5.43382 14.9493 5.54033 15.6636 5.93513C15.846 6.04253 16.0344 6.14993 16.1817 6.30443C16.0029 6.22313 15.7968 6.18593 15.6057 6.24443C15.3039 6.32513 15.0735 6.61283 15.0618 6.92513C15.048 7.09643 15.1101 7.26263 15.1959 7.40783C14.9868 7.27163 14.7687 7.14083 14.5218 7.08713C13.9596 6.94553 13.3272 7.09703 12.9063 7.49993C10.3308 9.96473 7.75555 12.4301 5.18035 14.8952C4.87975 15.1682 4.61395 15.482 4.41295 15.836C4.01845 16.5194 3.86425 17.3381 3.98695 18.1178C4.12255 19.0238 4.63465 19.8572 5.35705 20.4152C6.23725 21.1076 7.41925 21.3821 8.51785 21.1835C9.07615 21.0851 9.61345 20.8664 10.0797 20.5433C10.4496 20.2901 10.7508 19.9553 11.0781 19.6523C13.311 17.5151 15.5439 15.3779 17.7765 13.2407C18.0906 12.9356 18.4146 12.641 18.7194 12.3266C19.4604 11.5406 19.9752 10.541 20.1645 9.47603C20.3556 8.42782 20.2317 7.32563 19.8144 6.34553C19.5762 5.78153 19.2432 5.25832 18.8376 4.79992C18.7782 4.72462 18.6927 4.66703 18.6585 4.57463C18.8037 4.62683 18.9585 4.66853 19.1139 4.64393C19.4289 4.60613 19.6998 4.34603 19.7514 4.03283C19.7871 3.85613 19.7385 3.67763 19.6692 3.51562Z" fill="#4B4B4B"/>
</svg>
