<svg width="24" height="24" viewBox="0 0 24 24" fill="none" xmlns="http://www.w3.org/2000/svg">
<path d="M7.61723 1.58343C8.92036 1.51078 10.2268 1.52765 11.5313 1.52484C12.4065 1.52765 13.2821 1.51828 14.1572 1.53281C15.1271 1.54359 16.1002 1.56796 17.0607 1.71046C17.7741 1.82437 18.4904 2.01937 19.1035 2.41406C19.7822 2.84296 20.3049 3.5025 20.5838 4.2539C20.9199 5.15343 20.9925 6.12328 21.0371 7.07437C21.0821 8.34093 21.0694 9.6089 21.0713 10.8764C21.0765 11.198 20.843 11.5031 20.5304 11.58C20.2191 11.6677 19.8652 11.5073 19.7185 11.2214C19.6088 11.0316 19.6327 10.8052 19.6313 10.5952C19.6318 9.5639 19.6341 8.53265 19.6111 7.50187C19.5933 6.915 19.5647 6.32718 19.479 5.74546C19.41 5.29687 19.306 4.84546 19.0885 4.44328C18.8921 4.07718 18.5879 3.7725 18.2269 3.56812C17.7821 3.31312 17.2735 3.20109 16.7715 3.12421C15.735 2.97656 14.6855 2.98125 13.6407 2.96671C12.0305 2.96296 10.4204 2.955 8.8102 2.9789C8.11598 2.99343 7.41989 3.02015 6.73083 3.11296C6.23817 3.18234 5.74176 3.28828 5.29505 3.51515C4.90505 3.71296 4.57083 4.02375 4.35567 4.40531C4.12598 4.81125 4.01817 5.2725 3.94692 5.72953C3.80442 6.68765 3.80911 7.65843 3.79458 8.62453C3.78942 10.1395 3.7927 11.6545 3.79176 13.1695C3.79551 14.3723 3.78051 15.5761 3.83489 16.778C3.88176 17.5247 3.9352 18.2897 4.21505 18.9919C4.42786 19.5314 4.85723 19.9762 5.38458 20.2153C6.01833 20.505 6.72192 20.5852 7.40864 20.6456C8.82801 20.7459 10.2525 20.7141 11.6743 20.7244C11.9166 20.7141 12.1618 20.8294 12.2996 21.0309C12.4674 21.263 12.4744 21.5944 12.3146 21.833C12.1805 22.0467 11.9269 22.1719 11.6761 22.163C10.5511 22.162 9.4252 22.1677 8.3002 22.1348C7.38567 22.1002 6.4627 22.0462 5.57489 21.8081C4.79067 21.608 4.04864 21.1983 3.51801 20.5805C3.08255 20.0831 2.80458 19.4648 2.65223 18.8259C2.4352 17.9278 2.39395 16.9997 2.36911 16.0795C2.33676 14.0634 2.35833 12.0469 2.35176 10.0308C2.3527 9.04734 2.34989 8.0639 2.38551 7.0814C2.43005 6.135 2.50176 5.17078 2.83176 4.27406C3.1388 3.42328 3.76598 2.69578 4.56473 2.27015C5.49942 1.77187 6.57661 1.65375 7.61723 1.58343Z" fill="#4B4B4B"/>
<path d="M7.65798 6.35741C7.7433 6.33069 7.83283 6.32507 7.92189 6.32179C10.4531 6.32273 12.9844 6.32132 15.5156 6.32273C15.8888 6.30257 16.2427 6.60491 16.2685 6.97991C16.3153 7.37929 15.967 7.76507 15.5653 7.76132C13.0022 7.76413 10.4391 7.76226 7.87595 7.76226C7.55486 7.76788 7.25017 7.53304 7.17564 7.22038C7.07252 6.86413 7.30455 6.46054 7.65798 6.35741Z" fill="#4B4B4B"/>
<path d="M7.79631 11.1294C9.41678 11.1186 11.0382 11.128 12.6591 11.1247C12.954 11.1163 13.2408 11.3089 13.3426 11.586C13.4555 11.8611 13.3651 12.1977 13.1396 12.388C12.9952 12.5155 12.8002 12.5699 12.6104 12.5633C11.0307 12.5605 9.451 12.5643 7.87131 12.5614C7.50896 12.5694 7.18037 12.2643 7.15459 11.9043C7.11428 11.5288 7.41897 11.1589 7.79631 11.1294Z" fill="#4B4B4B"/>
<path opacity="0.5" d="M17.2168 13.0536C18.0629 12.9828 18.9183 13.2697 19.5835 13.7896C20.4671 14.4749 21.0793 15.5544 21.0718 16.6874C21.0718 17.8283 21.0718 18.9688 21.0718 20.1097C21.083 20.3942 20.9166 20.6774 20.6555 20.7946C20.3911 20.9263 20.0508 20.863 19.8451 20.653C19.7002 20.5128 19.6276 20.3099 19.6313 20.1097C19.6318 18.9692 19.6322 17.8283 19.6313 16.6878C19.6336 16.0349 19.2797 15.4227 18.7946 15.0046C18.3371 14.6047 17.6986 14.3891 17.0954 14.525C16.0726 14.7575 15.2551 15.7686 15.3108 16.8285C15.3127 17.8752 15.3108 18.9219 15.3118 19.9686C15.3076 20.2044 15.4515 20.4177 15.6352 20.5536C15.9432 20.7819 16.3997 20.7782 16.703 20.5438C16.8788 20.4078 17.0171 20.2002 17.0129 19.9714C17.0138 19.1736 17.0143 18.3753 17.0124 17.5775C17.0007 17.3432 17.0232 17.0867 17.191 16.9067C17.4263 16.6255 17.8786 16.5753 18.1669 16.8036C18.3479 16.94 18.4552 17.1641 18.4533 17.391C18.4529 18.2652 18.4552 19.1399 18.4519 20.0146C18.4496 20.4838 18.2719 20.945 17.9738 21.3055C17.5191 21.8633 16.7963 22.1896 16.0768 22.1596C15.2152 22.1324 14.3818 21.5905 14.0382 20.7946C13.9243 20.5344 13.8708 20.2503 13.8722 19.9667C13.8713 19.0292 13.8722 18.0922 13.8718 17.1552C13.8736 16.7792 13.8535 16.3986 13.9351 16.0292C14.2552 14.4852 15.6263 13.1797 17.2168 13.0536Z" fill="#4B4B4B"/>
</svg>
