<svg width="24" height="24" viewBox="0 0 24 24" fill="none" xmlns="http://www.w3.org/2000/svg">
<path d="M9.47976 5.45934C9.67626 5.26614 9.98436 5.19834 10.2439 5.29104C10.5301 5.38644 10.7407 5.66844 10.7482 5.97024C10.7593 6.18774 10.6669 6.40404 10.5082 6.55194C8.94156 8.11764 7.37586 9.68394 5.80956 11.2499C5.56116 11.5004 5.30886 11.747 5.06256 11.9996C5.30766 12.2537 5.56146 12.4997 5.80986 12.7505C7.38606 14.327 8.96256 15.9029 10.5385 17.4794C10.7098 17.6543 10.7851 17.9159 10.7329 18.155C10.675 18.4505 10.4209 18.6941 10.1236 18.74C9.89376 18.7799 9.64716 18.7049 9.48036 18.542C7.47006 16.5311 5.45946 14.5208 3.44916 12.5102C3.18336 12.2384 3.18426 11.7641 3.44796 11.4911C5.45856 9.48054 7.46916 7.46994 9.47976 5.45934Z" fill="#4B4B4B"/>
<path d="M5.0625 11.9997C5.3088 11.7471 5.5611 11.5005 5.8095 11.25C10.5429 11.2506 15.2763 11.25 20.0097 11.2506C20.2269 11.2518 20.4396 11.3547 20.5773 11.5224C20.7351 11.7102 20.7894 11.9772 20.7186 12.2121C20.6322 12.5199 20.331 12.7503 20.0106 12.7503C15.2772 12.7509 10.5435 12.7497 5.8098 12.7506C5.5614 12.4998 5.3076 12.2538 5.0625 11.9997Z" fill="#4B4B4B"/>
</svg>
