<svg width="24" height="24" viewBox="0 0 24 24" fill="none" xmlns="http://www.w3.org/2000/svg">
<path d="M6.97859 1.48403C7.69949 1.31363 8.44379 1.28453 9.18149 1.26413C10.3512 1.24193 11.5215 1.25333 12.6915 1.25033C13.6017 1.25273 14.5125 1.24373 15.4221 1.28483C16.1202 1.32173 16.8282 1.38503 17.4903 1.62323C18.0309 1.81313 18.5232 2.15063 18.8787 2.60213C19.0638 2.83043 19.2063 3.08993 19.3212 3.35963C19.5267 3.86273 19.62 4.40273 19.6731 4.94093C19.7514 5.77223 19.7454 6.60803 19.7532 7.44203C19.7529 10.4717 19.7529 13.5014 19.7532 16.5311C19.7454 17.3747 19.7529 18.2207 19.6731 19.0616C19.6209 19.5995 19.5267 20.1389 19.3221 20.6417C19.1259 21.1232 18.8085 21.5582 18.399 21.8804C17.9484 22.2422 17.3931 22.4498 16.8312 22.5623C16.2 22.688 15.555 22.7177 14.913 22.7372C14.0022 22.7573 13.0911 22.7519 12.1803 22.7528C11.4612 22.7516 10.7424 22.7561 10.0236 22.7489C9.31349 22.7465 8.60219 22.7372 7.89509 22.6685C7.22609 22.6001 6.54509 22.4657 5.95829 22.1225C5.38259 21.7904 4.93169 21.2585 4.68269 20.6438C4.47659 20.1407 4.38359 19.6004 4.33049 19.0619C4.25099 18.2207 4.25789 17.3747 4.25039 16.5308C4.25309 13.3013 4.24589 10.0715 4.25399 6.84203C4.26119 6.20813 4.26989 5.57333 4.33049 4.94183C4.38269 4.40333 4.47719 3.86393 4.68179 3.36083C4.95179 2.69093 5.46539 2.11853 6.11429 1.79753C6.38639 1.65413 6.68069 1.55723 6.97859 1.48403ZM9.06419 2.76713C8.60129 2.78153 8.13749 2.80313 7.67939 2.87363C7.37459 2.92103 7.07009 2.99393 6.79289 3.13253C6.46319 3.30023 6.20309 3.59273 6.06689 3.93623C5.87489 4.42013 5.83019 4.94573 5.79389 5.46023C5.75099 6.15023 5.75729 6.84203 5.75039 7.53293C5.75309 10.712 5.74589 13.8914 5.75399 17.0705C5.76239 17.8112 5.76329 18.5558 5.86859 19.2908C5.94059 19.7492 6.05759 20.2358 6.39569 20.5751C6.72839 20.9282 7.22039 21.0575 7.68389 21.1298C8.20919 21.2105 8.74109 21.2285 9.27149 21.2408C10.9017 21.2621 12.5322 21.2525 14.1624 21.2492C14.9139 21.2375 15.6702 21.2375 16.4139 21.1151C16.839 21.0386 17.2845 20.9105 17.5932 20.5901C17.9496 20.2418 18.0687 19.7324 18.1398 19.2563C18.2601 18.374 18.2412 17.4809 18.2529 16.5926C18.2511 13.3421 18.2577 10.0919 18.2496 6.84173C18.2373 6.07973 18.2385 5.31233 18.1095 4.55873C18.033 4.14443 17.9037 3.71183 17.5911 3.41153C17.2209 3.03353 16.6761 2.92103 16.1715 2.85203C15.2964 2.74343 14.4123 2.76143 13.5321 2.75033C12.0429 2.75573 10.5531 2.73713 9.06419 2.76713Z" fill="#4B4B4B"/>
<path d="M8.88444 8.25927C8.98254 8.24577 9.08184 8.25117 9.18084 8.25057C11.1209 8.25057 13.061 8.25057 15.0011 8.25057C15.2402 8.24937 15.4751 8.37177 15.6131 8.56677C15.7628 8.77587 15.7934 9.06508 15.6875 9.29998C15.5744 9.56908 15.2942 9.75417 15.002 9.75027C13.001 9.75087 11 9.75057 8.99904 9.75057C8.76114 9.75177 8.52714 9.63028 8.38914 9.43678C8.25684 9.25288 8.21514 9.00718 8.28024 8.78998C8.35854 8.51668 8.60124 8.29887 8.88444 8.25927Z" fill="#4B4B4B"/>
<path opacity="0.5" d="M2.87893 3.92727C3.42043 3.58977 4.05403 3.43497 4.68163 3.35938C4.47703 3.86247 4.38253 4.40187 4.33033 4.94037C4.10803 4.99557 3.88663 5.06728 3.69043 5.18848C3.41833 5.35347 3.20323 5.60817 3.08023 5.90127C2.96113 6.17577 2.90353 6.47187 2.85973 6.76647C2.77303 7.40757 2.76493 8.05557 2.75473 8.70117C2.74603 9.98127 2.75113 11.2614 2.74993 12.5418C2.75113 13.5711 2.74483 14.6007 2.75953 15.63C2.77753 16.3107 2.78833 16.9983 2.93983 17.6652C3.02833 18.0576 3.20863 18.4473 3.53113 18.7008C3.76153 18.8868 4.04533 18.9912 4.33033 19.0605C4.38343 19.599 4.47643 20.1393 4.68253 20.6424C4.11883 20.5731 3.55243 20.4432 3.04903 20.1717C2.56483 19.911 2.15323 19.515 1.87813 19.0383C1.61383 18.5874 1.47613 18.0747 1.39273 17.5623C1.28983 16.8933 1.27243 16.2153 1.25863 15.54C1.24603 14.4504 1.25233 13.3605 1.25083 12.2709C1.25443 10.9311 1.24093 9.59097 1.26313 8.25117C1.27873 7.57888 1.30453 6.90328 1.42783 6.24088C1.51693 5.76807 1.66603 5.30037 1.92193 4.89027C2.16133 4.50147 2.49313 4.17087 2.87893 3.92727Z" fill="#4B4B4B"/>
<path opacity="0.5" d="M19.3203 3.35938C19.8615 3.42718 20.4051 3.54778 20.8932 3.79888C21.4113 4.06228 21.8502 4.47988 22.137 4.98568C22.3956 5.43628 22.5306 5.94598 22.6122 6.45598C22.7262 7.21858 22.7361 7.99168 22.7478 8.76118C22.7559 10.311 22.7502 11.8611 22.7517 13.4109C22.7502 14.3211 22.7577 15.2313 22.7286 16.1409C22.7055 16.7715 22.6644 17.406 22.5186 18.0216C22.4172 18.4527 22.251 18.8718 21.9987 19.2372C21.6705 19.7136 21.201 20.0907 20.6658 20.31C20.2383 20.4897 19.7808 20.589 19.3212 20.6415C19.5258 20.1387 19.62 19.5993 19.6722 19.0614C19.9779 18.9885 20.283 18.8724 20.5203 18.66C20.8338 18.393 20.9961 17.9952 21.0774 17.6004C21.2196 16.9236 21.2277 16.2285 21.2445 15.5397C21.2598 13.9905 21.2499 12.441 21.2526 10.8915C21.2523 10.0317 21.2556 9.17158 21.2418 8.31178C21.2223 7.63498 21.2103 6.95008 21.0507 6.28828C20.955 5.88508 20.7504 5.48968 20.4024 5.24938C20.1849 5.09398 19.929 5.00548 19.6722 4.94068C19.6191 4.40248 19.5258 3.86248 19.3203 3.35938Z" fill="#4B4B4B"/>
<path opacity="0.5" d="M8.8949 12.252C9.3506 12.2325 9.8081 12.249 10.2644 12.2436C11.8439 12.2436 13.4237 12.2433 15.0035 12.2439C15.242 12.243 15.4766 12.3621 15.6146 12.5574C15.7508 12.7392 15.7886 12.9846 15.7298 13.2021C15.6593 13.4598 15.4415 13.6713 15.1814 13.7328C15.0635 13.7574 14.9426 13.7547 14.8229 13.7544C12.8825 13.7529 10.9424 13.7559 9.002 13.7529C8.6078 13.7625 8.2466 13.4136 8.2514 13.0182C8.2268 12.6468 8.5289 12.2982 8.8949 12.252Z" fill="#4B4B4B"/>
<path opacity="0.5" d="M8.80518 16.2795C8.98728 16.2372 9.17508 16.2537 9.36018 16.251C10.2209 16.251 11.0816 16.251 11.9426 16.251C12.1442 16.2498 12.3545 16.305 12.5018 16.4499C12.7334 16.6494 12.8096 17.0007 12.6917 17.2809C12.5843 17.5554 12.2987 17.7483 12.0038 17.7447C11.0036 17.7438 10.0031 17.7441 9.00258 17.7444C8.71548 17.7507 8.43708 17.5686 8.32218 17.3061C8.25678 17.1717 8.24718 17.0175 8.26698 16.8717C8.31228 16.5927 8.53368 16.353 8.80518 16.2795Z" fill="#4B4B4B"/>
</svg>
