<svg width="24" height="24" viewBox="0 0 24 24" fill="none" xmlns="http://www.w3.org/2000/svg">
<path d="M9.8991 1.55791C11.2146 1.16131 12.6426 1.14751 13.9656 1.51861C15.018 1.81111 15.9993 2.34811 16.8222 3.06511C17.6721 3.80371 18.3546 4.73221 18.8124 5.76061C19.2663 6.77611 19.4994 7.88851 19.4994 9.00031C19.509 9.43141 19.4727 9.86611 19.5456 10.2933C19.6242 10.7889 19.8069 11.268 20.0793 11.6895C20.4474 12.2628 20.8155 12.8358 21.1839 13.4091C21.4731 13.8603 21.6597 14.3772 21.7233 14.9094C21.8481 15.9231 21.5235 16.9863 20.838 17.7459C20.4324 18.2007 19.9002 18.5409 19.3176 18.7197C18.6246 18.9207 17.922 19.0899 17.2146 19.2318C16.6068 19.3545 15.9942 19.4544 15.3795 19.5339C15.2409 19.5516 15.1023 19.5672 14.964 19.5843C14.6724 20.0397 14.2344 20.3877 13.7487 20.6181C12.8052 21.0639 11.6904 21.1155 10.7001 20.7978C10.0386 20.5818 9.4158 20.1786 9.0366 19.5843C8.8977 19.5675 8.7588 19.5516 8.6199 19.5339C8.0187 19.4586 7.422 19.3536 6.8262 19.2441C6.1197 19.0941 5.4153 18.933 4.7214 18.7314C4.2396 18.5895 3.7902 18.3393 3.4176 18.0024C2.6847 17.346 2.2614 16.371 2.2518 15.3903C2.2404 14.7075 2.4309 14.0229 2.7939 13.4445C3.0903 12.9813 3.3882 12.5193 3.6849 12.0564C3.8397 11.8098 4.0101 11.5716 4.1355 11.3079C4.3611 10.8423 4.4862 10.3281 4.4991 9.81091C4.5048 9.32641 4.4862 8.84071 4.5267 8.35741C4.614 7.25401 4.9353 6.16981 5.4657 5.19871C5.9247 4.35661 6.5397 3.59971 7.2741 2.98261C8.0406 2.33701 8.9385 1.84591 9.8991 1.55791ZM11.3856 2.78251C10.7469 2.85061 10.1202 3.02641 9.5394 3.30001C8.5431 3.76651 7.6857 4.51651 7.0758 5.43061C6.462 6.34381 6.0978 7.42021 6.0189 8.51731C5.991 8.88781 6.0024 9.26011 6 9.63151C6.0138 10.4718 5.8194 11.3157 5.4342 12.0633C5.3046 12.3246 5.1399 12.5655 4.9833 12.8106C4.6818 13.2801 4.3803 13.7493 4.0788 14.2188C3.9192 14.4684 3.8121 14.7516 3.7701 15.0453C3.6504 15.8328 4.0215 16.6833 4.7088 17.0979C4.9707 17.2662 5.2791 17.3292 5.5749 17.4111C7.1568 17.8308 8.7795 18.0957 10.4127 18.1995C13.2156 18.3792 16.0479 18.0795 18.7524 17.322C19.0248 17.2533 19.2837 17.1282 19.5009 16.9494C19.9098 16.6179 20.1726 16.1196 20.2353 15.5988C20.2932 15.1425 20.193 14.6685 19.9557 14.2749C19.5309 13.6005 19.0869 12.9384 18.6708 12.2586C18.3453 11.6892 18.1341 11.0556 18.0459 10.4058C17.9622 9.81991 18.0228 9.22681 17.9889 8.63791C17.9289 7.51261 17.5692 6.40321 16.9461 5.46301C16.3047 4.48921 15.3834 3.69811 14.3124 3.23281C13.398 2.83141 12.3783 2.67601 11.3856 2.78251Z" fill="#4B4B4B"/>
<path opacity="0.3" d="M11.5653 3.0507C12.4089 2.97 13.2723 3.1209 14.0406 3.4782C15.0537 3.945 15.8931 4.7487 16.4652 5.70091C17.1006 6.75181 17.4186 7.98361 17.4135 9.20941C17.4177 9.57061 17.3976 9.93331 17.4411 10.293C17.5056 10.8597 17.6847 11.4147 17.9751 11.9064C18.2928 12.4482 18.6081 12.9915 18.927 13.5327C19.1862 13.9689 19.4841 14.3886 19.6638 14.8668C19.7742 15.1605 19.8192 15.4974 19.6953 15.7944C19.5546 16.1394 19.2495 16.3818 18.9384 16.5675C18.4032 16.881 17.8062 17.0661 17.2137 17.238C14.7357 17.949 12.1116 18.1488 9.55561 17.8083C8.78341 17.7063 8.01751 17.5563 7.26361 17.3604C6.70471 17.211 6.14551 17.0541 5.61121 16.83C5.20021 16.6524 4.78441 16.4409 4.48861 16.0953C4.28581 15.8631 4.19041 15.5421 4.24291 15.2373C4.31731 14.7783 4.57711 14.3811 4.81501 13.9917C5.23891 13.3278 5.61961 12.6381 6.02191 11.9613C6.30901 11.4885 6.49561 10.9566 6.57301 10.4091C6.64681 9.91261 6.60181 9.40951 6.62101 8.91001C6.66181 7.84411 6.94741 6.78451 7.47361 5.8551C7.95481 5.0025 8.64031 4.2585 9.47941 3.7494C10.1109 3.3648 10.8282 3.1188 11.5653 3.0507Z" fill="#4B4B4B"/>
<path opacity="0.3" d="M15.3795 19.5339C15.9942 19.4544 16.6068 19.3545 17.2146 19.2318C16.8948 20.1024 16.3329 20.8791 15.6171 21.4671C14.7642 22.1727 13.6965 22.6092 12.5964 22.7196C11.43 22.8411 10.2261 22.6023 9.2025 22.0275C8.1129 21.4233 7.2381 20.4351 6.7962 19.2675L6.8262 19.2441C7.422 19.3536 8.0187 19.4586 8.6199 19.5339C9.132 20.268 9.9021 20.8119 10.7583 21.0681C11.8533 21.3996 13.0833 21.2769 14.0799 20.7099C14.5932 20.4207 15.0417 20.0169 15.3795 19.5339Z" fill="#4B4B4B"/>
</svg>
