<svg width="24" height="24" viewBox="0 0 24 24" fill="none" xmlns="http://www.w3.org/2000/svg">
<path d="M10.9771 1.32113C12.1534 1.15553 13.3705 1.27853 14.4871 1.68563C15.6421 2.10323 16.6843 2.81993 17.5018 3.73523C18.5977 4.95473 19.2868 6.52763 19.4548 8.15753C19.5124 8.66633 19.4986 9.17903 19.4998 9.68993C19.4947 10.2983 19.6453 10.9076 19.9342 11.4434C20.0227 11.6105 20.1307 11.7665 20.2318 11.9267C20.5675 12.4511 20.9068 12.9734 21.2401 13.4996C21.8584 14.5115 21.9127 15.8309 21.4003 16.8977C21.0004 17.7599 20.2306 18.4445 19.3186 18.7193C18.6259 18.92 17.9239 19.0895 17.2168 19.2311C16.6111 19.3532 16.0012 19.454 15.3883 19.5317C15.3727 19.5485 15.3568 19.565 15.3406 19.5812C15.3289 19.5725 15.3055 19.5545 15.2938 19.5455C13.1575 19.8104 10.9891 19.8194 8.8519 19.5617C8.7907 19.556 8.728 19.535 8.6677 19.556C8.6656 19.5623 8.6611 19.5746 8.6587 19.5809C8.6425 19.5644 8.62691 19.5476 8.61191 19.5308C8.00861 19.4576 7.4104 19.3511 6.8131 19.2413C6.154 19.1009 5.4964 18.9512 4.8478 18.7673C4.3465 18.6371 3.8731 18.3962 3.4801 18.0572C2.7025 17.3948 2.2528 16.379 2.2516 15.3605C2.2468 14.8277 2.3656 14.2946 2.5924 13.8128C2.7184 13.5395 2.8933 13.2938 3.0529 13.04C3.3466 12.584 3.6394 12.1271 3.9328 11.6708C4.3129 11.0756 4.5115 10.3673 4.5001 9.66143C4.5022 9.22103 4.4899 8.78003 4.5283 8.34083C4.6282 7.10303 5.0245 5.89043 5.6776 4.83413C6.2041 3.98123 6.8962 3.23003 7.7092 2.64323C8.6698 1.94633 9.80112 1.48433 10.9771 1.32113ZM11.3863 2.78243C10.7401 2.85083 10.1065 3.03023 9.5197 3.30893C8.5591 3.76343 7.7284 4.48163 7.1263 5.35613C6.4885 6.27683 6.1066 7.36973 6.0214 8.48603C5.9899 8.87603 6.0028 9.26783 6.0001 9.65873C6.0118 10.5866 5.7658 11.5166 5.2957 12.317C4.9123 12.9308 4.5148 13.5359 4.1254 14.1458C3.6811 14.7722 3.6256 15.644 3.9898 16.3202C4.2148 16.7591 4.6081 17.1122 5.0767 17.2706C9.49121 18.554 14.2612 18.5729 18.6889 17.3393C18.9283 17.2805 19.162 17.1902 19.3657 17.0495C19.8658 16.7135 20.1865 16.1393 20.2414 15.5423C20.287 15.089 20.176 14.6222 19.933 14.2373C19.6942 13.8656 19.456 13.4936 19.2169 13.1222C18.9583 12.707 18.6664 12.3095 18.4672 11.8607C18.1768 11.228 18.0181 10.5362 18.001 9.84083C17.9968 9.47033 18.0061 9.09983 17.9935 8.72933C17.9479 7.57223 17.5861 6.42743 16.9453 5.46173C16.3093 4.49603 15.3979 3.71033 14.3383 3.24413C13.4176 2.83433 12.3883 2.67473 11.3863 2.78243Z" fill="#4B4B4B"/>
<path opacity="0.5" d="M15.3882 19.5318C16.0011 19.4541 16.611 19.3533 17.2167 19.2312C16.8492 20.2215 16.1739 21.0909 15.3126 21.7008C14.3469 22.3929 13.1571 22.7595 11.9706 22.7496C10.7529 22.7475 9.53639 22.3482 8.56529 21.6111C7.78829 21.0252 7.16789 20.2263 6.81839 19.3164C6.81689 19.2975 6.81419 19.2603 6.81299 19.2414C7.41029 19.3512 8.00849 19.4577 8.61179 19.5309C8.62679 19.5477 8.64239 19.5645 8.65859 19.581C9.18509 20.3292 9.99299 20.8617 10.872 21.1014C12.0015 21.4086 13.2597 21.2391 14.2503 20.6079C14.6736 20.3391 15.054 19.9944 15.3405 19.5813C15.3567 19.5651 15.3726 19.5486 15.3882 19.5318Z" fill="#4B4B4B"/>
</svg>
