<svg width="24" height="24" viewBox="0 0 24 24" fill="none" xmlns="http://www.w3.org/2000/svg">
<path d="M9.89925 1.55788C11.2147 1.16128 12.6427 1.14748 13.9657 1.51858C15.0181 1.81108 15.9994 2.34808 16.8223 3.06508C17.6722 3.80368 18.3547 4.73218 18.8125 5.76058C19.2664 6.77608 19.4995 7.88848 19.4995 9.00028C19.5091 9.43138 19.4728 9.86608 19.5457 10.2933C19.6243 10.7889 19.807 11.268 20.0794 11.6895C20.4475 12.2628 20.8156 12.8358 21.184 13.4091C21.4732 13.8603 21.6598 14.3772 21.7234 14.9094C21.8482 15.9231 21.5236 16.9863 20.8381 17.7459C20.4325 18.2007 19.9003 18.5409 19.3177 18.7197C18.6247 18.9207 17.9221 19.0899 17.2147 19.2318C16.6069 19.3545 15.9943 19.4544 15.3796 19.5339C15.241 19.5516 15.1024 19.5672 14.9641 19.5843C14.6725 20.0397 14.2345 20.3877 13.7488 20.6181C12.8053 21.0639 11.6905 21.1155 10.7002 20.7978C10.0387 20.5818 9.41595 20.1786 9.03675 19.5843C8.89785 19.5675 8.75895 19.5516 8.62005 19.5339C8.01885 19.4586 7.42215 19.3536 6.82635 19.2441C6.11985 19.0941 5.41545 18.933 4.72155 18.7314C4.23975 18.5895 3.79035 18.3393 3.41775 18.0024C2.68485 17.346 2.26155 16.371 2.25195 15.3903C2.24055 14.7075 2.43105 14.0229 2.79405 13.4445C3.09045 12.9813 3.38835 12.5193 3.68505 12.0564C3.83985 11.8098 4.01025 11.5716 4.13565 11.3079C4.36125 10.8423 4.48635 10.3281 4.49925 9.81088C4.50495 9.32638 4.48635 8.84068 4.52685 8.35738C4.61415 7.25398 4.93545 6.16978 5.46585 5.19868C5.92485 4.35658 6.53985 3.59968 7.27425 2.98258C8.04075 2.33698 8.93865 1.84588 9.89925 1.55788ZM11.3857 2.78248C10.747 2.85058 10.1203 3.02638 9.53955 3.29998C8.54325 3.76648 7.68585 4.51648 7.07595 5.43058C6.46215 6.34378 6.09795 7.42018 6.01905 8.51728C5.99115 8.88778 6.00255 9.26008 6.00015 9.63148C6.01395 10.4718 5.81955 11.3157 5.43435 12.0633C5.30475 12.3246 5.14005 12.5655 4.98345 12.8106C4.68195 13.2801 4.38045 13.7493 4.07895 14.2188C3.91935 14.4684 3.81225 14.7516 3.77025 15.0453C3.65055 15.8328 4.02165 16.6833 4.70895 17.0979C4.97085 17.2662 5.27925 17.3292 5.57505 17.4111C7.15695 17.8308 8.77965 18.0957 10.4128 18.1995C13.2157 18.3792 16.048 18.0795 18.7525 17.322C19.0249 17.2533 19.2838 17.1282 19.501 16.9494C19.9099 16.6179 20.1727 16.1196 20.2354 15.5988C20.2933 15.1425 20.1931 14.6685 19.9558 14.2749C19.531 13.6005 19.087 12.9384 18.6709 12.2586C18.3454 11.6892 18.1342 11.0556 18.046 10.4058C17.9623 9.81988 18.0229 9.22678 17.989 8.63788C17.929 7.51258 17.5693 6.40318 16.9462 5.46298C16.3048 4.48918 15.3835 3.69808 14.3125 3.23278C13.3981 2.83138 12.3784 2.67598 11.3857 2.78248Z" fill="#4B4B4B"/>
<path opacity="0.3" d="M11.5652 3.05077C12.4088 2.97007 13.2721 3.12097 14.0404 3.47827C15.0535 3.94507 15.893 4.74878 16.4651 5.70099C17.1005 6.75189 17.4185 7.98368 17.4134 9.20948C17.4176 9.57068 17.3974 9.93338 17.4409 10.2931C17.5055 10.8598 17.6845 11.4148 17.9749 11.9065C18.2926 12.4483 18.608 12.9916 18.9269 13.5328C19.1861 13.969 19.484 14.3887 19.6637 14.8669C19.7741 15.1606 19.8191 15.4975 19.6952 15.7945C19.5545 16.1395 19.2494 16.3819 18.9383 16.5676C18.4031 16.8811 17.806 17.0662 17.2135 17.2381C14.7355 17.9491 12.1114 18.1489 9.55543 17.8084C8.78323 17.7064 8.01733 17.5564 7.26343 17.3605C6.70453 17.2111 6.14533 17.0542 5.61103 16.8301C5.20003 16.6525 4.78423 16.441 4.48843 16.0954C4.28563 15.8632 4.19023 15.5422 4.24273 15.2374C4.31713 14.7784 4.57693 14.3812 4.81483 13.9918C5.23873 13.3279 5.61943 12.6382 6.02173 11.9614C6.30883 11.4886 6.49543 10.9567 6.57283 10.4092C6.64663 9.91268 6.60163 9.40958 6.62083 8.91009C6.66163 7.84419 6.94723 6.78459 7.47343 5.85518C7.95463 5.00258 8.64013 4.25857 9.47923 3.74947C10.1108 3.36487 10.8281 3.11887 11.5652 3.05077Z" fill="#4B4B4B"/>
<path opacity="0.3" d="M15.3792 19.5338C15.9939 19.4543 16.6065 19.3544 17.2143 19.2317C16.8945 20.1023 16.3326 20.879 15.6168 21.467C14.7639 22.1726 13.6962 22.6091 12.5961 22.7195C11.4297 22.841 10.2258 22.6022 9.2022 22.0274C8.1126 21.4232 7.2378 20.435 6.7959 19.2674L6.8259 19.244C7.4217 19.3535 8.0184 19.4585 8.6196 19.5338C9.1317 20.2679 9.9018 20.8118 10.758 21.068C11.853 21.3995 13.083 21.2768 14.0796 20.7098C14.5929 20.4206 15.0414 20.0168 15.3792 19.5338Z" fill="#4B4B4B"/>
</svg>
