<svg width="24" height="24" viewBox="0 0 24 24" fill="none" xmlns="http://www.w3.org/2000/svg">
<path d="M10.977 1.32119C12.1533 1.15559 13.3704 1.27859 14.487 1.68569C15.642 2.10329 16.6842 2.81999 17.5017 3.73529C18.5976 4.95479 19.2867 6.52769 19.4547 8.15759C19.5123 8.66639 19.4985 9.17909 19.4997 9.68999C19.4946 10.2984 19.6452 10.9077 19.9341 11.4435C20.0226 11.6106 20.1306 11.7666 20.2317 11.9268C20.5674 12.4512 20.9067 12.9735 21.24 13.4997C21.8583 14.5116 21.9126 15.831 21.4002 16.8978C21.0003 17.76 20.2305 18.4446 19.3185 18.7194C18.6258 18.9201 17.9238 19.0896 17.2167 19.2312C16.611 19.3533 16.0011 19.4541 15.3882 19.5318C15.3726 19.5486 15.3567 19.5651 15.3405 19.5813C15.3288 19.5726 15.3054 19.5546 15.2937 19.5456C13.1574 19.8105 10.989 19.8195 8.85181 19.5618C8.79061 19.5561 8.72791 19.5351 8.66761 19.5561C8.66551 19.5624 8.66101 19.5747 8.65861 19.581C8.64241 19.5645 8.62681 19.5477 8.61181 19.5309C8.00851 19.4577 7.41031 19.3512 6.81301 19.2414C6.15391 19.101 5.49631 18.9513 4.84771 18.7674C4.34641 18.6372 3.87301 18.3963 3.48001 18.0573C2.70241 17.3949 2.25271 16.3791 2.25151 15.3606C2.24671 14.8278 2.36551 14.2947 2.59231 13.8129C2.71831 13.5396 2.89321 13.2939 3.05281 13.0401C3.34651 12.5841 3.63931 12.1272 3.93271 11.6709C4.31281 11.0757 4.51141 10.3674 4.50001 9.66149C4.50211 9.22109 4.48981 8.78009 4.52821 8.34089C4.62811 7.10309 5.02441 5.89049 5.67751 4.83419C6.20401 3.98129 6.89611 3.23009 7.70911 2.64329C8.66971 1.94639 9.80101 1.48439 10.977 1.32119ZM11.3862 2.78249C10.74 2.85089 10.1064 3.03029 9.51961 3.30899C8.55901 3.76349 7.72831 4.48169 7.12621 5.35619C6.48841 6.27689 6.10651 7.36979 6.02131 8.48609C5.98981 8.87609 6.00271 9.26789 6.00001 9.65879C6.01171 10.5867 5.76571 11.5167 5.29561 12.3171C4.91221 12.9309 4.51471 13.536 4.12531 14.1459C3.68101 14.7723 3.62551 15.6441 3.98971 16.3203C4.21471 16.7592 4.60801 17.1123 5.07661 17.2707C9.49111 18.5541 14.2611 18.573 18.6888 17.3394C18.9282 17.2806 19.1619 17.1903 19.3656 17.0496C19.8657 16.7136 20.1864 16.1394 20.2413 15.5424C20.2869 15.0891 20.1759 14.6223 19.9329 14.2374C19.6941 13.8657 19.4559 13.4937 19.2168 13.1223C18.9582 12.7071 18.6663 12.3096 18.4671 11.8608C18.1767 11.2281 18.018 10.5363 18.0009 9.84089C17.9967 9.47039 18.006 9.09989 17.9934 8.72939C17.9478 7.57229 17.586 6.42749 16.9452 5.46179C16.3092 4.49609 15.3978 3.71039 14.3382 3.24419C13.4175 2.83439 12.3882 2.67479 11.3862 2.78249Z" fill="#4B4B4B"/>
<path opacity="0.5" d="M15.3882 19.5318C16.0011 19.4541 16.611 19.3533 17.2167 19.2312C16.8492 20.2215 16.1739 21.0909 15.3126 21.7008C14.3469 22.3929 13.1571 22.7595 11.9706 22.7496C10.7529 22.7475 9.53639 22.3482 8.56529 21.6111C7.78829 21.0252 7.16789 20.2263 6.81839 19.3164C6.81689 19.2975 6.81419 19.2603 6.81299 19.2414C7.41029 19.3512 8.00849 19.4577 8.61179 19.5309C8.62679 19.5477 8.64239 19.5645 8.65859 19.581C9.18509 20.3292 9.99299 20.8617 10.872 21.1014C12.0015 21.4086 13.2597 21.2391 14.2503 20.6079C14.6736 20.3391 15.054 19.9944 15.3405 19.5813C15.3567 19.5651 15.3726 19.5486 15.3882 19.5318Z" fill="#4B4B4B"/>
</svg>
