<svg width="24" height="24" viewBox="0 0 24 24" fill="none" xmlns="http://www.w3.org/2000/svg">
<path d="M9.00486 1.26916C10.3893 1.24127 11.7742 1.25071 13.1588 1.25004C14.3064 1.25521 15.4554 1.25904 16.6007 1.34024C17.4867 1.40682 18.379 1.51861 19.2229 1.80876C19.8991 2.03999 20.534 2.40798 21.041 2.91497C21.4965 3.36168 21.8474 3.90983 22.0836 4.5014C22.367 5.207 22.5053 5.96119 22.5906 6.71381C22.6925 7.64322 22.7179 8.5787 22.7325 9.51306C22.7483 10.8255 22.7433 12.1382 22.7413 13.4507C22.7345 14.5981 22.7267 15.7472 22.629 16.8912C22.5505 17.764 22.4181 18.6432 22.0946 19.4626C21.8184 20.1714 21.3728 20.8162 20.79 21.3077C20.2205 21.7956 19.5257 22.1184 18.8052 22.3125C17.903 22.5568 16.9667 22.6373 16.0363 22.6863C14.7857 22.7468 13.5331 22.7403 12.2811 22.743C10.939 22.7405 9.59642 22.7515 8.25494 22.7C7.43395 22.6652 6.61116 22.6085 5.80276 22.4546C5.13494 22.3264 4.47432 22.1235 3.88208 21.7839C3.15331 21.3689 2.546 20.7449 2.15058 20.0058C1.76437 19.2908 1.57026 18.4905 1.45487 17.6913C1.32104 16.7412 1.28662 15.7807 1.26615 14.8225C1.24501 13.6601 1.25063 12.4974 1.24951 11.3348C1.25176 10.4285 1.25221 9.52183 1.27987 8.61581C1.31271 7.63624 1.36602 6.65218 1.56059 5.68948C1.72208 4.89503 2.00212 4.11002 2.48685 3.453C2.80535 3.01934 3.20212 2.6428 3.65288 2.3486C4.35106 1.89064 5.16576 1.64569 5.9827 1.50488C6.98049 1.33506 7.9947 1.2948 9.00486 1.26916ZM9.74735 2.75684C9.32538 2.76157 8.90319 2.76921 8.48122 2.78428C7.64876 2.816 6.81247 2.86436 5.99395 3.02856C5.51642 3.12663 5.04227 3.27058 4.61806 3.51508C4.3108 3.69098 4.03661 3.9231 3.80988 4.19459C3.37442 4.71283 3.15241 5.37165 3.02218 6.02665C2.84471 6.93784 2.80332 7.8686 2.77476 8.79441C2.75519 9.51396 2.75204 10.234 2.75001 10.9538C2.75024 12.2511 2.74282 13.5485 2.76643 14.8455C2.78803 15.7787 2.81952 16.7153 2.96347 17.6391C3.07661 18.3357 3.26128 19.0447 3.67762 19.6266C3.9273 19.9746 4.25209 20.2683 4.62413 20.4807C4.94488 20.6653 5.29622 20.7917 5.65363 20.8849C6.45191 21.0882 7.27785 21.1503 8.09794 21.1923C9.52917 21.2555 10.9619 21.2396 12.3941 21.2436C13.6462 21.2393 14.8996 21.2474 16.1502 21.1788C16.9752 21.1276 17.8083 21.0538 18.6021 20.8095C18.9474 20.7013 19.2825 20.5529 19.5812 20.347C19.9333 20.1046 20.2322 19.7856 20.4515 19.4188C20.6377 19.1084 20.7677 18.7671 20.8638 18.4189C20.9904 17.9574 21.0613 17.4826 21.1117 17.0073C21.2147 15.9899 21.2279 14.9665 21.2387 13.9451C21.2459 12.6333 21.2462 11.3213 21.2383 10.0095C21.228 9.02653 21.214 8.04179 21.1195 7.06245C21.0417 6.31748 20.9272 5.56082 20.6112 4.87478C20.3372 4.27444 19.8629 3.76768 19.2776 3.4611C18.9082 3.26429 18.505 3.13922 18.0976 3.04925C17.5683 2.93431 17.0287 2.87538 16.4894 2.83534C15.4632 2.76269 14.4337 2.75662 13.4056 2.75055C12.1862 2.74852 10.9667 2.74537 9.74735 2.75684Z" fill="#4B4B4B"/>
<path opacity="0.6" d="M9.58988 5.02693C9.96574 4.93111 10.3829 5.18034 10.479 5.55529C10.5827 5.89561 10.4016 6.28924 10.0786 6.43589C9.7678 6.5902 9.35955 6.48898 9.15689 6.20737C8.93669 5.92575 8.96458 5.48849 9.2183 5.23702C9.31839 5.13288 9.4493 5.0591 9.58988 5.02693Z" fill="#4B4B4B"/>
<path opacity="0.6" d="M14.0887 5.02711C14.4645 4.93151 14.8816 5.18051 14.9776 5.55546C15.0833 5.90163 14.8937 6.30156 14.5619 6.44326C14.2425 6.59329 13.8296 6.47588 13.6363 6.18077C13.429 5.88994 13.4757 5.45515 13.7396 5.21447C13.8363 5.12248 13.9582 5.0568 14.0887 5.02711Z" fill="#4B4B4B"/>
<path opacity="0.6" d="M9.56725 8.01759C9.90059 7.98115 10.2441 8.04211 10.5435 8.19394C10.8811 8.36308 11.1607 8.64515 11.3269 8.98456C11.5005 9.33366 11.5496 9.7419 11.4679 10.1229C11.3966 10.4619 11.2203 10.7775 10.9704 11.017C10.7052 11.2741 10.3563 11.443 9.99012 11.491C9.59424 11.5447 9.18059 11.4588 8.84095 11.2478C8.51728 11.0496 8.26153 10.7431 8.125 10.389C7.99477 10.0548 7.97227 9.68027 8.05932 9.33253C8.14997 8.96567 8.36455 8.63097 8.65943 8.39457C8.91743 8.18516 9.23683 8.05268 9.56725 8.01759ZM9.56657 9.03157C9.36481 9.08353 9.18914 9.22434 9.09265 9.40856C8.93025 9.70614 9.00605 10.1074 9.26674 10.3245C9.52024 10.5512 9.92984 10.5676 10.2004 10.3616C10.4827 10.1623 10.588 9.75832 10.4395 9.44635C10.2985 9.12087 9.90824 8.93463 9.56657 9.03157Z" fill="#4B4B4B"/>
<path opacity="0.6" d="M14.0653 8.01764C14.4095 7.97985 14.7646 8.04643 15.0705 8.20883C15.4052 8.38427 15.6794 8.67128 15.8393 9.01363C16.0377 9.43155 16.0584 9.92931 15.8972 10.3628C15.6925 10.93 15.1745 11.3698 14.5804 11.4764C14.1679 11.5547 13.7279 11.4795 13.3669 11.2645C13.0304 11.0666 12.7634 10.753 12.6233 10.3884C12.4935 10.0548 12.471 9.68099 12.5574 9.3337C12.6444 8.98056 12.8464 8.65711 13.1242 8.42229C13.3881 8.19736 13.7205 8.05408 14.0653 8.01764ZM14.0669 9.03117C13.7351 9.1117 13.4873 9.44144 13.5059 9.78334C13.5111 10.1347 13.7965 10.4536 14.145 10.4986C14.4695 10.5533 14.8123 10.3625 14.9412 10.0607C15.0712 9.77726 14.9979 9.4185 14.7673 9.20886C14.584 9.03522 14.3107 8.96594 14.0669 9.03117Z" fill="#4B4B4B"/>
<path opacity="0.6" d="M5.56408 9.03225C5.92666 8.92631 6.34144 9.14404 6.46312 9.50056C6.59066 9.83098 6.4422 10.235 6.13315 10.4066C5.83242 10.5876 5.41135 10.5154 5.18822 10.2442C4.95159 9.97898 4.94957 9.54442 5.1826 9.2763C5.28089 9.15866 5.41585 9.07161 5.56408 9.03225Z" fill="#4B4B4B"/>
<path opacity="0.6" d="M18.0894 9.02509C18.2765 8.98303 18.4794 9.01519 18.6429 9.11574C18.8584 9.24485 19.0005 9.48777 19.0037 9.73947C19.0188 10.0836 18.7637 10.4127 18.4279 10.4865C18.0968 10.5719 17.7252 10.3954 17.5803 10.0863C17.4278 9.78738 17.5117 9.39353 17.7724 9.18232C17.8635 9.10562 17.9733 9.05141 18.0894 9.02509Z" fill="#4B4B4B"/>
<path opacity="0.6" d="M9.56635 12.5161C9.89407 12.4804 10.2319 12.5384 10.5277 12.6846C10.8723 12.8531 11.1582 13.1385 11.3269 13.4831C11.5005 13.8327 11.5496 14.2411 11.4677 14.6224C11.3962 14.9607 11.2205 15.2756 10.9711 15.5149C10.7054 15.7727 10.3559 15.9421 9.98877 15.9897C9.60346 16.0417 9.20129 15.9614 8.86704 15.7621C8.53122 15.5644 8.26513 15.2513 8.125 14.8874C7.99477 14.5531 7.97227 14.1786 8.05932 13.8306C8.14772 13.4734 8.35353 13.1469 8.63649 12.9118C8.89831 12.692 9.22648 12.5524 9.56635 12.5161ZM9.56702 13.5299C9.35964 13.5832 9.17969 13.7303 9.08477 13.9222C8.92687 14.2276 9.01707 14.6336 9.29036 14.8426C9.55803 15.0633 9.97887 15.0576 10.2398 14.8291C10.5088 14.6114 10.5862 14.2002 10.4166 13.899C10.2614 13.6003 9.89137 13.439 9.56702 13.5299Z" fill="#4B4B4B"/>
<path opacity="0.6" d="M14.0663 12.5164C14.399 12.4799 14.742 12.5409 15.0409 12.692C15.3837 12.8636 15.6667 13.1513 15.8322 13.497C16.0039 13.8502 16.0489 14.262 15.9616 14.6446C15.8874 14.9742 15.7139 15.2803 15.4703 15.5142C15.2047 15.7727 14.8547 15.9423 14.4872 15.9899C14.1176 16.0397 13.7323 15.9681 13.4066 15.7859C13.096 15.6139 12.8405 15.3448 12.6844 15.0261C12.5238 14.7011 12.4698 14.3252 12.5296 13.9678C12.5944 13.5679 12.8058 13.1945 13.1131 12.9307C13.3789 12.6999 13.7161 12.5532 14.0663 12.5164ZM14.0668 13.5299C13.8913 13.5749 13.735 13.6864 13.6338 13.8362C13.4421 14.1102 13.4696 14.5106 13.6968 14.756C13.9233 15.0182 14.3385 15.0837 14.6343 14.9029C14.9433 14.7297 15.0889 14.323 14.9579 13.9932C14.8351 13.6415 14.4258 13.4278 14.0668 13.5299Z" fill="#4B4B4B"/>
<path opacity="0.6" d="M5.56527 13.5307C5.87792 13.4425 6.23511 13.5869 6.39931 13.8669C6.55428 14.1157 6.54169 14.4553 6.36804 14.6915C6.18607 14.954 5.82731 15.0725 5.52501 14.9684C5.21753 14.8726 4.99552 14.5611 5.00834 14.2385C5.01037 13.9133 5.25014 13.6096 5.56527 13.5307Z" fill="#4B4B4B"/>
<path opacity="0.6" d="M18.0893 13.5238C18.2816 13.4802 18.4908 13.5157 18.6568 13.6228C18.8642 13.7533 19 13.9906 19.0036 14.236C19.0207 14.592 18.7474 14.931 18.3968 14.9917C18.061 15.0635 17.6959 14.8689 17.5657 14.5522C17.4253 14.2418 17.5337 13.8459 17.8122 13.6498C17.8945 13.5895 17.9894 13.5463 18.0893 13.5238Z" fill="#4B4B4B"/>
<path opacity="0.6" d="M9.67844 17.5081C10.035 17.4634 10.3962 17.7135 10.4815 18.0619C10.5775 18.3971 10.401 18.7808 10.0858 18.9281C9.90405 19.0179 9.68519 19.0284 9.49558 18.9571C9.28392 18.88 9.11252 18.7014 9.04392 18.487C8.97216 18.272 9.0059 18.0248 9.13344 17.8372C9.25445 17.6539 9.45981 17.53 9.67844 17.5081Z" fill="#4B4B4B"/>
<path opacity="0.6" d="M14.1781 17.5083C14.5346 17.4639 14.8956 17.7143 14.9804 18.0627C15.0781 18.4035 14.8929 18.7933 14.5693 18.9357C14.305 19.0607 13.9696 19.0108 13.7546 18.8122C13.5359 18.621 13.4493 18.2969 13.5425 18.0218C13.6293 17.7453 13.8895 17.5348 14.1781 17.5083Z" fill="#4B4B4B"/>
</svg>
