<svg width="24" height="24" viewBox="0 0 24 24" fill="none" xmlns="http://www.w3.org/2000/svg">
<path d="M9.0398 1.2707C10.2863 1.2455 11.5334 1.2512 12.7802 1.25C13.8815 1.2563 14.9834 1.2536 16.0838 1.3097C16.7156 1.3424 17.3474 1.3943 17.972 1.4987C18.6515 1.6139 19.3274 1.7948 19.9412 2.1146C20.8283 2.5646 21.5507 3.3224 21.9698 4.2233C22.4729 5.3027 22.604 6.5063 22.6802 7.6811C22.7747 9.3896 22.7462 11.1011 22.7534 12.8111C22.7414 14.3138 22.7588 15.8213 22.5956 17.3177C22.4762 18.368 22.2422 19.4387 21.6596 20.3375C21.1496 21.1292 20.3807 21.7427 19.5068 22.0886C18.4394 22.514 17.2808 22.6238 16.1435 22.6898C14.5343 22.7693 12.9224 22.7468 11.3117 22.7525C9.8099 22.7417 8.3039 22.76 6.8075 22.6082C6.1214 22.5356 5.4353 22.4195 4.7813 22.1945C4.2086 21.9968 3.6623 21.7088 3.2018 21.3119C2.8199 20.9903 2.4962 20.6009 2.2421 20.171C1.7093 19.2689 1.5047 18.2192 1.394 17.1896C1.3016 16.2935 1.2767 15.3923 1.2626 14.4923C1.2461 12.7919 1.2449 11.0912 1.2644 9.3908C1.2803 8.48 1.3079 7.568 1.4108 6.6623C1.4996 5.9021 1.6445 5.1407 1.9418 4.4324C2.2661 3.6458 2.8073 2.9465 3.5036 2.4548C3.9764 2.1158 4.5149 1.8767 5.072 1.7159C5.6603 1.5425 6.2687 1.4498 6.8777 1.3868C7.5962 1.3154 8.318 1.2866 9.0398 1.2707ZM8.8922 2.7743C7.8416 2.807 6.7811 2.8448 5.7536 3.0854C5.2778 3.2018 4.8083 3.3731 4.4042 3.6548C4.0301 3.9167 3.7145 4.2635 3.4943 4.6637C3.3053 5.0018 3.1793 5.3717 3.0875 5.747C2.9123 6.4784 2.8505 7.2308 2.8091 7.9796C2.7509 9.11 2.7575 10.2422 2.7506 11.3735C2.7509 12.4832 2.7494 13.5929 2.7662 14.7026C2.7809 15.4739 2.8046 16.2461 2.8838 17.0141C2.9516 17.6498 3.0536 18.2891 3.284 18.8888C3.4457 19.31 3.686 19.7051 4.0118 20.0198C4.3829 20.3936 4.8599 20.6477 5.3588 20.8061C6.0032 21.0119 6.6788 21.0956 7.3505 21.1529C8.8178 21.2648 10.2905 21.2441 11.7608 21.2528C13.3118 21.2456 14.8649 21.269 16.4141 21.1712C17.1587 21.1157 17.9099 21.038 18.6254 20.8121C19.1312 20.654 19.616 20.3999 19.9916 20.0207C20.3129 19.7099 20.5505 19.3211 20.7134 18.9068C20.9585 18.2768 21.059 17.6027 21.1283 16.9337C21.2588 15.5438 21.2423 14.1464 21.2534 12.752C21.2483 11.2016 21.2678 9.6503 21.2009 8.1008C21.1658 7.3862 21.1106 6.6701 20.9669 5.9681C20.8574 5.4527 20.6954 4.94 20.4089 4.4936C20.1251 4.055 19.7267 3.6899 19.2614 3.4517C18.7046 3.1616 18.0827 3.0278 17.4659 2.9384C16.6991 2.8316 15.9245 2.7968 15.1511 2.7752C14.3015 2.7527 13.4519 2.7545 12.602 2.75C11.3654 2.7512 10.1285 2.7461 8.8922 2.7743Z" fill="#4B4B4B"/>
<path opacity="0.5" d="M7.6038 5.86184C7.8804 5.68574 8.2716 5.71994 8.5089 5.94794C8.664 6.08984 8.7546 6.29984 8.7495 6.51044C8.7495 6.92354 8.7483 7.33694 8.7498 7.75004C9.1734 7.75184 9.597 7.74944 10.0206 7.75094C10.2564 7.75154 10.4841 7.87934 10.6167 8.07254C10.7595 8.27414 10.7907 8.54834 10.6965 8.77664C10.5915 9.05174 10.3134 9.24614 10.0188 9.24944C9.5961 9.25274 9.1734 9.25034 8.7504 9.25034C8.7474 9.60704 8.7498 9.96344 8.7492 10.3198C8.748 10.4395 8.7576 10.5616 8.7291 10.6789C8.6757 10.9021 8.5125 11.095 8.3022 11.1862C8.0361 11.3071 7.6998 11.2516 7.4895 11.0476C7.3359 10.9096 7.2492 10.7047 7.2498 10.4989C7.2474 10.0831 7.2504 9.66734 7.2486 9.25124C6.8325 9.24944 6.4164 9.25244 6.0003 9.25034C5.8014 9.25004 5.6049 9.16754 5.466 9.02504C5.2629 8.82464 5.1945 8.50244 5.2974 8.23634C5.4 7.94864 5.6955 7.74404 6.0009 7.75034C6.4167 7.75094 6.8325 7.75034 7.248 7.75094C7.2507 7.33724 7.2474 6.92354 7.2495 6.51014C7.2465 6.25214 7.3827 5.99654 7.6038 5.86184Z" fill="#4B4B4B"/>
<path opacity="0.5" d="M13.8727 7.76007C13.9678 7.74627 14.0641 7.75077 14.1601 7.75047C15.4504 7.75137 16.7404 7.74987 18.0307 7.75137C18.4393 7.75347 18.7888 8.14587 18.7483 8.55207C18.7309 8.93337 18.382 9.25857 18.0001 9.25017C16.7302 9.25227 15.46 9.25017 14.1898 9.25137C14.0896 9.25107 13.9888 9.25467 13.8895 9.24087C13.6234 9.20247 13.3834 9.01167 13.2949 8.75637C13.2127 8.53107 13.2439 8.26587 13.3846 8.07027C13.4968 7.90677 13.6777 7.79397 13.8727 7.76007Z" fill="#4B4B4B"/>
<path opacity="0.5" d="M5.79899 14.2297C5.89949 13.963 6.16319 13.7674 6.44789 13.7521C6.66119 13.7356 6.87959 13.8172 7.02929 13.9702C7.35149 14.2933 7.67549 14.6152 7.99679 14.9392C8.32169 14.6197 8.64179 14.2954 8.96429 13.9738C9.10709 13.8298 9.30869 13.7446 9.51209 13.7506C9.73319 13.7515 9.94979 13.8598 10.0866 14.0335C10.2864 14.2726 10.3035 14.6413 10.1334 14.9011C10.0671 15.0031 9.97589 15.0847 9.89069 15.1705C9.61379 15.4474 9.33689 15.724 9.06029 16.0009C9.38729 16.3297 9.71669 16.6564 10.0434 16.9852C10.2306 17.1721 10.2948 17.4634 10.2189 17.7148C10.1394 17.9917 9.88619 18.2077 9.59999 18.2431C9.37199 18.2755 9.13109 18.193 8.96909 18.0295C8.64659 17.7064 8.32379 17.3836 8.00099 17.0611C7.67999 17.3797 7.36139 17.7004 7.04129 18.0199C6.93059 18.1315 6.78749 18.2116 6.63209 18.238C6.33809 18.2947 6.01919 18.1519 5.86289 17.8972C5.68589 17.6206 5.71949 17.2273 5.94959 16.9906C6.27689 16.6576 6.61079 16.3315 6.93809 15.9988C6.61139 15.6697 6.28229 15.3433 5.95529 15.0148C5.75609 14.8129 5.69729 14.4928 5.79899 14.2297Z" fill="#4B4B4B"/>
<path opacity="0.5" d="M13.8764 13.7605C14.2694 13.7395 14.6642 13.7575 15.0581 13.7515C16.0394 13.7515 17.0207 13.7515 18.002 13.7515C18.2693 13.7464 18.5291 13.9027 18.6563 14.1367C18.7688 14.3344 18.7796 14.5837 18.6914 14.7925C18.5783 15.0646 18.2957 15.2548 17.9999 15.2509C16.6805 15.253 15.3614 15.2509 14.042 15.2518C13.811 15.2593 13.5764 15.163 13.427 14.9848C13.2704 14.8036 13.2134 14.5441 13.2734 14.3128C13.3415 14.0308 13.5902 13.8052 13.8764 13.7605Z" fill="#4B4B4B"/>
<path opacity="0.5" d="M13.8743 16.7609C14.3093 16.7393 14.7461 16.7576 15.1817 16.7516C16.1312 16.7522 17.081 16.7504 18.0305 16.7525C18.4388 16.754 18.788 17.1455 18.7484 17.5511C18.7319 17.9333 18.3821 18.2597 17.9996 18.251C16.6796 18.2531 15.3596 18.251 14.0396 18.2519C13.8095 18.2591 13.5761 18.1628 13.4276 17.9855C13.2707 17.8046 13.2134 17.5454 13.2731 17.3141C13.3406 17.0321 13.5887 16.8065 13.8743 16.7609Z" fill="#4B4B4B"/>
</svg>
