<svg width="24" height="24" viewBox="0 0 24 24" fill="none" xmlns="http://www.w3.org/2000/svg">
<path d="M8.83462 1.2857C10.0397 1.2434 11.2457 1.2521 12.4514 1.25C13.3622 1.2536 14.2733 1.2521 15.1838 1.2863C15.9344 1.3172 16.6871 1.3667 17.4266 1.5065C18.0017 1.6175 18.5717 1.7846 19.0892 2.0639C19.9337 2.5067 20.6018 3.254 20.9933 4.1195C21.2696 4.7234 21.425 5.375 21.5261 6.0293C21.6347 6.7451 21.6803 7.469 21.7091 8.192C21.764 9.7514 21.7469 11.312 21.7502 12.8723C21.743 14.3438 21.7529 15.8186 21.6125 17.285C21.5036 18.3515 21.2966 19.4414 20.7353 20.3711C20.2661 21.1517 19.5455 21.7787 18.7019 22.1237C18.077 22.3865 17.4062 22.5206 16.7357 22.6019C15.3137 22.766 13.8791 22.7417 12.4502 22.7525C10.9295 22.7453 9.40612 22.7741 7.88812 22.6637C7.14592 22.6046 6.40102 22.5035 5.69092 22.2713C5.16412 22.0958 4.65952 21.8408 4.22962 21.4868C3.89482 21.2102 3.59962 20.8847 3.36112 20.5214C3.02902 20.0258 2.80912 19.4636 2.65942 18.8885C2.50042 18.2732 2.41672 17.6414 2.36212 17.0096C2.29942 16.262 2.27692 15.5117 2.26372 14.762C2.24422 13.502 2.25172 12.242 2.25022 10.9823C2.25412 9.8918 2.25652 8.8004 2.31322 7.7111C2.36032 6.8705 2.43502 6.0266 2.63602 5.2067C2.78812 4.5857 3.02422 3.9791 3.38302 3.4469C3.87352 2.7137 4.59532 2.1413 5.42062 1.8293C6.50662 1.4126 7.68352 1.3364 8.83462 1.2857ZM8.86582 2.7854C8.24692 2.81 7.62742 2.8496 7.01572 2.9507C6.53812 3.0335 6.05932 3.1517 5.62912 3.3818C5.06722 3.668 4.63312 4.1684 4.37362 4.7378C4.14352 5.2406 4.02682 5.786 3.94612 6.3302C3.83182 7.1261 3.79732 7.9307 3.77452 8.7335C3.74032 10.172 3.75262 11.6108 3.75022 13.0493C3.75322 13.8809 3.75622 14.7128 3.78262 15.5441C3.80782 16.2851 3.84802 17.0276 3.95902 17.7614C4.04842 18.3203 4.17502 18.8828 4.43602 19.3892C4.66282 19.844 5.00872 20.2427 5.44102 20.513C5.85532 20.7779 6.33502 20.9186 6.81352 21.0149C7.66192 21.1766 8.52772 21.2099 9.38902 21.2333C10.9088 21.2609 12.4289 21.2543 13.9484 21.2447C14.8589 21.2309 15.7718 21.2147 16.6757 21.098C17.2427 21.0197 17.8163 20.9057 18.3296 20.6423C18.7613 20.4296 19.1279 20.0933 19.3895 19.6907C19.6847 19.2515 19.8455 18.7385 19.9571 18.2255C20.0648 17.7068 20.1236 17.1791 20.162 16.6508C20.2271 15.7427 20.2376 14.8316 20.2466 13.9214C20.2511 12.3908 20.2568 10.8602 20.2382 9.3296C20.2244 8.5397 20.2031 7.7492 20.1296 6.9623C20.0681 6.3338 19.9766 5.7029 19.7729 5.1029C19.5917 4.5779 19.2989 4.0802 18.8708 3.7193C18.4934 3.3917 18.0227 3.191 17.5421 3.0689C16.9445 2.9147 16.3277 2.855 15.7133 2.8139C14.6771 2.7512 13.6388 2.7566 12.6011 2.75C11.3561 2.7527 10.1105 2.7419 8.86582 2.7854Z" fill="#4B4B4B"/>
<path opacity="0.5" d="M8.23401 5.27195C8.49831 5.24525 8.76441 5.25155 9.02991 5.25095C10.5692 5.25095 12.1088 5.25095 13.6481 5.25095C14.2886 5.25485 14.9294 5.24285 15.5699 5.25755C16.1171 5.26655 16.6565 5.49125 17.0492 5.87225C17.4404 6.24065 17.6963 6.75545 17.7341 7.29335C17.7545 7.53215 17.7467 7.77185 17.7482 8.01095C17.747 8.34035 17.7605 8.67365 17.6933 8.99825C17.5745 9.53075 17.2535 10.0144 16.8089 10.3303C16.4504 10.5904 16.0118 10.7368 15.5687 10.7443C14.8994 10.7614 14.2298 10.7482 13.5602 10.7524C12.0794 10.7524 10.5986 10.7524 9.11781 10.7524C8.84751 10.7515 8.57691 10.7563 8.30721 10.7368C7.75011 10.702 7.21701 10.4323 6.84141 10.0222C6.51621 9.66935 6.30441 9.20855 6.26631 8.72855C6.24321 8.48015 6.25191 8.23055 6.25041 7.98155C6.25161 7.65215 6.23811 7.31855 6.30801 6.99425C6.50271 6.09245 7.31121 5.35655 8.23401 5.27195ZM8.32431 6.77255C8.01621 6.84005 7.76361 7.12745 7.75671 7.44635C7.74501 7.73405 7.75281 8.02205 7.75071 8.31005C7.75491 8.46965 7.74261 8.63645 7.80621 8.78675C7.91091 9.04835 8.17581 9.24515 8.46111 9.24455C8.92011 9.25745 9.37971 9.25025 9.83871 9.25205C11.6288 9.25115 13.4189 9.25355 15.209 9.25085C15.4097 9.23975 15.6236 9.27305 15.8114 9.18275C16.0553 9.07265 16.2362 8.82215 16.2422 8.55185C16.2536 8.26205 16.2458 7.97195 16.2479 7.68245C16.2431 7.52495 16.256 7.36025 16.1918 7.21265C16.0895 6.96395 15.8444 6.77165 15.5723 6.75935C15.3911 6.75005 15.2096 6.75065 15.0287 6.75095C12.9386 6.75095 10.8485 6.75095 8.75871 6.75095C8.61381 6.75455 8.46771 6.74855 8.32431 6.77255Z" fill="#4B4B4B"/>
<path opacity="0.5" d="M7.81332 12.0184C8.22012 11.9356 8.66442 12.1378 8.86662 12.5005C9.02772 12.772 9.04452 13.1215 8.91522 13.4089C8.83032 13.6021 8.67912 13.7629 8.49822 13.8703C8.17602 14.0581 7.74822 14.0422 7.44102 13.8301C7.10622 13.609 6.93222 13.1758 7.02462 12.7846C7.10532 12.4021 7.42932 12.0883 7.81332 12.0184Z" fill="#4B4B4B"/>
<path opacity="0.5" d="M11.8042 12.0207C12.2473 11.9241 12.7333 12.1749 12.9118 12.5916C13.108 13.0032 12.9673 13.536 12.5995 13.803C12.364 13.9791 12.0496 14.0451 11.764 13.9734C11.5219 13.9164 11.3035 13.7634 11.1673 13.5555C10.99 13.2948 10.9513 12.9474 11.0623 12.6531C11.1784 12.333 11.4691 12.084 11.8042 12.0207Z" fill="#4B4B4B"/>
<path opacity="0.5" d="M15.8797 12.0094C16.3837 11.935 16.8979 12.3103 16.9831 12.8116C17.0764 13.2499 16.8313 13.7266 16.423 13.9096C16.0816 14.0722 15.6514 14.0158 15.3625 13.7719C15.0763 13.537 14.938 13.138 15.0265 12.7774C15.1135 12.376 15.4711 12.0532 15.8797 12.0094Z" fill="#4B4B4B"/>
<path opacity="0.5" d="M11.8652 16.0088C12.1235 15.9743 12.3956 16.0412 12.6026 16.2011C12.8885 16.4099 13.0415 16.7804 12.9929 17.1305C12.9431 17.5709 12.566 17.945 12.1253 17.9927C11.6789 18.056 11.2154 17.7749 11.0642 17.3504C10.8869 16.9055 11.0897 16.3532 11.5115 16.1276C11.621 16.0673 11.7413 16.0265 11.8652 16.0088Z" fill="#4B4B4B"/>
<path opacity="0.5" d="M15.8543 16.012C16.2884 15.9406 16.7447 16.1953 16.9163 16.5994C17.0711 16.9444 17.006 17.374 16.7552 17.6572C16.5083 17.9467 16.0895 18.0733 15.7241 17.9635C15.4577 17.8879 15.2285 17.6974 15.1052 17.4493C14.9852 17.2117 14.9672 16.9258 15.0545 16.6744C15.1712 16.3291 15.4916 16.0597 15.8543 16.012Z" fill="#4B4B4B"/>
<path opacity="0.5" d="M7.72252 16.0383C7.95142 15.9738 8.20402 15.99 8.41972 16.0926C8.75092 16.2417 8.98462 16.5858 8.99902 16.9491C9.02032 17.3076 8.83012 17.6697 8.52082 17.853C8.22682 18.0372 7.83472 18.048 7.52992 17.8833C7.36492 17.7954 7.22782 17.6589 7.13242 17.499C6.97432 17.2281 6.95662 16.8804 7.08562 16.5945C7.20172 16.3272 7.44262 16.1184 7.72252 16.0383Z" fill="#4B4B4B"/>
</svg>
