<svg width="24" height="24" viewBox="0 0 24 24" fill="none" xmlns="http://www.w3.org/2000/svg">
<path opacity="0.5" d="M6.57022 1.88653C6.76672 1.74583 7.03342 1.71073 7.25992 1.79593C7.54462 1.89763 7.75282 2.18563 7.75042 2.48953C7.75072 2.74723 7.75132 3.00523 7.74952 3.26293C7.24972 3.27283 6.74962 3.28963 6.25102 3.32713C6.25042 3.04753 6.24892 2.76793 6.25132 2.48863C6.25282 2.25193 6.37552 2.02063 6.57022 1.88653Z" fill="#4B4B4B"/>
<path opacity="0.5" d="M16.4951 1.94569C16.6997 1.75429 17.0156 1.69669 17.2751 1.80229C17.5526 1.90819 17.7491 2.19199 17.7494 2.48899C17.7518 2.76859 17.75 3.04789 17.75 3.32749C17.2511 3.28939 16.751 3.27289 16.2512 3.26299C16.2494 3.00589 16.25 2.74879 16.2503 2.49169C16.2503 2.28589 16.3418 2.08279 16.4951 1.94569Z" fill="#4B4B4B"/>
<path d="M21.1607 8.16406C21.203 8.20786 21.1709 8.28016 21.179 8.33566C21.2126 8.80516 21.2303 9.27586 21.2393 9.74656C15.0815 9.74656 8.92343 9.74686 2.76562 9.74626C2.77523 9.24616 2.79262 8.74546 2.83372 8.24656C8.88952 8.24566 14.9456 8.24776 21.0014 8.24566C21.0503 8.24776 21.0989 8.25346 21.1475 8.26246C21.1517 8.22946 21.1562 8.19676 21.1607 8.16406Z" fill="#4B4B4B"/>
<path d="M7.748 3.26395C9.275 3.24115 10.802 3.25405 12.329 3.25045C13.6364 3.25315 14.9438 3.24325 16.2512 3.26395C16.751 3.27385 17.2511 3.29035 17.75 3.32845C18.7991 3.41065 19.892 3.57865 20.786 4.17355C21.2255 4.46485 21.6011 4.85155 21.8816 5.29825C22.1558 5.73415 22.3364 6.22345 22.4537 6.72355C22.6055 7.37155 22.6652 8.03665 22.7012 8.69995C22.7732 10.2093 22.7417 11.721 22.7489 13.2312C22.7414 14.7369 22.7774 16.2447 22.673 17.7477C22.5941 18.7476 22.4399 19.7808 21.9131 20.6535C21.6137 21.1473 21.1988 21.5706 20.7104 21.8787C19.8584 22.4151 18.8393 22.5828 17.8526 22.6659C16.4345 22.7748 15.0107 22.7448 13.5896 22.7505C11.9198 22.7493 10.25 22.7532 8.5799 22.7487C7.8107 22.7427 7.0406 22.7322 6.2732 22.6761C5.6633 22.6296 5.0519 22.5543 4.4618 22.3878C4.0085 22.26 3.5687 22.0728 3.1793 21.8061C2.6951 21.477 2.2907 21.0318 2.0084 20.5191C1.517 19.6239 1.3853 18.5883 1.3148 17.5848C1.2599 16.7448 1.2551 15.9027 1.25 15.0612C1.2503 13.9413 1.2503 12.8214 1.2503 11.7015C1.2497 10.8516 1.2497 10.0014 1.2782 9.15175C1.3034 8.47675 1.3448 7.80025 1.4612 7.13395C1.5674 6.53455 1.7414 5.93935 2.0495 5.41105C2.4416 4.73065 3.0554 4.18345 3.7724 3.86425C4.5497 3.51385 5.4065 3.39505 6.2495 3.32815C6.7481 3.29065 7.2482 3.27385 7.748 3.26395ZM6.3437 4.82515C5.8559 4.86475 5.3663 4.92175 4.8932 5.05165C4.532 5.15035 4.1792 5.30185 3.8855 5.53795C3.5672 5.79085 3.3266 6.13405 3.1784 6.51145C2.96 7.06555 2.8847 7.66225 2.831 8.25115C2.7899 8.75005 2.7725 9.25075 2.7629 9.75085C2.7425 10.8507 2.7527 11.9505 2.7503 13.0503C2.7524 14.1105 2.7434 15.1707 2.7623 16.2306C2.7767 16.902 2.7983 17.5746 2.8832 18.2415C2.9462 18.7209 3.0398 19.2033 3.2447 19.6443C3.4415 20.0691 3.77 20.4333 4.1789 20.6631C4.6427 20.9262 5.1734 21.036 5.696 21.1095C6.3728 21.1998 7.0565 21.2232 7.7384 21.2379C8.5784 21.2544 9.4187 21.2502 10.2587 21.2505C11.8589 21.2505 13.4591 21.2508 15.0593 21.2505C15.9401 21.2445 16.8221 21.2427 17.7008 21.1737C18.2552 21.1263 18.8138 21.0582 19.3427 20.8773C19.7573 20.7381 20.1437 20.499 20.4254 20.1609C20.7281 19.8051 20.8973 19.3572 21.0002 18.9066C21.1427 18.2745 21.1856 17.6256 21.215 16.9803C21.2495 16.1106 21.2489 15.2403 21.2489 14.3703C21.2444 12.8307 21.26 11.2908 21.2366 9.75115C21.2276 9.28045 21.2099 8.80975 21.1763 8.34025C21.1682 8.28475 21.2003 8.21245 21.158 8.16865C21.1034 7.54735 21.0131 6.91375 20.747 6.34345C20.5274 5.87245 20.1407 5.48305 19.6709 5.25985C19.1582 5.01565 18.5903 4.92295 18.0305 4.85965C17.243 4.77745 16.4507 4.76515 15.6596 4.75615C13.3994 4.74565 11.1392 4.75105 8.879 4.75225C8.0336 4.75795 7.1873 4.76155 6.3437 4.82515Z" fill="#4B4B4B"/>
<path opacity="0.5" d="M6.87632 12.0095C7.36952 11.9366 7.87472 12.293 7.97402 12.7811C8.08442 13.2263 7.83902 13.7225 7.42082 13.9088C7.00772 14.1107 6.46862 13.9751 6.19922 13.6028C5.90552 13.2281 5.94092 12.6467 6.27662 12.3095C6.43472 12.1454 6.64952 12.0359 6.87632 12.0095Z" fill="#4B4B4B"/>
<path opacity="0.5" d="M11.8032 12.0215C12.3027 11.9096 12.8454 12.2477 12.966 12.7445C13.1067 13.2269 12.8181 13.7786 12.3441 13.9418C11.9031 14.1134 11.3607 13.9157 11.1324 13.5014C10.8933 13.1027 10.9866 12.5459 11.3436 12.248C11.4735 12.134 11.634 12.056 11.8032 12.0215Z" fill="#4B4B4B"/>
<path opacity="0.5" d="M16.7847 12.0246C17.2272 11.9193 17.7177 12.1617 17.904 12.5763C18.1143 13.0014 17.9637 13.5606 17.5689 13.8231C17.1828 14.1033 16.6008 14.0457 16.278 13.6944C15.9324 13.3512 15.9051 12.7506 16.218 12.3771C16.359 12.1992 16.5627 12.0726 16.7847 12.0246Z" fill="#4B4B4B"/>
<path opacity="0.5" d="M6.85471 16.0126C7.36081 15.9262 7.88671 16.2955 7.97851 16.7998C8.08651 17.2678 7.79971 17.7805 7.34851 17.9398C6.92941 18.1036 6.41491 17.9392 6.17011 17.5618C5.91001 17.1907 5.95261 16.6462 6.26761 16.3204C6.42091 16.1554 6.63121 16.0441 6.85471 16.0126Z" fill="#4B4B4B"/>
<path opacity="0.5" d="M16.8719 16.0098C17.3432 15.9393 17.8307 16.2585 17.9576 16.7169C18.0989 17.1606 17.8786 17.6811 17.4619 17.8887C17.041 18.12 16.4672 17.9859 16.1918 17.5926C15.9014 17.2125 15.9458 16.6272 16.2914 16.296C16.4453 16.1388 16.6538 16.0377 16.8719 16.0098Z" fill="#4B4B4B"/>
<path opacity="0.5" d="M11.7669 16.0276C12.0861 15.9487 12.4401 16.0423 12.6804 16.2667C13.0095 16.5625 13.098 17.0854 12.882 17.4724C12.6777 17.8678 12.1911 18.0865 11.76 17.9716C11.3277 17.8717 10.9965 17.455 11.0004 17.0104C10.9869 16.5568 11.3244 16.126 11.7669 16.0276Z" fill="#4B4B4B"/>
</svg>
