<svg width="24" height="24" viewBox="0 0 24 24" fill="none" xmlns="http://www.w3.org/2000/svg">
<path opacity="0.5" d="M13.1371 1.34497C13.5011 1.14397 13.9231 1.31797 14.2961 1.40797C16.6051 2.11297 18.5291 3.70897 20.1141 5.48397C21.3091 6.87197 22.3671 8.47797 22.7161 10.3029C22.8931 10.9079 22.1721 11.4739 21.6281 11.1509C21.1461 10.8889 21.2451 10.2749 21.0561 9.83597C20.3711 7.94097 19.0291 6.36597 17.5511 5.03197C16.3251 3.96997 14.9171 3.01497 13.2961 2.71197C12.6661 2.58297 12.5571 1.62297 13.1371 1.34497Z" fill="#4B4B4B"/>
<path opacity="0.5" d="M13.93 4.83384C14.387 4.67784 14.827 4.97783 15.215 5.18483C16.5 5.96184 17.592 7.03684 18.47 8.24984C18.766 8.69784 19.078 9.16284 19.194 9.69584C19.282 10.2498 18.631 10.7278 18.131 10.4568C17.81 10.3368 17.743 9.97284 17.599 9.70284C17.212 8.95984 16.648 8.32484 16.053 7.74084C15.512 7.20384 14.913 6.71184 14.233 6.36084C13.984 6.23084 13.654 6.16184 13.536 5.87284C13.332 5.49284 13.535 4.99084 13.93 4.83384Z" fill="#4B4B4B"/>
<path d="M5.50473 2.51588C6.61173 1.95088 8.05474 2.31788 8.82573 3.27388C9.30874 3.89788 9.73874 4.56088 10.2038 5.19788C10.7258 5.90488 10.9308 6.83588 10.7288 7.69388C10.5938 8.32188 10.2208 8.87488 9.74673 9.29988C9.71774 9.86288 9.97573 10.3809 10.2588 10.8489C10.7208 11.5929 11.3138 12.2449 11.9228 12.8709C12.4748 13.3959 13.0488 13.9179 13.7328 14.2659C13.9918 14.3899 14.2778 14.5159 14.5708 14.4639C14.7748 14.3039 14.9368 14.0989 15.1268 13.9229C15.7188 13.3399 16.6018 13.0809 17.4178 13.2289C18.0918 13.3279 18.6468 13.7539 19.2298 14.0709C19.9198 14.4929 20.7278 14.8089 21.1878 15.5109C21.9978 16.6119 21.9338 18.2799 20.9728 19.2699C20.3358 19.8989 19.7738 20.6059 19.0858 21.1799C18.2778 21.8239 17.1848 21.7759 16.2108 21.7239C13.2688 21.5139 10.5558 20.0419 8.39873 18.0909C6.51573 16.3689 4.88873 14.3449 3.71573 12.0719C3.01573 10.6689 2.48973 9.16288 2.30473 7.60088C2.21473 6.96488 2.21373 6.28988 2.50173 5.70188C2.79473 5.00988 3.38273 4.52088 3.87473 3.97588C4.40473 3.47588 4.82173 2.82688 5.50473 2.51588ZM6.23073 3.83288C5.73973 4.07688 5.42873 4.56288 5.03573 4.93088C4.56073 5.51288 3.79473 5.97888 3.75273 6.80388C3.77273 7.78888 4.01473 8.75788 4.32673 9.68788C5.27673 12.3649 7.02474 14.6899 9.05074 16.6509C10.4608 17.9909 12.1098 19.1169 13.9608 19.7459C15.1268 20.1329 16.3698 20.3369 17.5978 20.2159C18.1638 20.1629 18.5208 19.6709 18.8808 19.2899C19.2588 18.8649 19.6938 18.4919 20.0368 18.0369C20.4718 17.3639 20.2198 16.3669 19.5238 15.9729C18.8928 15.6029 18.2588 15.2399 17.6238 14.8769C17.2828 14.6739 16.8468 14.6199 16.4798 14.7899C15.9888 15.0109 15.7728 15.5769 15.2828 15.8029C14.6548 16.1039 13.9128 15.9829 13.2958 15.7139C12.1468 15.2119 11.2388 14.3139 10.3798 13.4249C9.68474 12.6639 9.02273 11.8499 8.59273 10.9059C8.29373 10.2449 8.11673 9.47388 8.36473 8.76688C8.50673 8.28788 9.00473 8.04288 9.19173 7.59088C9.38273 7.12688 9.32374 6.57388 9.04374 6.15888C8.62074 5.55088 8.18673 4.94988 7.76273 4.34188C7.44273 3.85488 6.78073 3.60588 6.23073 3.83288Z" fill="#4B4B4B"/>
</svg>
