<svg width="24" height="24" viewBox="0 0 24 24" fill="none" xmlns="http://www.w3.org/2000/svg">
<path opacity="0.5" d="M13.137 1.345C13.501 1.144 13.923 1.318 14.296 1.408C16.605 2.113 18.529 3.709 20.114 5.484C21.309 6.872 22.367 8.478 22.716 10.303C22.893 10.908 22.172 11.474 21.628 11.151C21.146 10.889 21.245 10.275 21.056 9.836C20.371 7.941 19.029 6.366 17.551 5.032C16.325 3.97 14.917 3.015 13.296 2.712C12.666 2.583 12.557 1.623 13.137 1.345Z" fill="#4B4B4B"/>
<path opacity="0.5" d="M13.93 4.834C14.387 4.678 14.827 4.978 15.215 5.185C16.5 5.962 17.592 7.037 18.47 8.25C18.766 8.698 19.078 9.163 19.194 9.696C19.282 10.25 18.631 10.728 18.131 10.457C17.81 10.337 17.743 9.973 17.599 9.703C17.212 8.96 16.648 8.325 16.053 7.741C15.512 7.204 14.913 6.712 14.233 6.361C13.984 6.231 13.654 6.162 13.536 5.873C13.332 5.493 13.535 4.991 13.93 4.834Z" fill="#4B4B4B"/>
<path d="M5.505 2.516C6.612 1.951 8.05501 2.318 8.82601 3.274C9.30901 3.898 9.73901 4.561 10.204 5.198C10.726 5.905 10.931 6.836 10.729 7.694C10.594 8.322 10.221 8.875 9.74701 9.3C9.71801 9.863 9.97601 10.381 10.259 10.849C10.721 11.593 11.314 12.245 11.923 12.871C12.475 13.396 13.049 13.918 13.733 14.266C13.992 14.39 14.278 14.516 14.571 14.464C14.775 14.304 14.937 14.099 15.127 13.923C15.719 13.34 16.602 13.081 17.418 13.229C18.092 13.328 18.647 13.754 19.23 14.071C19.92 14.493 20.728 14.809 21.188 15.511C21.998 16.612 21.934 18.28 20.973 19.27C20.336 19.899 19.774 20.606 19.086 21.18C18.278 21.824 17.185 21.776 16.211 21.724C13.269 21.514 10.556 20.042 8.399 18.091C6.51601 16.369 4.88901 14.345 3.71601 12.072C3.01601 10.669 2.49001 9.163 2.30501 7.601C2.21501 6.965 2.21401 6.29 2.50201 5.702C2.79501 5.01 3.38301 4.521 3.87501 3.976C4.40501 3.476 4.82201 2.827 5.505 2.516ZM6.23101 3.833C5.74001 4.077 5.42901 4.563 5.03601 4.931C4.56101 5.513 3.79501 5.979 3.75301 6.804C3.77301 7.789 4.01501 8.758 4.32701 9.688C5.27701 12.365 7.02501 14.69 9.05101 16.651C10.461 17.991 12.11 19.117 13.961 19.746C15.127 20.133 16.37 20.337 17.598 20.216C18.164 20.163 18.521 19.671 18.881 19.29C19.259 18.865 19.694 18.492 20.037 18.037C20.472 17.364 20.22 16.367 19.524 15.973C18.893 15.603 18.259 15.24 17.624 14.877C17.283 14.674 16.847 14.62 16.48 14.79C15.989 15.011 15.773 15.577 15.283 15.803C14.655 16.104 13.913 15.983 13.296 15.714C12.147 15.212 11.239 14.314 10.38 13.425C9.68501 12.664 9.02301 11.85 8.59301 10.906C8.294 10.245 8.11701 9.474 8.36501 8.767C8.50701 8.288 9.00501 8.043 9.19201 7.591C9.38301 7.127 9.32401 6.574 9.04401 6.159C8.62101 5.551 8.187 4.95 7.763 4.342C7.443 3.855 6.78101 3.606 6.23101 3.833Z" fill="#4B4B4B"/>
</svg>
