<svg width="24" height="24" viewBox="0 0 24 24" fill="none" xmlns="http://www.w3.org/2000/svg">
<path opacity="0.5" d="M10.065 2.26479C10.166 2.25444 10.2676 2.2495 10.3693 2.2495C11.4413 2.2495 12.5133 2.24972 13.5853 2.24927C13.9785 2.2441 14.3728 2.319 14.7352 2.47195C15.3558 2.73085 15.8783 3.21872 16.1722 3.82423C16.2768 4.03791 16.352 4.26532 16.3997 4.49812C16.4561 4.76061 16.6894 4.97857 16.9582 5.00601C17.8412 5.04582 18.7396 5.11015 19.5781 5.41088C20.2185 5.63716 20.7865 6.03686 21.2638 6.51529C21.7334 6.98809 22.1214 7.55221 22.3351 8.18697C22.5944 8.93801 22.6653 9.73718 22.7056 10.5258C22.7586 11.7697 22.7393 13.0149 22.7424 14.2596C22.7348 15.2653 22.7391 16.2748 22.616 17.2746C22.5186 18.0538 22.3079 18.8392 21.8546 19.4911C21.4271 20.113 20.8625 20.6427 20.2084 21.0204C19.4546 21.4479 18.5828 21.5964 17.7299 21.6673C16.6435 21.7518 15.5528 21.7399 14.4639 21.7433C12.9416 21.7433 11.419 21.7433 9.89649 21.7433C9.08651 21.7428 8.27632 21.7462 7.46657 21.7269C6.72565 21.7062 5.98113 21.6729 5.25146 21.5345C4.76381 21.4412 4.28336 21.2921 3.84588 21.0543C3.29255 20.7486 2.80378 20.3298 2.40205 19.8428C2.12336 19.505 1.88831 19.1289 1.72794 18.7207C1.41551 17.9336 1.33454 17.08 1.28955 16.2417C1.23759 15.1247 1.25266 14.0059 1.24951 12.888C1.25131 12.1685 1.25086 11.4485 1.2783 10.7291C1.30979 9.97673 1.3631 9.21782 1.56329 8.4886C1.68408 8.05088 1.86649 7.62802 2.12224 7.25193C2.53881 6.63698 3.08989 6.11311 3.72734 5.73163C4.35894 5.35892 5.08501 5.18595 5.80681 5.09823C6.20921 5.0492 6.61409 5.02355 7.01918 5.00713C7.30305 4.98667 7.54822 4.75161 7.5986 4.47428C7.72636 3.8465 8.08333 3.27045 8.58425 2.87233C9.00599 2.53358 9.5267 2.32035 10.065 2.26479ZM10.1727 3.76215C9.65064 3.8285 9.18638 4.2345 9.07302 4.75161C9.00464 5.10475 8.84899 5.44057 8.62046 5.71859C8.30488 6.10704 7.85097 6.38348 7.35748 6.4739C7.13435 6.51799 6.90559 6.50652 6.67976 6.52563C6.09 6.56567 5.49191 6.62078 4.93071 6.81849C4.55103 6.94985 4.21431 7.18153 3.91898 7.45032C3.67493 7.6748 3.45832 7.93077 3.2867 8.21463C3.01116 8.68474 2.91084 9.23109 2.84831 9.76552C2.78151 10.3663 2.76689 10.9714 2.75677 11.5753C2.74732 12.2976 2.74934 13.0201 2.74889 13.7423C2.75384 14.7183 2.7426 15.6958 2.82042 16.6695C2.86653 17.1853 2.93491 17.708 3.13127 18.1912C3.24734 18.4807 3.42751 18.7393 3.63107 18.9739C3.86207 19.2398 4.13244 19.4713 4.42979 19.66C4.77011 19.8739 5.16104 19.9913 5.55332 20.0653C6.03849 20.1559 6.53199 20.1895 7.02436 20.2117C7.87639 20.2464 8.72932 20.2425 9.58181 20.2439C10.5868 20.2439 11.5918 20.2439 12.5968 20.2439C13.8413 20.2407 15.0861 20.2524 16.3304 20.2313C16.9228 20.2178 17.5164 20.1973 18.1042 20.1195C18.5045 20.0642 18.9063 19.9814 19.2761 19.8136C19.5188 19.7045 19.739 19.5516 19.9434 19.3826C20.2226 19.1507 20.4671 18.877 20.6645 18.5724C20.8915 18.2171 21.0094 17.8048 21.0818 17.3927C21.1722 16.8706 21.2012 16.3402 21.2203 15.8114C21.2534 14.6798 21.2417 13.5475 21.2424 12.4157C21.2379 11.6295 21.2363 10.8425 21.1731 10.0584C21.1333 9.6047 21.0746 9.14854 20.9309 8.71465C20.8449 8.45486 20.7199 8.20766 20.5557 7.98858C20.2979 7.63544 19.9758 7.32998 19.6107 7.08976C19.3183 6.89677 18.9845 6.77508 18.6447 6.69703C18.2027 6.59559 17.7497 6.5533 17.2978 6.52451C17.0432 6.50562 16.7845 6.51731 16.5355 6.45298C15.825 6.28811 15.2264 5.73208 14.9965 5.04177C14.9331 4.86633 14.9198 4.67536 14.8359 4.50689C14.6306 4.05433 14.1486 3.75135 13.6533 3.74933C12.6411 3.74843 11.6291 3.7491 10.6172 3.74888C10.4689 3.75113 10.3198 3.74145 10.1727 3.76215Z" fill="#4B4B4B"/>
<path d="M13.9095 8.55498C14.1088 8.27089 14.5157 8.16495 14.8283 8.31543C15.0895 8.43239 15.2685 8.70928 15.2651 8.99584C15.2647 9.56649 15.2667 10.1374 15.2642 10.708C15.2564 11.0349 15.0078 11.3356 14.6889 11.4056C14.172 11.5153 13.6546 11.624 13.1375 11.7326C12.8303 11.7972 12.4951 11.6413 12.344 11.3669C12.2065 11.13 12.2149 10.8178 12.3662 10.5895C12.4409 10.4703 12.5527 10.379 12.6771 10.3153C12.1703 10.1684 11.6163 10.1894 11.1242 10.3808C10.4413 10.641 9.89338 11.2288 9.68419 11.9292C9.46129 12.6458 9.59804 13.4632 10.047 14.0653C10.3063 14.4178 10.6615 14.7001 11.0661 14.8674C11.4838 15.0418 11.9508 15.0946 12.397 15.0193C13.0619 14.9124 13.669 14.5082 14.0309 13.9412C14.2347 13.6261 14.3605 13.2619 14.4005 12.889C14.443 12.5392 14.7631 12.2522 15.1151 12.2463C15.439 12.229 15.7543 12.4488 15.8533 12.7567C15.923 12.9461 15.8819 13.1492 15.8488 13.3415C15.7204 14.053 15.3884 14.7262 14.9023 15.2613C14.4032 15.8153 13.7433 16.2231 13.0226 16.4161C12.2029 16.6394 11.3109 16.5868 10.5238 16.2661C9.78001 15.9665 9.13581 15.4293 8.70192 14.7554C8.28445 14.1106 8.06627 13.3402 8.08022 12.5723C8.09079 11.8271 8.31954 11.0859 8.73454 10.4662C9.17855 9.79884 9.83107 9.27138 10.5796 8.98324C11.6008 8.58264 12.7884 8.64203 13.7657 9.1398C13.7527 8.93623 13.7815 8.72053 13.9095 8.55498Z" fill="#4B4B4B"/>
</svg>
