<svg width="24" height="25" viewBox="0 0 24 25" fill="none" xmlns="http://www.w3.org/2000/svg">
<g clip-path="url(#clip0_28585_124339)">
<path d="M10.0645 2.76481C10.1659 2.75424 10.2683 2.74929 10.3704 2.74929C11.4197 2.74929 12.4688 2.74929 13.5181 2.74929C13.7048 2.74659 13.8921 2.75402 14.0768 2.78438C14.7842 2.8937 15.4439 3.2826 15.8789 3.85145C16.1331 4.18074 16.3106 4.5683 16.3945 4.97565C16.4439 5.24759 16.6815 5.47836 16.959 5.50558C17.8473 5.54629 18.7519 5.61062 19.5948 5.91698C20.2583 6.15473 20.8427 6.57782 21.3296 7.08211C21.6189 7.38667 21.8778 7.72316 22.0769 8.09407C22.387 8.67237 22.5377 9.32106 22.6189 9.96796C22.7161 10.7588 22.7292 11.5569 22.7386 12.3527C22.7445 13.523 22.7489 14.6933 22.7319 15.8636C22.7094 16.7804 22.683 17.7073 22.4631 18.6023C22.3517 19.0477 22.1815 19.4809 21.9347 19.8694C21.5454 20.4765 21.0237 20.9976 20.4198 21.3917C19.7279 21.8476 18.902 22.0424 18.0877 22.1322C17.0416 22.2446 15.9876 22.2368 14.9367 22.2431C12.8745 22.2426 10.8124 22.2444 8.75022 22.2422C7.79652 22.2354 6.84012 22.235 5.89092 22.1306C5.1311 22.0451 4.36342 21.8701 3.7019 21.4724C3.01699 21.0552 2.42947 20.4758 2.0102 19.7918C1.58171 19.0826 1.41639 18.2523 1.33901 17.4374C1.24095 16.3611 1.25489 15.279 1.24927 14.1993C1.25444 13.0068 1.23307 11.8124 1.31067 10.6214C1.37523 9.72054 1.51289 8.79383 1.96837 7.9987C2.36514 7.32031 2.93039 6.74404 3.58876 6.3169C4.19022 5.92575 4.89448 5.72691 5.59896 5.62592C6.06906 5.55754 6.54366 5.5265 7.01804 5.50693C7.30213 5.48714 7.54752 5.25231 7.59858 4.97497C7.73804 4.28286 8.15843 3.65576 8.73943 3.25628C9.13035 2.98434 9.59079 2.81407 10.0645 2.76481ZM10.1702 4.26217C9.64252 4.3301 9.17489 4.74577 9.0685 5.27075C8.95873 5.8324 8.61414 6.34209 8.13661 6.65677C7.79427 6.88597 7.38378 7.00901 6.97193 7.01014C6.30794 7.0441 5.6336 7.08886 4.99705 7.29512C4.59195 7.42423 4.23139 7.66446 3.91941 7.94967C3.69088 8.15885 3.48844 8.39683 3.32109 8.65752C3.08042 9.03968 2.96481 9.48481 2.89395 9.92657C2.80601 10.4914 2.78149 11.0636 2.76552 11.6345C2.74752 12.361 2.75022 13.088 2.74887 13.8149C2.75247 14.8276 2.73965 15.8411 2.79746 16.8526C2.83007 17.3585 2.87843 17.8675 3.01609 18.3572C3.10201 18.6624 3.23405 18.9568 3.42366 19.2121C3.68166 19.5711 4.00646 19.8811 4.37512 20.1247C4.65493 20.3116 4.9741 20.4315 5.29958 20.5104C5.75214 20.6197 6.21729 20.664 6.6811 20.6937C7.48972 20.7416 8.29991 20.7403 9.10966 20.7437C10.1522 20.7437 11.1948 20.7437 12.2375 20.7437C13.512 20.7412 14.7867 20.7502 16.0611 20.7358C16.6693 20.7259 17.2787 20.7108 17.8839 20.646C18.319 20.5975 18.756 20.5244 19.1642 20.3613C19.4099 20.2646 19.6361 20.1247 19.8438 19.9625C20.16 19.7178 20.4362 19.4206 20.6555 19.0862C20.8463 18.7926 20.9621 18.4568 21.0375 18.1167C21.1299 17.6941 21.1699 17.2622 21.1967 16.831C21.2309 16.2462 21.2372 15.6603 21.2412 15.0745C21.2446 14.2652 21.2446 13.4562 21.2412 12.6469C21.2354 11.9338 21.2298 11.2197 21.1688 10.5087C21.1268 10.0532 21.0647 9.5948 20.9124 9.16136C20.8249 8.91012 20.6974 8.67327 20.5361 8.46161C20.2718 8.10667 19.9423 7.80054 19.5689 7.56279C19.2724 7.37565 18.9366 7.26048 18.5958 7.18581C18.1761 7.09403 17.7476 7.05332 17.3196 7.02566C17.0405 7.00496 16.7557 7.01823 16.4842 6.93973C15.7185 6.74247 15.0971 6.0877 14.934 5.31507C14.8883 5.07034 14.772 4.83934 14.5991 4.65985C14.3507 4.39758 13.9918 4.24732 13.631 4.24867C12.6186 4.24867 11.6059 4.24867 10.5933 4.24867C10.4523 4.25025 10.3103 4.24215 10.1702 4.26217Z" fill="#4B4B4B"/>
<path opacity="0.5" d="M10.5573 5.50309C11.4689 5.49365 12.3808 5.50197 13.2924 5.49882C13.6782 5.49387 14.0653 5.62006 14.3699 5.85758C14.6643 6.08431 14.8769 6.41653 14.9506 6.78159C15.0491 7.2445 15.4765 7.60753 15.9471 7.64127C16.4448 7.66242 16.9453 7.69256 17.4343 7.79535C17.7802 7.868 18.1206 7.98429 18.4231 8.17008C18.7771 8.38849 19.0927 8.6701 19.3485 8.9985C19.5127 9.20566 19.6451 9.43779 19.7374 9.68589C19.9031 10.129 19.9623 10.6031 19.9985 11.0724C20.0496 11.7984 20.0437 12.527 20.0469 13.2544C20.0439 14.117 20.0568 14.9803 20.0113 15.842C19.9776 16.3881 19.9238 16.9435 19.7252 17.4579C19.5783 17.8461 19.3224 18.1835 19.0279 18.4721C18.7083 18.7787 18.3351 19.0378 17.9145 19.1838C17.3949 19.3669 16.8414 19.4206 16.295 19.4548C15.5357 19.4964 14.7745 19.4921 14.0142 19.4933C13.0088 19.4933 12.0031 19.4933 10.9977 19.4933C10.0085 19.4899 9.01878 19.5045 8.02999 19.4706C7.54257 19.4508 7.05335 19.4195 6.57447 19.321C6.22066 19.2476 5.87224 19.1302 5.56386 18.9393C5.18261 18.7031 4.84611 18.394 4.58159 18.0317C4.40367 17.7919 4.27479 17.5182 4.18954 17.2327C4.07528 16.8528 4.02647 16.4569 3.99565 16.0624C3.95539 15.5172 3.95067 14.9699 3.94707 14.4234C3.94504 13.7337 3.94392 13.0441 3.94977 12.3545C3.95651 11.8061 3.96664 11.2568 4.02759 10.7113C4.07775 10.2828 4.16188 9.85098 4.35217 9.46073C4.62478 8.91865 5.07374 8.47599 5.58725 8.15951C5.9161 7.96067 6.28814 7.84461 6.66422 7.77398C7.11498 7.68986 7.57406 7.66062 8.03179 7.64217C8.50864 7.61428 8.94501 7.24697 9.04285 6.77754C9.11235 6.43835 9.30152 6.12727 9.56559 5.90414C9.84158 5.66842 10.1954 5.52761 10.5573 5.50309ZM14.2003 8.98658C14.0327 9.08915 13.92 9.27831 13.9164 9.47558C13.9139 9.61526 13.9169 9.75471 13.9155 9.8944C13.0363 9.36761 11.9377 9.2295 10.9541 9.51561C10.2386 9.71873 9.58965 10.1436 9.1119 10.7131C8.64135 11.2694 8.33995 11.9662 8.25582 12.69C8.16023 13.4818 8.32375 14.3028 8.71963 14.9956C9.1164 15.6953 9.74283 16.2626 10.4802 16.5852C11.2447 16.9225 12.1221 16.9934 12.9312 16.7851C13.5945 16.6171 14.209 16.2619 14.6863 15.7716C15.2743 15.1764 15.6526 14.3786 15.7397 13.5466C15.7608 13.3351 15.6565 13.1181 15.4803 13.0004C15.3179 12.8875 15.0977 12.8641 14.9153 12.9406C14.7214 13.0184 14.5748 13.2042 14.5491 13.4121C14.4767 14.1098 14.102 14.7675 13.5401 15.187C12.9164 15.6638 12.0675 15.8231 11.3122 15.6105C10.547 15.4045 9.89736 14.8206 9.60945 14.0826C9.31861 13.3597 9.38317 12.5056 9.78197 11.836C10.1646 11.1785 10.8524 10.7086 11.6059 10.5987C12.1102 10.5204 12.637 10.5975 13.0979 10.8162C13.1145 10.8258 13.1296 10.8378 13.1429 10.8524C12.9503 10.8978 12.7315 10.9097 12.5846 11.06C12.3972 11.2314 12.3419 11.526 12.4539 11.7539C12.565 11.9975 12.8525 12.1428 13.1145 12.0843C13.6276 11.9766 14.1407 11.8688 14.6535 11.76C14.9151 11.7033 15.1166 11.4518 15.1148 11.1841C15.1162 10.6594 15.1146 10.1344 15.1155 9.60963C15.1155 9.51876 15.1189 9.42564 15.0935 9.33724C15.0444 9.15618 14.905 9.00255 14.7293 8.93687C14.5579 8.87007 14.3561 8.88873 14.2003 8.98658Z" fill="#4B4B4B"/>
</g>
<defs>
<clipPath id="clip0_28585_124339">
<rect width="24" height="24" fill="white" transform="translate(0 0.5)"/>
</clipPath>
</defs>
</svg>
