<svg width="24" height="24" viewBox="0 0 24 24" fill="none" xmlns="http://www.w3.org/2000/svg">
<g clip-path="url(#clip0_35569_36381)">
<mask id="mask0_35569_36381" style="mask-type:luminance" maskUnits="userSpaceOnUse" x="0" y="0" width="24" height="24">
<path d="M24 0H0V24H24V0Z" fill="white"/>
</mask>
<g mask="url(#mask0_35569_36381)">
<mask id="mask1_35569_36381" style="mask-type:luminance" maskUnits="userSpaceOnUse" x="0" y="0" width="24" height="24">
<path d="M24 0H0V24H24V0Z" fill="white"/>
</mask>
<g mask="url(#mask1_35569_36381)">
<path d="M10.0647 2.26457C10.1661 2.254 10.2685 2.24905 10.3706 2.24905C11.4199 2.24905 12.469 2.24905 13.5183 2.24905C13.705 2.24635 13.8923 2.25378 14.077 2.28414C14.7844 2.39346 15.4441 2.78236 15.8791 3.35121C16.1333 3.6805 16.3108 4.06806 16.3947 4.47541C16.4441 4.74735 16.6817 4.97812 16.9592 5.00534C17.8475 5.04605 18.7521 5.11038 19.595 5.41674C20.2585 5.65449 20.8429 6.07758 21.3298 6.58187C21.6191 6.88643 21.878 7.22292 22.0771 7.59383C22.3872 8.17213 22.5379 8.82082 22.6191 9.46772C22.7163 10.2586 22.7294 11.0567 22.7388 11.8525C22.7447 13.0228 22.7491 14.1931 22.7321 15.3634C22.7096 16.2802 22.6832 17.2071 22.4633 18.1021C22.3519 18.5475 22.1817 18.9807 21.9349 19.3692C21.5456 19.9763 21.0239 20.4974 20.42 20.8915C19.7281 21.3474 18.9022 21.5422 18.0879 21.632C17.0418 21.7444 15.9878 21.7366 14.9369 21.7429C12.8747 21.7424 10.8126 21.7442 8.75046 21.742C7.79676 21.7352 6.84036 21.7348 5.89116 21.6304C5.13134 21.5449 4.36366 21.3699 3.70214 20.9722C3.01723 20.555 2.42971 19.9756 2.01044 19.2916C1.58195 18.5824 1.41663 17.7521 1.33925 16.9372C1.24119 15.8609 1.25513 14.7788 1.24951 13.6991C1.25468 12.5066 1.23331 11.3122 1.31091 10.1212C1.37547 9.2203 1.51313 8.29359 1.96861 7.49846C2.36538 6.82007 2.93063 6.2438 3.589 5.81666C4.19046 5.42551 4.89472 5.22667 5.5992 5.12568C6.0693 5.0573 6.5439 5.02626 7.01828 5.00669C7.30237 4.9869 7.54776 4.75207 7.59882 4.47473C7.73828 3.78262 8.15867 3.15552 8.73967 2.75604C9.13059 2.4841 9.59103 2.31383 10.0647 2.26457ZM10.1704 3.76193C9.64276 3.82986 9.17513 4.24553 9.06874 4.77051C8.95897 5.33216 8.61438 5.84185 8.13685 6.15653C7.79451 6.38573 7.38402 6.50877 6.97217 6.5099C6.30818 6.54386 5.63384 6.58862 4.99729 6.79488C4.59219 6.92399 4.23163 7.16422 3.91965 7.44943C3.69112 7.65861 3.48868 7.89659 3.32133 8.15728C3.08066 8.53944 2.96505 8.98457 2.89419 9.42633C2.80625 9.99113 2.78173 10.5634 2.76576 11.1343C2.74776 11.8608 2.75046 12.5878 2.74911 13.3147C2.75271 14.3274 2.73989 15.3409 2.7977 16.3524C2.83031 16.8583 2.87867 17.3673 3.01633 17.857C3.10225 18.1622 3.23429 18.4566 3.4239 18.7119C3.6819 19.0709 4.0067 19.3809 4.37536 19.6245C4.65517 19.8114 4.97434 19.9313 5.29982 20.0102C5.75238 20.1195 6.21753 20.1638 6.68134 20.1935C7.48996 20.2414 8.30015 20.2401 9.1099 20.2435C10.1524 20.2435 11.195 20.2435 12.2377 20.2435C13.5122 20.241 14.7869 20.25 16.0613 20.2356C16.6695 20.2257 17.2789 20.2106 17.8841 20.1458C18.3192 20.0973 18.7562 20.0242 19.1644 19.8611C19.4101 19.7644 19.6363 19.6245 19.844 19.4623C20.1602 19.2176 20.4364 18.9204 20.6557 18.586C20.8465 18.2924 20.9623 17.9566 21.0377 17.6165C21.1301 17.1939 21.1701 16.762 21.1969 16.3308C21.2311 15.746 21.2374 15.1601 21.2414 14.5743C21.2448 13.765 21.2448 12.956 21.2414 12.1467C21.2356 11.4336 21.23 10.7195 21.169 10.0085C21.127 9.55297 21.0649 9.09456 20.9126 8.66112C20.8251 8.40988 20.6976 8.17303 20.5363 7.96137C20.272 7.60643 19.9425 7.3003 19.5691 7.06255C19.2726 6.87541 18.9368 6.76024 18.596 6.68557C18.1763 6.59379 17.7478 6.55308 17.3198 6.52542C17.0407 6.50472 16.7559 6.51799 16.4844 6.43949C15.7187 6.24223 15.0973 5.58746 14.9342 4.81483C14.8885 4.5701 14.7722 4.3391 14.5993 4.15961C14.3509 3.89734 13.992 3.74708 13.6312 3.74843C12.6188 3.74843 11.6061 3.74843 10.5935 3.74843C10.4525 3.75001 10.3105 3.74191 10.1704 3.76193Z" fill="#4B4B4B"/>
<path opacity="0.5" d="M10.5577 5.00272C11.4693 4.99328 12.3812 5.0016 13.2928 4.99845C13.6786 4.9935 14.0657 5.11969 14.3703 5.35721C14.6647 5.58394 14.8773 5.91616 14.951 6.28122C15.0495 6.74413 15.4769 7.10716 15.9475 7.1409C16.4452 7.16205 16.9457 7.19219 17.4347 7.29498C17.7806 7.36763 18.121 7.48392 18.4235 7.66971C18.7775 7.88812 19.0931 8.16973 19.3489 8.49813C19.5131 8.70529 19.6455 8.93742 19.7378 9.18552C19.9035 9.62863 19.9627 10.1027 19.9989 10.572C20.05 11.298 20.0441 12.0266 20.0473 12.754C20.0443 13.6166 20.0572 14.4799 20.0117 15.3416C19.978 15.8877 19.9242 16.4431 19.7256 16.9575C19.5787 17.3457 19.3228 17.6831 19.0283 17.9717C18.7087 18.2783 18.3355 18.5374 17.9149 18.6834C17.3953 18.8665 16.8418 18.9202 16.2954 18.9544C15.5361 18.996 14.7749 18.9917 14.0146 18.9929C13.0092 18.9929 12.0035 18.9929 10.9981 18.9929C10.0089 18.9895 9.01915 19.0041 8.03036 18.9702C7.54294 18.9504 7.05372 18.9191 6.57484 18.8206C6.22103 18.7472 5.87261 18.6298 5.56423 18.4389C5.18298 18.2027 4.84648 17.8936 4.58196 17.5313C4.40404 17.2915 4.27516 17.0178 4.18991 16.7323C4.07565 16.3524 4.02684 15.9565 3.99602 15.562C3.95576 15.0168 3.95104 14.4695 3.94744 13.923C3.94541 13.2333 3.94429 12.5437 3.95014 11.8541C3.95688 11.3057 3.96701 10.7564 4.02796 10.2109C4.07812 9.78248 4.16225 9.35061 4.35254 8.96036C4.62515 8.41828 5.07411 7.97562 5.58762 7.65914C5.91647 7.4603 6.28851 7.34424 6.66459 7.27361C7.11535 7.18949 7.57443 7.16025 8.03216 7.1418C8.50901 7.11391 8.94538 6.7466 9.04322 6.27717C9.11272 5.93798 9.30189 5.6269 9.56596 5.40377C9.84195 5.16805 10.1958 5.02724 10.5577 5.00272ZM14.2007 8.48621C14.0331 8.58878 13.9204 8.77794 13.9168 8.97521C13.9143 9.11489 13.9173 9.25434 13.9159 9.39403C13.0367 8.86724 11.9381 8.72913 10.9545 9.01524C10.239 9.21836 9.59002 9.64325 9.11227 10.2127C8.64172 10.769 8.34032 11.4658 8.25619 12.1896C8.1606 12.9814 8.32412 13.8024 8.72 14.4952C9.11677 15.1949 9.7432 15.7622 10.4806 16.0848C11.2451 16.4221 12.1225 16.493 12.9316 16.2847C13.5949 16.1167 14.2094 15.7615 14.6867 15.2712C15.2747 14.676 15.653 13.8782 15.7401 13.0462C15.7612 12.8347 15.6569 12.6177 15.4807 12.5C15.3183 12.3871 15.0981 12.3637 14.9157 12.4402C14.7218 12.518 14.5752 12.7038 14.5495 12.9117C14.4771 13.6094 14.1024 14.2671 13.5405 14.6866C12.9168 15.1634 12.0679 15.3227 11.3126 15.1101C10.5474 14.9041 9.89773 14.3202 9.60982 13.5822C9.31898 12.8593 9.38354 12.0052 9.78234 11.3356C10.165 10.6781 10.8528 10.2082 11.6063 10.0983C12.1106 10.02 12.6374 10.0971 13.0983 10.3158C13.1149 10.3254 13.13 10.3374 13.1433 10.352C12.9507 10.3974 12.7319 10.4093 12.585 10.5596C12.3976 10.731 12.3423 11.0256 12.4543 11.2535C12.5654 11.4971 12.8529 11.6424 13.1149 11.5839C13.628 11.4762 14.1411 11.3684 14.6539 11.2596C14.9155 11.2029 15.117 10.9514 15.1152 10.6837C15.1166 10.159 15.115 9.63403 15.1159 9.10926C15.1159 9.01839 15.1193 8.92527 15.0939 8.83687C15.0448 8.65581 14.9054 8.50218 14.7297 8.4365C14.5583 8.3697 14.3565 8.38836 14.2007 8.48621Z" fill="#4B4B4B"/>
</g>
</g>
</g>
<defs>
<clipPath id="clip0_35569_36381">
<rect width="24" height="24" fill="white"/>
</clipPath>
</defs>
</svg>
