<svg width="24" height="25" viewBox="0 0 24 25" fill="none" xmlns="http://www.w3.org/2000/svg">
<path opacity="0.5" d="M10.0649 2.76458C10.1659 2.75423 10.2676 2.74929 10.3693 2.74929C11.4413 2.74929 12.5133 2.74951 13.5853 2.74906C13.9785 2.74389 14.3728 2.81879 14.7351 2.97174C15.3557 3.23064 15.8782 3.71851 16.1722 4.32402C16.2768 4.5377 16.3519 4.76511 16.3996 4.99791C16.4561 5.2604 16.6893 5.47836 16.9581 5.5058C17.8412 5.54561 18.7396 5.60994 19.5781 5.91067C20.2185 6.13695 20.7864 6.53665 21.2637 7.01508C21.7334 7.48788 22.1214 8.052 22.3351 8.68676C22.5944 9.4378 22.6653 10.237 22.7055 11.0256C22.7586 12.2694 22.7393 13.5146 22.7424 14.7594C22.7348 15.7651 22.739 16.7746 22.616 17.7744C22.5186 18.5535 22.3079 19.339 21.8546 19.9908C21.427 20.6128 20.8625 21.1425 20.2084 21.5201C19.4546 21.9477 18.5828 22.0962 17.7299 22.167C16.6434 22.2516 15.5528 22.2397 14.4639 22.243C12.9416 22.243 11.419 22.243 9.89645 22.243C9.08648 22.2426 8.27629 22.246 7.46654 22.2266C6.72562 22.2059 5.9811 22.1726 5.25143 22.0343C4.76378 21.941 4.28333 21.7918 3.84584 21.5541C3.29252 21.2484 2.80375 20.8296 2.40202 20.3426C2.12333 20.0048 1.88828 19.6287 1.72791 19.2204C1.41548 18.4334 1.3345 17.5798 1.28952 16.7415C1.23756 15.6245 1.25263 14.5057 1.24948 13.3878C1.25128 12.6682 1.25083 11.9482 1.27827 11.2289C1.30976 10.4765 1.36307 9.71761 1.56326 8.98839C1.68405 8.55067 1.86646 8.12781 2.12221 7.75172C2.53878 7.13676 3.08986 6.6129 3.72731 6.23142C4.35891 5.85871 5.08498 5.68574 5.80678 5.59802C6.20918 5.54899 6.61406 5.52334 7.01915 5.50692C7.30301 5.48646 7.54819 5.2514 7.59857 4.97407C7.72633 4.34629 8.0833 3.77024 8.58421 3.37212C9.00596 3.03337 9.52667 2.82014 10.0649 2.76458ZM10.1727 4.26194C9.65061 4.32829 9.18635 4.73429 9.07299 5.2514C9.00461 5.60454 8.84896 5.94036 8.62043 6.21838C8.30485 6.60683 7.85094 6.88327 7.35745 6.97369C7.13432 7.01778 6.90556 7.00631 6.67973 7.02542C6.08997 7.06546 5.49188 7.12057 4.93068 7.31828C4.551 7.44964 4.21428 7.68132 3.91895 7.95011C3.6749 8.17459 3.45829 8.43056 3.28667 8.71442C3.01113 9.18453 2.91081 9.73088 2.84828 10.2653C2.78148 10.8661 2.76686 11.4712 2.75674 12.0751C2.74729 12.7973 2.74931 13.5198 2.74886 14.2421C2.75381 15.218 2.74256 16.1956 2.82039 17.1693C2.8665 17.6851 2.93488 18.2078 3.13124 18.691C3.24731 18.9804 3.42748 19.2391 3.63104 19.4737C3.86204 19.7396 4.13241 19.971 4.42976 20.1597C4.77008 20.3737 5.16101 20.4911 5.55329 20.5651C6.03846 20.6557 6.53196 20.6892 7.02433 20.7115C7.87636 20.7461 8.72929 20.7423 9.58178 20.7437C10.5868 20.7437 11.5918 20.7437 12.5967 20.7437C13.8413 20.7405 15.086 20.7522 16.3303 20.7311C16.9228 20.7176 17.5164 20.6971 18.1041 20.6193C18.5045 20.5639 18.9062 20.4812 19.276 20.3134C19.5187 20.2043 19.7389 20.0513 19.9434 19.8824C20.2225 19.6505 20.467 19.3768 20.6645 19.0722C20.8915 18.7168 21.0093 18.3045 21.0818 17.8925C21.1722 17.3704 21.2012 16.84 21.2203 16.3112C21.2534 15.1796 21.2417 14.0473 21.2424 12.9154C21.2379 12.1293 21.2363 11.3423 21.1731 10.5582C21.1333 10.1045 21.0746 9.64833 20.9308 9.21444C20.8449 8.95465 20.7198 8.70745 20.5556 8.48837C20.2979 8.13523 19.9758 7.82977 19.6107 7.58955C19.3183 7.39656 18.9845 7.27487 18.6446 7.19682C18.2027 7.09538 17.7497 7.05309 17.2978 7.0243C17.0431 7.00541 16.7845 7.0171 16.5355 6.95277C15.8249 6.7879 15.2264 6.23187 14.9965 5.54156C14.9331 5.36612 14.9198 5.17515 14.8359 5.00668C14.6306 4.55412 14.1485 4.25114 13.6532 4.24912C12.641 4.24822 11.6291 4.24889 10.6171 4.24867C10.4689 4.25092 10.3198 4.24124 10.1727 4.26194Z" fill="#4B4B4B"/>
<path d="M13.9094 9.05519C14.1087 8.7711 14.5156 8.66516 14.8283 8.81564C15.0894 8.9326 15.2685 9.20949 15.2651 9.49605C15.2646 10.0667 15.2667 10.6376 15.2642 11.2082C15.2563 11.535 15.0078 11.8358 14.6888 11.9057C14.1719 12.0155 13.6546 12.1241 13.1375 12.2328C12.8302 12.2973 12.4951 12.1414 12.3439 11.867C12.2065 11.6302 12.2148 11.318 12.3662 11.0897C12.4409 10.9705 12.5527 10.8791 12.677 10.8155C12.1703 10.6686 11.6163 10.6895 11.1241 10.8809C10.4412 11.1412 9.89332 11.7289 9.68413 12.4294C9.46123 13.146 9.59798 13.9634 10.0469 14.5655C10.3063 14.918 10.6615 15.2003 11.0661 15.3676C11.4838 15.5419 11.9507 15.5948 12.397 15.5194C13.0619 15.4126 13.669 15.0084 14.0309 14.4414C14.2347 14.1262 14.3604 13.7621 14.4005 13.3891C14.443 13.0394 14.763 12.7524 15.1151 12.7465C15.439 12.7292 15.7543 12.9489 15.8533 13.2569C15.923 13.4463 15.8818 13.6494 15.8488 13.8417C15.7203 14.5531 15.3884 15.2264 14.9023 15.7615C14.4032 16.3155 13.7432 16.7233 13.0225 16.9163C12.2029 17.1396 11.3108 17.087 10.5238 16.7662C9.77995 16.4666 9.13575 15.9295 8.70186 15.2556C8.28439 14.6107 8.06621 13.8403 8.08016 13.0724C8.09073 12.3272 8.31948 11.5861 8.73448 10.9664C9.17849 10.299 9.83101 9.77159 10.5796 9.48345C11.6008 9.08285 12.7884 9.14224 13.7657 9.64C13.7527 9.43644 13.7815 9.22074 13.9094 9.05519Z" fill="#4B4B4B"/>
</svg>
