<svg width="24" height="24" viewBox="0 0 24 24" fill="none" xmlns="http://www.w3.org/2000/svg">
<path d="M16.9661 1.99269C17.2147 1.72907 17.6744 1.72187 17.9303 1.97884C18.5414 2.5883 19.1508 3.19942 19.7617 3.80944C20.3327 3.23902 20.9031 2.66833 21.4738 2.09763C21.543 2.02868 21.6097 1.9553 21.6923 1.90131C21.8614 1.78999 22.081 1.7587 22.2743 1.8199C22.503 1.88746 22.6877 2.08323 22.7431 2.315C22.8007 2.54317 22.7323 2.79875 22.5653 2.96517C21.957 3.57158 21.3522 4.18132 20.7422 4.7858C21.3007 5.35455 21.8689 5.9139 22.431 6.47905C22.516 6.56766 22.6149 6.64686 22.6741 6.75679C22.7763 6.93594 22.791 7.16134 22.714 7.3524C22.6354 7.55371 22.4568 7.71293 22.2469 7.76554C22.0248 7.82618 21.7728 7.76609 21.605 7.60771C20.9889 6.99603 20.3792 6.37771 19.7611 5.76825C19.155 6.37688 18.5464 6.98329 17.9394 7.59109C17.7802 7.75086 17.5387 7.82175 17.3183 7.77468C17.0652 7.72705 16.8512 7.52464 16.7869 7.27542C16.7376 7.09544 16.7659 6.89579 16.8642 6.73685C16.9218 6.64021 17.0071 6.56517 17.0854 6.48598C17.6514 5.91971 18.218 5.354 18.7837 4.78718C18.1739 4.17717 17.5636 3.5677 16.9542 2.95741C16.6961 2.70211 16.7028 2.2419 16.9661 1.99269Z" fill="#4B4B4B"/>
<path opacity="0.5" d="M16.7686 13.5447C16.7654 13.1262 17.1052 12.786 17.5238 12.7862C18.769 12.7869 20.0143 12.7863 21.2596 12.7861C21.2583 13.2861 21.2562 13.7868 21.2467 14.2855C20.0043 14.2859 18.7618 14.2859 17.5194 14.2857C17.1077 14.2856 16.7717 13.9564 16.7686 13.5447Z" fill="#4B4B4B"/>
<path opacity="0.5" d="M2.77295 12.7856C5.12383 12.7871 7.47463 12.7865 9.82549 12.7862C10.2468 12.7861 10.589 13.1292 10.5834 13.5505C10.578 13.9606 10.2416 14.2855 9.83154 14.2856C7.48617 14.2859 5.14074 14.2859 2.79539 14.2855C2.77884 13.7866 2.77523 13.2859 2.77295 12.7856Z" fill="#4B4B4B"/>
<path opacity="0.5" d="M11.2669 18.2837C11.7667 18.2837 12.2662 18.2837 12.766 18.2837C12.7658 19.4502 12.7654 20.6167 12.7663 21.7829C13.8574 21.7843 14.9487 21.7825 16.0401 21.7838C16.4333 21.7859 16.7772 22.1444 16.7651 22.5371C16.7725 22.9276 16.429 23.2805 16.0385 23.2819C13.4143 23.2841 10.79 23.2823 8.16578 23.283C7.97482 23.2922 7.77261 23.2742 7.61066 23.1627C7.33602 22.991 7.20173 22.6305 7.29823 22.3212C7.38235 22.0205 7.67206 21.7917 7.98494 21.7843C9.07877 21.7811 10.1728 21.7859 11.2669 21.782C11.266 20.616 11.2657 19.4497 11.2669 18.2837Z" fill="#4B4B4B"/>
<path d="M8.59826 1.80911C9.51013 1.78909 12.965 1.78977 13.8771 1.7891C14.0863 1.78707 14.2941 1.87682 14.4345 2.03224C14.6369 2.2457 14.6898 2.58265 14.5656 2.84896C14.4516 3.10583 14.1832 3.286 13.9011 3.28825C13.1438 3.28983 9.8437 3.28848 9.08613 3.29995C8.10251 3.31592 7.11755 3.34471 6.13865 3.44795C5.60939 3.50756 5.07856 3.58246 4.56819 3.73901C4.33022 3.81616 4.08617 3.90501 3.89813 4.07573C3.71728 4.23318 3.55039 4.40773 3.41048 4.60274C3.1824 4.92484 3.05487 5.30587 2.97367 5.68915C2.86705 6.19952 2.82926 6.72113 2.80407 7.24117C2.76426 8.16315 2.77055 9.08626 2.76943 10.0092C2.77055 10.9345 2.76628 11.8601 2.77258 12.7857C2.77798 13.2859 2.78652 13.7866 2.82566 14.2855C2.86457 14.7318 2.91653 15.1852 3.08546 15.6036C3.21052 15.916 3.43612 16.1891 3.72831 16.3582C4.04546 16.5427 4.41074 16.6203 4.76996 16.6738C5.35005 16.7546 5.93667 16.7678 6.52148 16.7782C7.66188 16.7903 8.80227 16.7818 9.94289 16.7845C12.199 16.7843 14.455 16.7847 16.7113 16.7843C17.4774 16.7789 18.2455 16.7827 19.0087 16.7053C19.3855 16.663 19.7672 16.6041 20.1178 16.4529C20.3812 16.3405 20.6147 16.1563 20.7769 15.9194C20.9469 15.6731 21.0373 15.3825 21.0988 15.0926C21.1536 14.8265 21.1844 14.5561 21.2065 14.2855C21.2456 13.7868 21.2542 13.2862 21.2596 12.7861C21.2656 12.0403 21.2625 11.2946 21.2632 10.5488C21.2596 10.3551 21.3343 10.1614 21.4683 10.0215C21.6696 9.80222 22.0072 9.72664 22.2835 9.8373C22.563 9.9419 22.763 10.2267 22.7626 10.5258C22.7614 11.4782 22.7686 12.4307 22.7509 13.3831C22.7646 13.5561 22.7356 13.7277 22.7322 13.9004C22.7086 14.3984 22.6692 14.8973 22.5689 15.3865C22.4825 15.8074 22.3453 16.2219 22.1251 16.5931C21.8109 17.1275 21.3253 17.5569 20.7593 17.8088C20.3299 18.0032 19.8655 18.1062 19.4001 18.1687C18.9046 18.2339 18.4045 18.2569 17.9054 18.2704C17.2232 18.2872 16.5406 18.2834 15.8581 18.2839C14.8275 18.2839 13.7966 18.2841 12.7658 18.2839C12.266 18.2839 11.7664 18.2839 11.2666 18.2839C10.1199 18.2841 8.97344 18.2839 7.82675 18.2839C7.16703 18.2839 6.50686 18.285 5.84759 18.2618C5.37299 18.2436 4.89772 18.2141 4.42851 18.1386C3.99215 18.0679 3.55871 17.9537 3.16148 17.7562C2.60613 17.482 2.13873 17.033 1.84699 16.4865C1.63488 16.0948 1.50982 15.6619 1.43222 15.2248C1.34427 14.7295 1.31323 14.2264 1.29209 13.7243C1.26128 13.5369 1.29052 13.3476 1.2777 13.1591C1.26577 12.4314 1.27095 11.7038 1.26982 10.9759C1.27117 10.0771 1.26555 9.17826 1.27635 8.27944C1.29119 7.39254 1.30964 6.5007 1.45921 5.62415C1.54694 5.1221 1.68684 4.62456 1.92302 4.17087C2.17786 3.67288 2.55462 3.24551 2.98109 2.88743C3.32186 2.60154 3.73865 2.42497 4.1604 2.29541C4.72339 2.12581 5.30641 2.03427 5.88943 1.96679C6.78892 1.86647 7.69404 1.83003 8.59826 1.80911Z" fill="#4B4B4B"/>
<path opacity="0.7" d="M12.355 6.22396C12.5299 6.17807 12.7274 6.26165 12.8171 6.41848C12.8556 6.48316 12.8758 6.55842 12.8754 6.63356C12.8751 7.01606 12.8758 7.39856 12.875 7.78106C12.8732 7.97925 12.7115 8.15953 12.5149 8.18374C12.3262 8.21462 12.1281 8.09738 12.0626 7.91835C12.0424 7.86667 12.0338 7.81094 12.0347 7.75547C12.0352 7.37713 12.0344 6.99879 12.0352 6.62058C12.0367 6.43613 12.1756 6.26518 12.355 6.22396Z" fill="#4B4B4B"/>
<path opacity="0.7" d="M8.57334 10.0081C8.60423 10.0007 8.636 9.9972 8.66777 9.99707C9.0504 9.9972 9.4329 9.99695 9.81552 9.9972C10.0085 9.99758 10.1866 10.1494 10.2187 10.3395C10.2536 10.51 10.1681 10.695 10.0171 10.7805C9.95256 10.8183 9.8778 10.8377 9.80317 10.8376C9.42521 10.8376 9.04712 10.8377 8.66916 10.8375C8.54952 10.8379 8.43139 10.7839 8.35322 10.6934C8.24468 10.5717 8.21883 10.3853 8.28956 10.2385C8.34276 10.124 8.4503 10.0366 8.57334 10.0081Z" fill="#4B4B4B"/>
<path opacity="0.5" d="M9.5957 7.25912C9.7345 7.22143 9.89196 7.26114 9.99446 7.3625C10.2785 7.64629 10.5621 7.9302 10.846 8.21398C10.8799 8.24739 10.9147 8.28068 10.94 8.32152C11.0187 8.44343 11.0271 8.60707 10.9606 8.73617C10.8976 8.86363 10.766 8.95402 10.6241 8.96562C10.4785 8.98226 10.3371 8.91053 10.2449 8.80059C9.96156 8.51693 9.67752 8.23378 9.39449 7.94974C9.26615 7.81598 9.24711 7.59447 9.34885 7.43991C9.40495 7.35166 9.49446 7.28547 9.5957 7.25912Z" fill="#4B4B4B"/>
<path opacity="0.5" d="M11.4224 9.37584C11.5437 9.23704 11.7245 9.15282 11.9091 9.15169C12.1428 9.14854 12.3638 9.24044 12.5717 9.33815C12.9441 9.52007 13.299 9.73515 13.6598 9.9385C14.1139 10.1986 14.5688 10.4574 15.0225 10.7181C15.1906 10.8186 15.3657 10.9169 15.4967 11.0653C15.6013 11.1822 15.6594 11.3413 15.6434 11.4985C15.6299 11.6633 15.535 11.8086 15.4193 11.9216C15.222 12.112 14.9909 12.2619 14.7737 12.4278C14.9358 12.6567 15.0978 12.8858 15.2598 13.1147C15.3893 13.3011 15.5257 13.4826 15.6495 13.6727C15.7807 13.871 15.7824 14.1412 15.6627 14.3451C15.5959 14.4646 15.4823 14.5458 15.3748 14.6256C15.2817 14.6925 15.1921 14.7655 15.0896 14.8178C14.8604 14.9339 14.5602 14.8858 14.3789 14.7039C14.3025 14.6272 14.2433 14.5361 14.1804 14.4486C13.9339 14.1016 13.69 13.7528 13.4418 13.4071C13.316 13.5009 13.19 13.5942 13.0624 13.6855C12.9339 13.7754 12.8032 13.8661 12.6555 13.9218C12.517 13.9751 12.3578 13.983 12.22 13.9234C12.0807 13.8673 11.9748 13.749 11.9131 13.6144C11.8307 13.4362 11.7974 13.2409 11.7584 13.0499C11.618 12.3046 11.4753 11.5598 11.337 10.8142C11.2878 10.5281 11.2341 10.2404 11.2364 9.94909C11.2387 9.74624 11.284 9.53142 11.4224 9.37584ZM11.8368 9.83374C11.8143 9.95275 11.8262 10.075 11.8373 10.1948C11.8671 10.4616 11.9189 10.7251 11.9676 10.9888C12.0955 11.6635 12.2215 12.3385 12.3509 13.0129C12.3776 13.1337 12.3961 13.2588 12.4499 13.3714C12.583 13.3125 12.698 13.221 12.8162 13.1376C12.9713 13.024 13.1259 12.9097 13.2807 12.7958C13.3245 12.7638 13.3672 12.7273 13.4205 12.7121C13.5397 12.6717 13.6809 12.7196 13.7512 12.8236C14.0503 13.2462 14.3493 13.6688 14.6483 14.0915C14.695 14.1551 14.737 14.2227 14.7894 14.2817C14.8159 14.309 14.8491 14.2777 14.8731 14.2627C14.9654 14.1955 15.0602 14.1311 15.147 14.0567C15.1844 14.0184 15.1428 13.9716 15.1206 13.9379C14.8134 13.5008 14.5037 13.0654 14.1955 12.6291C14.1589 12.5734 14.1117 12.5233 14.0892 12.4597C14.0457 12.3429 14.088 12.2016 14.1883 12.1279C14.362 11.9989 14.5369 11.8716 14.7106 11.7426C14.8291 11.6509 14.9571 11.5668 15.0525 11.4497C14.9717 11.3697 14.8712 11.3141 14.775 11.2552C14.3754 11.0236 13.9734 10.7963 13.5727 10.5665C13.2462 10.3809 12.9218 10.1914 12.5926 10.0105C12.4282 9.92262 12.2631 9.83323 12.0863 9.77246C12.0253 9.75368 11.961 9.73212 11.8967 9.74359C11.8574 9.75444 11.8448 9.79844 11.8368 9.83374Z" fill="#4B4B4B"/>
</svg>
