<svg width="24" height="24" viewBox="0 0 24 24" fill="none" xmlns="http://www.w3.org/2000/svg">
<path opacity="0.7" d="M16.0404 2.83389C16.3098 2.54829 16.8078 2.54049 17.085 2.81889C17.7471 3.47919 18.4074 4.14129 19.0692 4.80219C19.6878 4.18419 20.3058 3.56589 20.9241 2.94759C20.9991 2.87289 21.0714 2.79339 21.1608 2.73489C21.3441 2.61429 21.582 2.58039 21.7914 2.64669C22.0392 2.71989 22.2393 2.93199 22.2993 3.18309C22.3617 3.43029 22.2876 3.70719 22.1067 3.88749C21.4476 4.54449 20.7924 5.20509 20.1315 5.85999C20.7366 6.47619 21.3522 7.08219 21.9612 7.69449C22.0533 7.79049 22.1604 7.87629 22.2246 7.99539C22.3353 8.18949 22.3512 8.43369 22.2678 8.64069C22.1826 8.85879 21.9891 9.03129 21.7617 9.08829C21.5211 9.15399 21.2481 9.08889 21.0663 8.91729C20.3988 8.25459 19.7382 7.58469 19.0686 6.92439C18.4119 7.58379 17.7525 8.24079 17.0949 8.89929C16.9224 9.07239 16.6608 9.14919 16.422 9.09819C16.1478 9.04659 15.9159 8.82729 15.8463 8.55729C15.7929 8.36229 15.8235 8.14599 15.93 7.97379C15.9924 7.86909 16.0848 7.78779 16.1697 7.70199C16.7829 7.08849 17.3967 6.47559 18.0096 5.86149C17.349 5.20059 16.6878 4.54029 16.0275 3.87909C15.7479 3.60249 15.7551 3.10389 16.0404 2.83389Z" fill="#4B4B4B"/>
<path d="M7.52548 2.63567C8.8558 2.60373 10.1866 2.61594 11.5169 2.61407C11.9083 2.6042 12.2603 2.96159 12.2392 3.35467C12.2374 3.73412 11.8942 4.06568 11.5164 4.05676C10.5789 4.0577 9.64095 4.05582 8.70345 4.06098C7.76314 4.07413 6.81908 4.07272 5.88626 4.20375C5.43626 4.27137 4.98251 4.36859 4.57611 4.58039C4.18611 4.77998 3.8608 5.10167 3.65595 5.48911C3.45626 5.86435 3.35408 6.28231 3.28611 6.69934C3.18298 7.34977 3.15533 8.00913 3.13751 8.6666C3.1122 10.0431 3.12111 11.42 3.12251 12.7965C3.13798 13.8297 3.12908 14.8699 3.2922 15.8937C3.39017 16.4779 3.56595 17.0823 3.9808 17.5238C4.45517 18.0347 5.13767 18.285 5.80611 18.4161C5.88626 18.1399 5.95939 17.8624 6.02783 17.5834C6.11736 17.2265 6.51345 16.9851 6.87111 17.0706C7.24423 17.142 7.51001 17.5482 7.42423 17.9197C7.26111 18.6725 6.97892 19.399 6.88517 20.1668C6.86173 20.4148 6.83595 20.6825 6.95267 20.9126C7.22689 20.8788 7.48329 20.7698 7.73595 20.6642C8.72455 20.2307 9.67048 19.7075 10.6549 19.2647C11.3374 18.9618 12.047 18.7044 12.7877 18.5879C13.5756 18.4654 14.3758 18.5039 15.1699 18.4964C16.143 18.4823 17.1199 18.4874 18.086 18.3559C18.5833 18.2827 19.0891 18.1756 19.5278 17.9183C19.9188 17.6928 20.2295 17.3378 20.4138 16.9264C20.6322 16.4422 20.718 15.9111 20.7756 15.3865C20.8914 14.2453 20.8661 13.0966 20.8835 11.9517C20.8985 11.6544 21.1183 11.3853 21.4042 11.3064C21.7122 11.2106 22.0703 11.3623 22.2245 11.6445C22.3169 11.792 22.3244 11.9714 22.3202 12.1404C22.3094 13.3126 22.3244 14.4881 22.195 15.6547C22.1003 16.4568 21.9222 17.273 21.4895 17.9657C21.0799 18.6288 20.4461 19.1426 19.7233 19.4267C18.8425 19.7728 17.8881 19.8541 16.9516 19.9015C16.2485 19.9329 15.5439 19.9381 14.8403 19.9395C14.1194 19.9494 13.3886 19.9104 12.6813 20.0781C11.6749 20.3152 10.757 20.8093 9.83642 21.2639C9.2308 21.5588 8.62986 21.865 8.00455 22.1153C7.5747 22.2792 7.10548 22.4102 6.64376 22.3154C6.15673 22.2158 5.76111 21.8307 5.58205 21.3747C5.38517 20.8835 5.4058 20.3382 5.47705 19.8235C4.4622 19.6183 3.45158 19.1665 2.78501 18.348C2.14986 17.5867 1.90892 16.5869 1.80158 15.6218C1.67314 14.4355 1.68908 13.2403 1.68064 12.0489C1.68111 10.9997 1.67501 9.95056 1.69376 8.90142C1.71908 7.80437 1.74673 6.68854 2.05423 5.62672C2.27126 4.85465 2.71892 4.14082 3.35783 3.651C3.93111 3.19969 4.63845 2.96018 5.34814 2.82962C6.06626 2.69813 6.79705 2.65868 7.52548 2.63567Z" fill="#4B4B4B"/>
</svg>
