<svg width="25" height="25" viewBox="0 0 25 25" fill="none" xmlns="http://www.w3.org/2000/svg">
<path d="M11.24 1.77786C13.0077 1.64695 14.8098 1.97872 16.4086 2.7464C17.9092 3.46078 19.2275 4.55034 20.2201 5.8826C21.0663 7.01782 21.6738 8.33006 21.9873 9.7109C22.5121 11.9971 22.2265 14.4637 21.1736 16.5614C20.418 18.0819 19.2754 19.4063 17.8873 20.3831C16.4379 21.4057 14.7181 22.0406 12.9512 22.201C11.3441 22.3493 9.70146 22.1182 8.20186 21.5199C6.80347 20.9621 5.53262 20.0901 4.50581 18.9893C3.40546 17.8144 2.58851 16.376 2.14563 14.8283C1.89123 13.9445 1.75965 13.0259 1.7502 12.1064C1.73175 10.522 2.08467 8.93354 2.78218 7.51019C3.52849 5.97617 4.66641 4.63626 6.05625 3.64725C7.56936 2.56466 9.38409 1.91011 11.24 1.77786ZM11.7767 3.25227C10.0654 3.29073 8.37101 3.84923 6.97239 4.83578C5.65588 5.76046 4.59916 7.05313 3.96283 8.53114C3.38949 9.85373 3.15713 11.32 3.28152 12.7553C3.40748 14.2482 3.92909 15.7053 4.77798 16.9397C5.66892 18.242 6.91908 19.2952 8.35346 19.9531C9.73048 20.586 11.2742 20.8465 12.7828 20.7097C14.2673 20.5802 15.7145 20.0583 16.9422 19.2142C17.9553 18.5182 18.8192 17.6071 19.4618 16.5593C20.2419 15.2914 20.6846 13.8197 20.737 12.332C20.799 10.7741 20.4376 9.20099 19.6908 7.83161C18.9425 6.45347 17.8187 5.28069 16.4705 4.47881C15.064 3.636 13.4148 3.21021 11.7767 3.25227Z" fill="#4B4B4B"/>
<path d="M20.3033 19.7682C20.5307 19.7079 20.7862 19.7626 20.9673 19.9135C21.6675 20.607 22.3625 21.306 23.0589 22.0031C23.3148 22.2825 23.2969 22.7616 23.0238 23.0232C22.7554 23.3063 22.2557 23.3162 21.9797 23.0396C21.349 22.4104 20.7192 21.7806 20.09 21.1502C20.0059 21.062 19.9087 20.9837 19.8467 20.8773C19.7299 20.6814 19.7135 20.432 19.7942 20.2199C19.877 19.9985 20.0752 19.8265 20.3033 19.7682Z" fill="#4B4B4B"/>
<path d="M11.6872 6.92087C12.1739 6.88353 12.6721 7.00049 13.0892 7.25489C13.6391 7.58554 14.0444 8.14921 14.1771 8.77744C14.2939 9.31592 14.2165 9.89511 13.9576 10.3819C13.6229 11.0222 12.9796 11.4921 12.2657 11.6086C11.5509 11.735 10.7836 11.5083 10.2559 11.009C9.91472 10.6902 9.66752 10.2703 9.56338 9.81482C9.45384 9.34404 9.49275 8.84019 9.67382 8.39213C9.99525 7.57407 10.8093 6.97733 11.6872 6.92087ZM11.7533 8.01898C11.3525 8.05137 10.9771 8.29159 10.7758 8.63888C10.5981 8.93691 10.5551 9.31007 10.6554 9.64184C10.7467 9.95225 10.9649 10.2213 11.2461 10.3803C11.5225 10.5375 11.8592 10.5818 12.1676 10.5062C12.4953 10.4271 12.7866 10.2093 12.9564 9.91828C13.0991 9.67828 13.156 9.38992 13.1195 9.11348C13.0815 8.8096 12.9261 8.52349 12.6944 8.32353C12.4396 8.09905 12.0909 7.98794 11.7533 8.01898Z" fill="#4B4B4B"/>
<path opacity="0.5" d="M11.4643 11.92C12.463 11.8482 13.4889 11.969 14.4147 12.3631C14.9739 12.604 15.5076 12.9576 15.8524 13.4693C15.9946 13.6816 16.0992 13.9207 16.1453 14.1726C16.186 14.3814 16.1741 14.5948 16.1721 14.806C16.1644 15.1637 16.1118 15.5307 15.9404 15.8495C15.7704 16.1756 15.482 16.4293 15.1565 16.5942C14.8151 16.7694 14.4406 16.8689 14.0643 16.9357C13.5665 17.0232 13.0611 17.0578 12.5563 17.0733C12.0313 17.087 11.5057 17.0828 10.9814 17.0531C10.4989 17.0245 10.016 16.9707 9.5461 16.854C9.18531 16.7627 8.82879 16.6275 8.52941 16.4019C8.2523 16.197 8.04132 15.9044 7.93627 15.576C7.8508 15.3135 7.82448 15.0361 7.81998 14.7615C7.81729 14.5433 7.80919 14.322 7.86137 14.1083C7.95539 13.6856 8.20934 13.3136 8.52559 13.0241C9.02651 12.5662 9.66396 12.2859 10.3133 12.1109C10.6899 12.011 11.0761 11.9496 11.4643 11.92ZM11.617 13.012C10.9593 13.0547 10.2985 13.2018 9.71592 13.5183C9.42351 13.6834 9.1365 13.896 8.98535 14.2048C8.8866 14.4057 8.92349 14.6351 8.92506 14.8506C8.93429 15.0674 8.95993 15.3121 9.12683 15.47C9.34006 15.6569 9.61897 15.7417 9.88979 15.8047C10.5126 15.9451 11.1543 15.97 11.7904 15.9795C12.3692 15.9842 12.9497 15.973 13.5249 15.9037C13.8974 15.8562 14.2752 15.7939 14.6183 15.6338C14.7732 15.5598 14.9264 15.4511 14.9921 15.286C15.0877 15.0406 15.0663 14.7721 15.0753 14.5141C15.0805 14.3112 14.9831 14.1209 14.8547 13.9695C14.6266 13.7048 14.3184 13.523 14.0024 13.3824C13.2541 13.0626 12.425 12.9627 11.617 13.012Z" fill="#4B4B4B"/>
</svg>
