<svg width="24" height="25" viewBox="0 0 24 25" fill="none" xmlns="http://www.w3.org/2000/svg">
<path opacity="0.5" d="M11.5256 1.7749C12.1469 1.70337 12.7751 1.78817 13.3768 1.94697C14.1488 2.15053 14.8989 2.42697 15.6549 2.68159C16.5688 2.99537 17.4845 3.30442 18.3936 3.63215C18.8721 3.80602 19.3498 3.98371 19.8161 4.1884C20.1733 4.3481 20.5302 4.51904 20.8429 4.75724C21.0656 4.92549 21.2563 5.14097 21.3715 5.39694C21.5534 5.79507 21.6108 6.23503 21.6553 6.66645C21.7262 7.451 21.7309 8.23983 21.7392 9.02708C21.7446 9.83616 21.7428 10.6452 21.7431 11.4543C21.7379 12.0985 21.7613 12.744 21.7089 13.3871C21.6286 14.4326 21.3964 15.4684 21.0006 16.4403C20.4495 17.8061 19.5743 19.0297 18.5063 20.0394C17.3729 21.1135 16.0379 21.9614 14.6202 22.6081C14.2455 22.7739 13.8723 22.9478 13.4787 23.0643C13.0183 23.2022 12.5351 23.2404 12.0567 23.2429C11.4276 23.2507 10.7879 23.19 10.1979 22.9586C8.9612 22.4718 7.77717 21.8422 6.70471 21.0554C5.57016 20.2232 4.56248 19.2049 3.80559 18.0151C3.38137 17.349 3.03656 16.632 2.78531 15.8832C2.48908 15.0055 2.32128 14.0864 2.26865 13.1622C2.2394 12.6833 2.252 12.2035 2.2493 11.7242C2.25178 10.4572 2.24053 9.19016 2.26999 7.92358C2.28821 7.32909 2.30778 6.73213 2.40473 6.14439C2.47288 5.75166 2.5849 5.34678 2.84964 5.03796C3.11326 4.7325 3.47044 4.52939 3.82673 4.35057C4.4869 4.0305 5.17946 3.78397 5.86887 3.5352C6.84821 3.18746 7.83296 2.85546 8.8159 2.51784C9.40229 2.31878 9.98733 2.11275 10.5865 1.95462C10.8951 1.87387 11.2083 1.80842 11.5256 1.7749ZM11.7497 3.25921C11.1115 3.31904 10.5042 3.5397 9.89826 3.73516C9.1245 3.99496 8.35322 4.26172 7.58126 4.52602C6.81065 4.79256 6.03869 5.0564 5.2791 5.35376C4.92304 5.49659 4.56585 5.64144 4.23296 5.83353C4.14681 5.88819 4.05324 5.93835 3.98756 6.01775C3.93987 6.11042 3.92008 6.21456 3.89804 6.31556C3.83371 6.65205 3.81166 6.99462 3.79254 7.33584C3.74868 8.24298 3.75273 9.15147 3.74868 10.0595C3.74891 10.8166 3.74868 11.574 3.74868 12.3313C3.72979 13.5986 3.94865 14.8771 4.45586 16.042C5.01751 17.3493 5.92713 18.4894 7.01579 19.3979C8.11412 20.3181 9.38272 21.0203 10.7109 21.5494C11.2004 21.7466 11.738 21.7523 12.2578 21.739C12.6129 21.7302 12.9699 21.6762 13.3008 21.5422C14.171 21.1933 15.0143 20.7725 15.802 20.2623C16.6889 19.6888 17.5079 19.002 18.1916 18.1948C19.0043 17.2406 19.6123 16.1097 19.9355 14.8973C20.1573 14.0772 20.2518 13.2256 20.2437 12.377C20.2394 10.8927 20.2561 9.40812 20.2225 7.92403C20.2041 7.39027 20.1913 6.85314 20.0966 6.32635C20.07 6.21501 20.0559 6.09333 19.9891 5.99773C19.8116 5.83983 19.5916 5.74019 19.3797 5.63694C18.7151 5.33239 18.0234 5.09194 17.3353 4.84677C16.3564 4.50397 15.3742 4.17085 14.3928 3.83526C13.916 3.67578 13.4398 3.51158 12.9524 3.38585C12.561 3.2844 12.1545 3.223 11.7497 3.25921Z" fill="#4B4B4B"/>
<path d="M10.1981 7.7081C10.9152 7.31223 11.7647 7.16422 12.5736 7.29311C13.3422 7.41187 14.0714 7.77626 14.6247 8.32351C15.1834 8.87189 15.564 9.59954 15.6931 10.3719C15.824 11.1396 15.7059 11.9467 15.3627 12.6455C15.0687 13.2499 14.6072 13.7713 14.043 14.1368C13.6492 14.3939 13.2068 14.5759 12.7461 14.6708C12.7459 15.4432 12.7461 16.2156 12.7461 16.988C12.7492 17.1974 12.6588 17.4053 12.5043 17.5463C12.2933 17.7454 11.9629 17.8011 11.6979 17.6831C11.491 17.5944 11.3297 17.408 11.2724 17.1902C11.2402 17.0805 11.2465 16.9653 11.2465 16.8524C11.2463 16.125 11.2467 15.3973 11.2463 14.6697C10.5416 14.5255 9.87892 14.1762 9.3672 13.6696C8.8177 13.1298 8.44072 12.4168 8.30576 11.6583C8.15865 10.8488 8.29114 9.99272 8.67217 9.26394C9.01046 8.6085 9.55007 8.06012 10.1981 7.7081ZM11.6633 8.7718C11.3785 8.81408 11.1028 8.91305 10.8549 9.05903C10.2345 9.41757 9.81256 10.0894 9.75565 10.8034C9.683 11.5576 10.0292 12.3331 10.6347 12.7872C11.0555 13.1084 11.5924 13.2726 12.1208 13.2425C12.8086 13.2085 13.4695 12.8356 13.8543 12.2645C14.1452 11.8396 14.283 11.3128 14.2372 10.8C14.1989 10.347 14.0158 9.90904 13.7263 9.55928C13.2382 8.96074 12.426 8.65236 11.6633 8.7718Z" fill="#4B4B4B"/>
</svg>
