<svg width="24" height="24" viewBox="0 0 24 24" fill="none" xmlns="http://www.w3.org/2000/svg">
<path opacity="0.5" d="M11.5254 1.2749C12.1466 1.20337 12.7749 1.28817 13.3765 1.44697C14.1485 1.65053 14.8986 1.92697 15.6546 2.18159C16.5685 2.49537 17.4842 2.80442 18.3934 3.13215C18.8718 3.30602 19.3495 3.48371 19.8158 3.6884C20.173 3.8481 20.53 4.01904 20.8426 4.25724C21.0653 4.42549 21.2561 4.64097 21.3712 4.89694C21.5532 5.29507 21.6105 5.73503 21.6551 6.16645C21.7259 6.951 21.7307 7.73983 21.739 8.52708C21.7444 9.33616 21.7426 10.1452 21.7428 10.9543C21.7376 11.5985 21.761 12.244 21.7086 12.8871C21.6283 13.9326 21.3962 14.9684 21.0003 15.9403C20.4492 17.3061 19.574 18.5297 18.5061 19.5394C17.3726 20.6135 16.0377 21.4614 14.6199 22.1081C14.2452 22.2739 13.8721 22.4478 13.4784 22.5643C13.018 22.7022 12.5349 22.7404 12.0564 22.7429C11.4273 22.7507 10.7876 22.69 10.1976 22.4586C8.9609 21.9718 7.77687 21.3422 6.70441 20.5554C5.56986 19.7232 4.56218 18.7049 3.80529 17.5151C3.38107 16.849 3.03625 16.132 2.78501 15.3832C2.48878 14.5055 2.32098 13.5864 2.26834 12.6622C2.2391 12.1833 2.2517 11.7035 2.249 11.2242C2.25147 9.95719 2.24023 8.69016 2.26969 7.42358C2.28791 6.82909 2.30748 6.23213 2.40443 5.64439C2.47258 5.25166 2.5846 4.84678 2.84934 4.53796C3.11296 4.2325 3.47014 4.02939 3.82643 3.85057C4.4866 3.5305 5.17916 3.28397 5.86857 3.0352C6.84791 2.68746 7.83266 2.35546 8.8156 2.01784C9.40199 1.81878 9.98703 1.61275 10.5863 1.45462C10.8949 1.37387 11.208 1.30842 11.5254 1.2749ZM11.7494 2.75921C11.1113 2.81904 10.504 3.0397 9.89796 3.23516C9.1242 3.49496 8.35292 3.76172 7.58096 4.02602C6.81035 4.29256 6.03839 4.5564 5.2788 4.85376C4.92274 4.99659 4.56555 5.14144 4.23266 5.33353C4.14651 5.38819 4.05294 5.43835 3.98726 5.51775C3.93957 5.61042 3.91978 5.71456 3.89774 5.81556C3.83341 6.15205 3.81136 6.49462 3.79224 6.83584C3.74838 7.74298 3.75243 8.65147 3.74838 9.55951C3.74861 10.3166 3.74838 11.074 3.74838 11.8313C3.72949 13.0986 3.94834 14.3771 4.45556 15.542C5.01721 16.8493 5.92683 17.9894 7.01549 18.8979C8.11382 19.8181 9.38242 20.5203 10.7107 21.0494C11.2001 21.2466 11.7377 21.2523 12.2575 21.239C12.6127 21.2302 12.9696 21.1762 13.3005 21.0422C14.1708 20.6933 15.014 20.2725 15.8017 19.7623C16.6886 19.1888 17.5076 18.502 18.1914 17.6948C19.0041 16.7406 19.612 15.6097 19.9353 14.3973C20.157 13.5772 20.2515 12.7256 20.2434 11.877C20.2391 10.3927 20.2558 8.90812 20.2223 7.42403C20.2038 6.89027 20.191 6.35314 20.0963 5.82635C20.0698 5.71501 20.0556 5.59333 19.9888 5.49773C19.8113 5.33983 19.5913 5.24019 19.3795 5.13694C18.7148 4.83239 18.0231 4.59194 17.3351 4.34677C16.3562 4.00397 15.3739 3.67085 14.3925 3.33526C13.9157 3.17578 13.4395 3.01158 12.9521 2.88585C12.5607 2.7844 12.1543 2.723 11.7494 2.75921Z" fill="#4B4B4B"/>
<path d="M10.198 7.20792C10.9151 6.81205 11.7647 6.66404 12.5735 6.79293C13.3421 6.91169 14.0713 7.27608 14.6246 7.82333C15.1834 8.37171 15.564 9.09936 15.6931 9.87177C15.824 10.6394 15.7059 11.4465 15.3626 12.1453C15.0687 12.7497 14.6071 13.2711 14.043 13.6366C13.6491 13.8937 13.2067 14.0757 12.746 14.1706C12.7458 14.943 12.746 15.7154 12.746 16.4878C12.7492 16.6972 12.6588 16.9051 12.5042 17.0461C12.2933 17.2452 11.9628 17.3009 11.6979 17.1829C11.4909 17.0942 11.3297 16.9078 11.2723 16.69C11.2401 16.5803 11.2464 16.4651 11.2464 16.3522C11.2462 15.6248 11.2467 14.8971 11.2462 14.1695C10.5415 14.0253 9.87886 13.676 9.36714 13.1694C8.81764 12.6296 8.44065 11.9166 8.3057 11.1581C8.15859 10.3486 8.29108 9.49254 8.67211 8.76376C9.0104 8.10832 9.55001 7.55994 10.198 7.20792ZM11.6632 8.27162C11.3785 8.3139 11.1027 8.41287 10.8548 8.55885C10.2345 8.91739 9.8125 9.58926 9.75559 10.3032C9.68294 11.0574 10.0291 11.8329 10.6346 12.287C11.0555 12.6082 11.5924 12.7724 12.1207 12.7423C12.8086 12.7083 13.4694 12.3354 13.8543 11.7643C14.1451 11.3394 14.283 10.8126 14.2371 10.2998C14.1989 9.8468 14.0158 9.40886 13.7263 9.0591C13.2382 8.46056 12.426 8.15218 11.6632 8.27162Z" fill="#4B4B4B"/>
</svg>
