<svg width="24" height="24" viewBox="0 0 24 24" fill="none" xmlns="http://www.w3.org/2000/svg">
<path d="M5.97119 3.35151C6.78899 3.27591 7.61099 3.26271 8.43179 3.25461C9.85079 3.24681 11.2701 3.25161 12.6891 3.25011C13.7079 3.25071 14.7267 3.24771 15.7452 3.25611C16.5264 3.26541 17.3088 3.28191 18.087 3.35751C19.053 3.45321 20.0499 3.65421 20.8584 4.22241C21.267 4.50771 21.6168 4.87611 21.8817 5.29821C22.1562 5.73411 22.3365 6.22341 22.4538 6.72351C22.6101 7.39101 22.6689 8.07651 22.7043 8.75991C22.7571 9.83902 22.7478 10.9199 22.7493 11.9999C22.7535 12.2567 22.6113 12.5075 22.3923 12.6404C22.1793 12.7733 21.8985 12.7871 21.6732 12.6767C21.4287 12.56 21.2574 12.3035 21.2505 12.032C21.246 11.6036 21.2523 11.1752 21.2472 10.7471C21.2439 10.1639 21.24 9.58012 21.2142 8.99752C21.1809 8.30722 21.1356 7.61121 20.9619 6.93951C20.8422 6.47871 20.634 6.02811 20.2878 5.69331C19.977 5.37951 19.5681 5.18181 19.1472 5.06271C18.5796 4.90251 17.9895 4.84551 17.4033 4.80741C16.6134 4.75971 15.8217 4.75551 15.0306 4.75191C13.9794 4.74891 12.9285 4.75071 11.8773 4.75011C10.4184 4.75431 8.95919 4.73901 7.50059 4.76961C6.70109 4.79421 5.89529 4.82451 5.11109 4.99641C4.57799 5.11371 4.04609 5.33271 3.66689 5.73831C3.23039 6.18681 3.03959 6.80811 2.93579 7.41081C2.84519 7.93491 2.80919 8.46651 2.78519 8.99691C2.75939 9.57981 2.75549 10.1639 2.75219 10.7474C2.75069 11.9351 2.74259 13.1231 2.76389 14.3108C2.78369 15.104 2.80949 15.9017 2.95229 16.6841C3.05489 17.228 3.23279 17.7812 3.60899 18.2009C3.89639 18.5297 4.28429 18.7571 4.69739 18.8906C5.28089 19.082 5.89649 19.1444 6.50609 19.1885C7.28639 19.2398 8.06849 19.2446 8.84999 19.2497C10.5792 19.2539 12.3084 19.2491 14.0379 19.2524C14.3754 19.262 14.6808 19.5308 14.7369 19.8632C14.8023 20.1818 14.6301 20.5283 14.3379 20.6708C14.2185 20.7323 14.0826 20.7551 13.9491 20.7518C12.2301 20.75 10.5108 20.7536 8.79149 20.7497C7.99019 20.7446 7.18799 20.7374 6.38819 20.6837C5.78519 20.642 5.18129 20.5739 4.59479 20.4233C4.11329 20.2997 3.64439 20.1134 3.22859 19.8389C2.77619 19.5419 2.39069 19.1444 2.10569 18.6845C1.84499 18.2639 1.66979 17.795 1.55459 17.3153C1.40279 16.6847 1.34069 16.037 1.30289 15.3911C1.25429 14.5013 1.25189 13.61 1.25039 12.719C1.25369 11.5394 1.23809 10.3592 1.27739 9.17991C1.30319 8.47761 1.34489 7.77291 1.47119 7.08051C1.58759 6.44271 1.78619 5.81001 2.14019 5.26221C2.55689 4.61091 3.18239 4.10091 3.89729 3.80931C4.55579 3.53661 5.26559 3.41961 5.97119 3.35151Z" fill="#4B4B4B"/>
<path d="M18.7723 13.2851C19 13.2113 19.2616 13.2557 19.4518 13.4015C19.6324 13.5359 19.7458 13.7549 19.7491 13.9802C19.7494 15.383 19.7491 16.7858 19.7491 18.1886C19.9522 17.9921 20.149 17.7896 20.35 17.5907C20.4361 17.5067 20.515 17.4122 20.6215 17.3525C20.83 17.228 21.1006 17.2166 21.3196 17.3216C21.5218 17.4164 21.6787 17.606 21.7288 17.8244C21.7912 18.0728 21.7138 18.3515 21.5293 18.53C20.854 19.2047 20.1799 19.8809 19.5034 20.5547C19.2244 20.8232 18.7378 20.8109 18.4705 20.5316C17.8006 19.8614 17.1301 19.1918 16.4608 18.5213C16.2499 18.3095 16.1902 17.9672 16.3138 17.6954C16.4266 17.4362 16.6951 17.2547 16.9783 17.2502C17.1772 17.2442 17.3773 17.3201 17.5195 17.4596C17.7628 17.7014 18.0031 17.9465 18.2482 18.1862C18.2503 16.8539 18.2485 15.5213 18.2491 14.1887C18.2506 14.0693 18.241 13.9484 18.2689 13.8314C18.3247 13.5776 18.5242 13.3622 18.7723 13.2851Z" fill="#4B4B4B"/>
<path opacity="0.5" d="M2.75 10.7505C2.7533 10.167 2.7572 9.5829 2.783 9C2.7809 9.0837 2.7812 9.1677 2.7818 9.2517C8.9258 9.2544 15.0698 9.2544 21.2141 9.2517C21.2141 9.168 21.2141 9.0843 21.212 9.0006C21.2378 9.5832 21.2417 10.167 21.245 10.7502C18.0824 10.7574 14.9195 10.7511 11.7569 10.7532C8.7545 10.7514 5.7521 10.7571 2.75 10.7505Z" fill="#4B4B4B"/>
<path opacity="0.5" d="M5.89354 15.2593C6.31864 15.2407 6.74524 15.2566 7.17124 15.2512C8.11144 15.2515 9.05134 15.2509 9.99154 15.2515C10.2006 15.2488 10.4088 15.337 10.5495 15.4921C10.7508 15.7018 10.8069 16.0339 10.6887 16.2991C10.5783 16.5619 10.3077 16.7482 10.0218 16.7509C8.68114 16.7521 7.34074 16.7509 6.00004 16.7515C5.74294 16.7557 5.49244 16.6126 5.35984 16.3936C5.23624 16.1938 5.21524 15.9349 5.30554 15.7183C5.40214 15.4759 5.63434 15.2935 5.89354 15.2593Z" fill="#4B4B4B"/>
<path opacity="0.5" d="M12.4029 15.2575C12.5385 15.2443 12.675 15.253 12.8109 15.2506C12.9399 15.2518 13.0722 15.2416 13.1982 15.2776C13.4322 15.3397 13.6293 15.5245 13.7082 15.7534C13.788 15.9781 13.752 16.24 13.6128 16.4341C13.4796 16.6255 13.2528 16.7479 13.0191 16.7503C12.849 16.7518 12.6789 16.75 12.5088 16.7512C12.2952 16.7557 12.0828 16.6612 11.9412 16.5016C11.7537 16.2979 11.6982 15.9859 11.8011 15.7294C11.8959 15.478 12.1362 15.2896 12.4029 15.2575Z" fill="#4B4B4B"/>
</svg>
