<svg width="24" height="24" viewBox="0 0 24 24" fill="none" xmlns="http://www.w3.org/2000/svg">
<path d="M5.54669 3.39972C6.84119 3.23952 8.14859 3.26052 9.45029 3.25062C11.5902 3.25422 13.7298 3.24312 15.8697 3.25812C16.6512 3.26892 17.4342 3.28782 18.2121 3.37092C18.8625 3.44292 19.515 3.56292 20.1207 3.81762C20.8818 4.13172 21.5379 4.69572 21.9495 5.40972C22.248 5.92332 22.4226 6.49902 22.5288 7.08072C22.6458 7.72452 22.6899 8.37852 22.7169 9.03132C22.7556 10.0303 22.7493 11.0302 22.749 12.0295C22.7457 12.4132 22.4031 12.7501 22.02 12.7513C21.6342 12.7711 21.2727 12.4465 21.2523 12.0604C21.2442 11.623 21.2535 11.1856 21.2475 10.7482C21.2442 10.1644 21.2403 9.58002 21.2145 8.99682C21.1818 8.31552 21.1365 7.62912 20.9688 6.96552C20.8515 6.50292 20.6478 6.04902 20.304 5.70972C20.0073 5.40432 19.6182 5.20452 19.2135 5.08302C18.6648 4.91772 18.0915 4.85712 17.5221 4.81542C16.7022 4.76082 15.8799 4.75662 15.0585 4.75242C14.0091 4.74942 12.96 4.75122 11.9106 4.75062C10.4811 4.75422 9.05129 4.74102 7.62179 4.76712C6.79829 4.78992 5.96849 4.81692 5.15969 4.98612C4.60289 5.10312 4.04399 5.32692 3.65219 5.75442C3.19559 6.23472 3.01499 6.89952 2.91509 7.53762C2.84009 8.02062 2.80739 8.50902 2.78579 8.99682C2.75999 9.58032 2.75549 10.1644 2.75249 10.7485C2.75099 11.9461 2.74259 13.144 2.76509 14.3416C2.78399 15.1036 2.81069 15.8692 2.94119 16.6216C3.03359 17.1328 3.18299 17.6518 3.50219 18.0712C3.77369 18.4321 4.15919 18.6979 4.58249 18.8506C5.18939 19.0726 5.83889 19.1389 6.47939 19.1872C7.26899 19.2403 8.06069 19.2451 8.85149 19.2502C10.5804 19.2544 12.3093 19.2496 14.0379 19.2529C14.4387 19.2613 14.7801 19.6399 14.7492 20.0395C14.7387 20.422 14.3949 20.7547 14.0121 20.7511C12.2715 20.752 10.5309 20.7532 8.79059 20.7502C8.10059 20.746 7.41059 20.7394 6.72149 20.7043C6.09629 20.6707 5.46959 20.6167 4.85639 20.4856C4.35509 20.3782 3.86219 20.2132 3.41699 19.9555C2.97179 19.699 2.58089 19.3492 2.27549 18.9355C1.97579 18.5308 1.76579 18.0649 1.62569 17.5825C1.46729 17.0356 1.38869 16.4692 1.33919 15.9031C1.26989 15.0745 1.25939 14.2429 1.25249 13.4119C1.24949 12.2521 1.24739 11.0923 1.25729 9.93252C1.27679 9.12042 1.29629 8.30592 1.40489 7.49982C1.48649 6.89952 1.62029 6.29982 1.87529 5.74752C2.20199 5.02722 2.76089 4.41402 3.45149 4.02732C4.09259 3.66462 4.82189 3.49482 5.54669 3.39972Z" fill="#4B4B4B"/>
<path d="M18.6658 13.3276C18.9379 13.1887 19.2931 13.2397 19.5127 13.4533C20.1736 14.113 20.8333 14.7745 21.4942 15.4342C21.7753 15.6748 21.8347 16.1269 21.6157 16.4272C21.4345 16.6978 21.0673 16.8187 20.7604 16.7113C20.6482 16.6744 20.5471 16.6081 20.464 16.525C20.2255 16.2868 19.9876 16.048 19.7488 15.8101C19.7488 17.2102 19.7491 18.61 19.7488 20.0101C19.7497 20.2825 19.5847 20.5453 19.3417 20.6668C19.1119 20.788 18.8191 20.7748 18.6004 20.635C18.3793 20.4985 18.2422 20.2411 18.2491 19.9816C18.2488 18.5914 18.2491 17.2009 18.2488 15.8104C18.0067 16.0513 17.7658 16.2934 17.524 16.5346C17.3827 16.6774 17.1805 16.7554 16.9801 16.7497C16.7251 16.7452 16.4791 16.5994 16.3516 16.3786C16.1821 16.0975 16.2283 15.7066 16.4635 15.4765C17.0989 14.8411 17.7343 14.2054 18.37 13.57C18.4594 13.4791 18.5479 13.3822 18.6658 13.3276Z" fill="#4B4B4B"/>
<path opacity="0.5" d="M2.75 10.7439C2.753 10.1598 2.7575 9.57569 2.7833 8.99219C2.7803 9.07619 2.78 9.16049 2.7803 9.24449C8.9249 9.24689 15.0695 9.24719 21.2141 9.24449C21.2141 9.16019 21.2141 9.07619 21.212 8.99219C21.2378 9.57539 21.2417 10.1598 21.245 10.7436C17.8922 10.7493 14.5394 10.7445 11.1866 10.746C8.3744 10.7445 5.5622 10.749 2.75 10.7439Z" fill="#4B4B4B"/>
<path opacity="0.5" d="M5.89173 15.2518C6.38733 15.2329 6.88443 15.2488 7.38063 15.2434C8.26113 15.2443 9.14133 15.2419 10.0215 15.2446C10.4106 15.2455 10.7547 15.5953 10.7499 15.9841C10.7655 16.3798 10.4187 16.744 10.0218 16.7431C8.68113 16.744 7.34043 16.7431 5.99943 16.7437C5.74953 16.7473 5.50533 16.612 5.37063 16.4026C5.24223 16.2073 5.21403 15.9508 5.29713 15.7324C5.38833 15.4798 5.62563 15.2875 5.89173 15.2518Z" fill="#4B4B4B"/>
<path opacity="0.5" d="M12.4017 15.2498C12.5379 15.2363 12.6747 15.2453 12.8112 15.2429C12.9405 15.2441 13.0728 15.2339 13.1985 15.2702C13.4325 15.3323 13.6293 15.5171 13.7082 15.7457C13.7856 15.9632 13.7544 16.2158 13.6257 16.4075C13.4937 16.6097 13.2594 16.7408 13.0176 16.7429C12.8388 16.7435 12.66 16.7432 12.4815 16.7429C12.2694 16.7405 12.0624 16.6391 11.9265 16.4771C11.7504 16.2737 11.7012 15.9716 11.8011 15.722C11.8956 15.4709 12.1356 15.2825 12.4017 15.2498Z" fill="#4B4B4B"/>
</svg>
