<svg width="24" height="24" viewBox="0 0 24 24" fill="none" xmlns="http://www.w3.org/2000/svg">
<path d="M8.41049 3.2538C9.88739 3.2454 11.3646 3.2511 12.8418 3.2493C13.7649 3.2499 14.6877 3.2475 15.6108 3.2541C16.4289 3.2622 17.2482 3.2769 18.063 3.354C18.7179 3.4194 19.3755 3.5265 19.992 3.7644C20.7717 4.0572 21.4563 4.6035 21.8931 5.3145C22.161 5.7465 22.3383 6.2289 22.4541 6.7224C22.6035 7.3605 22.6638 8.0151 22.6998 8.6685C22.7529 9.6681 22.749 10.6695 22.7493 11.6706C22.7448 13.0251 22.7691 14.382 22.674 15.7341C22.6254 16.3719 22.5444 17.0112 22.3608 17.6256C22.2174 18.1065 22.0023 18.5697 21.6972 18.9702C21.3834 19.3854 20.982 19.7343 20.5263 19.9863C19.6566 20.4678 18.6501 20.6052 17.673 20.6787C16.8429 20.7369 16.0107 20.7438 15.1791 20.7489C13.4088 20.7525 11.6388 20.7498 9.86849 20.7507C9.05999 20.7489 8.2509 20.7513 7.44239 20.7303C6.73859 20.7102 6.03359 20.6772 5.33669 20.5719C4.70519 20.4756 4.07489 20.3133 3.51059 20.0067C2.80769 19.6293 2.23409 19.0203 1.89599 18.2979C1.62299 17.7258 1.48559 17.1003 1.40129 16.4751C1.30019 15.6981 1.27499 14.9133 1.26059 14.1306C1.24409 12.9699 1.25099 11.8092 1.25249 10.6485C1.25339 10.059 1.26389 9.4698 1.28969 8.8806C1.32149 8.1984 1.37429 7.5141 1.51829 6.8451C1.64129 6.2745 1.84049 5.7132 2.16479 5.2242C2.60579 4.5507 3.27299 4.0365 4.02629 3.7572C4.66799 3.5136 5.35229 3.4077 6.03299 3.345C6.82349 3.2751 7.61729 3.2616 8.41049 3.2538ZM8.36579 4.7547C7.58189 4.7631 6.79649 4.7751 6.01619 4.8537C5.53079 4.9053 5.04299 4.9806 4.58339 5.1501C4.24079 5.2764 3.91979 5.4702 3.66809 5.7366C3.31199 6.1017 3.11549 6.5895 3.00299 7.0794C2.84159 7.7907 2.80349 8.5227 2.77589 9.2493C2.76059 9.7491 2.75309 10.2492 2.75309 10.749C2.74979 11.8764 2.74499 13.0041 2.76089 14.1312C2.77679 14.9229 2.79869 15.7176 2.92079 16.5012C3.00749 17.025 3.14279 17.559 3.45149 18C3.71579 18.381 4.10369 18.6681 4.53599 18.8313C5.12669 19.0578 5.76239 19.1286 6.38879 19.1796C7.22699 19.2399 8.06789 19.2438 8.90789 19.2489C9.84929 19.2516 10.7904 19.2504 11.7315 19.2507C13.1916 19.2477 14.6517 19.2582 16.1115 19.2393C16.9425 19.2222 17.778 19.2018 18.5994 19.0623C19.0947 18.9744 19.596 18.8349 20.0112 18.5406C20.391 18.2739 20.6751 17.8836 20.8368 17.4504C21.0528 16.8798 21.1248 16.2678 21.1755 15.6636C21.2421 14.784 21.2436 13.9011 21.2496 13.0194C21.2478 12.2625 21.2523 11.5059 21.2472 10.749C21.2469 10.2489 21.2394 9.7491 21.2241 9.2493C21.2034 8.6664 21.171 8.0823 21.0801 7.5054C21.0033 7.0359 20.8878 6.5625 20.6445 6.1491C20.4078 5.7444 20.0394 5.4213 19.6116 5.2308C19.0944 4.9992 18.5277 4.9119 17.9685 4.8519C17.2119 4.7766 16.4511 4.764 15.6918 4.755C14.6013 4.7466 13.5108 4.7502 12.4206 4.7493C11.0688 4.7508 9.71729 4.7454 8.36579 4.7547Z" fill="#4B4B4B"/>
<path opacity="0.5" d="M2.77591 9.24931C8.92531 9.24901 15.0747 9.24931 21.2241 9.24931C21.2394 9.74911 21.2469 10.2489 21.2472 10.749C15.0825 10.7499 8.91781 10.7496 2.75311 10.749C2.75311 10.2492 2.76061 9.74911 2.77591 9.24931Z" fill="#4B4B4B"/>
<path opacity="0.5" d="M5.89201 15.2574C6.38671 15.2385 6.88261 15.2544 7.37791 15.2493C8.25841 15.2499 9.13892 15.2475 10.0194 15.2505C10.4208 15.2496 10.7721 15.6204 10.7499 16.0212C10.7481 16.4067 10.4055 16.7508 10.0188 16.749C8.67931 16.7499 7.33981 16.749 6.00031 16.7496C5.76421 16.7529 5.53262 16.6335 5.39462 16.443C5.24641 16.2438 5.20892 15.9693 5.29712 15.7374C5.38862 15.4851 5.62591 15.2931 5.89201 15.2574Z" fill="#4B4B4B"/>
<path opacity="0.5" d="M12.4035 15.2559C12.9186 15.24 13.4346 15.2541 13.95 15.249C14.163 15.2394 14.3805 15.3159 14.5305 15.4695C14.7348 15.6696 14.8062 15.9915 14.7042 16.2588C14.6025 16.5438 14.3145 16.7517 14.0106 16.7493C13.5099 16.7499 13.0095 16.7487 12.5091 16.7499C12.2733 16.7547 12.0402 16.6392 11.8998 16.4502C11.7405 16.2423 11.7051 15.9483 11.8092 15.708C11.9085 15.4662 12.144 15.2874 12.4035 15.2559Z" fill="#4B4B4B"/>
</svg>
