<svg width="24" height="24" viewBox="0 0 24 24" fill="none" xmlns="http://www.w3.org/2000/svg">
<path d="M7.17031 3.27811C8.58031 3.23491 9.99121 3.25411 11.4018 3.24931C12.6414 3.25021 13.8813 3.24781 15.1209 3.25111C15.8343 3.25441 16.5483 3.26041 17.2611 3.29641C17.8914 3.32911 18.5232 3.38341 19.1415 3.51541C19.6587 3.62581 20.1672 3.79771 20.6232 4.06921C21.0699 4.33381 21.4599 4.69351 21.7611 5.11651C22.0422 5.51011 22.2405 5.95801 22.3749 6.42121C22.5468 7.01581 22.6251 7.63261 22.6728 8.24851C22.7829 9.82651 22.7394 11.4099 22.7499 12.9906C22.7577 13.2786 22.5801 13.5591 22.3191 13.6794C22.1292 13.7685 21.9018 13.7739 21.7092 13.6911C21.4899 13.6014 21.3216 13.3998 21.2691 13.1691C21.2412 13.0512 21.2508 12.9288 21.2493 12.8088C21.2484 12.1215 21.2514 11.4342 21.2478 10.7469C21.2445 10.1631 21.24 9.57871 21.2145 8.99491C21.1824 8.32261 21.1377 7.64551 20.9754 6.99001C20.8599 6.52501 20.6604 6.06661 20.3184 5.72251C20.0304 5.42161 19.6536 5.21941 19.2588 5.09581C18.7062 4.92181 18.1263 4.85941 17.5512 4.81621C16.7724 4.76251 15.9915 4.75681 15.2112 4.75171C14.0406 4.74781 12.87 4.74991 11.6994 4.74931C10.3698 4.75201 9.04021 4.74121 7.71091 4.76401C6.91111 4.78351 6.10651 4.80871 5.31751 4.95271C4.73461 5.06101 4.13881 5.26171 3.71221 5.69191C3.30271 6.08731 3.09301 6.63871 2.97931 7.18561C2.85541 7.78021 2.81341 8.38801 2.78581 8.99371C2.76001 9.57781 2.75581 10.1628 2.75251 10.7472C2.75101 11.9049 2.74381 13.0629 2.76271 14.2203C2.77891 14.9829 2.80321 15.7485 2.92111 16.5036C3.00451 17.0055 3.13201 17.5149 3.41431 17.9451C3.66271 18.3261 4.03171 18.6228 4.45111 18.7965C4.97851 19.0182 5.55091 19.0998 6.11641 19.1565C6.89641 19.2285 7.68031 19.2384 8.46331 19.2462C9.91201 19.254 11.3607 19.2492 12.8094 19.2507C12.9489 19.2519 13.0932 19.2387 13.2276 19.2852C13.4463 19.3536 13.6293 19.5279 13.7055 19.7442C13.7745 19.9344 13.7628 20.1525 13.6719 20.3334C13.5489 20.5878 13.2723 20.7564 12.99 20.7504C11.4795 20.7492 9.96871 20.7543 8.45821 20.7465C7.62901 20.739 6.79861 20.7255 5.97241 20.6493C5.29801 20.5839 4.62061 20.475 3.987 20.2272C3.2226 19.9356 2.55061 19.3992 2.11801 18.7026C1.82311 18.2343 1.63711 17.7048 1.52071 17.166C1.36951 16.4688 1.31791 15.7548 1.28641 15.0438C1.23961 13.8795 1.25281 12.714 1.25071 11.5491C1.25191 10.4391 1.24681 9.32731 1.32961 8.21941C1.39111 7.45291 1.49791 6.67831 1.78381 5.95951C2.07721 5.20351 2.6133 4.54171 3.30391 4.11391C3.83041 3.78301 4.43251 3.59281 5.04031 3.47851C5.74261 3.34741 6.45751 3.30391 7.17031 3.27811Z" fill="#4B4B4B"/>
<path d="M16.8315 13.4355C17.8311 13.1049 18.9684 13.2201 19.8771 13.7532C20.7714 14.2662 21.435 15.1632 21.6579 16.1706C21.8853 17.1567 21.6885 18.228 21.1293 19.071C21.432 19.3686 21.7305 19.671 22.0314 19.9707C22.2012 20.1384 22.2804 20.3904 22.2396 20.6253C22.1991 20.8791 22.0164 21.1032 21.7776 21.1971C21.513 21.3051 21.189 21.2445 20.9844 21.0441C20.679 20.7393 20.3742 20.4339 20.0691 20.1288C19.1553 20.7399 17.9676 20.913 16.917 20.5914C15.8979 20.289 15.0282 19.5291 14.5893 18.5613C14.1393 17.5899 14.1375 16.425 14.5833 15.4521C15.0087 14.5059 15.8442 13.7547 16.8315 13.4355ZM17.6256 14.781C17.208 14.8506 16.8117 15.042 16.4973 15.3255C16.131 15.6528 15.876 16.1031 15.7881 16.5867C15.7098 17.0049 15.7524 17.4459 15.9123 17.8404C16.0977 18.303 16.4418 18.6996 16.8735 18.9483C17.3001 19.1973 17.811 19.2966 18.3003 19.23C18.7047 19.1769 19.0932 19.0092 19.4109 18.7527C19.8294 18.4182 20.121 17.9289 20.2143 17.4012C20.2992 16.9329 20.2329 16.4373 20.0211 16.0107C19.7808 15.5151 19.35 15.1158 18.8388 14.9115C18.4566 14.7573 18.0318 14.7129 17.6256 14.781Z" fill="#4B4B4B"/>
<path opacity="0.5" d="M2.7525 10.7472C2.7558 10.1628 2.76 9.5778 2.7858 8.9937C2.7831 9.0783 2.7831 9.1632 2.7828 9.2481C8.9277 9.2505 15.0726 9.2502 21.2175 9.2481C21.2172 9.1635 21.2169 9.0792 21.2145 8.9949C21.24 9.5787 21.2445 10.1631 21.2478 10.7469C18.0351 10.7526 14.8221 10.7478 11.6094 10.7493C8.6571 10.7481 5.7048 10.7523 2.7525 10.7472Z" fill="#4B4B4B"/>
<path opacity="0.5" d="M5.89203 15.2574C6.33783 15.2388 6.78513 15.2547 7.23153 15.2493C8.15103 15.2496 9.07083 15.249 9.99033 15.2496C10.2144 15.246 10.4361 15.3483 10.5777 15.522C10.7622 15.7383 10.8021 16.0632 10.6788 16.3188C10.5633 16.5708 10.2984 16.7466 10.0203 16.749C8.73063 16.7502 7.44093 16.7487 6.15123 16.7496C6.04293 16.7496 5.93313 16.7547 5.82693 16.7301C5.57553 16.6725 5.36193 16.4754 5.28573 16.2291C5.21283 16.0059 5.25273 15.7494 5.39223 15.5604C5.50893 15.3975 5.69343 15.285 5.89203 15.2574Z" fill="#4B4B4B"/>
</svg>
