<svg width="24" height="24" viewBox="0 0 24 24" fill="none" xmlns="http://www.w3.org/2000/svg">
<path d="M6.03148 3.3453C6.83908 3.2736 7.65058 3.261 8.46088 3.2535C9.94018 3.2457 11.4192 3.2508 12.8985 3.2493C13.8582 3.2499 14.8182 3.2472 15.7782 3.2556C16.5702 3.2655 17.3634 3.2829 18.1521 3.363C18.7926 3.4311 19.4355 3.5427 20.0364 3.7821C20.7981 4.0773 21.465 4.6179 21.8934 5.3154C22.1775 5.7732 22.3593 6.288 22.4745 6.8127C22.6125 7.4373 22.668 8.0766 22.7025 8.7144C22.7364 9.3888 22.7466 10.0641 22.7478 10.7394C22.7463 10.8993 22.7655 11.064 22.7166 11.2194C22.6521 11.4324 22.488 11.6118 22.2819 11.6949C22.0626 11.7855 21.8007 11.7636 21.6006 11.6355C21.3966 11.5101 21.2604 11.2809 21.2508 11.0412C21.2475 10.9431 21.2496 10.845 21.2478 10.7469C21.2442 10.1631 21.243 9.5793 21.2145 8.9961C21.1818 8.3145 21.1368 7.6278 20.9688 6.9639C20.8509 6.501 20.6472 6.0462 20.3028 5.7069C20.0064 5.4027 19.6185 5.2035 19.215 5.082C18.6663 4.9164 18.0924 4.8558 17.5227 4.8141C16.7232 4.7604 15.9213 4.7562 15.12 4.7511C13.9299 4.7478 12.7401 4.7499 11.55 4.7493C10.2702 4.752 8.99008 4.7418 7.71058 4.764C6.91738 4.7832 6.12028 4.8084 5.33758 4.9488C4.74118 5.0574 4.12948 5.262 3.69718 5.7069C3.26488 6.1326 3.06238 6.7296 2.95348 7.3134C2.84968 7.8684 2.81128 8.433 2.78548 8.9964C2.75668 9.5793 2.75578 10.1634 2.75248 10.7469C2.75068 11.8653 2.74468 12.9837 2.76058 14.1021C2.77618 14.9043 2.79748 15.7098 2.92138 16.5039C3.00898 17.0334 3.14698 17.5734 3.46318 18.0165C3.72358 18.3846 4.10008 18.6633 4.51948 18.8247C5.07748 19.0428 5.67808 19.1178 6.27118 19.17C7.08868 19.2357 7.90918 19.242 8.72878 19.248C9.65908 19.2519 10.5897 19.2501 11.52 19.2507C11.7603 19.2537 11.9925 19.3845 12.1248 19.584C12.2583 19.7823 12.2877 20.0466 12.1998 20.2692C12.1143 20.499 11.9067 20.6781 11.6676 20.7312C11.571 20.7549 11.4708 20.7504 11.3721 20.7507C10.5513 20.7501 9.73078 20.7519 8.90998 20.7486C8.06908 20.7453 7.22728 20.7384 6.38788 20.6829C5.80408 20.6424 5.21968 20.5773 4.65058 20.4366C4.17208 20.3184 3.70498 20.1405 3.28768 19.8759C2.85928 19.6056 2.48668 19.2468 2.20078 18.8286C1.90468 18.3984 1.70608 17.9073 1.57708 17.4033C1.41148 16.7553 1.34518 16.0872 1.30498 15.4212C1.25038 14.4417 1.25128 13.4607 1.25068 12.48C1.25338 11.3295 1.23898 10.1787 1.28338 9.0288C1.31398 8.2965 1.36438 7.5609 1.51858 6.8424C1.64608 6.2526 1.85578 5.6724 2.19928 5.1726C2.64058 4.5237 3.29308 4.0293 4.02688 3.7569C4.66798 3.5136 5.35138 3.4077 6.03148 3.3453Z" fill="#4B4B4B"/>
<path d="M15.2024 13.311C15.4811 13.1871 15.8324 13.2561 16.0403 13.4805C16.1768 13.6197 16.2527 13.815 16.2503 14.0097C16.2512 15.4023 16.2494 16.7946 16.2512 18.1872C16.4957 17.946 16.7372 17.7015 16.9808 17.4594C17.138 17.3058 17.3663 17.2284 17.5847 17.2548C17.828 17.2803 18.0536 17.4348 18.1646 17.6532C18.3149 17.9298 18.2618 18.2976 18.0398 18.5211C17.3867 19.1781 16.7297 19.8312 16.0754 20.4873C15.8441 20.757 15.4205 20.8344 15.116 20.6448C15.0419 20.6016 14.9801 20.5419 14.921 20.481C14.2664 19.8252 13.6103 19.1706 12.9557 18.5145C12.7436 18.3 12.6896 17.9511 12.8213 17.6805C12.9356 17.4324 13.1942 17.2587 13.4678 17.2506C13.6673 17.2416 13.8704 17.3154 14.0138 17.4549C14.2595 17.6982 14.5013 17.9451 14.7482 18.1872C14.7536 16.7844 14.7488 15.3816 14.7506 13.9788C14.7539 13.6932 14.9396 13.4217 15.2024 13.311Z" fill="#4B4B4B"/>
<path opacity="0.5" d="M2.75244 10.7469C2.75574 10.1634 2.75664 9.57929 2.78544 8.99639C2.78154 9.08069 2.78094 9.16529 2.78094 9.24989C8.92674 9.25289 15.0728 9.25259 21.2186 9.25019C21.2186 9.16529 21.218 9.08069 21.2144 8.99609C21.2429 9.57929 21.2441 10.1631 21.2477 10.7469C15.0827 10.7496 8.91744 10.7496 2.75244 10.7469Z" fill="#4B4B4B"/>
<path opacity="0.5" d="M19.5001 13.4399C19.7785 13.1765 20.2609 13.1894 20.527 13.4645C21.1966 14.1341 21.8662 14.804 22.5358 15.4736C22.7017 15.6371 22.7773 15.8807 22.7434 16.1099C22.7044 16.4027 22.4749 16.6577 22.1884 16.7285C22.0012 16.775 21.7966 16.7501 21.6286 16.6541C21.5146 16.5923 21.4312 16.4912 21.3397 16.4021C21.1441 16.2083 20.9518 16.0109 20.7541 15.8192C20.7523 17.1362 20.7538 18.4532 20.7535 19.7702C20.7517 19.9091 20.7634 20.0513 20.7283 20.1875C20.6731 20.4089 20.5105 20.6 20.3002 20.6891C20.0686 20.7926 19.7845 20.7671 19.5766 20.621C19.3768 20.4866 19.2481 20.2517 19.2499 20.0102C19.2493 18.6122 19.2496 17.2142 19.2496 15.8162C19.0057 16.0571 18.7657 16.3019 18.5215 16.5422C18.3535 16.7057 18.1075 16.7807 17.8768 16.7414C17.542 16.6934 17.2672 16.3904 17.2501 16.0529C17.2336 15.836 17.317 15.6143 17.4742 15.464C18.1501 14.7899 18.8233 14.1131 19.5001 13.4399Z" fill="#4B4B4B"/>
<path opacity="0.5" d="M5.89066 15.2561C6.32626 15.2345 6.76396 15.2525 7.20016 15.2465C8.13016 15.2468 9.06016 15.2462 9.98986 15.2471C10.2151 15.2447 10.4383 15.3467 10.5805 15.5222C10.7548 15.728 10.7992 16.0319 10.6975 16.2809C10.5907 16.5527 10.3135 16.7495 10.0201 16.7501C8.67076 16.7504 7.32106 16.7513 5.97166 16.7498C5.58766 16.748 5.24926 16.4033 5.24896 16.0205C5.22946 15.6515 5.52466 15.3017 5.89066 15.2561Z" fill="#4B4B4B"/>
</svg>
