<svg width="24" height="24" viewBox="0 0 24 24" fill="none" xmlns="http://www.w3.org/2000/svg">
<path d="M8.4093 3.2538C9.8565 3.2457 11.304 3.2508 12.7512 3.2493C13.7121 3.2499 14.6727 3.2472 15.6336 3.2544C16.4526 3.2628 17.2731 3.2778 18.0888 3.3564C19.0545 3.453 20.0508 3.6537 20.859 4.2216C21.2799 4.5153 21.6381 4.8981 21.9063 5.3358C22.1709 5.7693 22.3458 6.2523 22.4595 6.7458C22.6209 7.4463 22.6767 8.1654 22.7106 8.8818C22.7652 10.1409 22.7454 11.4015 22.7493 12.6612C22.749 13.4613 22.746 14.2617 22.713 15.0612C22.6821 15.75 22.6317 16.4409 22.4901 17.1168C22.3773 17.6514 22.2012 18.1782 21.9165 18.6471C21.4968 19.3482 20.8383 19.8969 20.0808 20.2005C19.5048 20.436 18.888 20.553 18.2721 20.6238C17.4642 20.7141 16.6509 20.7324 15.8388 20.7435C14.3694 20.7561 12.8997 20.7486 11.4303 20.7507C10.5093 20.7501 9.5886 20.7519 8.6676 20.7477C7.8873 20.7429 7.1064 20.733 6.3279 20.6787C5.739 20.6358 5.1495 20.5668 4.5771 20.4177C4.1103 20.2962 3.6555 20.1156 3.2505 19.8519C2.7885 19.5531 2.3949 19.1505 2.1054 18.6828C1.8495 18.2694 1.6758 17.8095 1.5609 17.3385C1.3929 16.6518 1.332 15.9444 1.2954 15.24C1.2498 14.2911 1.251 13.3407 1.2507 12.3909C1.2534 11.2107 1.2378 10.0296 1.2909 8.85C1.3224 8.1915 1.3746 7.5312 1.5096 6.885C1.6167 6.3786 1.7793 5.8794 2.0385 5.4294C2.3109 4.9527 2.6898 4.5378 3.1392 4.2228C3.5307 3.9474 3.9747 3.753 4.434 3.6216C5.0418 3.4467 5.673 3.3702 6.3021 3.3231C7.0032 3.2727 7.7067 3.2604 8.4093 3.2538ZM8.3892 4.7544C7.6029 4.7628 6.8151 4.7742 6.0321 4.8519C5.5473 4.9032 5.0601 4.977 4.6002 5.1441C4.2579 5.268 3.936 5.4582 3.6825 5.7216C3.3183 6.0879 3.1173 6.5817 3.0033 7.0776C2.8416 7.7895 2.8035 8.5221 2.7762 9.2493C2.7603 9.7491 2.7534 10.2489 2.7528 10.749C2.7504 11.9058 2.7441 13.0626 2.7627 14.2194C2.7792 14.9895 2.8032 15.7623 2.9247 16.5243C3.0135 17.0532 3.1545 17.5926 3.4749 18.0324C3.7479 18.4125 4.1457 18.6924 4.5843 18.8499C5.1621 19.0614 5.7792 19.1304 6.3888 19.1796C7.2378 19.2405 8.0895 19.2444 8.9403 19.2489C9.8505 19.2516 10.761 19.2501 11.6712 19.2507C13.2315 19.2465 14.7918 19.2615 16.3515 19.2348C17.1231 19.215 17.8983 19.1883 18.6597 19.0515C19.1478 18.9603 19.6407 18.8151 20.0448 18.5163C20.4084 18.2505 20.6796 17.8701 20.8368 17.4498C21.0531 16.8792 21.1248 16.2669 21.1755 15.6624C21.2421 14.7828 21.2436 13.9005 21.2496 13.0191C21.2481 12.2622 21.252 11.5053 21.2472 10.7484C21.2466 10.2486 21.2397 9.7488 21.2241 9.2493C21.2028 8.6547 21.1698 8.0589 21.0747 7.4709C20.9961 7.0059 20.8782 6.537 20.6328 6.1293C20.3877 5.7195 20.0067 5.397 19.5678 5.2113C19.0257 4.9797 18.435 4.8975 17.8527 4.8408C17.0934 4.7724 16.3308 4.7616 15.5691 4.7541C14.5401 4.7472 13.5111 4.7499 12.4821 4.7493C11.1177 4.7508 9.7536 4.7457 8.3892 4.7544Z" fill="#4B4B4B"/>
<path opacity="0.5" d="M2.77621 9.24929C8.92531 9.24929 15.0747 9.24899 21.2241 9.24929C21.2397 9.74879 21.2466 10.2486 21.2472 10.7484C15.0825 10.7505 8.91781 10.7493 2.75281 10.749C2.75341 10.2489 2.76031 9.74909 2.77621 9.24929Z" fill="#4B4B4B"/>
<path opacity="0.5" d="M15.3999 12.2535C15.8757 12.2484 16.3521 12.243 16.8279 12.2616C17.232 12.2799 17.655 12.3396 17.9991 12.5688C18.2718 12.7452 18.4806 13.0149 18.5913 13.32C18.7152 13.6545 18.7359 14.0154 18.7455 14.3688C18.7524 14.76 18.7512 15.1512 18.7473 15.5424C18.738 16.0101 18.7176 16.5039 18.4797 16.9203C18.2727 17.2914 17.8992 17.5527 17.4888 17.6511C17.0874 17.7513 16.6701 17.7447 16.2594 17.7504C15.8898 17.7504 15.5202 17.7546 15.1509 17.7375C14.805 17.7201 14.4504 17.673 14.139 17.5119C13.8093 17.3445 13.5486 17.0499 13.4181 16.7043C13.2606 16.2957 13.2585 15.8508 13.251 15.4194C13.2528 14.9991 13.2429 14.5782 13.2624 14.1582C13.2807 13.7583 13.3431 13.3419 13.5681 13.0014C13.7382 12.741 13.9914 12.5367 14.2812 12.4236C14.6355 12.2823 15.0228 12.2634 15.3999 12.2535ZM15.2235 13.7607C15.0882 13.7727 14.9451 13.7694 14.82 13.8282C14.7564 14.0214 14.7621 14.229 14.7537 14.4303C14.7501 14.8599 14.7462 15.2895 14.7579 15.7191C14.7681 15.8697 14.7672 16.026 14.8203 16.1691C14.9271 16.2303 15.0618 16.2216 15.1821 16.2369C15.6504 16.2576 16.1199 16.2507 16.5888 16.2459C16.7832 16.2372 16.9836 16.242 17.1708 16.1808C17.2353 16.0491 17.2275 15.8949 17.2404 15.7515C17.2554 15.3213 17.2506 14.8905 17.247 14.46C17.2398 14.2596 17.2431 14.0553 17.1909 13.8603C17.1876 13.812 17.1345 13.8072 17.0991 13.7976C16.9029 13.7571 16.7013 13.7574 16.5021 13.7523C16.0758 13.7493 15.6495 13.7445 15.2235 13.7607Z" fill="#4B4B4B"/>
<path opacity="0.5" d="M5.88691 12.7584C5.95381 12.7494 6.02161 12.7494 6.08911 12.7494C6.73921 12.7521 7.38931 12.7473 8.03911 12.7518C8.42551 12.7605 8.76001 13.1139 8.75011 13.4997C8.75971 13.8858 8.42611 14.2386 8.03971 14.2482C7.36051 14.2521 6.68101 14.2491 6.00181 14.2497C5.79691 14.2518 5.59351 14.1642 5.45461 14.0139C5.27251 13.8267 5.20501 13.5396 5.27971 13.29C5.35681 13.0152 5.60401 12.798 5.88691 12.7584Z" fill="#4B4B4B"/>
<path opacity="0.5" d="M5.88511 15.7587C6.27301 15.7389 6.66241 15.7554 7.05061 15.75C7.97071 15.75 8.89051 15.75 9.81061 15.75C9.90991 15.7503 10.0095 15.7455 10.1085 15.7575C10.35 15.7914 10.5699 15.9516 10.6743 16.1721C10.7982 16.4196 10.7679 16.7358 10.5969 16.9542C10.4568 17.142 10.2243 17.2545 9.99031 17.25C8.73001 17.2503 7.46971 17.25 6.20941 17.25C6.10861 17.2497 6.00751 17.2539 5.90701 17.244C5.62681 17.2131 5.37661 17.007 5.28901 16.7397C5.22241 16.5441 5.24131 16.3212 5.34151 16.1406C5.45131 15.9387 5.65711 15.7917 5.88511 15.7587Z" fill="#4B4B4B"/>
</svg>
