<svg width="24" height="24" viewBox="0 0 24 24" fill="none" xmlns="http://www.w3.org/2000/svg">
<path d="M8.41022 3.25377C9.88712 3.24537 11.3644 3.25107 12.8416 3.24927C13.7647 3.24987 14.6875 3.24747 15.6106 3.25407C16.4287 3.26217 17.248 3.27687 18.0628 3.35397C18.7177 3.41937 19.3753 3.52647 19.9918 3.76437C20.7715 4.05717 21.4561 4.60347 21.8929 5.31447C22.1608 5.74647 22.3381 6.22887 22.4539 6.72237C22.6033 7.36047 22.6636 8.01507 22.6996 8.66847C22.7527 9.66807 22.7488 10.6695 22.7491 11.6706C22.7446 13.0251 22.7689 14.382 22.6738 15.7341C22.6252 16.3719 22.5442 17.0112 22.3606 17.6256C22.2172 18.1065 22.0021 18.5697 21.697 18.9702C21.3832 19.3854 20.9818 19.7343 20.5261 19.9863C19.6564 20.4678 18.6499 20.6052 17.6728 20.6787C16.8427 20.7369 16.0105 20.7438 15.1789 20.7489C13.4086 20.7525 11.6386 20.7498 9.86822 20.7507C9.05972 20.7489 8.25062 20.7513 7.44212 20.7303C6.73832 20.7102 6.03332 20.6772 5.33642 20.5719C4.70492 20.4756 4.07462 20.3133 3.51032 20.0067C2.80742 19.6293 2.23382 19.0203 1.89572 18.2979C1.62272 17.7258 1.48532 17.1003 1.40102 16.4751C1.29992 15.6981 1.27472 14.9133 1.26032 14.1306C1.24382 12.9699 1.25072 11.8092 1.25222 10.6485C1.25312 10.059 1.26362 9.46977 1.28942 8.88057C1.32122 8.19837 1.37402 7.51407 1.51802 6.84507C1.64102 6.27447 1.84022 5.71317 2.16452 5.22417C2.60552 4.55067 3.27272 4.03647 4.02602 3.75717C4.66772 3.51357 5.35202 3.40767 6.03272 3.34497C6.82322 3.27507 7.61702 3.26157 8.41022 3.25377ZM8.36552 4.75467C7.58162 4.76307 6.79622 4.77507 6.01592 4.85367C5.53052 4.90527 5.04272 4.98057 4.58312 5.15007C4.24052 5.27637 3.91952 5.47017 3.66782 5.73657C3.31172 6.10167 3.11522 6.58947 3.00272 7.07937C2.84132 7.79067 2.80322 8.52267 2.77562 9.24927C2.76032 9.74907 2.75282 10.2492 2.75282 10.749C2.74952 11.8764 2.74472 13.0041 2.76062 14.1312C2.77652 14.9229 2.79842 15.7176 2.92052 16.5012C3.00722 17.025 3.14252 17.559 3.45122 18C3.71552 18.381 4.10342 18.6681 4.53572 18.8313C5.12642 19.0578 5.76212 19.1286 6.38852 19.1796C7.22672 19.2399 8.06762 19.2438 8.90762 19.2489C9.84902 19.2516 10.7902 19.2504 11.7313 19.2507C13.1914 19.2477 14.6515 19.2582 16.1113 19.2393C16.9423 19.2222 17.7778 19.2018 18.5992 19.0623C19.0945 18.9744 19.5958 18.8349 20.011 18.5406C20.3908 18.2739 20.6749 17.8836 20.8366 17.4504C21.0526 16.8798 21.1246 16.2678 21.1753 15.6636C21.2419 14.784 21.2434 13.9011 21.2494 13.0194C21.2476 12.2625 21.2521 11.5059 21.247 10.749C21.2467 10.2489 21.2392 9.74907 21.2239 9.24927C21.2032 8.66637 21.1708 8.08227 21.0799 7.50537C21.0031 7.03587 20.8876 6.56247 20.6443 6.14907C20.4076 5.74437 20.0392 5.42127 19.6114 5.23077C19.0942 4.99917 18.5275 4.91187 17.9683 4.85187C17.2117 4.77657 16.4509 4.76397 15.6916 4.75497C14.6011 4.74657 13.5106 4.75017 12.4204 4.74927C11.0686 4.75077 9.71702 4.74537 8.36552 4.75467Z" fill="#4B4B4B"/>
<path opacity="0.5" d="M2.77573 9.24916C8.92513 9.24886 15.0746 9.24916 21.224 9.24916C21.2393 9.74896 21.2468 10.2487 21.2471 10.7488C15.0824 10.7497 8.91763 10.7494 2.75293 10.7488C2.75293 10.249 2.76043 9.74896 2.77573 9.24916Z" fill="#4B4B4B"/>
<path opacity="0.5" d="M5.89198 15.2576C6.38668 15.2387 6.88258 15.2546 7.37788 15.2495C8.25838 15.2501 9.13889 15.2477 10.0194 15.2507C10.4208 15.2498 10.7721 15.6206 10.7499 16.0214C10.7481 16.4069 10.4055 16.751 10.0188 16.7492C8.67928 16.7501 7.33978 16.7492 6.00028 16.7498C5.76418 16.7531 5.53258 16.6337 5.39458 16.4432C5.24638 16.244 5.20888 15.9695 5.29708 15.7376C5.38858 15.4853 5.62588 15.2933 5.89198 15.2576Z" fill="#4B4B4B"/>
<path opacity="0.5" d="M12.4034 15.2559C12.9185 15.24 13.4345 15.2541 13.9499 15.249C14.1629 15.2394 14.3804 15.3159 14.5304 15.4695C14.7347 15.6696 14.8061 15.9915 14.7041 16.2588C14.6024 16.5438 14.3144 16.7517 14.0105 16.7493C13.5098 16.7499 13.0094 16.7487 12.509 16.7499C12.2732 16.7547 12.0401 16.6392 11.8997 16.4502C11.7404 16.2423 11.705 15.9483 11.8091 15.708C11.9084 15.4662 12.1439 15.2874 12.4034 15.2559Z" fill="#4B4B4B"/>
</svg>
