<svg width="24" height="24" viewBox="0 0 24 24" fill="none" xmlns="http://www.w3.org/2000/svg">
<path d="M7.17031 3.27808C8.58031 3.23488 9.99121 3.25408 11.4018 3.24928C12.6414 3.25018 13.8813 3.24778 15.1209 3.25108C15.8343 3.25438 16.5483 3.26038 17.2611 3.29638C17.8914 3.32908 18.5232 3.38338 19.1415 3.51538C19.6587 3.62578 20.1672 3.79768 20.6232 4.06918C21.0699 4.33378 21.4599 4.69348 21.7611 5.11648C22.0422 5.51008 22.2405 5.95798 22.3749 6.42118C22.5468 7.01578 22.6251 7.63258 22.6728 8.24848C22.7829 9.82648 22.7394 11.4099 22.7499 12.9906C22.7577 13.2786 22.5801 13.5591 22.3191 13.6794C22.1292 13.7685 21.9018 13.7739 21.7092 13.6911C21.4899 13.6014 21.3216 13.3998 21.2691 13.1691C21.2412 13.0512 21.2508 12.9288 21.2493 12.8088C21.2484 12.1215 21.2514 11.4342 21.2478 10.7469C21.2445 10.1631 21.24 9.57868 21.2145 8.99488C21.1824 8.32258 21.1377 7.64548 20.9754 6.98998C20.8599 6.52498 20.6604 6.06658 20.3184 5.72248C20.0304 5.42158 19.6536 5.21938 19.2588 5.09578C18.7062 4.92178 18.1263 4.85938 17.5512 4.81618C16.7724 4.76248 15.9915 4.75678 15.2112 4.75168C14.0406 4.74778 12.87 4.74988 11.6994 4.74928C10.3698 4.75198 9.04021 4.74118 7.71091 4.76398C6.91111 4.78348 6.10651 4.80868 5.31751 4.95268C4.73461 5.06098 4.13879 5.26168 3.71219 5.69188C3.30269 6.08728 3.09301 6.63868 2.97931 7.18558C2.85541 7.78018 2.8134 8.38798 2.78579 8.99368C2.75999 9.57778 2.75581 10.1628 2.75251 10.7472C2.75101 11.9049 2.74381 13.0629 2.76271 14.2203C2.77891 14.9829 2.80319 15.7485 2.92109 16.5036C3.00449 17.0055 3.13199 17.5149 3.41429 17.9451C3.66269 18.3261 4.03169 18.6228 4.45109 18.7965C4.97849 19.0182 5.5509 19.0998 6.11641 19.1565C6.8964 19.2285 7.68031 19.2384 8.46331 19.2462C9.91201 19.254 11.3607 19.2492 12.8094 19.2507C12.9489 19.2519 13.0932 19.2387 13.2276 19.2852C13.4463 19.3536 13.6293 19.5279 13.7055 19.7442C13.7745 19.9344 13.7628 20.1525 13.6719 20.3334C13.5489 20.5878 13.2723 20.7564 12.99 20.7504C11.4795 20.7492 9.96871 20.7543 8.45821 20.7465C7.62901 20.739 6.79861 20.7255 5.97241 20.6493C5.29801 20.5839 4.62059 20.475 3.98698 20.2272C3.22258 19.9356 2.55061 19.3992 2.11801 18.7026C1.82311 18.2343 1.63711 17.7048 1.52071 17.166C1.36951 16.4688 1.31791 15.7548 1.28641 15.0438C1.23961 13.8795 1.25281 12.714 1.25071 11.5491C1.25191 10.4391 1.24681 9.32728 1.32961 8.21938C1.39111 7.45288 1.49791 6.67828 1.78381 5.95948C2.07721 5.20348 2.6133 4.54168 3.30391 4.11388C3.83039 3.78298 4.43249 3.59278 5.04029 3.47848C5.74259 3.34738 6.45751 3.30388 7.17031 3.27808Z" fill="#4B4B4B"/>
<path d="M16.8316 13.4353C17.8312 13.1047 18.9685 13.2199 19.8772 13.753C20.7715 14.266 21.4351 15.163 21.658 16.1704C21.8854 17.1565 21.6886 18.2278 21.1294 19.0708C21.4321 19.3684 21.7306 19.6708 22.0315 19.9705C22.2013 20.1382 22.2805 20.3902 22.2397 20.6251C22.1992 20.8789 22.0165 21.103 21.7777 21.1969C21.5131 21.3049 21.1891 21.2443 20.9845 21.0439C20.6791 20.7391 20.3743 20.4337 20.0692 20.1286C19.1554 20.7397 17.9677 20.9128 16.9171 20.5912C15.898 20.2888 15.0283 19.5289 14.5894 18.5611C14.1394 17.5897 14.1376 16.4248 14.5834 15.4519C15.0088 14.5057 15.8443 13.7545 16.8316 13.4353ZM17.6257 14.7808C17.2081 14.8504 16.8118 15.0418 16.4974 15.3253C16.1311 15.6526 15.8761 16.1029 15.7882 16.5865C15.7099 17.0047 15.7525 17.4457 15.9124 17.8402C16.0978 18.3028 16.4419 18.6994 16.8736 18.9481C17.3002 19.1971 17.8111 19.2964 18.3004 19.2298C18.7048 19.1767 19.0933 19.009 19.411 18.7525C19.8295 18.418 20.1211 17.9287 20.2144 17.401C20.2993 16.9327 20.233 16.4371 20.0212 16.0105C19.7809 15.5149 19.3501 15.1156 18.8389 14.9113C18.4567 14.7571 18.0319 14.7127 17.6257 14.7808Z" fill="#4B4B4B"/>
<path opacity="0.5" d="M2.75244 10.7471C2.75574 10.1627 2.75994 9.57775 2.78574 8.99365C2.78304 9.07825 2.78304 9.16315 2.78274 9.24805C8.92764 9.25045 15.0725 9.25015 21.2174 9.24805C21.2171 9.16345 21.2168 9.07915 21.2144 8.99485C21.2399 9.57865 21.2444 10.163 21.2477 10.7468C18.035 10.7525 14.822 10.7477 11.6093 10.7492C8.65704 10.748 5.70474 10.7522 2.75244 10.7471Z" fill="#4B4B4B"/>
<path opacity="0.5" d="M5.89209 15.2574C6.33789 15.2388 6.78519 15.2547 7.23159 15.2493C8.15109 15.2496 9.07089 15.249 9.99039 15.2496C10.2145 15.246 10.4362 15.3483 10.5778 15.522C10.7623 15.7383 10.8022 16.0632 10.6789 16.3188C10.5634 16.5708 10.2985 16.7466 10.0204 16.749C8.73069 16.7502 7.44099 16.7487 6.15129 16.7496C6.04299 16.7496 5.93319 16.7547 5.82699 16.7301C5.57559 16.6725 5.36199 16.4754 5.28579 16.2291C5.21289 16.0059 5.25279 15.7494 5.39229 15.5604C5.50899 15.3975 5.69349 15.285 5.89209 15.2574Z" fill="#4B4B4B"/>
</svg>
