<svg width="24" height="24" viewBox="0 0 24 24" fill="none" xmlns="http://www.w3.org/2000/svg">
<path d="M8.40927 3.25375C9.85647 3.24565 11.3039 3.25075 12.7511 3.24925C13.712 3.24985 14.6726 3.24715 15.6335 3.25435C16.4525 3.26275 17.273 3.27775 18.0887 3.35635C19.0544 3.45295 20.0507 3.65365 20.8589 4.22155C21.2798 4.51525 21.638 4.89805 21.9062 5.33575C22.1708 5.76925 22.3457 6.25225 22.4594 6.74575C22.6208 7.44625 22.6766 8.16535 22.7105 8.88175C22.7651 10.1408 22.7453 11.4014 22.7492 12.6611C22.7489 13.4612 22.7459 14.2616 22.7129 15.0611C22.682 15.7499 22.6316 16.4408 22.49 17.1167C22.3772 17.6513 22.2011 18.1781 21.9164 18.647C21.4967 19.3481 20.8382 19.8968 20.0807 20.2004C19.5047 20.4359 18.8879 20.5529 18.272 20.6237C17.4641 20.714 16.6508 20.7323 15.8387 20.7434C14.3693 20.756 12.8996 20.7485 11.4302 20.7506C10.5092 20.75 9.58857 20.7518 8.66757 20.7476C7.88727 20.7428 7.10637 20.7329 6.32787 20.6786C5.73897 20.6357 5.14947 20.5667 4.57707 20.4176C4.11027 20.2961 3.65547 20.1155 3.25047 19.8518C2.78847 19.553 2.39487 19.1504 2.10537 18.6827C1.84947 18.2693 1.67577 17.8094 1.56087 17.3384C1.39287 16.6517 1.33197 15.9443 1.29537 15.2399C1.24977 14.291 1.25097 13.3406 1.25067 12.3908C1.25337 11.2106 1.23777 10.0295 1.29087 8.84995C1.32237 8.19145 1.37457 7.53115 1.50957 6.88495C1.61667 6.37855 1.77927 5.87935 2.03847 5.42935C2.31087 4.95265 2.68977 4.53775 3.13917 4.22275C3.53067 3.94735 3.97467 3.75295 4.43397 3.62155C5.04177 3.44665 5.67297 3.37015 6.30207 3.32305C7.00317 3.27265 7.70667 3.26035 8.40927 3.25375ZM8.38917 4.75435C7.60287 4.76275 6.81507 4.77415 6.03207 4.85185C5.54727 4.90315 5.06007 4.97695 4.60017 5.14405C4.25787 5.26795 3.93597 5.45815 3.68247 5.72155C3.31827 6.08785 3.11727 6.58165 3.00327 7.07755C2.84157 7.78945 2.80347 8.52205 2.77617 9.24925C2.76027 9.74905 2.75337 10.2488 2.75277 10.7489C2.75037 11.9057 2.74407 13.0625 2.76267 14.2193C2.77917 14.9894 2.80317 15.7622 2.92467 16.5242C3.01347 17.0531 3.15447 17.5925 3.47487 18.0323C3.74787 18.4124 4.14567 18.6923 4.58427 18.8498C5.16207 19.0613 5.77917 19.1303 6.38877 19.1795C7.23777 19.2404 8.08947 19.2443 8.94027 19.2488C9.85047 19.2515 10.7609 19.25 11.6711 19.2506C13.2314 19.2464 14.7917 19.2614 16.3514 19.2347C17.123 19.2149 17.8982 19.1882 18.6596 19.0514C19.1477 18.9602 19.6406 18.815 20.0447 18.5162C20.4083 18.2504 20.6795 17.87 20.8367 17.4497C21.053 16.8791 21.1247 16.2668 21.1754 15.6623C21.242 14.7827 21.2435 13.9004 21.2495 13.019C21.248 12.2621 21.2519 11.5052 21.2471 10.7483C21.2465 10.2485 21.2396 9.74875 21.224 9.24925C21.2027 8.65465 21.1697 8.05885 21.0746 7.47085C20.996 7.00585 20.8781 6.53695 20.6327 6.12925C20.3876 5.71945 20.0066 5.39695 19.5677 5.21125C19.0256 4.97965 18.4349 4.89745 17.8526 4.84075C17.0933 4.77235 16.3307 4.76155 15.569 4.75405C14.54 4.74715 13.511 4.74985 12.482 4.74925C11.1176 4.75075 9.75357 4.74565 8.38917 4.75435Z" fill="#4B4B4B"/>
<path opacity="0.5" d="M2.77633 9.24916C8.92543 9.24916 15.0748 9.24886 21.2242 9.24916C21.2398 9.74866 21.2467 10.2485 21.2473 10.7483C15.0826 10.7504 8.91793 10.7492 2.75293 10.7489C2.75353 10.2488 2.76043 9.74896 2.77633 9.24916Z" fill="#4B4B4B"/>
<path opacity="0.5" d="M15.3999 12.2534C15.8757 12.2483 16.352 12.2429 16.8278 12.2615C17.2319 12.2798 17.6549 12.3395 17.999 12.5687C18.2717 12.7451 18.4805 13.0148 18.5912 13.3199C18.7151 13.6544 18.7359 14.0153 18.7455 14.3687C18.7524 14.7599 18.7511 15.1511 18.7472 15.5423C18.7379 16.01 18.7175 16.5038 18.4797 16.9202C18.2727 17.2913 17.8991 17.5526 17.4887 17.651C17.0873 17.7512 16.67 17.7446 16.2593 17.7503C15.8897 17.7503 15.5201 17.7545 15.1508 17.7374C14.8049 17.72 14.4503 17.6729 14.1389 17.5118C13.8092 17.3444 13.5486 17.0498 13.4181 16.7042C13.2606 16.2956 13.2585 15.8507 13.251 15.4193C13.2528 14.999 13.2428 14.5781 13.2623 14.1581C13.2806 13.7582 13.343 13.3418 13.568 13.0013C13.7381 12.7409 13.9914 12.5366 14.2812 12.4235C14.6355 12.2822 15.0228 12.2633 15.3999 12.2534ZM15.2235 13.7606C15.0882 13.7726 14.945 13.7693 14.8199 13.8281C14.7563 14.0213 14.7621 14.2289 14.7537 14.4302C14.7501 14.8598 14.7462 15.2894 14.7579 15.719C14.7681 15.8696 14.7671 16.0259 14.8202 16.169C14.927 16.2302 15.0618 16.2215 15.1821 16.2368C15.6504 16.2575 16.1199 16.2506 16.5888 16.2458C16.7832 16.2371 16.9835 16.2419 17.1707 16.1807C17.2352 16.049 17.2274 15.8948 17.2404 15.7514C17.2554 15.3212 17.2505 14.8904 17.2469 14.4599C17.2397 14.2595 17.2431 14.0552 17.1909 13.8602C17.1876 13.8119 17.1344 13.8071 17.099 13.7975C16.9028 13.757 16.7012 13.7573 16.502 13.7522C16.0757 13.7492 15.6495 13.7444 15.2235 13.7606Z" fill="#4B4B4B"/>
<path opacity="0.5" d="M5.88715 12.7585C5.95405 12.7495 6.02185 12.7495 6.08935 12.7495C6.73945 12.7522 7.38955 12.7474 8.03935 12.7519C8.42575 12.7606 8.76025 13.114 8.75035 13.4998C8.75995 13.8859 8.42635 14.2387 8.03995 14.2483C7.36075 14.2522 6.68125 14.2492 6.00205 14.2498C5.79715 14.2519 5.59375 14.1643 5.45485 14.014C5.27275 13.8268 5.20525 13.5397 5.27995 13.2901C5.35705 13.0153 5.60425 12.7981 5.88715 12.7585Z" fill="#4B4B4B"/>
<path opacity="0.5" d="M5.88526 15.7586C6.27316 15.7388 6.66256 15.7553 7.05076 15.7499C7.97086 15.7499 8.89066 15.7499 9.81076 15.7499C9.91006 15.7502 10.0096 15.7454 10.1086 15.7574C10.3501 15.7913 10.57 15.9515 10.6744 16.172C10.7983 16.4195 10.768 16.7357 10.597 16.9541C10.4569 17.1419 10.2244 17.2544 9.99046 17.2499C8.73016 17.2502 7.46986 17.2499 6.20956 17.2499C6.10876 17.2496 6.00766 17.2538 5.90716 17.2439C5.62696 17.213 5.37676 17.0069 5.28916 16.7396C5.22256 16.544 5.24146 16.3211 5.34166 16.1405C5.45146 15.9386 5.65726 15.7916 5.88526 15.7586Z" fill="#4B4B4B"/>
</svg>
