<svg width="24" height="24" viewBox="0 0 24 24" fill="none" xmlns="http://www.w3.org/2000/svg">
<path d="M6.03151 3.3453C6.83911 3.2736 7.65061 3.261 8.46091 3.2535C9.94021 3.2457 11.4192 3.2508 12.8985 3.2493C13.8582 3.2499 14.8182 3.2472 15.7782 3.2556C16.5702 3.2655 17.3634 3.2829 18.1521 3.363C18.7926 3.4311 19.4355 3.5427 20.0364 3.7821C20.7981 4.0773 21.465 4.6179 21.8934 5.3154C22.1775 5.7732 22.3593 6.288 22.4745 6.8127C22.6125 7.4373 22.668 8.0766 22.7025 8.7144C22.7364 9.3888 22.7466 10.0641 22.7478 10.7394C22.7463 10.8993 22.7655 11.064 22.7166 11.2194C22.6521 11.4324 22.488 11.6118 22.2819 11.6949C22.0626 11.7855 21.8007 11.7636 21.6006 11.6355C21.3966 11.5101 21.2604 11.2809 21.2508 11.0412C21.2475 10.9431 21.2496 10.845 21.2478 10.7469C21.2442 10.1631 21.243 9.5793 21.2145 8.9961C21.1818 8.3145 21.1368 7.6278 20.9688 6.9639C20.8509 6.501 20.6472 6.0462 20.3028 5.7069C20.0064 5.4027 19.6185 5.2035 19.215 5.082C18.6663 4.9164 18.0924 4.8558 17.5227 4.8141C16.7232 4.7604 15.9213 4.7562 15.12 4.7511C13.9299 4.7478 12.7401 4.7499 11.55 4.7493C10.2702 4.752 8.99011 4.7418 7.71061 4.764C6.91741 4.7832 6.12031 4.8084 5.33761 4.9488C4.74121 5.0574 4.12951 5.262 3.69721 5.7069C3.26491 6.1326 3.06241 6.7296 2.95351 7.3134C2.84971 7.8684 2.81131 8.433 2.78551 8.9964C2.75671 9.5793 2.75581 10.1634 2.75251 10.7469C2.75071 11.8653 2.74471 12.9837 2.76061 14.1021C2.77621 14.9043 2.79751 15.7098 2.92141 16.5039C3.00901 17.0334 3.14701 17.5734 3.46321 18.0165C3.72361 18.3846 4.10011 18.6633 4.51951 18.8247C5.07751 19.0428 5.67811 19.1178 6.27121 19.17C7.08871 19.2357 7.90921 19.242 8.72881 19.248C9.65911 19.2519 10.5897 19.2501 11.52 19.2507C11.7603 19.2537 11.9925 19.3845 12.1248 19.584C12.2583 19.7823 12.2877 20.0466 12.1998 20.2692C12.1143 20.499 11.9067 20.6781 11.6676 20.7312C11.571 20.7549 11.4708 20.7504 11.3721 20.7507C10.5513 20.7501 9.73081 20.7519 8.91001 20.7486C8.06911 20.7453 7.22731 20.7384 6.38791 20.6829C5.80411 20.6424 5.21971 20.5773 4.65061 20.4366C4.17211 20.3184 3.70501 20.1405 3.28771 19.8759C2.85931 19.6056 2.48671 19.2468 2.20081 18.8286C1.90471 18.3984 1.70611 17.9073 1.57711 17.4033C1.41151 16.7553 1.34521 16.0872 1.30501 15.4212C1.25041 14.4417 1.25131 13.4607 1.25071 12.48C1.25341 11.3295 1.23901 10.1787 1.28341 9.0288C1.31401 8.2965 1.36441 7.5609 1.51861 6.8424C1.64611 6.2526 1.85581 5.6724 2.19931 5.1726C2.64061 4.5237 3.29311 4.0293 4.02691 3.7569C4.66801 3.5136 5.35141 3.4077 6.03151 3.3453Z" fill="#4B4B4B"/>
<path d="M15.2025 13.311C15.4812 13.1871 15.8325 13.2561 16.0404 13.4805C16.1769 13.6197 16.2528 13.815 16.2504 14.0097C16.2513 15.4023 16.2495 16.7946 16.2513 18.1872C16.4958 17.946 16.7373 17.7015 16.9809 17.4594C17.1381 17.3058 17.3664 17.2284 17.5848 17.2548C17.8281 17.2803 18.0537 17.4348 18.1647 17.6532C18.315 17.9298 18.2619 18.2976 18.0399 18.5211C17.3868 19.1781 16.7298 19.8312 16.0755 20.4873C15.8442 20.757 15.4206 20.8344 15.1161 20.6448C15.042 20.6016 14.9802 20.5419 14.9211 20.481C14.2665 19.8252 13.6104 19.1706 12.9558 18.5145C12.7437 18.3 12.6897 17.9511 12.8214 17.6805C12.9357 17.4324 13.1943 17.2587 13.4679 17.2506C13.6674 17.2416 13.8705 17.3154 14.0139 17.4549C14.2596 17.6982 14.5014 17.9451 14.7483 18.1872C14.7537 16.7844 14.7489 15.3816 14.7507 13.9788C14.754 13.6932 14.9397 13.4217 15.2025 13.311Z" fill="#4B4B4B"/>
<path opacity="0.5" d="M2.7525 10.7469C2.7558 10.1634 2.7567 9.57929 2.7855 8.99639C2.7816 9.08069 2.781 9.16529 2.781 9.24989C8.9268 9.25289 15.0729 9.25259 21.2187 9.25019C21.2187 9.16529 21.2181 9.08069 21.2145 8.99609C21.243 9.57929 21.2442 10.1631 21.2478 10.7469C15.0828 10.7496 8.9175 10.7496 2.7525 10.7469Z" fill="#4B4B4B"/>
<path opacity="0.5" d="M19.5 13.4397C19.7784 13.1763 20.2608 13.1892 20.5269 13.4643C21.1965 14.1339 21.8661 14.8038 22.5357 15.4734C22.7016 15.6369 22.7772 15.8805 22.7433 16.1097C22.7043 16.4025 22.4748 16.6575 22.1883 16.7283C22.0011 16.7748 21.7965 16.7499 21.6285 16.6539C21.5145 16.5921 21.4311 16.491 21.3396 16.4019C21.144 16.2081 20.9517 16.0107 20.754 15.819C20.7522 17.136 20.7537 18.453 20.7534 19.77C20.7516 19.9089 20.7633 20.0511 20.7282 20.1873C20.673 20.4087 20.5104 20.5998 20.3001 20.6889C20.0685 20.7924 19.7844 20.7669 19.5765 20.6208C19.3767 20.4864 19.248 20.2515 19.2498 20.01C19.2492 18.612 19.2495 17.214 19.2495 15.816C19.0056 16.0569 18.7656 16.3017 18.5214 16.542C18.3534 16.7055 18.1074 16.7805 17.8767 16.7412C17.5419 16.6932 17.2671 16.3902 17.25 16.0527C17.2335 15.8358 17.3169 15.6141 17.4741 15.4638C18.15 14.7897 18.8232 14.1129 19.5 13.4397Z" fill="#4B4B4B"/>
<path opacity="0.5" d="M5.89051 15.2562C6.32611 15.2346 6.76381 15.2526 7.20001 15.2466C8.13001 15.2469 9.06001 15.2463 9.98971 15.2472C10.215 15.2448 10.4382 15.3468 10.5804 15.5223C10.7547 15.7281 10.7991 16.032 10.6974 16.281C10.5906 16.5528 10.3134 16.7496 10.02 16.7502C8.67061 16.7505 7.32091 16.7514 5.97151 16.7499C5.58751 16.7481 5.24911 16.4034 5.24881 16.0206C5.22931 15.6516 5.52451 15.3018 5.89051 15.2562Z" fill="#4B4B4B"/>
</svg>
