<svg width="24" height="24" viewBox="0 0 24 24" fill="none" xmlns="http://www.w3.org/2000/svg">
<g clip-path="url(#clip0_35569_36369)">
<mask id="mask0_35569_36369" style="mask-type:luminance" maskUnits="userSpaceOnUse" x="0" y="0" width="24" height="24">
<path d="M24 0H0V24H24V0Z" fill="white"/>
</mask>
<g mask="url(#mask0_35569_36369)">
<mask id="mask1_35569_36369" style="mask-type:luminance" maskUnits="userSpaceOnUse" x="0" y="0" width="24" height="24">
<path d="M24 0H0V24H24V0Z" fill="white"/>
</mask>
<g mask="url(#mask1_35569_36369)">
<path opacity="0.5" d="M7.1637 1.27764C8.11222 1.24637 9.06143 1.24975 10.0104 1.24952C10.3683 1.24885 10.6969 1.54508 10.7374 1.89979C10.7867 2.22931 10.5842 2.57526 10.2738 2.69514C10.1195 2.76082 9.94833 2.74845 9.78458 2.748C8.80208 2.75115 7.81892 2.74485 6.83732 2.79141C6.31729 2.81751 5.79657 2.85889 5.28463 2.95674C4.92542 3.02691 4.56846 3.12701 4.24388 3.29908C3.85813 3.50107 3.53356 3.81799 3.32302 4.19902C3.13161 4.54317 3.02454 4.92712 2.95121 5.31175C2.80186 6.12645 2.78027 6.95734 2.76047 7.78328C2.74743 8.45829 2.74967 9.13331 2.74788 9.8081C2.74923 9.96937 2.75777 10.1385 2.68849 10.2887C2.56051 10.6025 2.19837 10.7984 1.8657 10.7321C1.59286 10.6873 1.36051 10.4741 1.28021 10.2111C1.24894 10.1169 1.24737 10.0168 1.24894 9.91854C1.25119 8.81728 1.24287 7.71512 1.30203 6.61499C1.33779 6.01848 1.3902 5.42062 1.51841 4.83602C1.62345 4.36322 1.77438 3.89649 2.01123 3.4725C2.36437 2.83752 2.90308 2.30691 3.54795 1.97064C4.27762 1.58759 5.10131 1.43666 5.91399 1.35524C6.32943 1.31408 6.74645 1.29248 7.1637 1.27764Z" fill="#4B4B4B"/>
<path opacity="0.5" d="M21.8453 13.2546C22.135 13.1954 22.4519 13.3299 22.6123 13.578C22.6932 13.6995 22.7348 13.8452 22.7364 13.991C22.7324 15.1608 22.7459 16.332 22.6752 17.5006C22.6172 18.3769 22.5162 19.2674 22.1788 20.0859C21.8839 20.814 21.3601 21.4494 20.6932 21.8669C20.0175 22.2916 19.2262 22.4863 18.4423 22.5871C17.406 22.7191 16.3594 22.7236 15.3164 22.7338C14.912 22.7367 14.5076 22.7344 14.1032 22.7367C13.9381 22.7425 13.7658 22.7257 13.6214 22.6388C13.3398 22.4825 13.1821 22.1339 13.2601 21.8197C13.3146 21.579 13.4929 21.37 13.7257 21.2854C13.8663 21.2265 14.0208 21.2375 14.1698 21.2371C15.2726 21.2333 16.3768 21.2443 17.478 21.1748C17.9769 21.1406 18.4767 21.0886 18.9637 20.971C19.3274 20.8817 19.6864 20.7488 19.9941 20.5313C20.2874 20.3243 20.5294 20.0456 20.6941 19.7265C20.8873 19.3544 20.9894 18.943 21.0589 18.5319C21.136 18.0705 21.1709 17.6036 21.1943 17.1368C21.24 16.1717 21.2343 15.2051 21.237 14.2393C21.242 14.0845 21.2208 13.9255 21.2674 13.7753C21.3461 13.5141 21.5756 13.3027 21.8453 13.2546Z" fill="#4B4B4B"/>
<path d="M13.2413 2.02399C13.2186 1.62474 13.5675 1.24821 13.9696 1.25001C15.2529 1.25293 16.5383 1.23494 17.8189 1.33255C18.6925 1.40521 19.5821 1.54106 20.3736 1.93784C21.0331 2.26894 21.5927 2.7973 21.9553 3.4406C22.2889 4.02744 22.4614 4.69053 22.5606 5.35407C22.6881 6.2133 22.7099 7.08333 22.7266 7.95044C22.934 7.95089 23.1414 7.94954 23.3488 7.95089C23.5004 7.95111 23.6511 8.00555 23.7667 8.10406C23.8868 8.20146 23.9576 8.34428 23.9999 8.49026V8.73387C23.9302 8.95722 23.7862 9.14594 23.6776 9.35062C23.3809 9.86391 23.0847 10.3775 22.7882 10.8908C22.6949 11.0455 22.6137 11.2077 22.5122 11.3573C22.3125 11.633 21.8894 11.696 21.6143 11.4983C21.4555 11.3948 21.3824 11.2138 21.2877 11.0581C20.9008 10.3878 20.5137 9.71749 20.1269 9.04742C20.0405 8.91134 19.966 8.75838 19.9759 8.59284C19.9798 8.26984 20.2508 7.97473 20.5751 7.95359C20.7922 7.94594 21.0097 7.95269 21.2272 7.95044C21.2148 7.25765 21.1964 6.56374 21.1181 5.87478C21.0655 5.43752 20.991 4.99913 20.8381 4.58459C20.7202 4.26429 20.545 3.96176 20.3034 3.71861C20.0643 3.47051 19.7647 3.28629 19.444 3.16348C18.9946 2.99051 18.5152 2.91314 18.0388 2.85893C16.6717 2.7206 15.2954 2.76153 13.9235 2.74466C13.558 2.72217 13.246 2.38927 13.2413 2.02399Z" fill="#4B4B4B"/>
<path d="M9.54242 10.0837C9.62452 9.99123 9.71921 9.88799 9.85057 9.8772C9.97136 9.861 10.0784 9.9368 10.1581 10.0194C10.2829 10.1525 10.3819 10.3066 10.4878 10.4548C11.5567 12.0086 12.6222 13.5647 13.6865 15.1217C12.884 16.1278 12.0727 17.1271 11.2782 18.1398C11.2307 18.2041 11.1599 18.2664 11.166 18.3539C11.1664 18.4095 11.2062 18.4524 11.2355 18.4961C9.25293 18.4864 7.27018 18.4934 5.28742 18.4913C5.03168 18.4895 4.77458 18.4988 4.52041 18.4655C4.40255 18.4481 4.27277 18.4191 4.19337 18.3226C4.11779 18.2322 4.12071 18.1015 4.15985 17.9963C4.2298 17.8087 4.34609 17.6438 4.45496 17.4776C6.02092 15.1907 7.59138 12.9068 9.15801 10.6204C9.28352 10.4397 9.40251 10.2537 9.54242 10.0837Z" fill="#4B4B4B"/>
<path d="M1.57473 12.5257C1.75648 12.3595 2.03404 12.312 2.26167 12.4045C2.4036 12.4596 2.52124 12.5678 2.59479 12.7002C3.0442 13.4801 3.49541 14.2592 3.94482 15.0393C4.0791 15.2678 4.05008 15.5746 3.88139 15.7775C3.76442 15.9242 3.58223 16.0162 3.39419 16.0204C3.18208 16.0238 2.96952 16.02 2.75719 16.022C2.77158 16.7553 2.78868 17.4903 2.88022 18.2187C2.94253 18.6903 3.03205 19.1656 3.22999 19.6013C3.35438 19.8775 3.53117 20.1306 3.75318 20.3371C3.98778 20.5597 4.27411 20.7224 4.57619 20.8353C4.97769 20.9851 5.40281 21.0589 5.82658 21.1122C6.28139 21.1682 6.73912 21.1929 7.19663 21.2087C8.05158 21.2383 8.90699 21.2347 9.76217 21.2372C9.9149 21.2386 10.0715 21.2222 10.219 21.2714C10.4846 21.3501 10.6905 21.5906 10.733 21.8637C10.7944 22.1853 10.6106 22.5274 10.3151 22.6635C10.1302 22.7609 9.9167 22.7317 9.71606 22.7357C8.61368 22.7337 7.51018 22.7402 6.40937 22.6707C5.59558 22.6131 4.77188 22.5159 4.00532 22.2217C3.35505 21.9759 2.76843 21.5577 2.34062 21.008C1.8541 20.3953 1.59835 19.6339 1.46339 18.8719C1.30009 17.9312 1.2776 16.9737 1.25713 16.0216C1.05605 16.0211 0.854733 16.0229 0.653646 16.0211C0.459531 16.0204 0.268791 15.9282 0.149128 15.7757C0.0573571 15.6635 0.00877226 15.5211 0 15.3774V15.3483C0.00652296 15.2365 0.0355389 15.1259 0.092671 15.0292C0.520937 14.288 0.948754 13.5466 1.37657 12.8055C1.43348 12.7063 1.48724 12.6019 1.57473 12.5257Z" fill="#4B4B4B"/>
<path opacity="0.25" d="M16.7202 6.08457C17.0792 6.02519 17.4571 6.07827 17.7823 6.24269C18.0932 6.40172 18.3541 6.65971 18.5091 6.97326C18.68 7.31291 18.7347 7.71013 18.6585 8.08284C18.5892 8.41821 18.4122 8.72952 18.162 8.96299C17.855 9.25743 17.4299 9.42275 17.005 9.41758C16.6253 9.41533 16.247 9.27992 15.9552 9.03632C15.4354 8.62065 15.2134 7.87636 15.4141 7.24251C15.5942 6.65791 16.1138 6.18579 16.7202 6.08457Z" fill="#4B4B4B"/>
<path opacity="0.6" d="M15.2102 13.255C15.2884 13.1876 15.3935 13.1381 15.499 13.1601C15.6355 13.1871 15.7367 13.2922 15.824 13.3936C16.0078 13.6091 16.1787 13.8351 16.3566 14.0556C17.2392 15.1665 18.127 16.2736 19.0124 17.3825C19.128 17.531 19.2454 17.6785 19.3453 17.8384C19.4028 17.9331 19.4523 18.0389 19.4564 18.1515C19.4557 18.2795 19.3561 18.3922 19.2355 18.4264C18.9714 18.5056 18.6927 18.4871 18.4206 18.4912C17.6041 18.493 16.7874 18.4889 15.9709 18.4937C15.2434 18.5024 14.5162 18.5121 13.7888 18.5112C13.0238 18.5092 12.2586 18.5074 11.4936 18.5094C11.4073 18.5117 11.3202 18.5146 11.2354 18.4961C11.2062 18.4525 11.1664 18.4095 11.1659 18.354C11.1598 18.2665 11.2307 18.2042 11.2782 18.1398C12.0726 17.1272 12.8839 16.1279 13.6865 15.1217C14.1037 14.6035 14.5153 14.0808 14.9328 13.5628C15.0194 13.4552 15.1056 13.3459 15.2102 13.255Z" fill="#4B4B4B"/>
</g>
</g>
</g>
<defs>
<clipPath id="clip0_35569_36369">
<rect width="24" height="24" fill="white"/>
</clipPath>
</defs>
</svg>
