<svg width="12" height="12" viewBox="0 0 12 12" fill="none" xmlns="http://www.w3.org/2000/svg">
<g clip-path="url(#clip0_28731_59970)">
<path d="M5.03261 1.13253C5.08333 1.12724 5.1345 1.12477 5.18556 1.12477C5.71021 1.12477 6.23475 1.12477 6.7594 1.12477C6.85274 1.12342 6.94643 1.12713 7.03876 1.14231C7.39246 1.19697 7.72232 1.39142 7.93983 1.67585C8.06691 1.84049 8.15565 2.03427 8.1976 2.23795C8.22234 2.37392 8.3411 2.4893 8.47988 2.50291C8.92401 2.52327 9.37634 2.55543 9.79775 2.70861C10.1295 2.82749 10.4217 3.03903 10.6652 3.29118C10.8098 3.44346 10.9393 3.6117 11.0388 3.79716C11.1939 4.08631 11.2692 4.41065 11.3098 4.7341C11.3584 5.12953 11.3649 5.52856 11.3697 5.92646C11.3726 6.51161 11.3748 7.09676 11.3663 7.68192C11.355 8.14033 11.3419 8.60379 11.2319 9.05129C11.1762 9.27397 11.0911 9.49058 10.9677 9.68481C10.773 9.98835 10.5122 10.2489 10.2103 10.446C9.86433 10.6739 9.45135 10.7713 9.04423 10.8162C8.52116 10.8724 7.99415 10.8685 7.46871 10.8716C6.43763 10.8714 5.40656 10.8723 4.37548 10.8712C3.89863 10.8678 3.42043 10.8676 2.94582 10.8154C2.56592 10.7727 2.18208 10.6852 1.85132 10.4863C1.50886 10.2777 1.2151 9.98801 1.00547 9.64601C0.791223 9.2914 0.708561 8.8763 0.669873 8.46884C0.620839 7.93069 0.627812 7.38962 0.625 6.84979C0.627587 6.2535 0.616903 5.65632 0.655703 5.06081C0.68798 4.61039 0.756809 4.14704 0.98455 3.74947C1.18294 3.41028 1.46556 3.12214 1.79475 2.90857C2.09548 2.713 2.44761 2.61358 2.79985 2.56308C3.0349 2.52889 3.2722 2.51337 3.50939 2.50359C3.65143 2.49369 3.77413 2.37628 3.79966 2.23761C3.86939 1.89155 4.07958 1.578 4.37008 1.37826C4.56554 1.24229 4.79576 1.15716 5.03261 1.13253ZM5.08547 1.88121C4.82163 1.91517 4.58781 2.12301 4.53462 2.3855C4.47973 2.66632 4.30744 2.92117 4.06867 3.07851C3.8975 3.19311 3.69225 3.25463 3.48633 3.25519C3.15433 3.27217 2.81716 3.29455 2.49889 3.39768C2.29634 3.46224 2.11606 3.58235 1.96007 3.72496C1.84581 3.82955 1.74459 3.94854 1.66091 4.07888C1.54058 4.26996 1.48277 4.49253 1.44734 4.71341C1.40337 4.99581 1.39111 5.28192 1.38313 5.56736C1.37413 5.93062 1.37548 6.2941 1.3748 6.65759C1.3766 7.16391 1.37019 7.67067 1.3991 8.17643C1.4154 8.42936 1.43958 8.68387 1.50841 8.92871C1.55137 9.08132 1.61739 9.22854 1.7122 9.35618C1.8412 9.53568 2.00359 9.69065 2.18792 9.81245C2.32783 9.90591 2.48742 9.96586 2.65015 10.0053C2.87643 10.06 3.10901 10.0821 3.34091 10.097C3.74522 10.1209 4.15032 10.1203 4.5552 10.122C5.07647 10.122 5.59775 10.122 6.11913 10.122C6.75636 10.1207 7.3937 10.1252 8.03092 10.118C8.33503 10.1131 8.6397 10.1055 8.94234 10.0731C9.15985 10.0489 9.37837 10.0123 9.58249 9.93077C9.7053 9.88241 9.81844 9.81245 9.92224 9.73137C10.0804 9.60901 10.2185 9.46044 10.3281 9.2932C10.4235 9.14644 10.4814 8.97853 10.5191 8.80848C10.5653 8.59716 10.5853 8.38123 10.5987 8.16563C10.6158 7.87322 10.619 7.58025 10.621 7.28739C10.6227 6.88274 10.6227 6.47821 10.621 6.07356C10.6181 5.71705 10.6153 5.35997 10.5848 5.00447C10.5637 4.77673 10.5327 4.54752 10.4566 4.3308C10.4128 4.20518 10.349 4.08676 10.2684 3.98093C10.1363 3.80346 9.9715 3.65039 9.78481 3.53152C9.63658 3.43795 9.46867 3.38036 9.29829 3.34303C9.08843 3.29714 8.87419 3.27678 8.66016 3.26295C8.5206 3.2526 8.37821 3.25924 8.24247 3.21999C7.85964 3.12136 7.5489 2.79397 7.46736 2.40766C7.44453 2.28529 7.38639 2.16979 7.2999 2.08004C7.17574 1.94891 6.99625 1.87378 6.81585 1.87446C6.30965 1.87446 5.80333 1.87446 5.29701 1.87446C5.2265 1.87525 5.15553 1.8712 5.08547 1.88121Z" fill="white"/>
<path opacity="0.5" d="M5.27859 2.50185C5.73441 2.49713 6.19034 2.50129 6.64616 2.49971C6.83904 2.49724 7.03259 2.56033 7.18487 2.6791C7.33209 2.79246 7.43836 2.95857 7.47525 3.1411C7.52451 3.37255 7.7382 3.55407 7.97347 3.57094C8.22236 3.58151 8.47259 3.59658 8.71709 3.64798C8.89006 3.68431 9.06022 3.74245 9.21149 3.83535C9.38851 3.94455 9.54629 4.08536 9.67417 4.24956C9.75627 4.35314 9.82251 4.4692 9.86862 4.59325C9.9515 4.8148 9.98108 5.05188 9.99919 5.28648C10.0247 5.64952 10.0218 6.01379 10.0234 6.3775C10.0219 6.80881 10.0283 7.24045 10.0056 7.6713C9.98873 7.94436 9.96185 8.22204 9.86255 8.47925C9.78911 8.67336 9.66112 8.84206 9.5139 8.98635C9.35409 9.13964 9.16751 9.2692 8.9572 9.34219C8.69741 9.43374 8.42063 9.46061 8.14746 9.47771C7.76777 9.49852 7.38719 9.49638 7.00706 9.49694C6.50434 9.49694 6.00151 9.49694 5.4988 9.49694C5.00418 9.49525 4.50933 9.50256 4.01493 9.48558C3.77122 9.47569 3.52661 9.46005 3.28717 9.41079C3.11027 9.37413 2.93606 9.31542 2.78187 9.21994C2.59124 9.10185 2.42299 8.94733 2.29074 8.76614C2.20178 8.64626 2.13733 8.50939 2.09471 8.36667C2.03758 8.17672 2.01317 7.97878 1.99777 7.78151C1.97763 7.5089 1.97527 7.23527 1.97347 6.96198C1.97246 6.61717 1.9719 6.27235 1.97482 5.92753C1.9782 5.65334 1.98326 5.3787 2.01374 5.10598C2.03881 4.89173 2.08088 4.6758 2.17602 4.48067C2.31233 4.20963 2.53681 3.9883 2.79357 3.83006C2.95799 3.73064 3.14401 3.67261 3.33205 3.6373C3.55743 3.59523 3.78697 3.58061 4.01583 3.57139C4.25426 3.55745 4.47244 3.37379 4.52136 3.13908C4.55612 2.96948 4.6507 2.81394 4.78273 2.70238C4.92073 2.58451 5.09763 2.51411 5.27859 2.50185ZM7.10007 4.24359C7.01628 4.29488 6.95994 4.38946 6.95814 4.48809C6.9569 4.55793 6.95836 4.62766 6.95769 4.6975C6.51806 4.43411 5.96879 4.36506 5.47698 4.50811C5.11923 4.60967 4.79477 4.82211 4.55589 5.10687C4.32061 5.385 4.16991 5.73342 4.12785 6.09533C4.08005 6.49121 4.16181 6.9017 4.35975 7.24809C4.55814 7.59797 4.87135 7.88161 5.24001 8.04288C5.62228 8.21158 6.06101 8.24701 6.46554 8.14286C6.7972 8.05885 7.10446 7.88127 7.34311 7.6361C7.63709 7.33852 7.82626 6.9396 7.86978 6.5236C7.88035 6.41788 7.82817 6.30935 7.74011 6.25053C7.65891 6.19407 7.54881 6.18238 7.4576 6.22061C7.36065 6.25953 7.28732 6.35242 7.2745 6.45634C7.23829 6.80521 7.05092 7.13405 6.76999 7.3438C6.45812 7.58223 6.03368 7.66185 5.65602 7.55557C5.27342 7.45255 4.94862 7.1606 4.80466 6.7916C4.65925 6.43014 4.69152 6.00311 4.89092 5.6683C5.08223 5.33956 5.42614 5.10463 5.8029 5.04963C6.05505 5.01049 6.31844 5.04907 6.54888 5.15838C6.5572 5.16322 6.56474 5.16918 6.57137 5.17649C6.4751 5.19921 6.36568 5.20517 6.29224 5.2803C6.19855 5.36599 6.17089 5.51332 6.22689 5.62725C6.28245 5.74905 6.42618 5.8217 6.5572 5.79246C6.81373 5.73859 7.07027 5.68472 7.32669 5.63029C7.45748 5.60195 7.55825 5.47621 7.55735 5.34238C7.55803 5.08 7.55724 4.8175 7.55769 4.55512C7.55769 4.50969 7.55938 4.46313 7.54667 4.41893C7.52215 4.32839 7.45242 4.25158 7.36459 4.21874C7.27889 4.18534 7.17801 4.19467 7.10007 4.24359Z" fill="white"/>
</g>
<defs>
<clipPath id="clip0_28731_59970">
<rect width="12" height="12" fill="white"/>
</clipPath>
</defs>
</svg>
