<svg width="24" height="24" viewBox="0 0 24 24" fill="none" xmlns="http://www.w3.org/2000/svg">
<g clip-path="url(#clip0_28282_110568)">
<path opacity="0.5" d="M7.16379 1.27737C8.11231 1.24611 9.06152 1.24948 10.0105 1.24926C10.3684 1.24858 10.697 1.54481 10.7375 1.89953C10.7867 2.22905 10.5843 2.57499 10.2739 2.69488C10.1196 2.76056 9.94842 2.74819 9.78467 2.74774C8.80217 2.75089 7.81901 2.74459 6.83741 2.79115C6.31737 2.81724 5.79666 2.85863 5.28472 2.95647C4.92551 3.02665 4.56855 3.12675 4.24397 3.29882C3.85822 3.5008 3.53364 3.81773 3.32311 4.19876C3.1317 4.5429 3.02463 4.92686 2.9513 5.31149C2.80195 6.12618 2.78035 6.95707 2.76056 7.78302C2.74752 8.45803 2.74976 9.13304 2.74796 9.80783C2.74931 9.96911 2.75786 10.1383 2.68858 10.2885C2.5606 10.6023 2.19846 10.7982 1.86579 10.7318C1.59295 10.6871 1.3606 10.4738 1.2803 10.2109C1.24903 10.1167 1.24746 10.0166 1.24903 9.91827C1.25128 8.81702 1.24296 7.71486 1.30212 6.61473C1.33788 6.01822 1.39029 5.42035 1.5185 4.83576C1.62354 4.36296 1.77447 3.89623 2.01132 3.47224C2.36446 2.83726 2.90317 2.30665 3.54804 1.97038C4.27771 1.58733 5.1014 1.4364 5.91408 1.35497C6.32952 1.31381 6.74654 1.29222 7.16379 1.27737Z" fill="#4B4B4B"/>
<path opacity="0.5" d="M21.8452 13.2544C22.1349 13.1953 22.4518 13.3298 22.6122 13.5779C22.6932 13.6993 22.7348 13.8451 22.7364 13.9908C22.7323 15.1607 22.7458 16.3319 22.6752 17.5004C22.6171 18.3768 22.5161 19.2673 22.1788 20.0858C21.8839 20.8139 21.36 21.4493 20.6931 21.8668C20.0174 22.2914 19.2261 22.4862 18.4422 22.587C17.406 22.719 16.3594 22.7235 15.3164 22.7336C14.9119 22.7366 14.5075 22.7343 14.1031 22.7366C13.938 22.7424 13.7657 22.7255 13.6213 22.6387C13.3397 22.4824 13.182 22.1338 13.2601 21.8195C13.3145 21.5789 13.4929 21.3699 13.7257 21.2853C13.8662 21.2264 14.0208 21.2374 14.1697 21.237C15.2725 21.2331 16.3767 21.2442 17.4779 21.1747C17.9768 21.1405 18.4766 21.0885 18.9636 20.9709C19.3273 20.8816 19.6863 20.7486 19.994 20.5311C20.2873 20.3242 20.5293 20.0455 20.694 19.7263C20.8872 19.3543 20.9893 18.9429 21.0588 18.5317C21.136 18.0704 21.1708 17.6034 21.1942 17.1367C21.2399 16.1715 21.2343 15.205 21.237 14.2392C21.2419 14.0844 21.2208 13.9254 21.2673 13.7751C21.3461 13.514 21.5755 13.3026 21.8452 13.2544Z" fill="#4B4B4B"/>
<path d="M13.2414 2.02392C13.2187 1.62467 13.5675 1.24814 13.9697 1.24994C15.2529 1.25286 16.5384 1.23487 17.8189 1.33249C18.6925 1.40514 19.5821 1.541 20.3737 1.93777C21.0332 2.26887 21.5928 2.79723 21.9554 3.44053C22.2889 4.02737 22.4615 4.69046 22.5607 5.35401C22.6882 6.21324 22.71 7.08326 22.7267 7.95037C22.934 7.95082 23.1414 7.94947 23.3488 7.95082C23.5004 7.95104 23.6511 8.00548 23.7667 8.104C23.8869 8.20139 23.9577 8.34422 24 8.4902V8.7338C23.9303 8.95715 23.7863 9.14587 23.6777 9.35056C23.381 9.86385 23.0848 10.3774 22.7883 10.8907C22.6949 11.0454 22.6137 11.2076 22.5123 11.3572C22.3126 11.6329 21.8895 11.6959 21.6144 11.4982C21.4556 11.3947 21.3825 11.2136 21.2878 11.058C20.9009 10.3877 20.5138 9.71742 20.1269 9.04735C20.0406 8.91127 19.9661 8.75832 19.976 8.59277C19.9798 8.26977 20.2509 7.97466 20.5752 7.95352C20.7923 7.94587 21.0098 7.95262 21.2273 7.95037C21.2149 7.25759 21.1965 6.56368 21.1182 5.87472C21.0656 5.43745 20.9911 4.99907 20.8382 4.58452C20.7203 4.26422 20.5451 3.96169 20.3035 3.71854C20.0644 3.47044 19.7648 3.28623 19.444 3.16341C18.9946 2.99044 18.5153 2.91307 18.0389 2.85886C16.6718 2.72053 15.2954 2.76147 13.9236 2.7446C13.5581 2.7221 13.2461 2.38921 13.2414 2.02392Z" fill="#4B4B4B"/>
<path d="M9.54242 10.0834C9.62452 9.99093 9.71921 9.88769 9.85057 9.8769C9.97136 9.8607 10.0784 9.9365 10.1581 10.0191C10.2829 10.1522 10.3819 10.3063 10.4878 10.4545C11.5567 12.0083 12.6222 13.5644 13.6865 15.1214C12.884 16.1275 12.0727 17.1268 11.2782 18.1395C11.2307 18.2038 11.1599 18.2661 11.166 18.3536C11.1664 18.4092 11.2062 18.4521 11.2355 18.4958C9.25293 18.4861 7.27018 18.4931 5.28742 18.491C5.03168 18.4892 4.77458 18.4985 4.52041 18.4652C4.40255 18.4478 4.27277 18.4188 4.19337 18.3223C4.11779 18.2319 4.12071 18.1012 4.15985 17.996C4.2298 17.8084 4.34609 17.6435 4.45496 17.4773C6.02092 15.1904 7.59138 12.9065 9.15801 10.6201C9.28352 10.4394 9.40251 10.2534 9.54242 10.0834Z" fill="#4B4B4B"/>
<path d="M1.57473 12.5257C1.75648 12.3594 2.03404 12.312 2.26167 12.4044C2.4036 12.4595 2.52124 12.5677 2.59479 12.7002C3.0442 13.48 3.49541 14.2592 3.94482 15.0393C4.0791 15.2678 4.05008 15.5746 3.88139 15.7775C3.76442 15.9241 3.58223 16.0161 3.39419 16.0204C3.18208 16.0238 2.96952 16.0199 2.75719 16.022C2.77158 16.7552 2.78868 17.4903 2.88022 18.2186C2.94253 18.6903 3.03205 19.1656 3.22999 19.6013C3.35438 19.8775 3.53117 20.1305 3.75318 20.337C3.98778 20.5597 4.27411 20.7223 4.57619 20.8352C4.97769 20.985 5.40281 21.0588 5.82658 21.1121C6.28139 21.1681 6.73912 21.1929 7.19663 21.2086C8.05158 21.2383 8.90699 21.2347 9.76217 21.2372C9.9149 21.2385 10.0715 21.2221 10.219 21.2714C10.4846 21.3501 10.6905 21.5906 10.733 21.8636C10.7944 22.1853 10.6106 22.5274 10.3151 22.6635C10.1302 22.7609 9.9167 22.7316 9.71606 22.7357C8.61368 22.7336 7.51018 22.7402 6.40937 22.6707C5.59558 22.6131 4.77188 22.5159 4.00532 22.2217C3.35505 21.9759 2.76843 21.5577 2.34062 21.008C1.8541 20.3953 1.59835 19.6339 1.46339 18.8718C1.30009 17.9312 1.2776 16.9736 1.25713 16.0215C1.05605 16.0211 0.854733 16.0229 0.653646 16.0211C0.459531 16.0204 0.268791 15.9282 0.149128 15.7757C0.0573571 15.6634 0.00877226 15.5211 0 15.3773V15.3483C0.00652296 15.2365 0.0355389 15.1259 0.092671 15.0291C0.520937 14.288 0.948754 13.5466 1.37657 12.8055C1.43348 12.7063 1.48724 12.6019 1.57473 12.5257Z" fill="#4B4B4B"/>
<path opacity="0.25" d="M16.7204 6.08435C17.0794 6.02497 17.4572 6.07805 17.7825 6.24248C18.0933 6.4015 18.3543 6.6595 18.5092 6.97305C18.6802 7.31269 18.7348 7.70992 18.6586 8.08263C18.5893 8.418 18.4123 8.7293 18.1622 8.96278C17.8551 9.25721 17.43 9.42253 17.0051 9.41736C16.6254 9.41511 16.2471 9.2797 15.9554 9.0361C15.4356 8.62043 15.2136 7.87614 15.4142 7.24229C15.5944 6.6577 16.114 6.18557 16.7204 6.08435Z" fill="#4B4B4B"/>
<path opacity="0.6" d="M15.2102 13.2547C15.2885 13.1872 15.3935 13.1377 15.499 13.1597C15.6355 13.1867 15.7368 13.2918 15.824 13.3932C16.0078 13.6087 16.1787 13.8348 16.3567 14.0552C17.2393 15.1661 18.1271 16.2732 19.0124 17.3821C19.128 17.5306 19.2454 17.6781 19.3453 17.838C19.4029 17.9327 19.4524 18.0385 19.4564 18.1512C19.4557 18.2791 19.3561 18.3918 19.2355 18.426C18.9715 18.5052 18.6928 18.4867 18.4206 18.4908C17.6041 18.4926 16.7874 18.4885 15.9709 18.4933C15.2435 18.502 14.5163 18.5117 13.7889 18.5108C13.0239 18.5088 12.2587 18.507 11.4937 18.509C11.4073 18.5113 11.3203 18.5142 11.2355 18.4957C11.2062 18.4521 11.1664 18.4091 11.166 18.3536C11.1599 18.2661 11.2307 18.2038 11.2782 18.1395C12.0726 17.1268 12.884 16.1275 13.6865 15.1213C14.1038 14.6031 14.5154 14.0804 14.9329 13.5624C15.0195 13.4548 15.1056 13.3455 15.2102 13.2547Z" fill="#4B4B4B"/>
</g>
<defs>
<clipPath id="clip0_28282_110568">
<rect width="24" height="24" fill="white"/>
</clipPath>
</defs>
</svg>
