<svg width="24" height="24" viewBox="0 0 24 24" fill="none" xmlns="http://www.w3.org/2000/svg">
<path opacity="0.5" d="M16.4017 0.500751C16.9042 0.444969 17.424 0.554734 17.8591 0.813179C18.4173 1.13978 18.8308 1.70435 18.9682 2.33685C19.093 2.89513 19.008 3.49794 18.7286 3.99773C18.4056 4.58368 17.8246 5.02094 17.1694 5.16085C16.6204 5.28298 16.0286 5.20178 15.5346 4.93164C14.9352 4.61067 14.4894 4.0191 14.3484 3.35353C14.2298 2.8092 14.3099 2.22326 14.5755 1.73292C14.9343 1.0561 15.639 0.577677 16.4017 0.500751ZM16.4087 1.61168C16.0549 1.68186 15.7373 1.91196 15.5605 2.22641C15.3851 2.52962 15.3479 2.90705 15.4561 3.23972C15.5598 3.56677 15.8046 3.84523 16.1143 3.99256C16.3889 4.12482 16.7117 4.15136 17.0048 4.06814C17.3311 3.97659 17.6157 3.74761 17.7745 3.44801C17.9409 3.14165 17.9695 2.76489 17.8541 2.43605C17.7369 2.09325 17.4634 1.80849 17.1267 1.67623C16.9002 1.58581 16.6476 1.56399 16.4087 1.61168Z" fill="#4B4B4B"/>
<path opacity="0.5" d="M2.77197 12.7822C8.93235 12.7829 15.0927 12.782 21.2533 12.7827C21.2477 13.2825 21.2394 13.7825 21.2 14.281C15.0752 14.2812 8.95011 14.2812 2.82528 14.281C2.78547 13.7825 2.77759 13.282 2.77197 12.7822Z" fill="#4B4B4B"/>
<path opacity="0.5" d="M11.2642 18.2785C11.7629 18.2783 12.2618 18.2783 12.7605 18.2785C12.7652 19.4438 12.7596 20.6097 12.7632 21.7752C13.8473 21.7773 14.9317 21.7773 16.0157 21.7766C16.2417 21.7766 16.4646 21.8843 16.6009 22.0652C16.7815 22.2921 16.8128 22.6255 16.6718 22.8799C16.537 23.1304 16.2545 23.2951 15.9689 23.276C13.3149 23.2749 10.6612 23.2758 8.00746 23.2753C7.65927 23.2785 7.33469 23.0072 7.27846 22.663C7.20851 22.3301 7.40172 21.9709 7.71415 21.8396C7.83359 21.7827 7.96787 21.7721 8.09833 21.7766C9.15303 21.7768 10.2077 21.7779 11.2624 21.7757C11.2636 20.6099 11.2609 19.4441 11.2642 18.2785Z" fill="#4B4B4B"/>
<path d="M8.47971 1.81151C9.41722 1.78856 10.355 1.78991 11.2927 1.78834C11.4058 1.78789 11.5212 1.80049 11.6258 1.84637C11.9284 1.96873 12.1274 2.30725 12.0806 2.63138C12.0442 2.97844 11.7313 3.27445 11.3818 3.28592C9.75416 3.29514 8.12342 3.27468 6.5001 3.41211C5.87997 3.46879 5.25692 3.54144 4.65613 3.71149C4.45144 3.77244 4.24631 3.8406 4.06232 3.95149C3.95232 4.01694 3.85988 4.10669 3.76653 4.19351C3.5659 4.38628 3.38483 4.60311 3.25707 4.85143C3.08657 5.17983 2.99345 5.54197 2.93137 5.90478C2.8459 6.40637 2.81598 6.91516 2.79551 7.42283C2.76087 8.41185 2.76987 9.40176 2.76829 10.3912C2.76919 11.1884 2.76605 11.9855 2.77167 12.7824C2.77729 13.2822 2.78516 13.7827 2.82498 14.2811C2.86344 14.7288 2.91607 15.1833 3.08612 15.6031C3.2159 15.9252 3.45411 16.2056 3.76023 16.3723C4.07559 16.5455 4.433 16.62 4.78591 16.6712C5.40627 16.7556 6.03337 16.7657 6.65823 16.7747C7.77545 16.7839 8.89246 16.7774 10.0095 16.779C12.2889 16.7788 14.5684 16.7792 16.8478 16.7788C17.5903 16.7731 18.3348 16.7736 19.0739 16.6924C19.4815 16.6418 19.8992 16.572 20.264 16.3725C20.5594 16.2126 20.7901 15.9467 20.9231 15.6399C21.1057 15.2108 21.1597 14.7416 21.1997 14.2811C21.2391 13.7827 21.2474 13.2827 21.253 12.7829C21.2598 12.0309 21.2548 11.2788 21.2573 10.5266C21.2499 10.1656 21.5484 9.83115 21.9058 9.79021C22.2344 9.73938 22.5794 9.94182 22.7009 10.2502C22.7659 10.4004 22.7565 10.5676 22.7553 10.7275C22.7542 11.4778 22.7592 12.2282 22.7499 12.9786C22.7396 13.2404 22.7574 13.5029 22.7315 13.7643C22.707 14.3072 22.6714 14.8522 22.5612 15.3858C22.4758 15.7987 22.3419 16.2054 22.1285 16.5709C21.8167 17.1081 21.3327 17.5417 20.767 17.797C20.3454 17.9898 19.8893 18.0944 19.4318 18.1578C18.903 18.23 18.3688 18.2529 17.8357 18.2662C17.1463 18.282 16.4566 18.2779 15.767 18.2786C14.7647 18.2786 13.7624 18.2786 12.7601 18.2786C12.2615 18.2784 11.7626 18.2784 11.2639 18.2786C10.0286 18.2786 8.79304 18.2786 7.55772 18.2786C6.97223 18.2777 6.38674 18.2763 5.80192 18.2543C5.30168 18.2345 4.80076 18.201 4.30749 18.1126C3.91364 18.0411 3.52383 17.9311 3.1644 17.7525C2.5942 17.4724 2.11622 17.0071 1.82539 16.4418C1.60271 16.0162 1.48057 15.5459 1.40747 15.0736C1.33707 14.6269 1.31255 14.175 1.29073 13.724C1.27521 13.603 1.27364 13.4813 1.27903 13.3598C1.26104 12.0186 1.27229 10.6771 1.26959 9.33563C1.27229 8.62283 1.27161 7.90958 1.3049 7.19745C1.33144 6.64705 1.37081 6.09574 1.4709 5.55321C1.55547 5.09706 1.68503 4.64652 1.89152 4.22973C2.14232 3.71734 2.5211 3.27692 2.95364 2.90894C3.22648 2.67276 3.55397 2.50811 3.89114 2.3844C4.40736 2.19704 4.94966 2.09379 5.49197 2.01642C6.48188 1.88034 7.4817 1.83715 8.47971 1.81151Z" fill="#4B4B4B"/>
<path d="M16.5843 5.47651C17.5337 5.45154 18.5014 5.60224 19.366 6.00734C19.7506 6.19066 20.1139 6.42954 20.4068 6.74129C20.6722 7.02425 20.8755 7.37514 20.9423 7.76022C20.9803 7.96041 20.9691 8.16509 20.9673 8.36753C20.9603 8.72382 20.911 9.08933 20.7435 9.40873C20.5847 9.72183 20.3175 9.96993 20.0118 10.1373C19.6773 10.3206 19.3064 10.4263 18.9335 10.4976C18.4089 10.5954 17.8749 10.6328 17.3423 10.649C16.8245 10.6622 16.3061 10.6582 15.7887 10.6294C15.3245 10.6024 14.8598 10.552 14.4063 10.4459C14.0183 10.3534 13.6325 10.2142 13.3127 9.97015C13.0513 9.77402 12.8493 9.4996 12.7423 9.19077C12.644 8.91276 12.6165 8.61585 12.6118 8.32299C12.6105 8.11966 12.6021 7.91362 12.6469 7.71366C12.7189 7.36277 12.9011 7.04157 13.1406 6.77773C13.4387 6.44663 13.8168 6.19673 14.2171 6.00622C14.9556 5.65938 15.7721 5.50148 16.5843 5.47651ZM16.6061 6.57664C15.8904 6.60116 15.1652 6.74219 14.5289 7.08138C14.2309 7.24783 13.9348 7.46129 13.7805 7.77507C13.6796 7.97188 13.7164 8.19838 13.7169 8.41072C13.7268 8.64239 13.7515 8.90984 13.9452 9.06729C14.191 9.2668 14.5091 9.34283 14.8121 9.40873C15.3703 9.51647 15.9405 9.54436 16.508 9.55381C17.1021 9.56011 17.6981 9.55111 18.2888 9.48251C18.6568 9.4364 19.0302 9.37769 19.3721 9.22744C19.5432 9.15164 19.7167 9.03895 19.788 8.85765C19.8786 8.62283 19.8615 8.36551 19.8694 8.11853C19.8773 7.9775 19.839 7.83692 19.7689 7.71501C19.6517 7.50965 19.4701 7.35017 19.2767 7.21836C18.9602 7.00378 18.6001 6.86185 18.2333 6.75973C17.7044 6.61555 17.1534 6.56022 16.6061 6.57664Z" fill="#4B4B4B"/>
</svg>
