<svg width="24" height="24" viewBox="0 0 24 24" fill="none" xmlns="http://www.w3.org/2000/svg">
<path fill-rule="evenodd" clip-rule="evenodd" d="M2 5C2 3.48122 3.23122 2.25 4.75 2.25H19.25C20.7688 2.25 22 3.48122 22 5V14.7492C22 16.268 20.7688 17.4992 19.25 17.4992H12.2436L6.73447 21.4996C5.90815 22.0996 4.75 21.5093 4.75 20.4881V17.4992C3.23122 17.4992 2 16.268 2 14.7492V5ZM4.75 3.75C4.05964 3.75 3.5 4.30964 3.5 5V14.7492C3.5 15.4396 4.05964 15.9992 4.75 15.9992H5C5.69036 15.9992 6.25 16.5589 6.25 17.2492V19.9976L11.4279 16.2377C11.6414 16.0827 11.8985 15.9992 12.1624 15.9992H19.25C19.9404 15.9992 20.5 15.4396 20.5 14.7492V5C20.5 4.30964 19.9404 3.75 19.25 3.75H4.75Z" fill="#4B4B4B"/>
<path opacity="0.5" fill-rule="evenodd" clip-rule="evenodd" d="M5.69629 8.30029C5.69629 7.88607 6.03208 7.55029 6.44629 7.55029H14.6211C15.0353 7.55029 15.3711 7.88607 15.3711 8.30029C15.3711 8.7145 15.0353 9.05029 14.6211 9.05029H6.44629C6.03208 9.05029 5.69629 8.7145 5.69629 8.30029Z" fill="#4B4B4B"/>
<path opacity="0.5" fill-rule="evenodd" clip-rule="evenodd" d="M5.69629 11.7002C5.69629 11.286 6.03208 10.9502 6.44629 10.9502H11C11.4142 10.9502 11.75 11.286 11.75 11.7002C11.75 12.1145 11.4142 12.4502 11 12.4502H6.44629C6.03208 12.4502 5.69629 12.1145 5.69629 11.7002Z" fill="#4B4B4B"/>
</svg>
