<svg width="24" height="24" viewBox="0 0 24 24" fill="none" xmlns="http://www.w3.org/2000/svg">
<path d="M11.1723 1.2817C12.8193 1.1551 14.496 1.4083 16.0269 2.0305C17.9898 2.8201 19.704 4.2079 20.892 5.9578C22.1061 7.732 22.7619 9.8794 22.749 12.0289C22.7517 14.2675 22.0254 16.498 20.7066 18.3064C19.4847 19.9954 17.763 21.3178 15.8124 22.0546C13.524 22.9273 10.9353 22.9804 8.61214 22.2058C6.78814 21.6031 5.13574 20.4961 3.87844 19.0441C3.16684 18.2251 2.57944 17.2978 2.14534 16.3036C1.00594 13.7194 0.951937 10.6822 1.99534 8.0584C2.89204 5.7691 4.60414 3.8137 6.75094 2.6164C8.10394 1.8562 9.62464 1.3975 11.1723 1.2817ZM11.2332 2.7817C9.88744 2.89 8.56744 3.301 7.39714 3.9748C5.74174 4.9228 4.39264 6.3955 3.59614 8.1292C3.03694 9.3382 2.74714 10.6702 2.75014 12.0019C2.74744 13.4164 3.07504 14.8306 3.70444 16.0975C4.15654 17.0131 4.76254 17.8528 5.48914 18.5704C6.92464 20.0026 8.84494 20.9389 10.8588 21.1804C12.1605 21.3406 13.4964 21.2251 14.7489 20.8348C15.8013 20.5078 16.7937 19.9894 17.664 19.3135C19.1586 18.1579 20.2878 16.5352 20.8407 14.7277C21.246 13.4146 21.3501 12.0109 21.1515 10.6513C20.988 9.5221 20.6094 8.4247 20.0451 7.4329C19.1013 5.7685 17.6286 4.4098 15.8916 3.6067C14.4459 2.9317 12.8223 2.6497 11.2332 2.7817Z" fill="#4B4B4B"/>
<path opacity="0.5" d="M14.952 8.98668C15.0663 8.86488 15.2217 8.78238 15.3876 8.75898C15.6741 8.71218 15.9783 8.85168 16.1313 9.09828C16.32 9.38328 16.275 9.79338 16.029 10.031C14.379 11.6813 12.7284 13.3307 11.079 14.9816C10.9899 15.0764 10.8849 15.1589 10.7613 15.203C10.4898 15.3086 10.1631 15.2348 9.96123 15.0254C9.29193 14.3564 8.62113 13.6883 7.95423 13.0169C7.68063 12.7415 7.68153 12.2522 7.95933 11.9801C8.22693 11.6867 8.73123 11.675 9.01263 11.9552C9.50823 12.4499 10.0029 12.9458 10.4985 13.4405C11.9832 11.9561 13.4682 10.472 14.952 8.98668Z" fill="#4B4B4B"/>
</svg>
