<svg width="24" height="24" viewBox="0 0 24 24" fill="none" xmlns="http://www.w3.org/2000/svg">
<path d="M14.9713 8.96903C15.1402 8.79623 15.397 8.71763 15.634 8.76233C15.8671 8.80163 16.0744 8.96093 16.1761 9.17393C16.3153 9.45233 16.2547 9.81293 16.0315 10.0298C14.4214 11.6402 12.811 13.2506 11.2009 14.8607C11.0779 14.9804 10.9648 15.1208 10.8013 15.1871C10.5241 15.3131 10.1764 15.2453 9.96515 15.0263C9.30875 14.372 8.65445 13.7156 7.99865 13.0607C7.88615 12.9524 7.79885 12.8144 7.76825 12.6599C7.70315 12.3833 7.81625 12.0773 8.04245 11.9063C8.32055 11.6822 8.75916 11.7032 9.01385 11.954C9.51005 12.4487 10.0048 12.9449 10.5007 13.4399C11.9908 11.9498 13.4815 10.4597 14.9713 8.96903Z" fill="#4B4B4B"/>
</svg>
