<svg width="24" height="24" viewBox="0 0 24 24" fill="none" xmlns="http://www.w3.org/2000/svg">
<g clip-path="url(#clip0_27038_11332)">
<path d="M9.6969 0.578423C11.0751 0.565523 12.4536 0.570023 13.8321 0.574523C15.3324 0.589523 16.8411 0.594023 18.3267 0.828023C19.3416 0.991223 20.3598 1.31102 21.1824 1.94672C21.6441 2.30252 22.0407 2.74322 22.3446 3.24092C22.86 4.08872 23.0994 5.07122 23.2275 6.04622C23.424 7.55192 23.4156 9.07382 23.4279 10.5894C23.4312 12.2391 23.4414 13.8894 23.3997 15.5388C23.3652 16.6971 23.301 17.8632 23.0403 18.9957C22.8177 19.9566 22.3944 20.8941 21.6915 21.6C21.1341 22.1793 20.424 22.5993 19.6623 22.8495C18.6738 23.1837 17.6271 23.2896 16.5912 23.355C14.9328 23.4495 13.2711 23.4264 11.6109 23.43C10.0257 23.4276 8.4381 23.4405 6.8568 23.316C5.7402 23.2194 4.6017 23.0466 3.5901 22.5384C2.7798 22.1364 2.094 21.4944 1.6308 20.7183C1.257 20.0964 1.0362 19.3953 0.892801 18.6879C0.659401 17.4933 0.616801 16.2723 0.588901 15.0588C0.563101 13.7091 0.571801 12.3594 0.570001 11.0094C0.579301 9.47912 0.570001 7.94432 0.726601 6.41972C0.827401 5.50832 0.996301 4.59002 1.3842 3.75272C1.7496 2.94872 2.3415 2.25002 3.0777 1.76162C3.6321 1.38662 4.2663 1.14572 4.9125 0.983423C5.6115 0.809723 6.3291 0.725423 7.0461 0.670523C7.9281 0.604823 8.8128 0.587423 9.6969 0.578423ZM9.3687 2.08202C8.6742 2.09252 7.9794 2.10932 7.2861 2.15672C6.6231 2.20472 5.9586 2.27372 5.3115 2.43002C4.8549 2.54282 4.4031 2.69882 4.0026 2.94962C3.5538 3.22892 3.1707 3.61622 2.9058 4.07462C2.6364 4.53752 2.4768 5.05532 2.3697 5.57762C2.2164 6.33902 2.1591 7.11572 2.1225 7.89032C2.0637 9.25952 2.0718 10.6302 2.07 12.0003C2.0706 13.1505 2.0676 14.3007 2.0982 15.4506C2.1213 16.2243 2.1579 16.9986 2.2599 17.7666C2.3373 18.3351 2.4516 18.9036 2.6664 19.4379C2.9742 20.2305 3.5922 20.9001 4.3698 21.2499C4.9113 21.5025 5.5005 21.6315 6.0885 21.7209C6.8739 21.8355 7.668 21.8736 8.4606 21.9C10.0002 21.945 11.541 21.9255 13.0812 21.93C14.4501 21.9258 15.8217 21.9264 17.1867 21.8058C17.8836 21.7398 18.5847 21.6408 19.2474 21.4056C20.0481 21.1404 20.754 20.5773 21.15 19.8282C21.4065 19.3545 21.5541 18.8307 21.654 18.3036C21.7878 17.58 21.846 16.8447 21.8784 16.11C21.9423 14.5008 21.93 12.8895 21.93 11.2794C21.9222 9.90902 21.9339 8.53652 21.8361 7.16882C21.7779 6.45362 21.699 5.73482 21.4995 5.04332C21.366 4.58972 21.1779 4.14602 20.8911 3.76712C20.5899 3.36692 20.1981 3.03302 19.7484 2.81072C19.2045 2.53082 18.6018 2.39042 18.0012 2.29502C16.6116 2.08892 15.2028 2.08922 13.8012 2.07422C12.3237 2.06972 10.8462 2.06462 9.3687 2.08202Z" fill="#4B4B4B"/>
<path opacity="0.5" d="M9.69841 2.64993C11.0049 2.63523 12.3114 2.63943 13.6179 2.64393C14.5083 2.65173 15.3999 2.65803 16.2882 2.72613C17.2692 2.80533 18.2793 2.93043 19.1616 3.39663C19.6725 3.67083 20.1147 4.07193 20.4345 4.55553C20.7057 4.96533 20.8851 5.42943 21.0069 5.90373C21.1545 6.48573 21.2271 7.08423 21.2724 7.68183C21.3741 9.10863 21.3558 10.5402 21.36 11.9697C21.3558 13.3905 21.3741 14.8134 21.2787 16.2324C21.2256 16.9299 21.1494 17.6316 20.9487 18.3045C20.8308 18.6978 20.6739 19.0827 20.4465 19.4262C20.124 19.9164 19.6809 20.3283 19.1619 20.6034C18.7152 20.8416 18.2265 20.9913 17.7315 21.0906C17.1174 21.2118 16.4925 21.2658 15.8682 21.3015C14.3604 21.3798 12.8496 21.354 11.34 21.36C10.0182 21.3546 8.69341 21.3642 7.37521 21.2466C6.65281 21.1761 5.92501 21.0645 5.24731 20.7942C4.48561 20.4969 3.82501 19.938 3.42901 19.2201C3.18151 18.7797 3.02791 18.2931 2.92441 17.8005C2.79001 17.1432 2.72791 16.4736 2.69431 15.8046C2.65501 14.9973 2.64541 14.1888 2.64151 13.3809C2.64151 11.9406 2.62981 10.5 2.66161 9.06003C2.68531 8.24913 2.72131 7.43643 2.84461 6.63363C2.93461 6.07263 3.06901 5.51283 3.31561 4.99833C3.65671 4.27263 4.25311 3.67203 4.97671 3.32643C5.46031 3.09063 5.98591 2.95473 6.51451 2.86623C7.56601 2.68863 8.63491 2.67093 9.69841 2.64993ZM14.7714 9.22203C14.6538 9.27753 14.5698 9.37983 14.4786 9.46893C13.2138 10.7331 11.9499 11.9982 10.6848 13.2621C10.302 12.8817 9.92161 12.4992 9.53971 12.1179C9.43801 12.0183 9.34561 11.9013 9.21151 11.8431C8.98771 11.7363 8.70361 11.7699 8.51461 11.9316C8.37001 12.0507 8.27851 12.2319 8.27491 12.42C8.26771 12.6108 8.35441 12.7977 8.49031 12.9297C9.07261 13.5069 9.64801 14.0913 10.2321 14.667C10.4751 14.9112 10.9092 14.9061 11.1483 14.6583C12.594 13.2147 14.0373 11.7684 15.483 10.3248C15.5736 10.2405 15.6513 10.1394 15.6897 10.0203C15.7788 9.77373 15.6969 9.48153 15.498 9.31233C15.3036 9.13833 15.0024 9.10233 14.7714 9.22203Z" fill="#4B4B4B"/>
</g>
<defs>
<clipPath id="clip0_27038_11332">
<rect width="24" height="24" fill="white"/>
</clipPath>
</defs>
</svg>
