<svg width="24" height="24" viewBox="0 0 24 24" fill="none" xmlns="http://www.w3.org/2000/svg">
<g clip-path="url(#clip0_35569_35242)">
<mask id="mask0_35569_35242" style="mask-type:luminance" maskUnits="userSpaceOnUse" x="0" y="0" width="24" height="24">
<path d="M24 0H0V24H24V0Z" fill="white"/>
</mask>
<g mask="url(#mask0_35569_35242)">
<mask id="mask1_35569_35242" style="mask-type:luminance" maskUnits="userSpaceOnUse" x="0" y="0" width="24" height="24">
<path d="M24 0H0V24H24V0Z" fill="white"/>
</mask>
<g mask="url(#mask1_35569_35242)">
<path d="M9.69677 0.578301C11.075 0.565401 12.4535 0.569901 13.832 0.574401C15.3323 0.589401 16.841 0.593901 18.3266 0.827901C19.3415 0.991101 20.3597 1.3109 21.1823 1.9466C21.644 2.3024 22.0406 2.7431 22.3445 3.2408C22.8599 4.0886 23.0993 5.0711 23.2274 6.0461C23.4239 7.5518 23.4155 9.0737 23.4278 10.5893C23.4311 12.239 23.4413 13.8893 23.3996 15.5387C23.3651 16.697 23.3009 17.8631 23.0402 18.9956C22.8176 19.9565 22.3943 20.894 21.6914 21.5999C21.134 22.1792 20.4239 22.5992 19.6622 22.8494C18.6737 23.1836 17.627 23.2895 16.5911 23.3549C14.9327 23.4494 13.271 23.4263 11.6108 23.4299C10.0256 23.4275 8.43797 23.4404 6.85667 23.3159C5.74007 23.2193 4.60157 23.0465 3.58997 22.5383C2.77967 22.1363 2.09387 21.4943 1.63067 20.7182C1.25687 20.0963 1.03607 19.3952 0.892664 18.6878C0.659264 17.4932 0.616664 16.2722 0.588764 15.0587C0.562964 13.709 0.571664 12.3593 0.569864 11.0093C0.579164 9.479 0.569864 7.9442 0.726464 6.4196C0.827264 5.5082 0.996164 4.5899 1.38407 3.7526C1.74947 2.9486 2.34137 2.2499 3.07757 1.7615C3.63197 1.3865 4.26617 1.1456 4.91237 0.983301C5.61137 0.809601 6.32897 0.725301 7.04597 0.670401C7.92797 0.604701 8.81267 0.587301 9.69677 0.578301ZM9.36857 2.0819C8.67407 2.0924 7.97927 2.1092 7.28597 2.1566C6.62297 2.2046 5.95847 2.2736 5.31137 2.4299C4.85477 2.5427 4.40297 2.6987 4.00247 2.9495C3.55367 3.2288 3.17057 3.6161 2.90567 4.0745C2.63627 4.5374 2.47667 5.0552 2.36957 5.5775C2.21627 6.3389 2.15897 7.1156 2.12237 7.8902C2.06357 9.2594 2.07167 10.6301 2.06987 12.0002C2.07047 13.1504 2.06747 14.3006 2.09807 15.4505C2.12117 16.2242 2.15777 16.9985 2.25977 17.7665C2.33717 18.335 2.45147 18.9035 2.66627 19.4378C2.97407 20.2304 3.59207 20.9 4.36967 21.2498C4.91117 21.5024 5.50037 21.6314 6.08837 21.7208C6.87377 21.8354 7.66787 21.8735 8.46047 21.8999C10.0001 21.9449 11.5409 21.9254 13.0811 21.9299C14.45 21.9257 15.8216 21.9263 17.1866 21.8057C17.8835 21.7397 18.5846 21.6407 19.2473 21.4055C20.048 21.1403 20.7539 20.5772 21.1499 19.8281C21.4064 19.3544 21.554 18.8306 21.6539 18.3035C21.7877 17.5799 21.8459 16.8446 21.8783 16.1099C21.9422 14.5007 21.9299 12.8894 21.9299 11.2793C21.9221 9.9089 21.9338 8.5364 21.836 7.1687C21.7778 6.4535 21.6989 5.7347 21.4994 5.0432C21.3659 4.5896 21.1778 4.1459 20.891 3.767C20.5898 3.3668 20.198 3.0329 19.7483 2.8106C19.2044 2.5307 18.6017 2.3903 18.0011 2.2949C16.6115 2.0888 15.2027 2.0891 13.8011 2.0741C12.3236 2.0696 10.8461 2.0645 9.36857 2.0819Z" fill="#4B4B4B"/>
<path opacity="0.5" d="M9.69816 2.64987C11.0047 2.63517 12.3112 2.63936 13.6177 2.64386C14.5081 2.65166 15.3997 2.65797 16.288 2.72607C17.269 2.80527 18.2791 2.93037 19.1614 3.39657C19.6723 3.67077 20.1145 4.07187 20.4343 4.55547C20.7055 4.96527 20.8849 5.42936 21.0067 5.90366C21.1543 6.48566 21.2269 7.08417 21.2722 7.68177C21.3739 9.10857 21.3556 10.5401 21.3598 11.9696C21.3556 13.3904 21.3739 14.8133 21.2785 16.2323C21.2254 16.9298 21.1492 17.6315 20.9485 18.3044C20.8306 18.6977 20.6737 19.0826 20.4463 19.4261C20.1238 19.9163 19.6807 20.3282 19.1617 20.6033C18.715 20.8415 18.2263 20.9912 17.7313 21.0905C17.1172 21.2117 16.4923 21.2657 15.868 21.3014C14.3602 21.3797 12.8494 21.3539 11.3398 21.3599C10.018 21.3545 8.69316 21.3641 7.37496 21.2465C6.65256 21.176 5.92476 21.0644 5.24706 20.7941C4.48536 20.4968 3.82476 19.9379 3.42876 19.22C3.18126 18.7796 3.02766 18.293 2.92416 17.8004C2.78976 17.1431 2.72766 16.4735 2.69406 15.8045C2.65476 14.9972 2.64516 14.1887 2.64126 13.3808C2.64126 11.9405 2.62956 10.4999 2.66136 9.05997C2.68506 8.24907 2.72106 7.43637 2.84436 6.63357C2.93436 6.07257 3.06876 5.51277 3.31536 4.99827C3.65646 4.27257 4.25286 3.67197 4.97646 3.32636C5.46006 3.09056 5.98566 2.95467 6.51426 2.86617C7.56576 2.68857 8.63466 2.67087 9.69816 2.64987ZM14.7712 9.22197C14.6536 9.27747 14.5696 9.37977 14.4784 9.46887C13.2136 10.733 11.9497 11.9981 10.6846 13.262C10.3018 12.8816 9.92136 12.4991 9.53946 12.1178C9.43776 12.0182 9.34536 11.9012 9.21126 11.843C8.98746 11.7362 8.70336 11.7698 8.51436 11.9315C8.36976 12.0506 8.27826 12.2318 8.27466 12.4199C8.26746 12.6107 8.35416 12.7976 8.49006 12.9296C9.07236 13.5068 9.64776 14.0912 10.2319 14.6669C10.4749 14.9111 10.909 14.906 11.1481 14.6582C12.5938 13.2146 14.0371 11.7683 15.4828 10.3247C15.5734 10.2404 15.6511 10.1393 15.6895 10.0202C15.7786 9.77367 15.6967 9.48147 15.4978 9.31227C15.3034 9.13827 15.0022 9.10227 14.7712 9.22197Z" fill="#4B4B4B"/>
</g>
</g>
</g>
<defs>
<clipPath id="clip0_35569_35242">
<rect width="24" height="24" fill="white"/>
</clipPath>
</defs>
</svg>
