<svg width="24" height="24" viewBox="0 0 24 24" fill="none" xmlns="http://www.w3.org/2000/svg">
<g clip-path="url(#clip0_27038_11324)">
<path d="M11.7114 0.253516C13.3161 0.213916 14.9298 0.503416 16.4169 1.10912C18.4437 1.92842 20.2281 3.33092 21.5115 5.09972C22.8903 6.98582 23.6757 9.29462 23.7456 11.6289C23.817 13.7844 23.2794 15.9561 22.2066 17.8272C21.264 19.4769 19.9149 20.8911 18.3129 21.9123C16.3911 23.1462 14.1009 23.7891 11.8182 23.7492C9.59131 23.721 7.37761 23.0394 5.52361 21.8049C3.85051 20.7012 2.46691 19.1622 1.55161 17.3787C0.909314 16.1331 0.489914 14.7717 0.330014 13.3788C0.0645136 11.1306 0.457814 8.80592 1.47181 6.78032C2.17111 5.36492 3.16441 4.09802 4.36261 3.07112C5.45131 2.13842 6.71131 1.40522 8.06311 0.927016C9.23311 0.510616 10.4697 0.282016 11.7114 0.253516ZM11.7096 1.75412C9.67651 1.80542 7.66441 2.48432 6.01711 3.67712C4.28821 4.91762 2.95921 6.70802 2.28391 8.72702C1.86781 9.95882 1.69411 11.2707 1.76551 12.5685C1.88611 14.9703 2.90041 17.3115 4.56001 19.0506C5.99521 20.5704 7.90561 21.6375 9.95701 22.0473C12.2469 22.5129 14.6949 22.1751 16.7619 21.0801C18.5271 20.154 20.0115 18.7023 20.9751 16.9569C21.567 15.8868 21.9636 14.7096 22.1421 13.5003C22.4751 11.2686 22.0455 8.93162 20.9331 6.96812C19.8798 5.10002 18.228 3.57512 16.2774 2.68262C14.8539 2.02532 13.2762 1.70912 11.7096 1.75412Z" fill="#4B4B4B"/>
<path opacity="0.5" d="M11.3259 2.57368C12.9603 2.45668 14.625 2.76868 16.1004 3.48388C17.7849 4.29358 19.2162 5.61658 20.1597 7.22968C20.7306 8.20288 21.1215 9.28078 21.3132 10.3926C21.5475 11.7504 21.4815 13.1598 21.1176 14.4894C20.6325 16.287 19.5948 17.928 18.1857 19.1439C17.3613 19.8585 16.4133 20.4309 15.3948 20.8221C13.1628 21.687 10.6005 21.6573 8.39069 20.7366C6.61829 20.0046 5.07989 18.7197 4.04609 17.1045C3.39089 16.083 2.93189 14.9349 2.70989 13.7415C2.30939 11.6085 2.66579 9.33868 3.72149 7.44058C4.59629 5.85118 5.93879 4.52368 7.53839 3.66748C8.70509 3.04198 10.005 2.66518 11.3259 2.57368ZM14.7093 9.27988C14.5935 9.33838 14.5095 9.44008 14.4183 9.52918C13.1823 10.7643 11.9478 12.0012 10.7109 13.2354C10.2825 12.8106 9.85859 12.381 9.42929 11.9571C9.24689 11.7801 8.95319 11.736 8.72429 11.8443C8.50379 11.9433 8.34989 12.1755 8.34929 12.4179C8.34419 12.5982 8.42279 12.7755 8.55089 12.9006C9.11579 13.4655 9.68009 14.031 10.2459 14.595C10.491 14.8599 10.9539 14.8551 11.19 14.5803C12.5742 13.1946 13.9596 11.8104 15.3444 10.4253C15.4404 10.329 15.5496 10.2369 15.5988 10.1058C15.705 9.86578 15.6447 9.56518 15.4518 9.38668C15.2598 9.19768 14.9466 9.15358 14.7093 9.27988Z" fill="#4B4B4B"/>
</g>
<defs>
<clipPath id="clip0_27038_11324">
<rect width="24" height="24" fill="white"/>
</clipPath>
</defs>
</svg>
