<svg width="24" height="24" viewBox="0 0 24 24" fill="none" xmlns="http://www.w3.org/2000/svg">
<g clip-path="url(#clip0_35569_35224)">
<mask id="mask0_35569_35224" style="mask-type:luminance" maskUnits="userSpaceOnUse" x="0" y="0" width="24" height="24">
<path d="M24 0H0V24H24V0Z" fill="white"/>
</mask>
<g mask="url(#mask0_35569_35224)">
<mask id="mask1_35569_35224" style="mask-type:luminance" maskUnits="userSpaceOnUse" x="0" y="0" width="24" height="24">
<path d="M24 0H0V24H24V0Z" fill="white"/>
</mask>
<g mask="url(#mask1_35569_35224)">
<path d="M11.7115 0.253577C13.3162 0.213977 14.9299 0.503476 16.417 1.10918C18.4438 1.92848 20.2282 3.33098 21.5116 5.09978C22.8904 6.98588 23.6758 9.29467 23.7457 11.629C23.8171 13.7845 23.2795 15.9562 22.2067 17.8273C21.2641 19.477 19.915 20.8912 18.313 21.9124C16.3912 23.1463 14.101 23.7892 11.8183 23.7493C9.59137 23.7211 7.37767 23.0395 5.52367 21.805C3.85057 20.7013 2.46697 19.1623 1.55167 17.3788C0.909375 16.1332 0.489975 14.7718 0.330075 13.3789C0.0645744 11.1307 0.457875 8.80598 1.47187 6.78038C2.17117 5.36498 3.16447 4.09808 4.36267 3.07118C5.45137 2.13848 6.71137 1.40528 8.06317 0.927076C9.23317 0.510676 10.4698 0.282077 11.7115 0.253577ZM11.7097 1.75418C9.67657 1.80548 7.66447 2.48438 6.01717 3.67718C4.28827 4.91768 2.95927 6.70808 2.28397 8.72708C1.86787 9.95888 1.69417 11.2708 1.76557 12.5686C1.88617 14.9704 2.90047 17.3116 4.56007 19.0507C5.99527 20.5705 7.90567 21.6376 9.95707 22.0474C12.247 22.513 14.695 22.1752 16.762 21.0802C18.5272 20.1541 20.0116 18.7024 20.9752 16.957C21.5671 15.8869 21.9637 14.7097 22.1422 13.5004C22.4752 11.2687 22.0456 8.93168 20.9332 6.96818C19.8799 5.10008 18.2281 3.57518 16.2775 2.68268C14.854 2.02538 13.2763 1.70918 11.7097 1.75418Z" fill="#4B4B4B"/>
<path opacity="0.5" d="M11.3258 2.5738C12.9602 2.4568 14.6249 2.7688 16.1003 3.484C17.7848 4.2937 19.2161 5.6167 20.1596 7.2298C20.7305 8.203 21.1214 9.2809 21.3131 10.3927C21.5474 11.7505 21.4814 13.1599 21.1175 14.4895C20.6324 16.2871 19.5947 17.9281 18.1856 19.144C17.3612 19.8586 16.4132 20.431 15.3947 20.8222C13.1627 21.6871 10.6004 21.6574 8.39063 20.7367C6.61823 20.0047 5.07983 18.7198 4.04603 17.1046C3.39083 16.0831 2.93183 14.935 2.70983 13.7416C2.30933 11.6086 2.66573 9.3388 3.72143 7.4407C4.59623 5.8513 5.93873 4.5238 7.53833 3.6676C8.70503 3.0421 10.0049 2.6653 11.3258 2.5738ZM14.7092 9.28C14.5934 9.3385 14.5094 9.4402 14.4182 9.5293C13.1822 10.7644 11.9477 12.0013 10.7108 13.2355C10.2824 12.8107 9.85853 12.3811 9.42923 11.9572C9.24683 11.7802 8.95313 11.7361 8.72423 11.8444C8.50373 11.9434 8.34983 12.1756 8.34923 12.418C8.34413 12.5983 8.42273 12.7756 8.55083 12.9007C9.11573 13.4656 9.68003 14.0311 10.2458 14.5951C10.4909 14.86 10.9538 14.8552 11.1899 14.5804C12.5741 13.1947 13.9595 11.8105 15.3443 10.4254C15.4403 10.3291 15.5495 10.237 15.5987 10.1059C15.7049 9.8659 15.6446 9.5653 15.4517 9.3868C15.2597 9.1978 14.9465 9.1537 14.7092 9.28Z" fill="#4B4B4B"/>
</g>
</g>
</g>
<defs>
<clipPath id="clip0_35569_35224">
<rect width="24" height="24" fill="white"/>
</clipPath>
</defs>
</svg>
