<svg width="24" height="24" viewBox="0 0 24 24" fill="none" xmlns="http://www.w3.org/2000/svg">
<path d="M8.83175 1.27379C10.3176 1.23809 11.8045 1.25429 13.2909 1.25039C14.7529 1.26329 16.2214 1.25549 17.673 1.45169C18.7294 1.59839 19.8034 1.89839 20.6533 2.56919C21.4282 3.16529 21.9721 4.02689 22.252 4.95809C22.63 6.20309 22.6825 7.51529 22.7254 8.80679C22.7515 9.82049 22.7494 10.8348 22.7494 11.8491C22.7458 13.3902 22.7656 14.9334 22.6684 16.4724C22.5967 17.4936 22.4743 18.5292 22.0939 19.4877C21.7546 20.3553 21.1513 21.1203 20.3719 21.6336C19.552 22.1787 18.5764 22.4256 17.6116 22.5567C16.2985 22.7292 14.9715 22.7349 13.6494 22.7475C12.0486 22.7472 10.4472 22.7622 8.84675 22.7265C7.64255 22.6893 6.42545 22.6389 5.25335 22.3368C4.65905 22.1811 4.08065 21.9456 3.57245 21.5967C2.81915 21.0843 2.23805 20.3349 1.90595 19.4883C1.48565 18.4242 1.37675 17.271 1.31105 16.1382C1.25885 15.1497 1.25465 14.1597 1.25015 13.1703C1.25345 11.7894 1.24055 10.4082 1.26905 9.02759C1.28855 8.18759 1.32245 7.3464 1.42655 6.51209C1.52105 5.77199 1.67435 5.03189 1.97555 4.34609C2.30435 3.58619 2.84135 2.91689 3.51935 2.44049C4.03445 2.07569 4.62545 1.82909 5.23385 1.66829C6.40685 1.36289 7.62575 1.31129 8.83175 1.27379ZM8.86145 2.77379C8.27165 2.78939 7.68155 2.81459 7.09415 2.87129C6.50015 2.93039 5.90465 3.01679 5.33555 3.20189C4.89875 3.34349 4.47995 3.55709 4.13495 3.86309C3.80855 4.14809 3.54935 4.50689 3.37085 4.90109C3.15245 5.38079 3.03485 5.89889 2.95445 6.41759C2.84165 7.16309 2.80295 7.91759 2.77895 8.67089C2.73965 10.0404 2.75315 11.4105 2.75045 12.7806C2.75165 13.7406 2.75405 14.7009 2.79035 15.6606C2.81975 16.3665 2.86565 17.0736 2.98505 17.7708C3.07865 18.2979 3.21545 18.8247 3.47045 19.2987C3.69995 19.728 4.03505 20.1 4.43885 20.3715C4.86335 20.6568 5.35415 20.8263 5.85005 20.9391C6.49085 21.0822 7.14665 21.1428 7.80125 21.183C9.35975 21.2679 10.9212 21.2445 12.4812 21.2493C13.8699 21.2451 15.2611 21.2574 16.647 21.1515C17.2959 21.0972 17.9479 21.0162 18.5731 20.8266C19.0366 20.6865 19.4836 20.4702 19.8502 20.1495C20.1772 19.8675 20.4379 19.512 20.6188 19.1205C20.8479 18.6258 20.9676 18.0894 21.0496 17.553C21.1576 16.8264 21.1957 16.0917 21.2197 15.3582C21.2482 14.4189 21.2488 13.4793 21.2491 12.5397C21.2452 11.0394 21.265 9.53819 21.1957 8.03909C21.1591 7.33679 21.1036 6.63269 20.959 5.94329C20.854 5.45039 20.6983 4.96049 20.4301 4.53029C20.1547 4.08539 19.7596 3.71669 19.2982 3.47039C18.8218 3.21449 18.2922 3.07709 17.7628 2.98409C17.1069 2.87189 16.4422 2.82509 15.7783 2.79539C14.8993 2.75819 14.0194 2.75429 13.1397 2.75069C11.7135 2.75429 10.2874 2.73929 8.86145 2.77379Z" fill="#4B4B4B"/>
<path opacity="0.5" d="M9.45629 6.48414C9.64469 6.28104 9.95009 6.19973 10.2144 6.28133C10.4925 6.36113 10.7109 6.61553 10.7439 6.90353C10.7757 7.13063 10.6938 7.36823 10.5318 7.52963C9.58019 8.52833 8.62949 9.52793 7.67759 10.5263C7.40609 10.8173 6.89939 10.8239 6.62189 10.5383C6.23399 10.136 5.85089 9.72893 5.46419 9.32543C5.27939 9.13973 5.20529 8.85353 5.27699 8.60153C5.33879 8.36753 5.52299 8.17134 5.75129 8.09214C6.02129 7.99464 6.34229 8.07053 6.53969 8.27903C6.74039 8.49083 6.94289 8.70083 7.14269 8.91353C7.91369 8.10353 8.68499 7.29384 9.45629 6.48414Z" fill="#4B4B4B"/>
<path opacity="0.5" d="M12.8775 8.26148C13.2636 8.23898 13.6521 8.25758 14.0391 8.25158C15.3594 8.25158 16.6797 8.25128 18.0003 8.25188C18.2187 8.24978 18.4341 8.35118 18.5739 8.51888C18.7665 8.74148 18.8052 9.08138 18.6684 9.34178C18.5451 9.58868 18.2772 9.75518 18.0006 9.75128C16.3398 9.75218 14.679 9.75098 13.0182 9.75188C12.777 9.75848 12.5373 9.64178 12.3957 9.44618C12.225 9.22088 12.2022 8.89598 12.3384 8.64848C12.4449 8.44448 12.651 8.29838 12.8775 8.26148Z" fill="#4B4B4B"/>
<path opacity="0.5" d="M9.45988 13.4807C9.66778 13.2563 10.0194 13.1867 10.2981 13.3118C10.5429 13.415 10.722 13.6568 10.7463 13.922C10.7703 14.1416 10.6908 14.3696 10.5348 14.5268C9.58318 15.524 8.63398 16.5242 7.68148 17.5211C7.46938 17.7485 7.10968 17.8154 6.82918 17.6813C6.68848 17.6216 6.58618 17.5046 6.48388 17.3954C6.14248 17.0366 5.80048 16.6784 5.45938 16.3193C5.30698 16.1621 5.22928 15.9356 5.25478 15.7181C5.28028 15.4655 5.44468 15.2324 5.67478 15.1247C5.96788 14.9765 6.35038 15.0557 6.56428 15.3044C6.75748 15.5072 6.94948 15.7112 7.14478 15.9125C7.91548 15.1007 8.68738 14.2907 9.45988 13.4807Z" fill="#4B4B4B"/>
<path opacity="0.5" d="M12.9126 15.2568C13.3887 15.2433 13.8654 15.2547 14.3418 15.2508C15.5517 15.2508 16.7616 15.2511 17.9715 15.2508C18.147 15.2463 18.3243 15.3012 18.4626 15.411C18.6915 15.5859 18.8004 15.9003 18.7293 16.1799C18.6543 16.5072 18.3375 16.7577 18.0009 16.7511C16.3308 16.7505 14.6604 16.7511 12.9903 16.7508C12.7848 16.7502 12.5817 16.6587 12.4452 16.5054C12.2688 16.3155 12.2052 16.0311 12.2823 15.7842C12.3633 15.5037 12.6225 15.2874 12.9126 15.2568Z" fill="#4B4B4B"/>
</svg>
