<svg width="24" height="24" viewBox="0 0 24 24" fill="none" xmlns="http://www.w3.org/2000/svg">
<path d="M8.83044 1.27379C10.3167 1.23809 11.8035 1.25429 13.29 1.25039C14.7105 1.26209 16.1367 1.25729 17.5485 1.43459C18.5982 1.57109 19.6677 1.84349 20.5338 2.47859C21.3084 3.03629 21.8787 3.85229 22.1844 4.75289C22.5885 5.93339 22.6623 7.19279 22.7139 8.42999C22.767 10.0395 22.7442 11.6502 22.7496 13.2603C22.7388 14.6619 22.7427 16.0683 22.5765 17.4621C22.4514 18.4647 22.2135 19.4835 21.6549 20.34C21.1647 21.0969 20.4396 21.6936 19.6098 22.0431C18.6009 22.4718 17.4969 22.5987 16.4127 22.6725C14.7537 22.7721 13.0908 22.7442 11.43 22.7493C9.98094 22.7454 8.52924 22.7559 7.08444 22.6344C6.01314 22.536 4.91844 22.356 3.96264 21.8355C3.09414 21.3657 2.39454 20.5995 1.99524 19.6974C1.53894 18.6753 1.40604 17.547 1.32924 16.4409C1.27074 15.5325 1.25934 14.6217 1.25274 13.7118C1.24974 12.5115 1.24794 11.3109 1.25424 10.1106C1.26084 9.25921 1.27434 8.40779 1.32924 7.55789C1.37784 6.83399 1.45494 6.10859 1.62564 5.40209C1.76304 4.83299 1.96674 4.27529 2.27304 3.77429C2.69724 3.07619 3.31584 2.49869 4.04094 2.12279C4.71534 1.76909 5.46324 1.58219 6.21234 1.46849C7.07874 1.33859 7.95564 1.29809 8.83044 1.27379ZM8.85984 2.77379C8.11404 2.79419 7.36704 2.82719 6.62664 2.92469C6.07494 2.99909 5.52234 3.10919 5.00664 3.32429C4.57944 3.50279 4.18674 3.76919 3.87924 4.11689C3.56994 4.45889 3.35364 4.87619 3.20994 5.31209C3.01374 5.90429 2.92644 6.52559 2.86644 7.14419C2.75094 8.43959 2.75694 9.74129 2.75064 11.0406C2.75244 12.2505 2.74404 13.461 2.76384 14.6709C2.77794 15.4311 2.80074 16.1922 2.87544 16.9491C2.93664 17.544 3.02574 18.1407 3.21714 18.7095C3.35814 19.1301 3.56814 19.5318 3.86334 19.8651C4.14354 20.1855 4.49424 20.4414 4.88034 20.6193C5.41074 20.8644 5.98824 20.9853 6.56364 21.0666C7.31724 21.1698 8.07804 21.2043 8.83794 21.2256C10.2915 21.261 11.7456 21.2457 13.1994 21.2493C14.5602 21.2379 15.9261 21.2478 17.2797 21.0873C17.8938 21.0087 18.5115 20.8914 19.0797 20.6376C19.5327 20.4357 19.9395 20.1273 20.2446 19.7352C20.5686 19.3248 20.7675 18.8304 20.8962 18.3273C21.0564 17.6943 21.1248 17.0424 21.1707 16.3923C21.2622 14.9505 21.246 13.5045 21.2493 12.0603C21.2457 10.5906 21.2637 9.11909 21.1737 7.65119C21.1317 7.03259 21.069 6.41309 20.9292 5.80829C20.8185 5.33369 20.6541 4.86449 20.3826 4.45649C20.1069 4.03829 19.7232 3.69359 19.2804 3.46049C18.8088 3.21119 18.2868 3.07589 17.7645 2.98439C17.109 2.87189 16.4448 2.82539 15.7812 2.79539C14.8908 2.75789 13.9995 2.75399 13.1085 2.75069C11.6922 2.75399 10.2759 2.73959 8.85984 2.77379Z" fill="#4B4B4B"/>
<path opacity="0.5" d="M15.0856 8.87414C15.2905 8.73674 15.5653 8.71094 15.7918 8.80904C16.039 8.90984 16.2199 9.15374 16.2463 9.41924C16.2715 9.64184 16.1899 9.87284 16.0309 10.03C14.4007 11.6602 12.7705 13.2904 11.1403 14.9206C11.0449 15.0172 10.9498 15.1204 10.8232 15.1765C10.5427 15.316 10.1803 15.2509 9.96369 15.0247C9.30339 14.3662 8.64459 13.7065 7.98549 13.0471C7.78929 12.862 7.70319 12.5689 7.77519 12.3082C7.84479 12.0316 8.08629 11.8081 8.36799 11.7616C8.60499 11.7172 8.86119 11.797 9.03009 11.9692C9.51999 12.4594 10.0102 12.9496 10.5004 13.4395C11.9557 11.9848 13.4107 10.5295 14.8657 9.07454C14.9362 9.00464 15.0022 8.92934 15.0856 8.87414Z" fill="#4B4B4B"/>
</svg>
