<svg width="24" height="25" viewBox="0 0 24 25" fill="none" xmlns="http://www.w3.org/2000/svg">
<g clip-path="url(#clip0_35569_35235)">
<mask id="mask0_35569_35235" style="mask-type:luminance" maskUnits="userSpaceOnUse" x="0" y="0" width="24" height="25">
<path d="M24 0H0V25H24V0Z" fill="white"/>
</mask>
<g mask="url(#mask0_35569_35235)">
<mask id="mask1_35569_35235" style="mask-type:luminance" maskUnits="userSpaceOnUse" x="0" y="0" width="24" height="25">
<path d="M24 0.5H0V24.5H24V0.5Z" fill="white"/>
</mask>
<g mask="url(#mask1_35569_35235)">
<path d="M11.6792 0.754122C13.4479 0.705762 15.2275 1.05958 16.8389 1.7915C18.3592 2.47934 19.7275 3.49827 20.8283 4.7518C21.6535 5.69134 22.3297 6.76245 22.8151 7.91522C23.6205 9.81295 23.913 11.9245 23.6518 13.9696C23.4377 15.668 22.8502 17.3195 21.9329 18.7653C21.0419 20.1738 19.8489 21.3905 18.4573 22.308C17.0058 23.2707 15.3341 23.8957 13.6091 24.1335C11.5659 24.4167 9.44952 24.1533 7.54099 23.3687C6.31625 22.8678 5.17945 22.1539 4.19089 21.2746C3.00573 20.2213 2.03516 18.927 1.36262 17.4909C0.613831 15.9058 0.232125 14.1504 0.25012 12.398C0.263166 10.929 0.548601 9.46116 1.1008 8.09921C1.71936 6.56586 2.66856 5.16815 3.86137 4.02348C5.05237 2.87859 6.48652 1.98584 8.04393 1.43274C9.20952 1.0155 10.4417 0.785837 11.6792 0.754122ZM11.2825 2.2733C10.3398 2.33786 9.40633 2.53535 8.51741 2.85565C7.09001 3.36826 5.78249 4.2077 4.71632 5.28601C3.57705 6.43135 2.7167 7.85111 2.22883 9.3912C1.83138 10.6334 1.68135 11.9529 1.77627 13.2532C1.89188 14.8632 2.39797 16.4425 3.23899 17.8202C4.05278 19.1589 5.17833 20.3061 6.50069 21.1462C7.71554 21.9215 9.09616 22.4359 10.5233 22.6388C11.8027 22.8228 13.1163 22.7637 14.3744 22.4672C15.9698 22.0896 17.4685 21.3162 18.7061 20.2418C19.9254 19.1882 20.8888 17.8424 21.4943 16.3496C22.3283 14.3077 22.4707 11.9934 21.901 9.86333C21.5539 8.55042 20.9416 7.30791 20.1087 6.23522C19.0896 4.9187 17.7494 3.84939 16.2314 3.16313C14.6904 2.45932 12.9717 2.15656 11.2825 2.2733Z" fill="#4B4B4B"/>
<path opacity="0.5" d="M11.7034 3.05287C13.3458 3.00181 15.0011 3.38352 16.4492 4.16222C17.7812 4.87458 18.9364 5.91263 19.7916 7.15739C20.6367 8.38528 21.179 9.81786 21.3677 11.2958C21.6473 13.4421 21.159 15.6811 20.0033 17.512C19.2131 18.7732 18.1199 19.8414 16.8437 20.6064C16.1543 21.0207 15.4107 21.3439 14.6387 21.5693C13.3456 21.9454 11.9719 22.0369 10.6394 21.8464C9.26958 21.6532 7.94632 21.1469 6.79378 20.3826C5.53822 19.5532 4.4824 18.4223 3.74958 17.1074C2.96862 15.7184 2.55205 14.1286 2.5489 12.5354C2.54373 11.1971 2.82354 9.85789 3.37012 8.63607C4.00712 7.21362 5.00401 5.95581 6.23865 5.00548C7.79449 3.80121 9.73698 3.1082 11.7034 3.05287Z" fill="#4B4B4B"/>
</g>
</g>
</g>
<defs>
<clipPath id="clip0_35569_35235">
<rect width="24" height="25" fill="white"/>
</clipPath>
</defs>
</svg>
