<svg width="24" height="24" viewBox="0 0 24 24" fill="none" xmlns="http://www.w3.org/2000/svg">
<path d="M11.1927 1.27941C12.9258 1.14963 14.6906 1.44248 16.2836 2.13887C17.7811 2.78936 19.124 3.78985 20.1825 5.03236C21.1245 6.13587 21.8389 7.43236 22.2656 8.81905C22.9282 10.95 22.9028 13.2882 22.1916 15.4036C21.6675 16.9833 20.7639 18.4341 19.584 19.6074C18.4881 20.7014 17.154 21.5561 15.6996 22.089C13.7083 22.8209 11.4986 22.9415 9.43827 22.437C8.18969 22.1335 6.99913 21.5987 5.93882 20.8737C4.57192 19.9414 3.42455 18.6896 2.61728 17.2451C1.81226 15.8132 1.3453 14.194 1.26365 12.5533C1.1919 11.15 1.39614 9.73294 1.86399 8.40766C2.40652 6.86959 3.30916 5.46085 4.4761 4.32159C5.56273 3.25542 6.8761 2.41958 8.30755 1.89977C9.23449 1.56102 10.2087 1.35206 11.1927 1.27941ZM11.7494 2.75248C10.4876 2.78352 9.23336 3.07907 8.08959 3.61351C6.64442 4.28492 5.38189 5.34052 4.45945 6.63949C3.62451 7.80755 3.06939 9.17399 2.85593 10.5942C2.68836 11.6961 2.71917 12.8282 2.94995 13.9187C3.2545 15.3625 3.91332 16.7296 4.85218 17.8678C5.80453 19.0241 7.03805 19.9495 8.42114 20.5269C9.95426 21.1749 11.6653 21.3845 13.3118 21.1511C15.0226 20.912 16.6569 20.1717 17.9728 19.054C19.2187 18.0007 20.1782 16.612 20.7207 15.0732C21.1666 13.8089 21.3294 12.4472 21.2025 11.1129C21.0748 9.74329 20.6321 8.40473 19.9213 7.22723C19.1026 5.86753 17.9273 4.72556 16.5463 3.9437C15.0955 3.11866 13.4171 2.70636 11.7494 2.75248Z" fill="#4B4B4B"/>
</svg>
