<svg width="24" height="24" viewBox="0 0 24 24" fill="none" xmlns="http://www.w3.org/2000/svg">
<g clip-path="url(#clip0_27038_11305)">
<path d="M11.6792 0.254183C13.4479 0.205824 15.2275 0.559638 16.8389 1.29156C18.3592 1.97939 19.7275 2.99833 20.8283 4.25186C21.6535 5.19139 22.3297 6.26251 22.8151 7.41527C23.6205 9.313 23.913 11.4246 23.6518 13.4697C23.4377 15.1681 22.8502 16.8196 21.9329 18.2654C21.0419 19.6739 19.8489 20.8906 18.4573 21.8081C17.0058 22.7708 15.3341 23.3959 13.6091 23.6336C11.5659 23.9168 9.44952 23.6534 7.54099 22.8688C6.31625 22.3679 5.17945 21.654 4.19089 20.7747C3.00573 19.7214 2.03516 18.4272 1.36262 16.991C0.613831 15.4059 0.232125 13.6505 0.25012 11.8981C0.263166 10.4291 0.548601 8.96121 1.1008 7.59926C1.71936 6.06592 2.66856 4.6682 3.86137 3.52354C5.05237 2.37864 6.48652 1.4859 8.04393 0.932796C9.20952 0.515552 10.4417 0.285899 11.6792 0.254183ZM11.2825 1.77336C10.3398 1.83791 9.40633 2.0354 8.51741 2.3557C7.09001 2.86832 5.78249 3.70775 4.71632 4.78607C3.57705 5.93141 2.7167 7.35117 2.22883 8.89126C1.83138 10.1335 1.68135 11.453 1.77627 12.7533C1.89188 14.3633 2.39797 15.9426 3.23899 17.3203C4.05278 18.6591 5.17833 19.8062 6.50069 20.6463C7.71554 21.4216 9.09616 21.9361 10.5233 22.1389C11.8027 22.3229 13.1163 22.2638 14.3744 21.9673C15.9698 21.5897 17.4685 20.8164 18.7061 19.7419C19.9254 18.6883 20.8888 17.3425 21.4943 15.8497C22.3283 13.8078 22.4707 11.4935 21.901 9.36339C21.5539 8.05047 20.9416 6.80796 20.1087 5.73527C19.0896 4.41876 17.7494 3.34944 16.2314 2.66318C14.6904 1.95938 12.9717 1.65662 11.2825 1.77336Z" fill="#4B4B4B"/>
<path opacity="0.5" d="M11.7036 2.55293C13.346 2.50187 15.0013 2.88357 16.4494 3.66228C17.7814 4.37463 18.9366 5.41268 19.7918 6.65744C20.6369 7.88534 21.1792 9.31791 21.3679 10.7959C21.6475 12.9422 21.1592 15.1812 20.0035 17.0121C19.2133 18.2733 18.1201 19.3415 16.8439 20.1064C16.1545 20.5208 15.4109 20.844 14.6389 21.0694C13.3458 21.4454 11.9721 21.537 10.6396 21.3465C9.26982 21.1533 7.94656 20.6469 6.79402 19.8826C5.53846 19.0533 4.48264 17.9224 3.74982 16.6074C2.96886 15.2185 2.55229 13.6287 2.54914 12.0355C2.54397 10.6972 2.82378 9.35795 3.37036 8.13613C4.00736 6.71368 5.00425 5.45587 6.23889 4.50554C7.79473 3.30127 9.73722 2.60826 11.7036 2.55293Z" fill="#4B4B4B"/>
</g>
<defs>
<clipPath id="clip0_27038_11305">
<rect width="24" height="24" fill="white"/>
</clipPath>
</defs>
</svg>
