<svg width="24" height="25" viewBox="0 0 24 25" fill="none" xmlns="http://www.w3.org/2000/svg">
<path d="M11.1926 1.77947C12.9257 1.64969 14.6905 1.94255 16.2835 2.63893C17.781 3.28943 19.1239 4.28991 20.1824 5.53243C21.1244 6.63593 21.8388 7.93242 22.2655 9.31912C22.9281 11.4501 22.9027 13.7883 22.1915 15.9037C21.6674 17.4834 20.7638 18.9342 19.5839 20.1075C18.488 21.2015 17.1539 22.0562 15.6995 22.5891C13.7082 23.321 11.4985 23.4416 9.43815 22.9371C8.18957 22.6336 6.99901 22.0988 5.9387 21.3738C4.5718 20.4415 3.42443 19.1897 2.61716 17.7452C1.81214 16.3133 1.34518 14.6941 1.26353 13.0534C1.19178 11.6501 1.39602 10.233 1.86387 8.90772C2.4064 7.36965 3.30904 5.96092 4.47598 4.82165C5.56261 3.75548 6.87598 2.91964 8.30743 2.39983C9.23437 2.06109 10.2086 1.85213 11.1926 1.77947ZM11.7493 3.25254C10.4875 3.28358 9.23324 3.57914 8.08947 4.11357C6.6443 4.78498 5.38177 5.84058 4.45933 7.13955C3.62439 8.30761 3.06927 9.67406 2.85581 11.0943C2.68824 12.1962 2.71905 13.3283 2.94983 14.4188C3.25438 15.8626 3.9132 17.2297 4.85206 18.3678C5.80441 19.5242 7.03793 20.4496 8.42102 21.027C9.95414 21.675 11.6652 21.8846 13.3117 21.6511C15.0225 21.412 16.6568 20.6718 17.9727 19.5541C19.2186 18.5008 20.1781 17.1121 20.7206 15.5733C21.1665 14.309 21.3293 12.9473 21.2024 11.613C21.0747 10.2434 20.632 8.9048 19.9212 7.72729C19.1025 6.36759 17.9272 5.22562 16.5462 4.44377C15.0954 3.61872 13.417 3.20643 11.7493 3.25254Z" fill="#4B4B4B"/>
</svg>
