<svg width="24" height="24" viewBox="0 0 24 24" fill="none" xmlns="http://www.w3.org/2000/svg">
<path opacity="0.5" d="M9.52462 1.27381C10.8709 1.26054 12.2171 1.26054 13.5633 1.26661C14.7109 1.27381 15.8605 1.28326 17.0043 1.38897C17.8938 1.47467 18.7915 1.62043 19.617 1.97716C20.2983 2.2671 20.9099 2.72191 21.3751 3.29885C21.7867 3.80404 22.0744 4.40123 22.2606 5.02361C22.5081 5.84505 22.6037 6.70293 22.6628 7.55586C22.7514 8.95672 22.7397 10.3609 22.7418 11.7636C22.7397 13.0237 22.7505 14.2839 22.7082 15.5433C22.67 16.5407 22.6095 17.5441 22.3879 18.5203C22.2188 19.2612 21.9349 19.987 21.4738 20.597C21.0107 21.214 20.3854 21.7062 19.6798 22.0173C18.8781 22.3767 18.0029 22.5296 17.1347 22.6205C15.9977 22.7348 14.8537 22.7451 13.712 22.7539C12.4553 22.7618 11.1986 22.7613 9.94164 22.7512C9.07814 22.7449 8.21396 22.7262 7.35248 22.6648C6.64665 22.6093 5.93969 22.526 5.25388 22.345C4.63668 22.1837 4.03634 21.9358 3.51473 21.5647C2.94048 21.1596 2.4652 20.6171 2.13636 19.996C1.72001 19.2108 1.52972 18.3289 1.42063 17.4532C1.27375 16.2224 1.26363 14.9808 1.25238 13.743C1.24856 12.5808 1.24856 11.4188 1.25238 10.2566C1.26273 9.08021 1.27465 7.90113 1.40151 6.73037C1.49756 5.88778 1.65883 5.04003 2.01759 4.26605C2.4065 3.41222 3.06757 2.68457 3.88429 2.22166C4.61306 1.80419 5.44057 1.59613 6.26562 1.47445C7.34461 1.31924 8.43641 1.29338 9.52462 1.27381ZM9.07521 2.78174C8.21058 2.80243 7.34393 2.83482 6.48672 2.95763C5.80249 3.0602 5.107 3.22058 4.51386 3.59216C4.13418 3.83171 3.80871 4.15763 3.57118 4.53889C3.39821 4.81375 3.2727 5.11583 3.17598 5.42511C3.02753 5.90961 2.94633 6.41164 2.88987 6.91436C2.78708 7.88246 2.76661 8.85664 2.75649 9.82924C2.74389 11.5762 2.73984 13.3235 2.76976 15.0705C2.80147 16.089 2.83701 17.1156 3.05025 18.1156C3.14179 18.5295 3.2691 18.9393 3.47266 19.3129C3.65688 19.6584 3.9115 19.965 4.21381 20.2135C4.69966 20.6153 5.30787 20.8317 5.9172 20.9626C6.796 21.1477 7.6964 21.1938 8.59162 21.2273C9.43128 21.2534 10.2714 21.2572 11.1113 21.2568C11.9586 21.2579 12.8059 21.2577 13.6532 21.2554C14.8143 21.2464 15.9783 21.2386 17.134 21.1126C17.8974 21.0213 18.6777 20.8834 19.3561 20.5024C19.7153 20.3006 20.0293 20.0212 20.2772 19.6928C20.7084 19.119 20.9021 18.4092 21.0195 17.7117C21.1083 17.1729 21.1531 16.6279 21.1841 16.0834C21.2498 14.7869 21.2395 13.4886 21.2428 12.191C21.2426 11.3513 21.2442 10.5114 21.2338 9.67177C21.223 8.76193 21.2005 7.85075 21.1056 6.94519C21.0242 6.22991 20.9043 5.50429 20.5919 4.84929C20.3121 4.25818 19.8357 3.76288 19.2538 3.4635C18.8289 3.24284 18.3635 3.11238 17.8947 3.02309C17.3788 2.92524 16.8549 2.87441 16.3313 2.83887C15.1326 2.76442 13.9313 2.76622 12.7308 2.76509C11.5124 2.76667 10.2935 2.75722 9.07521 2.78174Z" fill="#4B4B4B"/>
<path d="M11.8406 7.27861C12.1627 7.20573 12.5168 7.37465 12.6634 7.66999C12.7253 7.78672 12.7496 7.92033 12.7462 8.05169C12.7453 9.19906 12.7464 10.3466 12.7457 11.494C12.7462 11.5604 12.7417 11.6272 12.7496 11.6935C12.7883 11.7529 12.8449 11.7977 12.8938 11.8485C13.5692 12.5226 14.2433 13.1981 14.9183 13.8724C14.9932 13.9478 15.0733 14.0202 15.1302 14.1111C15.2722 14.3337 15.2836 14.6324 15.1568 14.8643C15.0288 15.1073 14.76 15.2674 14.4851 15.26C14.2883 15.2595 14.0958 15.1745 13.9586 15.0346C13.1302 14.2062 12.3017 13.3778 11.4733 12.5496C11.3307 12.4095 11.245 12.2129 11.2464 12.0125C11.2464 10.7524 11.2464 9.49259 11.2464 8.23254C11.2488 8.09195 11.234 7.94822 11.2738 7.81147C11.3447 7.54695 11.5723 7.33327 11.8406 7.27861Z" fill="#4B4B4B"/>
</svg>
