<svg width="24" height="24" viewBox="0 0 24 24" fill="none" xmlns="http://www.w3.org/2000/svg">
<path d="M11.1723 1.2817C12.8193 1.1551 14.496 1.4083 16.0269 2.0305C17.9898 2.8201 19.704 4.2079 20.892 5.9578C22.1061 7.732 22.7619 9.8794 22.749 12.0289C22.7517 14.2675 22.0254 16.498 20.7066 18.3064C19.4847 19.9954 17.763 21.3178 15.8124 22.0546C13.524 22.9273 10.9353 22.9804 8.61214 22.2058C6.78814 21.6031 5.13574 20.4961 3.87844 19.0441C3.16684 18.2251 2.57944 17.2978 2.14534 16.3036C1.00594 13.7194 0.951934 10.6822 1.99534 8.0584C2.89204 5.7691 4.60414 3.8137 6.75094 2.6164C8.10394 1.8562 9.62464 1.3975 11.1723 1.2817ZM11.2332 2.7817C9.88744 2.89 8.56744 3.301 7.39714 3.9748C5.74174 4.9228 4.39264 6.3955 3.59614 8.1292C3.03694 9.3382 2.74714 10.6702 2.75014 12.0019C2.74744 13.4164 3.07504 14.8306 3.70444 16.0975C4.15654 17.0131 4.76254 17.8528 5.48914 18.5704C6.92464 20.0026 8.84494 20.9389 10.8588 21.1804C12.1605 21.3406 13.4964 21.2251 14.7489 20.8348C15.8013 20.5078 16.7937 19.9894 17.664 19.3135C19.1586 18.1579 20.2878 16.5352 20.8407 14.7277C21.246 13.4146 21.3501 12.0109 21.1515 10.6513C20.988 9.5221 20.6094 8.4247 20.0451 7.4329C19.1013 5.7685 17.6286 4.4098 15.8916 3.6067C14.4459 2.9317 12.8223 2.6497 11.2332 2.7817Z" fill="#4B4B4B"/>
<path opacity="0.5" d="M7.95702 15.769C7.67018 15.8313 7.35355 15.7065 7.18892 15.4628C7 15.2015 7.01337 14.8197 7.21542 14.5697C7.3156 14.436 7.4691 14.3622 7.61002 14.2805C8.48791 13.7737 10.8277 12.4228 11.7056 11.9159C11.1614 10.9716 10.6144 10.0289 10.0718 9.08372C9.87107 8.73717 10.0154 8.24855 10.3728 8.06675C10.7073 7.87503 11.1768 7.9982 11.3691 8.33369C12.0402 9.49365 12.7092 10.6548 13.3798 11.815C13.5377 12.0765 13.5069 12.4324 13.3111 12.6656C13.209 12.7966 13.0552 12.8674 12.9157 12.9493C11.8765 13.5493 9.37494 14.9933 8.33601 15.5938C8.21516 15.6629 8.09618 15.743 7.95702 15.769Z" fill="#4B4B4B"/>
</svg>
