<svg width="24" height="24" viewBox="0 0 24 24" fill="none" xmlns="http://www.w3.org/2000/svg">
<path opacity="0.5" d="M11.6597 1.26974C13.3394 1.21576 15.0316 1.5599 16.5526 2.27562C18.0256 2.96481 19.3368 3.99521 20.3582 5.26022C21.2138 6.31784 21.8668 7.53898 22.2671 8.8393C22.9224 10.9572 22.9008 13.2787 22.203 15.3834C21.7082 16.8866 20.8723 18.2753 19.7803 19.4204C18.664 20.595 17.2789 21.5134 15.7604 22.0802C13.9069 22.7759 11.8596 22.9383 9.91782 22.5571C8.56172 22.2923 7.25892 21.7595 6.10458 21.0003C4.78132 20.1323 3.65353 18.9692 2.82736 17.6197C2.01469 16.2966 1.49622 14.7945 1.32033 13.2517C1.18627 12.0814 1.24228 10.8891 1.4906 9.73744C1.82552 8.17576 2.51853 6.69302 3.49855 5.43184C4.42054 4.24129 5.59512 3.24665 6.92265 2.53542C8.37502 1.75356 10.0112 1.3181 11.6597 1.26974ZM11.5225 2.77609C11.051 2.79994 10.5814 2.85932 10.1189 2.95491C8.6897 3.24777 7.3345 3.88994 6.1995 4.80631C4.96217 5.80095 3.98642 7.11836 3.40093 8.59457C2.64854 10.4752 2.5453 12.6053 3.10267 14.5521C3.52914 16.0548 4.34856 17.4424 5.45364 18.5457C6.50451 19.6008 7.81405 20.3966 9.23606 20.8393C10.6725 21.2889 12.2191 21.3773 13.6984 21.102C15.293 20.808 16.8027 20.079 18.0295 19.0194C19.2146 18 20.1364 16.6765 20.6755 15.2089C21.1789 13.8483 21.349 12.3682 21.1807 10.928C21.0154 9.49587 20.5055 8.10535 19.707 6.90513C18.8774 5.65339 17.7393 4.60792 16.4205 3.88927C14.9331 3.07323 13.2162 2.68702 11.5225 2.77609Z" fill="#4B4B4B"/>
<path d="M11.3245 7.67889C11.439 7.44474 11.6831 7.27987 11.9438 7.26457C12.1815 7.24568 12.4235 7.35049 12.5742 7.53494C12.6836 7.66584 12.7452 7.83522 12.7459 8.00571C12.7461 9.23698 12.7461 10.4682 12.7459 11.6995C13.507 12.462 14.2698 13.223 15.0309 13.9852C15.2052 14.1605 15.2824 14.4252 15.2286 14.6666C15.1762 14.9299 14.9688 15.1535 14.7113 15.2287C14.4546 15.3083 14.1589 15.2352 13.9693 15.0449C13.1368 14.2133 12.3052 13.3809 11.473 12.5491C11.3302 12.4094 11.2456 12.2121 11.2465 12.0119C11.2463 10.6997 11.2469 9.38723 11.2463 8.07499C11.2413 7.93913 11.2618 7.80058 11.3245 7.67889Z" fill="#4B4B4B"/>
</svg>
