<svg width="24" height="24" viewBox="0 0 24 24" fill="none" xmlns="http://www.w3.org/2000/svg">
<path opacity="0.5" d="M9.52487 1.274C10.8711 1.26073 12.2173 1.26073 13.5635 1.2668C14.7111 1.274 15.8607 1.28345 17.0045 1.38916C17.8941 1.47486 18.7918 1.62062 19.6172 1.97736C20.2986 2.26729 20.9101 2.7221 21.3753 3.29904C21.7869 3.80423 22.0746 4.40142 22.2608 5.0238C22.5083 5.84525 22.6039 6.70313 22.663 7.55606C22.7516 8.95692 22.7399 10.3612 22.742 11.7638C22.7399 13.0239 22.7507 14.2842 22.7085 15.5435C22.6702 16.5409 22.6097 17.5443 22.3882 18.5205C22.219 19.2614 21.9351 19.9873 21.474 20.5973C21.0109 21.2142 20.3856 21.7064 19.68 22.0175C18.8783 22.3769 18.0031 22.5299 17.1349 22.6207C15.9979 22.735 14.8539 22.7453 13.7122 22.7541C12.4555 22.762 11.1988 22.7615 9.94189 22.7514C9.07839 22.7451 8.21421 22.7264 7.35273 22.665C6.6469 22.6095 5.93994 22.5263 5.25413 22.3452C4.63692 22.1839 4.03659 21.936 3.51497 21.5649C2.94073 21.1598 2.46545 20.6173 2.13661 19.9963C1.72026 19.211 1.52997 18.3291 1.42088 17.4534C1.274 16.2226 1.26388 14.981 1.25263 13.7432C1.24881 12.581 1.24881 11.419 1.25263 10.2568C1.26298 9.08041 1.2749 7.90133 1.40176 6.73057C1.4978 5.88798 1.65908 5.04022 2.01784 4.26624C2.40675 3.41241 3.06781 2.68476 3.88453 2.22185C4.61331 1.80438 5.44082 1.59632 6.26586 1.47464C7.34485 1.31944 8.43666 1.29357 9.52487 1.274ZM9.07546 2.78193C8.21083 2.80262 7.34418 2.83501 6.48697 2.95782C5.80273 3.06039 5.10725 3.22077 4.51411 3.59235C4.13443 3.8319 3.80896 4.15782 3.57143 4.53908C3.39846 4.81394 3.27295 5.11602 3.17623 5.4253C3.02778 5.9098 2.94658 6.41184 2.89012 6.91456C2.78733 7.88266 2.76686 8.85683 2.75674 9.82943C2.74414 11.5765 2.74009 13.3237 2.77001 15.0707C2.80172 16.0892 2.83726 17.1158 3.05049 18.1158C3.14204 18.5297 3.26935 18.9395 3.47291 19.3131C3.65713 19.6586 3.91175 19.9652 4.21406 20.2138C4.6999 20.6155 5.30811 20.8319 5.91745 20.9628C6.79625 21.1479 7.69664 21.194 8.59186 21.2275C9.43153 21.2536 10.2716 21.2574 11.1115 21.257C11.9588 21.2581 12.8061 21.2579 13.6535 21.2556C14.8145 21.2466 15.9786 21.2388 17.1342 21.1128C17.8977 21.0215 18.6779 20.8836 19.3563 20.5026C19.7155 20.3008 20.0295 20.0214 20.2774 19.693C20.7086 19.1192 20.9023 18.4094 21.0197 17.7119C21.1085 17.1732 21.1533 16.6282 21.1843 16.0836C21.25 14.7871 21.2397 13.4888 21.243 12.1912C21.2428 11.3515 21.2444 10.5116 21.234 9.67198C21.2232 8.76214 21.2007 7.85094 21.1058 6.94538C21.0244 6.2301 20.9045 5.50448 20.5921 4.84948C20.3123 4.25837 19.8359 3.76307 19.254 3.46369C18.8291 3.24303 18.3637 3.11258 17.895 3.02328C17.379 2.92543 16.8551 2.8746 16.3315 2.83906C15.1328 2.76461 13.9315 2.76641 12.731 2.76528C11.5126 2.76686 10.2937 2.75741 9.07546 2.78193Z" fill="#4B4B4B"/>
<path d="M11.8408 7.27848C12.1629 7.20561 12.5169 7.37453 12.6635 7.66986C12.7254 7.7866 12.7497 7.92021 12.7463 8.05157C12.7454 9.19893 12.7465 10.3465 12.7459 11.4939C12.7463 11.5602 12.7418 11.6271 12.7497 11.6934C12.7884 11.7528 12.8451 11.7975 12.8939 11.8484C13.5693 12.5225 14.2435 13.198 14.9185 13.8723C14.9934 13.9477 15.0734 14.0201 15.1304 14.1109C15.2723 14.3336 15.2838 14.6323 15.1569 14.8642C15.0289 15.1072 14.7601 15.2673 14.4853 15.2599C14.2884 15.2594 14.0959 15.1744 13.9587 15.0345C13.1303 14.2061 12.3019 13.3777 11.4734 12.5495C11.3308 12.4094 11.2451 12.2128 11.2465 12.0124C11.2465 10.7523 11.2465 9.49247 11.2465 8.23241C11.249 8.09183 11.2341 7.9481 11.2739 7.81134C11.3448 7.54683 11.5724 7.33314 11.8408 7.27848Z" fill="#4B4B4B"/>
</svg>
