<svg width="24" height="24" viewBox="0 0 24 24" fill="none" xmlns="http://www.w3.org/2000/svg">
<path opacity="0.5" d="M11.6597 1.26966C13.3394 1.21568 15.0316 1.55982 16.5526 2.27555C18.0256 2.96473 19.3368 3.99513 20.3582 5.26014C21.2138 6.31776 21.8668 7.5389 22.2671 8.83922C22.9224 10.9571 22.9008 13.2786 22.203 15.3833C21.7082 16.8865 20.8723 18.2752 19.7803 19.4203C18.664 20.5949 17.2789 21.5133 15.7604 22.0801C13.9069 22.7758 11.8596 22.9382 9.91782 22.557C8.56172 22.2922 7.25892 21.7594 6.10458 21.0002C4.78132 20.1322 3.65353 18.9691 2.82736 17.6195C2.01469 16.2965 1.49622 14.7944 1.32033 13.2516C1.18627 12.0813 1.24228 10.889 1.4906 9.73736C1.82552 8.17568 2.51853 6.69294 3.49855 5.43176C4.42054 4.24121 5.59512 3.24657 6.92265 2.53534C8.37502 1.75348 10.0112 1.31802 11.6597 1.26966ZM11.5225 2.77601C11.051 2.79986 10.5814 2.85924 10.1189 2.95483C8.6897 3.24769 7.3345 3.88987 6.1995 4.80623C4.96217 5.80087 3.98642 7.11828 3.40093 8.5945C2.64854 10.4751 2.5453 12.6052 3.10267 14.5519C3.52914 16.0547 4.34856 17.4423 5.45364 18.5456C6.50451 19.6007 7.81405 20.3965 9.23606 20.8392C10.6725 21.2888 12.2191 21.3772 13.6984 21.1019C15.293 20.8079 16.8027 20.0789 18.0295 19.0193C19.2146 17.9999 20.1364 16.6764 20.6755 15.2087C21.1789 13.8481 21.349 12.3681 21.1807 10.9279C21.0154 9.49579 20.5055 8.10527 19.707 6.90505C18.8774 5.65331 17.7393 4.60784 16.4205 3.88919C14.9331 3.07315 13.2162 2.68694 11.5225 2.77601Z" fill="#4B4B4B"/>
<path d="M11.3246 7.67872C11.4391 7.44456 11.6831 7.27969 11.9438 7.26439C12.1816 7.2455 12.4236 7.35032 12.5743 7.53476C12.6836 7.66567 12.7452 7.83504 12.7459 8.00554C12.7461 9.2368 12.7461 10.468 12.7459 11.6993C13.5071 12.4618 14.2698 13.2228 15.031 13.985C15.2053 14.1603 15.2825 14.425 15.2287 14.6664C15.1763 14.9298 14.9689 15.1533 14.7114 15.2285C14.4547 15.3081 14.1589 15.235 13.9693 15.0447C13.1368 14.2131 12.3053 13.3807 11.473 12.5489C11.3302 12.4092 11.2456 12.2119 11.2465 12.0117C11.2463 10.6995 11.247 9.38706 11.2463 8.07482C11.2414 7.93896 11.2618 7.8004 11.3246 7.67872Z" fill="#4B4B4B"/>
</svg>
