<svg width="24" height="24" viewBox="0 0 24 24" fill="none" xmlns="http://www.w3.org/2000/svg">
<path d="M7.08186 7.72659C7.22816 7.35047 7.58443 7.06619 7.985 7.01266C8.33574 6.95913 8.71047 7.07727 8.96014 7.33063C9.97312 8.34361 10.9861 9.35705 11.9995 10.3696C12.9516 9.41843 13.9027 8.46636 14.8543 7.51523C14.9863 7.38462 15.1095 7.24018 15.2748 7.15019C15.6435 6.93605 16.1313 6.95313 16.4843 7.19264C16.9172 7.46954 17.1129 8.05379 16.9338 8.53605C16.8646 8.75065 16.7169 8.92509 16.554 9.07554C15.5789 10.0497 14.6042 11.0244 13.6295 11.9996C14.5876 12.9585 15.5461 13.9166 16.5046 14.8751C16.6205 14.9914 16.7465 15.1022 16.8314 15.2452C17.0187 15.5498 17.0515 15.943 16.9163 16.2739C16.7921 16.5891 16.5217 16.8425 16.1982 16.944C15.8004 17.0751 15.3324 16.9675 15.038 16.6676C14.025 15.655 13.0125 14.6421 11.9995 13.6296C10.9861 14.6421 9.97404 15.655 8.96106 16.6676C8.76447 16.866 8.49218 16.9837 8.2139 16.9975C7.79072 17.0243 7.36753 16.794 7.15616 16.4276C6.8968 15.9942 6.96695 15.392 7.33061 15.039C8.34358 14.0255 9.35702 13.013 10.3695 11.9996C9.35748 10.9866 8.34451 9.97406 7.33199 8.96201C7.01171 8.64865 6.91203 8.13963 7.08186 7.72659Z" fill="#4B4B4B"/>
</svg>
