<svg width="24" height="24" viewBox="0 0 24 24" fill="none" xmlns="http://www.w3.org/2000/svg">
<g clip-path="url(#clip0_27038_11310)">
<path d="M11.7105 0.253519C13.3152 0.213919 14.9283 0.503119 16.4154 1.10852C18.4698 1.93832 20.2752 3.36752 21.5622 5.17022C22.9305 7.07072 23.6994 9.39242 23.7483 11.733C23.8026 13.9497 23.2119 16.1775 22.062 18.0732C21.0987 19.6674 19.7514 21.0261 18.1668 22.0041C16.2 23.2266 13.8636 23.8347 11.5509 23.742C9.40799 23.6664 7.29029 22.9851 5.50709 21.7941C3.75449 20.634 2.32169 18.9948 1.41239 17.0994C0.843586 15.9213 0.471886 14.6475 0.326386 13.347C0.159886 11.8866 0.265486 10.3944 0.644086 8.97362C0.912586 7.96052 1.32029 6.98492 1.84889 6.08012C2.83919 4.38152 4.26389 2.93942 5.94869 1.92632C7.68059 0.881119 9.68819 0.298819 11.7105 0.253519ZM11.7117 1.75412C10.077 1.79582 8.45519 2.24072 7.02629 3.03512C5.98379 3.61592 5.04299 4.37882 4.26059 5.28032C2.87069 6.87152 1.99409 8.90282 1.79759 11.007C1.61729 12.8535 1.94369 14.7483 2.75039 16.4205C3.16829 17.2947 3.70979 18.1098 4.35749 18.8307C5.75399 20.3985 7.64339 21.5226 9.69119 21.99C12.0633 22.5387 14.6298 22.2159 16.7805 21.0702C18.5316 20.1471 20.0049 18.7062 20.9652 16.9749C21.5625 15.9006 21.9624 14.7171 22.1421 13.5012C22.4943 11.1462 21.9951 8.67362 20.7435 6.64682C19.6881 4.92482 18.1149 3.52382 16.2777 2.68292C14.8548 2.02562 13.2777 1.70942 11.7117 1.75412Z" fill="#4B4B4B"/>
<path opacity="0.5" d="M11.3538 2.5716C12.9798 2.46 14.6349 2.7735 16.1025 3.4848C17.7594 4.2822 19.1715 5.5755 20.1144 7.1535C20.7159 8.1567 21.1242 9.2742 21.3192 10.4274C21.5445 11.7639 21.4794 13.1493 21.1263 14.4582C20.6442 16.2681 19.6026 17.9214 18.1848 19.1445C17.3553 19.8633 16.401 20.4381 15.3753 20.8296C13.1409 21.6897 10.578 21.6546 8.36969 20.7282C6.67979 20.0253 5.20349 18.8202 4.17779 17.3046C3.52619 16.3449 3.05309 15.2646 2.79149 14.1345C2.28719 11.9625 2.57669 9.6135 3.61499 7.6383C4.52609 5.883 6.00329 4.4286 7.77299 3.5457C8.88629 2.9883 10.1112 2.6541 11.3538 2.5716ZM9.44519 9.3534C9.22589 9.5238 9.14759 9.8436 9.25649 10.098C9.30629 10.2348 9.42089 10.329 9.51989 10.4295C10.0431 10.953 10.5672 11.4756 11.0898 12C10.5231 12.5694 9.95279 13.1349 9.38699 13.7049C9.19439 13.8939 9.15449 14.2119 9.28109 14.4477C9.38249 14.6433 9.59039 14.7783 9.81029 14.7909C9.98729 14.8035 10.1685 14.7381 10.2957 14.6136C10.8642 14.0463 11.4309 13.4772 12 12.9102C12.5691 13.4772 13.1361 14.0463 13.7046 14.6139C13.8951 14.8044 14.2128 14.847 14.4483 14.7177C14.6517 14.6118 14.7897 14.3901 14.7918 14.1603C14.7957 13.986 14.7255 13.8117 14.6001 13.6905C14.0367 13.1271 13.4727 12.5643 12.9102 12C13.4724 11.4357 14.0367 10.8735 14.5995 10.3101C14.7414 10.1748 14.8116 9.9714 14.787 9.7773C14.7615 9.5406 14.5935 9.3219 14.3661 9.2463C14.1504 9.1719 13.8906 9.2115 13.7208 9.3687C13.1481 9.9432 12.5742 10.5168 12 11.0898C11.4303 10.5216 10.8615 9.9522 10.293 9.3828C10.0692 9.1632 9.68339 9.1488 9.44519 9.3534Z" fill="#4B4B4B"/>
</g>
<defs>
<clipPath id="clip0_27038_11310">
<rect width="24" height="24" fill="white"/>
</clipPath>
</defs>
</svg>
