<svg width="24" height="24" viewBox="0 0 24 24" fill="none" xmlns="http://www.w3.org/2000/svg">
<g clip-path="url(#clip0_35569_35243)">
<mask id="mask0_35569_35243" style="mask-type:luminance" maskUnits="userSpaceOnUse" x="0" y="0" width="24" height="24">
<path d="M24 0H0V24H24V0Z" fill="white"/>
</mask>
<g mask="url(#mask0_35569_35243)">
<mask id="mask1_35569_35243" style="mask-type:luminance" maskUnits="userSpaceOnUse" x="0" y="0" width="24" height="24">
<path d="M24 0H0V24H24V0Z" fill="white"/>
</mask>
<g mask="url(#mask1_35569_35243)">
<path d="M11.7105 0.25358C13.3152 0.21398 14.9283 0.50318 16.4154 1.10858C18.4698 1.93838 20.2752 3.36758 21.5622 5.17028C22.9305 7.07078 23.6994 9.39248 23.7483 11.7331C23.8026 13.9498 23.2119 16.1776 22.062 18.0733C21.0987 19.6675 19.7514 21.0262 18.1668 22.0042C16.2 23.2267 13.8636 23.8348 11.5509 23.7421C9.40799 23.6665 7.29029 22.9852 5.50709 21.7942C3.75449 20.6341 2.32169 18.9949 1.41239 17.0995C0.843586 15.9214 0.471886 14.6476 0.326386 13.3471C0.159886 11.8867 0.265486 10.3945 0.644086 8.97368C0.912586 7.96058 1.32029 6.98498 1.84889 6.08018C2.83919 4.38158 4.26389 2.93948 5.94869 1.92638C7.68059 0.88118 9.68819 0.29888 11.7105 0.25358ZM11.7117 1.75418C10.077 1.79588 8.45519 2.24078 7.02629 3.03518C5.98379 3.61598 5.04299 4.37888 4.26059 5.28038C2.87069 6.87158 1.99409 8.90288 1.79759 11.0071C1.61729 12.8536 1.94369 14.7484 2.75039 16.4206C3.16829 17.2948 3.70979 18.1099 4.35749 18.8308C5.75399 20.3986 7.64339 21.5227 9.69119 21.9901C12.0633 22.5388 14.6298 22.216 16.7805 21.0703C18.5316 20.1472 20.0049 18.7063 20.9652 16.975C21.5625 15.9007 21.9624 14.7172 22.1421 13.5013C22.4943 11.1463 21.9951 8.67368 20.7435 6.64688C19.6881 4.92488 18.1149 3.52388 16.2777 2.68298C14.8548 2.02568 13.2777 1.70948 11.7117 1.75418Z" fill="#4B4B4B"/>
<path opacity="0.5" d="M11.3539 2.5716C12.9799 2.46 14.635 2.7735 16.1026 3.4848C17.7595 4.2822 19.1716 5.5755 20.1145 7.1535C20.716 8.1567 21.1243 9.2742 21.3193 10.4274C21.5446 11.7639 21.4795 13.1493 21.1264 14.4582C20.6443 16.2681 19.6027 17.9214 18.1849 19.1445C17.3554 19.8633 16.4011 20.4381 15.3754 20.8296C13.141 21.6897 10.5781 21.6546 8.36975 20.7282C6.67985 20.0253 5.20355 18.8202 4.17785 17.3046C3.52625 16.3449 3.05315 15.2646 2.79155 14.1345C2.28725 11.9625 2.57675 9.6135 3.61505 7.6383C4.52615 5.883 6.00335 4.4286 7.77305 3.5457C8.88635 2.9883 10.1113 2.6541 11.3539 2.5716ZM9.44525 9.3534C9.22595 9.5238 9.14765 9.8436 9.25655 10.098C9.30635 10.2348 9.42095 10.329 9.51995 10.4295C10.0432 10.953 10.5673 11.4756 11.0899 12C10.5232 12.5694 9.95285 13.1349 9.38705 13.7049C9.19445 13.8939 9.15455 14.2119 9.28115 14.4477C9.38255 14.6433 9.59045 14.7783 9.81035 14.7909C9.98735 14.8035 10.1686 14.7381 10.2958 14.6136C10.8643 14.0463 11.431 13.4772 12.0001 12.9102C12.5692 13.4772 13.1362 14.0463 13.7047 14.6139C13.8952 14.8044 14.2129 14.847 14.4484 14.7177C14.6518 14.6118 14.7898 14.3901 14.7919 14.1603C14.7958 13.986 14.7256 13.8117 14.6002 13.6905C14.0368 13.1271 13.4728 12.5643 12.9103 12C13.4725 11.4357 14.0368 10.8735 14.5996 10.3101C14.7415 10.1748 14.8117 9.9714 14.7871 9.7773C14.7616 9.5406 14.5936 9.3219 14.3662 9.2463C14.1505 9.1719 13.8907 9.2115 13.7209 9.3687C13.1482 9.9432 12.5743 10.5168 12.0001 11.0898C11.4304 10.5216 10.8616 9.9522 10.2931 9.3828C10.0693 9.1632 9.68345 9.1488 9.44525 9.3534Z" fill="#4B4B4B"/>
</g>
</g>
</g>
<defs>
<clipPath id="clip0_35569_35243">
<rect width="24" height="24" fill="white"/>
</clipPath>
</defs>
</svg>
