<svg width="24" height="24" viewBox="0 0 24 24" fill="none" xmlns="http://www.w3.org/2000/svg">
<g clip-path="url(#clip0_27038_11308)">
<path d="M9.13201 0.585627C10.5882 0.564027 12.0444 0.570927 13.5003 0.572427C15.0723 0.587127 16.6527 0.579327 18.2115 0.809727C19.2162 0.961527 20.2263 1.25553 21.0597 1.85553C21.8397 2.41203 22.4337 3.21273 22.7667 4.10943C23.0247 4.78293 23.1621 5.49633 23.2485 6.21063C23.4051 7.50393 23.4129 8.80893 23.4258 10.1097C23.4327 11.7297 23.4375 13.3497 23.4138 14.9697C23.3859 16.224 23.346 17.4867 23.1009 18.7209C22.9314 19.5582 22.638 20.3859 22.131 21.0807C21.6039 21.8049 20.8692 22.3752 20.0382 22.7088C19.05 23.1153 17.9784 23.253 16.9203 23.3337C15.4125 23.4372 13.9002 23.4291 12.3897 23.43C10.761 23.4264 9.13111 23.448 7.50421 23.3604C6.27511 23.2866 5.01991 23.1615 3.87661 22.6725C2.98711 22.2963 2.21581 21.6483 1.70041 20.8305C1.10461 19.8957 0.867314 18.7863 0.740114 17.6994C0.566714 16.1355 0.581114 14.559 0.570014 12.9879C0.572714 11.5284 0.559814 10.0686 0.596714 8.60973C0.621614 7.71273 0.661814 6.81423 0.788714 5.92533C0.893714 5.19513 1.05931 4.46673 1.36591 3.79263C1.71631 3.00483 2.28181 2.31393 2.99011 1.82163C3.48331 1.47183 4.04491 1.22973 4.62361 1.06173C5.32651 0.857127 6.05462 0.756627 6.78241 0.692127C7.56361 0.623127 8.34811 0.599727 9.13201 0.585627ZM9.36872 2.08203C8.40991 2.09733 7.44961 2.12103 6.49621 2.22813C5.83801 2.30493 5.17651 2.41983 4.55911 2.66883C4.11331 2.84553 3.70291 3.11433 3.37051 3.46053C3.03121 3.80643 2.78581 4.23543 2.61811 4.68813C2.41711 5.23053 2.31391 5.80293 2.24161 6.37503C2.16031 7.03683 2.12641 7.70313 2.10421 8.36883C2.07271 9.34863 2.07151 10.329 2.07001 11.3091C2.07121 12.5301 2.06491 13.7511 2.08711 14.9718C2.10301 15.753 2.12881 16.5348 2.20681 17.3127C2.25931 17.8248 2.33311 18.3363 2.46631 18.834C2.58841 19.2822 2.75551 19.7247 3.02131 20.109C3.29251 20.5104 3.65311 20.8518 4.07311 21.0945C4.60051 21.4026 5.19781 21.5652 5.79511 21.6729C6.55591 21.807 7.32842 21.8553 8.09942 21.8871C9.55892 21.9438 11.0199 21.9267 12.4803 21.93C13.9716 21.9282 15.4656 21.9384 16.9539 21.8262C17.5995 21.7719 18.2475 21.6969 18.8736 21.5238C19.3005 21.4026 19.7226 21.243 20.0916 20.9922C20.5299 20.697 20.9001 20.2977 21.1488 19.8303C21.4011 19.365 21.5484 18.8508 21.6483 18.3333C21.7731 17.67 21.8337 16.9962 21.8682 16.3227C21.9387 14.8536 21.927 13.3821 21.9321 11.9118C21.9213 10.3827 21.9438 8.85183 21.8472 7.32483C21.7956 6.62193 21.7251 5.91633 21.5508 5.23173C21.4167 4.71183 21.2169 4.19943 20.8917 3.76803C20.5908 3.36813 20.1993 3.03393 19.7502 2.81163C19.1691 2.51253 18.5226 2.37213 17.8806 2.27673C16.5189 2.08893 15.1413 2.08803 13.7694 2.07423C12.3027 2.06973 10.8354 2.06463 9.36872 2.08203Z" fill="#4B4B4B"/>
<path opacity="0.5" d="M9.69781 2.64987C11.0154 2.63517 12.333 2.63877 13.6509 2.64417C14.5512 2.65227 15.453 2.65887 16.3512 2.73087C17.3466 2.81487 18.3756 2.94897 19.2579 3.45117C19.7604 3.73887 20.1876 4.15587 20.4927 4.64757C20.748 5.06277 20.916 5.52627 21.0294 5.99877C21.1752 6.60777 21.2391 7.23267 21.2847 7.85607C21.3723 9.24567 21.3522 10.6386 21.36 12.0297C21.3537 13.4595 21.3723 14.8911 21.2724 16.3182C21.2211 16.9548 21.1449 17.5929 20.9757 18.21C20.8347 18.7188 20.6211 19.2144 20.2983 19.6353C19.9848 20.0454 19.5801 20.3844 19.1235 20.6247C18.2499 21.0708 17.2593 21.1977 16.2936 21.2745C14.7846 21.3792 13.2708 21.3552 11.7594 21.36C10.329 21.3552 8.89561 21.3732 7.46881 21.255C6.88411 21.2034 6.29941 21.1215 5.73391 20.961C5.27101 20.8275 4.82221 20.6322 4.43071 20.349C3.95491 20.0043 3.57211 19.5363 3.31681 19.008C3.11191 18.5754 2.98051 18.1113 2.89231 17.6421C2.76871 16.9791 2.71771 16.3053 2.68621 15.6324C2.65321 14.8923 2.64571 14.1513 2.64151 13.4106C2.64241 11.9601 2.62801 10.509 2.66251 9.05877C2.68231 8.32557 2.71441 7.59117 2.81161 6.86337C2.89831 6.22407 3.03571 5.58357 3.31531 4.99827C3.64591 4.29267 4.21981 3.70857 4.91371 3.35607C5.54641 3.03837 6.24811 2.89077 6.94591 2.80107C7.85851 2.68737 8.77921 2.66487 9.69781 2.64987ZM9.47821 9.23847C9.12001 9.43227 9.03931 9.97467 9.33091 10.2603C9.90991 10.8408 10.4907 11.4195 11.0694 12C10.5348 12.5358 9.99901 13.0707 9.46381 13.6062C9.38941 13.6812 9.30601 13.7502 9.25171 13.8429C9.15541 13.9986 9.12241 14.1945 9.17581 14.3712C9.23761 14.5962 9.42931 14.7798 9.65731 14.8311C9.87601 14.8839 10.119 14.8155 10.2759 14.6535C10.851 14.0796 11.4246 13.5039 12 12.9303C12.5793 13.5102 13.1613 14.088 13.7379 14.6706C13.9062 14.8212 14.1525 14.8917 14.3718 14.8236C14.586 14.763 14.763 14.5866 14.8227 14.3718C14.8887 14.1468 14.8227 13.8888 14.6535 13.7256C14.079 13.1505 13.5036 12.5763 12.9294 12.0009C13.509 11.4195 14.088 10.8375 14.6709 10.2594C14.8221 10.0938 14.8884 9.84867 14.8236 9.63177C14.7648 9.41607 14.5881 9.23727 14.3724 9.17727C14.1471 9.11067 13.8891 9.17667 13.725 9.34527C13.149 9.91978 12.5748 10.4961 11.9988 11.0706C11.4192 10.491 10.8387 9.91197 10.2603 9.33117C10.0581 9.13137 9.72211 9.09928 9.47821 9.23847Z" fill="#4B4B4B"/>
</g>
<defs>
<clipPath id="clip0_27038_11308">
<rect width="24" height="24" fill="white"/>
</clipPath>
</defs>
</svg>
