<svg width="24" height="24" viewBox="0 0 24 24" fill="none" xmlns="http://www.w3.org/2000/svg">
<path d="M8.8305 1.27379C10.3167 1.23809 11.8035 1.25429 13.2897 1.25039C14.6997 1.26179 16.1151 1.25759 17.5167 1.43039C18.5625 1.56419 19.6284 1.82909 20.4975 2.45249C21.2901 3.01079 21.8742 3.83789 22.1841 4.75259C22.5885 5.93339 22.6623 7.19279 22.7139 8.42999C22.7682 10.1595 22.7454 11.8902 22.7475 13.6203C22.7364 14.9166 22.7295 16.2174 22.5708 17.5062C22.4445 18.4935 22.2057 19.4949 21.6558 20.3385C21.1662 21.0954 20.4414 21.6924 19.6116 22.0425C18.6018 22.4718 17.4972 22.5987 16.4118 22.6725C14.7837 22.7703 13.1517 22.7445 11.5215 22.7493C10.0593 22.7457 8.5947 22.7577 7.1364 22.6389C6.0696 22.5441 4.9809 22.3716 4.0224 21.8679C3.1542 21.4137 2.4453 20.6667 2.0331 19.7784C1.5654 18.7812 1.4217 17.6721 1.3392 16.5852C1.2717 15.6288 1.2597 14.6697 1.2528 13.7112C1.2498 12.5103 1.248 11.3094 1.2543 10.1082C1.2609 9.25769 1.2744 8.40689 1.3293 7.55789C1.3779 6.83399 1.455 6.10859 1.6257 5.40209C1.7631 4.83299 1.9668 4.27559 2.2731 3.77459C2.7009 3.06989 3.3273 2.48819 4.0611 2.11229C4.7493 1.75529 5.5122 1.57109 6.2754 1.45889C7.1214 1.33709 7.9767 1.29749 8.8305 1.27379ZM8.8599 2.77379C8.0043 2.79809 7.1457 2.83589 6.2997 2.97329C5.7555 3.06539 5.2104 3.20069 4.7202 3.46049C4.3149 3.67379 3.9591 3.98009 3.6903 4.35089C3.3921 4.75979 3.21 5.24129 3.0897 5.72969C2.9409 6.33899 2.8749 6.96539 2.8305 7.58999C2.7438 8.92769 2.7537 10.2693 2.7507 11.6094C2.7516 12.6696 2.7462 13.7304 2.766 14.7906C2.7807 15.5112 2.8047 16.2324 2.8755 16.9497C2.937 17.5446 3.0258 18.1416 3.2175 18.7101C3.3564 19.1241 3.5616 19.5195 3.8499 19.8495C4.1223 20.1651 4.4628 20.4204 4.839 20.5995C5.3436 20.8413 5.895 20.9655 6.4455 21.0495C7.2306 21.1656 8.0244 21.2022 8.8167 21.225C10.2771 21.2613 11.7381 21.2457 13.1985 21.2493C14.5596 21.2379 15.9258 21.2478 17.2797 21.0873C17.8935 21.0087 18.5109 20.8917 19.0791 20.6379C19.5321 20.436 19.9389 20.1279 20.2437 19.7361C20.5596 19.3365 20.757 18.8562 20.8857 18.3669C21.0402 17.7756 21.111 17.166 21.1587 16.5582C21.2556 15.2118 21.2457 13.8606 21.2493 12.5118C21.2448 10.9608 21.2676 9.40829 21.1863 7.85879C21.1482 7.20899 21.0906 6.55799 20.9544 5.92049C20.8479 5.42819 20.6898 4.93949 20.4186 4.51169C20.1405 4.06919 19.7427 3.70379 19.2804 3.46049C18.8088 3.21149 18.2871 3.07589 17.7645 2.98439C17.1093 2.87189 16.4448 2.82539 15.7812 2.79539C14.8908 2.75789 13.9995 2.75399 13.1085 2.75069C11.6922 2.75399 10.2759 2.73959 8.8599 2.77379Z" fill="#4B4B4B"/>
<path opacity="0.5" d="M8.81247 9.20178C8.91567 8.95728 9.15747 8.77848 9.42237 8.75418C9.64137 8.73048 9.87087 8.80848 10.026 8.96598C10.6842 9.62418 11.3421 10.2827 12.0006 10.9406C12.6195 10.3223 13.2375 9.70368 13.8561 9.08538C13.9422 9.00018 14.0229 8.90598 14.1306 8.84718C14.3703 8.70858 14.6862 8.71968 14.9154 8.87508C15.1968 9.05478 15.3243 9.43398 15.2085 9.74748C15.1638 9.88788 15.0666 10.0022 14.9601 10.1003C14.3265 10.7333 13.6932 11.3666 13.0602 12.0002C13.7187 12.659 14.3772 13.3175 15.036 13.976C15.1647 14.1038 15.2409 14.2814 15.2496 14.4623C15.2664 14.7365 15.1173 15.0116 14.8794 15.1481C14.598 15.3179 14.2062 15.2711 13.9761 15.0353C13.3176 14.3768 12.6594 13.718 12.0006 13.0598C11.382 13.6778 10.764 14.2964 10.1457 14.9147C10.0593 14.9996 9.97797 15.0938 9.87027 15.1532C9.63627 15.2879 9.32967 15.2813 9.10197 15.1358C8.80287 14.9564 8.66907 14.5547 8.80047 14.2313C8.84787 14.0921 8.95077 13.9844 9.05547 13.8857C9.68397 13.2572 10.3128 12.629 10.941 12.0002C10.2819 11.3408 9.62277 10.6817 8.96337 10.0226C8.75157 9.81348 8.69127 9.47238 8.81247 9.20178Z" fill="#4B4B4B"/>
</svg>
