<svg width="24" height="24" viewBox="0 0 24 24" fill="none" xmlns="http://www.w3.org/2000/svg">
<g clip-path="url(#clip0_35569_35228)">
<mask id="mask0_35569_35228" style="mask-type:luminance" maskUnits="userSpaceOnUse" x="0" y="0" width="24" height="24">
<path d="M24 0H0V24H24V0Z" fill="white"/>
</mask>
<g mask="url(#mask0_35569_35228)">
<mask id="mask1_35569_35228" style="mask-type:luminance" maskUnits="userSpaceOnUse" x="0" y="0" width="24" height="24">
<path d="M24 0H0V24H24V0Z" fill="white"/>
</mask>
<g mask="url(#mask1_35569_35228)">
<path d="M9.13192 0.585505C10.5881 0.563905 12.0443 0.570805 13.5002 0.572305C15.0722 0.587005 16.6526 0.579205 18.2114 0.809605C19.2161 0.961405 20.2262 1.25541 21.0596 1.85541C21.8396 2.41191 22.4336 3.21261 22.7666 4.10931C23.0246 4.78281 23.162 5.49621 23.2484 6.21051C23.405 7.50381 23.4128 8.80881 23.4257 10.1096C23.4326 11.7296 23.4374 13.3496 23.4137 14.9696C23.3858 16.2239 23.3459 17.4866 23.1008 18.7208C22.9313 19.5581 22.6379 20.3858 22.1309 21.0806C21.6038 21.8048 20.8691 22.3751 20.0381 22.7087C19.0499 23.1152 17.9783 23.2529 16.9202 23.3336C15.4124 23.4371 13.9001 23.429 12.3896 23.4299C10.7609 23.4263 9.13103 23.4479 7.50413 23.3603C6.27503 23.2865 5.01983 23.1614 3.87652 22.6724C2.98702 22.2962 2.21572 21.6482 1.70032 20.8304C1.10452 19.8956 0.867223 18.7862 0.740023 17.6993C0.566623 16.1354 0.581022 14.5589 0.569922 12.9878C0.572622 11.5283 0.559723 10.0685 0.596623 8.60961C0.621523 7.71261 0.661722 6.81411 0.788622 5.92521C0.893622 5.19501 1.05922 4.46661 1.36582 3.79251C1.71622 3.00471 2.28172 2.31381 2.99002 1.82151C3.48322 1.47171 4.04483 1.22961 4.62352 1.06161C5.32643 0.857005 6.05453 0.756505 6.78233 0.692005C7.56353 0.623005 8.34803 0.599605 9.13192 0.585505ZM9.36863 2.08191C8.40983 2.09721 7.44953 2.12091 6.49612 2.22801C5.83793 2.30481 5.17643 2.41971 4.55903 2.66871C4.11323 2.84541 3.70282 3.11421 3.37042 3.46041C3.03112 3.80631 2.78572 4.23531 2.61802 4.68801C2.41702 5.23041 2.31382 5.80281 2.24152 6.37491C2.16022 7.03671 2.12632 7.70301 2.10412 8.36871C2.07262 9.34851 2.07142 10.3289 2.06992 11.309C2.07112 12.53 2.06482 13.751 2.08702 14.9717C2.10292 15.7529 2.12872 16.5347 2.20672 17.3126C2.25922 17.8247 2.33302 18.3362 2.46622 18.8339C2.58832 19.2821 2.75542 19.7246 3.02122 20.1089C3.29242 20.5103 3.65302 20.8517 4.07302 21.0944C4.60042 21.4025 5.19772 21.5651 5.79503 21.6728C6.55583 21.8069 7.32833 21.8552 8.09933 21.887C9.55883 21.9437 11.0198 21.9266 12.4802 21.9299C13.9715 21.9281 15.4655 21.9383 16.9538 21.8261C17.5994 21.7718 18.2474 21.6968 18.8735 21.5237C19.3004 21.4025 19.7225 21.2429 20.0915 20.9921C20.5298 20.6969 20.9 20.2976 21.1487 19.8302C21.401 19.3649 21.5483 18.8507 21.6482 18.3332C21.773 17.6699 21.8336 16.9961 21.8681 16.3226C21.9386 14.8535 21.9269 13.382 21.932 11.9117C21.9212 10.3826 21.9437 8.85171 21.8471 7.32471C21.7955 6.62181 21.725 5.91621 21.5507 5.23161C21.4166 4.71171 21.2168 4.19931 20.8916 3.76791C20.5907 3.36801 20.1992 3.03381 19.7501 2.81151C19.169 2.51241 18.5225 2.37201 17.8805 2.27661C16.5188 2.08881 15.1412 2.08791 13.7693 2.07411C12.3026 2.06961 10.8353 2.06451 9.36863 2.08191Z" fill="#4B4B4B"/>
<path opacity="0.5" d="M9.69769 2.64981C11.0153 2.63511 12.3329 2.63871 13.6508 2.64411C14.5511 2.65221 15.4529 2.65881 16.3511 2.73081C17.3465 2.81481 18.3755 2.94891 19.2578 3.45111C19.7603 3.73881 20.1875 4.15581 20.4926 4.64751C20.7479 5.06271 20.9159 5.52621 21.0293 5.99871C21.1751 6.60771 21.239 7.23261 21.2846 7.85601C21.3722 9.24561 21.3521 10.6385 21.3599 12.0296C21.3536 13.4594 21.3722 14.891 21.2723 16.3181C21.221 16.9547 21.1448 17.5928 20.9756 18.2099C20.8346 18.7187 20.621 19.2143 20.2982 19.6352C19.9847 20.0453 19.58 20.3843 19.1234 20.6246C18.2498 21.0707 17.2592 21.1976 16.2935 21.2744C14.7845 21.3791 13.2707 21.3551 11.7593 21.3599C10.3289 21.3551 8.89549 21.3731 7.46869 21.2549C6.88399 21.2033 6.29929 21.1214 5.73379 20.9609C5.27089 20.8274 4.82209 20.6321 4.43059 20.3489C3.95479 20.0042 3.57199 19.5362 3.31669 19.0079C3.11179 18.5753 2.98039 18.1112 2.89219 17.642C2.76859 16.979 2.71759 16.3052 2.68609 15.6323C2.65309 14.8922 2.64559 14.1512 2.64139 13.4105C2.64229 11.96 2.62789 10.5089 2.66239 9.05871C2.68219 8.32551 2.71429 7.59111 2.81149 6.86331C2.89819 6.22401 3.03559 5.58351 3.31519 4.99821C3.64579 4.29261 4.21969 3.70851 4.91359 3.35601C5.54629 3.03831 6.24799 2.89071 6.94579 2.80101C7.85839 2.68731 8.77909 2.66481 9.69769 2.64981ZM9.47809 9.23841C9.11989 9.43221 9.03919 9.97461 9.33079 10.2602C9.90979 10.8407 10.4906 11.4194 11.0693 11.9999C10.5347 12.5357 9.99889 13.0706 9.46369 13.6061C9.38929 13.6811 9.30589 13.7501 9.25159 13.8428C9.15529 13.9985 9.12229 14.1944 9.17569 14.3711C9.23749 14.5961 9.42919 14.7797 9.65719 14.831C9.87589 14.8838 10.1189 14.8154 10.2758 14.6534C10.8509 14.0795 11.4245 13.5038 11.9999 12.9302C12.5792 13.5101 13.1612 14.0879 13.7378 14.6705C13.9061 14.8211 14.1524 14.8916 14.3717 14.8235C14.5859 14.7629 14.7629 14.5865 14.8226 14.3717C14.8886 14.1467 14.8226 13.8887 14.6534 13.7255C14.0789 13.1504 13.5035 12.5762 12.9293 12.0008C13.5089 11.4194 14.0879 10.8374 14.6708 10.2593C14.822 10.0937 14.8883 9.84861 14.8235 9.63171C14.7647 9.41601 14.588 9.23721 14.3723 9.17721C14.147 9.11061 13.889 9.17661 13.7249 9.34521C13.1489 9.91971 12.5747 10.496 11.9987 11.0705C11.4191 10.4909 10.8386 9.91191 10.2602 9.33111C10.058 9.13131 9.72199 9.09921 9.47809 9.23841Z" fill="#4B4B4B"/>
</g>
</g>
</g>
<defs>
<clipPath id="clip0_35569_35228">
<rect width="24" height="24" fill="white"/>
</clipPath>
</defs>
</svg>
