<svg width="24" height="24" viewBox="0 0 24 24" fill="none" xmlns="http://www.w3.org/2000/svg">
<path d="M8.83044 1.27379C10.3167 1.23809 11.8035 1.25429 13.2897 1.25039C14.6997 1.26179 16.1151 1.25759 17.5167 1.43039C18.5625 1.56419 19.6284 1.82909 20.4975 2.45249C21.2901 3.01079 21.8742 3.83789 22.1841 4.75259C22.5885 5.93339 22.6623 7.19279 22.7139 8.42999C22.7682 10.1595 22.7454 11.8902 22.7475 13.6203C22.7364 14.9166 22.7295 16.2174 22.5708 17.5062C22.4445 18.4935 22.2057 19.4949 21.6558 20.3385C21.1662 21.0954 20.4414 21.6924 19.6116 22.0425C18.6018 22.4718 17.4972 22.5987 16.4118 22.6725C14.7837 22.7703 13.1517 22.7445 11.5215 22.7493C10.0593 22.7457 8.59464 22.7577 7.13634 22.6389C6.06954 22.5441 4.98084 22.3716 4.02234 21.8679C3.15414 21.4137 2.44524 20.6667 2.03304 19.7784C1.56534 18.7812 1.42164 17.6721 1.33914 16.5852C1.27164 15.6288 1.25964 14.6697 1.25274 13.7112C1.24974 12.5103 1.24794 11.3094 1.25424 10.1082C1.26084 9.25769 1.27434 8.40689 1.32924 7.55789C1.37784 6.83399 1.45494 6.10859 1.62564 5.40209C1.76304 4.83299 1.96674 4.27559 2.27304 3.77459C2.70084 3.06989 3.32724 2.48819 4.06104 2.11229C4.74924 1.75529 5.51214 1.57109 6.27534 1.45889C7.12134 1.33709 7.97664 1.29749 8.83044 1.27379ZM8.85984 2.77379C8.00424 2.79809 7.14564 2.83589 6.29964 2.97329C5.75544 3.06539 5.21034 3.20069 4.72014 3.46049C4.31484 3.67379 3.95904 3.98009 3.69024 4.35089C3.39204 4.75979 3.20994 5.24129 3.08964 5.72969C2.94084 6.33899 2.87484 6.96539 2.83044 7.58999C2.74374 8.92769 2.75364 10.2693 2.75064 11.6094C2.75154 12.6696 2.74614 13.7304 2.76594 14.7906C2.78064 15.5112 2.80464 16.2324 2.87544 16.9497C2.93694 17.5446 3.02574 18.1416 3.21744 18.7101C3.35634 19.1241 3.56154 19.5195 3.84984 19.8495C4.12224 20.1651 4.46274 20.4204 4.83894 20.5995C5.34354 20.8413 5.89494 20.9655 6.44544 21.0495C7.23054 21.1656 8.02434 21.2022 8.81664 21.225C10.2771 21.2613 11.7381 21.2457 13.1985 21.2493C14.5596 21.2379 15.9258 21.2478 17.2797 21.0873C17.8935 21.0087 18.5109 20.8917 19.0791 20.6379C19.5321 20.436 19.9389 20.1279 20.2437 19.7361C20.5596 19.3365 20.757 18.8562 20.8857 18.3669C21.0402 17.7756 21.111 17.166 21.1587 16.5582C21.2556 15.2118 21.2457 13.8606 21.2493 12.5118C21.2448 10.9608 21.2676 9.40829 21.1863 7.85879C21.1482 7.20899 21.0906 6.55799 20.9544 5.92049C20.8479 5.42819 20.6898 4.93949 20.4186 4.51169C20.1405 4.06919 19.7427 3.70379 19.2804 3.46049C18.8088 3.21149 18.2871 3.07589 17.7645 2.98439C17.1093 2.87189 16.4448 2.82539 15.7812 2.79539C14.8908 2.75789 13.9995 2.75399 13.1085 2.75069C11.6922 2.75399 10.2759 2.73959 8.85984 2.77379Z" fill="#4B4B4B"/>
<path opacity="0.5" d="M8.81247 9.20178C8.91567 8.95728 9.15747 8.77848 9.42237 8.75418C9.64137 8.73048 9.87087 8.80848 10.026 8.96598C10.6842 9.62418 11.3421 10.2827 12.0006 10.9406C12.6195 10.3223 13.2375 9.70368 13.8561 9.08538C13.9422 9.00018 14.0229 8.90598 14.1306 8.84718C14.3703 8.70858 14.6862 8.71968 14.9154 8.87508C15.1968 9.05478 15.3243 9.43398 15.2085 9.74748C15.1638 9.88788 15.0666 10.0022 14.9601 10.1003C14.3265 10.7333 13.6932 11.3666 13.0602 12.0002C13.7187 12.659 14.3772 13.3175 15.036 13.976C15.1647 14.1038 15.2409 14.2814 15.2496 14.4623C15.2664 14.7365 15.1173 15.0116 14.8794 15.1481C14.598 15.3179 14.2062 15.2711 13.9761 15.0353C13.3176 14.3768 12.6594 13.718 12.0006 13.0598C11.382 13.6778 10.764 14.2964 10.1457 14.9147C10.0593 14.9996 9.97797 15.0938 9.87027 15.1532C9.63627 15.2879 9.32966 15.2813 9.10196 15.1358C8.80286 14.9564 8.66907 14.5547 8.80047 14.2313C8.84787 14.0921 8.95077 13.9844 9.05547 13.8857C9.68397 13.2572 10.3128 12.629 10.941 12.0002C10.2819 11.3408 9.62277 10.6817 8.96337 10.0226C8.75157 9.81348 8.69127 9.47238 8.81247 9.20178Z" fill="#4B4B4B"/>
</svg>
