<svg width="24" height="24" viewBox="0 0 24 24" fill="none" xmlns="http://www.w3.org/2000/svg">
<path d="M11.1758 1.28143C12.8378 1.15423 14.5295 1.41373 16.0718 2.04823C17.9828 2.82733 19.6556 4.17343 20.8319 5.86873C22.0793 7.65253 22.7585 9.82483 22.7504 12.0016C22.7576 14.1268 22.1105 16.2478 20.9174 18.0067C19.7591 19.7281 18.0932 21.103 16.1804 21.9076C14.0024 22.8331 11.5154 23.0002 9.23032 22.39C7.29502 21.8782 5.51422 20.8063 4.14952 19.3432C2.66092 17.7592 1.67092 15.7138 1.36342 13.5613C1.02832 11.2882 1.44022 8.91013 2.54032 6.89113C3.71212 4.71433 5.65792 2.96653 7.94992 2.03953C8.97712 1.62133 10.0697 1.36483 11.1758 1.28143ZM11.2349 2.78173C9.52042 2.91853 7.85002 3.55153 6.47362 4.58263C4.97392 5.69803 3.82402 7.27723 3.23092 9.05053C2.79862 10.3342 2.65732 11.7136 2.81092 13.0591C2.95642 14.3482 3.38002 15.6043 4.04332 16.7191C5.04592 18.4132 6.60322 19.7722 8.42002 20.5315C10.5377 21.4279 12.9926 21.4873 15.1523 20.6995C16.1486 20.3386 17.081 19.8043 17.8967 19.1281C19.3598 17.9203 20.4395 16.2538 20.9309 14.4205C21.2963 13.0693 21.3488 11.6353 21.0875 10.2604C20.8955 9.24883 20.5307 8.27053 20.0156 7.37893C19.067 5.73253 17.5994 4.39063 15.8723 3.59743C14.432 2.92903 12.8165 2.65063 11.2349 2.78173Z" fill="#4B4B4B"/>
<path opacity="0.5" d="M8.93951 8.99968C9.21581 8.67088 9.77351 8.66938 10.0534 8.99428C10.7014 9.64348 11.3503 10.2915 11.9989 10.9401C12.6175 10.3221 13.2355 9.70318 13.8541 9.08518C13.9402 8.99998 14.0209 8.90578 14.1286 8.84698C14.3677 8.70838 14.6836 8.71918 14.9128 8.87398C15.202 9.05758 15.3277 9.45148 15.1987 9.76918C15.1504 9.90808 15.0481 10.0164 14.9431 10.1151C14.3149 10.7433 13.6864 11.3712 13.0585 11.9997C13.6816 12.6234 14.305 13.2462 14.9284 13.8699C15.0034 13.9455 15.0853 14.0172 15.1402 14.1102C15.2575 14.3016 15.2815 14.5464 15.2035 14.757C15.1294 14.9631 14.9599 15.1326 14.7529 15.2055C14.5501 15.2799 14.3158 15.2589 14.1283 15.1521C14.0263 15.0975 13.9498 15.0093 13.8691 14.9292C13.2457 14.3061 12.6226 13.6824 11.9989 13.0593C11.3344 13.7226 10.6717 14.3877 10.0066 15.0504C9.72851 15.3234 9.23651 15.3114 8.96831 15.03C8.68631 14.7621 8.67581 14.2698 8.94821 13.9917C9.61121 13.3269 10.276 12.6642 10.9393 11.9997C10.276 11.3352 9.61121 10.6725 8.94821 10.0077C8.68631 9.73948 8.68451 9.27298 8.93951 8.99968Z" fill="#4B4B4B"/>
</svg>
