<svg width="24" height="24" viewBox="0 0 24 24" fill="none" xmlns="http://www.w3.org/2000/svg">
<path d="M5.5197 1.38066C6.1653 1.28886 6.8187 1.26966 7.47 1.25856C8.8197 1.24386 10.1697 1.25316 11.5197 1.25046C12.8301 1.25046 14.1408 1.25046 15.4515 1.25046C16.2117 1.25556 16.9728 1.25196 17.7318 1.30326C18.3204 1.34436 18.9135 1.41876 19.4724 1.61676C19.9206 1.77696 20.3415 2.02656 20.6715 2.37246C21.0765 2.77266 21.3372 3.29796 21.4839 3.84366C21.6606 4.50846 21.7038 5.19936 21.7296 5.88396C21.7557 6.70296 21.7497 7.52226 21.7503 8.34126C21.7503 10.7815 21.7503 13.222 21.7503 15.6622C21.7497 16.4416 21.7551 17.221 21.7332 18.0001C21.7152 18.5815 21.6837 19.1647 21.5793 19.7377C21.4794 20.2807 21.2979 20.8186 20.9754 21.2713C20.7384 21.6022 20.4351 21.8869 20.0859 22.0969C19.5789 22.4077 18.9903 22.5535 18.4065 22.6333C17.6655 22.7317 16.917 22.7401 16.1709 22.7494C13.6503 22.7575 11.1294 22.7509 8.6088 22.753C7.8486 22.7479 7.0878 22.7527 6.3291 22.7041C5.784 22.6678 5.2362 22.6066 4.7118 22.4476C4.2087 22.2955 3.7287 22.039 3.3588 21.661C2.9826 21.2974 2.7201 20.827 2.5674 20.329C2.3784 19.7272 2.3199 19.0942 2.286 18.4672C2.2563 17.8957 2.2542 17.3236 2.25 16.7518C2.2506 16.2523 2.25 15.7528 2.2503 15.2533C2.2503 14.4193 2.2503 13.5853 2.2503 12.7513C2.2503 12.2518 2.2503 11.7523 2.2503 11.2528C2.2503 10.4185 2.2503 9.58446 2.2503 8.75046C2.25 8.25126 2.2506 7.75176 2.25 7.25256C2.2557 6.51546 2.2569 5.77716 2.3196 5.04216C2.3718 4.45086 2.4666 3.85476 2.7039 3.30666C2.9514 2.72346 3.3849 2.22036 3.9306 1.89726C4.4121 1.60506 4.9671 1.46226 5.5197 1.38066ZM6.0885 2.82276C5.6433 2.87016 5.1864 2.93196 4.7826 3.13776C4.4598 3.30066 4.2072 3.58776 4.0713 3.92166C3.8997 4.34256 3.846 4.79916 3.8073 5.24856C3.7554 5.91486 3.7551 6.58386 3.7506 7.25166C3.75 7.75116 3.7503 8.25066 3.7503 8.75046C3.7503 9.58446 3.7503 10.4182 3.7503 11.2522C3.7503 11.752 3.7503 12.2518 3.7503 12.7513C3.7503 13.5853 3.7503 14.4196 3.7503 15.2536C3.7503 15.7531 3.75 16.2526 3.7506 16.7521C3.7554 17.4391 3.7554 18.1273 3.8121 18.8125C3.8616 19.3279 3.9249 19.8646 4.1928 20.3191C4.4136 20.6917 4.8081 20.9281 5.2203 21.0334C5.8818 21.2068 6.5709 21.22 7.2504 21.2407C7.7499 21.2515 8.2497 21.25 8.7492 21.253C11.2326 21.2515 13.7157 21.2575 16.1988 21.2491C16.9419 21.2365 17.6898 21.2368 18.4245 21.1126C18.8619 21.0364 19.3182 20.8942 19.6272 20.5573C19.9551 20.206 20.0697 19.7197 20.1381 19.258C20.2464 18.4747 20.2392 17.6818 20.2503 16.8928C20.2503 13.6321 20.2503 10.3711 20.2503 7.11036C20.2383 6.28506 20.2479 5.45436 20.1216 4.63656C20.046 4.17756 19.9059 3.69516 19.5516 3.37146C19.2045 3.05106 18.7281 2.93436 18.2736 2.86656C17.3886 2.74356 16.4922 2.76246 15.6009 2.75076C13.317 2.75076 11.0331 2.75046 8.7492 2.75076C8.2497 2.75196 7.7499 2.75286 7.2504 2.76306C6.8628 2.77116 6.4749 2.78616 6.0885 2.82276Z" fill="#4B4B4B"/>
<path d="M11.2921 5.78016C11.3653 5.75976 11.4412 5.75166 11.5171 5.75016C13.168 5.75016 14.8189 5.75046 16.4695 5.75016C16.6642 5.74626 16.8613 5.81286 17.0038 5.94756C17.2228 6.13986 17.3071 6.46746 17.2105 6.74226C17.1157 7.04046 16.8136 7.25646 16.5007 7.25076C14.8303 7.24986 13.1596 7.25046 11.4889 7.25016C11.2141 7.25166 10.9525 7.08246 10.8289 6.83916C10.6876 6.56316 10.7392 6.20226 10.9588 5.98206C11.0497 5.88696 11.1664 5.81736 11.2921 5.78016Z" fill="#4B4B4B"/>
<path d="M11.3847 9.2589C11.829 9.2412 12.2745 9.2562 12.7191 9.2514C13.92 9.2511 15.1206 9.2514 16.3212 9.2511C16.4415 9.2526 16.5639 9.2421 16.6821 9.2721C16.8966 9.3237 17.0832 9.4773 17.1774 9.6765C17.2872 9.9009 17.2716 10.1805 17.1399 10.3926C17.0055 10.611 16.7568 10.7547 16.4988 10.7508C14.8395 10.7514 13.1802 10.7511 11.5209 10.7511C11.3616 10.7514 11.2002 10.71 11.0709 10.6152C10.8525 10.4661 10.7271 10.1946 10.7535 9.9318C10.7787 9.5988 11.0532 9.3036 11.3847 9.2589Z" fill="#4B4B4B"/>
<path opacity="0.5" d="M7.2518 2.7623C7.7513 2.7521 8.2511 2.7512 8.7506 2.75C8.7506 8.9174 8.7506 15.0848 8.7506 21.2522C8.2511 21.2492 7.7513 21.2507 7.2518 21.2399C7.2494 15.0806 7.2494 8.9216 7.2518 2.7623Z" fill="#4B4B4B"/>
<path opacity="0.5" d="M1.72075 7.30557C1.88845 7.23717 2.07325 7.24977 2.25025 7.25307C2.25085 7.75227 2.25025 8.25177 2.25055 8.75097C2.08075 8.74797 1.90345 8.77047 1.74175 8.70627C1.46515 8.60787 1.26295 8.33457 1.25125 8.04117C1.23235 7.72947 1.42885 7.41777 1.72075 7.30557Z" fill="#4B4B4B"/>
<path opacity="0.5" d="M3.75038 7.25197C3.84998 7.25077 3.94958 7.24717 4.04917 7.25437C4.25678 7.26667 4.45807 7.37077 4.58707 7.53457C4.72807 7.70767 4.78118 7.94677 4.73257 8.16457C4.68217 8.40997 4.49587 8.61967 4.26127 8.70517C4.09867 8.76877 3.92077 8.74897 3.75007 8.75077C3.75007 8.25097 3.74978 7.75147 3.75038 7.25197Z" fill="#4B4B4B"/>
<path opacity="0.5" d="M1.80186 11.2778C1.94766 11.2376 2.10096 11.2532 2.25066 11.252C2.25066 11.7515 2.25066 12.251 2.25066 12.7505C2.08416 12.749 1.91136 12.7673 1.75146 12.7088C1.46736 12.6113 1.25706 12.3305 1.25106 12.0287C1.23186 11.6906 1.47456 11.3627 1.80186 11.2778Z" fill="#4B4B4B"/>
<path opacity="0.5" d="M3.75 11.2515C3.9009 11.2521 4.0551 11.2395 4.2027 11.2788C4.5285 11.3652 4.7703 11.6928 4.7496 12.0312C4.7418 12.3318 4.5321 12.6126 4.248 12.7089C4.0887 12.7668 3.9162 12.7497 3.75 12.7506C3.75 12.2511 3.75 11.7513 3.75 11.2515Z" fill="#4B4B4B"/>
<path opacity="0.5" d="M1.39811 15.5521C1.51511 15.3925 1.69931 15.2836 1.89551 15.2575C2.01311 15.2452 2.13191 15.2518 2.25011 15.2512C2.24981 15.7507 2.25041 16.2502 2.24981 16.7497C2.07341 16.7506 1.88801 16.7677 1.72181 16.6954C1.50971 16.6132 1.33991 16.4278 1.27931 16.2082C1.21511 15.9868 1.25711 15.7354 1.39811 15.5521Z" fill="#4B4B4B"/>
<path opacity="0.5" d="M3.75007 15.2519C3.92737 15.2531 4.11367 15.2321 4.28107 15.3047C4.52647 15.4022 4.71128 15.6374 4.74338 15.9002C4.78658 16.193 4.63537 16.502 4.37857 16.6487C4.19107 16.7648 3.96248 16.7555 3.75038 16.7504C3.74978 16.2509 3.75007 15.7514 3.75007 15.2519Z" fill="#4B4B4B"/>
</svg>
