<svg width="24" height="24" viewBox="0 0 24 24" fill="none" xmlns="http://www.w3.org/2000/svg">
<path d="M9.08738 1.28974C9.72325 1.2434 10.3614 1.2515 10.9984 1.24925C11.7483 1.24925 12.4982 1.24948 13.2481 1.24925C13.8033 1.25173 14.3591 1.24858 14.9131 1.29041C15.3357 1.3237 15.7619 1.38601 16.1576 1.54436C16.4563 1.66267 16.7318 1.84104 16.9559 2.07205C17.1965 2.31497 17.3747 2.61548 17.4878 2.93735C17.637 3.35797 17.6878 3.80558 17.7152 4.24869C17.744 4.74803 17.7436 5.2485 17.744 5.74852C17.744 6.24809 17.744 6.74766 17.744 7.24723C17.744 7.74725 17.7438 8.24704 17.744 8.74706C17.744 9.24685 17.744 9.74687 17.744 10.2469C17.7438 10.7465 17.7438 11.246 17.744 11.7458C17.744 12.2458 17.744 12.7456 17.744 13.2457C17.7438 13.7457 17.7438 14.2455 17.744 14.7455C17.7442 16.9116 17.7438 19.0774 17.7442 21.2435C18.5774 21.2439 19.4105 21.2437 20.2437 21.2437C20.7435 21.2437 21.2433 21.2437 21.7433 21.2437C21.9309 21.2457 22.1295 21.2237 22.3038 21.3105C22.6225 21.4491 22.8092 21.8269 22.7233 22.1643C22.6664 22.4172 22.4678 22.6308 22.2206 22.7078C22.0762 22.7566 21.9221 22.7406 21.7727 22.7431C15.2122 22.7433 8.65169 22.7429 2.09116 22.7433C1.94226 22.7489 1.78863 22.7316 1.65547 22.6596C1.39838 22.5299 1.23171 22.2424 1.2506 21.9543C1.26185 21.6607 1.46406 21.3872 1.7405 21.2891C1.90267 21.2246 2.07969 21.2478 2.24974 21.2437C2.74953 21.2437 3.24933 21.2437 3.74912 21.2437C4.58204 21.2435 5.41518 21.2439 6.24832 21.2435C6.24832 19.0774 6.24832 16.9113 6.24832 14.7455C6.24832 14.2455 6.24854 13.7457 6.24832 13.2457C6.24832 12.7456 6.24832 12.2456 6.24832 11.7458C6.24854 11.2463 6.24854 10.7467 6.24832 10.2471C6.24832 9.7471 6.24832 9.24708 6.24832 8.74706C6.24854 8.24704 6.24832 7.74725 6.24832 7.24745C6.24832 6.74766 6.24831 6.24809 6.24854 5.74852C6.24854 5.2485 6.24854 4.74803 6.27733 4.24847C6.30725 3.76374 6.3655 3.27182 6.54995 2.81881C6.75306 2.30912 7.14533 1.87703 7.63771 1.63343C8.08622 1.40693 8.59141 1.32843 9.08738 1.28974ZM8.97086 2.80712C8.74436 2.83591 8.51291 2.87235 8.30665 2.97536C8.1411 3.05769 8.01154 3.20412 7.94249 3.37484C7.84239 3.62069 7.81203 3.88745 7.78751 4.1495C7.74792 4.63962 7.75017 5.13176 7.74792 5.62324C7.74792 10.8301 7.74747 16.037 7.74815 21.2437C8.91418 21.2437 10.0802 21.2437 11.2465 21.2437C11.2474 20.4821 11.2447 19.7205 11.2476 18.9589C11.2555 18.5745 11.603 18.2393 11.9874 18.2443C12.379 18.2296 12.7387 18.5695 12.745 18.9616C12.7474 19.7221 12.7452 20.4828 12.7461 21.2435C13.9121 21.2437 15.0784 21.2437 16.2446 21.2435C16.2442 15.9468 16.2458 10.65 16.2437 5.35332C16.2379 4.84205 16.241 4.32787 16.1661 3.82087C16.1257 3.57772 16.0692 3.31883 15.896 3.13259C15.7403 2.96389 15.5118 2.89281 15.2932 2.84895C14.8123 2.75966 14.321 2.75988 13.8336 2.75178C12.6863 2.74638 11.5389 2.74886 10.3915 2.74998C9.91759 2.75426 9.44232 2.75381 8.97086 2.80712Z" fill="#4B4B4B"/>
<path d="M10.1374 4.12633C10.2145 3.78646 10.5362 3.51587 10.8866 3.51025C11.554 3.50778 12.2211 3.50913 12.8882 3.50913C13.0167 3.51295 13.1478 3.49855 13.2733 3.53342C13.5513 3.60517 13.7832 3.83572 13.8518 4.11531C13.893 4.32382 13.8721 4.5384 13.8752 4.74961C14.2066 4.75074 14.5379 4.74781 14.8692 4.75141C15.2016 4.75659 15.5118 4.99569 15.6072 5.31306C15.6416 5.428 15.6463 5.54924 15.6454 5.66868C15.6409 6.10302 15.6472 6.53735 15.6434 6.97192C15.6416 7.09968 15.6502 7.23104 15.6099 7.35475C15.5471 7.56438 15.3917 7.7378 15.2025 7.84352C15.2028 8.37031 15.2014 8.89687 15.2032 9.42365C15.2037 9.56873 15.1807 9.71719 15.1112 9.84652C14.9801 10.0998 14.7057 10.2737 14.4198 10.2779C12.83 10.2818 11.24 10.2761 9.65016 10.28C9.50373 10.2802 9.3537 10.2588 9.22347 10.1882C8.97492 10.06 8.80082 9.79434 8.79182 9.51362C8.78508 8.95602 8.79362 8.39842 8.78845 7.84105C8.51606 7.69777 8.32959 7.39771 8.34939 7.08663C8.34691 6.56075 8.34669 6.03486 8.34984 5.50898C8.36153 5.11355 8.7122 4.76153 9.10853 4.75186C9.44457 4.74736 9.78084 4.75096 10.1171 4.74961C10.1191 4.542 10.1014 4.33192 10.1374 4.12633ZM10.9401 4.74916C11.6442 4.75029 12.3482 4.74961 13.0522 4.74961C13.0522 4.61061 13.0549 4.47183 13.0513 4.33282C12.348 4.33259 11.6446 4.33304 10.9413 4.33259C10.9372 4.47138 10.9401 4.61038 10.9401 4.74916ZM9.17263 5.57466C9.17173 6.0839 9.16971 6.59314 9.17353 7.10215C9.64071 7.1053 10.1079 7.10395 10.5751 7.10305C10.5886 6.81379 10.8441 6.5621 11.1349 6.56007C11.7044 6.5576 12.2742 6.5585 12.8437 6.55962C13.139 6.55557 13.4054 6.80862 13.4166 7.10395C13.8845 7.10328 14.3523 7.10418 14.8202 7.10305C14.8217 6.59359 14.8215 6.08412 14.8197 5.57466C12.9373 5.57331 11.0548 5.57263 9.17263 5.57466ZM11.397 7.38309C11.3961 7.47216 11.3963 7.56123 11.3965 7.65031C11.796 7.65053 12.1955 7.65098 12.5949 7.65031C12.5952 7.56123 12.5952 7.47216 12.5949 7.38309C12.1957 7.38174 11.7962 7.38219 11.397 7.38309ZM9.61394 7.92787C9.61439 8.43689 9.61192 8.94568 9.61417 9.45469C11.2022 9.45627 12.79 9.45582 14.378 9.45514C14.3798 8.94613 14.378 8.43711 14.3789 7.92832C14.0583 7.92675 13.7378 7.92877 13.4175 7.92742C13.4054 8.02279 13.3835 8.11974 13.3291 8.20093C13.2241 8.37323 13.023 8.47715 12.8226 8.47467C12.2591 8.4731 11.6957 8.47557 11.1324 8.47355C10.8427 8.46568 10.587 8.2187 10.5748 7.92787C10.2545 7.92787 9.93424 7.92787 9.61394 7.92787Z" fill="#4B4B4B"/>
<path opacity="0.5" d="M4.05189 4.43584C4.41425 4.32135 4.79551 4.28491 5.17316 4.26647C5.54092 4.24915 5.90936 4.2496 6.27734 4.24847C6.24855 4.74804 6.24855 5.24851 6.24855 5.74853C5.79239 5.75123 5.33466 5.74403 4.88053 5.79194C4.67 5.81848 4.44822 5.852 4.27277 5.98021C4.07011 6.12776 3.89534 6.33402 3.84315 6.58482C3.75206 6.99239 3.75903 7.41324 3.75071 7.82823C3.74643 12.3001 3.74981 16.7719 3.74913 21.2437C3.24934 21.2437 2.74955 21.2437 2.24975 21.2437C2.24885 16.8769 2.24953 12.5104 2.2493 8.14358C2.25245 7.66223 2.2502 7.17931 2.30373 6.70043C2.34985 6.29286 2.45331 5.88304 2.67284 5.53237C2.99224 5.02808 3.47697 4.61421 4.05189 4.43584Z" fill="#4B4B4B"/>
<path opacity="0.5" d="M17.7152 4.2487C18.2128 4.25073 18.7117 4.24668 19.2074 4.29414C19.626 4.33485 20.0491 4.42865 20.4144 4.64503C20.7855 4.86681 21.1018 5.17969 21.329 5.54745C21.5352 5.88304 21.6364 6.27195 21.6839 6.66017C21.7395 7.12173 21.7395 7.58756 21.7428 8.05181C21.7437 12.449 21.7431 16.8463 21.7433 21.2437C21.2433 21.2437 20.7435 21.2437 20.2437 21.2437C20.2435 16.8846 20.2439 12.5252 20.2437 8.16608C20.2403 7.74568 20.245 7.32417 20.2027 6.90535C20.1764 6.68379 20.1436 6.44941 20.0068 6.26542C19.9018 6.12394 19.7704 5.99821 19.6139 5.91588C19.4319 5.82816 19.2281 5.80432 19.0297 5.7834C18.6024 5.74584 18.1727 5.75056 17.744 5.74853C17.7436 5.24852 17.744 4.74805 17.7152 4.2487Z" fill="#4B4B4B"/>
<path opacity="0.5" d="M5.16439 7.32596C5.27798 7.26837 5.40619 7.24476 5.53305 7.24723C5.77148 7.24746 6.0099 7.24768 6.24833 7.24745C6.24833 7.74725 6.24855 8.24704 6.24833 8.74706C6.0252 8.74706 5.80184 8.74639 5.57871 8.74729C5.4541 8.75089 5.32634 8.74076 5.21095 8.69038C4.93969 8.58106 4.74872 8.30103 4.74872 8.00839C4.74062 7.72566 4.91022 7.44922 5.16439 7.32596Z" fill="#4B4B4B"/>
<path opacity="0.5" d="M17.744 7.24724C18.0144 7.24994 18.2852 7.24319 18.5556 7.25061C18.9368 7.27198 19.2583 7.62535 19.2439 8.00705C19.2481 8.38179 18.9299 8.72278 18.556 8.74437C18.2854 8.7509 18.0146 8.74482 17.744 8.74707C17.7438 8.24705 17.744 7.74726 17.744 7.24724Z" fill="#4B4B4B"/>
<path opacity="0.5" d="M4.88098 10.5708C5.01549 10.3726 5.24964 10.2478 5.48941 10.2469C5.74223 10.2458 5.99528 10.2462 6.24832 10.2471C6.24855 10.7467 6.24855 11.2463 6.24832 11.7458C5.99528 11.7458 5.74201 11.7465 5.48896 11.7456C5.23907 11.7463 4.99637 11.6086 4.86456 11.3972C4.70463 11.1509 4.71116 10.8103 4.88098 10.5708Z" fill="#4B4B4B"/>
<path opacity="0.5" d="M17.744 10.2469C18.0146 10.2483 18.2852 10.242 18.5556 10.2498C18.9344 10.271 19.2544 10.6201 19.2439 10.9991C19.2517 11.3763 18.9323 11.7222 18.5556 11.7431C18.2852 11.7501 18.0146 11.744 17.744 11.7458C17.7438 11.246 17.7438 10.7465 17.744 10.2469Z" fill="#4B4B4B"/>
<path opacity="0.5" d="M9.54625 11.5526C9.83506 11.5391 10.125 11.5492 10.414 11.547C10.7863 11.5477 11.1208 11.8666 11.1415 12.2377C11.177 12.5936 10.9197 12.9467 10.5717 13.0248C10.3866 13.0641 10.1958 13.0387 10.0083 13.0459C9.78333 13.0367 9.54445 13.0801 9.33392 12.9789C9.03768 12.8491 8.85122 12.5131 8.9016 12.193C8.94096 11.8668 9.21988 11.5902 9.54625 11.5526Z" fill="#4B4B4B"/>
<path opacity="0.5" d="M13.5057 11.5519C13.7797 11.5391 14.0543 11.5501 14.3287 11.5461C14.5449 11.5403 14.7615 11.6325 14.9054 11.7944C15.0941 11.9991 15.1508 12.3127 15.0462 12.5709C14.9419 12.8439 14.6654 13.0405 14.3726 13.0453C14.1175 13.0471 13.8627 13.0453 13.6076 13.0459C13.395 13.0498 13.184 12.9571 13.0426 12.799C12.857 12.5988 12.7987 12.294 12.8939 12.0389C12.9863 11.7794 13.2317 11.583 13.5057 11.5519Z" fill="#4B4B4B"/>
<path opacity="0.5" d="M4.75233 13.9209C4.78067 13.5516 5.11919 13.2414 5.48987 13.2461C5.74269 13.2445 5.99551 13.2461 6.24833 13.2457C6.24856 13.7457 6.24833 14.2455 6.24833 14.7455C6.0396 14.7448 5.83064 14.7448 5.6219 14.7453C5.48897 14.7477 5.35221 14.7471 5.2276 14.6951C4.91967 14.5813 4.71386 14.2475 4.75233 13.9209Z" fill="#4B4B4B"/>
<path opacity="0.5" d="M17.744 13.2457C17.9852 13.2454 18.2263 13.2457 18.4674 13.2454C18.5835 13.2443 18.7007 13.2639 18.8064 13.3136C19.1028 13.4441 19.2882 13.7821 19.2362 14.1026C19.1935 14.4468 18.8824 14.7327 18.5351 14.7437C18.2715 14.7475 18.0077 14.7432 17.744 14.7455C17.7438 14.2455 17.7438 13.7457 17.744 13.2457Z" fill="#4B4B4B"/>
<path opacity="0.5" d="M9.47833 14.5635C9.66794 14.5287 9.86228 14.5523 10.0539 14.5455C10.2575 14.5534 10.4705 14.5176 10.6648 14.5957C10.9267 14.6951 11.1205 14.9509 11.1408 15.2307C11.1687 15.5091 11.0229 15.7928 10.7836 15.936C10.6666 16.0078 10.5294 16.0454 10.3922 16.0449C10.1371 16.0447 9.88208 16.0458 9.62701 16.0445C9.41557 16.0418 9.20886 15.9419 9.07256 15.7804C8.88654 15.5669 8.84155 15.2446 8.96009 14.9877C9.05434 14.7759 9.25182 14.6137 9.47833 14.5635Z" fill="#4B4B4B"/>
<path opacity="0.5" d="M13.4159 14.5678C13.5523 14.5329 13.694 14.5487 13.8332 14.5455C14.0275 14.5476 14.2221 14.5408 14.4162 14.5489C14.7595 14.5727 15.0584 14.8638 15.0928 15.2059C15.1378 15.53 14.9403 15.8656 14.6373 15.9873C14.4623 16.0663 14.2666 16.0411 14.0806 16.0449C13.8935 16.0422 13.7061 16.0505 13.5192 16.0406C13.1647 16.0105 12.864 15.6951 12.8502 15.3398C12.8219 14.99 13.075 14.6472 13.4159 14.5678Z" fill="#4B4B4B"/>
</svg>
