<svg width="24" height="24" viewBox="0 0 24 24" fill="none" xmlns="http://www.w3.org/2000/svg">
<path d="M9.08726 1.28999C9.72313 1.24366 10.3613 1.25176 10.9983 1.24951C11.7482 1.24951 12.4981 1.24973 13.248 1.24951C13.8032 1.25198 14.359 1.24883 14.913 1.29067C15.3356 1.32396 15.7618 1.38626 16.1575 1.54462C16.4562 1.66293 16.7317 1.8413 16.9558 2.0723C17.1964 2.31522 17.3746 2.61573 17.4877 2.9376C17.6369 3.35822 17.6877 3.80583 17.7151 4.24895C17.7439 4.74829 17.7435 5.24876 17.7439 5.74878C17.7439 6.24835 17.7439 6.74791 17.7439 7.24748C17.7439 7.7475 17.7437 8.2473 17.7439 8.74731C17.7439 9.24711 17.7439 9.74713 17.7439 10.2471C17.7437 10.7467 17.7437 11.2462 17.7439 11.746C17.7439 12.2461 17.7439 12.7459 17.7439 13.2459C17.7437 13.7459 17.7437 14.2457 17.7439 14.7457C17.7441 16.9118 17.7437 19.0776 17.7441 21.2437C18.5773 21.2441 19.4104 21.2439 20.2436 21.2439C20.7434 21.2439 21.2432 21.2439 21.7432 21.2439C21.9308 21.2459 22.1294 21.2239 22.3037 21.3107C22.6224 21.4493 22.8091 21.8272 22.7232 22.1646C22.6663 22.4174 22.4677 22.6311 22.2205 22.708C22.0761 22.7568 21.922 22.7408 21.7726 22.7433C15.2121 22.7435 8.65157 22.7431 2.09104 22.7435C1.94214 22.7491 1.78851 22.7318 1.65535 22.6599C1.39826 22.5301 1.23159 22.2426 1.25048 21.9545C1.26173 21.6609 1.46394 21.3874 1.74038 21.2894C1.90255 21.2248 2.07957 21.248 2.24962 21.2439C2.74941 21.2439 3.24921 21.2439 3.749 21.2439C4.58192 21.2437 5.41506 21.2441 6.2482 21.2437C6.2482 19.0776 6.2482 16.9115 6.2482 14.7457C6.2482 14.2457 6.24842 13.7459 6.2482 13.2459C6.2482 12.7459 6.2482 12.2458 6.2482 11.746C6.24842 11.2465 6.24842 10.7469 6.2482 10.2473C6.2482 9.74735 6.2482 9.24733 6.2482 8.74731C6.24842 8.2473 6.2482 7.7475 6.2482 7.24771C6.2482 6.74791 6.24819 6.24835 6.24842 5.74878C6.24842 5.24876 6.24842 4.74829 6.27721 4.24872C6.30713 3.764 6.36538 3.27208 6.54983 2.81907C6.75294 2.30938 7.14521 1.87729 7.63759 1.63369C8.0861 1.40718 8.59129 1.32868 9.08726 1.28999ZM8.97074 2.80737C8.74424 2.83616 8.51279 2.8726 8.30653 2.97562C8.14098 3.05794 8.01142 3.20437 7.94237 3.37509C7.84227 3.62094 7.81191 3.88771 7.78739 4.14975C7.7478 4.63987 7.75005 5.13202 7.7478 5.62349C7.7478 10.8303 7.74735 16.0372 7.74803 21.2439C8.91406 21.2439 10.0801 21.2439 11.2464 21.2439C11.2473 20.4823 11.2446 19.7207 11.2475 18.9591C11.2554 18.5747 11.6029 18.2395 11.9873 18.2445C12.3789 18.2299 12.7386 18.5697 12.7449 18.9618C12.7473 19.7223 12.7451 20.483 12.746 21.2437C13.912 21.2439 15.0783 21.2439 16.2445 21.2437C16.2441 15.9471 16.2457 10.6502 16.2436 5.35357C16.2378 4.84231 16.2409 4.32812 16.166 3.82113C16.1256 3.57798 16.0691 3.31909 15.8959 3.13284C15.7402 2.96415 15.5117 2.89307 15.2931 2.84921C14.8122 2.75991 14.3209 2.76014 13.8335 2.75204C12.6862 2.74664 11.5388 2.74911 10.3914 2.75024C9.91747 2.75451 9.4422 2.75406 8.97074 2.80737Z" fill="#4B4B4B"/>
<path d="M10.1375 4.12636C10.2146 3.78649 10.5363 3.5159 10.8867 3.51028C11.5541 3.50781 12.2212 3.50916 12.8884 3.50916C13.0168 3.51298 13.1479 3.49858 13.2735 3.53345C13.5515 3.6052 13.7834 3.83575 13.852 4.11534C13.8931 4.32385 13.8722 4.53843 13.8754 4.74964C14.2067 4.75077 14.538 4.74784 14.8693 4.75144C15.2018 4.75662 15.512 4.99572 15.6073 5.31309C15.6417 5.42803 15.6465 5.54927 15.6456 5.66871C15.6411 6.10305 15.6474 6.53738 15.6435 6.97195C15.6417 7.09971 15.6503 7.23107 15.61 7.35478C15.5473 7.56441 15.3918 7.73783 15.2027 7.84355C15.2029 8.37034 15.2016 8.8969 15.2034 9.42368C15.2038 9.56876 15.1809 9.71722 15.1114 9.84655C14.9802 10.0998 14.7058 10.2737 14.4199 10.278C12.8301 10.2818 11.2401 10.2762 9.65031 10.28C9.50388 10.2802 9.35385 10.2588 9.22362 10.1882C8.97507 10.06 8.80097 9.79437 8.79198 9.51366C8.78523 8.95605 8.79377 8.39845 8.7886 7.84108C8.51621 7.6978 8.32975 7.39774 8.34954 7.08666C8.34706 6.56078 8.34684 6.03489 8.34999 5.50901C8.36168 5.11358 8.71235 4.76156 9.10868 4.75189C9.44472 4.74739 9.78099 4.75099 10.1172 4.74964C10.1193 4.54203 10.1015 4.33195 10.1375 4.12636ZM10.9403 4.74919C11.6443 4.75032 12.3483 4.74964 13.0523 4.74964C13.0523 4.61064 13.055 4.47186 13.0514 4.33285C12.3481 4.33262 11.6447 4.33307 10.9414 4.33262C10.9373 4.47141 10.9403 4.61041 10.9403 4.74919ZM9.17278 5.57469C9.17188 6.08393 9.16986 6.59317 9.17368 7.10218C9.64086 7.10533 10.108 7.10398 10.5752 7.10308C10.5887 6.81382 10.8442 6.56213 11.135 6.5601C11.7046 6.55763 12.2743 6.55853 12.8438 6.55965C13.1392 6.5556 13.4055 6.80865 13.4167 7.10398C13.8846 7.10331 14.3524 7.10421 14.8203 7.10308C14.8219 6.59362 14.8216 6.08415 14.8198 5.57469C12.9374 5.57334 11.055 5.57266 9.17278 5.57469ZM11.3971 7.38312C11.3962 7.47219 11.3964 7.56126 11.3966 7.65034C11.7961 7.65056 12.1956 7.65101 12.5951 7.65034C12.5953 7.56126 12.5953 7.47219 12.5951 7.38312C12.1958 7.38177 11.7963 7.38222 11.3971 7.38312ZM9.61409 7.9279C9.61454 8.43692 9.61207 8.94571 9.61432 9.45472C11.2023 9.4563 12.7901 9.45585 14.3781 9.45517C14.3799 8.94616 14.3781 8.43714 14.379 7.92835C14.0585 7.92678 13.7379 7.9288 13.4176 7.92745C13.4055 8.02282 13.3837 8.11977 13.3292 8.20097C13.2242 8.37326 13.0231 8.47718 12.8227 8.4747C12.2592 8.47313 11.6958 8.4756 11.1326 8.47358C10.8429 8.46571 10.5871 8.21873 10.575 7.9279C10.2547 7.9279 9.93439 7.9279 9.61409 7.9279Z" fill="#4B4B4B"/>
<path opacity="0.5" d="M4.05165 4.43591C4.41401 4.32142 4.79527 4.28498 5.17292 4.26654C5.54068 4.24922 5.90912 4.24967 6.2771 4.24854C6.24831 4.74811 6.24831 5.24858 6.24831 5.7486C5.79215 5.7513 5.33442 5.7441 4.88029 5.79201C4.66976 5.81855 4.44798 5.85207 4.27253 5.98028C4.06987 6.12783 3.8951 6.33408 3.84291 6.58489C3.75182 6.99246 3.75879 7.41331 3.75047 7.8283C3.74619 12.3002 3.74957 16.772 3.74889 21.2438C3.2491 21.2438 2.74931 21.2438 2.24951 21.2438C2.24861 16.877 2.24929 12.5105 2.24906 8.14365C2.25221 7.6623 2.24996 7.17938 2.30349 6.7005C2.34961 6.29293 2.45307 5.88311 2.6726 5.53244C2.992 5.02815 3.47673 4.61428 4.05165 4.43591Z" fill="#4B4B4B"/>
<path opacity="0.5" d="M17.7153 4.24902C18.2129 4.25104 18.7117 4.24699 19.2075 4.29445C19.6261 4.33517 20.0492 4.42896 20.4145 4.64534C20.7856 4.86712 21.1019 5.18 21.329 5.54776C21.5353 5.88336 21.6365 6.27226 21.684 6.66049C21.7395 7.12205 21.7395 7.58787 21.7429 8.05213C21.7438 12.4493 21.7431 16.8467 21.7434 21.244C21.2433 21.244 20.7435 21.244 20.2437 21.244C20.2435 16.8849 20.244 12.5255 20.2437 8.16639C20.2404 7.746 20.2451 7.32448 20.2028 6.90566C20.1765 6.68411 20.1437 6.44973 20.0069 6.26574C19.9019 6.12426 19.7705 5.99852 19.6139 5.9162C19.432 5.82847 19.2282 5.80463 19.0298 5.78371C18.6024 5.74615 18.1728 5.75087 17.7441 5.74885C17.7437 5.24883 17.7441 4.74836 17.7153 4.24902Z" fill="#4B4B4B"/>
<path opacity="0.5" d="M5.16448 7.32597C5.27807 7.26839 5.40628 7.24477 5.53314 7.24725C5.77157 7.24747 6.00999 7.24769 6.24842 7.24747C6.24842 7.74726 6.24864 8.24706 6.24842 8.74708C6.02529 8.74708 5.80193 8.7464 5.5788 8.7473C5.45419 8.7509 5.32643 8.74078 5.21104 8.69039C4.93978 8.58108 4.74881 8.30104 4.74881 8.00841C4.74071 7.72567 4.91031 7.44923 5.16448 7.32597Z" fill="#4B4B4B"/>
<path opacity="0.5" d="M17.7442 7.24732C18.0146 7.25001 18.2854 7.24327 18.5557 7.25069C18.937 7.27206 19.2584 7.62542 19.244 8.00713C19.2483 8.38186 18.93 8.72285 18.5562 8.74445C18.2856 8.75097 18.0148 8.7449 17.7442 8.74715C17.744 8.24713 17.7442 7.74733 17.7442 7.24732Z" fill="#4B4B4B"/>
<path opacity="0.5" d="M4.88104 10.5707C5.01555 10.3725 5.2497 10.2477 5.48947 10.2468C5.74229 10.2457 5.99534 10.2461 6.24839 10.247C6.24861 10.7466 6.24861 11.2461 6.24839 11.7457C5.99534 11.7457 5.74207 11.7464 5.48902 11.7455C5.23913 11.7462 4.99643 11.6085 4.86462 11.3971C4.70469 11.1508 4.71122 10.8102 4.88104 10.5707Z" fill="#4B4B4B"/>
<path opacity="0.5" d="M17.7439 10.2467C18.0145 10.2481 18.285 10.2418 18.5554 10.2496C18.9342 10.2708 19.2543 10.6199 19.2437 10.9989C19.2516 11.3761 18.9322 11.722 18.5554 11.7429C18.285 11.7499 18.0145 11.7438 17.7439 11.7456C17.7436 11.2458 17.7436 10.7463 17.7439 10.2467Z" fill="#4B4B4B"/>
<path opacity="0.5" d="M9.5464 11.5526C9.83521 11.5391 10.1251 11.5493 10.4142 11.547C10.7864 11.5477 11.1209 11.8666 11.1416 12.2378C11.1771 12.5936 10.9198 12.9468 10.5718 13.0248C10.3867 13.0642 10.196 13.0388 10.0084 13.046C9.78348 13.0367 9.5446 13.0801 9.33407 12.9789C9.03783 12.8491 8.85137 12.5131 8.90175 12.193C8.94111 11.8669 9.22003 11.5902 9.5464 11.5526Z" fill="#4B4B4B"/>
<path opacity="0.5" d="M13.5055 11.5519C13.7795 11.539 14.0541 11.5501 14.3286 11.546C14.5447 11.5402 14.7613 11.6324 14.9053 11.7943C15.094 11.999 15.1507 12.3126 15.0461 12.5708C14.9417 12.8439 14.6653 13.0404 14.3724 13.0452C14.1173 13.047 13.8625 13.0452 13.6074 13.0458C13.3949 13.0497 13.1839 12.957 13.0424 12.7989C12.8568 12.5987 12.7986 12.2939 12.8937 12.0388C12.9862 11.7793 13.2316 11.5829 13.5055 11.5519Z" fill="#4B4B4B"/>
<path opacity="0.5" d="M4.75217 13.9206C4.78052 13.5513 5.11904 13.2411 5.48972 13.2458C5.74254 13.2443 5.99536 13.2458 6.24818 13.2454C6.24841 13.7454 6.24818 14.2452 6.24818 14.7452C6.03945 14.7445 5.83049 14.7445 5.62175 14.745C5.48882 14.7475 5.35206 14.7468 5.22745 14.6948C4.91952 14.581 4.71371 14.2472 4.75217 13.9206Z" fill="#4B4B4B"/>
<path opacity="0.5" d="M17.7439 13.2454C17.985 13.2452 18.2261 13.2454 18.4672 13.2452C18.5833 13.2441 18.7005 13.2637 18.8062 13.3134C19.1027 13.4438 19.288 13.7819 19.236 14.1024C19.1933 14.4466 18.8822 14.7324 18.5349 14.7435C18.2713 14.7473 18.0075 14.743 17.7439 14.7453C17.7436 14.2452 17.7436 13.7455 17.7439 13.2454Z" fill="#4B4B4B"/>
<path opacity="0.5" d="M9.47833 14.5635C9.66794 14.5287 9.86228 14.5523 10.0539 14.5455C10.2575 14.5534 10.4705 14.5176 10.6648 14.5957C10.9267 14.6951 11.1205 14.9509 11.1408 15.2307C11.1687 15.5091 11.0229 15.7928 10.7836 15.936C10.6666 16.0078 10.5294 16.0454 10.3922 16.0449C10.1371 16.0447 9.88208 16.0458 9.62701 16.0445C9.41557 16.0418 9.20886 15.9419 9.07256 15.7804C8.88654 15.5669 8.84155 15.2446 8.96009 14.9877C9.05434 14.7759 9.25182 14.6137 9.47833 14.5635Z" fill="#4B4B4B"/>
<path opacity="0.5" d="M13.416 14.5681C13.5523 14.5332 13.694 14.549 13.8332 14.5458C14.0276 14.5478 14.2221 14.5411 14.4162 14.5492C14.7595 14.573 15.0584 14.8641 15.0928 15.2062C15.1378 15.5303 14.9403 15.8659 14.6374 15.9876C14.4624 16.0666 14.2667 16.0414 14.0807 16.0452C13.8935 16.0425 13.7061 16.0508 13.5192 16.0409C13.1647 16.0108 12.864 15.6954 12.8503 15.34C12.8219 14.9903 13.075 14.6475 13.416 14.5681Z" fill="#4B4B4B"/>
</svg>
