<svg width="24" height="24" viewBox="0 0 24 24" fill="none" xmlns="http://www.w3.org/2000/svg">
<g clip-path="url(#clip0_35570_39314)">
<mask id="mask0_35570_39314" style="mask-type:luminance" maskUnits="userSpaceOnUse" x="0" y="0" width="24" height="24">
<path d="M24 0H0V24H24V0Z" fill="white"/>
</mask>
<g mask="url(#mask0_35570_39314)">
<mask id="mask1_35570_39314" style="mask-type:luminance" maskUnits="userSpaceOnUse" x="0" y="0" width="24" height="24">
<path d="M24 0H0V24H24V0Z" fill="white"/>
</mask>
<g mask="url(#mask1_35570_39314)">
<path d="M6.15995 1.3335C7.26818 1.24668 8.3809 1.25365 9.49161 1.24915C10.9763 1.24915 12.4613 1.24915 13.9461 1.24915C15.0181 1.25162 16.0899 1.2424 17.1617 1.25905C17.6941 1.27029 18.2276 1.28941 18.7558 1.36206C19.2402 1.42932 19.7227 1.54988 20.1607 1.77279C21.0644 2.23299 21.813 2.99303 22.2561 3.90557C22.5521 4.52525 22.6502 5.21601 22.6965 5.89462C22.7496 6.72529 22.7404 7.5582 22.7435 8.38999C22.7537 8.57376 22.7224 8.76563 22.614 8.91835C22.4419 9.17905 22.0975 9.30748 21.797 9.22088C21.494 9.14351 21.2601 8.85807 21.2453 8.54542C21.2376 7.66909 21.2558 6.79097 21.1947 5.91599C21.1567 5.45399 21.1024 4.98118 20.9052 4.55629C20.5993 3.93144 20.0837 3.41185 19.462 3.09987C19.0963 2.92173 18.6885 2.85807 18.2874 2.81646C17.6597 2.75663 17.0281 2.75505 16.398 2.75033C13.8786 2.74763 11.3592 2.74741 8.83976 2.75056C8.20298 2.7537 7.56598 2.7591 6.92988 2.78767C6.38623 2.81331 5.84167 2.85312 5.30634 2.95367C4.93453 3.02497 4.56452 3.12776 4.22983 3.30816C3.91335 3.4773 3.63849 3.72315 3.43605 4.01961C3.23946 4.30639 3.1144 4.63614 3.02825 4.97129C2.91399 5.42002 2.86023 5.88135 2.82334 6.34223C2.75519 7.25545 2.75474 8.17204 2.75001 9.08728C2.74956 10.1404 2.74619 11.1938 2.75316 12.2469C2.75834 12.7467 2.76711 13.2469 2.80602 13.7451C2.84538 14.1963 2.89779 14.6554 3.07166 15.0776C3.20325 15.3993 3.44325 15.6764 3.74983 15.8419C4.09037 16.0262 4.47725 16.0979 4.85716 16.1483C5.5063 16.2277 6.16152 16.234 6.81449 16.2419C8.5469 16.2484 10.2793 16.2421 12.0117 16.2452C12.3221 16.2457 12.6154 16.4625 12.7094 16.7578C12.7483 16.8714 12.7537 16.9936 12.742 17.1121C12.6986 17.3517 12.5414 17.5701 12.3183 17.6724C12.202 17.7295 12.0713 17.7487 11.9426 17.7446C11.7107 17.7435 11.479 17.7442 11.2471 17.7439C9.96441 17.7442 8.68186 17.7439 7.39909 17.7439C6.82889 17.7428 6.25869 17.7401 5.68872 17.7163C5.20017 17.6945 4.7105 17.6585 4.22938 17.5669C3.79909 17.4848 3.37442 17.353 2.99204 17.1364C2.3971 16.8028 1.92812 16.2581 1.67552 15.6256C1.35522 14.8351 1.31001 13.9712 1.26795 13.1297C1.24096 12.9903 1.26998 12.8495 1.25985 12.7093C1.24658 11.9891 1.25041 11.2689 1.24951 10.5489C1.25063 9.63408 1.24613 8.71929 1.26143 7.80473C1.28145 6.88386 1.31001 5.95783 1.47624 5.04956C1.57768 4.50748 1.73805 3.97102 2.0055 3.4863C2.37236 2.81489 2.9511 2.26313 3.63759 1.92596C4.42057 1.53908 5.29824 1.40615 6.15995 1.3335Z" fill="#4B4B4B"/>
<path d="M17.491 12.1902C17.9132 12.1174 18.3648 12.251 18.6772 12.5447C18.8129 12.6669 18.9082 12.8241 19.0135 12.9714C19.171 13.1968 19.3289 13.4219 19.4863 13.6475C19.6735 13.9154 19.7603 14.2508 19.7277 14.5758C19.6935 14.9445 19.5061 15.2963 19.2168 15.5277C18.9406 15.7538 18.5753 15.8674 18.2195 15.8354C17.8866 15.8087 17.5654 15.6575 17.3333 15.4173C17.2276 15.3102 17.1486 15.1816 17.0613 15.0599C16.8897 14.8122 16.7141 14.5671 16.5445 14.3178C16.2673 13.8929 16.2561 13.3165 16.5096 12.8778C16.7123 12.5173 17.0832 12.2586 17.491 12.1902ZM17.6394 13.3902C17.5659 13.4244 17.5186 13.5067 17.5274 13.5875C17.5303 13.6437 17.5665 13.6896 17.5976 13.7339C17.7899 14.007 17.9802 14.2816 18.1725 14.5547C18.2312 14.6451 18.3659 14.6685 18.4516 14.6035C18.5407 14.5428 18.5619 14.4076 18.495 14.323C18.294 14.0358 18.0931 13.7483 17.892 13.4611C17.8403 13.379 17.7262 13.3464 17.6394 13.3902Z" fill="#4B4B4B"/>
<path d="M15.3045 10.3097C15.9343 9.84232 16.6932 9.55037 17.4746 9.47951C18.2923 9.40281 19.1303 9.56499 19.86 9.94152C20.4813 10.2596 21.0211 10.7333 21.4206 11.3053C22.0499 12.2059 22.682 13.1047 23.3093 14.0067C23.5687 14.3947 23.7648 14.825 23.8863 15.2757C23.9348 15.442 23.9576 15.614 24.0001 15.7816V17.0399C23.965 17.1382 23.9558 17.2425 23.9319 17.3438C23.8046 17.9171 23.5601 18.4646 23.2153 18.9403C22.7398 19.5993 22.0733 20.118 21.3194 20.4208C20.5762 20.7213 19.7482 20.8052 18.9594 20.6653C18.1919 20.5317 17.4629 20.1862 16.875 19.6749C16.5635 19.4073 16.2976 19.0901 16.0693 18.7493C15.5232 17.9686 14.977 17.1879 14.4304 16.4074C14.2307 16.1316 14.051 15.8399 13.9156 15.5268C13.4432 14.4662 13.4318 13.2152 13.8755 12.1432C14.1718 11.4162 14.6725 10.7751 15.3045 10.3097ZM16.1633 11.1789C16.2335 11.1568 16.3025 11.1278 16.3768 11.1238C16.5862 11.1026 16.8028 11.202 16.9218 11.3759C17.1114 11.6472 17.3028 11.9175 17.4906 12.1902C17.0828 12.2585 16.7119 12.5172 16.5092 12.8778C16.3196 12.607 16.1298 12.3364 15.9406 12.0653C15.8417 11.9263 15.8077 11.7446 15.8488 11.5793C15.8761 11.4571 15.9492 11.3525 16.036 11.2648C15.5009 11.6436 15.1016 12.2059 14.9014 12.829C14.6527 13.5942 14.7139 14.4552 15.0755 15.1748C15.215 15.4645 15.4165 15.7168 15.5967 15.9814C16.1156 16.7227 16.6343 17.4643 17.1532 18.2057C17.4593 18.6418 17.8788 18.9977 18.3604 19.226C19.1508 19.6072 20.1034 19.6333 20.912 19.2912C21.6075 19.0015 22.193 18.4542 22.5196 17.7745C22.9249 16.9521 22.9413 15.9501 22.5583 15.1167C22.4168 14.7903 22.1952 14.5099 21.9953 14.2188C21.4701 13.4687 20.9453 12.7181 20.4199 11.9679C19.9927 11.3651 19.3436 10.9256 18.6256 10.7517C17.7943 10.5453 16.8718 10.6928 16.1633 11.1789Z" fill="#4B4B4B"/>
<path opacity="0.5" d="M2.75293 12.2469C5.50135 12.2458 8.24976 12.2467 10.9982 12.2465C11.2067 12.2447 11.4129 12.3373 11.5522 12.4923C11.7659 12.7215 11.8084 13.0886 11.6521 13.3603C11.5214 13.6014 11.2501 13.7548 10.9761 13.7461C8.25269 13.7454 5.52924 13.747 2.80579 13.7452C2.76688 13.247 2.7581 12.7467 2.75293 12.2469Z" fill="#4B4B4B"/>
<path opacity="0.5" d="M12.318 17.6724C12.5412 17.57 12.6984 17.3516 12.7418 17.1121C12.7519 18.4889 12.7425 19.8661 12.7463 21.2431C13.8138 21.244 14.8811 21.2438 15.9486 21.2434C16.1398 21.2337 16.3339 21.2956 16.4797 21.4206C16.7087 21.61 16.8036 21.942 16.7084 22.2238C16.6149 22.5282 16.3096 22.7493 15.9911 22.743C13.3226 22.743 10.6538 22.7436 7.98521 22.7425C7.62825 22.7445 7.30097 22.456 7.25554 22.1026C7.202 21.7767 7.39342 21.4321 7.6982 21.3054C7.80886 21.2553 7.93123 21.2391 8.05156 21.2434C9.1166 21.2436 10.1814 21.244 11.2465 21.2431C11.2467 20.0767 11.2458 18.9104 11.2469 17.7439C11.4788 17.7441 11.7105 17.7435 11.9424 17.7446C12.0711 17.7486 12.2017 17.7295 12.318 17.6724Z" fill="#4B4B4B"/>
</g>
</g>
</g>
<defs>
<clipPath id="clip0_35570_39314">
<rect width="24" height="24" fill="white"/>
</clipPath>
</defs>
</svg>
