<svg width="24" height="24" viewBox="0 0 24 24" fill="none" xmlns="http://www.w3.org/2000/svg">
<path opacity="0.5" d="M6.18592 1.45167C6.98632 1.31757 7.79902 1.28577 8.60872 1.26447C9.98872 1.23987 11.369 1.25397 12.749 1.25007C13.3493 1.25007 13.9493 1.25007 14.5496 1.25007C14.8901 1.25247 15.2333 1.23597 15.5711 1.29237C16.562 1.43907 17.4779 2.00847 18.0563 2.82537C18.3908 3.29547 18.6179 3.84387 18.704 4.41507C18.185 4.32207 17.6573 4.28937 17.1311 4.27107C16.9124 3.63867 16.4042 3.11337 15.773 2.88717C15.5072 2.78877 15.2231 2.74497 14.9402 2.75127C12.9305 2.75637 10.9205 2.74197 8.91052 2.76057C8.06812 2.77857 7.22092 2.79747 6.38842 2.94027C5.78152 3.04647 5.15542 3.24447 4.71202 3.69357C4.28932 4.10007 4.08172 4.67188 3.96952 5.23497C3.80452 6.07857 3.78322 6.94167 3.76252 7.79847C3.74092 9.12867 3.75322 10.4589 3.74992 11.7891C3.75022 13.1991 3.74932 14.6094 3.75022 16.0194C3.75292 16.5078 3.92152 16.9935 4.22242 17.3784C4.48792 17.7219 4.85512 17.985 5.26552 18.1272C5.25982 17.9925 5.25892 17.8581 5.26012 17.7234C5.27962 18.3831 5.29582 19.0464 5.41342 19.6977C4.49122 19.5735 3.63772 19.0557 3.06082 18.3303C2.53552 17.6727 2.24332 16.833 2.24962 15.9912C2.25172 13.4808 2.24662 10.9707 2.25232 8.46027C2.26042 7.63497 2.27362 6.80847 2.34832 5.98617C2.41612 5.28057 2.53132 4.57047 2.80192 3.91167C3.10102 3.16887 3.63682 2.52177 4.32052 2.10237C4.88572 1.75197 5.53462 1.56237 6.18592 1.45167Z" fill="#4B4B4B"/>
<path opacity="0.5" d="M9.37279 11.2658C9.45709 11.2523 9.54259 11.255 9.62779 11.2547C12.269 11.2562 14.9105 11.2535 17.5517 11.2562C17.9387 11.258 18.2786 11.6141 18.2654 12.0005C18.2795 12.3989 17.9177 12.7601 17.519 12.7451C14.8397 12.7448 12.1601 12.7463 9.48049 12.7445C9.09289 12.743 8.75239 12.3875 8.76499 12.0008C8.75389 11.6507 9.02929 11.3243 9.37279 11.2658Z" fill="#4B4B4B"/>
<path opacity="0.5" d="M9.39431 14.3778C9.81221 14.3595 10.2313 14.3751 10.6498 14.37C11.6098 14.3703 12.5698 14.3697 13.5295 14.3703C13.9234 14.3688 14.2708 14.7264 14.26 15.12C14.2714 15.513 13.9243 15.8706 13.5307 15.8697C12.1906 15.8706 10.8505 15.8694 9.51071 15.8703C9.29891 15.873 9.08981 15.7779 8.95001 15.6198C8.77841 15.4323 8.71571 15.1536 8.78891 14.9103C8.86571 14.6358 9.11201 14.4189 9.39431 14.3778Z" fill="#4B4B4B"/>
<path opacity="0.5" d="M15.8768 14.3809C15.9737 14.3647 16.0724 14.3704 16.1705 14.3701C16.6205 14.3704 17.0705 14.3698 17.5208 14.3701C17.7899 14.3692 18.0488 14.5303 18.1733 14.7679C18.3206 15.0349 18.2783 15.3889 18.0743 15.6151C17.9369 15.7726 17.7311 15.8692 17.5214 15.8704C17.0213 15.8701 16.5209 15.8698 16.0205 15.8704C15.7721 15.877 15.5267 15.7474 15.3887 15.5416C15.263 15.3586 15.2273 15.1192 15.29 14.9068C15.3665 14.6398 15.6029 14.4277 15.8768 14.3809Z" fill="#4B4B4B"/>
<path d="M8.9388 4.32864C9.6675 4.25994 10.3998 4.25574 11.1309 4.25064C12.3708 4.25034 13.6104 4.25064 14.85 4.25064C15.6105 4.25124 16.371 4.24554 17.1312 4.27104C17.6574 4.28934 18.1851 4.32204 18.7041 4.41504C19.1508 4.49634 19.5936 4.62594 19.9911 4.84914C20.4987 5.13144 20.9205 5.56464 21.1893 6.07944C21.4458 6.56754 21.5697 7.11294 21.6399 7.65624C21.7263 8.35074 21.7383 9.05154 21.7467 9.75024C21.753 12.1799 21.7503 14.6099 21.7482 17.0396C21.7431 17.7104 21.7347 18.3824 21.6723 19.0508C21.6195 19.5959 21.5265 20.1437 21.3153 20.6519C21.1563 21.0347 20.9244 21.3884 20.6253 21.6764C20.2638 22.0355 19.8048 22.2857 19.3203 22.4357C18.7368 22.6172 18.1245 22.6766 17.5173 22.7117C16.7583 22.7513 15.9981 22.7492 15.2385 22.7492C14.2488 22.7492 13.2591 22.7492 12.2694 22.7492C11.4999 22.7483 10.7298 22.7549 9.9606 22.7318C9.4176 22.7138 8.8731 22.6838 8.337 22.592C7.8546 22.508 7.3749 22.3679 6.951 22.1177C6.4884 21.8462 6.1002 21.4484 5.8419 20.978C5.6217 20.582 5.4948 20.1413 5.4135 19.6976C5.2959 19.0463 5.2797 18.383 5.2602 17.7233C5.253 17.3756 5.2518 17.0276 5.25 16.6799C5.25 14.5496 5.25 12.419 5.25 10.2884C5.2545 9.54354 5.2557 8.79744 5.3181 8.05434C5.3643 7.52694 5.4435 6.99684 5.6262 6.49764C5.7837 6.06414 6.0294 5.66004 6.36 5.33754C6.6807 5.01534 7.0794 4.77744 7.5054 4.62324C7.9659 4.45584 8.4528 4.37604 8.9388 4.32864ZM9.5568 5.78604C9.1695 5.80884 8.781 5.84094 8.4012 5.92344C8.1459 5.98014 7.8921 6.06084 7.6698 6.20094C7.4448 6.34104 7.2606 6.54354 7.1385 6.77844C6.996 7.05024 6.9258 7.35264 6.8757 7.65324C6.7908 8.19744 6.7725 8.74914 6.7602 9.29904C6.7446 10.1591 6.7518 11.0195 6.75 11.8796C6.7512 13.6094 6.7473 15.3392 6.7521 17.0693C6.7617 17.8208 6.7611 18.5765 6.8721 19.3217C6.9438 19.775 7.0686 20.2529 7.4043 20.5865C7.7469 20.9366 8.2434 21.0617 8.712 21.1331C9.513 21.2465 10.3239 21.2402 11.1309 21.2492C12.711 21.2495 14.2911 21.2495 15.8712 21.2492C16.662 21.2408 17.4567 21.2456 18.2421 21.14C18.7125 21.0707 19.2114 20.9558 19.5654 20.6162C19.9107 20.2928 20.0466 19.817 20.1213 19.3646C20.2404 18.5954 20.2383 17.8148 20.2479 17.0387C20.2512 14.6588 20.2518 12.2789 20.2476 9.89904C20.2368 9.12894 20.2389 8.35374 20.1135 7.59174C20.0379 7.14714 19.8954 6.68214 19.5507 6.37014C19.1655 6.01284 18.6258 5.91024 18.1224 5.84394C17.3751 5.75604 16.6215 5.75784 15.8703 5.75064C14.9304 5.75004 13.9905 5.75064 13.0509 5.75064C11.886 5.75694 10.7205 5.73084 9.5568 5.78604Z" fill="#4B4B4B"/>
</svg>
