<svg width="24" height="24" viewBox="0 0 24 24" fill="none" xmlns="http://www.w3.org/2000/svg">
<path opacity="0.5" d="M6.18601 1.45167C6.98641 1.31757 7.79911 1.28577 8.60881 1.26447C9.98881 1.23987 11.3691 1.25397 12.7491 1.25007C13.3494 1.25007 13.9494 1.25007 14.5497 1.25007C14.8902 1.25247 15.2334 1.23597 15.5712 1.29237C16.5621 1.43907 17.478 2.00847 18.0564 2.82537C18.3909 3.29547 18.618 3.84387 18.7041 4.41507C18.1851 4.32207 17.6574 4.28937 17.1312 4.27107C16.9125 3.63867 16.4043 3.11337 15.7731 2.88717C15.5073 2.78877 15.2232 2.74497 14.9403 2.75127C12.9306 2.75637 10.9206 2.74197 8.91061 2.76057C8.06821 2.77857 7.22101 2.79747 6.38851 2.94027C5.78161 3.04647 5.15551 3.24447 4.71211 3.69357C4.28941 4.10007 4.08181 4.67188 3.96961 5.23498C3.80461 6.07858 3.78331 6.94168 3.76261 7.79848C3.74101 9.12868 3.75331 10.4589 3.75001 11.7891C3.75031 13.1991 3.74941 14.6094 3.75031 16.0194C3.75301 16.5078 3.92161 16.9935 4.22251 17.3784C4.48801 17.7219 4.85521 17.985 5.26561 18.1272C5.25991 17.9925 5.25901 17.8581 5.26021 17.7234C5.27971 18.3831 5.29591 19.0464 5.41351 19.6977C4.49131 19.5735 3.63781 19.0557 3.06091 18.3303C2.53561 17.6727 2.24341 16.833 2.24971 15.9912C2.25181 13.4808 2.24671 10.9707 2.25241 8.46028C2.26051 7.63498 2.27371 6.80848 2.34841 5.98617C2.41621 5.28057 2.53141 4.57047 2.80201 3.91167C3.10111 3.16887 3.63691 2.52177 4.32061 2.10237C4.88581 1.75197 5.53471 1.56237 6.18601 1.45167Z" fill="#4B4B4B"/>
<path opacity="0.5" d="M9.3726 11.2656C9.4569 11.2521 9.5424 11.2548 9.6276 11.2545C12.2688 11.256 14.9103 11.2533 17.5515 11.256C17.9385 11.2578 18.2784 11.6139 18.2652 12.0003C18.2793 12.3987 17.9175 12.7599 17.5188 12.7449C14.8395 12.7446 12.1599 12.7461 9.4803 12.7443C9.0927 12.7428 8.7522 12.3873 8.7648 12.0006C8.7537 11.6505 9.0291 11.3241 9.3726 11.2656Z" fill="#4B4B4B"/>
<path opacity="0.5" d="M9.39452 14.3778C9.81242 14.3595 10.2315 14.3751 10.65 14.37C11.61 14.3703 12.57 14.3697 13.5297 14.3703C13.9236 14.3688 14.271 14.7264 14.2602 15.12C14.2716 15.513 13.9245 15.8706 13.5309 15.8697C12.1908 15.8706 10.8507 15.8694 9.51092 15.8703C9.29912 15.873 9.09002 15.7779 8.95022 15.6198C8.77862 15.4323 8.71592 15.1536 8.78912 14.9103C8.86592 14.6358 9.11222 14.4189 9.39452 14.3778Z" fill="#4B4B4B"/>
<path opacity="0.5" d="M15.8766 14.3808C15.9735 14.3646 16.0722 14.3703 16.1703 14.37C16.6203 14.3703 17.0703 14.3697 17.5206 14.37C17.7897 14.3691 18.0486 14.5302 18.1731 14.7678C18.3204 15.0348 18.2781 15.3888 18.0741 15.615C17.9367 15.7725 17.7309 15.8691 17.5212 15.8703C17.0211 15.87 16.5207 15.8697 16.0203 15.8703C15.7719 15.8769 15.5265 15.7473 15.3885 15.5415C15.2628 15.3585 15.2271 15.1191 15.2898 14.9067C15.3663 14.6397 15.6027 14.4276 15.8766 14.3808Z" fill="#4B4B4B"/>
<path d="M8.9388 4.3287C9.6675 4.26 10.3998 4.2558 11.1309 4.2507C12.3708 4.2504 13.6104 4.2507 14.85 4.2507C15.6105 4.2513 16.371 4.2456 17.1312 4.2711C17.6574 4.2894 18.1851 4.3221 18.7041 4.4151C19.1508 4.4964 19.5936 4.626 19.9911 4.8492C20.4987 5.1315 20.9205 5.5647 21.1893 6.0795C21.4458 6.5676 21.5697 7.113 21.6399 7.6563C21.7263 8.3508 21.7383 9.0516 21.7467 9.7503C21.753 12.18 21.7503 14.61 21.7482 17.0397C21.7431 17.7105 21.7347 18.3825 21.6723 19.0509C21.6195 19.596 21.5265 20.1438 21.3153 20.652C21.1563 21.0348 20.9244 21.3885 20.6253 21.6765C20.2638 22.0356 19.8048 22.2858 19.3203 22.4358C18.7368 22.6173 18.1245 22.6767 17.5173 22.7118C16.7583 22.7514 15.9981 22.7493 15.2385 22.7493C14.2488 22.7493 13.2591 22.7493 12.2694 22.7493C11.4999 22.7484 10.7298 22.755 9.9606 22.7319C9.4176 22.7139 8.8731 22.6839 8.337 22.5921C7.8546 22.5081 7.3749 22.368 6.951 22.1178C6.4884 21.8463 6.1002 21.4485 5.8419 20.9781C5.6217 20.5821 5.4948 20.1414 5.4135 19.6977C5.2959 19.0464 5.2797 18.3831 5.2602 17.7234C5.253 17.3757 5.2518 17.0277 5.25 16.68C5.25 14.5497 5.25 12.4191 5.25 10.2885C5.2545 9.5436 5.2557 8.7975 5.3181 8.0544C5.3643 7.527 5.4435 6.9969 5.6262 6.4977C5.7837 6.0642 6.0294 5.6601 6.36 5.3376C6.6807 5.0154 7.0794 4.7775 7.5054 4.6233C7.9659 4.4559 8.4528 4.3761 8.9388 4.3287ZM9.5568 5.7861C9.1695 5.8089 8.781 5.841 8.4012 5.9235C8.1459 5.9802 7.8921 6.0609 7.6698 6.201C7.4448 6.3411 7.2606 6.5436 7.1385 6.7785C6.996 7.0503 6.9258 7.3527 6.8757 7.6533C6.7908 8.1975 6.7725 8.7492 6.7602 9.2991C6.7446 10.1592 6.7518 11.0196 6.75 11.8797C6.7512 13.6095 6.7473 15.3393 6.7521 17.0694C6.7617 17.8209 6.7611 18.5766 6.8721 19.3218C6.9438 19.7751 7.0686 20.253 7.4043 20.5866C7.7469 20.9367 8.2434 21.0618 8.712 21.1332C9.513 21.2466 10.3239 21.2403 11.1309 21.2493C12.711 21.2496 14.2911 21.2496 15.8712 21.2493C16.662 21.2409 17.4567 21.2457 18.2421 21.1401C18.7125 21.0708 19.2114 20.9559 19.5654 20.6163C19.9107 20.2929 20.0466 19.8171 20.1213 19.3647C20.2404 18.5955 20.2383 17.8149 20.2479 17.0388C20.2512 14.6589 20.2518 12.279 20.2476 9.8991C20.2368 9.129 20.2389 8.3538 20.1135 7.5918C20.0379 7.1472 19.8954 6.6822 19.5507 6.3702C19.1655 6.0129 18.6258 5.9103 18.1224 5.844C17.3751 5.7561 16.6215 5.7579 15.8703 5.7507C14.9304 5.7501 13.9905 5.7507 13.0509 5.7507C11.886 5.757 10.7205 5.7309 9.5568 5.7861Z" fill="#4B4B4B"/>
</svg>
