<svg width="24" height="24" viewBox="0 0 24 24" fill="none" xmlns="http://www.w3.org/2000/svg">
<path d="M9.0649 1.28233C10.3466 1.25534 11.6284 1.26884 12.9101 1.26434C14.0966 1.26816 15.2842 1.26906 16.4687 1.34531C17.3639 1.40829 18.2657 1.51086 19.1226 1.78978C19.8966 2.0408 20.6292 2.46232 21.1747 3.073C21.6353 3.58561 21.9088 4.23476 22.1079 4.88661C22.3544 5.72065 22.4788 6.58528 22.567 7.44878C22.7028 8.87529 22.7289 10.3094 22.7391 11.7413C22.7348 11.9262 22.7638 12.1208 22.6846 12.2949C22.5616 12.6051 22.215 12.8109 21.8832 12.7522C21.6288 12.7157 21.3958 12.5432 21.2997 12.3028C21.2251 12.1179 21.2417 11.9145 21.2399 11.7195C21.2282 10.356 21.2066 8.99023 21.0779 7.63165C21.0075 6.92155 20.9115 6.21122 20.7284 5.52046C20.6198 5.11896 20.4853 4.71948 20.2691 4.36185C20.1015 4.07416 19.8496 3.84473 19.5774 3.65759C19.2297 3.41759 18.8334 3.25834 18.4283 3.14543C18.0002 3.02711 17.5605 2.95716 17.1196 2.9088C16.0215 2.78576 14.9151 2.77609 13.8111 2.76799C12.6037 2.76305 11.3963 2.76057 10.1887 2.76709C9.18389 2.77564 8.17755 2.78621 7.17594 2.87641C6.35495 2.95694 5.51528 3.07502 4.76852 3.44683C4.12814 3.76488 3.61778 4.32203 3.33999 4.97928C2.98752 5.81737 2.89328 6.73328 2.8276 7.63188C2.73178 9.15015 2.75495 10.6723 2.74887 12.1926C2.7527 13.3988 2.74258 14.6058 2.79611 15.8114C2.8177 16.2849 2.84424 16.7588 2.90363 17.2294C2.97133 17.7719 3.06625 18.3154 3.25564 18.83C3.42704 19.2967 3.68886 19.7389 4.06066 20.0741C4.36342 20.3226 4.7341 20.4688 5.10344 20.5872C5.81174 20.8119 6.54906 20.9268 7.28436 21.0195C8.76349 21.1886 10.2534 21.2325 11.7411 21.2498C11.9719 21.248 12.2256 21.2419 12.4218 21.3839C12.7092 21.5755 12.8278 21.9777 12.6874 22.2941C12.6062 22.484 12.4458 22.6403 12.2499 22.7085C12.1239 22.7557 11.987 22.7539 11.8547 22.751C10.3609 22.7341 8.86494 22.6952 7.3786 22.5377C6.67727 22.4613 5.97729 22.36 5.2908 22.1947C4.64841 22.0377 4.00736 21.8315 3.44413 21.4774C3.1578 21.3011 2.9088 21.0699 2.69242 20.8137C2.21826 20.2624 1.89752 19.5927 1.70138 18.8957C1.44653 17.996 1.36151 17.0591 1.30977 16.1286C1.24747 14.8924 1.25129 13.6539 1.24927 12.4166C1.25714 10.8277 1.2288 9.2372 1.32439 7.65032C1.39165 6.61227 1.50726 5.55982 1.88312 4.58228C2.21939 3.68931 2.8339 2.89868 3.63397 2.37504C4.3488 1.90179 5.18621 1.65279 6.0252 1.51221C7.02929 1.34486 8.04912 1.3082 9.0649 1.28233Z" fill="#4B4B4B"/>
<path d="M22.4095 15.759C22.192 15.5472 21.8976 15.4354 21.6027 15.3848C21.3365 15.3366 21.0657 15.3286 20.7961 15.3207L20.7781 15.3202M22.4095 15.759L21.746 22.533C21.746 22.533 21.746 22.533 21.746 22.533L21.8597 22.8797C21.7265 22.9234 21.5917 22.9504 21.4635 22.9681M22.4095 15.759C22.6151 15.9507 22.7418 16.2136 22.8025 16.4856L22.4095 15.759ZM20.7781 15.3202L20.7742 15.4551M20.7781 15.3202L20.7762 15.4551M20.7781 15.3202L16.8191 16.2334L16.7225 16.1374M20.7742 15.4551C20.5661 15.4502 20.3605 15.4508 20.163 15.4514C20.0379 15.4518 19.9161 15.4522 19.7989 15.4511L19.7989 15.4511L19.7907 15.4511C19.5717 15.4528 19.3468 15.452 19.1187 15.4512C19.0444 15.4509 18.9699 15.4507 18.8951 15.4505M20.7742 15.4551L20.7634 15.82C20.7647 15.82 20.7659 15.8201 20.7672 15.8201M20.7742 15.4551C20.7748 15.4551 20.7755 15.4551 20.7762 15.4551M18.8951 15.4505L18.8943 15.3159L18.8939 15.4505M18.8951 15.4505L18.8971 15.8159C18.8963 15.8159 18.8956 15.8159 18.8949 15.8159M18.8951 15.4505C18.8947 15.4505 18.8943 15.4505 18.8939 15.4505M18.8939 15.4505C18.5037 15.4496 18.1069 15.4509 17.717 15.4664L17.717 15.4663L17.7091 15.4667C17.6194 15.4717 17.5241 15.4784 17.4258 15.4894M18.8939 15.4505L18.8927 15.8159C18.8934 15.8159 18.8942 15.8159 18.8949 15.8159M17.4258 15.4894L17.4116 15.3551L17.4254 15.4894M17.4258 15.4894L17.4641 15.8523C17.4639 15.8523 17.4637 15.8523 17.4634 15.8524M17.4258 15.4894C17.4257 15.4894 17.4255 15.4894 17.4254 15.4894M17.4254 15.4894C17.3791 15.4946 17.3321 15.5008 17.2847 15.5081L17.2842 15.5082C17.097 15.5376 16.7993 15.5983 16.5504 15.8024C16.5498 15.8029 16.5492 15.8033 16.5487 15.8038C16.5191 15.8282 16.4902 15.8545 16.4623 15.8831M17.4254 15.4894L17.4627 15.8524C17.4629 15.8524 17.4632 15.8524 17.4634 15.8524M16.4623 15.8831C16.2689 16.079 16.1792 16.3196 16.1326 16.5215C16.1326 16.5216 16.1326 16.5217 16.1326 16.5217C16.109 16.6239 16.0966 16.7161 16.0873 16.7875L16.0873 16.7875L16.0865 16.7942C16.0482 17.1245 16.0451 17.4606 16.044 17.7684M16.4623 15.8831C16.4617 15.8838 16.461 15.8845 16.4604 15.8851L16.7214 16.1386C16.7218 16.1382 16.7221 16.1378 16.7225 16.1374M16.4623 15.8831C16.463 15.8825 16.4637 15.8818 16.4643 15.8811L16.7225 16.1374M16.044 17.7684L15.9084 17.7686L16.044 17.7703M16.044 17.7684L16.4084 17.7681C16.4084 17.7693 16.4084 17.7704 16.4084 17.7715C16.4084 17.7726 16.4084 17.7738 16.4083 17.7749L16.044 17.7703M16.044 17.7684C16.044 17.7691 16.044 17.7697 16.044 17.7703M16.044 17.7703C16.0439 17.7881 16.0439 17.8058 16.0438 17.8233C16.0436 17.8958 16.0434 17.9665 16.0427 18.035L16.0427 18.035L16.0427 18.0418C16.0441 18.4152 16.0437 18.7889 16.0432 19.1641L16.0432 19.1814C16.0427 19.5504 16.0423 19.9208 16.0436 20.2914L16.0436 20.2937C16.0443 20.3804 16.0442 20.4705 16.044 20.5632C16.0439 20.675 16.0437 20.7906 16.045 20.9085M16.045 20.9085L15.9102 20.9138L16.0451 20.9132M16.045 20.9085L16.4098 20.8942C16.4099 20.8971 16.41 20.9001 16.4101 20.903C16.4102 20.9059 16.4102 20.9087 16.4102 20.9116L16.0451 20.9132M16.045 20.9085C16.045 20.91 16.045 20.9116 16.0451 20.9132M16.0451 20.9132C16.0482 21.1846 16.0592 21.4683 16.0963 21.747L16.0963 21.747L16.0967 21.7501C16.1004 21.7765 16.1048 21.805 16.11 21.8351C16.11 21.8353 16.1101 21.8354 16.1101 21.8356C16.1374 21.9921 16.1894 22.1938 16.3039 22.3819C16.304 22.3821 16.3041 22.3824 16.3043 22.3826C16.3746 22.4981 16.4685 22.6084 16.5946 22.7001L16.5964 22.7014C16.6688 22.7536 16.7447 22.7958 16.8215 22.8302M16.8215 22.8302L16.7674 22.9561L16.8223 22.8306M16.8215 22.8302L16.9649 22.4968C16.9654 22.497 16.9659 22.4972 16.9664 22.4974C16.9669 22.4976 16.9674 22.4978 16.9678 22.4981L16.8223 22.8306M16.8215 22.8302C16.8218 22.8303 16.8221 22.8305 16.8223 22.8306M16.8223 22.8306C17.0918 22.951 17.3724 22.9747 17.5518 22.9899C17.5698 22.9914 17.5867 22.9929 17.6025 22.9943L17.6099 22.995L17.6173 22.9954C17.7433 23.0031 17.8703 23.0082 17.9973 23.0114M17.9973 23.0114L17.9953 23.1471L17.9997 23.0115M17.9973 23.0114L18.0028 22.6471C18.0042 22.6472 18.0057 22.6472 18.0072 22.6472C18.0086 22.6472 18.0101 22.6473 18.0116 22.6473L17.9997 23.0115M17.9973 23.0114C17.9981 23.0114 17.9989 23.0115 17.9997 23.0115M17.9997 23.0115C18.2628 23.0182 18.526 23.0173 18.7804 23.0164C18.9336 23.0159 19.0836 23.0154 19.2284 23.0166L19.2284 23.0166L19.2356 23.0166C19.423 23.0154 19.6153 23.016 19.8103 23.0165C19.8643 23.0167 19.9186 23.0168 19.973 23.017M19.973 23.017L19.9738 23.1518L19.9743 23.017M19.973 23.017L19.9709 22.6518C19.9717 22.6518 19.9725 22.6518 19.9733 22.6518C19.9741 22.6518 19.9749 22.6518 19.9756 22.6518L19.9743 23.017M19.973 23.017C19.9734 23.017 19.9738 23.017 19.9743 23.017M19.9743 23.017C20.323 23.0178 20.6782 23.017 21.0273 23.0048L21.0273 23.005L21.0387 23.0043C21.0459 23.0039 21.0532 23.0035 21.0606 23.003C21.1779 22.9963 21.3162 22.9883 21.4632 22.9681M21.4632 22.9681L21.4801 23.1025L21.4635 22.9681M21.4632 22.9681L21.4176 22.6065C21.4178 22.6064 21.4179 22.6064 21.4181 22.6064C21.4183 22.6064 21.4185 22.6064 21.4187 22.6063L21.4635 22.9681M21.4632 22.9681C21.4633 22.9681 21.4634 22.9681 21.4635 22.9681M22.762 19.9052C22.762 19.9055 22.762 19.9058 22.762 19.9061L22.397 19.905L22.762 19.9052ZM22.762 19.9052L22.397 19.9017C22.397 19.9022 22.397 19.9028 22.397 19.9034L22.762 19.9052ZM20.7672 15.8201C20.9756 15.8262 21.1595 15.8317 21.3331 15.8509C21.334 15.851 21.3349 15.8511 21.3358 15.8512C21.3961 15.8578 21.4552 15.8662 21.5137 15.8768L21.5137 15.8768L21.5181 15.8775C21.7549 15.9182 21.9408 16.0005 22.0606 16.1172L22.0606 16.1173L22.0686 16.1248C22.0771 16.1327 22.0854 16.1409 22.0935 16.1494C22.0939 16.1497 22.0942 16.1501 22.0945 16.1504C22.196 16.2567 22.2733 16.4101 22.3145 16.5945L22.3145 16.5946C22.3399 16.7083 22.3568 16.824 22.3683 16.9437C22.3684 16.9448 22.3685 16.9459 22.3686 16.947C22.3888 17.1601 22.3919 17.386 22.3954 17.6366C22.3956 17.6522 22.3958 17.668 22.3961 17.6839C22.3961 17.6849 22.3961 17.686 22.3961 17.687L22.7611 17.6818C22.7611 17.6813 22.7611 17.6807 22.7611 17.6802C22.7593 17.4282 22.7526 17.1704 22.7317 16.9171L22.7319 16.9171L22.7306 16.9048C22.7296 16.896 22.7286 16.8867 22.7276 16.8771C22.7178 16.7834 22.7044 16.6554 22.6711 16.5149C22.6711 16.5149 22.6711 16.5149 22.6711 16.5149C22.6237 16.3151 22.5363 16.09 22.3618 15.9022L22.3619 15.9022L22.3582 15.8983C22.3449 15.8843 22.3313 15.8707 22.3176 15.8577C22.3169 15.857 22.3161 15.8563 22.3154 15.8556C22.0862 15.6393 21.8003 15.5564 21.5799 15.5176C21.5795 15.5175 21.5791 15.5175 21.5787 15.5174C21.5022 15.504 21.4337 15.4959 21.3783 15.4894L21.3783 15.4893L21.3683 15.4883C21.1719 15.4693 20.973 15.4597 20.7762 15.4551M20.7672 15.8201C20.7685 15.8201 20.7697 15.8201 20.771 15.8201L20.7762 15.4551M20.7672 15.8201C20.4421 15.8155 20.1199 15.8151 19.7957 15.8155C19.795 15.8155 19.7942 15.8155 19.7935 15.8155C19.721 15.8156 19.6483 15.8157 19.5756 15.8158C19.3507 15.8163 19.1243 15.8167 18.8949 15.8159M16.7225 16.1374C16.7401 16.1196 16.7583 16.103 16.7772 16.0878L16.7773 16.0879L16.7837 16.0825C16.9143 15.9738 17.101 15.9055 17.3407 15.8683C17.3407 15.8683 17.3407 15.8683 17.3408 15.8683C17.3802 15.8621 17.4211 15.8568 17.4634 15.8524M17.4634 15.8524C17.5521 15.8433 17.6406 15.8364 17.7294 15.8313C17.7301 15.8313 17.7308 15.8312 17.7315 15.8312C18.0047 15.8155 18.2808 15.8158 18.5734 15.8162C18.6782 15.8164 18.7852 15.8165 18.8949 15.8159M22.1919 22.1895L22.5049 22.3758C22.5052 22.3753 22.5056 22.3747 22.5059 22.3742C22.5062 22.3737 22.5065 22.3731 22.5068 22.3726L22.1924 22.1886C22.1923 22.1889 22.1921 22.1892 22.1919 22.1895ZM22.3612 21.5915C22.3611 21.5919 22.3611 21.5923 22.3611 21.5926L22.7237 21.628C22.7237 21.6278 22.7237 21.6276 22.7237 21.6274L22.3613 21.5905C22.3613 21.5909 22.3612 21.5912 22.3612 21.5915Z" fill="#4B4B4B" stroke="#4B4B4B"/>
<path opacity="0.5" d="M7.17593 2.8764C8.17754 2.7862 9.18388 2.77563 10.1886 2.76708C11.3963 2.76056 12.6037 2.76304 13.8111 2.76798C14.9151 2.77608 16.0215 2.78575 17.1196 2.90879C17.5605 2.95715 18.0002 3.0271 18.4283 3.14542C18.8334 3.25833 19.2297 3.41758 19.5774 3.65758C19.8496 3.84472 20.1015 4.07415 20.2691 4.36184C20.4852 4.71947 20.6198 5.11895 20.7284 5.52045C20.9115 6.21121 21.0075 6.92154 21.0779 7.63164C14.9945 7.63321 8.91104 7.63299 2.82759 7.63186C2.89327 6.73327 2.98752 5.81736 3.33998 4.97927C3.61777 4.32202 4.12813 3.76487 4.76851 3.44682C5.51528 3.07501 6.35494 2.95692 7.17593 2.8764Z" fill="#4B4B4B"/>
<path opacity="0.5" d="M5.34051 10.9653C5.37425 10.9581 5.40912 10.9559 5.44376 10.955C8.97493 10.9545 12.5063 10.9554 16.0377 10.9545C16.2973 10.9491 16.5434 11.1457 16.594 11.4006C16.6205 11.5652 16.6045 11.7328 16.6063 11.8988C16.6102 12.1973 16.3349 12.4627 16.0375 12.4537C12.5659 12.4537 9.09437 12.4537 5.6228 12.4537C5.51101 12.4523 5.3963 12.4629 5.28811 12.4292C5.0679 12.3637 4.89808 12.1545 4.88751 11.924C4.88346 11.7798 4.88391 11.6354 4.88706 11.4912C4.89448 11.2388 5.09467 11.0137 5.34051 10.9653Z" fill="#4B4B4B"/>
<path d="M16.2818 14.1339C16.7876 14.0487 17.3023 14.0507 17.8135 14.0453C18.556 14.0435 19.2983 14.0462 20.0408 14.0448C20.4841 14.0408 20.9212 14.2392 21.2172 14.568C21.4196 14.795 21.5663 15.0811 21.6027 15.3847C21.3305 15.3355 21.0536 15.3283 20.7781 15.3202C20.8321 15.3206 20.8861 15.3204 20.9405 15.3204C20.8139 14.9551 20.4524 14.6839 20.0633 14.6812C19.1937 14.6827 18.3244 14.6764 17.4548 14.6848C17.0699 14.6931 16.6819 14.701 16.3031 14.7774C16.0566 14.828 15.8083 14.9281 15.6391 15.1216C15.4527 15.3296 15.3798 15.6101 15.3398 15.88C15.2743 16.3344 15.2786 16.7951 15.273 17.253C15.2716 18.2728 15.2732 19.2929 15.273 20.313C15.2743 20.7019 15.5431 21.0676 15.91 21.1931C15.9079 21.1 15.9088 21.0069 15.9102 20.9137C15.9226 21.2295 15.9185 21.5478 15.977 21.86C15.6065 21.809 15.2631 21.6103 15.0201 21.3281C14.7774 21.0485 14.6393 20.6809 14.6366 20.3109C14.6393 19.1865 14.6324 18.0621 14.6398 16.9377C14.6499 16.4408 14.6553 15.9369 14.7777 15.4522C14.8622 15.113 15.0368 14.7909 15.3035 14.5608C15.5753 14.3199 15.9286 14.1944 16.2818 14.1339Z" fill="#4B4B4B"/>
<path opacity="0.5" d="M5.363 14.6787C5.69658 14.6634 6.0315 14.6762 6.36552 14.6719C8.53271 14.6719 10.6999 14.6722 12.8671 14.6719C12.9551 14.6724 13.0455 14.6659 13.131 14.6911C13.3217 14.7435 13.4823 14.9002 13.5313 15.0928C13.5662 15.2482 13.545 15.4084 13.5509 15.566C13.559 15.7293 13.4967 15.896 13.3782 16.0098C13.2729 16.1133 13.126 16.1715 12.9787 16.1706C10.5497 16.1706 8.12042 16.1706 5.6914 16.1706C5.57106 16.1664 5.4487 16.1817 5.32994 16.1574C5.13987 16.1146 4.97568 15.9687 4.91517 15.7826C4.87423 15.6621 4.88818 15.533 4.88593 15.4081C4.8857 15.275 4.87603 15.1348 4.93406 15.0111C5.00897 14.8375 5.17654 14.7088 5.363 14.6787Z" fill="#4B4B4B"/>
<rect opacity="0.3" x="16.9033" y="16.3423" width="5" height="5.78323" rx="1" fill="#4B4B4B"/>
</svg>
