<svg width="24" height="24" viewBox="0 0 24 24" fill="none" xmlns="http://www.w3.org/2000/svg">
<path d="M9.06514 1.28216C10.3468 1.25517 11.6286 1.26866 12.9103 1.26416C14.0968 1.26799 15.2844 1.26889 16.4689 1.34514C17.3641 1.40812 18.2659 1.51069 19.1228 1.7896C19.8968 2.04062 20.6294 2.46214 21.1749 3.07282C21.6355 3.58544 21.909 4.23459 22.1081 4.88643C22.3546 5.72047 22.479 6.5851 22.5672 7.44861C22.703 8.87511 22.7291 10.3092 22.7393 11.7411C22.735 11.926 22.764 12.1206 22.6848 12.2947C22.5618 12.6049 22.2152 12.8107 21.8834 12.752C21.629 12.7155 21.396 12.543 21.2999 12.3026C21.2253 12.1177 21.2419 11.9143 21.2401 11.7193C21.2284 10.3558 21.2068 8.99005 21.0781 7.63147C21.0077 6.92137 20.9117 6.21104 20.7286 5.52028C20.62 5.11878 20.4855 4.71931 20.2693 4.36167C20.1017 4.07399 19.8498 3.84456 19.5776 3.65742C19.2299 3.41742 18.8336 3.25817 18.4285 3.14525C18.0004 3.02694 17.5607 2.95698 17.1198 2.90862C16.0217 2.78559 14.9153 2.77592 13.8113 2.76782C12.6039 2.76287 11.3965 2.7604 10.1889 2.76692C9.18413 2.77547 8.17779 2.78604 7.17618 2.87623C6.35519 2.95676 5.51552 3.07485 4.76876 3.44666C4.12838 3.76471 3.61802 4.32186 3.34023 4.9791C2.98776 5.81719 2.89352 6.7331 2.82784 7.6317C2.73202 9.14997 2.75519 10.6721 2.74911 12.1924C2.75294 13.3987 2.74282 14.6056 2.79635 15.8112C2.81794 16.2847 2.84448 16.7587 2.90387 17.2292C2.97157 17.7717 3.06649 18.3152 3.25588 18.8298C3.42728 19.2965 3.6891 19.7387 4.0609 20.0739C4.36366 20.3224 4.73434 20.4686 5.10368 20.587C5.81198 20.8117 6.5493 20.9266 7.2846 21.0193C8.76373 21.1884 10.2536 21.2323 11.7413 21.2496C11.9721 21.2478 12.2258 21.2417 12.422 21.3837C12.7094 21.5753 12.828 21.9775 12.6876 22.2939C12.6064 22.4838 12.446 22.6401 12.2501 22.7083C12.1241 22.7555 11.9872 22.7537 11.8549 22.7508C10.3611 22.7339 8.86518 22.695 7.37884 22.5375C6.67751 22.4611 5.97753 22.3599 5.29104 22.1945C4.64865 22.0375 4.0076 21.8313 3.44437 21.4772C3.15804 21.3009 2.90904 21.0697 2.69266 20.8135C2.2185 20.2622 1.89776 19.5925 1.70162 18.8955C1.44677 17.9958 1.36175 17.0589 1.31001 16.1284C1.24771 14.8922 1.25153 13.6537 1.24951 12.4164C1.25738 10.8275 1.22904 9.23702 1.32463 7.65014C1.39189 6.61209 1.5075 5.55965 1.88336 4.5821C2.21963 3.68913 2.83414 2.8985 3.63421 2.37487C4.34904 1.90161 5.18645 1.65262 6.02544 1.51204C7.02953 1.34469 8.04936 1.30802 9.06514 1.28216Z" fill="#4B4B4B"/>
<path d="M22.4093 15.759C22.1918 15.5471 21.8974 15.4354 21.6025 15.3847C21.3362 15.3366 21.0655 15.3286 20.7959 15.3207L20.7779 15.3202M22.4093 15.759L21.7458 22.533L21.8595 22.8797C21.7262 22.9234 21.5914 22.9504 21.4632 22.9681M22.4093 15.759C22.6149 15.9507 22.7415 16.2136 22.8023 16.4856L22.4093 15.759ZM20.7779 15.3202L20.7739 15.4551M20.7779 15.3202L20.776 15.4551M20.7779 15.3202L16.8189 16.2334L16.7223 16.1374M21.4632 22.9681C21.3161 22.9883 21.1776 22.9963 21.0604 23.003C21.053 23.0034 21.0457 23.0039 21.0384 23.0043L21.027 23.0048C20.678 23.017 20.3227 23.0178 19.974 23.017M21.4632 22.9681L21.4174 22.6065M21.4632 22.9681L21.4184 22.6063C21.4183 22.6063 21.4176 22.6065 21.4174 22.6065M21.4632 22.9681C21.4631 22.9681 21.4633 22.9681 21.4632 22.9681ZM21.4632 22.9681L21.4799 23.1025M20.7739 15.4551C20.5658 15.4502 20.3602 15.4508 20.1627 15.4514C20.0377 15.4518 19.9158 15.4522 19.7987 15.4511H19.7905C19.5715 15.4528 19.3465 15.452 19.1184 15.4512C19.0442 15.4509 18.9696 15.4507 18.8948 15.4505M20.7739 15.4551L20.7632 15.82C20.7645 15.82 20.7657 15.82 20.767 15.8201M20.7739 15.4551C20.7746 15.4551 20.7753 15.4551 20.776 15.4551M20.776 15.4551C20.9727 15.4597 21.1717 15.4692 21.3681 15.4883L21.378 15.4894C21.4335 15.4959 21.502 15.504 21.5785 15.5174C21.5789 15.5175 21.5793 15.5175 21.5797 15.5176C21.8001 15.5564 22.086 15.6393 22.3152 15.8556C22.3159 15.8563 22.3166 15.857 22.3173 15.8577C22.3311 15.8707 22.3447 15.8843 22.358 15.8983L22.3616 15.9022C22.536 16.09 22.6236 16.3151 22.6709 16.5149C22.7041 16.6554 22.7176 16.7833 22.7274 16.8771C22.7284 16.8867 22.7294 16.896 22.7303 16.9048L22.7315 16.9171C22.7524 17.1704 22.759 17.4282 22.7609 17.6802C22.7609 17.6807 22.7609 17.6813 22.7609 17.6818L22.3959 17.687C22.3959 17.686 22.3958 17.6849 22.3958 17.6839C22.3956 17.668 22.3954 17.6522 22.3952 17.6365C22.3917 17.386 22.3886 17.1601 22.3684 16.947C22.3683 16.9459 22.3682 16.9448 22.3681 16.9437C22.3566 16.824 22.3397 16.7082 22.3143 16.5945C22.2731 16.4101 22.1958 16.2567 22.0943 16.1504C22.094 16.1501 22.0936 16.1497 22.0933 16.1494C22.0851 16.1409 22.0768 16.1327 22.0684 16.1248L22.0604 16.1172C21.9406 16.0005 21.7546 15.9182 21.5179 15.8775L21.5134 15.8768C21.455 15.8662 21.3959 15.8578 21.3356 15.8511C21.3347 15.851 21.3338 15.8509 21.3329 15.8508C21.1592 15.8317 20.9754 15.8262 20.767 15.8201M20.776 15.4551L20.7707 15.8201C20.7695 15.8201 20.7682 15.8201 20.767 15.8201M16.7223 16.1374C16.7219 16.1378 16.7215 16.1382 16.7212 16.1385L16.4601 15.8851C16.4608 15.8845 16.4614 15.8838 16.4621 15.8831M16.7223 16.1374L16.4641 15.8811C16.4634 15.8818 16.4628 15.8824 16.4621 15.8831M16.7223 16.1374C16.7398 16.1196 16.7581 16.103 16.777 16.0878L16.7835 16.0825C16.9141 15.9738 17.1008 15.9055 17.3404 15.8683M18.8948 15.4505L18.8941 15.3159L18.8937 15.4505M18.8948 15.4505L18.8968 15.8159C18.8961 15.8159 18.8954 15.8159 18.8946 15.8159M18.8948 15.4505C18.8944 15.4505 18.8941 15.4505 18.8937 15.4505M20.767 15.8201C20.4418 15.8155 20.1196 15.8151 19.7955 15.8155C19.7947 15.8155 19.794 15.8155 19.7932 15.8155C19.7207 15.8156 19.6481 15.8157 19.5753 15.8158C19.3504 15.8162 19.1241 15.8167 18.8946 15.8159M18.8937 15.4505C18.5035 15.4496 18.1067 15.4509 17.7168 15.4664L17.7089 15.4667C17.6192 15.4717 17.5239 15.4784 17.4256 15.4894M18.8937 15.4505L18.8925 15.8159C18.8932 15.8159 18.8939 15.8159 18.8946 15.8159M18.8946 15.8159C18.7849 15.8165 18.678 15.8164 18.5732 15.8162C18.2805 15.8158 18.0045 15.8154 17.7313 15.8312C17.7305 15.8312 17.7298 15.8312 17.7291 15.8313C17.6403 15.8364 17.5526 15.8432 17.4639 15.8523M17.4256 15.4894L17.4639 15.8523M17.4256 15.4894C17.4254 15.4894 17.4257 15.4894 17.4256 15.4894ZM17.4256 15.4894C17.3792 15.4946 17.3318 15.5008 17.2845 15.5081C17.0974 15.5375 16.799 15.5983 16.5502 15.8024C16.5496 15.8029 16.549 15.8033 16.5484 15.8038C16.5189 15.8282 16.49 15.8545 16.4621 15.8831M17.4256 15.4894L17.4625 15.8524C17.4627 15.8524 17.4637 15.8523 17.4639 15.8523M17.4256 15.4894L17.4114 15.3551M17.4639 15.8523C17.4637 15.8523 17.4641 15.8522 17.4639 15.8523ZM17.4639 15.8523C17.4216 15.8567 17.3798 15.8622 17.3404 15.8683M16.4621 15.8831C16.2687 16.0789 16.1789 16.3196 16.1324 16.5215M16.1324 16.5215C16.1324 16.5216 16.1325 16.5215 16.1324 16.5215ZM16.1324 16.5215C16.1089 16.6237 16.0963 16.7161 16.0871 16.7875L16.0863 16.7942C16.048 17.1245 16.0449 17.4606 16.0438 17.7684M16.0438 17.7684L15.9082 17.7686L16.0438 17.7703M16.0438 17.7684L16.4082 17.7681C16.4082 17.7692 16.4082 17.7704 16.4082 17.7715C16.4081 17.7726 16.4081 17.7738 16.4081 17.7749L16.0438 17.7703M16.0438 17.7684C16.0438 17.769 16.0438 17.7697 16.0438 17.7703M16.0438 17.7703C16.0437 17.7881 16.0436 17.8057 16.0436 17.8233C16.0434 17.8958 16.0431 17.9665 16.0425 18.035V18.0418C16.0439 18.4152 16.0435 18.7889 16.043 19.1641V19.1814C16.0425 19.5504 16.042 19.9208 16.0434 20.2914V20.2937C16.0441 20.3804 16.044 20.4705 16.0438 20.5632C16.0436 20.675 16.0435 20.7906 16.0448 20.9085M16.0448 20.9085L15.91 20.9137L16.0448 20.9132M16.0448 20.9085L16.4096 20.8942C16.4097 20.8971 16.4098 20.9 16.4099 20.903C16.4099 20.9058 16.4099 20.9087 16.41 20.9116L16.0448 20.9132M16.0448 20.9085C16.0448 20.91 16.0448 20.9116 16.0448 20.9132M16.0448 20.9085V20.9132M16.0448 20.9132C16.0479 21.1846 16.059 21.4683 16.0961 21.747L16.0965 21.7501C16.1002 21.7765 16.1045 21.805 16.1098 21.8351M16.1098 21.8351C16.1097 21.8349 16.1098 21.8353 16.1098 21.8351ZM16.1098 21.8351C16.1371 21.9916 16.1892 22.1938 16.3036 22.3819M16.3036 22.3819C16.3034 22.3817 16.3038 22.3821 16.3036 22.3819ZM16.3036 22.3819C16.3739 22.4974 16.4683 22.6084 16.5943 22.7001L16.5961 22.7014C16.6685 22.7536 16.7445 22.7958 16.8213 22.8302M16.8213 22.8302L16.9647 22.4968C16.9652 22.497 16.9657 22.4972 16.9662 22.4974C16.9667 22.4976 16.9671 22.4978 16.9676 22.498L16.8213 22.8302ZM16.8213 22.8302C16.821 22.83 16.8216 22.8303 16.8213 22.8302ZM16.8213 22.8302C17.0908 22.9506 17.3721 22.9747 17.5516 22.9899C17.5696 22.9914 17.5865 22.9929 17.6023 22.9943L17.6097 22.995L17.6171 22.9954C17.743 23.0031 17.87 23.0081 17.9971 23.0114M16.8213 22.8302L16.7672 22.9561M17.9971 23.0114L17.9951 23.1471L17.9995 23.0115M17.9971 23.0114L18.0026 22.6471C18.004 22.6471 18.0055 22.6472 18.0069 22.6472C18.0084 22.6472 18.0099 22.6473 18.0114 22.6473L17.9995 23.0115M17.9971 23.0114C17.9979 23.0114 17.9987 23.0114 17.9995 23.0115M17.9995 23.0115C18.2625 23.0182 18.5258 23.0173 18.7801 23.0164C18.9333 23.0159 19.0833 23.0154 19.2281 23.0166H19.2354C19.4227 23.0154 19.615 23.0159 19.8101 23.0165C19.8641 23.0167 19.9183 23.0168 19.9727 23.017M19.9727 23.017L19.9735 23.1518L19.974 23.017M19.9727 23.017L19.9706 22.6518C19.9714 22.6518 19.9722 22.6518 19.9731 22.6518C19.9738 22.6518 19.9746 22.6518 19.9754 22.6518L19.974 23.017M19.9727 23.017C19.9732 23.017 19.9736 23.017 19.974 23.017M21.4174 22.6065C21.4172 22.6065 21.4176 22.6064 21.4174 22.6065ZM22.7617 19.9052C22.7617 19.9049 22.7617 19.9055 22.7617 19.9052ZM22.7617 19.9052L22.3967 19.9016C22.3967 19.9022 22.3967 19.9028 22.3967 19.9033L22.7617 19.9052ZM22.7617 19.9052L22.3967 19.905M17.3404 15.8683C17.3403 15.8684 17.3405 15.8683 17.3404 15.8683ZM22.7234 21.628L22.3608 21.5926C22.3609 21.5923 22.3609 21.5919 22.361 21.5915C22.361 21.5912 22.361 21.5908 22.3611 21.5905L22.7234 21.628ZM22.7234 21.628C22.7234 21.6278 22.7234 21.6282 22.7234 21.628ZM22.1917 22.1895L22.5047 22.3758C22.505 22.3753 22.5053 22.3747 22.5056 22.3742C22.506 22.3737 22.5063 22.3731 22.5066 22.3725L22.1922 22.1886C22.192 22.1889 22.1919 22.1892 22.1917 22.1895Z" stroke="#4B4B4B"/>
<path opacity="0.5" d="M7.17598 2.87644C8.17759 2.78624 9.18393 2.77567 10.1887 2.76713C11.3963 2.7606 12.6038 2.76308 13.8112 2.76802C14.9151 2.77612 16.0216 2.78579 17.1197 2.90883C17.5605 2.95719 18.0003 3.02714 18.4283 3.14546C18.8334 3.25837 19.2297 3.41762 19.5775 3.65762C19.8496 3.84476 20.1016 4.07419 20.2691 4.36188C20.4853 4.71952 20.6198 5.11899 20.7284 5.52049C20.9115 6.21125 21.0076 6.92158 21.078 7.63168C14.9945 7.63325 8.91109 7.63303 2.82764 7.6319C2.89332 6.73331 2.98756 5.8174 3.34003 4.97931C3.61782 4.32206 4.12818 3.76491 4.76856 3.44686C5.51532 3.07505 6.35498 2.95697 7.17598 2.87644Z" fill="#4B4B4B"/>
<path opacity="0.5" d="M5.34069 10.9655C5.37443 10.9583 5.4093 10.9561 5.44394 10.9552C8.97511 10.9547 12.5065 10.9556 16.0379 10.9547C16.2974 10.9493 16.5435 11.1459 16.5941 11.4008C16.6207 11.5654 16.6047 11.733 16.6065 11.899C16.6103 12.1975 16.335 12.4629 16.0376 12.4539C12.5661 12.4539 9.09455 12.4539 5.62298 12.4539C5.51119 12.4525 5.39648 12.4631 5.28829 12.4294C5.06808 12.3639 4.89826 12.1547 4.88769 11.9242C4.88364 11.78 4.88409 11.6356 4.88724 11.4914C4.89466 11.239 5.09485 11.0139 5.34069 10.9655Z" fill="#4B4B4B"/>
<path d="M16.2818 14.1337C16.7876 14.0484 17.3023 14.0505 17.8135 14.0451C18.556 14.0433 19.2983 14.046 20.0408 14.0446C20.4841 14.0406 20.9212 14.2389 21.2172 14.5678C21.4196 14.7947 21.5663 15.0809 21.6027 15.3845C21.3305 15.3353 21.0536 15.3281 20.7781 15.32C20.8321 15.3204 20.8861 15.3202 20.9405 15.3202C20.8139 14.9549 20.4524 14.6836 20.0633 14.6809C19.1937 14.6825 18.3244 14.6762 17.4548 14.6845C17.0699 14.6929 16.6819 14.7007 16.3031 14.7772C16.0566 14.8278 15.8083 14.9279 15.6391 15.1213C15.4527 15.3294 15.3798 15.6099 15.3398 15.8798C15.2743 16.3342 15.2786 16.7948 15.273 17.2528C15.2716 18.2726 15.2732 19.2927 15.273 20.3127C15.2743 20.7016 15.5431 21.0674 15.91 21.1929C15.9079 21.0998 15.9088 21.0066 15.9102 20.9135C15.9226 21.2293 15.9185 21.5476 15.977 21.8598C15.6065 21.8087 15.2631 21.6101 15.0201 21.3278C14.7774 21.0482 14.6393 20.6807 14.6366 20.3107C14.6393 19.1863 14.6324 18.0619 14.6398 16.9374C14.6499 16.4406 14.6553 15.9367 14.7777 15.452C14.8622 15.1128 15.0368 14.7907 15.3035 14.5606C15.5753 14.3197 15.9286 14.1942 16.2818 14.1337Z" fill="#4B4B4B"/>
<path opacity="0.5" d="M5.36306 14.6787C5.69663 14.6634 6.03155 14.6762 6.36558 14.672C8.53277 14.672 10.7 14.6722 12.8671 14.672C12.9551 14.6724 13.0455 14.6659 13.131 14.6911C13.3217 14.7435 13.4823 14.9003 13.5314 15.0928C13.5662 15.2482 13.5451 15.4084 13.5509 15.5661C13.559 15.7294 13.4967 15.896 13.3782 16.0098C13.2729 16.1133 13.126 16.1716 12.9787 16.1707C10.5497 16.1707 8.12048 16.1707 5.69146 16.1707C5.57112 16.1664 5.44876 16.1817 5.33 16.1574C5.13993 16.1147 4.97573 15.9687 4.91523 15.7827C4.87429 15.6621 4.88824 15.533 4.88599 15.4082C4.88576 15.275 4.87609 15.1349 4.93412 15.0112C5.00902 14.8375 5.1766 14.7089 5.36306 14.6787Z" fill="#4B4B4B"/>
<path opacity="0.3" d="M20.9033 16.3423H17.9033C17.351 16.3423 16.9033 16.79 16.9033 17.3423V21.1255C16.9033 21.6778 17.351 22.1255 17.9033 22.1255H20.9033C21.4556 22.1255 21.9033 21.6778 21.9033 21.1255V17.3423C21.9033 16.79 21.4556 16.3423 20.9033 16.3423Z" fill="#4B4B4B"/>
</svg>
