<svg width="24" height="24" viewBox="0 0 24 24" fill="none" xmlns="http://www.w3.org/2000/svg">
<path d="M9.03679 1.27104C10.5347 1.24344 12.0332 1.24914 13.5314 1.25424C14.969 1.26684 16.4144 1.26594 17.8394 1.47774C18.5639 1.59174 19.2866 1.77414 19.9403 2.11464C20.8409 2.57124 21.572 3.34524 21.9878 4.26414C22.2071 4.73574 22.3499 5.23914 22.4522 5.74794C22.6139 6.57264 22.673 7.41324 22.7084 8.25174C22.7654 9.78084 22.7489 11.3108 22.7531 12.8405C22.7411 14.3312 22.7573 15.8267 22.5962 17.3111C22.4822 18.3086 22.2692 19.3217 21.7487 20.1929C21.2408 21.0551 20.4305 21.725 19.5017 22.091C18.3971 22.5293 17.1977 22.6325 16.0217 22.6964C15.1322 22.7387 14.2415 22.748 13.3511 22.7492C12.4808 22.7543 11.6108 22.7555 10.7405 22.7489C9.98149 22.7498 9.22249 22.7414 8.46379 22.7165C7.68199 22.688 6.89869 22.6412 6.12499 22.5197C5.42029 22.406 4.71799 22.226 4.08079 21.8975C3.30559 21.5072 2.65009 20.885 2.21869 20.132C1.90189 19.5872 1.70539 18.9806 1.57399 18.3668C1.43269 17.6942 1.36549 17.0087 1.32349 16.3238C1.27549 15.5135 1.26229 14.7017 1.25569 13.8905C1.25089 12.911 1.24789 11.9318 1.25179 10.9523C1.25839 9.68064 1.25719 8.40684 1.36279 7.13844C1.42879 6.39024 1.53349 5.64024 1.76149 4.92264C1.93699 4.37214 2.19019 3.84234 2.54359 3.38334C3.06499 2.69484 3.79369 2.17464 4.60099 1.87344C5.29009 1.61124 6.02119 1.48164 6.75139 1.40004C7.51069 1.31934 8.27389 1.28784 9.03679 1.27104ZM7.08259 2.87394C6.41479 2.94144 5.74249 3.04254 5.11279 3.28404C4.48879 3.51714 3.93679 3.94764 3.58249 4.51434C3.25009 5.04294 3.08509 5.65644 2.98099 6.26664C2.85769 7.00194 2.81419 7.74744 2.78659 8.49174C2.76979 8.99154 2.75959 9.49164 2.75839 9.99174C2.74609 11.4815 2.74699 12.9713 2.76229 14.4611C2.77399 15.2711 2.79499 16.082 2.87089 16.889C2.93449 17.5301 3.02779 18.1745 3.24439 18.7841C3.40489 19.238 3.65089 19.6676 3.99709 20.0057C4.33099 20.3462 4.75279 20.5913 5.19979 20.7518C5.79589 20.9666 6.42679 21.0614 7.05439 21.1265C7.84099 21.2033 8.63179 21.2267 9.42169 21.239C9.92149 21.2471 10.4216 21.2513 10.9217 21.2486C11.8217 21.2597 12.7217 21.2495 13.6217 21.2495C14.4521 21.2432 15.2831 21.2351 16.1126 21.1901C16.7756 21.1517 17.4401 21.0932 18.0908 20.9546C18.566 20.8496 19.0376 20.6987 19.4546 20.4425C19.9262 20.1548 20.3129 19.7318 20.5628 19.2392C20.8178 18.7409 20.9495 18.1901 21.0383 17.6405C21.1553 16.8881 21.1979 16.1261 21.2207 15.3656C21.245 14.765 21.2438 14.1629 21.2489 13.562C21.2528 12.8216 21.254 12.0812 21.2531 11.3411C21.2426 9.93174 21.2603 8.51904 21.1322 7.11414C21.0596 6.38304 20.9492 5.64324 20.6579 4.96314C20.4569 4.49334 20.1404 4.07304 19.7378 3.75774C19.3439 3.44664 18.872 3.25134 18.3911 3.12114C17.8082 2.96754 17.2076 2.89494 16.6079 2.84634C15.7943 2.78304 14.978 2.76834 14.1623 2.75814C13.082 2.75184 12.0017 2.74524 10.9214 2.75394C10.4213 2.75274 9.92149 2.75574 9.42139 2.76414C8.64109 2.77644 7.85989 2.79924 7.08259 2.87394Z" fill="#4B4B4B"/>
<path opacity="0.5" d="M9.42081 2.76045C9.92091 2.75205 10.4207 2.74905 10.9208 2.75025C10.922 6.35295 10.9202 9.95535 10.9217 13.5578C14.3639 13.5587 17.8061 13.5578 21.2483 13.5584C21.2432 14.1593 21.2444 14.7614 21.2201 15.362C21.2195 15.2606 21.2198 15.1592 21.2219 15.0581C17.7884 15.0581 14.3552 15.0578 10.9217 15.0584C10.9202 17.1206 10.9217 19.1828 10.9211 21.245C10.421 21.2477 9.92091 21.2435 9.42111 21.2354C9.42081 17.4863 9.42171 13.7375 9.42051 9.98835C7.19961 9.98745 4.97871 9.98835 2.75781 9.98805C2.75901 9.48795 2.76921 8.98785 2.78601 8.48805C4.99761 8.48775 7.20921 8.48865 9.42051 8.48775C9.42171 6.57855 9.42111 4.66965 9.42081 2.76045Z" fill="#4B4B4B"/>
</svg>
