<svg width="24" height="24" viewBox="0 0 24 24" fill="none" xmlns="http://www.w3.org/2000/svg">
<path opacity="0.57" d="M6.81921 1.42132C7.02975 1.26972 7.32126 1.24228 7.55743 1.34934C7.83207 1.47036 8.01809 1.76839 7.99852 2.06934C7.99762 2.31182 7.99897 2.55452 7.99762 2.79699C7.4994 2.80981 7.00118 2.82601 6.50409 2.86065C6.50229 2.60423 6.50364 2.34781 6.50319 2.09161C6.48497 1.83317 6.60508 1.5691 6.81921 1.42132Z" fill="#4B4B4B"/>
<path opacity="0.57" d="M16.5002 1.97758C16.5191 1.60509 16.8547 1.28344 17.2285 1.28547C17.614 1.26342 17.9757 1.59385 17.9908 1.97893C17.9926 2.27268 17.9913 2.56667 17.9915 2.86065C17.4944 2.82601 16.9966 2.81004 16.4986 2.79699C16.5004 2.52393 16.4952 2.25064 16.5002 1.97758Z" fill="#4B4B4B"/>
<path opacity="0.57" d="M11.4627 11.9125C11.6518 11.6741 11.9528 11.5299 12.2571 11.5303C12.554 11.5355 12.8439 11.6804 13.0304 11.9109C13.1658 12.0776 13.2425 12.2913 13.2459 12.5059C13.2583 12.8759 13.043 13.2416 12.7166 13.415C12.6453 13.4533 12.5668 13.4753 12.4926 13.5072C12.186 12.9746 11.8003 12.4874 11.3509 12.0681C11.3952 12.0214 11.4222 11.9622 11.4627 11.9125Z" fill="#4B4B4B"/>
<path opacity="0.57" d="M17.0382 11.5537C17.3587 11.4795 17.7087 11.5897 17.9433 11.8169C18.0706 11.9366 18.1584 12.094 18.2081 12.2607C18.3039 12.6037 18.2006 12.996 17.9442 13.2443C17.8077 13.3766 17.6345 13.4731 17.4469 13.5086C17.1156 13.5761 16.7492 13.4677 16.5195 13.2162C16.2989 12.9915 16.2089 12.6559 16.2642 12.3486C16.3277 11.9579 16.6529 11.6327 17.0382 11.5537Z" fill="#4B4B4B"/>
<path opacity="0.57" d="M6.08661 14.0037C6.30637 13.8829 6.61092 13.9652 6.74026 14.18C7.17527 14.9308 7.60849 15.683 8.04283 16.4343C8.08579 16.5083 8.13415 16.5825 8.14832 16.6689C8.19285 16.8733 8.09343 17.1003 7.91012 17.2028C6.87522 17.8012 5.83964 18.3984 4.80451 18.9964C4.71207 19.0473 4.62457 19.1082 4.52605 19.1471C4.32856 19.2187 4.09036 19.1496 3.96305 18.9823C3.81955 18.8073 3.82247 18.534 3.96372 18.3588C4.04065 18.258 4.16009 18.2072 4.26581 18.1437C5.1653 17.623 6.06749 17.1066 6.96519 16.5829C6.60058 15.9513 6.23461 15.3204 5.8718 14.6877C5.7382 14.4531 5.84211 14.1191 6.08661 14.0037Z" fill="#4B4B4B"/>
<path opacity="0.57" d="M17.0531 15.5501C17.5412 15.4398 18.074 15.7689 18.204 16.2496C18.3023 16.5647 18.2182 16.9226 18.0084 17.1743C17.8826 17.3263 17.709 17.4356 17.5203 17.4917C17.2692 17.5634 16.9923 17.5274 16.7634 17.4039C16.4961 17.2618 16.3045 16.9876 16.2602 16.6887C16.2265 16.4671 16.2663 16.2345 16.3751 16.0384C16.5166 15.788 16.7706 15.6043 17.0531 15.5501Z" fill="#4B4B4B"/>
<path d="M6.50407 2.86065C7.00116 2.82601 7.49938 2.80982 7.9976 2.797C9.52285 2.7718 11.0483 2.78687 12.5738 2.7826C13.882 2.7853 15.1904 2.7745 16.4986 2.797C16.9966 2.81004 17.4944 2.82601 17.9915 2.86065C18.8617 2.92768 19.7479 3.05252 20.5442 3.42995C21.1978 3.73675 21.7602 4.23475 22.1392 4.8497C22.4777 5.39471 22.668 6.01799 22.7793 6.64599C22.9158 7.4148 22.9516 8.19666 22.9739 8.97559C23.0087 10.2422 22.9878 11.5092 22.9934 12.7758C22.9876 14.066 23.0128 15.3568 22.9539 16.6459C22.9071 17.6084 22.8306 18.5889 22.488 19.4983C22.235 20.1805 21.7925 20.7941 21.2082 21.2307C20.555 21.7255 19.7497 21.9696 18.9492 22.093C18.0234 22.2332 17.085 22.2539 16.1504 22.2707C15.4529 22.2786 14.7554 22.2766 14.0577 22.2773C13.8386 22.2795 13.6217 22.1787 13.4816 22.0105C13.2933 21.7928 13.2515 21.4635 13.3779 21.205C13.4697 21.0111 13.6481 20.8607 13.8552 20.8046C13.987 20.7664 14.1258 20.779 14.2614 20.777C15.3404 20.775 16.4201 20.7853 17.4982 20.73C18.0198 20.7001 18.5428 20.6571 19.0547 20.5498C19.424 20.4693 19.7927 20.3586 20.117 20.1598C20.4146 19.9807 20.6699 19.732 20.8541 19.4373C21.0599 19.1091 21.1819 18.7357 21.2619 18.359C21.3802 17.8027 21.4246 17.2343 21.4527 16.6677C21.5055 15.5136 21.4925 14.3579 21.4929 13.2029C21.4923 11.8938 21.5049 10.5841 21.4792 9.2752C15.3276 9.27745 9.17578 9.27677 3.02396 9.27565C3.03048 9.05544 3.02328 8.83501 3.02778 8.6148C3.06534 8.45735 3.0451 8.2945 3.0469 8.13413C3.06849 8.12018 3.07861 8.10084 3.07749 8.07587C3.07322 7.98567 3.07029 7.8957 3.07074 7.80551C3.06039 7.91077 3.09143 8.02099 3.04352 8.11996C3.04532 8.23962 3.04937 8.35973 3.0469 8.47985C3.00281 8.70927 3.0325 8.945 3.02396 9.17758C2.99719 9.55208 3.01226 9.92817 3.00641 10.3034C2.99831 10.4979 2.90789 10.6869 2.76371 10.8175C2.54823 11.0195 2.20926 11.0722 1.94294 10.9444C1.67258 10.8229 1.49421 10.5305 1.5077 10.2345C1.50568 9.31816 1.52008 8.40044 1.60353 7.48723C1.6863 6.63947 1.8415 5.77619 2.25605 5.02133C2.6436 4.3101 3.27048 3.73473 4.00847 3.40273C4.79123 3.04734 5.65406 2.92588 6.50407 2.86065ZM8.84019 4.28581C7.87861 4.29503 6.91367 4.30043 5.95839 4.42279C5.46737 4.49162 4.9705 4.59081 4.52581 4.81866C4.20011 4.98331 3.91513 5.22804 3.70617 5.52719C3.55299 5.742 3.44165 5.98358 3.36 6.23347C3.19445 6.73192 3.13012 7.25645 3.08244 7.77717C9.11753 7.77627 15.1524 7.77784 21.1875 7.77582C21.2565 7.77447 21.3254 7.78144 21.3937 7.79179C21.3982 7.75197 21.4048 7.71216 21.4012 7.6719C21.3479 7.08461 21.2626 6.48944 21.0242 5.94489C20.8613 5.56228 20.5892 5.22781 20.2502 4.98714C19.972 4.78852 19.6481 4.66436 19.3206 4.57417C18.9314 4.46957 18.5308 4.41582 18.1307 4.37668C17.4721 4.31505 16.8103 4.29953 16.1493 4.29053C13.7128 4.27523 11.2764 4.28176 8.84019 4.28581Z" fill="#4B4B4B"/>
<path d="M4.77458 10.8699C5.72019 10.4759 6.76544 10.3285 7.78347 10.439C9.10605 10.5805 10.3832 11.1529 11.3509 12.0681C11.8003 12.4874 12.186 12.9746 12.4926 13.5072C12.9582 14.3105 13.2308 15.2232 13.2918 16.1493C13.3505 17.026 13.2214 17.9154 12.9096 18.7371C12.4514 19.9551 11.5927 21.0163 10.5002 21.7224C9.31007 22.5017 7.84262 22.838 6.43119 22.6675C5.08948 22.5139 3.80918 21.8958 2.84851 20.9477C2.3044 20.4128 1.85994 19.7765 1.54707 19.0803C1.16963 18.2407 0.977994 17.3176 0.999138 16.3969C1.01758 15.4261 1.2722 14.4609 1.73691 13.6085C2.4 12.3864 3.48821 11.3999 4.77458 10.8699ZM6.66894 11.6673C5.9928 11.7332 5.33128 11.9426 4.74017 12.2776C4.03097 12.6777 3.42433 13.2569 2.99134 13.9463C2.54126 14.6591 2.28124 15.4898 2.24435 16.3319C2.20206 17.2091 2.3991 18.0972 2.81387 18.8716C3.19648 19.5909 3.76105 20.2124 4.44034 20.6623C5.08094 21.0887 5.82366 21.3609 6.58864 21.4477C7.37455 21.5388 8.18249 21.4394 8.92094 21.1549C10.1119 20.7014 11.1073 19.7646 11.6334 18.6039C12.0218 17.7577 12.1579 16.7998 12.0286 15.8782C11.9175 15.068 11.5969 14.288 11.1084 13.6321C10.6414 13.0023 10.0222 12.4861 9.31749 12.1421C8.50212 11.74 7.57316 11.5771 6.66894 11.6673Z" fill="#4B4B4B"/>
</svg>
