<svg width="24" height="24" viewBox="0 0 24 24" fill="none" xmlns="http://www.w3.org/2000/svg">
<path opacity="0.57" d="M6.8193 1.42123C7.02984 1.26963 7.32134 1.24219 7.55752 1.34926C7.83216 1.47027 8.01818 1.7683 7.99861 2.06926C7.99771 2.31173 7.99906 2.55443 7.99771 2.7969C7.49949 2.80972 7.00127 2.82592 6.50418 2.86056C6.50238 2.60414 6.50373 2.34772 6.50328 2.09152C6.48506 1.83308 6.60517 1.56901 6.8193 1.42123Z" fill="#4B4B4B"/>
<path opacity="0.57" d="M16.5002 1.97782C16.5191 1.60533 16.8547 1.28368 17.2286 1.28571C17.6141 1.26366 17.9758 1.59409 17.9908 1.97917C17.9926 2.27292 17.9913 2.56691 17.9915 2.86089C17.4944 2.82625 16.9967 2.81028 16.4987 2.79723C16.5005 2.52417 16.4953 2.25088 16.5002 1.97782Z" fill="#4B4B4B"/>
<path opacity="0.57" d="M11.4624 11.9125C11.6516 11.6741 11.9525 11.5299 12.2569 11.5303C12.5538 11.5355 12.8437 11.6804 13.0302 11.9109C13.1656 12.0776 13.2423 12.2913 13.2457 12.5059C13.258 12.8759 13.0428 13.2416 12.7164 13.415C12.6451 13.4533 12.5666 13.4753 12.4924 13.5072C12.1858 12.9746 11.8 12.4874 11.3506 12.0681C11.3949 12.0214 11.4219 11.9622 11.4624 11.9125Z" fill="#4B4B4B"/>
<path opacity="0.57" d="M17.0384 11.5537C17.3589 11.4795 17.7089 11.5897 17.9435 11.8169C18.0708 11.9366 18.1585 12.094 18.2082 12.2607C18.3041 12.6037 18.2008 12.996 17.9444 13.2443C17.8079 13.3766 17.6347 13.4731 17.4471 13.5086C17.1158 13.5761 16.7493 13.4677 16.5197 13.2162C16.299 12.9915 16.2091 12.6559 16.2644 12.3487C16.3278 11.9579 16.6531 11.6327 17.0384 11.5537Z" fill="#4B4B4B"/>
<path opacity="0.57" d="M6.08646 14.0036C6.30622 13.8829 6.61077 13.9652 6.74011 14.18C7.17512 14.9308 7.60834 15.683 8.04268 16.4342C8.08564 16.5082 8.134 16.5825 8.14817 16.6688C8.1927 16.8733 8.09328 17.1003 7.90997 17.2028C6.87507 17.8011 5.83949 18.3983 4.80436 18.9964C4.71192 19.0472 4.62442 19.1082 4.5259 19.1471C4.32841 19.2186 4.09021 19.1496 3.9629 18.9822C3.81939 18.8072 3.82232 18.534 3.96357 18.3587C4.0405 18.258 4.15994 18.2071 4.26565 18.1437C5.16515 17.623 6.06734 17.1065 6.96504 16.5829C6.60043 15.9513 6.23446 15.3204 5.87165 14.6877C5.73804 14.4531 5.84196 14.119 6.08646 14.0036Z" fill="#4B4B4B"/>
<path opacity="0.57" d="M17.0531 15.5501C17.5412 15.4399 18.0741 15.769 18.2041 16.2497C18.3024 16.5648 18.2182 16.9227 18.0084 17.1743C17.8827 17.3264 17.709 17.4357 17.5203 17.4917C17.2693 17.5635 16.9924 17.5275 16.7634 17.404C16.4962 17.2618 16.3045 16.9877 16.2602 16.6887C16.2265 16.4672 16.2663 16.2346 16.3752 16.0385C16.5167 15.7881 16.7706 15.6043 17.0531 15.5501Z" fill="#4B4B4B"/>
<path d="M6.50392 2.86044C7.00101 2.8258 7.49923 2.80961 7.99745 2.79679C9.5227 2.77159 11.0482 2.78666 12.5737 2.78239C13.8819 2.78509 15.1903 2.77429 16.4985 2.79679C16.9965 2.80983 17.4942 2.8258 17.9913 2.86044C18.8616 2.92747 19.7478 3.05231 20.544 3.42974C21.1977 3.73654 21.76 4.23454 22.139 4.8495C22.4775 5.3945 22.6678 6.01778 22.7792 6.64578C22.9157 7.41459 22.9515 8.19645 22.9737 8.97538C23.0086 10.242 22.9877 11.509 22.9933 12.7756C22.9875 14.0658 23.0127 15.3567 22.9537 16.6457C22.9069 17.6082 22.8305 18.5887 22.4879 19.4981C22.2348 20.1803 21.7924 20.7939 21.208 21.2305C20.5548 21.7253 19.7496 21.9694 18.9491 22.0929C18.0233 22.233 17.0849 22.2537 16.1503 22.2706C15.4528 22.2784 14.7553 22.2764 14.0575 22.2771C13.8384 22.2793 13.6216 22.1786 13.4815 22.0103C13.2932 21.7926 13.2514 21.4633 13.3778 21.2048C13.4696 21.011 13.6479 20.8605 13.8551 20.8045C13.9869 20.7662 14.1257 20.7788 14.2613 20.7768C15.3403 20.7748 16.42 20.7851 17.4981 20.7298C18.0197 20.6999 18.5426 20.6569 19.0546 20.5496C19.4239 20.4691 19.7926 20.3584 20.1169 20.1596C20.4145 19.9806 20.6698 19.7318 20.854 19.4371C21.0598 19.109 21.1817 18.7356 21.2618 18.3588C21.3801 17.8026 21.4244 17.2342 21.4525 16.6676C21.5054 15.5135 21.4924 14.3578 21.4928 13.2027C21.4921 11.8937 21.5047 10.5839 21.4791 9.27499C15.3275 9.27724 9.17563 9.27656 3.02381 9.27544C3.03033 9.05523 3.02313 8.8348 3.02763 8.61459C3.06519 8.45714 3.04495 8.29429 3.04675 8.13392C3.06834 8.11997 3.07846 8.10063 3.07734 8.07566C3.07307 7.98547 3.07014 7.89549 3.07059 7.8053C3.06024 7.91056 3.09128 8.02078 3.04337 8.11975C3.04517 8.23941 3.04922 8.35952 3.04675 8.47964C3.00266 8.70906 3.03235 8.94479 3.02381 9.17737C2.99704 9.55188 3.01211 9.92796 3.00626 10.3032C2.99816 10.4977 2.90774 10.6867 2.76356 10.8174C2.54808 11.0194 2.20911 11.072 1.94279 10.9442C1.67243 10.8228 1.49406 10.5304 1.50755 10.2344C1.50553 9.31795 1.51993 8.40024 1.60337 7.48702C1.68615 6.63926 1.84135 5.77598 2.2559 5.02112C2.64345 4.30989 3.27033 3.73452 4.00832 3.40252C4.79108 3.04713 5.65391 2.92567 6.50392 2.86044ZM8.84004 4.2856C7.87846 4.29482 6.91351 4.30022 5.95824 4.42258C5.46722 4.49141 4.97035 4.5906 4.52566 4.81845C4.19996 4.9831 3.91498 5.22783 3.70602 5.52698C3.55284 5.74179 3.4415 5.98337 3.35985 6.23326C3.1943 6.73171 3.12997 7.25624 3.08229 7.77696C9.11738 7.77606 15.1523 7.77763 21.1874 7.77561C21.2564 7.77426 21.3252 7.78123 21.3936 7.79158C21.3981 7.75176 21.4046 7.71195 21.401 7.67169C21.3477 7.0844 21.2625 6.48923 21.0241 5.94468C20.8612 5.56207 20.589 5.2276 20.2501 4.98693C19.9718 4.78831 19.6479 4.66415 19.3204 4.57396C18.9313 4.46936 18.5307 4.41561 18.1306 4.37647C17.472 4.31484 16.8102 4.29932 16.1491 4.29032C13.7127 4.27502 11.2763 4.28155 8.84004 4.2856Z" fill="#4B4B4B"/>
<path d="M4.77458 10.8699C5.72019 10.4758 6.76544 10.3285 7.78347 10.4389C9.10605 10.5804 10.3832 11.1529 11.3509 12.0681C11.8003 12.4874 12.186 12.9746 12.4926 13.5072C12.9582 14.3104 13.2308 15.2232 13.2918 16.1492C13.3505 17.026 13.2214 17.9154 12.9096 18.737C12.4514 19.955 11.5927 21.0163 10.5002 21.7223C9.31007 22.5017 7.84262 22.838 6.43119 22.6675C5.08948 22.5138 3.80918 21.8957 2.84851 20.9477C2.3044 20.4128 1.85994 19.7764 1.54707 19.0803C1.16963 18.2406 0.977994 17.3175 0.999138 16.3969C1.01758 15.4261 1.2722 14.4609 1.73691 13.6084C2.4 12.3864 3.48821 11.3998 4.77458 10.8699ZM6.66894 11.6673C5.9928 11.7332 5.33128 11.9426 4.74017 12.2775C4.03097 12.6777 3.42433 13.2569 2.99134 13.9463C2.54126 14.6591 2.28124 15.4897 2.24435 16.3319C2.20206 17.2091 2.3991 18.0971 2.81387 18.8716C3.19648 19.5909 3.76105 20.2124 4.44034 20.6622C5.08094 21.0887 5.82366 21.3609 6.58864 21.4477C7.37455 21.5388 8.18249 21.4394 8.92094 21.1548C10.1119 20.7014 11.1073 19.7645 11.6334 18.6039C12.0218 17.7577 12.1579 16.7997 12.0286 15.8782C11.9175 15.068 11.5969 14.2879 11.1084 13.632C10.6414 13.0022 10.0222 12.486 9.31749 12.1421C8.50212 11.7399 7.57316 11.5771 6.66894 11.6673Z" fill="#4B4B4B"/>
</svg>
