<svg width="24" height="24" viewBox="0 0 24 24" fill="none" xmlns="http://www.w3.org/2000/svg">
<path d="M9.8442 2.0184C10.0314 1.9932 10.2204 2.0019 10.4085 2.0007C11.718 2.001 13.0278 1.9998 14.3373 2.0013C14.8047 1.9977 15.2703 2.1624 15.6297 2.4615C15.9708 2.742 16.2243 3.1341 16.3173 3.5679C16.4019 3.9786 16.4793 4.3908 16.5657 4.8012C16.65 5.1921 17.0292 5.4921 17.4282 5.4882C18.5292 5.4924 19.6302 5.4885 20.7312 5.4903C21.1002 5.4933 21.4314 5.8128 21.4521 6.1803C21.4935 6.588 21.1452 6.9867 20.7327 6.9873C15.0711 6.9894 9.4095 6.9873 3.7479 6.9882C3.501 6.9927 3.261 6.8568 3.1257 6.6525C2.9991 6.4668 2.9655 6.2211 3.0375 6.0081C3.1128 5.7768 3.3048 5.583 3.5412 5.5188C3.6474 5.4864 3.7596 5.4882 3.8697 5.4876C4.92 5.49 5.9703 5.4873 7.0206 5.4882C7.422 5.4957 7.8051 5.1924 7.8888 4.7997C7.9788 4.3752 8.0562 3.948 8.1468 3.5235C8.3358 2.7375 9.0426 2.1147 9.8442 2.0184ZM9.6711 3.7332C9.6045 3.825 9.5913 3.9405 9.5694 4.0482C9.5058 4.3695 9.4407 4.6905 9.3774 5.0118C9.3456 5.1741 9.3012 5.334 9.2415 5.4882C11.232 5.4903 13.2228 5.4903 15.2133 5.49C15.1626 5.3532 15.117 5.2143 15.0891 5.0709C15.0129 4.6881 14.9361 4.3056 14.8602 3.9228C14.8209 3.6906 14.6034 3.5079 14.3691 3.5022C12.96 3.4983 11.5506 3.5022 10.1415 3.5001C9.9576 3.4905 9.774 3.5799 9.6711 3.7332Z" fill="#4B4B4B"/>
<path d="M4.9314 8.7465C5.1822 8.6733 5.4663 8.7486 5.6538 8.9289C5.7891 9.0561 5.8692 9.2361 5.8827 9.4209C6.0366 11.3322 6.198 13.2429 6.3681 15.153C6.4839 16.4322 6.5979 17.712 6.7389 18.9888C6.7839 19.3812 6.9165 19.7838 7.2051 20.0658C7.4805 20.3337 7.8726 20.4444 8.2488 20.4561C10.8384 20.5116 13.4289 20.5098 16.0185 20.4633C16.4457 20.4663 16.905 20.3769 17.2278 20.0772C17.5899 19.7448 17.7027 19.2363 17.7381 18.765C17.8938 17.3115 18.0222 15.8553 18.1518 14.3991C18.2976 12.7395 18.4377 11.0796 18.5718 9.4191C18.5871 9.1998 18.7002 8.9868 18.8817 8.8611C19.0821 8.7174 19.3551 8.676 19.5861 8.7675C19.8951 8.8797 20.1045 9.2145 20.067 9.5418C19.8267 12.4572 19.5852 15.3729 19.2963 18.2844C19.2291 18.8673 19.2114 19.4661 19.0026 20.0217C18.7884 20.6223 18.3786 21.1587 17.8326 21.4935C17.3277 21.8082 16.7295 21.9489 16.1385 21.9609C13.6896 22.0056 11.2401 22.0113 8.7909 21.9666C8.3787 21.9576 7.9611 21.9684 7.5564 21.8754C7.0086 21.7587 6.4917 21.4848 6.1005 21.0822C5.5803 20.5482 5.3112 19.8144 5.2395 19.0815C4.9083 15.906 4.6503 12.7236 4.3872 9.5418C4.3455 9.1917 4.5912 8.8362 4.9314 8.7465Z" fill="#4B4B4B"/>
<path opacity="0.5" d="M6.78689 8.7981C6.87359 8.7855 6.96149 8.79 7.04879 8.7897C10.5696 8.7909 14.0904 8.7888 17.6109 8.7909C17.8905 8.7879 18.1338 9.0516 18.1083 9.3303C17.9013 12.0708 17.691 14.811 17.4834 17.5518C17.445 18.0762 17.409 18.6078 17.2503 19.1124C17.1666 19.3752 17.0301 19.6353 16.8003 19.7982C16.6029 19.9398 16.3611 20.0001 16.1235 20.0304C15.8202 20.0682 15.5142 20.0685 15.2094 20.07C13.3494 20.07 11.4894 20.07 9.62939 20.07C9.28979 20.0646 8.94959 20.0826 8.61089 20.0568C8.20139 20.0241 7.78859 19.8597 7.51889 19.5405C7.16189 19.1241 7.04369 18.5631 6.99959 18.0306C6.77429 15.1413 6.57959 12.2496 6.37109 9.3591C6.33599 9.1005 6.52859 8.8386 6.78689 8.7981ZM10.3995 12.1914C10.1595 12.2391 9.97409 12.4749 9.99059 12.7203C9.99299 12.8751 10.0773 13.0152 10.1904 13.1163C10.6296 13.5534 11.067 13.992 11.5047 14.43C11.0484 14.8881 10.5897 15.3441 10.1337 15.8022C9.98399 15.9531 9.94769 16.2003 10.0428 16.3896C10.1346 16.5807 10.3527 16.7025 10.5639 16.677C10.6842 16.6653 10.7976 16.608 10.8816 16.5219C11.334 16.0695 11.7852 15.6153 12.2406 15.1659C12.6987 15.6222 13.1541 16.0806 13.6125 16.5363C13.758 16.6791 13.9914 16.7202 14.1774 16.6368C14.3709 16.5555 14.5017 16.3467 14.4891 16.137C14.4846 16.0053 14.4252 15.8793 14.3322 15.7875C13.8801 15.3348 13.4271 14.883 12.9753 14.43C13.425 13.9743 13.881 13.5246 14.3331 13.0713C14.4717 12.9372 14.5272 12.7248 14.4648 12.5412C14.4063 12.3435 14.2182 12.1953 14.013 12.1821C13.8603 12.1677 13.7049 12.2265 13.5987 12.3366C13.1451 12.7887 12.6942 13.2435 12.2394 13.6941C11.7867 13.2426 11.3355 12.7899 10.8831 12.3384C10.7604 12.2109 10.5723 12.153 10.3995 12.1914Z" fill="#4B4B4B"/>
</svg>
