<svg width="24" height="24" viewBox="0 0 24 24" fill="none" xmlns="http://www.w3.org/2000/svg">
<path d="M6.63788 1.41008C7.76478 1.28255 8.90022 1.2659 10.0332 1.25353C11.2177 1.24836 12.4022 1.24881 13.5866 1.25128C14.7079 1.2596 15.8308 1.26882 16.9482 1.36824C17.8607 1.45349 18.7821 1.59947 19.6282 1.96656C20.3777 2.29383 21.066 2.80532 21.5102 3.50035C21.8796 4.09349 22.1013 4.76536 22.2577 5.44262C22.555 6.76408 22.643 8.12131 22.6958 9.47134C22.7264 10.2876 22.7361 11.1048 22.7399 11.9217C22.7433 12.029 22.7377 12.1383 22.7001 12.2398C22.6149 12.4883 22.3929 12.6842 22.1344 12.7333C21.82 12.7953 21.4731 12.6343 21.3271 12.3471C21.2171 12.1404 21.243 11.8988 21.2396 11.6736C21.2275 10.3207 21.2064 8.96592 21.0777 7.61837C20.9947 6.79715 20.8818 5.97278 20.6335 5.18305C20.519 4.82474 20.371 4.4716 20.1481 4.16659C19.8797 3.82673 19.5167 3.57143 19.128 3.38609C18.4318 3.06309 17.6626 2.9477 16.9052 2.87145C15.7727 2.76033 14.6335 2.75943 13.4967 2.75134C12.2366 2.75089 10.9765 2.74391 9.71649 2.75696C8.65775 2.77068 7.59563 2.79137 6.54498 2.9342C5.83241 3.03677 5.10633 3.19962 4.4916 3.59122C3.91555 3.95539 3.48661 4.52806 3.25988 5.16753C2.97287 5.95186 2.88897 6.79062 2.82734 7.61792C2.73152 9.14024 2.75492 10.6662 2.74884 12.1903C2.75289 13.4805 2.7412 14.7718 2.80867 16.0607C2.83027 16.4779 2.86018 16.8951 2.91574 17.3095C2.98075 17.8068 3.07229 18.3039 3.24189 18.7774C3.3791 19.1622 3.57569 19.5295 3.84448 19.8388C3.94614 19.9546 4.05456 20.0671 4.1839 20.1528C4.52624 20.389 4.92549 20.5219 5.32091 20.6384C6.05104 20.8413 6.80343 20.9529 7.55559 21.0343C9.02056 21.1861 10.4945 21.223 11.9662 21.237C12.1514 21.2406 12.3423 21.2896 12.4829 21.4156C12.7438 21.6328 12.8246 22.0348 12.6613 22.3337C12.5619 22.5242 12.3788 22.6707 12.1682 22.7174C12.0276 22.748 11.8828 22.7339 11.7402 22.7345C10.2925 22.7174 8.84286 22.6765 7.40196 22.5251C6.67162 22.4462 5.94262 22.3407 5.22892 22.1646C4.59552 22.0062 3.96436 21.7973 3.41194 21.4419C3.12313 21.2595 2.8748 21.0199 2.65775 20.7576C2.16515 20.1712 1.8462 19.4564 1.65681 18.7184C1.42131 17.8061 1.34641 16.8619 1.30007 15.9234C1.24834 14.748 1.25059 13.5709 1.24924 12.3943C1.25194 11.697 1.24811 10.9997 1.25306 10.3025C1.25823 9.21469 1.27398 8.12558 1.36867 7.0412C1.45437 6.11449 1.60665 5.17945 1.98363 4.32202C2.37119 3.44277 3.03855 2.68611 3.87574 2.21106C4.71743 1.72813 5.68373 1.52322 6.63788 1.41008Z" fill="#4B4B4B"/>
<path d="M17.5315 14.0302C17.6095 14.0104 17.6903 14.0028 17.7708 14.0028C18.3552 14.0028 18.9397 14.0028 19.5241 14.0028C19.6813 13.9987 19.8431 14.0032 19.9908 14.064C20.2677 14.1703 20.4884 14.4193 20.55 14.7109C20.588 14.8951 20.622 15.0802 20.6618 15.264C20.7003 15.4407 20.8735 15.5759 21.0543 15.5717C21.5415 15.5735 22.0289 15.5723 22.5161 15.5726C22.6423 15.5663 22.764 15.643 22.8225 15.7536C22.9421 15.9576 22.7737 16.2478 22.5377 16.2453C19.996 16.248 17.4541 16.2453 14.9124 16.2467C14.7331 16.259 14.5642 16.1068 14.559 15.9273C14.5451 15.7437 14.7048 15.5692 14.8899 15.5726C15.3847 15.5703 15.8794 15.5726 16.3742 15.5714C16.555 15.5717 16.7255 15.4322 16.7595 15.2543C16.7977 15.073 16.8308 14.8908 16.8693 14.7097C16.9374 14.3818 17.2091 14.1121 17.5315 14.0302ZM17.5479 14.801C17.515 14.8726 17.511 14.9533 17.493 15.0291C17.4527 15.2104 17.4309 15.3964 17.3675 15.5719C18.2623 15.5721 19.157 15.5732 20.0518 15.5726C19.9699 15.3359 19.9463 15.0842 19.8874 14.8418C19.8595 14.7444 19.7605 14.6744 19.6597 14.6782C19.0295 14.6764 18.3992 14.6785 17.769 14.6771C17.6795 14.6728 17.5904 14.7221 17.5479 14.801Z" fill="#4B4B4B"/>
<path d="M15.4167 17.0402C15.5615 16.9923 15.7325 17.0582 15.8087 17.19C15.8659 17.2832 15.8564 17.3967 15.8683 17.5013C15.9736 18.7828 16.08 20.0644 16.2082 21.3438C16.237 21.5759 16.2332 21.8274 16.3684 22.0294C16.4826 22.2147 16.7058 22.3007 16.9158 22.3047C18.1006 22.3308 19.2857 22.329 20.4704 22.3074C20.6515 22.3016 20.8431 22.2523 20.974 22.12C21.1128 21.9828 21.165 21.7844 21.1839 21.596C21.3317 20.1717 21.4466 18.7443 21.5665 17.3178C21.5822 17.1673 21.7122 17.0427 21.8616 17.0274C22.0092 17.006 22.1599 17.0992 22.2134 17.2373C22.2537 17.3266 22.2323 17.4258 22.226 17.5196C22.1252 18.7425 22.0231 19.9654 21.9034 21.1868C21.8778 21.4108 21.8659 21.6369 21.8256 21.8591C21.7705 22.1657 21.6196 22.4597 21.3805 22.6628C21.2001 22.8173 20.9749 22.9138 20.7421 22.955C20.5554 22.9907 20.3647 22.9813 20.1758 22.9869C19.1564 23.0024 18.1368 23.0027 17.1174 22.9838C16.944 22.9811 16.7687 22.9815 16.5989 22.9417C16.3171 22.8799 16.0546 22.724 15.8744 22.4972C15.6907 22.2665 15.5942 21.9759 15.5656 21.6846C15.4169 20.254 15.3002 18.8203 15.1821 17.3871C15.1675 17.2355 15.2721 17.0843 15.4167 17.0402Z" fill="#4B4B4B"/>
<path opacity="0.5" d="M6.545 2.9342C7.59565 2.79137 8.65777 2.77068 9.71651 2.75696C10.9766 2.74391 12.2366 2.75088 13.4967 2.75133C14.6335 2.75943 15.7727 2.76033 16.9053 2.87145C17.6626 2.9477 18.4319 3.06309 19.128 3.38609C19.5167 3.57143 19.8797 3.82672 20.1481 4.16659C20.371 4.4716 20.519 4.82474 20.6335 5.18305C20.8818 5.97278 20.9947 6.79715 21.0777 7.61836C14.9943 7.61814 8.91081 7.61904 2.82736 7.61791C2.88899 6.79062 2.97289 5.95186 3.2599 5.16753C3.48663 4.52805 3.91557 3.95538 4.49162 3.59122C5.10635 3.19962 5.83242 3.03677 6.545 2.9342Z" fill="#4B4B4B"/>
<path opacity="0.5" d="M5.36343 10.9457C5.71972 10.9307 6.07713 10.9435 6.43387 10.9392C9.56714 10.9392 12.7002 10.9392 15.8335 10.9392C15.9536 10.9406 16.0764 10.928 16.1938 10.9601C16.3913 11.0143 16.5528 11.1842 16.5948 11.385C16.6207 11.5544 16.6052 11.7263 16.6063 11.897C16.6034 12.1829 16.3443 12.4364 16.0593 12.4386C12.5798 12.4386 9.10063 12.4386 5.62142 12.4386C5.54022 12.4379 5.4588 12.4427 5.37805 12.4341C5.16077 12.4076 4.96845 12.2425 4.90839 12.0324C4.87331 11.9159 4.88635 11.7933 4.88455 11.6736C4.88388 11.5465 4.8751 11.4136 4.92639 11.2942C4.99837 11.1124 5.17089 10.9766 5.36343 10.9457Z" fill="#4B4B4B"/>
<path opacity="0.5" d="M5.29484 14.6785C5.39358 14.6483 5.49795 14.6575 5.59984 14.6566C8.05923 14.6564 10.5186 14.6566 12.978 14.6564C13.2004 14.6503 13.4139 14.7934 13.5034 14.9954C13.5783 15.1677 13.543 15.3602 13.5516 15.5422C13.561 15.7116 13.4976 15.8857 13.3718 16.0015C13.2672 16.1016 13.1233 16.1569 12.9789 16.156C10.4671 16.1558 7.95553 16.1563 5.44397 16.1558C5.20442 16.1558 4.97814 15.9842 4.91043 15.755C4.86522 15.5834 4.89154 15.4032 4.88547 15.228C4.88007 14.9796 5.05686 14.7459 5.29484 14.6785Z" fill="#4B4B4B"/>
<path opacity="0.5" d="M16.2514 17.0665C16.4792 17.0533 16.7086 17.065 16.9372 17.0611C18.3315 17.0609 19.7259 17.0611 21.1202 17.0609C21.2138 17.0573 21.3078 17.1192 21.337 17.2089C21.3438 17.343 21.342 17.4782 21.3249 17.6113C21.2477 18.698 21.1566 19.7832 21.0797 20.8697C21.0509 21.1661 21.05 21.4718 20.9454 21.755C20.8966 21.8863 20.803 22.0071 20.6685 22.0577C20.4913 22.127 20.2963 22.1234 20.1089 22.1257C19.1336 22.1257 18.1585 22.1263 17.1833 22.1254C16.9738 22.1284 16.7509 22.064 16.6083 21.9034C16.4511 21.7359 16.3946 21.5024 16.3679 21.2806C16.2649 19.9535 16.1726 18.6251 16.0811 17.2975C16.0685 17.1921 16.1497 17.0897 16.2514 17.0665ZM17.7026 18.8712C17.7238 18.9521 17.7915 19.0057 17.8477 19.0626C18.0243 19.2391 18.2015 19.415 18.3772 19.5925C18.2155 19.7603 18.0477 19.9222 17.8839 20.0882C17.8189 20.1589 17.7298 20.2169 17.7049 20.3152C17.6576 20.4621 17.7987 20.6231 17.9489 20.6121C18.0409 20.613 18.1057 20.5397 18.1648 20.4792C18.3479 20.2959 18.5304 20.1119 18.7148 19.9299C18.9175 20.1314 19.1192 20.3339 19.3212 20.5361C19.3619 20.5784 19.417 20.6081 19.4766 20.6114C19.608 20.6247 19.731 20.5077 19.734 20.378C19.7373 20.3051 19.6977 20.2374 19.6469 20.1883C19.4485 19.9895 19.2477 19.7934 19.0524 19.5916C19.254 19.3887 19.4568 19.187 19.6591 18.9847C19.7241 18.9245 19.7526 18.8255 19.7209 18.7414C19.6806 18.619 19.5284 18.5342 19.4076 18.5938C19.3343 18.6206 19.2884 18.6874 19.2333 18.7387C19.0594 18.9101 18.8905 19.0866 18.7134 19.2547C18.5362 19.0797 18.361 18.9026 18.1846 18.7267C18.1302 18.6739 18.0812 18.6087 18.0049 18.5875C17.8416 18.5232 17.6531 18.7049 17.7026 18.8712Z" fill="#4B4B4B"/>
</svg>
