<svg width="24" height="24" viewBox="0 0 24 24" fill="none" xmlns="http://www.w3.org/2000/svg">
<path opacity="0.5" d="M9.82097 2.02161C9.92129 2.00722 10.0227 2.00092 10.124 2.00069C11.391 2.00092 12.6578 2.00069 13.9246 2.00069C14.235 2.00362 14.5515 1.9809 14.854 2.06615C15.5668 2.24474 16.1561 2.84126 16.316 3.55968C16.3844 3.89888 16.4519 4.23829 16.5196 4.57771C16.5493 4.72167 16.5682 4.87125 16.6395 5.00238C16.787 5.29524 17.1055 5.49115 17.4337 5.4889C18.5282 5.48958 19.6227 5.48845 20.7172 5.48958C21.0704 5.488 21.3956 5.77142 21.4442 6.12096C21.5061 6.46442 21.291 6.82859 20.962 6.94285C20.8052 7.00538 20.6345 6.98559 20.47 6.98851C14.8916 6.98829 9.31331 6.98918 3.73483 6.98829C3.37764 6.98851 3.05081 6.69745 3.00853 6.34319C2.95409 6.00534 3.16575 5.65175 3.48695 5.53681C3.60144 5.49115 3.72628 5.48598 3.84819 5.4889C4.91278 5.48868 5.97737 5.49003 7.04197 5.48845C7.43672 5.48463 7.8029 5.18682 7.88883 4.80197C7.96778 4.41756 8.0429 4.03226 8.12028 3.64763C8.2035 3.17865 8.46757 2.74701 8.83826 2.44943C9.11987 2.22225 9.46289 2.07267 9.82097 2.02161ZM9.59559 3.9171C9.54521 4.17262 9.49348 4.42814 9.44264 4.68388C9.38618 4.9547 9.34705 5.23181 9.23998 5.4889C11.2315 5.48913 13.223 5.48913 15.2146 5.48913C15.1565 5.3445 15.1127 5.1947 15.0832 5.04197C15.0088 4.66679 14.933 4.29183 14.8587 3.91665C14.823 3.72073 14.6594 3.55901 14.4667 3.51515C14.3848 3.4949 14.2998 3.50075 14.2163 3.5003C12.8901 3.5003 11.564 3.5003 10.2378 3.5003C10.1543 3.50075 10.0697 3.49513 9.98787 3.51492C9.79533 3.55923 9.63068 3.72051 9.59559 3.9171Z" fill="#4B4B4B"/>
<path d="M4.93622 8.74604C5.24865 8.65517 5.60764 8.79823 5.77341 9.07759C5.85236 9.20198 5.88273 9.3493 5.88812 9.49483C6.07572 11.8019 6.27028 14.1086 6.48261 16.4137C6.56359 17.279 6.64479 18.1443 6.74106 19.008C6.78987 19.4028 6.92775 19.8083 7.22601 20.0852C7.50829 20.3477 7.90282 20.4496 8.28025 20.457C10.9034 20.5121 13.5274 20.5099 16.1508 20.4606C16.5437 20.4469 16.9565 20.3407 17.2462 20.0605C17.5413 19.7766 17.6713 19.3657 17.7161 18.9682C17.8517 17.7322 17.9637 16.494 18.0759 15.256C18.2476 13.3362 18.4097 11.4155 18.5661 9.49438C18.5715 9.35448 18.5991 9.21255 18.6727 9.09131C18.84 8.79395 19.2235 8.64505 19.5474 8.75482C19.8767 8.85311 20.1062 9.1995 20.0668 9.54117C19.8455 12.2419 19.6196 14.9422 19.3603 17.6395C19.32 18.0516 19.2789 18.4637 19.2346 18.8755C19.1974 19.2973 19.127 19.7204 18.9669 20.1144C18.7399 20.695 18.3256 21.2051 17.786 21.5216C17.373 21.7679 16.8996 21.9017 16.4225 21.9449C16.2349 21.9631 16.0462 21.9622 15.8579 21.9661C13.5042 22.0059 11.1499 22.0095 8.79624 21.967C8.38372 21.9568 7.96625 21.9699 7.56138 21.8759C6.92685 21.7429 6.33371 21.3974 5.92951 20.8871C5.65802 20.549 5.46908 20.1489 5.35752 19.7309C5.241 19.3065 5.22233 18.8645 5.17127 18.4293C4.87504 15.4696 4.63099 12.5048 4.38717 9.54027C4.34668 9.18803 4.59298 8.83287 4.93622 8.74604Z" fill="#4B4B4B"/>
</svg>
