<svg width="24" height="24" viewBox="0 0 24 24" fill="none" xmlns="http://www.w3.org/2000/svg">
<path d="M9.84403 2.01846C10.0313 1.99326 10.2203 2.00196 10.4084 2.00076C11.7179 2.00106 13.0277 1.99986 14.3372 2.00136C14.8046 1.99776 15.2702 2.16246 15.6296 2.46156C15.9707 2.74206 16.2242 3.13416 16.3172 3.56796C16.4018 3.97866 16.4792 4.39086 16.5656 4.80126C16.6499 5.19216 17.0291 5.49216 17.4281 5.48826C18.5291 5.49246 19.6301 5.48856 20.7311 5.49036C21.1001 5.49336 21.4313 5.81286 21.452 6.18036C21.4934 6.58806 21.1451 6.98676 20.7326 6.98736C15.071 6.98946 9.40933 6.98736 3.74773 6.98826C3.50083 6.99276 3.26083 6.85686 3.12553 6.65256C2.99893 6.46686 2.96533 6.22116 3.03733 6.00816C3.11263 5.77686 3.30463 5.58306 3.54103 5.51886C3.64723 5.48646 3.75943 5.48826 3.86953 5.48766C4.91983 5.49006 5.97013 5.48736 7.02043 5.48826C7.42183 5.49576 7.80493 5.19246 7.88863 4.79976C7.97863 4.37526 8.05603 3.94806 8.14663 3.52356C8.33563 2.73756 9.04243 2.11476 9.84403 2.01846ZM9.67093 3.73326C9.60433 3.82506 9.59113 3.94056 9.56923 4.04826C9.50563 4.36956 9.44053 4.69056 9.37723 5.01186C9.34543 5.17416 9.30103 5.33406 9.24133 5.48826C11.2319 5.49036 13.2227 5.49036 15.2132 5.49006C15.1625 5.35326 15.1169 5.21436 15.089 5.07096C15.0128 4.68816 14.936 4.30566 14.8601 3.92286C14.8208 3.69066 14.6033 3.50796 14.369 3.50226C12.9599 3.49836 11.5505 3.50226 10.1414 3.50016C9.95743 3.49056 9.77383 3.57996 9.67093 3.73326Z" fill="#4B4B4B"/>
<path d="M4.93114 8.7465C5.18194 8.6733 5.46604 8.7486 5.65354 8.9289C5.78884 9.0561 5.86894 9.2361 5.88244 9.4209C6.03634 11.3322 6.19774 13.2429 6.36784 15.153C6.48364 16.4322 6.59764 17.712 6.73864 18.9888C6.78364 19.3812 6.91624 19.7838 7.20484 20.0658C7.48024 20.3337 7.87234 20.4444 8.24854 20.4561C10.8382 20.5116 13.4287 20.5098 16.0183 20.4633C16.4455 20.4663 16.9048 20.3769 17.2276 20.0772C17.5897 19.7448 17.7025 19.2363 17.7379 18.765C17.8936 17.3115 18.022 15.8553 18.1516 14.3991C18.2974 12.7395 18.4375 11.0796 18.5716 9.4191C18.5869 9.1998 18.7 8.9868 18.8815 8.8611C19.0819 8.7174 19.3549 8.676 19.5859 8.7675C19.8949 8.8797 20.1043 9.2145 20.0668 9.5418C19.8265 12.4572 19.585 15.3729 19.2961 18.2844C19.2289 18.8673 19.2112 19.4661 19.0024 20.0217C18.7882 20.6223 18.3784 21.1587 17.8324 21.4935C17.3275 21.8082 16.7293 21.9489 16.1383 21.9609C13.6894 22.0056 11.2399 22.0113 8.79064 21.9666C8.37844 21.9576 7.96084 21.9684 7.55614 21.8754C7.00834 21.7587 6.49144 21.4848 6.10024 21.0822C5.58004 20.5482 5.31094 19.8144 5.23924 19.0815C4.90804 15.906 4.65004 12.7236 4.38694 9.5418C4.34524 9.1917 4.59094 8.8362 4.93114 8.7465Z" fill="#4B4B4B"/>
<path opacity="0.5" d="M6.78712 8.79825C6.87382 8.78565 6.96172 8.79015 7.04902 8.78985C10.5698 8.79105 14.0906 8.78895 17.6111 8.79105C17.8907 8.78805 18.134 9.05175 18.1085 9.33045C17.9015 12.0709 17.6912 14.8111 17.4836 17.5519C17.4452 18.0763 17.4092 18.6079 17.2505 19.1125C17.1668 19.3753 17.0303 19.6354 16.8005 19.7983C16.6031 19.9399 16.3613 20.0002 16.1237 20.0305C15.8204 20.0683 15.5144 20.0686 15.2096 20.0701C13.3496 20.0701 11.4896 20.0701 9.62962 20.0701C9.29002 20.0647 8.94982 20.0827 8.61112 20.0569C8.20162 20.0242 7.78882 19.8598 7.51912 19.5406C7.16212 19.1242 7.04392 18.5632 6.99982 18.0307C6.77452 15.1414 6.57982 12.2497 6.37132 9.35925C6.33622 9.10065 6.52882 8.83875 6.78712 8.79825ZM10.3997 12.1915C10.1597 12.2392 9.97432 12.475 9.99082 12.7204C9.99322 12.8752 10.0775 13.0153 10.1906 13.1164C10.6298 13.5535 11.0672 13.9921 11.5049 14.4301C11.0486 14.8882 10.5899 15.3442 10.1339 15.8023C9.98422 15.9532 9.94792 16.2004 10.043 16.3897C10.1348 16.5808 10.3529 16.7026 10.5641 16.6771C10.6844 16.6654 10.7978 16.6081 10.8818 16.522C11.3342 16.0696 11.7854 15.6154 12.2408 15.166C12.6989 15.6223 13.1543 16.0807 13.6127 16.5364C13.7582 16.6792 13.9916 16.7203 14.1776 16.6369C14.3711 16.5556 14.5019 16.3468 14.4893 16.1371C14.4848 16.0054 14.4254 15.8794 14.3324 15.7876C13.8803 15.3349 13.4273 14.8831 12.9755 14.4301C13.4252 13.9744 13.8812 13.5247 14.3333 13.0714C14.4719 12.9373 14.5274 12.7249 14.465 12.5413C14.4065 12.3436 14.2184 12.1954 14.0132 12.1822C13.8605 12.1678 13.7051 12.2266 13.5989 12.3367C13.1453 12.7888 12.6944 13.2436 12.2396 13.6942C11.7869 13.2427 11.3357 12.79 10.8833 12.3385C10.7606 12.211 10.5725 12.1531 10.3997 12.1915Z" fill="#4B4B4B"/>
</svg>
