<svg width="24" height="24" viewBox="0 0 24 24" fill="none" xmlns="http://www.w3.org/2000/svg">
<path d="M6.63815 1.4101C7.76505 1.28256 8.90049 1.26592 10.0334 1.25354C11.2179 1.24837 12.4024 1.24882 13.5869 1.2513C14.7081 1.25962 15.831 1.26884 16.9484 1.36826C17.861 1.45351 18.7823 1.59949 19.6285 1.96657C20.3779 2.29384 21.0662 2.80533 21.5105 3.50037C21.8798 4.09351 22.1016 4.76537 22.2579 5.44264C22.5553 6.7641 22.6432 8.12132 22.6961 9.47135C22.7267 10.2876 22.7363 11.1048 22.7402 11.9217C22.7435 12.029 22.7379 12.1383 22.7003 12.2398C22.6151 12.4883 22.3931 12.6842 22.1346 12.7333C21.8202 12.7954 21.4733 12.6343 21.3274 12.3471C21.2174 12.1404 21.2432 11.8988 21.2399 11.6736C21.2277 10.3207 21.2066 8.96594 21.0779 7.61838C20.9949 6.79716 20.882 5.9728 20.6337 5.18307C20.5192 4.82475 20.3712 4.47161 20.1483 4.16661C19.8799 3.82674 19.5169 3.57145 19.1282 3.3861C18.4321 3.0631 17.6628 2.94772 16.9055 2.87146C15.773 2.76035 14.6337 2.75945 13.4969 2.75135C12.2368 2.7509 10.9768 2.74393 9.71676 2.75697C8.65802 2.7707 7.5959 2.79139 6.54525 2.93422C5.83268 3.03679 5.1066 3.19964 4.49187 3.59124C3.91582 3.9554 3.48688 4.52807 3.26015 5.16755C2.97314 5.95188 2.88925 6.79064 2.82761 7.61793C2.73179 9.14026 2.75519 10.6662 2.74911 12.1903C2.75316 13.4805 2.74147 14.7718 2.80895 16.0607C2.83054 16.4779 2.86045 16.8952 2.91601 17.3095C2.98102 17.8068 3.07256 18.3039 3.24216 18.7774C3.37937 19.1622 3.57596 19.5295 3.84475 19.8388C3.94641 19.9547 4.05483 20.0671 4.18417 20.1528C4.52651 20.389 4.92576 20.5219 5.32118 20.6384C6.05131 20.8413 6.8037 20.9529 7.55586 21.0343C9.02083 21.1861 10.4948 21.223 11.9665 21.237C12.1516 21.2406 12.3426 21.2896 12.4831 21.4156C12.744 21.6329 12.8248 22.0348 12.6615 22.3337C12.5621 22.5242 12.379 22.6707 12.1685 22.7175C12.0279 22.7481 11.883 22.7339 11.7404 22.7346C10.2928 22.7175 8.84313 22.6765 7.40223 22.5251C6.67189 22.4462 5.94289 22.3407 5.22919 22.1646C4.59579 22.0062 3.96463 21.7973 3.41221 21.4419C3.1234 21.2595 2.87507 21.0199 2.65802 20.7577C2.16542 20.1713 1.84647 19.4564 1.65708 18.7184C1.42158 17.8061 1.34668 16.8619 1.30034 15.9235C1.24861 14.748 1.25086 13.5709 1.24951 12.3943C1.25221 11.697 1.24838 10.9998 1.25333 10.3025C1.2585 9.21471 1.27425 8.1256 1.36895 7.04121C1.45464 6.1145 1.60692 5.17947 1.9839 4.32204C2.37146 3.44279 3.03882 2.68612 3.87601 2.21107C4.7177 1.72815 5.684 1.52324 6.63815 1.4101Z" fill="#4B4B4B"/>
<path d="M17.5314 14.03C17.6095 14.0102 17.6902 14.0025 17.7707 14.0025C18.3551 14.0025 18.9397 14.0025 19.5241 14.0025C19.6813 13.9985 19.843 14.003 19.9908 14.0637C20.2677 14.1701 20.4883 14.4191 20.55 14.7106C20.588 14.8948 20.622 15.08 20.6618 15.2637C20.7002 15.4405 20.8734 15.5757 21.0543 15.5714C21.5415 15.5732 22.0289 15.5721 22.5161 15.5723C22.6423 15.566 22.764 15.6427 22.8224 15.7534C22.9421 15.9574 22.7736 16.2476 22.5377 16.2451C19.996 16.2478 17.454 16.2451 14.9123 16.2464C14.7331 16.2588 14.5642 16.1065 14.559 15.927C14.545 15.7435 14.7047 15.569 14.8898 15.5723C15.3847 15.5701 15.8793 15.5723 16.3742 15.5712C16.555 15.5714 16.7255 15.432 16.7595 15.254C16.7977 15.0728 16.8308 14.8906 16.8692 14.7095C16.9374 14.3815 17.2091 14.1119 17.5314 14.03ZM17.5478 14.8008C17.515 14.8723 17.511 14.9531 17.493 15.0289C17.4527 15.2102 17.4309 15.3962 17.3674 15.5716C18.2622 15.5719 19.157 15.573 20.0518 15.5723C19.9699 15.3357 19.9463 15.084 19.8873 14.8415C19.8594 14.7441 19.7605 14.6742 19.6597 14.678C19.0295 14.6762 18.3992 14.6782 17.7689 14.6769C17.6794 14.6726 17.5904 14.7219 17.5478 14.8008Z" fill="#4B4B4B"/>
<path d="M15.4166 17.0403C15.5615 16.9924 15.7324 17.0583 15.8087 17.1901C15.8658 17.2832 15.8564 17.3969 15.8683 17.5015C15.9736 18.783 16.0799 20.0645 16.2082 21.3439C16.2369 21.576 16.2331 21.8275 16.3683 22.0295C16.4826 22.2148 16.7057 22.3009 16.9158 22.3049C18.1005 22.331 19.2856 22.3291 20.4704 22.3075C20.6514 22.3017 20.8431 22.2525 20.974 22.1202C21.1127 21.983 21.1649 21.7845 21.1838 21.5962C21.3316 20.1719 21.4465 18.7444 21.5664 17.3179C21.5822 17.1674 21.7122 17.0428 21.8615 17.0275C22.0091 17.0061 22.1598 17.0994 22.2133 17.2375C22.2536 17.3268 22.2322 17.426 22.2259 17.5197C22.1252 18.7427 22.023 19.9655 21.9034 21.1869C21.8777 21.4109 21.8658 21.637 21.8256 21.8592C21.7704 22.1658 21.6195 22.4598 21.3804 22.6629C21.2 22.8174 20.9749 22.9139 20.7421 22.9551C20.5554 22.9908 20.3646 22.9814 20.1757 22.987C19.1563 23.0025 18.1367 23.0029 17.1173 22.984C16.9439 22.9813 16.7687 22.9816 16.5989 22.9418C16.317 22.88 16.0545 22.7241 15.8744 22.4973C15.6906 22.2666 15.5941 21.9761 15.5655 21.6848C15.4169 20.2542 15.3001 18.8204 15.182 17.3872C15.1674 17.2356 15.272 17.0844 15.4166 17.0403Z" fill="#4B4B4B"/>
<path opacity="0.5" d="M6.54479 2.93415C7.59544 2.79132 8.65756 2.77063 9.7163 2.75691C10.9764 2.74386 12.2365 2.75084 13.4965 2.75129C14.6333 2.75938 15.7726 2.76028 16.9051 2.8714C17.6624 2.94765 18.4317 3.06304 19.1278 3.38604C19.5165 3.57138 19.8796 3.82668 20.1479 4.16654C20.3708 4.47155 20.5188 4.82469 20.6333 5.183C20.8816 5.97273 20.9945 6.7971 21.0775 7.61832C14.9941 7.61809 8.9106 7.61899 2.82715 7.61787C2.88878 6.79057 2.97268 5.95181 3.25969 5.16748C3.48642 4.52801 3.91536 3.95533 4.49141 3.59117C5.10614 3.19957 5.83221 3.03672 6.54479 2.93415Z" fill="#4B4B4B"/>
<path opacity="0.5" d="M5.36364 10.9459C5.71993 10.9308 6.07734 10.9437 6.43408 10.9394C9.56735 10.9394 12.7004 10.9394 15.8336 10.9394C15.9537 10.9407 16.0765 10.9281 16.194 10.9603C16.3915 11.0145 16.553 11.1843 16.595 11.3852C16.6209 11.5546 16.6054 11.7264 16.6065 11.8971C16.6036 12.183 16.3444 12.4365 16.0595 12.4388C12.58 12.4388 9.10084 12.4388 5.62163 12.4388C5.54043 12.4381 5.45901 12.4428 5.37826 12.4343C5.16098 12.4077 4.96866 12.2426 4.9086 12.0326C4.87351 11.916 4.88656 11.7935 4.88476 11.6738C4.88409 11.5467 4.87531 11.4138 4.9266 11.2943C4.99858 11.1126 5.1711 10.9767 5.36364 10.9459Z" fill="#4B4B4B"/>
<path opacity="0.5" d="M5.29487 14.6787C5.39361 14.6485 5.49798 14.6578 5.59988 14.6569C8.05926 14.6566 10.5186 14.6569 12.978 14.6566C13.2005 14.6506 13.4139 14.7936 13.5035 14.9956C13.5784 15.1679 13.543 15.3604 13.5516 15.5424C13.561 15.7118 13.4976 15.8859 13.3719 16.0017C13.2673 16.1018 13.1233 16.1571 12.9789 16.1562C10.4671 16.156 7.95556 16.1565 5.444 16.156C5.20445 16.156 4.97817 15.9844 4.91047 15.7552C4.86525 15.5836 4.89157 15.4034 4.8855 15.2282C4.8801 14.9799 5.05689 14.7462 5.29487 14.6787Z" fill="#4B4B4B"/>
<path opacity="0.5" d="M16.2512 17.0665C16.4791 17.0533 16.7085 17.065 16.937 17.0611C18.3313 17.0609 19.7257 17.0611 21.12 17.0609C21.2136 17.0573 21.3076 17.1192 21.3369 17.2089C21.3436 17.343 21.3418 17.4782 21.3247 17.6113C21.2476 18.6979 21.1565 19.7832 21.0795 20.8696C21.0507 21.1661 21.0498 21.4718 20.9453 21.755C20.8964 21.8863 20.8029 22.0071 20.6684 22.0577C20.4911 22.127 20.2961 22.1234 20.1087 22.1257C19.1334 22.1257 18.1584 22.1263 17.1831 22.1254C16.9737 22.1284 16.7508 22.064 16.6082 21.9034C16.4509 21.7358 16.3945 21.5024 16.3677 21.2806C16.2647 19.9535 16.1725 18.6251 16.0809 17.2975C16.0683 17.192 16.1495 17.0897 16.2512 17.0665ZM17.7024 18.8711C17.7236 18.9521 17.7913 19.0057 17.8475 19.0626C18.0241 19.2391 18.2013 19.415 18.377 19.5925C18.2153 19.7603 18.0475 19.9222 17.8837 20.0882C17.8187 20.1589 17.7297 20.2169 17.7047 20.3152C17.6575 20.4621 17.7985 20.6231 17.9487 20.6121C18.0407 20.613 18.1055 20.5397 18.1647 20.4792C18.3478 20.2958 18.5302 20.1119 18.7146 19.9299C18.9173 20.1314 19.1191 20.3339 19.321 20.5361C19.3618 20.5784 19.4169 20.6081 19.4765 20.6114C19.6078 20.6247 19.7309 20.5077 19.7338 20.3779C19.7372 20.3051 19.6976 20.2374 19.6467 20.1883C19.4483 19.9895 19.2475 19.7934 19.0522 19.5916C19.2538 19.3887 19.4567 19.1869 19.6589 18.9847C19.7239 18.9245 19.7525 18.8255 19.7207 18.7414C19.6805 18.619 19.5282 18.5342 19.4074 18.5938C19.3341 18.6206 19.2882 18.6874 19.2331 18.7387C19.0592 18.9101 18.8903 19.0866 18.7133 19.2547C18.536 19.0797 18.3608 18.9026 18.1845 18.7267C18.13 18.6739 18.081 18.6087 18.0047 18.5875C17.8415 18.5232 17.653 18.7049 17.7024 18.8711Z" fill="#4B4B4B"/>
</svg>
