<svg width="24" height="24" viewBox="0 0 24 24" fill="none" xmlns="http://www.w3.org/2000/svg">
<path d="M13.623 7.52264C13.8513 7.28906 14.1984 7.18281 14.5188 7.24323C14.8339 7.29636 15.1141 7.51169 15.2516 7.79962C15.4398 8.17595 15.3579 8.6634 15.0561 8.95659C12.8797 11.1335 10.7028 13.3104 8.52631 15.4868C8.36005 15.6486 8.20716 15.8384 7.98615 15.928C7.61144 16.0984 7.14143 16.0067 6.85594 15.7107C5.96864 14.8262 5.08418 13.9389 4.19769 13.0537C4.04562 12.9073 3.92761 12.7207 3.88625 12.5119C3.79825 12.138 3.95113 11.7243 4.2569 11.4932C4.63283 11.1902 5.22571 11.2186 5.57001 11.5577C6.24075 12.2264 6.90947 12.8971 7.57981 13.5662C9.59407 11.552 11.6091 9.53772 13.623 7.52264Z" fill="#4B4B4B"/>
<path d="M18.4088 8.28046C18.6371 8.04687 18.9842 7.94062 19.3046 8.00105C19.6197 8.05417 19.8999 8.26951 20.0374 8.55743C20.2255 8.93376 20.1436 9.42121 19.8419 9.71441C17.6654 11.8913 15.4885 14.0682 13.3121 16.2446C13.1458 16.4065 12.9929 16.5962 12.7719 16.6859C12.3972 16.8562 11.9272 16.7645 11.6417 16.4685C10.7544 15.584 11.4736 16.3004 10.5871 15.4151C10.435 15.2687 10.5976 15.431 10.1989 14.9702C9.94767 14.719 9.75391 14.747 10.6463 13.8546C11.3301 13.1708 11.6151 13.5801 11.9594 13.9191C12.6301 14.5878 11.6952 13.6549 12.3656 14.3241C14.3798 12.3098 16.3949 10.2955 18.4088 8.28046Z" fill="#4B4B4B"/>
</svg>
