<svg width="24" height="24" viewBox="0 0 24 24" fill="none" xmlns="http://www.w3.org/2000/svg">
<path d="M7.38718 1.27139C8.58478 1.24049 9.78268 1.25099 10.9806 1.25219C11.6622 1.26269 12.3552 1.27919 13.0137 1.47479C13.5216 1.62359 13.9845 1.89539 14.4036 2.21399C14.8629 2.56139 15.2871 2.95169 15.7161 3.33479C17.3199 4.77989 18.9264 6.22199 20.529 7.6686C20.8986 8.0082 21.2667 8.3517 21.5988 8.7291C21.9636 9.1425 22.2744 9.6123 22.4532 10.1367C22.7007 10.8498 22.7295 11.6133 22.7451 12.3606C22.7538 13.1211 22.7475 13.8816 22.7493 14.6418C22.7484 15.5613 22.7469 16.4814 22.6962 17.4C22.6374 18.3564 22.5351 19.3341 22.1409 20.2185C21.7932 21.0057 21.1695 21.6672 20.4 22.0536C19.917 22.2999 19.3896 22.4463 18.8577 22.5399C18.129 22.6659 17.3889 22.7043 16.6512 22.7274C15.2016 22.7643 13.7514 22.7436 12.3015 22.749C10.7511 22.7442 9.20038 22.7613 7.65028 22.7349C6.90388 22.7175 6.15568 22.6881 5.41528 22.5834C4.79008 22.4925 4.16518 22.3422 3.59998 22.053C3.08728 21.7941 2.63608 21.4158 2.29198 20.9559C1.98748 20.5527 1.77538 20.0862 1.63228 19.6032C1.43908 18.9459 1.36168 18.2616 1.31488 17.58C1.26808 16.8612 1.25848 16.1409 1.25248 15.4209C1.24828 14.241 1.25158 13.0608 1.25068 11.8806C1.25278 10.6299 1.24498 9.3792 1.25638 8.1288C1.26868 7.3173 1.28698 6.50429 1.37968 5.69759C1.45978 5.01929 1.59628 4.33799 1.88908 3.71669C2.20648 3.03209 2.73388 2.44649 3.38518 2.06429C3.91978 1.74749 4.52488 1.57019 5.13328 1.46219C5.87728 1.33259 6.63328 1.29419 7.38718 1.27139ZM5.62618 2.90189C5.18548 2.96759 4.74238 3.06179 4.33798 3.25499C3.89248 3.46379 3.51808 3.82079 3.29428 4.2594C3.07048 4.6884 2.96878 5.16809 2.89888 5.64329C2.79988 6.35729 2.77708 7.07909 2.76208 7.7988C2.75218 8.3688 2.75008 8.9391 2.75068 9.5094C2.75068 11.1093 2.75068 12.7092 2.75068 14.3091C2.75008 15.0597 2.75068 15.81 2.77048 16.5603C2.79418 17.3145 2.82658 18.0735 2.97928 18.8145C3.08608 19.3221 3.27028 19.833 3.62788 20.22C3.98938 20.6286 4.50598 20.8608 5.02858 20.9847C5.79838 21.1662 6.59248 21.2004 7.37998 21.2277C8.91928 21.2649 10.4592 21.2433 11.9988 21.249C13.5591 21.2427 15.1197 21.2661 16.6794 21.2259C17.4045 21.2007 18.1338 21.1644 18.8454 21.0141C19.3368 20.9073 19.8297 20.727 20.2068 20.3838C20.553 20.0814 20.7816 19.6644 20.9136 19.2285C21.0912 18.6468 21.15 18.0378 21.1917 17.4339C21.2454 16.5534 21.2466 15.6714 21.2493 14.7897C21.2466 13.9407 21.2568 13.0914 21.2406 12.2424C21.2223 11.742 21.2202 11.2281 21.0717 10.7469C20.9088 10.1271 20.4363 9.6654 19.9998 9.2244C18.7359 8.0553 17.4447 6.91559 16.1682 5.75999C15.3633 5.04389 14.5767 4.30709 13.7535 3.61199C13.3203 3.24959 12.8286 2.90819 12.2535 2.83949L12.2538 2.83499C11.8923 2.77349 11.5245 2.76569 11.1591 2.75639C10.1193 2.74559 9.07918 2.74799 8.03938 2.75819C7.23388 2.77199 6.42538 2.79029 5.62618 2.90189Z" fill="#4B4B4B"/>
<path opacity="0.5" d="M12.2527 5.84614C12.2518 4.84264 12.2458 3.83914 12.2551 2.83594C12.8302 2.90464 13.3219 3.24604 13.7551 3.60844C13.7464 4.42354 13.7512 5.23894 13.7548 6.05434C13.7611 6.54064 13.768 7.02814 13.8208 7.51204C13.8574 7.82344 13.9081 8.13994 14.0446 8.42524C14.1667 8.68024 14.3884 8.88274 14.65 8.98804C14.9896 9.12664 15.3586 9.16774 15.7213 9.19954C16.3699 9.24784 17.0209 9.24394 17.671 9.24544C18.3916 9.24574 19.1119 9.24484 19.8325 9.24574C19.8892 9.24364 19.951 9.25504 20.0014 9.22084C20.4379 9.66184 20.9104 10.1235 21.0733 10.7433C19.8388 10.7487 18.6046 10.7439 17.3701 10.7457C16.6792 10.7418 15.9862 10.7409 15.2986 10.6653C14.8 10.608 14.2975 10.5027 13.8499 10.2675C13.3384 10.0044 12.9208 9.56614 12.6784 9.04474C12.463 8.58694 12.37 8.08264 12.3199 7.58224C12.2638 7.00534 12.2575 6.42514 12.2527 5.84614Z" fill="#4B4B4B"/>
<path opacity="0.5" d="M5.89219 13.752C6.39859 13.7328 6.90649 13.7487 7.41349 13.7436C9.60199 13.7436 11.7905 13.7436 13.979 13.7436C14.2118 13.7373 14.4455 13.8438 14.5889 14.0283C14.75 14.2281 14.7962 14.5134 14.705 14.7537C14.6039 15.0384 14.3156 15.2457 14.0123 15.2439C11.4218 15.2436 8.83129 15.2439 6.24109 15.2436C6.07279 15.2403 5.89789 15.2616 5.73769 15.1974C5.42659 15.0855 5.21659 14.751 5.25439 14.4222C5.28079 14.0874 5.55919 13.7946 5.89219 13.752Z" fill="#4B4B4B"/>
<path opacity="0.5" d="M5.83295 17.2631C5.88785 17.2502 5.94455 17.2445 6.00095 17.2445C7.78055 17.2445 9.56015 17.2445 11.3397 17.2445C11.529 17.2358 11.7291 17.2472 11.8923 17.3552C12.2004 17.5355 12.336 17.9501 12.1953 18.278C12.0873 18.548 11.8116 18.7412 11.52 18.7439C9.67985 18.7451 7.83995 18.7442 5.99975 18.7445C5.79635 18.7457 5.59475 18.6587 5.45645 18.5099C5.28125 18.3308 5.21075 18.0593 5.27135 17.8172C5.33435 17.5463 5.56145 17.3222 5.83295 17.2631Z" fill="#4B4B4B"/>
</svg>
