<svg width="24" height="24" viewBox="0 0 24 24" fill="none" xmlns="http://www.w3.org/2000/svg">
<path d="M7.30066 1.27389C8.85676 1.23369 10.4137 1.25679 11.9704 1.25079C13.1206 1.25199 14.2711 1.24809 15.4213 1.25289C16.1401 1.25799 16.8592 1.26789 17.5768 1.31469C18.2143 1.35819 18.8536 1.42899 19.4722 1.59549C19.9603 1.72659 20.4343 1.92549 20.8501 2.21559C21.2668 2.50449 21.6226 2.88009 21.8908 3.31059C22.1203 3.67869 22.2829 4.08579 22.3981 4.50339C22.5796 5.16699 22.6501 5.85489 22.693 6.53949C22.7716 7.9582 22.7437 9.37929 22.7494 10.7992C22.7488 11.4907 22.7542 12.1843 22.6738 12.8722C22.6096 13.4137 22.4674 13.9516 22.2007 14.4298C21.9277 14.926 21.5473 15.3526 21.1453 15.7474C20.7544 16.1371 20.3395 16.5016 19.9306 16.8718C18.4885 18.1693 17.047 19.4674 15.6046 20.7643C15.2401 21.091 14.8768 21.4195 14.4907 21.7204C14.0698 22.045 13.612 22.3348 13.102 22.4968C12.5056 22.6933 11.8723 22.7269 11.2492 22.7437C10.6597 22.7545 10.0699 22.7476 9.48047 22.7494C8.62006 22.7497 7.75966 22.7479 6.89986 22.7107C6.29656 22.6837 5.69296 22.6372 5.09776 22.5313C4.45786 22.4155 3.82216 22.2184 3.27106 21.8656C2.58016 21.4273 2.04946 20.7538 1.76356 19.9891C1.54456 19.4206 1.43656 18.8164 1.36966 18.2131C1.28596 17.425 1.26706 16.6318 1.25656 15.8401C1.24666 14.9404 1.25236 14.0407 1.25086 13.141C1.25206 11.6209 1.24816 10.1008 1.25296 8.58069C1.26076 7.70919 1.27036 6.83649 1.35136 5.96859C1.42066 5.25129 1.54066 4.52919 1.82386 3.86229C2.13226 3.12429 2.67676 2.48589 3.36466 2.07609C3.89506 1.75809 4.49566 1.57689 5.10076 1.46739C5.82676 1.33779 6.56476 1.29789 7.30066 1.27389ZM5.28496 2.95929C4.83886 3.04659 4.39036 3.18099 4.01296 3.44229C3.68026 3.67029 3.41476 3.99159 3.24586 4.35759C3.01936 4.84389 2.92726 5.37939 2.86696 5.90859C2.76586 6.79509 2.76196 7.68879 2.75416 8.58009C2.74636 10.4098 2.75296 12.2398 2.75056 14.0695C2.75086 15.0298 2.74696 15.9904 2.78386 16.9504C2.80816 17.5537 2.85046 18.1591 2.96656 18.7528C3.06346 19.2349 3.22126 19.72 3.53266 20.1088C3.82726 20.4871 4.25296 20.7478 4.70656 20.8924C5.30836 21.0862 5.94196 21.1483 6.56956 21.1912C7.47826 21.2473 8.38936 21.247 9.29926 21.2494C9.99376 21.2473 10.6885 21.2569 11.383 21.2374C11.3839 20.5285 11.383 19.8196 11.3833 19.1107C11.3848 18.3205 11.3755 17.5294 11.4142 16.7398C11.4478 16.1401 11.5075 15.5317 11.7241 14.9668C11.9143 14.4577 12.2632 14.0083 12.7126 13.702C13.1674 13.3909 13.711 13.2421 14.251 13.1668C14.9167 13.0777 15.5893 13.0702 16.2598 13.0651C17.8813 13.0606 19.5028 13.0645 21.1243 13.063C21.1885 12.7729 21.211 12.4759 21.226 12.1795C21.2545 11.5498 21.2491 10.9189 21.2497 10.2886C21.2488 9.33489 21.2551 8.38119 21.2293 7.42779C21.2065 6.68859 21.1729 5.94549 21.0277 5.21829C20.9275 4.73259 20.7628 4.24359 20.4403 3.85779C20.1478 3.49659 19.7335 3.24879 19.2943 3.10749C18.7024 2.91609 18.079 2.85279 17.461 2.81049C16.7617 2.76519 16.0606 2.75769 15.3601 2.75289C14.2396 2.74809 13.1194 2.75169 11.9989 2.75049C10.5994 2.75499 9.19996 2.73999 7.80046 2.76249C6.95986 2.78289 6.11386 2.80329 5.28496 2.95929ZM15.8119 14.5705C15.2599 14.5825 14.7031 14.5933 14.1604 14.7052C13.8493 14.7721 13.5292 14.8978 13.3255 15.154C13.0894 15.4438 13.0165 15.8236 12.967 16.1842C12.8743 16.9351 12.8911 17.6935 12.8833 18.4486C12.8833 19.2904 12.883 20.1325 12.8833 20.9746C13.3237 20.7631 13.6978 20.4424 14.0632 20.1235C14.8513 19.432 15.6259 18.7252 16.4068 18.0256C17.2804 17.2393 18.1534 16.4521 19.0276 15.6661C19.4257 15.3043 19.8289 14.947 20.2066 14.5633C18.7417 14.5651 17.2768 14.5555 15.8119 14.5705Z" fill="#4B4B4B"/>
<path d="M5.89446 6.25882C5.94006 6.25282 5.98596 6.25161 6.03186 6.25101C8.60166 6.25131 11.1718 6.25101 13.7419 6.25101C13.9 6.25191 14.0623 6.23751 14.2162 6.28251C14.4523 6.35301 14.6479 6.54651 14.7181 6.78321C14.7937 7.02291 14.7355 7.29951 14.5705 7.48911C14.4325 7.65202 14.2219 7.75191 14.0077 7.75101C11.3383 7.75101 8.66856 7.75071 5.99916 7.75131C5.74266 7.75461 5.49156 7.61211 5.35986 7.39281C5.24376 7.20411 5.21736 6.96261 5.29176 6.75381C5.37966 6.49402 5.62236 6.29452 5.89446 6.25882Z" fill="#4B4B4B"/>
<path d="M5.83264 9.76869C5.89744 9.75459 5.96373 9.75069 6.03003 9.74979C7.80033 9.75039 9.57095 9.75009 11.3412 9.74979C11.4606 9.75099 11.583 9.74169 11.6991 9.77679C11.8899 9.83019 12.0597 9.95979 12.1551 10.1344C12.2814 10.3567 12.282 10.6453 12.1551 10.8676C12.0246 11.1037 11.7585 11.2585 11.4882 11.2504C9.65884 11.2498 7.82973 11.2501 6.00062 11.2501C5.78912 11.2528 5.57972 11.1577 5.44052 10.999C5.27642 10.8199 5.21252 10.5571 5.27162 10.3219C5.33462 10.0516 5.56234 9.82899 5.83264 9.76869Z" fill="#4B4B4B"/>
<path opacity="0.35" d="M6.89925 3.08619C7.84935 3.05019 8.80035 3.06279 9.75105 3.06009C11.8505 3.06189 13.9499 3.05619 16.0493 3.06309C16.7705 3.07179 17.4944 3.08049 18.2102 3.17649C18.7229 3.24819 19.2431 3.37389 19.6814 3.66099C20.0744 3.91689 20.3801 4.29849 20.5565 4.73199C20.7653 5.23959 20.8361 5.78979 20.8811 6.33279C20.9363 7.06059 20.9354 7.79079 20.9399 8.52039C20.9396 9.93009 20.9402 11.3401 20.9396 12.7498C19.3196 12.7516 17.6996 12.7474 16.0796 12.7522C15.3401 12.7603 14.5982 12.7657 13.8635 12.8581C13.3442 12.9271 12.8159 13.0441 12.3674 13.3264C11.9624 13.5781 11.645 13.9618 11.462 14.4013C11.2337 14.9458 11.165 15.5401 11.1215 16.1242C11.072 16.858 11.0729 17.5936 11.0699 18.3286C11.0699 19.1989 11.0702 20.0695 11.0696 20.9398C10.2098 20.9404 9.35025 20.9398 8.49045 20.9401C7.71885 20.935 6.94605 20.9365 6.17685 20.8681C5.63535 20.8156 5.08455 20.7307 4.58985 20.4925C4.15335 20.2849 3.78705 19.9354 3.55815 19.51C3.32265 19.0735 3.22245 18.58 3.16095 18.0925C3.07335 17.3551 3.06855 16.6114 3.06165 15.8701C3.05805 13.3705 3.06015 10.8709 3.06045 8.37159C3.06705 7.52499 3.06405 6.67539 3.17025 5.83419C3.24945 5.23839 3.40155 4.62399 3.78555 4.14669C4.11645 3.72399 4.60365 3.44679 5.11785 3.31119C5.69805 3.15399 6.30135 3.11289 6.89925 3.08619ZM5.89425 6.25899C5.62215 6.29469 5.37945 6.49419 5.29155 6.75399C5.21715 6.96279 5.24355 7.20429 5.35965 7.39299C5.49135 7.61229 5.74245 7.75479 5.99895 7.75149C8.66835 7.75089 11.3381 7.75119 14.0075 7.75119C14.2217 7.75209 14.4323 7.65219 14.5703 7.48929C14.7353 7.29969 14.7935 7.02309 14.7179 6.78339C14.6477 6.54669 14.4521 6.35319 14.216 6.28269C14.0621 6.23769 13.8998 6.25209 13.7417 6.25119C11.1716 6.25119 8.60145 6.25149 6.03165 6.25119C5.98575 6.25179 5.93985 6.25299 5.89425 6.25899ZM5.83245 9.76869C5.56215 9.82899 5.33445 10.0516 5.27145 10.3219C5.21235 10.5571 5.27625 10.8199 5.44035 10.999C5.57955 11.1577 5.78895 11.2528 6.00045 11.2501C7.82955 11.2501 9.65865 11.2498 11.4881 11.2504C11.7584 11.2585 12.0245 11.1037 12.155 10.8676C12.2819 10.6453 12.2813 10.3567 12.155 10.1344C12.0596 9.95979 11.8898 9.83019 11.699 9.77679C11.5829 9.74169 11.4605 9.75099 11.3411 9.74979C9.57075 9.75009 7.80015 9.75039 6.02985 9.74979C5.96355 9.75069 5.89725 9.75459 5.83245 9.76869Z" fill="#4B4B4B"/>
<path opacity="0.35" d="M14.1425 14.9595C14.5298 14.859 14.9336 14.8599 15.3308 14.8518C16.7402 14.8476 18.1496 14.8509 19.559 14.8503C17.4503 16.6605 15.3407 18.4698 13.2308 20.2791C13.2293 19.3791 13.2305 18.4794 13.2302 17.5797C13.2311 17.1648 13.2257 16.7493 13.253 16.335C13.2773 16.0251 13.3148 15.7014 13.4792 15.4299C13.6241 15.1899 13.874 15.0279 14.1425 14.9595Z" fill="#4B4B4B"/>
</svg>
