<svg width="24" height="24" viewBox="0 0 24 24" fill="none" xmlns="http://www.w3.org/2000/svg">
<path d="M7.29991 1.27381C8.48581 1.23991 9.67231 1.25341 10.8585 1.25071C12.2589 1.25071 13.6593 1.25071 15.0597 1.25071C15.8805 1.25521 16.7019 1.26001 17.5212 1.31101C18.177 1.35391 18.8349 1.42411 19.4709 1.59511C20.0226 1.74271 20.5566 1.97851 21.0084 2.33191C21.456 2.67871 21.8223 3.12931 22.0725 3.63751C22.3338 4.16251 22.4787 4.73731 22.5687 5.31451C22.6746 6.00751 22.7091 6.70891 22.7295 7.40911C22.7562 8.40931 22.7481 9.41011 22.7493 10.4106C22.7472 11.1318 22.7613 11.8539 22.704 12.5733C22.6578 13.1418 22.551 13.7142 22.3017 14.2311C22.0629 14.7405 21.7011 15.18 21.3114 15.5811C20.9109 15.9921 20.4825 16.374 20.0568 16.758C18.4722 18.183 16.8894 19.6104 15.3036 21.0342C14.7936 21.4827 14.2773 21.9384 13.6722 22.2564C13.2195 22.497 12.7158 22.6284 12.2082 22.6851C11.5215 22.761 10.8297 22.7475 10.1403 22.7493C9.25051 22.749 8.36071 22.7535 7.47121 22.7307C6.71731 22.7094 5.96161 22.6734 5.21641 22.5519C4.60741 22.4502 4.00111 22.2822 3.45991 21.9786C2.96791 21.7035 2.54011 21.3159 2.21791 20.8536C1.89091 20.3877 1.68211 19.8486 1.55071 19.2975C1.39801 18.6564 1.33771 17.9976 1.30051 17.3406C1.25971 16.5813 1.25461 15.8205 1.25071 15.0603C1.25071 13.7901 1.25071 12.5199 1.25071 11.2497C1.25401 10.0092 1.23991 8.76871 1.26751 7.52851C1.28611 6.81301 1.31821 6.09571 1.42051 5.38651C1.51411 4.75621 1.66921 4.12591 1.96801 3.55921C2.32891 2.86201 2.91631 2.28601 3.61891 1.93651C4.14811 1.67011 4.72861 1.52281 5.31151 1.43191C5.96941 1.33081 6.63541 1.29511 7.29991 1.27381ZM6.87001 2.79151C6.29821 2.82031 5.72461 2.86471 5.16331 2.98381C4.76671 3.07051 4.37131 3.19951 4.03261 3.42901C3.74101 3.62521 3.49741 3.89131 3.32701 4.19851C3.09571 4.61551 2.98561 5.08651 2.91241 5.55391C2.75131 6.66481 2.76331 7.79071 2.75071 8.91031C2.75071 10.5204 2.75071 12.1308 2.75071 13.7412C2.75131 14.6307 2.74651 15.5199 2.76661 16.4094C2.78611 17.1525 2.81461 17.8989 2.94331 18.6324C3.03991 19.1616 3.19921 19.7001 3.54481 20.1237C3.82801 20.4801 4.22731 20.7306 4.65601 20.8752C5.23381 21.0711 5.84551 21.1371 6.45091 21.1833C7.37851 21.246 8.30851 21.2463 9.23791 21.2493C9.95191 21.2463 10.6662 21.258 11.3799 21.237C11.8866 21.2202 12.4122 21.195 12.8787 20.9757C13.3998 20.7297 13.8225 20.3274 14.2557 19.9569C15.8499 18.531 17.4363 17.0964 19.0272 15.6663C19.4262 15.303 19.8315 14.9457 20.2089 14.5596H20.2101C20.6325 14.1468 21.0111 13.6521 21.1248 13.0593C21.1911 12.7605 21.2121 12.4536 21.2274 12.1488C21.2529 11.5599 21.249 10.9704 21.2493 10.3812C21.2484 9.42091 21.255 8.46061 21.2313 7.50061C21.2103 6.77671 21.18 6.04951 21.0507 5.33551C20.9514 4.80301 20.784 4.26181 20.4276 3.84271C20.1261 3.47761 19.7016 3.23221 19.2531 3.09421C18.6537 2.90701 18.024 2.84791 17.4003 2.80621C16.5912 2.75761 15.7803 2.75491 14.9703 2.75071C13.5408 2.75071 12.111 2.75071 10.6815 2.75071C9.41101 2.75461 8.13991 2.73541 6.87001 2.79151Z" fill="#4B4B4B"/>
<path opacity="0.5" d="M5.89224 6.25922C5.93784 6.25322 5.98404 6.25112 6.03054 6.25082C8.58024 6.25112 11.1299 6.25082 13.6796 6.25112C13.8317 6.25532 13.9856 6.23972 14.1365 6.26402C14.4023 6.31022 14.6324 6.51242 14.7134 6.76952C14.7977 7.02002 14.7356 7.31312 14.5547 7.50632C14.4176 7.65932 14.2145 7.75172 14.0084 7.75142C11.3396 7.75142 8.67054 7.75112 6.00144 7.75142C5.76564 7.75532 5.53434 7.63622 5.39574 7.44632C5.25144 7.25282 5.21034 6.98762 5.29044 6.75962C5.37624 6.49772 5.61894 6.29582 5.89224 6.25922Z" fill="#4B4B4B"/>
<path opacity="0.5" d="M5.88566 9.75915C5.97356 9.74565 6.06296 9.75135 6.15176 9.75045C7.93106 9.75045 9.71066 9.75075 11.49 9.75045C11.7453 9.74415 11.9973 9.88125 12.1329 10.0972C12.2676 10.3051 12.2877 10.5802 12.186 10.8058C12.0687 11.0743 11.7846 11.2582 11.4912 11.2504C9.66026 11.2504 7.82936 11.2504 5.99876 11.2504C5.79536 11.2513 5.59376 11.1643 5.45576 11.0152C5.28086 10.8358 5.21066 10.5643 5.27156 10.3222C5.33846 10.0339 5.59226 9.80055 5.88566 9.75915Z" fill="#4B4B4B"/>
<path opacity="0.5" d="M14.3692 13.1514C15.157 13.059 15.952 13.0686 16.7437 13.0626C18.2053 13.0626 19.6669 13.0623 21.1285 13.0626C21.0148 13.6554 20.6362 14.1501 20.2138 14.5629H20.2126C18.7561 14.5653 17.2999 14.556 15.8434 14.5698C15.3175 14.5803 14.7883 14.5914 14.269 14.6832C13.9276 14.7459 13.5694 14.862 13.3393 15.1374C13.081 15.441 13.012 15.8502 12.9604 16.233C12.8749 16.9803 12.8905 17.7339 12.883 18.4845C12.8827 19.3161 12.8839 20.1474 12.8824 20.979C12.4159 21.1983 11.8903 21.2235 11.3836 21.2403C11.3821 20.481 11.3833 19.7217 11.383 18.9624C11.3848 18.2127 11.377 17.4627 11.4154 16.7136C11.4508 16.0998 11.5156 15.4749 11.7502 14.9007C11.953 14.3982 12.3115 13.9596 12.7672 13.6659C13.2451 13.3569 13.8103 13.2192 14.3692 13.1514Z" fill="#4B4B4B"/>
</svg>
