<svg width="24" height="24" viewBox="0 0 24 24" fill="none" xmlns="http://www.w3.org/2000/svg">
<path d="M7.29994 1.27357C8.48584 1.23967 9.67234 1.25317 10.8585 1.25047C12.2589 1.25047 13.6593 1.25047 15.0597 1.25047C15.8805 1.25497 16.7019 1.25977 17.5212 1.31077C18.177 1.35367 18.8349 1.42387 19.4709 1.59487C20.0226 1.74247 20.5566 1.97827 21.0084 2.33167C21.456 2.67847 21.8223 3.12907 22.0725 3.63727C22.3338 4.16227 22.4787 4.73707 22.5687 5.31427C22.6746 6.00727 22.7091 6.70867 22.7295 7.40887C22.7562 8.40907 22.7481 9.40987 22.7493 10.4104C22.7472 11.1316 22.7613 11.8537 22.704 12.5731C22.6578 13.1416 22.551 13.714 22.3017 14.2309C22.0629 14.7403 21.7011 15.1798 21.3114 15.5809C20.9109 15.9919 20.4825 16.3738 20.0568 16.7578C18.4722 18.1828 16.8894 19.6102 15.3036 21.034C14.7936 21.4825 14.2773 21.9382 13.6722 22.2562C13.2195 22.4968 12.7158 22.6282 12.2082 22.6849C11.5215 22.7608 10.8297 22.7473 10.1403 22.7491C9.25054 22.7488 8.36074 22.7533 7.47124 22.7305C6.71734 22.7092 5.96164 22.6732 5.21644 22.5517C4.60744 22.45 4.00114 22.282 3.45994 21.9784C2.96794 21.7033 2.54014 21.3157 2.21794 20.8534C1.89094 20.3875 1.68214 19.8484 1.55074 19.2973C1.39804 18.6562 1.33774 17.9974 1.30054 17.3404C1.25974 16.5811 1.25464 15.8203 1.25074 15.0601C1.25074 13.7899 1.25074 12.5197 1.25074 11.2495C1.25404 10.009 1.23994 8.76847 1.26754 7.52827C1.28614 6.81277 1.31824 6.09547 1.42054 5.38627C1.51414 4.75597 1.66924 4.12567 1.96804 3.55897C2.32894 2.86177 2.91634 2.28577 3.61894 1.93627C4.14814 1.66987 4.72864 1.52257 5.31154 1.43167C5.96944 1.33057 6.63544 1.29487 7.29994 1.27357ZM6.87004 2.79127C6.29824 2.82007 5.72464 2.86447 5.16334 2.98357C4.76674 3.07027 4.37134 3.19927 4.03264 3.42877C3.74104 3.62497 3.49744 3.89107 3.32704 4.19827C3.09574 4.61527 2.98564 5.08627 2.91244 5.55367C2.75134 6.66457 2.76334 7.79047 2.75074 8.91007C2.75074 10.5202 2.75074 12.1306 2.75074 13.741C2.75134 14.6305 2.74654 15.5197 2.76664 16.4092C2.78614 17.1523 2.81464 17.8987 2.94334 18.6322C3.03994 19.1614 3.19924 19.6999 3.54484 20.1235C3.82804 20.4799 4.22734 20.7304 4.65604 20.875C5.23384 21.0709 5.84554 21.1369 6.45094 21.1831C7.37854 21.2458 8.30854 21.2461 9.23794 21.2491C9.95194 21.2461 10.6662 21.2578 11.3799 21.2368C11.8866 21.22 12.4122 21.1948 12.8787 20.9755C13.3998 20.7295 13.8225 20.3272 14.2557 19.9567C15.8499 18.5308 17.4363 17.0962 19.0272 15.6661C19.4262 15.3028 19.8315 14.9455 20.2089 14.5594H20.2101C20.6325 14.1466 21.0111 13.6519 21.1248 13.0591C21.1911 12.7603 21.2121 12.4534 21.2274 12.1486C21.2529 11.5597 21.249 10.9702 21.2493 10.381C21.2484 9.42067 21.255 8.46037 21.2313 7.50037C21.2103 6.77647 21.18 6.04927 21.0507 5.33527C20.9514 4.80277 20.784 4.26157 20.4276 3.84247C20.1261 3.47737 19.7016 3.23197 19.2531 3.09397C18.6537 2.90677 18.024 2.84767 17.4003 2.80597C16.5912 2.75737 15.7803 2.75467 14.9703 2.75047C13.5408 2.75047 12.111 2.75047 10.6815 2.75047C9.41104 2.75437 8.13994 2.73517 6.87004 2.79127Z" fill="#4B4B4B"/>
<path opacity="0.5" d="M5.89218 6.25922C5.93778 6.25322 5.98398 6.25112 6.03048 6.25082C8.58018 6.25112 11.1299 6.25082 13.6796 6.25112C13.8317 6.25532 13.9856 6.23972 14.1365 6.26402C14.4023 6.31022 14.6324 6.51242 14.7134 6.76952C14.7977 7.02002 14.7356 7.31312 14.5547 7.50632C14.4176 7.65932 14.2145 7.75172 14.0084 7.75142C11.3396 7.75142 8.67048 7.75112 6.00138 7.75142C5.76558 7.75532 5.53428 7.63622 5.39568 7.44632C5.25138 7.25282 5.21028 6.98762 5.29038 6.75962C5.37618 6.49772 5.61888 6.29582 5.89218 6.25922Z" fill="#4B4B4B"/>
<path opacity="0.5" d="M5.88566 9.75915C5.97356 9.74565 6.06296 9.75135 6.15176 9.75045C7.93106 9.75045 9.71066 9.75075 11.49 9.75045C11.7453 9.74415 11.9973 9.88125 12.1329 10.0972C12.2676 10.3051 12.2877 10.5802 12.186 10.8058C12.0687 11.0743 11.7846 11.2582 11.4912 11.2504C9.66026 11.2504 7.82936 11.2504 5.99876 11.2504C5.79536 11.2513 5.59376 11.1643 5.45576 11.0152C5.28086 10.8358 5.21066 10.5643 5.27156 10.3222C5.33846 10.0339 5.59226 9.80055 5.88566 9.75915Z" fill="#4B4B4B"/>
<path opacity="0.5" d="M14.3692 13.1514C15.157 13.059 15.952 13.0686 16.7437 13.0626C18.2053 13.0626 19.6669 13.0623 21.1285 13.0626C21.0148 13.6554 20.6362 14.1501 20.2138 14.5629H20.2126C18.7561 14.5653 17.2999 14.556 15.8434 14.5698C15.3175 14.5803 14.7883 14.5914 14.269 14.6832C13.9276 14.7459 13.5694 14.862 13.3393 15.1374C13.081 15.441 13.012 15.8502 12.9604 16.233C12.8749 16.9803 12.8905 17.7339 12.883 18.4845C12.8827 19.3161 12.8839 20.1474 12.8824 20.979C12.4159 21.1983 11.8903 21.2235 11.3836 21.2403C11.3821 20.481 11.3833 19.7217 11.383 18.9624C11.3848 18.2127 11.377 17.4627 11.4154 16.7136C11.4508 16.0998 11.5156 15.4749 11.7502 14.9007C11.953 14.3982 12.3115 13.9596 12.7672 13.6659C13.2451 13.3569 13.8103 13.2192 14.3692 13.1514Z" fill="#4B4B4B"/>
</svg>
