<svg width="24" height="24" viewBox="0 0 24 24" fill="none" xmlns="http://www.w3.org/2000/svg">
<path d="M7.38721 1.27169C8.58481 1.24079 9.78271 1.25129 10.9806 1.25249C11.6622 1.26299 12.3552 1.27949 13.0137 1.47509C13.5216 1.62389 13.9845 1.89569 14.4036 2.21429C14.8629 2.56169 15.2871 2.95199 15.7161 3.33509C17.3199 4.78019 18.9264 6.22229 20.529 7.6689C20.8986 8.0085 21.2667 8.352 21.5988 8.7294C21.9636 9.1428 22.2744 9.6126 22.4532 10.137C22.7007 10.8501 22.7295 11.6136 22.7451 12.3609C22.7538 13.1214 22.7475 13.8819 22.7493 14.6421C22.7484 15.5616 22.7469 16.4817 22.6962 17.4003C22.6374 18.3567 22.5351 19.3344 22.1409 20.2188C21.7932 21.006 21.1695 21.6675 20.4 22.0539C19.917 22.3002 19.3896 22.4466 18.8577 22.5402C18.129 22.6662 17.3889 22.7046 16.6512 22.7277C15.2016 22.7646 13.7514 22.7439 12.3015 22.7493C10.7511 22.7445 9.20041 22.7616 7.65031 22.7352C6.90391 22.7178 6.15571 22.6884 5.41531 22.5837C4.79011 22.4928 4.16521 22.3425 3.60001 22.0533C3.08731 21.7944 2.63611 21.4161 2.29201 20.9562C1.98751 20.553 1.77541 20.0865 1.63231 19.6035C1.43911 18.9462 1.36171 18.2619 1.31491 17.5803C1.26811 16.8615 1.25851 16.1412 1.25251 15.4212C1.24831 14.2413 1.25161 13.0611 1.25071 11.8809C1.25281 10.6302 1.24501 9.3795 1.25641 8.1291C1.26871 7.3176 1.28701 6.50459 1.37971 5.69789C1.45981 5.01959 1.59631 4.33829 1.88911 3.71699C2.20651 3.03239 2.73391 2.44679 3.38521 2.06459C3.91981 1.74779 4.52491 1.57049 5.13331 1.46249C5.87731 1.33289 6.63331 1.29449 7.38721 1.27169ZM5.62621 2.90219C5.18551 2.96789 4.74241 3.06209 4.33801 3.25529C3.89251 3.46409 3.51811 3.82109 3.29431 4.2597C3.07051 4.6887 2.96881 5.16839 2.89891 5.64359C2.79991 6.35759 2.77711 7.07939 2.76211 7.7991C2.75221 8.3691 2.75011 8.9394 2.75071 9.5097C2.75071 11.1096 2.75071 12.7095 2.75071 14.3094C2.75011 15.06 2.75071 15.8103 2.77051 16.5606C2.79421 17.3148 2.82661 18.0738 2.97931 18.8148C3.08611 19.3224 3.27031 19.8333 3.62791 20.2203C3.98941 20.6289 4.50601 20.8611 5.02861 20.985C5.79841 21.1665 6.59251 21.2007 7.38001 21.228C8.91931 21.2652 10.4592 21.2436 11.9988 21.2493C13.5591 21.243 15.1197 21.2664 16.6794 21.2262C17.4045 21.201 18.1338 21.1647 18.8454 21.0144C19.3368 20.9076 19.8297 20.7273 20.2068 20.3841C20.553 20.0817 20.7816 19.6647 20.9136 19.2288C21.0912 18.6471 21.15 18.0381 21.1917 17.4342C21.2454 16.5537 21.2466 15.6717 21.2493 14.79C21.2466 13.941 21.2568 13.0917 21.2406 12.2427C21.2223 11.7423 21.2202 11.2284 21.0717 10.7472C20.9088 10.1274 20.4363 9.6657 19.9998 9.2247C18.7359 8.0556 17.4447 6.91589 16.1682 5.76029C15.3633 5.04419 14.5767 4.30739 13.7535 3.61229C13.3203 3.24989 12.8286 2.90849 12.2535 2.83979L12.2538 2.83529C11.8923 2.77379 11.5245 2.76599 11.1591 2.75669C10.1193 2.74589 9.07921 2.74829 8.03941 2.75849C7.23391 2.77229 6.42541 2.79059 5.62621 2.90219Z" fill="#4B4B4B"/>
<path opacity="0.5" d="M12.2527 5.84614C12.2518 4.84264 12.2458 3.83914 12.2551 2.83594C12.8302 2.90464 13.3219 3.24604 13.7551 3.60844C13.7464 4.42354 13.7512 5.23894 13.7548 6.05434C13.7611 6.54064 13.768 7.02814 13.8208 7.51204C13.8574 7.82344 13.9081 8.13994 14.0446 8.42524C14.1667 8.68024 14.3884 8.88274 14.65 8.98804C14.9896 9.12664 15.3586 9.16774 15.7213 9.19954C16.3699 9.24784 17.0209 9.24394 17.671 9.24544C18.3916 9.24574 19.1119 9.24484 19.8325 9.24574C19.8892 9.24364 19.951 9.25504 20.0014 9.22084C20.4379 9.66184 20.9104 10.1235 21.0733 10.7433C19.8388 10.7487 18.6046 10.7439 17.3701 10.7457C16.6792 10.7418 15.9862 10.7409 15.2986 10.6653C14.8 10.608 14.2975 10.5027 13.8499 10.2675C13.3384 10.0044 12.9208 9.56614 12.6784 9.04474C12.463 8.58694 12.37 8.08264 12.3199 7.58224C12.2638 7.00534 12.2575 6.42514 12.2527 5.84614Z" fill="#4B4B4B"/>
<path opacity="0.5" d="M5.89219 13.752C6.39859 13.7328 6.90649 13.7487 7.41349 13.7436C9.60199 13.7436 11.7905 13.7436 13.979 13.7436C14.2118 13.7373 14.4455 13.8438 14.5889 14.0283C14.75 14.2281 14.7962 14.5134 14.705 14.7537C14.6039 15.0384 14.3156 15.2457 14.0123 15.2439C11.4218 15.2436 8.83129 15.2439 6.24109 15.2436C6.07279 15.2403 5.89789 15.2616 5.73769 15.1974C5.42659 15.0855 5.21659 14.751 5.25439 14.4222C5.28079 14.0874 5.55919 13.7946 5.89219 13.752Z" fill="#4B4B4B"/>
<path opacity="0.5" d="M5.83295 17.2631C5.88785 17.2502 5.94455 17.2445 6.00095 17.2445C7.78055 17.2445 9.56015 17.2445 11.3397 17.2445C11.529 17.2358 11.7291 17.2472 11.8923 17.3552C12.2004 17.5355 12.336 17.9501 12.1953 18.278C12.0873 18.548 11.8116 18.7412 11.52 18.7439C9.67985 18.7451 7.83995 18.7442 5.99975 18.7445C5.79635 18.7457 5.59475 18.6587 5.45645 18.5099C5.28125 18.3308 5.21075 18.0593 5.27135 17.8172C5.33435 17.5463 5.56145 17.3222 5.83295 17.2631Z" fill="#4B4B4B"/>
</svg>
