<svg width="24" height="24" viewBox="0 0 24 24" fill="none" xmlns="http://www.w3.org/2000/svg">
<path d="M7.30047 1.2738C8.85657 1.2336 10.4136 1.2567 11.9703 1.2507C13.1205 1.2519 14.271 1.248 15.4212 1.2528C16.14 1.2579 16.8591 1.2678 17.5767 1.3146C18.2142 1.3581 18.8535 1.4289 19.4721 1.5954C19.9602 1.7265 20.4342 1.9254 20.85 2.2155C21.2667 2.5044 21.6225 2.88 21.8907 3.3105C22.1202 3.6786 22.2828 4.0857 22.398 4.5033C22.5795 5.1669 22.65 5.8548 22.6929 6.5394C22.7715 7.9581 22.7436 9.3792 22.7493 10.7991C22.7487 11.4906 22.7541 12.1842 22.6737 12.8721C22.6095 13.4136 22.4673 13.9515 22.2006 14.4297C21.9276 14.9259 21.5472 15.3525 21.1452 15.7473C20.7543 16.137 20.3394 16.5015 19.9305 16.8717C18.4884 18.1692 17.0469 19.4673 15.6045 20.7642C15.24 21.0909 14.8767 21.4194 14.4906 21.7203C14.0697 22.0449 13.6119 22.3347 13.1019 22.4967C12.5055 22.6932 11.8722 22.7268 11.2491 22.7436C10.6596 22.7544 10.0698 22.7475 9.48027 22.7493C8.61987 22.7496 7.75947 22.7478 6.89967 22.7106C6.29637 22.6836 5.69277 22.6371 5.09757 22.5312C4.45767 22.4154 3.82197 22.2183 3.27087 21.8655C2.57997 21.4272 2.04927 20.7537 1.76337 19.989C1.54437 19.4205 1.43637 18.8163 1.36947 18.213C1.28577 17.4249 1.26687 16.6317 1.25637 15.84C1.24647 14.9403 1.25217 14.0406 1.25067 13.1409C1.25187 11.6208 1.24797 10.1007 1.25277 8.5806C1.26057 7.7091 1.27017 6.8364 1.35117 5.9685C1.42047 5.2512 1.54047 4.5291 1.82367 3.8622C2.13207 3.1242 2.67657 2.4858 3.36447 2.076C3.89487 1.758 4.49547 1.5768 5.10057 1.4673C5.82657 1.3377 6.56457 1.2978 7.30047 1.2738ZM5.28477 2.9592C4.83867 3.0465 4.39017 3.1809 4.01277 3.4422C3.68007 3.6702 3.41457 3.9915 3.24567 4.3575C3.01917 4.8438 2.92707 5.3793 2.86677 5.9085C2.76567 6.795 2.76177 7.6887 2.75397 8.58C2.74617 10.4097 2.75277 12.2397 2.75037 14.0694C2.75067 15.0297 2.74677 15.9903 2.78367 16.9503C2.80797 17.5536 2.85027 18.159 2.96637 18.7527C3.06327 19.2348 3.22107 19.7199 3.53247 20.1087C3.82707 20.487 4.25277 20.7477 4.70637 20.8923C5.30817 21.0861 5.94177 21.1482 6.56937 21.1911C7.47807 21.2472 8.38917 21.2469 9.29907 21.2493C9.99357 21.2472 10.6884 21.2568 11.3829 21.2373C11.3838 20.5284 11.3829 19.8195 11.3832 19.1106C11.3847 18.3204 11.3754 17.5293 11.4141 16.7397C11.4477 16.14 11.5074 15.5316 11.724 14.9667C11.9142 14.4576 12.2631 14.0082 12.7125 13.7019C13.1673 13.3908 13.7109 13.242 14.2509 13.1667C14.9166 13.0776 15.5892 13.0701 16.2597 13.065C17.8812 13.0605 19.5027 13.0644 21.1242 13.0629C21.1884 12.7728 21.2109 12.4758 21.2259 12.1794C21.2544 11.5497 21.249 10.9188 21.2496 10.2885C21.2487 9.3348 21.255 8.3811 21.2292 7.4277C21.2064 6.6885 21.1728 5.9454 21.0276 5.2182C20.9274 4.7325 20.7627 4.2435 20.4402 3.8577C20.1477 3.4965 19.7334 3.2487 19.2942 3.1074C18.7023 2.916 18.0789 2.8527 17.4609 2.8104C16.7616 2.7651 16.0605 2.7576 15.36 2.7528C14.2395 2.748 13.1193 2.7516 11.9988 2.7504C10.5993 2.7549 9.19977 2.7399 7.80027 2.7624C6.95967 2.7828 6.11367 2.8032 5.28477 2.9592ZM15.8118 14.5704C15.2598 14.5824 14.703 14.5932 14.1603 14.7051C13.8492 14.772 13.5291 14.8977 13.3254 15.1539C13.0893 15.4437 13.0164 15.8235 12.9669 16.1841C12.8742 16.935 12.891 17.6934 12.8832 18.4485C12.8832 19.2903 12.8829 20.1324 12.8832 20.9745C13.3236 20.763 13.6977 20.4423 14.0631 20.1234C14.8512 19.4319 15.6258 18.7251 16.4067 18.0255C17.2803 17.2392 18.1533 16.452 19.0275 15.666C19.4256 15.3042 19.8288 14.9469 20.2065 14.5632C18.7416 14.565 17.2767 14.5554 15.8118 14.5704Z" fill="#4B4B4B"/>
<path d="M5.8944 6.25891C5.94 6.25291 5.9859 6.25171 6.0318 6.25111C8.6016 6.25141 11.1717 6.25111 13.7418 6.25111C13.8999 6.25201 14.0622 6.23761 14.2161 6.28261C14.4522 6.35311 14.6478 6.54661 14.718 6.78331C14.7936 7.02301 14.7354 7.29961 14.5704 7.48921C14.4324 7.65211 14.2218 7.75201 14.0076 7.75111C11.3382 7.75111 8.6685 7.75081 5.9991 7.75141C5.7426 7.75471 5.4915 7.61221 5.3598 7.39291C5.2437 7.20421 5.2173 6.96271 5.2917 6.75391C5.3796 6.49411 5.6223 6.29461 5.8944 6.25891Z" fill="#4B4B4B"/>
<path d="M5.83256 9.7686C5.89736 9.7545 5.96366 9.7506 6.02996 9.7497C7.80026 9.7503 9.57086 9.75 11.3412 9.7497C11.4606 9.7509 11.583 9.7416 11.6991 9.7767C11.8899 9.8301 12.0597 9.9597 12.1551 10.1343C12.2814 10.3566 12.282 10.6452 12.1551 10.8675C12.0246 11.1036 11.7585 11.2584 11.4882 11.2503C9.65876 11.2497 7.82966 11.25 6.00056 11.25C5.78906 11.2527 5.57966 11.1576 5.44046 10.9989C5.27636 10.8198 5.21246 10.557 5.27156 10.3218C5.33456 10.0515 5.56226 9.8289 5.83256 9.7686Z" fill="#4B4B4B"/>
<path opacity="0.35" d="M6.89937 3.0861C7.84947 3.0501 8.80047 3.0627 9.75117 3.06C11.8506 3.0618 13.95 3.0561 16.0494 3.063C16.7706 3.0717 17.4945 3.0804 18.2103 3.1764C18.723 3.2481 19.2432 3.3738 19.6815 3.6609C20.0745 3.9168 20.3802 4.2984 20.5566 4.7319C20.7654 5.2395 20.8362 5.7897 20.8812 6.3327C20.9364 7.0605 20.9355 7.7907 20.94 8.5203C20.9397 9.93 20.9403 11.34 20.9397 12.7497C19.3197 12.7515 17.6997 12.7473 16.0797 12.7521C15.3402 12.7602 14.5983 12.7656 13.8636 12.858C13.3443 12.927 12.816 13.044 12.3675 13.3263C11.9625 13.578 11.6451 13.9617 11.4621 14.4012C11.2338 14.9457 11.1651 15.54 11.1216 16.1241C11.0721 16.8579 11.073 17.5935 11.07 18.3285C11.07 19.1988 11.0703 20.0694 11.0697 20.9397C10.2099 20.9403 9.35037 20.9397 8.49057 20.94C7.71897 20.9349 6.94617 20.9364 6.17697 20.868C5.63547 20.8155 5.08467 20.7306 4.58997 20.4924C4.15347 20.2848 3.78717 19.9353 3.55827 19.5099C3.32277 19.0734 3.22257 18.5799 3.16107 18.0924C3.07347 17.355 3.06867 16.6113 3.06177 15.87C3.05817 13.3704 3.06027 10.8708 3.06057 8.3715C3.06717 7.5249 3.06417 6.6753 3.17037 5.8341C3.24957 5.2383 3.40167 4.6239 3.78567 4.1466C4.11657 3.7239 4.60377 3.4467 5.11797 3.3111C5.69817 3.1539 6.30147 3.1128 6.89937 3.0861ZM5.89437 6.2589C5.62227 6.2946 5.37957 6.4941 5.29167 6.7539C5.21727 6.9627 5.24367 7.2042 5.35977 7.3929C5.49147 7.6122 5.74257 7.7547 5.99907 7.7514C8.66847 7.7508 11.3382 7.7511 14.0076 7.7511C14.2218 7.752 14.4324 7.6521 14.5704 7.4892C14.7354 7.2996 14.7936 7.023 14.718 6.7833C14.6478 6.5466 14.4522 6.3531 14.2161 6.2826C14.0622 6.2376 13.8999 6.252 13.7418 6.2511C11.1717 6.2511 8.60157 6.2514 6.03177 6.2511C5.98587 6.2517 5.93997 6.2529 5.89437 6.2589ZM5.83257 9.7686C5.56227 9.8289 5.33457 10.0515 5.27157 10.3218C5.21247 10.557 5.27637 10.8198 5.44047 10.9989C5.57967 11.1576 5.78907 11.2527 6.00057 11.25C7.82967 11.25 9.65877 11.2497 11.4882 11.2503C11.7585 11.2584 12.0246 11.1036 12.1551 10.8675C12.282 10.6452 12.2814 10.3566 12.1551 10.1343C12.0597 9.9597 11.8899 9.8301 11.6991 9.7767C11.583 9.7416 11.4606 9.7509 11.3412 9.7497C9.57087 9.75 7.80027 9.7503 6.02997 9.7497C5.96367 9.7506 5.89737 9.7545 5.83257 9.7686Z" fill="#4B4B4B"/>
<path opacity="0.35" d="M14.1423 14.9595C14.5296 14.859 14.9334 14.8599 15.3306 14.8518C16.74 14.8476 18.1494 14.8509 19.5588 14.8503C17.4501 16.6605 15.3405 18.4698 13.2306 20.2791C13.2291 19.3791 13.2303 18.4794 13.23 17.5797C13.2309 17.1648 13.2255 16.7493 13.2528 16.335C13.2771 16.0251 13.3146 15.7014 13.479 15.4299C13.6239 15.1899 13.8738 15.0279 14.1423 14.9595Z" fill="#4B4B4B"/>
</svg>
