<svg width="24" height="24" viewBox="0 0 24 24" fill="none" xmlns="http://www.w3.org/2000/svg">
<path d="M8.14295 1.82108C9.18415 1.78914 10.2262 1.79026 11.2679 1.78891C11.3898 1.78531 11.5142 1.79768 11.6271 1.84649C11.8885 1.95221 12.0767 2.21605 12.0887 2.49834C12.1069 2.775 11.9555 3.05279 11.7144 3.1891C11.6066 3.2514 11.4827 3.28649 11.3581 3.28852C10.4658 3.28987 9.5735 3.28829 8.68143 3.30719C7.73447 3.32878 6.78594 3.36477 5.84551 3.48263C5.38598 3.54336 4.92555 3.61961 4.48446 3.76627C4.28 3.83735 4.07239 3.92012 3.90886 4.06655C3.63849 4.3007 3.39356 4.57332 3.23566 4.89699C3.0276 5.32098 2.93966 5.79109 2.88117 6.25602C2.76714 7.24796 2.77703 8.24822 2.76938 9.24488C2.77096 10.4253 2.76556 11.6057 2.77253 12.7862C2.77793 13.2862 2.78648 13.7869 2.82562 14.2856C2.86453 14.7318 2.91649 15.1855 3.08564 15.6039C3.21227 15.9208 3.44305 16.1972 3.74108 16.3657C4.06251 16.5488 4.43093 16.6246 4.79307 16.6772C5.36619 16.7548 5.94538 16.7683 6.52279 16.7782C7.6101 16.7901 8.6974 16.7821 9.78448 16.7845C11.9591 16.7845 14.1335 16.7845 16.3079 16.7845C17.0126 16.7836 17.7177 16.7857 18.4218 16.7506C18.8091 16.7292 19.1973 16.6975 19.5777 16.6188C19.88 16.5549 20.1832 16.4573 20.4347 16.2721C20.6812 16.0929 20.8629 15.834 20.9682 15.5494C21.1196 15.1455 21.1695 14.7127 21.2064 14.2856C21.2455 13.7869 21.2541 13.2864 21.2595 12.7864C21.2665 12.0255 21.2608 11.2645 21.2642 10.5036C21.2721 10.1599 21.5481 9.84859 21.8875 9.79731C22.1871 9.7422 22.5087 9.89291 22.6594 10.1572C22.7299 10.2748 22.7647 10.4125 22.7629 10.5497C22.7607 11.4415 22.7685 12.3336 22.7532 13.2255C22.7445 13.3901 22.7649 13.5557 22.7411 13.7196C22.7184 14.2086 22.6907 14.699 22.6073 15.1824C22.5317 15.6252 22.4091 16.065 22.1977 16.4636C21.91 17.0122 21.4471 17.4661 20.894 17.7443C20.4869 17.951 20.0408 18.0686 19.5919 18.1404C19.1229 18.2151 18.6481 18.2443 18.1741 18.2621C17.5144 18.2853 16.854 18.2839 16.1941 18.2839C15.0512 18.2839 13.9083 18.2841 12.7655 18.2839C12.2659 18.2839 11.7661 18.2839 11.2665 18.2839C9.97027 18.2841 8.67378 18.2839 7.37729 18.2841C6.82981 18.2826 6.28233 18.2799 5.7353 18.2574C5.24405 18.2362 4.75189 18.2009 4.26808 18.1105C3.8488 18.0315 3.43405 17.9074 3.05842 17.7022C2.44639 17.3734 1.96144 16.8234 1.70119 16.1804C1.37842 15.3929 1.32983 14.5307 1.28912 13.6908C1.26236 13.5521 1.28732 13.4115 1.28012 13.2718C1.2664 12.6188 1.27045 11.9661 1.26978 11.3131C1.27068 10.4512 1.26753 9.58925 1.27203 8.72732C1.2826 7.7428 1.288 6.75311 1.43375 5.77692C1.54892 5.01508 1.78712 4.25122 2.26194 3.63356C2.47878 3.35127 2.7289 3.09485 3.00354 2.86902C3.27165 2.64904 3.58743 2.49587 3.91178 2.378C4.39988 2.20301 4.91093 2.10269 5.42287 2.02689C6.32371 1.898 7.234 1.85032 8.14295 1.82108Z" fill="#4B4B4B"/>
<path d="M20.6416 3.09815C20.9585 2.88649 21.3544 2.81317 21.7295 2.85815C22.1121 2.90156 22.4898 3.07768 22.7334 3.38156C22.9367 3.63034 23.0285 3.96571 22.9797 4.28331C22.9354 4.59438 22.7467 4.89152 22.4581 5.02827C22.7341 5.14299 22.9669 5.35667 23.1039 5.62254C23.2962 5.99277 23.3043 6.44938 23.1399 6.83131C23.008 7.14059 22.762 7.39386 22.4693 7.55536C21.8623 7.89365 21.0647 7.86644 20.4933 7.46539C20.1544 7.23236 19.8903 6.87112 19.8262 6.4595C20.1733 6.3774 20.5201 6.2944 20.8669 6.21118C20.9729 6.53733 21.3814 6.70175 21.692 6.57579C21.8517 6.51146 21.9632 6.35356 21.9821 6.18374C22.0118 5.98917 21.9309 5.78786 21.7862 5.65718C21.5527 5.44349 21.2226 5.38366 20.9162 5.37871C20.9632 5.19337 21.0111 5.00848 21.0593 4.82359C21.2385 4.82134 21.4252 4.78737 21.5743 4.68211C21.6798 4.60923 21.7599 4.49384 21.7741 4.36451C21.7903 4.23832 21.7428 4.10044 21.6375 4.02464C21.5195 3.93624 21.3478 3.93939 21.2259 4.01879C21.1348 4.0748 21.0757 4.16859 21.037 4.26599C20.6899 4.18974 20.3429 4.11393 19.9958 4.03768C20.0864 3.66003 20.3141 3.31138 20.6416 3.09815Z" fill="#4B4B4B"/>
<path d="M16.1642 3.47845C16.6476 2.95999 17.4369 2.76497 18.1094 2.98315C18.5161 3.11181 18.8769 3.3851 19.1034 3.74769C19.3045 4.06709 19.3983 4.45802 19.3407 4.83298C19.2905 5.15103 19.1387 5.44524 18.9443 5.69873C18.6688 6.05659 18.31 6.34405 17.918 6.56494C18.4164 6.56516 18.9149 6.56471 19.4131 6.56516C19.4135 6.94867 19.4135 7.33217 19.4133 7.7159C18.1508 7.71613 16.8885 7.71613 15.6262 7.7159C15.6257 7.56475 15.6262 7.4136 15.626 7.26267C16.2747 6.71227 16.9341 6.17176 17.5334 5.56692C17.7347 5.35279 17.9468 5.13393 18.0601 4.85794C18.1915 4.54237 17.9702 4.14154 17.6323 4.08688C17.1908 4.01671 16.7481 4.40201 16.752 4.84872C16.4132 4.73558 16.0738 4.62424 15.7346 4.51223C15.7328 4.12782 15.9022 3.75534 16.1642 3.47845Z" fill="#4B4B4B"/>
<path d="M13.2954 3.32036C13.7371 3.20408 14.1789 3.08756 14.6209 2.97195C14.7491 2.9571 14.8793 2.96925 15.0084 2.96565C15.0089 4.54915 15.0087 6.13266 15.0084 7.71617C14.5905 7.71594 14.1726 7.71707 13.7547 7.71549C13.7544 6.62458 13.7549 5.53345 13.7544 4.44231C13.6013 4.47875 13.4485 4.51654 13.2956 4.55298C13.2954 4.14226 13.2954 3.73131 13.2954 3.32036Z" fill="#4B4B4B"/>
<path opacity="0.5" d="M2.77295 12.7861C8.93535 12.7868 15.0975 12.7861 21.2599 12.7864C21.2545 13.2864 21.2459 13.7868 21.2068 14.2855C15.0799 14.286 8.95289 14.2862 2.82603 14.2855C2.78689 13.7868 2.77834 13.2862 2.77295 12.7861Z" fill="#4B4B4B"/>
<path opacity="0.5" d="M11.2669 18.2837C11.7665 18.2837 12.2663 18.2837 12.7658 18.2837C12.7661 19.4502 12.7652 20.6167 12.7663 21.7829C13.7816 21.7841 14.7967 21.7832 15.8121 21.7834C15.9551 21.7859 16.1022 21.7701 16.2403 21.8174C16.5094 21.8992 16.7197 22.1449 16.757 22.424C16.8123 22.7553 16.6115 23.1044 16.2997 23.2268C16.1459 23.2951 15.9751 23.2826 15.8114 23.2828C13.2103 23.2828 10.6094 23.2832 8.00862 23.2826C7.61319 23.2879 7.26005 22.9335 7.26793 22.538C7.25511 22.1482 7.59363 21.7913 7.98365 21.7843C9.07794 21.7818 10.1722 21.7847 11.2662 21.7827C11.2667 20.6165 11.2656 19.4502 11.2669 18.2837Z" fill="#4B4B4B"/>
</svg>
