<svg width="24" height="24" viewBox="0 0 24 24" fill="none" xmlns="http://www.w3.org/2000/svg">
<path opacity="0.5" d="M3.76916 6.25828C3.92475 5.84575 4.38025 5.57547 4.81709 5.64185C5.27437 5.69283 5.65667 6.10269 5.67416 6.56264C5.68068 7.4532 5.66645 8.34732 5.7767 9.23284C5.85168 9.80481 5.97526 10.3857 6.26776 10.8901C6.48351 11.2676 6.81662 11.5735 7.20604 11.7652C7.78749 12.0554 8.44333 12.1502 9.08554 12.1834C9.63766 12.2029 10.1903 12.1884 10.7427 12.1929C12.8027 12.1929 14.8624 12.1935 16.9224 12.1926C17.2511 12.5221 17.5824 12.8493 17.909 13.1812C17.5771 13.5197 17.2375 13.851 16.9052 14.1891L16.8851 14.1675C14.5711 14.1699 12.2571 14.1678 9.9435 14.1684C9.22632 14.177 8.50439 14.1589 7.79875 14.0199C6.86463 13.8448 5.9474 13.4554 5.26192 12.7832C4.84435 12.3805 4.52043 11.8858 4.29372 11.3533C4.03707 10.7552 3.89659 10.1139 3.8151 9.47052C3.70959 8.62441 3.70248 7.77001 3.70011 6.91857C3.70278 6.69749 3.67936 6.46692 3.76916 6.25828Z" fill="#4B4B4B"/>
<path d="M14.8045 8.05267C15.1477 7.93443 15.5516 8.02748 15.8083 8.28443C17.2154 9.69243 18.624 11.0992 20.0308 12.5078C20.3835 12.8691 20.3808 13.5015 20.0252 13.8598C18.6184 15.2687 17.2104 16.6761 15.8021 18.0832C15.4799 18.4048 14.9305 18.451 14.5591 18.1875C14.33 18.0319 14.1721 17.7768 14.1374 17.502C14.0953 17.2009 14.2032 16.8835 14.4204 16.6711C15.2491 15.8442 16.0744 15.0144 16.9045 14.189C17.2367 13.8509 17.5764 13.5196 17.9083 13.1811C17.5817 12.8492 17.2504 12.522 16.9217 12.1925C16.0851 11.3556 15.2479 10.5189 14.4113 9.68206C14.197 9.46631 14.0933 9.14802 14.1392 8.84781C14.1875 8.48506 14.4563 8.1644 14.8045 8.05267Z" fill="#4B4B4B"/>
</svg>
