<svg width="24" height="24" viewBox="0 0 24 24" fill="none" xmlns="http://www.w3.org/2000/svg">
<path opacity="0.5" d="M3.76919 6.25838C3.92478 5.84585 4.38028 5.57557 4.81712 5.64195C5.2744 5.69293 5.6567 6.10279 5.67419 6.56274C5.68071 7.4533 5.66648 8.34742 5.77673 9.23294C5.8517 9.80491 5.97529 10.3858 6.26779 10.8902C6.48354 11.2677 6.81665 11.5736 7.20607 11.7653C7.78752 12.0555 8.44336 12.1503 9.08557 12.1835C9.63769 12.203 10.1904 12.1885 10.7428 12.193C12.8028 12.193 14.8625 12.1936 16.9225 12.1927C17.2512 12.5222 17.5825 12.8494 17.9091 13.1813C17.5772 13.5198 17.2375 13.8511 16.9053 14.1892L16.8852 14.1676C14.5712 14.17 12.2572 14.1679 9.94353 14.1685C9.22635 14.1771 8.50441 14.159 7.79878 14.02C6.86466 13.8449 5.94743 13.4555 5.26195 12.7833C4.84438 12.3806 4.52046 11.8859 4.29375 11.3534C4.0371 10.7553 3.89662 10.114 3.81513 9.47062C3.70962 8.62451 3.70251 7.77011 3.70014 6.91867C3.70281 6.69759 3.67939 6.46702 3.76919 6.25838Z" fill="#4B4B4B"/>
<path d="M14.8046 8.05273C15.1477 7.93448 15.5517 8.02754 15.8083 8.28448C17.2154 9.69248 18.624 11.0993 20.0308 12.5079C20.3835 12.8692 20.3808 13.5016 20.0252 13.8599C18.6184 15.2688 17.2104 16.6762 15.8021 18.0833C15.48 18.4048 14.9305 18.4511 14.5592 18.1876C14.3301 18.032 14.1721 17.7769 14.1375 17.5021C14.0954 17.201 14.2032 16.8836 14.4205 16.6711C15.2491 15.8443 16.0745 15.0145 16.9046 14.1891C17.2368 13.851 17.5764 13.5197 17.9083 13.1812C17.5817 12.8493 17.2504 12.5221 16.9217 12.1926C16.0851 11.3557 15.2479 10.519 14.4113 9.68211C14.197 9.46636 14.0933 9.14807 14.1392 8.84786C14.1875 8.48512 14.4563 8.16446 14.8046 8.05273Z" fill="#4B4B4B"/>
</svg>
