<svg width="24" height="24" viewBox="0 0 24 24" fill="none" xmlns="http://www.w3.org/2000/svg">
<path d="M8.88899 1.2723C10.3452 1.239 11.8017 1.254 13.2582 1.2504C14.682 1.2618 16.1115 1.2564 17.5272 1.4319C18.5901 1.5687 19.6743 1.8426 20.5488 2.4897C21.3237 3.0525 21.891 3.8739 22.1931 4.779C22.5924 5.9622 22.6641 7.2222 22.7148 8.4606C22.7676 10.1796 22.7457 11.8998 22.7475 13.6194C22.7364 14.916 22.7295 16.2174 22.5708 17.5062C22.4433 18.5004 22.2021 19.5093 21.6441 20.3562C21.1383 21.1311 20.385 21.7341 19.5276 22.0779C18.4626 22.5081 17.3046 22.62 16.1679 22.6872C14.5398 22.77 12.909 22.7445 11.2794 22.7493C9.87989 22.7454 8.47799 22.7523 7.08239 22.6341C6.03359 22.5381 4.96439 22.3632 4.02239 21.8679C3.12749 21.4002 2.40389 20.6214 1.99589 19.6986C1.53449 18.6666 1.40369 17.5269 1.32719 16.4103C1.27049 15.5109 1.25909 14.6094 1.25279 13.7085C1.25039 12.3792 1.24559 11.0502 1.25759 9.7212C1.26809 8.8725 1.28789 8.0229 1.35749 7.1766C1.41449 6.5076 1.50329 5.8383 1.67999 5.1894C1.83239 4.6317 2.05529 4.0893 2.37899 3.6087C2.82569 2.9409 3.45539 2.3988 4.18019 2.0529C4.84589 1.7301 5.57429 1.5603 6.30299 1.455C7.15949 1.3335 8.02499 1.2957 8.88899 1.2723ZM8.86199 2.7738C8.13569 2.7933 7.40849 2.8257 6.68729 2.9169C6.17549 2.9829 5.66429 3.0789 5.17859 3.2568C4.77209 3.405 4.38779 3.6237 4.07099 3.921C3.71729 4.2471 3.45329 4.6632 3.28229 5.1114C3.03659 5.7513 2.93699 6.4353 2.86919 7.1136C2.75159 8.4087 2.75729 9.711 2.75069 11.0103C2.75249 12.2001 2.74439 13.3902 2.76209 14.5803C2.77559 15.3627 2.79749 16.1457 2.87309 16.9251C2.93249 17.5125 3.01889 18.1017 3.20219 18.6645C3.34379 19.1019 3.55769 19.521 3.86429 19.8663C4.17419 20.2212 4.57169 20.4951 5.00609 20.6748C5.58929 20.919 6.21809 21.0276 6.84269 21.1023C8.15609 21.246 9.47969 21.2391 10.7994 21.2493C12.3696 21.2445 13.9407 21.2655 15.5106 21.2151C16.26 21.1872 17.0112 21.1428 17.7519 21.018C18.2859 20.9241 18.8199 20.7873 19.2999 20.5287C19.7289 20.2989 20.1006 19.9641 20.3721 19.56C20.6622 19.1286 20.832 18.6288 20.9445 18.1248C21.0837 17.4918 21.1434 16.8447 21.183 16.1991C21.2634 14.7408 21.246 13.2798 21.2493 11.8203C21.2463 10.4193 21.2598 9.0165 21.1713 7.6176C21.1293 7.0104 21.0663 6.4026 20.9295 5.8089C20.82 5.3418 20.6595 4.8798 20.3955 4.476C20.1147 4.0431 19.7184 3.687 19.2603 3.4503C18.7938 3.2079 18.2796 3.0744 17.7639 2.9844C17.1288 2.8749 16.4847 2.8287 15.8415 2.7984C14.9217 2.7576 14.0007 2.754 13.0803 2.7507C11.6742 2.754 10.2678 2.7396 8.86199 2.7738Z" fill="#4B4B4B"/>
<path opacity="0.5" d="M11.4804 7.6989C11.595 7.4997 11.8293 7.3767 12.0588 7.4028C12.2877 7.422 12.4941 7.5873 12.5673 7.8045C12.6063 7.9077 12.5997 8.0196 12.6006 8.1279C13.1946 8.2554 13.7619 8.5644 14.1441 9.0435C14.4396 9.4092 14.6076 9.8778 14.5995 10.3488C14.5968 10.5459 14.4876 10.7364 14.3205 10.8405C14.1474 10.9527 13.9149 10.9641 13.7313 10.8696C13.5369 10.7745 13.4034 10.5669 13.401 10.35C13.4007 10.1886 13.353 10.0293 13.2678 9.8925C13.0728 9.5724 12.7227 9.3717 12.3609 9.3012C11.9853 9.2295 11.5827 9.2655 11.2383 9.4374C10.9551 9.5802 10.71 9.8271 10.626 10.1388C10.5603 10.3689 10.6245 10.6191 10.7571 10.8132C10.9629 11.1198 11.3112 11.3085 11.6697 11.3712C11.8788 11.4129 12.0933 11.3901 12.3042 11.4159C12.9303 11.4819 13.5435 11.7492 13.9875 12.2007C14.3031 12.5178 14.5215 12.9351 14.58 13.3803C14.6529 13.8852 14.5287 14.4156 14.2356 14.8335C13.8576 15.381 13.2441 15.735 12.6003 15.8721C12.6087 16.0392 12.5919 16.2189 12.4839 16.3548C12.3612 16.5237 12.147 16.6206 11.9391 16.5969C11.7198 16.5774 11.5206 16.4247 11.4417 16.2198C11.3946 16.1103 11.3988 15.9888 11.3997 15.8721C10.818 15.7473 10.2627 15.4491 9.88051 14.9871C9.57631 14.6235 9.39901 14.1546 9.39991 13.6797C9.38371 13.3473 9.68701 13.0467 10.0191 13.0668C10.2516 13.0716 10.4715 13.2258 10.5561 13.4424C10.617 13.5744 10.5855 13.7244 10.6257 13.8615C10.7001 14.1366 10.9017 14.3637 11.1426 14.5089C11.4906 14.7198 11.9175 14.7723 12.3147 14.7072C12.6597 14.6496 12.9963 14.4783 13.2087 14.1948C13.3473 14.0109 13.431 13.7745 13.3896 13.5435C13.335 13.2372 13.1175 12.9816 12.8565 12.8238C12.6006 12.6684 12.2988 12.5997 12.0012 12.6C11.4159 12.6003 10.8291 12.4233 10.3497 12.0858C9.99811 11.838 9.70651 11.4969 9.54601 11.0955C9.31951 10.5363 9.35761 9.8766 9.65131 9.3489C10.008 8.7009 10.6872 8.2785 11.3997 8.1279C11.3949 7.9815 11.4003 7.8267 11.4804 7.6989Z" fill="#4B4B4B"/>
</svg>
