<svg width="24" height="24" viewBox="0 0 24 24" fill="none" xmlns="http://www.w3.org/2000/svg">
<path d="M8.88891 1.27245C9.92601 1.24785 10.9631 1.25085 12.0002 1.25055C12.221 1.24755 12.4379 1.35165 12.578 1.52145C12.7532 1.72845 12.7994 2.03325 12.695 2.28345C12.5855 2.56065 12.2978 2.75535 11.9993 2.75055C10.7999 2.75235 9.59991 2.74515 8.40111 2.78835C7.67511 2.81715 6.94761 2.86275 6.23061 2.98515C5.71041 3.07755 5.19051 3.21165 4.72131 3.46035C4.32231 3.67005 3.97131 3.97005 3.70371 4.33305C3.40431 4.73685 3.21981 5.21355 3.09771 5.69805C2.93871 6.33585 2.87181 6.99255 2.82681 7.64685C2.74071 9.03555 2.75391 10.4278 2.75091 11.8186C2.75181 12.9481 2.74581 14.0782 2.77581 15.2074C2.79711 15.9451 2.83161 16.684 2.93061 17.4157C3.00981 17.9842 3.12711 18.5542 3.36261 19.0804C3.55641 19.5139 3.84681 19.9057 4.21641 20.2057C4.60041 20.5228 5.06511 20.7268 5.54181 20.8609C6.14211 21.0283 6.76341 21.1036 7.38321 21.1543C8.87871 21.265 10.3796 21.2449 11.8781 21.2494C13.4099 21.2446 14.9438 21.2674 16.4729 21.1651C17.1491 21.1147 17.8283 21.0394 18.4826 20.8537C18.9716 20.7154 19.4462 20.4982 19.8335 20.1643C20.1797 19.8706 20.453 19.4947 20.6375 19.0804C20.855 18.5965 20.9705 18.0745 21.0503 17.5522C21.1463 16.9051 21.1865 16.2514 21.212 15.598C21.2555 14.3992 21.2477 13.1995 21.2501 12.0004C21.2474 11.7331 21.4007 11.4724 21.6356 11.3446C21.8663 11.2135 22.1666 11.2186 22.3913 11.3602C22.6211 11.497 22.7624 11.7643 22.7501 12.0307C22.7456 13.5571 22.7648 15.0853 22.6592 16.609C22.5803 17.6437 22.4429 18.6952 22.0244 19.654C21.6671 20.4808 21.0614 21.1996 20.2994 21.6811C19.4426 22.2265 18.4307 22.4575 17.4344 22.5799C16.0493 22.7428 14.6519 22.7389 13.2593 22.7497C11.6897 22.7449 10.1195 22.7653 8.55051 22.7179C7.82061 22.6933 7.09011 22.6531 6.36591 22.5538C5.65221 22.4548 4.93911 22.2952 4.28091 21.9949C3.42801 21.6121 2.69751 20.9602 2.22861 20.1502C1.69011 19.2259 1.49061 18.1525 1.38321 17.1007C1.31151 16.3729 1.28421 15.6412 1.26801 14.9101C1.24251 13.6105 1.25301 12.3106 1.25091 11.0107C1.25721 9.63915 1.25271 8.26455 1.38351 6.89805C1.47111 6.03615 1.62051 5.16795 1.96641 4.36845C2.29791 3.59235 2.84571 2.90895 3.53931 2.42715C4.07181 2.05425 4.68351 1.80735 5.31141 1.64835C6.47991 1.35675 7.69071 1.30875 8.88891 1.27245Z" fill="#4B4B4B"/>
<path opacity="0.5" d="M16.4498 1.48037C16.7192 1.19477 17.2172 1.18697 17.4944 1.46537C18.1565 2.12567 18.8168 2.78777 19.4786 3.44867C20.0972 2.83067 20.7152 2.21237 21.3335 1.59407C21.4085 1.51937 21.4808 1.43987 21.5702 1.38137C21.7535 1.26077 21.9914 1.22687 22.2008 1.29317C22.4486 1.36637 22.6487 1.57847 22.7087 1.82957C22.7711 2.07677 22.697 2.35367 22.5161 2.53397C21.857 3.19097 21.2018 3.85157 20.5409 4.50647C21.146 5.12267 21.7616 5.72867 22.3706 6.34097C22.4627 6.43697 22.5698 6.52277 22.634 6.64187C22.7447 6.83597 22.7606 7.08017 22.6772 7.28717C22.592 7.50527 22.3985 7.67777 22.1711 7.73477C21.9305 7.80047 21.6575 7.73537 21.4757 7.56377C20.8082 6.90107 20.1476 6.23117 19.478 5.57087C18.8213 6.23027 18.1619 6.88727 17.5043 7.54577C17.3318 7.71887 17.0702 7.79567 16.8314 7.74467C16.5572 7.69307 16.3253 7.47377 16.2557 7.20377C16.2023 7.00877 16.2329 6.79247 16.3394 6.62027C16.4018 6.51557 16.4942 6.43427 16.5791 6.34847C17.1923 5.73497 17.8061 5.12207 18.419 4.50797C17.7584 3.84707 17.0972 3.18677 16.4369 2.52557C16.1573 2.24897 16.1645 1.75037 16.4498 1.48037Z" fill="#4B4B4B"/>
<path opacity="0.5" d="M11.5161 7.64517C11.6445 7.46757 11.874 7.37067 12.0909 7.40697C12.3471 7.44177 12.5631 7.66167 12.5943 7.91787C12.6018 7.98777 12.6006 8.05797 12.6 8.12817C13.182 8.25237 13.7373 8.55087 14.1195 9.01287C14.4354 9.39087 14.6157 9.88377 14.5983 10.3779C14.5833 10.6572 14.3475 10.902 14.0697 10.9296C13.809 10.9644 13.5396 10.8039 13.4445 10.5594C13.3788 10.4181 13.4178 10.2567 13.3665 10.1118C13.2822 9.83487 13.0704 9.61017 12.8214 9.47007C12.4848 9.27927 12.081 9.23157 11.7027 9.28977C11.3727 9.34137 11.0511 9.49557 10.8327 9.75267C10.6812 9.93267 10.578 10.1679 10.6038 10.407C10.6326 10.6752 10.7958 10.9125 11.0028 11.0781C11.2824 11.3016 11.6454 11.4012 12 11.4C12.5766 11.4 13.1544 11.5722 13.6299 11.8998C13.9833 12.1446 14.2791 12.4818 14.4444 12.8814C14.6694 13.4175 14.6493 14.0499 14.3907 14.5707C14.0484 15.2619 13.3419 15.7167 12.6003 15.8718C12.6078 16.0326 12.5946 16.2042 12.4959 16.3383C12.3753 16.5162 12.1551 16.6212 11.9406 16.5972C11.7129 16.5777 11.5071 16.4139 11.4336 16.1982C11.394 16.0941 11.3994 15.981 11.4 15.8721C10.8183 15.7476 10.2633 15.4494 9.88113 14.9877C9.56493 14.6097 9.38403 14.1162 9.40173 13.6221C9.41673 13.3224 9.68763 13.0662 9.98733 13.0665C10.2312 13.0584 10.4688 13.2159 10.5567 13.4433C10.6209 13.5831 10.5819 13.743 10.6329 13.8867C10.7196 14.172 10.9404 14.4018 11.1993 14.5413C11.5425 14.7288 11.9526 14.7702 12.3342 14.7039C12.6987 14.6388 13.0539 14.4441 13.2558 14.1264C13.3791 13.9371 13.4367 13.6974 13.3749 13.4766C13.29 13.1553 13.0344 12.9024 12.741 12.7611C12.5112 12.6489 12.2541 12.5997 11.9997 12.6C11.352 12.6 10.701 12.3825 10.1985 11.9706C9.86763 11.6979 9.60633 11.334 9.48483 10.9206C9.32133 10.3752 9.39543 9.76167 9.69393 9.27597C10.0608 8.66757 10.7142 8.27277 11.3997 8.12817C11.3907 7.96077 11.4081 7.78107 11.5161 7.64517Z" fill="#4B4B4B"/>
</svg>
