<svg width="24" height="24" viewBox="0 0 24 24" fill="none" xmlns="http://www.w3.org/2000/svg">
<path d="M11.1747 1.281C11.4792 1.2618 11.7855 1.2402 12.0906 1.2561C12.483 1.2918 12.7947 1.6815 12.7467 2.0721C12.7188 2.4579 12.354 2.7741 11.9685 2.7507C9.903 2.748 7.848 3.4719 6.2373 4.764C4.6824 5.9991 3.5403 7.7463 3.0459 9.6705C2.5554 11.5569 2.6763 13.5984 3.399 15.4095C4.0806 17.1366 5.2992 18.6447 6.8412 19.6785C7.7163 20.2692 8.6946 20.7072 9.7182 20.9664C11.0607 21.3072 12.4794 21.3408 13.8369 21.0675C15.7899 20.6793 17.6001 19.6305 18.9186 18.1398C20.3916 16.4922 21.2397 14.3013 21.2487 12.0906C21.24 11.9028 21.279 11.7081 21.3951 11.5566C21.5802 11.2962 21.942 11.1813 22.2432 11.2902C22.53 11.385 22.7427 11.6673 22.7487 11.9703C22.764 14.1057 22.1148 16.2393 20.9166 18.0066C19.7706 19.7094 18.1281 21.0732 16.2411 21.8811C14.1558 22.7823 11.7819 22.9872 9.5706 22.4742C7.6155 22.026 5.7975 21.0096 4.3842 19.587C2.8926 18.0948 1.8537 16.155 1.4517 14.0829C0.9948 11.7726 1.3164 9.3123 2.3757 7.2066C3.4788 4.9815 5.3796 3.1653 7.653 2.1651C8.7648 1.6722 9.9618 1.3725 11.1747 1.281Z" fill="#4B4B4B"/>
<path opacity="0.5" d="M16.4034 2.21129C16.512 1.93289 16.7988 1.73579 17.0988 1.74029C18.5388 1.73969 19.9788 1.74029 21.4188 1.73999C21.549 1.74089 21.6831 1.73099 21.8094 1.76969C22.0512 1.83809 22.251 2.03699 22.3197 2.27879C22.3587 2.40539 22.3494 2.53949 22.35 2.67029C22.35 4.04009 22.35 5.41019 22.35 6.78029C22.3491 6.89159 22.3557 7.00349 22.3395 7.11419C22.302 7.35389 22.1373 7.56749 21.918 7.66949C21.726 7.76009 21.495 7.76369 21.3009 7.67789C21.0996 7.59059 20.9394 7.4112 20.88 7.1997C20.8407 7.0737 20.8506 6.9399 20.85 6.8097C20.85 5.9733 20.8503 5.1366 20.8497 4.29989C19.5762 5.5728 18.303 6.84629 17.0298 8.1198C16.8924 8.2608 16.6965 8.3406 16.5 8.33999C16.2078 8.34419 15.9264 8.1576 15.8121 7.8894C15.6924 7.6218 15.7491 7.28549 15.9552 7.07579C17.2332 5.79659 18.5121 4.51919 19.7901 3.24029C18.8934 3.23969 17.9967 3.24029 17.1003 3.23969C16.8888 3.24149 16.68 3.14759 16.5405 2.98889C16.3518 2.78369 16.2978 2.46899 16.4034 2.21129Z" fill="#4B4B4B"/>
<path opacity="0.5" d="M11.5152 7.64669C11.637 7.47749 11.8503 7.38029 12.0579 7.40279C12.2871 7.42169 12.4941 7.587 12.5673 7.8042C12.6063 7.9074 12.5997 8.01959 12.6006 8.12789C13.1826 8.25299 13.7382 8.55119 14.1201 9.01379C14.4354 9.39119 14.6154 9.8835 14.5983 10.3764C14.5839 10.6674 14.3292 10.9194 14.0388 10.9323C13.7718 10.9542 13.5075 10.773 13.4289 10.5177C13.3854 10.3869 13.4121 10.2447 13.3674 10.1142C13.2741 9.807 13.0269 9.5655 12.7425 9.4287C12.3786 9.2523 11.952 9.22619 11.5617 9.31829C11.1867 9.40949 10.83 9.64949 10.671 10.0104C10.5693 10.2276 10.5804 10.4883 10.6911 10.6998C10.9269 11.1648 11.4657 11.3994 11.9688 11.3994C12.6063 11.3946 13.2489 11.5965 13.7526 11.9907C14.1066 12.2667 14.3871 12.6453 14.5146 13.0782C14.6859 13.6452 14.5977 14.2857 14.2707 14.781C13.8972 15.3576 13.2645 15.7308 12.6006 15.8721C12.6087 16.0389 12.5919 16.2183 12.4842 16.3542C12.3558 16.5324 12.1248 16.6296 11.9076 16.5927C11.6847 16.5612 11.4906 16.3911 11.4261 16.176C11.3943 16.0779 11.3997 15.9735 11.3997 15.8721C10.8189 15.7473 10.2648 15.4503 9.8826 14.9895C9.5775 14.6262 9.3993 14.1564 9.3999 13.6806C9.3831 13.3485 9.6858 13.0476 10.0179 13.0668C10.2513 13.0713 10.4721 13.2258 10.5567 13.4433C10.6167 13.5753 10.5858 13.725 10.6257 13.8615C10.7022 14.1432 10.9113 14.3745 11.16 14.5194C11.499 14.7183 11.9097 14.769 12.2943 14.7108C12.6324 14.6583 12.9624 14.4984 13.1811 14.2305C13.3359 14.0409 13.4337 13.7898 13.3896 13.5435C13.338 13.2519 13.1376 13.0059 12.894 12.8472C12.63 12.6753 12.3123 12.5991 11.9994 12.6C11.4147 12.5997 10.8285 12.423 10.3497 12.0858C9.9924 11.8338 9.6969 11.4855 9.5382 11.076C9.3147 10.5072 9.3636 9.8382 9.6732 9.3105C10.0353 8.6835 10.7013 8.27579 11.3994 8.12789C11.3913 7.96109 11.4078 7.78229 11.5152 7.64669Z" fill="#4B4B4B"/>
</svg>
