<svg width="24" height="24" viewBox="0 0 24 24" fill="none" xmlns="http://www.w3.org/2000/svg">
<path d="M11.1728 1.2812C12.8354 1.1534 14.528 1.4129 16.0709 2.0474C17.9555 2.8163 19.6091 4.1354 20.7818 5.798C22.0547 7.5869 22.7519 9.77539 22.7498 11.9708C22.7624 14.0696 22.1381 16.166 20.978 17.915C19.8461 19.6343 18.2111 21.0179 16.3256 21.8444C14.2199 22.7765 11.8112 22.9943 9.56929 22.4741C7.61449 22.0256 5.79679 21.0089 4.38379 19.5863C2.83849 18.041 1.78099 16.0145 1.41049 13.8596C0.994093 11.4971 1.39069 8.9975 2.53999 6.89C3.70129 4.7333 5.62219 2.9972 7.88749 2.0645C8.93179 1.6313 10.0454 1.3667 11.1728 1.2812ZM11.2334 2.7812C9.51889 2.9183 7.84909 3.5513 6.47269 4.5824C4.96069 5.7071 3.80419 7.3034 3.21559 9.0944C2.78269 10.4018 2.65099 11.8061 2.82379 13.172C2.98159 14.4293 3.40429 15.6521 4.05499 16.7393C5.03449 18.3839 6.53659 19.7111 8.29159 20.4764C10.3877 21.4016 12.8309 21.4994 14.9966 20.7539C16.004 20.4092 16.9505 19.8878 17.7812 19.2215C19.2191 18.0719 20.3039 16.4858 20.8424 14.7245C21.2537 13.3913 21.3539 11.9645 21.1427 10.586C20.9753 9.48679 20.6042 8.4194 20.0567 7.4519C19.1135 5.7788 17.6363 4.4129 15.893 3.6065C14.4467 2.9315 12.8231 2.6492 11.2334 2.7812Z" fill="#4B4B4B"/>
<path opacity="0.5" d="M11.516 7.64606C11.6381 7.47686 11.8523 7.37996 12.0602 7.40336C12.2885 7.42286 12.4943 7.58786 12.5672 7.80446C12.6065 7.90766 12.5999 8.01986 12.6008 8.12816C13.1894 8.25446 13.7513 8.55866 14.1335 9.03026C14.4359 9.39866 14.6087 9.87386 14.5997 10.3517C14.5961 10.5551 14.4785 10.751 14.3021 10.8518C14.1308 10.9541 13.9076 10.9607 13.7303 10.8692C13.5359 10.7735 13.403 10.5656 13.4012 10.3484C13.4003 9.94016 13.0946 9.59546 12.7406 9.42776C12.3779 9.25286 11.9528 9.22676 11.5634 9.31826C11.1881 9.40916 10.8302 9.64946 10.6709 10.0109C10.5731 10.2209 10.5791 10.4717 10.6811 10.679C10.9052 11.1473 11.438 11.3912 11.9384 11.3987C12.5783 11.39 13.2257 11.585 13.7351 11.9771C14.0978 12.2549 14.3858 12.6392 14.5154 13.0802C14.6858 13.6463 14.5976 14.2853 14.2718 14.7797C13.8986 15.3572 13.2653 15.731 12.6008 15.8723C12.6074 16.0322 12.5951 16.2035 12.4967 16.3373C12.3764 16.5158 12.1562 16.6214 11.9411 16.5974C11.7209 16.5785 11.5208 16.4252 11.4416 16.2194C11.3948 16.1099 11.3993 15.9887 11.3999 15.8723C10.8182 15.7475 10.2632 15.4493 9.88098 14.9876C9.57678 14.6243 9.39948 14.1554 9.40008 13.6808C9.38328 13.3484 9.68628 13.0472 10.019 13.067C10.2521 13.0718 10.4726 13.2263 10.5569 13.4438C10.6172 13.5755 10.5857 13.7252 10.6262 13.862C10.7006 14.1368 10.9019 14.3639 11.1425 14.5091C11.4962 14.7233 11.9315 14.7743 12.3347 14.7041C12.6857 14.6414 13.0271 14.459 13.2329 14.1614C13.361 13.979 13.4324 13.7474 13.3862 13.5251C13.3232 13.2128 13.0931 12.956 12.8207 12.803C12.572 12.6617 12.284 12.5999 11.9996 12.6002C11.4026 12.5999 10.8038 12.4157 10.3196 12.0641C9.95718 11.801 9.66228 11.4362 9.51408 11.0111C9.31428 10.4444 9.37878 9.78956 9.69348 9.27656C10.0607 8.66816 10.7141 8.27366 11.3996 8.12816C11.3915 7.96106 11.408 7.78166 11.516 7.64606Z" fill="#4B4B4B"/>
</svg>
