<svg width="24" height="24" viewBox="0 0 24 24" fill="none" xmlns="http://www.w3.org/2000/svg">
<path d="M8.89069 1.27213C9.85729 1.24903 10.8242 1.24993 11.7911 1.25053C11.9096 1.25143 12.0296 1.24273 12.1469 1.26403C12.4112 1.31383 12.6389 1.51903 12.716 1.77643C12.7889 2.00473 12.743 2.26723 12.5951 2.45623C12.4571 2.63893 12.2318 2.75143 12.0026 2.74993C10.5446 2.75473 9.08479 2.73643 7.62859 2.82763C7.00969 2.87053 6.38929 2.93413 5.78389 3.07633C5.31829 3.18703 4.85869 3.34993 4.45789 3.61603C4.01959 3.90433 3.66259 4.31233 3.42829 4.78153C3.15439 5.32963 3.02329 5.93563 2.93689 6.53863C2.76889 7.78153 2.76619 9.03853 2.75329 10.2904C2.74969 11.53 2.74789 12.7699 2.75539 14.0095C2.76379 14.8705 2.77819 15.7321 2.84359 16.5907C2.88709 17.1352 2.95039 17.68 3.07549 18.2125C3.18169 18.6589 3.33469 19.0996 3.58189 19.4884C3.85609 19.9252 4.24729 20.2867 4.70209 20.5297C5.12659 20.7577 5.59459 20.8918 6.06589 20.9842C6.82549 21.13 7.59979 21.1786 8.37169 21.2104C9.87019 21.2638 11.3699 21.2452 12.869 21.2491C14.1905 21.2434 15.5144 21.2506 16.832 21.1357C17.4509 21.0766 18.0719 20.9902 18.6647 20.7976C19.1084 20.6539 19.5332 20.4352 19.8815 20.1217C20.2463 19.7992 20.5226 19.3831 20.7008 18.931C20.948 18.3091 21.0512 17.6416 21.1211 16.9795C21.2441 15.7237 21.2402 14.4604 21.2492 13.2001C21.2495 12.7996 21.248 12.3991 21.2498 11.9989C21.2471 11.7175 21.4184 11.4448 21.6728 11.3251C21.9035 11.2102 22.1933 11.2276 22.4081 11.3707C22.6283 11.5099 22.7612 11.7703 22.7501 12.0301C22.745 13.5625 22.7648 15.0973 22.6577 16.627C22.5764 17.6788 22.4342 18.7489 21.995 19.7185C21.5948 20.6113 20.8988 21.3688 20.0378 21.8347C19.1567 22.3165 18.1523 22.5055 17.1638 22.6102C15.8471 22.7419 14.522 22.741 13.2002 22.7494C11.5499 22.7437 9.89899 22.7686 8.24959 22.7068C7.03489 22.6501 5.79649 22.5655 4.64479 22.1449C3.76429 21.8272 2.97589 21.247 2.43859 20.4775C1.82329 19.6087 1.56169 18.5482 1.42909 17.5066C1.25659 16.0978 1.26139 14.6758 1.25059 13.2589C1.25299 11.9089 1.24189 10.5589 1.26529 9.20923C1.28209 8.38963 1.30999 7.56913 1.39849 6.75373C1.47889 6.02263 1.60909 5.29063 1.87129 4.60093C2.15269 3.84583 2.62489 3.15973 3.24889 2.64703C3.68149 2.28793 4.18369 2.01853 4.71229 1.82983C5.30689 1.61773 5.93029 1.49893 6.55549 1.42123C7.33009 1.32673 8.11069 1.29283 8.89069 1.27213Z" fill="#4B4B4B"/>
<path opacity="0.5" d="M13.1791 3.31127C13.3456 3.13967 13.5982 3.05687 13.834 3.09767C14.0521 3.13157 14.2504 3.26837 14.3608 3.45977C14.8225 4.24877 15.2839 5.03807 15.745 5.82737C15.7819 5.88887 15.8134 5.95427 15.8587 6.01067C15.913 6.06857 16.0045 6.06047 16.0654 6.01727C16.6267 5.68817 17.1889 5.36057 17.7502 5.03147C18.2281 4.73357 18.8599 4.70687 19.3603 4.96667C19.6438 5.10827 19.8829 5.33567 20.0413 5.60987C20.4409 6.29327 20.8402 6.97667 21.2398 7.66007C21.3169 7.42127 21.3298 7.14857 21.4975 6.94907C21.6934 6.70337 22.0516 6.60797 22.3441 6.72467C22.6822 6.84557 22.8931 7.23197 22.81 7.58207C22.6291 8.28347 22.4425 8.98367 22.2604 9.68507C22.2283 9.82067 22.1854 9.95837 22.0948 10.0673C21.9157 10.2989 21.5944 10.4063 21.3121 10.3265C20.5924 10.1378 19.8727 9.94877 19.1527 9.76067C18.9394 9.70907 18.7525 9.56027 18.6568 9.36257C18.5395 9.13067 18.5581 8.83877 18.7012 8.62217C18.859 8.37197 19.1749 8.23607 19.4653 8.29427C19.6261 8.32967 19.7839 8.37797 19.9441 8.41667C19.5442 7.73177 19.1446 7.04687 18.7429 6.36287C18.7027 6.28607 18.5959 6.26597 18.5266 6.31547C17.9647 6.64397 17.4025 6.97247 16.8409 7.30127C16.6231 7.43477 16.3765 7.52237 16.1215 7.54577C15.5095 7.61027 14.8765 7.29857 14.5597 6.77027C14.086 5.96357 13.6153 5.15507 13.1425 4.34777C13.0816 4.24367 13.0138 4.14047 12.9859 4.02137C12.9208 3.77237 12.9967 3.49277 13.1791 3.31127Z" fill="#4B4B4B"/>
<path opacity="0.5" d="M11.4921 7.68009C11.61 7.49139 11.8377 7.37769 12.0597 7.40289C12.2889 7.42239 12.495 7.58859 12.5679 7.80609C12.606 7.90869 12.5997 8.02029 12.6006 8.12799C13.1886 8.25429 13.7502 8.55789 14.1324 9.02889C14.4402 9.40389 14.6151 9.88959 14.5983 10.3759C14.5845 10.6564 14.3475 10.9027 14.0685 10.9297C13.8075 10.9642 13.5384 10.8028 13.4436 10.5577C13.3809 10.4179 13.4157 10.2592 13.3677 10.1155C13.284 9.83679 13.0713 9.61059 12.8211 9.46989C12.4425 9.25689 11.9808 9.21969 11.5623 9.31839C11.187 9.40959 10.8297 9.64989 10.6707 10.0111C10.5762 10.2145 10.578 10.4569 10.6725 10.6603C10.9044 11.1709 11.4951 11.4163 12.0315 11.4007C12.6402 11.4067 13.2501 11.605 13.7343 11.9764C14.0724 12.2356 14.346 12.5863 14.4864 12.9907C14.6883 13.564 14.6193 14.2267 14.2953 14.7421C13.926 15.3403 13.2792 15.7279 12.6006 15.8722C12.606 16.0252 12.5976 16.1884 12.5085 16.3192C12.3957 16.4995 12.1833 16.6129 11.9703 16.5994C11.7393 16.5913 11.5236 16.4344 11.4414 16.219C11.3946 16.1098 11.3991 15.9886 11.3997 15.8722C10.818 15.7474 10.263 15.4495 9.88108 14.9878C9.56518 14.6101 9.38398 14.1172 9.40168 13.6234C9.41608 13.3222 9.68908 13.0648 9.99028 13.0666C10.2327 13.0597 10.4685 13.2166 10.5564 13.4425C10.6164 13.5742 10.5861 13.723 10.6254 13.8595C10.6992 14.1355 10.9011 14.3635 11.1423 14.509C11.4843 14.7163 11.9028 14.7703 12.294 14.7109C12.6318 14.6587 12.9618 14.4988 13.1805 14.2312C13.3356 14.0413 13.434 13.7902 13.3896 13.5433C13.338 13.252 13.1373 13.0057 12.894 12.8473C12.63 12.6754 12.3123 12.5992 11.9994 12.6001C11.415 12.5998 10.8294 12.4231 10.3506 12.0865C9.99868 11.8387 9.70648 11.4973 9.54598 11.0956C9.31678 10.5301 9.35878 9.86139 9.66148 9.33069C10.0209 8.69259 10.6938 8.27739 11.3994 8.12799C11.3937 7.97439 11.4024 7.81119 11.4921 7.68009Z" fill="#4B4B4B"/>
</svg>
