<svg width="24" height="24" viewBox="0 0 24 24" fill="none" xmlns="http://www.w3.org/2000/svg">
<path d="M11.1745 1.28095C11.4589 1.26055 11.7442 1.24705 12.0292 1.25125C12.2917 1.25635 12.541 1.41655 12.6625 1.64785C12.7777 1.86175 12.7786 2.13145 12.6658 2.34625C12.5362 2.60065 12.2536 2.76415 11.9683 2.75065C9.80231 2.74705 7.64891 3.54535 6.00521 4.95505C4.42421 6.29516 3.31331 8.17975 2.92181 10.2161C2.57381 11.9915 2.75531 13.8686 3.45131 15.5396C4.18031 17.3069 5.47541 18.833 7.09691 19.8449C7.96361 20.3888 8.92151 20.786 9.91871 21.0146C11.2822 21.3284 12.7168 21.3284 14.0803 21.0149C15.9343 20.5928 17.6434 19.5746 18.9058 18.1541C19.5841 17.393 20.1376 16.5197 20.5318 15.5792C21.0076 14.4497 21.2509 13.2239 21.2497 11.9987C21.2482 11.7617 21.3679 11.5289 21.5608 11.3918C21.7603 11.246 22.0336 11.2079 22.264 11.2979C22.4581 11.3702 22.6183 11.5259 22.6951 11.7182C22.777 11.9108 22.7443 12.1244 22.7449 12.3275C22.6891 14.3792 22.0243 16.4084 20.8558 18.0953C19.6918 19.7879 18.034 21.1364 16.1368 21.9251C13.9699 22.8344 11.5021 22.9958 9.23261 22.3904C7.28951 21.8774 5.50151 20.7992 4.13411 19.3274C2.68121 17.7749 1.70531 15.7823 1.38041 13.6802C1.01351 11.3708 1.41971 8.94355 2.54021 6.88915C3.69761 4.74055 5.60801 3.00955 7.86281 2.07475C8.91461 1.63495 10.0378 1.36705 11.1745 1.28095Z" fill="#4B4B4B"/>
<path opacity="0.5" d="M16.5818 1.37422C16.8602 1.19362 17.258 1.23112 17.4944 1.46542C18.1562 2.12602 18.8168 2.78782 19.4783 3.44872C20.1323 2.79562 20.7854 2.14132 21.4394 1.48822C21.5756 1.34932 21.7652 1.26352 21.9605 1.26022C22.2161 1.25092 22.4699 1.38472 22.6082 1.59982C22.8056 1.88932 22.7564 2.31292 22.4996 2.55082C21.8456 3.20302 21.1934 3.85702 20.5397 4.50952C21.2036 5.17612 21.8711 5.83942 22.5347 6.50632C22.7051 6.68812 22.7705 6.95962 22.7054 7.19992C22.6409 7.45732 22.4282 7.67092 22.1705 7.73512C21.923 7.80262 21.6422 7.73122 21.4604 7.54942C20.7998 6.89002 20.1407 6.22912 19.4798 5.57002C18.8465 6.20332 18.2126 6.83662 17.5796 7.47052C17.4671 7.59442 17.3273 7.70092 17.1608 7.73812C16.8716 7.81372 16.5449 7.69462 16.3727 7.45012C16.2104 7.23052 16.1834 6.92002 16.3082 6.67642C16.3697 6.54622 16.4783 6.44842 16.5788 6.34852C17.192 5.73532 17.8055 5.12182 18.4187 4.50862C17.7626 3.85162 17.1059 3.19552 16.4495 2.53882C16.3304 2.42242 16.2542 2.26432 16.235 2.09902C16.1975 1.81672 16.3397 1.52332 16.5818 1.37422Z" fill="#4B4B4B"/>
<path opacity="0.5" d="M11.5034 7.66275C11.624 7.48395 11.8445 7.37835 12.0596 7.40295C12.2882 7.42215 12.4943 7.58775 12.5672 7.80435C12.6059 7.90755 12.5996 8.01945 12.6005 8.12775C13.1819 8.25255 13.7372 8.55075 14.1191 9.01275C14.435 9.39015 14.6153 9.88275 14.5982 10.3763C14.5838 10.6667 14.33 10.9187 14.0399 10.9322C13.7789 10.9538 13.5194 10.7822 13.4348 10.5353C13.3826 10.3994 13.4144 10.2485 13.3664 10.1114C13.2773 9.82005 13.0487 9.58725 12.782 9.44865C12.4424 9.26985 12.0407 9.23085 11.666 9.29595C11.3078 9.35985 10.9592 9.54825 10.7552 9.85635C10.6298 10.0418 10.565 10.2767 10.6187 10.4978C10.6883 10.8008 10.9142 11.048 11.1803 11.1977C11.4287 11.3387 11.7161 11.4002 12.0002 11.3999C12.5846 11.3999 13.1705 11.5766 13.6493 11.9135C14 12.1607 14.2916 12.5006 14.4524 12.9008C14.6801 13.46 14.6429 14.1206 14.3498 14.6489C13.9931 15.2978 13.3136 15.7214 12.6005 15.872C12.6071 16.0319 12.5948 16.2029 12.4967 16.3364C12.3764 16.5155 12.1556 16.6214 11.9402 16.5968C11.7128 16.5776 11.5073 16.4138 11.4335 16.1984C11.3939 16.0943 11.3993 15.9812 11.3996 15.872C10.8185 15.7472 10.2644 15.4499 9.88225 14.9891C9.57055 14.6177 9.39115 14.1347 9.40045 13.6487C9.40105 13.3271 9.69895 13.0478 10.0196 13.0667C10.2518 13.0718 10.4714 13.2257 10.556 13.442C10.6199 13.5827 10.583 13.7429 10.6331 13.8872C10.7156 14.1581 10.9196 14.3798 11.1617 14.5202C11.5121 14.7251 11.9387 14.7728 12.3347 14.7038C12.6854 14.6408 13.0268 14.4587 13.2326 14.1614C13.3607 13.9784 13.4324 13.7465 13.3859 13.5239C13.3223 13.2116 13.0922 12.9554 12.8198 12.8024C12.572 12.6617 12.2852 12.5999 12.0017 12.5999C11.3186 12.5999 10.6298 12.3593 10.1186 11.9015C9.75685 11.5787 9.49555 11.1356 9.42475 10.6529C9.34165 10.1372 9.46495 9.59205 9.76525 9.16455C10.1435 8.61795 10.7564 8.26485 11.3993 8.12775C11.3924 7.96755 11.4047 7.79625 11.5034 7.66275Z" fill="#4B4B4B"/>
</svg>
