<svg width="24" height="24" viewBox="0 0 24 24" fill="none" xmlns="http://www.w3.org/2000/svg">
<path d="M8.89109 1.27229C9.9276 1.24769 10.9641 1.25039 12.0006 1.25039C12.2223 1.24739 12.4398 1.35239 12.5799 1.52369C12.7539 1.73129 12.7989 2.03549 12.6942 2.28509C12.5844 2.55989 12.3 2.75339 12.0036 2.75009C10.5819 2.75459 9.159 2.73839 7.7394 2.82059C7.0986 2.86169 6.45659 2.92319 5.8296 3.06569C5.36849 3.17219 4.9119 3.32729 4.51049 3.58229C4.07489 3.85649 3.71369 4.24649 3.47129 4.70009C3.23879 5.13209 3.10379 5.60879 3.01139 6.08819C2.87099 6.83009 2.82239 7.58519 2.79059 8.33819C2.74019 9.69809 2.75309 11.0595 2.75069 12.42C2.75069 13.3509 2.75069 14.2818 2.77589 15.2121C2.79719 15.948 2.83139 16.6848 2.93039 17.415C3.00839 17.9763 3.12389 18.5385 3.35309 19.0593C3.54179 19.4883 3.8235 19.878 4.18379 20.1789C4.5552 20.4948 5.00639 20.703 5.4714 20.8404C6.05399 21.0117 6.65909 21.0903 7.26239 21.1443C8.52869 21.2484 9.8007 21.2439 11.0703 21.2493C12.6306 21.2448 14.1918 21.2664 15.7512 21.2058C16.4262 21.1761 17.1024 21.1293 17.769 21.015C18.2964 20.9214 18.8238 20.7849 19.2981 20.5296C19.7781 20.2734 20.1867 19.8846 20.463 19.4157C20.7024 19.0137 20.8476 18.5628 20.9484 18.108C21.0885 17.4618 21.1479 16.8009 21.1863 16.1418C21.2634 14.7423 21.2418 13.3398 21.2529 11.9391C21.2712 11.6637 21.4581 11.409 21.7143 11.3067C21.9381 11.2116 22.2072 11.2371 22.4097 11.3718C22.629 11.511 22.7613 11.7714 22.7502 12.0306C22.7457 13.5312 22.7634 15.0336 22.6647 16.5318C22.587 17.592 22.4529 18.6708 22.0242 19.6536C21.6504 20.5206 21.0021 21.2673 20.1891 21.7488C19.3056 22.2753 18.2778 22.4862 17.2674 22.5993C15.9171 22.743 14.5572 22.7406 13.2012 22.7496C11.5407 22.7436 9.8793 22.7694 8.2194 22.7058C7.00739 22.6482 5.77139 22.5615 4.62359 22.137C3.73109 21.8112 2.93609 21.2133 2.40179 20.4249C1.80809 19.5591 1.55609 18.5136 1.42649 17.4861C1.25699 16.0836 1.26149 14.6682 1.25069 13.2579C1.25309 11.9187 1.24229 10.5789 1.26479 9.23969C1.28189 8.38949 1.31039 7.53809 1.40519 6.69239C1.48739 5.97419 1.61939 5.25569 1.87979 4.57889C2.16419 3.82559 2.63969 3.14309 3.26519 2.63399C3.69419 2.28119 4.19099 2.01599 4.713 1.82969C5.30729 1.61759 5.9307 1.49909 6.55559 1.42139C7.33049 1.32689 8.11139 1.29269 8.89109 1.27229Z" fill="#4B4B4B"/>
<path opacity="0.5" d="M21.3894 1.56059C21.5871 1.40819 21.8637 1.36859 22.0974 1.45529C22.3275 1.53869 22.5114 1.74059 22.5678 1.97939C22.6323 2.22959 22.5549 2.51069 22.3689 2.69069C21.0957 3.96359 19.8228 5.23649 18.5499 6.50969C19.386 6.51029 20.2224 6.50999 21.0585 6.50999C21.1884 6.51089 21.3219 6.50099 21.4482 6.53909C21.6918 6.60809 21.8934 6.80909 21.9609 7.05329C22.02 7.25549 21.9882 7.48199 21.8748 7.65959C21.741 7.87439 21.4938 8.01269 21.2403 8.00969C19.8006 8.01029 18.3606 8.00969 16.9209 8.00999C16.7892 8.00939 16.6539 8.01869 16.5264 7.97939C16.287 7.90949 16.0896 7.71239 16.0206 7.47269C15.9813 7.34579 15.9903 7.21169 15.99 7.08089C15.9903 5.64059 15.9897 4.20029 15.9903 2.75999C15.9885 2.54789 16.083 2.33849 16.2426 2.19929C16.4535 2.00579 16.7799 1.95539 17.0406 2.07269C17.3082 2.18699 17.4942 2.46749 17.4897 2.75969C17.4906 3.65639 17.4894 4.55339 17.4903 5.45009C18.7239 4.21709 19.9572 2.98349 21.1905 1.74989C21.2556 1.68569 21.3171 1.61729 21.3894 1.56059Z" fill="#4B4B4B"/>
<path opacity="0.5" d="M11.5038 7.66229C11.6244 7.48349 11.8449 7.37849 12.06 7.40309C12.2892 7.42259 12.4953 7.58879 12.5679 7.80629C12.606 7.90889 12.5997 8.02019 12.6006 8.12789C13.1883 8.25419 13.7496 8.55749 14.1318 9.02819C14.4399 9.40319 14.6151 9.88919 14.5983 10.3758C14.5845 10.6557 14.3484 10.902 14.0697 10.9293C13.8003 10.9662 13.5231 10.7928 13.4352 10.5363C13.383 10.401 13.4142 10.2507 13.3674 10.1142C13.2693 9.79109 13.0023 9.54239 12.6993 9.40829C12.3315 9.24569 11.9067 9.22709 11.5197 9.32939C11.1468 9.43049 10.7961 9.68369 10.6533 10.0524C10.563 10.2747 10.5927 10.5333 10.7118 10.7391C10.9017 11.079 11.2653 11.2935 11.6409 11.3658C11.868 11.4156 12.1023 11.3883 12.3318 11.4189C12.9486 11.4897 13.551 11.7564 13.9884 12.2016C14.3034 12.5187 14.5212 12.9351 14.58 13.3797C14.6553 13.899 14.5215 14.4447 14.2113 14.8683C13.8309 15.3966 13.2306 15.7377 12.6006 15.8721C12.606 16.0254 12.5973 16.1889 12.5079 16.32C12.39 16.5087 12.1626 16.6224 11.9406 16.5972C11.7207 16.5783 11.5206 16.425 11.4417 16.2195C11.3946 16.11 11.3991 15.9885 11.3997 15.8721C10.8183 15.7473 10.2633 15.4494 9.88111 14.9877C9.56551 14.6106 9.38492 14.1186 9.40172 13.6254C9.41492 13.3239 9.68731 13.0656 9.98881 13.0665C10.2321 13.059 10.4691 13.2165 10.5567 13.4436C10.6164 13.575 10.5861 13.7244 10.6257 13.8609C10.6998 14.1354 10.9008 14.3625 11.1411 14.508C11.496 14.7237 11.9334 14.7747 12.3378 14.7033C12.6879 14.64 13.0284 14.4573 13.2333 14.1603C13.3617 13.977 13.4328 13.7445 13.3854 13.5216C13.3209 13.2099 13.0911 12.9546 12.819 12.8019C12.5715 12.6618 12.285 12.6 12.0021 12.6C11.4036 12.6003 10.8033 12.4155 10.3182 12.063C9.96301 11.805 9.67261 11.4489 9.52231 11.034C9.30961 10.4547 9.37621 9.77909 9.70561 9.25619C10.0752 8.65889 10.7217 8.27189 11.3994 8.12789C11.3925 7.96739 11.4051 7.79609 11.5038 7.66229Z" fill="#4B4B4B"/>
</svg>
