<svg width="24" height="24" viewBox="0 0 24 24" fill="none" xmlns="http://www.w3.org/2000/svg">
<path d="M11.1729 1.2813C11.4681 1.2609 11.7642 1.2441 12.0597 1.2531C12.4092 1.2717 12.7143 1.5705 12.7455 1.9179C12.7842 2.2242 12.6096 2.5398 12.3321 2.673C12.2028 2.7408 12.054 2.7546 11.9103 2.7513C9.77069 2.7606 7.64819 3.5532 6.02129 4.9419C4.51049 6.2172 3.42449 7.9881 2.98559 9.9168C2.56289 11.7489 2.71049 13.7103 3.41669 15.4539C4.12289 17.2167 5.38979 18.7467 6.98609 19.7742C7.85099 20.3343 8.81129 20.7474 9.81299 20.9898C11.2086 21.3285 12.6828 21.3366 14.0823 21.0147C15.9138 20.5971 17.6043 19.5981 18.8616 18.2034C19.5603 17.4309 20.1291 16.5405 20.5317 15.5799C20.9838 14.5059 21.2274 13.3449 21.2478 12.18C21.2508 12.0597 21.2418 11.937 21.2721 11.8191C21.3273 11.5902 21.4977 11.3931 21.7164 11.3058C21.9258 11.2182 22.1751 11.2341 22.3713 11.3484C22.5933 11.472 22.7427 11.7165 22.7487 11.9709C22.764 14.106 22.1148 16.239 20.9169 18.006C19.7625 19.7217 18.1038 21.0933 16.1988 21.8991C14.1237 22.7853 11.7663 22.9839 9.56909 22.4739C7.61489 22.0257 5.79749 21.0093 4.38479 19.5876C2.91089 18.1131 1.87859 16.2018 1.46669 14.1573C1.03049 12.0243 1.25489 9.759 2.11889 7.7592C2.61689 6.5994 3.32249 5.529 4.19039 4.6125C5.17379 3.5724 6.36629 2.7297 7.67729 2.1543C8.78189 1.668 9.96959 1.3722 11.1729 1.2813Z" fill="#4B4B4B"/>
<path opacity="0.5" d="M13.3707 3.1704C13.7022 2.9907 14.1555 3.1149 14.3481 3.4392C14.8446 4.2834 15.336 5.1303 15.8322 5.9745C15.87 6.0525 15.9765 6.0756 16.0464 6.0273C16.5582 5.73 17.0685 5.43 17.58 5.1318C17.7276 5.0463 17.8719 4.9524 18.0333 4.8936C18.4533 4.7334 18.939 4.7568 19.3413 4.9572C19.6263 5.0952 19.8687 5.3187 20.0301 5.5911C20.4342 6.2799 20.8353 6.9705 21.24 7.659C21.3177 7.4202 21.33 7.1481 21.498 6.9489C21.6945 6.7029 22.0536 6.6078 22.3461 6.7257C22.6836 6.8472 22.8936 7.2339 22.8099 7.5834C22.6179 8.3247 22.4226 9.0657 22.2276 9.8067C22.1523 10.0896 21.8949 10.311 21.6045 10.3458C21.426 10.3746 21.2529 10.3086 21.0825 10.2663C20.4948 10.1124 19.9071 9.9579 19.3191 9.8043C19.1976 9.7713 19.071 9.7479 18.9606 9.6846C18.7377 9.5604 18.5883 9.3162 18.5805 9.0612C18.5694 8.814 18.6897 8.5644 18.8928 8.4222C19.0668 8.2947 19.2978 8.2509 19.5069 8.3031C19.653 8.3394 19.7979 8.3805 19.9443 8.4168C19.545 7.7328 19.1457 7.0485 18.7446 6.3654C18.7056 6.288 18.5985 6.2652 18.5286 6.3147C17.9466 6.654 17.3655 6.9951 16.7835 7.3347C16.4469 7.53 16.0395 7.5978 15.6576 7.5243C15.1995 7.4409 14.7837 7.152 14.5476 6.75C14.0502 5.8998 13.5522 5.0499 13.0563 4.1985C12.8487 3.846 13.0032 3.3474 13.3707 3.1704Z" fill="#4B4B4B"/>
<path opacity="0.5" d="M11.5029 7.66381C11.6226 7.48531 11.8419 7.37971 12.0564 7.40281C12.2865 7.42081 12.4947 7.58731 12.5676 7.80571C12.6063 7.90861 12.5997 8.02021 12.6006 8.12791C13.1946 8.25541 13.7616 8.56411 14.1438 9.04321C14.4396 9.40951 14.6082 9.87901 14.5995 10.3509C14.5959 10.5471 14.4873 10.7367 14.3208 10.8402C14.1468 10.953 13.9134 10.9641 13.7298 10.8687C13.5363 10.7733 13.4037 10.5669 13.401 10.3506C13.4022 9.97411 13.1388 9.64651 12.8214 9.47011C12.4488 9.26011 11.9955 9.22111 11.5824 9.31351C11.2068 9.39961 10.8474 9.63331 10.6803 9.98971C10.5813 10.1904 10.5735 10.4328 10.6632 10.6383C10.8084 10.9854 11.139 11.2266 11.493 11.3295C11.6577 11.3787 11.8299 11.3994 12.0015 11.4C12.642 11.4006 13.2861 11.613 13.7856 12.0168C14.1246 12.291 14.3919 12.6603 14.5155 13.0806C14.6853 13.6467 14.5974 14.2857 14.2713 14.7801C13.8978 15.3573 13.2648 15.7308 12.6006 15.8721C12.6084 16.0386 12.5922 16.2174 12.4851 16.353C12.3633 16.5225 12.1494 16.6203 11.9412 16.5972C11.721 16.5786 11.5206 16.425 11.4414 16.2192C11.3946 16.1097 11.3991 15.9885 11.3997 15.8721C10.8177 15.747 10.2627 15.4491 9.88051 14.9871C9.56431 14.6088 9.38341 14.115 9.40201 13.6206C9.41761 13.3209 9.68941 13.0653 9.98941 13.0665C10.2327 13.0593 10.4688 13.2165 10.5567 13.4433C10.6194 13.584 10.5831 13.7439 10.6332 13.8882C10.716 14.1585 10.92 14.3799 11.1615 14.5203C11.5125 14.7255 11.9397 14.7729 12.336 14.7036C12.687 14.6406 13.0284 14.4576 13.2336 14.16C13.3662 13.9713 13.4364 13.7292 13.3809 13.5012C13.3089 13.191 13.0746 12.9396 12.7995 12.7911C12.5562 12.6582 12.2769 12.6 12.0009 12.6C11.403 12.6 10.803 12.4155 10.3182 12.0633C9.95641 11.8002 9.66211 11.4357 9.51421 11.0112C9.30901 10.4307 9.38221 9.75811 9.71611 9.23971C10.0872 8.65141 10.7277 8.27071 11.3994 8.12791C11.3928 7.96801 11.4048 7.79731 11.5029 7.66381Z" fill="#4B4B4B"/>
</svg>
