<svg width="24" height="24" viewBox="0 0 24 24" fill="none" xmlns="http://www.w3.org/2000/svg">
<path d="M11.1726 1.2813C12.8352 1.1535 14.5278 1.413 16.0707 2.0475C17.9553 2.8164 19.6089 4.1355 20.7816 5.7981C22.0545 7.587 22.7517 9.7755 22.7496 11.9709C22.7622 14.0697 22.1379 16.1661 20.9778 17.9151C19.8459 19.6344 18.2109 21.018 16.3254 21.8445C14.2197 22.7766 11.811 22.9944 9.56911 22.4742C7.61431 22.0257 5.79661 21.009 4.38361 19.5864C2.83831 18.0411 1.78081 16.0146 1.41031 13.8597C0.993909 11.4972 1.39051 8.9976 2.53981 6.8901C3.70111 4.7334 5.62201 2.9973 7.88731 2.0646C8.93161 1.6314 10.0452 1.3668 11.1726 1.2813ZM11.2332 2.7813C9.51871 2.9184 7.84891 3.5514 6.47251 4.5825C4.96051 5.7072 3.80401 7.3035 3.21541 9.0945C2.78251 10.4019 2.65081 11.8062 2.82361 13.1721C2.98141 14.4294 3.40411 15.6522 4.05481 16.7394C5.03431 18.384 6.53641 19.7112 8.29141 20.4765C10.3875 21.4017 12.8307 21.4995 14.9964 20.754C16.0038 20.4093 16.9503 19.8879 17.781 19.2216C19.2189 18.072 20.3037 16.4859 20.8422 14.7246C21.2535 13.3914 21.3537 11.9646 21.1425 10.5861C20.9751 9.4869 20.604 8.4195 20.0565 7.452C19.1133 5.7789 17.6361 4.413 15.8928 3.6066C14.4465 2.9316 12.8229 2.6493 11.2332 2.7813Z" fill="#4B4B4B"/>
<path opacity="0.5" d="M11.5158 7.6458C11.6379 7.4766 11.8521 7.3797 12.06 7.4031C12.2883 7.4226 12.4941 7.5876 12.567 7.8042C12.6063 7.9074 12.5997 8.0196 12.6006 8.1279C13.1892 8.2542 13.7511 8.5584 14.1333 9.03C14.4357 9.3984 14.6085 9.8736 14.5995 10.3515C14.5959 10.5549 14.4783 10.7508 14.3019 10.8516C14.1306 10.9539 13.9074 10.9605 13.7301 10.869C13.5357 10.7733 13.4028 10.5654 13.401 10.3482C13.4001 9.9399 13.0944 9.5952 12.7404 9.4275C12.3777 9.2526 11.9526 9.2265 11.5632 9.318C11.1879 9.4089 10.83 9.6492 10.6707 10.0107C10.5729 10.2207 10.5789 10.4715 10.6809 10.6788C10.905 11.1471 11.4378 11.391 11.9382 11.3985C12.5781 11.3898 13.2255 11.5848 13.7349 11.9769C14.0976 12.2547 14.3856 12.639 14.5152 13.08C14.6856 13.6461 14.5974 14.2851 14.2716 14.7795C13.8984 15.357 13.2651 15.7308 12.6006 15.8721C12.6072 16.032 12.5949 16.2033 12.4965 16.3371C12.3762 16.5156 12.156 16.6212 11.9409 16.5972C11.7207 16.5783 11.5206 16.425 11.4414 16.2192C11.3946 16.1097 11.3991 15.9885 11.3997 15.8721C10.818 15.7473 10.263 15.4491 9.8808 14.9874C9.5766 14.6241 9.3993 14.1552 9.3999 13.6806C9.3831 13.3482 9.6861 13.047 10.0188 13.0668C10.2519 13.0716 10.4724 13.2261 10.5567 13.4436C10.617 13.5753 10.5855 13.725 10.626 13.8618C10.7004 14.1366 10.9017 14.3637 11.1423 14.5089C11.496 14.7231 11.9313 14.7741 12.3345 14.7039C12.6855 14.6412 13.0269 14.4588 13.2327 14.1612C13.3608 13.9788 13.4322 13.7472 13.386 13.5249C13.323 13.2126 13.0929 12.9558 12.8205 12.8028C12.5718 12.6615 12.2838 12.5997 11.9994 12.6C11.4024 12.5997 10.8036 12.4155 10.3194 12.0639C9.957 11.8008 9.6621 11.436 9.5139 11.0109C9.3141 10.4442 9.3786 9.7893 9.6933 9.2763C10.0605 8.6679 10.7139 8.2734 11.3994 8.1279C11.3913 7.9608 11.4078 7.7814 11.5158 7.6458Z" fill="#4B4B4B"/>
</svg>
