<svg width="24" height="24" viewBox="0 0 24 24" fill="none" xmlns="http://www.w3.org/2000/svg">
<path d="M11.1736 1.28125C11.4583 1.26055 11.7439 1.24705 12.0292 1.25125C12.2848 1.25575 12.5272 1.40815 12.6523 1.62925C12.7615 1.81915 12.7798 2.05735 12.7027 2.26225C12.5938 2.57215 12.2653 2.77495 11.9401 2.75125C9.78997 2.75335 7.65487 3.54685 6.02017 4.94245C4.50457 6.22255 3.41617 8.00155 2.98057 9.93835C2.55157 11.816 2.72287 13.8278 3.47707 15.6014C4.21597 17.3558 5.51347 18.8669 7.13287 19.8674C8.05387 20.4395 9.07717 20.8463 10.1398 21.0626C11.5036 21.341 12.9307 21.3092 14.2801 20.9666C16.0846 20.513 17.7379 19.4924 18.9613 18.0914C19.6141 17.3453 20.1481 16.4945 20.5315 15.5801C21.0073 14.4503 21.2506 13.2242 21.25 11.9987C21.2482 11.7614 21.3682 11.5283 21.5617 11.3912C21.7675 11.2412 22.0516 11.2064 22.2865 11.3063C22.5517 11.4134 22.7428 11.6831 22.7485 11.9702C22.7641 14.1275 22.1014 16.2827 20.8795 18.0608C19.7098 19.7762 18.034 21.1418 16.1146 21.9344C13.9591 22.8332 11.5078 22.9925 9.25147 22.3955C7.30687 21.8858 5.51707 20.8109 4.14697 19.3409C2.65987 17.7578 1.67017 15.7136 1.36267 13.5626C1.02727 11.2889 1.43857 8.90965 2.53957 6.89005C3.26647 5.54515 4.28437 4.35895 5.50237 3.43495C7.13287 2.19055 9.12757 1.43185 11.1736 1.28125Z" fill="#4B4B4B"/>
<path opacity="0.5" d="M18.288 5.08896C18.4284 4.95996 18.6195 4.89156 18.8097 4.89516C19.6803 4.89516 20.5509 4.89546 21.4215 4.89516C21.5745 4.89546 21.7335 4.88466 21.879 4.94196C22.1646 5.04426 22.3704 5.33316 22.3683 5.63766C22.3698 6.52836 22.368 7.41936 22.3692 8.31006C22.3689 8.44116 22.3764 8.57616 22.3335 8.70246C22.2501 8.97426 21.999 9.18426 21.7164 9.21816C21.4086 9.26316 21.0843 9.09186 20.949 8.81136C20.8923 8.70306 20.8683 8.58036 20.8686 8.45886C20.8686 8.12496 20.8686 7.79106 20.8686 7.45746C19.8897 8.43906 18.9081 9.41796 17.9283 10.3987C17.8038 10.5274 17.637 10.6165 17.4579 10.6345C17.1642 10.6699 16.8588 10.5115 16.719 10.2505C16.5609 9.97176 16.6086 9.59316 16.8378 9.36726C17.8272 8.37546 18.8205 7.38696 19.809 6.39426C19.4661 6.39666 19.1232 6.39546 18.7806 6.39516C18.4785 6.39666 18.1899 6.19296 18.0879 5.90946C17.9793 5.62866 18.0612 5.28756 18.288 5.08896Z" fill="#4B4B4B"/>
<path d="M17.8997 1.94015C18.0842 1.74965 18.3731 1.66805 18.6293 1.73945C18.8975 1.80725 19.1162 2.03645 19.1708 2.30795C19.2218 2.54075 19.1534 2.79755 18.9887 2.97095C17.9954 3.96665 16.9988 4.95875 16.0064 5.95535C16.3511 5.95925 16.6955 5.95475 17.0402 5.95745C17.2889 5.96045 17.5304 6.09905 17.66 6.31115C17.7971 6.52745 17.81 6.81485 17.6939 7.04285C17.5739 7.28615 17.3138 7.45355 17.0417 7.45625C16.1414 7.45775 15.2411 7.45595 14.3408 7.45715C14.2295 7.45655 14.1164 7.46285 14.0081 7.43345C13.7591 7.37195 13.55 7.17275 13.4771 6.92675C13.4333 6.79265 13.4453 6.65015 13.4438 6.51155C13.4441 5.69105 13.4441 4.87055 13.4438 4.05005C13.4447 3.93065 13.4363 3.80915 13.4675 3.69245C13.5296 3.44045 13.7333 3.22955 13.9829 3.15875C14.189 3.09785 14.4218 3.12965 14.6015 3.24875C14.8106 3.38045 14.9441 3.62315 14.9438 3.87035C14.9444 4.21205 14.9435 4.55375 14.9441 4.89575C15.9293 3.91055 16.9142 2.92505 17.8997 1.94015Z" fill="#4B4B4B"/>
<path opacity="0.5" d="M11.542 7.61266C11.6791 7.44646 11.9098 7.36666 12.1204 7.41196C12.3238 7.45156 12.4993 7.60666 12.5665 7.80256C12.6061 7.90606 12.5995 8.01886 12.6004 8.12776C13.1884 8.25406 13.7497 8.55766 14.1316 9.02806C14.44 9.40336 14.6152 9.88996 14.5981 10.3769C14.5837 10.6568 14.3473 10.9025 14.0686 10.9292C13.8076 10.9643 13.5385 10.8029 13.4434 10.5581C13.3804 10.4171 13.4158 10.2569 13.3666 10.1126C13.2844 9.84196 13.0807 9.62116 12.8398 9.48046C12.4885 9.27466 12.0607 9.22666 11.6638 9.29626C11.3062 9.36046 10.9579 9.54916 10.7545 9.85726C10.6294 10.0427 10.5649 10.2776 10.6186 10.4987C10.6909 10.8089 10.9255 11.0603 11.2006 11.2088C11.4442 11.342 11.7238 11.4002 12.0004 11.3999C12.5842 11.3999 13.1695 11.5766 13.648 11.9126C13.9996 12.1604 14.2921 12.5009 14.4526 12.902C14.6827 13.4675 14.6416 14.1365 14.3392 14.6672C13.9798 15.3062 13.3069 15.7226 12.6004 15.872C12.607 16.0325 12.5944 16.2044 12.4954 16.3382C12.3751 16.5161 12.1552 16.6211 11.941 16.5971C11.7208 16.5785 11.5207 16.4249 11.4415 16.2197C11.3944 16.1099 11.3989 15.9884 11.3992 15.872C10.8178 15.7472 10.2631 15.4493 9.88082 14.9876C9.56462 14.6096 9.38342 14.1161 9.40172 13.6217C9.41672 13.3208 9.68942 13.0646 9.99032 13.0664C10.2334 13.0595 10.4689 13.217 10.5565 13.4435C10.6192 13.5836 10.5832 13.7435 10.6327 13.8872C10.7152 14.1578 10.9192 14.3792 11.161 14.5199C11.5111 14.7248 11.9374 14.7728 12.3331 14.7038C12.6976 14.6393 13.0531 14.4443 13.2553 14.1269C13.3741 13.9439 13.4332 13.7147 13.3804 13.4996C13.3057 13.1819 13.0621 12.9269 12.778 12.7799C12.5392 12.6545 12.268 12.5996 11.9995 12.5999C11.3728 12.5996 10.7437 12.3965 10.2481 12.0104C9.89312 11.7335 9.61202 11.354 9.48422 10.9196C9.31622 10.3604 9.39992 9.72976 9.71672 9.23806C10.0882 8.65066 10.7281 8.27056 11.3992 8.12776C11.3881 7.94686 11.4145 7.75126 11.542 7.61266Z" fill="#4B4B4B"/>
</svg>
