<svg width="24" height="24" viewBox="0 0 24 24" fill="none" xmlns="http://www.w3.org/2000/svg">
<path d="M11.1746 1.28103C11.459 1.26093 11.7446 1.24683 12.0299 1.25133C12.2927 1.25643 12.5423 1.41723 12.6632 1.64913C12.7778 1.86273 12.7784 2.13153 12.6659 2.34603C12.5369 2.59983 12.2555 2.76333 11.9708 2.75073C9.81104 2.74653 7.66364 3.53973 6.02144 4.94133C4.53134 6.19983 3.45344 7.93983 3.00374 9.83883C2.55884 11.6934 2.70014 13.686 3.41684 15.4548C4.12304 17.2167 5.38934 18.7461 6.98474 19.7736C7.84934 20.3334 8.80874 20.7465 9.80984 20.9889C11.192 21.3249 12.6512 21.3363 14.0387 21.0246C15.8801 20.6142 17.582 19.6167 18.8477 18.2187C19.5524 17.4432 20.1257 16.5477 20.531 15.5811C20.9834 14.5068 21.2273 13.3452 21.2477 12.1794C21.2507 12.0585 21.2417 11.9355 21.2723 11.8176C21.3278 11.5893 21.4979 11.3934 21.7157 11.3061C21.9254 11.2182 22.175 11.2338 22.3715 11.3484C22.5935 11.4723 22.7429 11.7171 22.7486 11.9718C22.7633 14.0778 22.1324 16.182 20.9645 17.9346C19.8248 19.6584 18.1781 21.0423 16.2815 21.8637C14.1869 22.7793 11.7968 22.9908 9.57104 22.4745C7.61504 22.0263 5.79584 21.0087 4.38224 19.5852C2.88674 18.0885 1.84664 16.1415 1.44764 14.0628C0.995232 11.751 1.32164 9.29103 2.38544 7.18713C3.51644 4.91643 5.47994 3.07473 7.81934 2.09313C8.88374 1.64253 10.022 1.36833 11.1746 1.28103Z" fill="#4B4B4B"/>
<path opacity="0.5" d="M21.2207 1.84304C21.4295 1.71824 21.7004 1.70624 21.92 1.81154C22.1393 1.91414 22.3034 2.12804 22.3403 2.36834C22.3805 2.60204 22.301 2.85284 22.1309 3.01874C20.8574 4.29254 19.5836 5.56604 18.3101 6.83984C19.2071 6.84044 20.1038 6.83984 21.0008 6.84044C21.2126 6.83894 21.4214 6.93314 21.5606 7.09244C21.7538 7.30274 21.8045 7.62824 21.6884 7.88864C21.5744 8.15744 21.293 8.34464 20.9999 8.34014C19.5002 8.34014 18.0002 8.34014 16.5005 8.33984C16.1669 8.34644 15.8516 8.10044 15.7736 7.77704C15.7421 7.65674 15.7508 7.53134 15.7502 7.40864C15.7502 6.02864 15.7502 4.64894 15.7502 3.26894C15.7505 3.13844 15.7418 3.00434 15.7805 2.87774C15.8504 2.63684 16.049 2.43764 16.2908 2.36984C16.4933 2.30984 16.7207 2.34134 16.8989 2.45474C17.1143 2.58854 17.2532 2.83634 17.2499 3.09074C17.2505 3.98714 17.2499 4.88384 17.2505 5.78024C18.4841 4.54724 19.7171 3.31364 20.9507 2.08034C21.0362 1.99634 21.1154 1.90304 21.2207 1.84304Z" fill="#4B4B4B"/>
<path opacity="0.5" d="M11.5285 7.62925C11.6581 7.46155 11.8804 7.37245 12.0901 7.40665C12.3061 7.43665 12.4963 7.59655 12.5665 7.80265C12.6064 7.90615 12.5998 8.01895 12.6007 8.12785C13.1884 8.25415 13.7494 8.55745 14.1316 9.02755C14.4352 9.39655 14.6086 9.87265 14.5996 10.3514C14.596 10.5548 14.4784 10.7507 14.3023 10.8515C14.131 10.9538 13.9081 10.9604 13.7308 10.8692C13.537 10.7741 13.4038 10.5671 13.4011 10.3505C13.4008 10.1894 13.354 10.0304 13.2688 9.89395C13.0744 9.57325 12.7243 9.37225 12.3622 9.30145C11.9728 9.22705 11.5525 9.26755 11.2006 9.45745C10.9249 9.60655 10.69 9.85825 10.6186 10.1693C10.5616 10.4057 10.6399 10.6559 10.7812 10.8476C10.9897 11.1338 11.3236 11.3099 11.6683 11.3708C11.878 11.4128 12.0931 11.39 12.3046 11.4158C12.9382 11.4827 13.5589 11.756 14.0038 12.2174C14.311 12.5324 14.5228 12.9434 14.5804 13.3811C14.6551 13.8998 14.521 14.4452 14.2111 14.8682C13.831 15.3965 13.2307 15.7376 12.6007 15.872C12.6061 16.0253 12.5974 16.1888 12.508 16.3199C12.3901 16.5086 12.1627 16.6223 11.9407 16.5968C11.7205 16.5782 11.5201 16.4243 11.4412 16.2185C11.3947 16.1093 11.3992 15.9881 11.3998 15.872C10.8184 15.7472 10.2637 15.4496 9.88184 14.9882C9.57674 14.6246 9.39884 14.1545 9.40004 13.6787C9.38324 13.337 9.70514 13.0316 10.0456 13.0682C10.2691 13.0829 10.4755 13.2347 10.5568 13.4432C10.6171 13.5758 10.5859 13.7261 10.6264 13.8635C10.7014 14.1377 10.9027 14.3642 11.143 14.5091C11.4964 14.723 11.9311 14.774 12.3337 14.7038C12.6784 14.6423 13.0138 14.4659 13.2211 14.1779C13.3564 13.9922 13.4338 13.7534 13.3861 13.5242C13.324 13.2188 13.1026 12.9668 12.8383 12.8129C12.5863 12.665 12.2923 12.5996 12.0016 12.5999C11.3965 12.6002 10.7893 12.4112 10.3018 12.0509C9.94124 11.7845 9.64964 11.4161 9.50654 10.9886C9.31304 10.4195 9.38504 9.76555 9.70604 9.25615C10.0753 8.65855 10.7218 8.27185 11.3995 8.12785C11.3902 7.95385 11.4112 7.76665 11.5285 7.62925Z" fill="#4B4B4B"/>
</svg>
