<svg width="24" height="24" viewBox="0 0 24 24" fill="none" xmlns="http://www.w3.org/2000/svg">
<path d="M8.88946 1.27248C9.92566 1.24788 10.9625 1.25058 11.999 1.25058C12.2126 1.24758 12.4226 1.34388 12.563 1.50438C12.7391 1.70058 12.797 1.99308 12.71 2.24208C12.6164 2.52858 12.3347 2.74218 12.0323 2.74908C10.601 2.75628 9.16816 2.73738 7.73866 2.82078C7.09756 2.86218 6.45466 2.92338 5.82706 3.06648C5.35966 3.17448 4.89736 3.33258 4.49236 3.59388C4.06426 3.86748 3.70966 4.25388 3.47026 4.70178C3.23416 5.14188 3.09826 5.62788 3.00586 6.11658C2.86426 6.87978 2.81746 7.65648 2.78716 8.43108C2.73826 9.85008 2.75356 11.2706 2.75056 12.6905C2.75146 13.6706 2.75296 14.6513 2.78926 15.6311C2.81656 16.3043 2.85886 16.9787 2.96416 17.645C3.05116 18.179 3.17806 18.7136 3.41956 19.2008C3.62536 19.619 3.92716 19.9898 4.29916 20.2715C4.68466 20.5664 5.14156 20.7539 5.60776 20.8793C6.17716 21.0308 6.76426 21.1028 7.35046 21.1517C8.61796 21.2498 9.89056 21.245 11.1611 21.2495C12.7109 21.245 14.2613 21.2666 15.8102 21.2033C16.4657 21.1733 17.1218 21.1262 17.7692 21.0152C18.2972 20.9213 18.8252 20.7848 19.2998 20.5289C19.7795 20.2724 20.1875 19.8833 20.4638 19.4147C20.7065 19.0064 20.8523 18.5486 20.9528 18.0866C21.0977 17.4083 21.1553 16.715 21.1925 16.0235C21.254 14.7836 21.2477 13.5419 21.2492 12.3008C21.2507 12.1718 21.2435 12.0425 21.2552 11.9141C21.2825 11.6474 21.467 11.4053 21.7157 11.3063C21.9392 11.2121 22.2077 11.2376 22.4096 11.372C22.6289 11.5115 22.7612 11.7716 22.7501 12.0305C22.7456 13.5314 22.7633 15.0338 22.6646 16.5323C22.5863 17.6 22.451 18.6869 22.0148 19.6748C21.6284 20.5601 20.9537 21.3176 20.1122 21.7937C19.2317 22.2959 18.2183 22.4957 17.2211 22.6046C15.8855 22.7426 14.5412 22.7411 13.1999 22.7498C11.4992 22.7435 9.79726 22.7714 8.09746 22.7006C6.90226 22.6394 5.68306 22.5449 4.55626 22.1114C3.65776 21.7703 2.86576 21.1475 2.34406 20.3384C1.74976 19.4252 1.51906 18.3338 1.40056 17.2658C1.25506 15.896 1.25896 14.5163 1.25026 13.1402C1.25476 11.6108 1.23556 10.0808 1.28206 8.55168C1.30996 7.72968 1.35646 6.90588 1.48696 6.09288C1.59646 5.42148 1.76896 4.75398 2.07106 4.14138C2.42446 3.42048 2.97196 2.79558 3.64396 2.35578C4.19206 1.99488 4.81546 1.76268 5.45206 1.61358C6.57796 1.35438 7.73866 1.30638 8.88946 1.27248Z" fill="#4B4B4B"/>
<path opacity="0.5" d="M16.6605 1.8422C16.7793 1.5836 17.0544 1.4063 17.34 1.4105C18.8403 1.4102 20.3406 1.4099 21.8409 1.4105C22.2291 1.4006 22.5834 1.7396 22.5885 2.1284C22.5918 3.6386 22.5894 5.1488 22.59 6.6593C22.5915 6.8639 22.5042 7.067 22.3539 7.2059C22.1715 7.3823 21.8958 7.4513 21.6513 7.3865C21.4002 7.3229 21.1896 7.1195 21.12 6.8696C21.0807 6.7439 21.0906 6.6104 21.09 6.4805C21.09 5.6438 21.0903 4.8068 21.0897 3.9701C19.8165 5.243 18.5433 6.5162 17.2704 7.7894C17.1327 7.9307 16.9368 8.0111 16.74 8.0102C16.4547 8.0141 16.1799 7.8371 16.0605 7.5791C15.9306 7.3085 15.9837 6.9611 16.1949 6.7466C17.4726 5.4671 18.7521 4.1894 20.0301 2.9105C19.1331 2.9099 18.2361 2.9105 17.3391 2.9099C17.121 2.9117 16.9068 2.8109 16.7673 2.6441C16.5789 2.4281 16.5366 2.1002 16.6605 1.8422Z" fill="#4B4B4B"/>
<path opacity="0.5" d="M11.5282 7.62985C11.6578 7.46155 11.8804 7.37245 12.0901 7.40665C12.3064 7.43665 12.4966 7.59685 12.5668 7.80295C12.6064 7.90645 12.5998 8.01895 12.6007 8.12785C13.189 8.25415 13.7506 8.55805 14.1328 9.02935C14.4409 9.40435 14.6155 9.89095 14.5984 10.3775C14.5837 10.6571 14.3473 10.9025 14.0689 10.9292C13.8004 10.9655 13.5241 10.793 13.4359 10.5377C13.3831 10.4018 13.4143 10.2512 13.3675 10.1141C13.2808 9.82855 13.06 9.59845 12.8008 9.45865C12.4321 9.25855 11.9884 9.22285 11.5825 9.31315C11.2069 9.39955 10.8475 9.63325 10.6804 9.98965C10.5736 10.2044 10.5751 10.4657 10.6819 10.6805C10.9063 11.1476 11.4388 11.3909 11.9389 11.3984C12.5701 11.39 13.2082 11.5793 13.7143 11.9609C14.0497 12.2132 14.3245 12.5537 14.4712 12.9488C14.6836 13.5116 14.6317 14.1683 14.3278 14.6882C13.9654 15.3158 13.2994 15.7241 12.6007 15.872C12.6073 16.0319 12.595 16.2032 12.4966 16.3367C12.3766 16.5155 12.1564 16.6208 11.9419 16.5971C11.7211 16.5785 11.5201 16.4246 11.4412 16.2182C11.3947 16.109 11.3992 15.9881 11.3998 15.872C10.8178 15.7472 10.2625 15.449 9.88029 14.9867C9.56469 14.609 9.38409 14.1161 9.40179 13.6223C9.41649 13.3217 9.68889 13.0649 9.98979 13.0664C10.2325 13.0592 10.4686 13.2161 10.5565 13.4426C10.6168 13.5746 10.5859 13.7246 10.6258 13.8614C10.7005 14.1368 10.9021 14.3639 11.1433 14.5091C11.4973 14.7236 11.9332 14.7743 12.3364 14.7035C12.6871 14.6405 13.0279 14.4578 13.2334 14.1605C13.3612 13.9778 13.4323 13.7459 13.3861 13.5236C13.3225 13.2119 13.0927 12.956 12.8209 12.803C12.5728 12.6617 12.2851 12.5996 12.001 12.5999C11.4028 12.5999 10.8025 12.4151 10.3177 12.0626C9.96339 11.8049 9.67389 11.4503 9.52329 11.0363C9.31719 10.4768 9.37089 9.82735 9.67239 9.31195C10.0345 8.68405 10.7008 8.27575 11.3995 8.12785C11.3899 7.95415 11.4109 7.76725 11.5282 7.62985Z" fill="#4B4B4B"/>
</svg>
