<svg width="24" height="24" viewBox="0 0 24 24" fill="none" xmlns="http://www.w3.org/2000/svg">
<path d="M11.1738 1.2813C11.4585 1.2606 11.7441 1.2471 12.0294 1.2513C12.285 1.2558 12.5274 1.4082 12.6525 1.6293C12.7617 1.8192 12.78 2.0574 12.7029 2.2623C12.594 2.5722 12.2655 2.775 11.9403 2.7513C9.79021 2.7534 7.65511 3.5469 6.02041 4.9425C4.50481 6.2226 3.41641 8.0016 2.98081 9.9384C2.55181 11.8161 2.72311 13.8279 3.47731 15.6015C4.21621 17.3559 5.51371 18.867 7.13311 19.8675C8.05411 20.4396 9.07741 20.8464 10.14 21.0627C11.5038 21.3411 12.9309 21.3093 14.2803 20.9667C16.0848 20.5131 17.7381 19.4925 18.9615 18.0915C19.6143 17.3454 20.1483 16.4946 20.5317 15.5802C21.0075 14.4504 21.2508 13.2243 21.2502 11.9988C21.2484 11.7615 21.3684 11.5284 21.5619 11.3913C21.7677 11.2413 22.0518 11.2065 22.2867 11.3064C22.5519 11.4135 22.743 11.6832 22.7487 11.9703C22.7643 14.1276 22.1016 16.2828 20.8797 18.0609C19.71 19.7763 18.0342 21.1419 16.1148 21.9345C13.9593 22.8333 11.508 22.9926 9.25171 22.3956C7.30711 21.8859 5.51731 20.811 4.14721 19.341C2.66011 17.7579 1.67041 15.7137 1.36291 13.5627C1.02751 11.289 1.43881 8.9097 2.53981 6.8901C3.26671 5.5452 4.28461 4.359 5.50261 3.435C7.13311 2.1906 9.12781 1.4319 11.1738 1.2813Z" fill="#4B4B4B"/>
<path opacity="0.5" d="M18.288 5.0892C18.4284 4.9602 18.6195 4.8918 18.8097 4.8954C19.6803 4.8954 20.5509 4.8957 21.4215 4.8954C21.5745 4.8957 21.7335 4.8849 21.879 4.9422C22.1646 5.0445 22.3704 5.3334 22.3683 5.6379C22.3698 6.5286 22.368 7.4196 22.3692 8.3103C22.3689 8.4414 22.3764 8.5764 22.3335 8.7027C22.2501 8.9745 21.999 9.1845 21.7164 9.2184C21.4086 9.2634 21.0843 9.0921 20.949 8.8116C20.8923 8.7033 20.8683 8.5806 20.8686 8.4591C20.8686 8.1252 20.8686 7.7913 20.8686 7.4577C19.8897 8.4393 18.9081 9.4182 17.9283 10.3989C17.8038 10.5276 17.637 10.6167 17.4579 10.6347C17.1642 10.6701 16.8588 10.5117 16.719 10.2507C16.5609 9.972 16.6086 9.5934 16.8378 9.3675C17.8272 8.3757 18.8205 7.3872 19.809 6.3945C19.4661 6.3969 19.1232 6.3957 18.7806 6.3954C18.4785 6.3969 18.1899 6.1932 18.0879 5.9097C17.9793 5.6289 18.0612 5.2878 18.288 5.0892Z" fill="#4B4B4B"/>
<path d="M17.8995 1.9401C18.084 1.7496 18.3729 1.668 18.6291 1.7394C18.8973 1.8072 19.116 2.0364 19.1706 2.3079C19.2216 2.5407 19.1532 2.7975 18.9885 2.9709C17.9952 3.9666 16.9986 4.9587 16.0062 5.9553C16.3509 5.9592 16.6953 5.9547 17.04 5.9574C17.2887 5.9604 17.5302 6.099 17.6598 6.3111C17.7969 6.5274 17.8098 6.8148 17.6937 7.0428C17.5737 7.2861 17.3136 7.4535 17.0415 7.4562C16.1412 7.4577 15.2409 7.4559 14.3406 7.4571C14.2293 7.4565 14.1162 7.4628 14.0079 7.4334C13.7589 7.3719 13.5498 7.1727 13.4769 6.9267C13.4331 6.7926 13.4451 6.6501 13.4436 6.5115C13.4439 5.691 13.4439 4.8705 13.4436 4.05C13.4445 3.9306 13.4361 3.8091 13.4673 3.6924C13.5294 3.4404 13.7331 3.2295 13.9827 3.1587C14.1888 3.0978 14.4216 3.1296 14.6013 3.2487C14.8104 3.3804 14.9439 3.6231 14.9436 3.8703C14.9442 4.212 14.9433 4.5537 14.9439 4.8957C15.9291 3.9105 16.914 2.925 17.8995 1.9401Z" fill="#4B4B4B"/>
<path opacity="0.5" d="M11.5422 7.61281C11.6793 7.44661 11.91 7.36681 12.1206 7.41211C12.324 7.45171 12.4995 7.60681 12.5667 7.80271C12.6063 7.90621 12.5997 8.01901 12.6006 8.12791C13.1886 8.25421 13.7499 8.55781 14.1318 9.02821C14.4402 9.40351 14.6154 9.89011 14.5983 10.377C14.5839 10.6569 14.3475 10.9026 14.0688 10.9293C13.8078 10.9644 13.5387 10.803 13.4436 10.5582C13.3806 10.4172 13.416 10.257 13.3668 10.1127C13.2846 9.84211 13.0809 9.62131 12.84 9.48061C12.4887 9.27481 12.0609 9.22681 11.664 9.29641C11.3064 9.36061 10.9581 9.54931 10.7547 9.85741C10.6296 10.0428 10.5651 10.2777 10.6188 10.4988C10.6911 10.809 10.9257 11.0604 11.2008 11.2089C11.4444 11.3421 11.724 11.4003 12.0006 11.4C12.5844 11.4 13.1697 11.5767 13.6482 11.9127C13.9998 12.1605 14.2923 12.501 14.4528 12.9021C14.6829 13.4676 14.6418 14.1366 14.3394 14.6673C13.98 15.3063 13.3071 15.7227 12.6006 15.8721C12.6072 16.0326 12.5946 16.2045 12.4956 16.3383C12.3753 16.5162 12.1554 16.6212 11.9412 16.5972C11.721 16.5786 11.5209 16.425 11.4417 16.2198C11.3946 16.11 11.3991 15.9885 11.3994 15.8721C10.818 15.7473 10.2633 15.4494 9.88109 14.9877C9.56489 14.6097 9.38369 14.1162 9.40199 13.6218C9.41699 13.3209 9.68969 13.0647 9.99059 13.0665C10.2336 13.0596 10.4691 13.2171 10.5567 13.4436C10.6194 13.5837 10.5834 13.7436 10.6329 13.8873C10.7154 14.1579 10.9194 14.3793 11.1612 14.52C11.5113 14.7249 11.9376 14.7729 12.3333 14.7039C12.6978 14.6394 13.0533 14.4444 13.2555 14.127C13.3743 13.944 13.4334 13.7148 13.3806 13.4997C13.3059 13.182 13.0623 12.927 12.7782 12.78C12.5394 12.6546 12.2682 12.5997 11.9997 12.6C11.373 12.5997 10.7439 12.3966 10.2483 12.0105C9.89339 11.7336 9.61229 11.3541 9.48449 10.9197C9.31649 10.3605 9.40019 9.72991 9.71699 9.23821C10.0884 8.65081 10.7283 8.27071 11.3994 8.12791C11.3883 7.94701 11.4147 7.75141 11.5422 7.61281Z" fill="#4B4B4B"/>
</svg>
