<svg width="24" height="24" viewBox="0 0 24 24" fill="none" xmlns="http://www.w3.org/2000/svg">
<path d="M11.1747 1.281C11.4591 1.2606 11.7444 1.2471 12.0294 1.2513C12.2919 1.2564 12.5412 1.4166 12.6627 1.6479C12.7779 1.8618 12.7788 2.1315 12.666 2.3463C12.5364 2.6007 12.2538 2.7642 11.9685 2.7507C9.8025 2.7471 7.6491 3.5454 6.0054 4.9551C4.4244 6.2952 3.3135 8.1798 2.922 10.2162C2.574 11.9916 2.7555 13.8687 3.4515 15.5397C4.1805 17.307 5.4756 18.8331 7.0971 19.845C7.9638 20.3889 8.9217 20.7861 9.9189 21.0147C11.2824 21.3285 12.717 21.3285 14.0805 21.015C15.9345 20.5929 17.6436 19.5747 18.906 18.1542C19.5843 17.3931 20.1378 16.5198 20.532 15.5793C21.0078 14.4498 21.2511 13.224 21.2499 11.9988C21.2484 11.7618 21.3681 11.529 21.561 11.3919C21.7605 11.2461 22.0338 11.208 22.2642 11.298C22.4583 11.3703 22.6185 11.526 22.6953 11.7183C22.7772 11.9109 22.7445 12.1245 22.7451 12.3276C22.6893 14.3793 22.0245 16.4085 20.856 18.0954C19.692 19.788 18.0342 21.1365 16.137 21.9252C13.9701 22.8345 11.5023 22.9959 9.2328 22.3905C7.2897 21.8775 5.5017 20.7993 4.1343 19.3275C2.6814 17.775 1.7055 15.7824 1.3806 13.6803C1.0137 11.3709 1.4199 8.9436 2.5404 6.8892C3.6978 4.7406 5.6082 3.0096 7.863 2.0748C8.9148 1.635 10.038 1.3671 11.1747 1.281Z" fill="#4B4B4B"/>
<path opacity="0.5" d="M16.5819 1.3743C16.8603 1.1937 17.2581 1.2312 17.4945 1.4655C18.1563 2.1261 18.8169 2.7879 19.4784 3.4488C20.1324 2.7957 20.7855 2.1414 21.4395 1.4883C21.5757 1.3494 21.7653 1.2636 21.9606 1.2603C22.2162 1.251 22.47 1.3848 22.6083 1.5999C22.8057 1.8894 22.7565 2.313 22.4997 2.5509C21.8457 3.2031 21.1935 3.8571 20.5398 4.5096C21.2037 5.1762 21.8712 5.8395 22.5348 6.5064C22.7052 6.6882 22.7706 6.9597 22.7055 7.2C22.641 7.4574 22.4283 7.671 22.1706 7.7352C21.9231 7.8027 21.6423 7.7313 21.4605 7.5495C20.7999 6.8901 20.1408 6.2292 19.4799 5.5701C18.8466 6.2034 18.2127 6.8367 17.5797 7.4706C17.4672 7.5945 17.3274 7.701 17.1609 7.7382C16.8717 7.8138 16.545 7.6947 16.3728 7.4502C16.2105 7.2306 16.1835 6.9201 16.3083 6.6765C16.3698 6.5463 16.4784 6.4485 16.5789 6.3486C17.1921 5.7354 17.8056 5.1219 18.4188 4.5087C17.7627 3.8517 17.106 3.1956 16.4496 2.5389C16.3305 2.4225 16.2543 2.2644 16.2351 2.0991C16.1976 1.8168 16.3398 1.5234 16.5819 1.3743Z" fill="#4B4B4B"/>
<path opacity="0.5" d="M11.5035 7.6629C11.6241 7.4841 11.8446 7.3785 12.0597 7.4031C12.2883 7.4223 12.4944 7.5879 12.5673 7.8045C12.606 7.9077 12.5997 8.0196 12.6006 8.1279C13.182 8.2527 13.7373 8.5509 14.1192 9.0129C14.4351 9.3903 14.6154 9.8829 14.5983 10.3764C14.5839 10.6668 14.3301 10.9188 14.04 10.9323C13.779 10.9539 13.5195 10.7823 13.4349 10.5354C13.3827 10.3995 13.4145 10.2486 13.3665 10.1115C13.2774 9.8202 13.0488 9.5874 12.7821 9.4488C12.4425 9.27 12.0408 9.231 11.6661 9.2961C11.3079 9.36 10.9593 9.5484 10.7553 9.8565C10.6299 10.0419 10.5651 10.2768 10.6188 10.4979C10.6884 10.8009 10.9143 11.0481 11.1804 11.1978C11.4288 11.3388 11.7162 11.4003 12.0003 11.4C12.5847 11.4 13.1706 11.5767 13.6494 11.9136C14.0001 12.1608 14.2917 12.5007 14.4525 12.9009C14.6802 13.4601 14.643 14.1207 14.3499 14.649C13.9932 15.2979 13.3137 15.7215 12.6006 15.8721C12.6072 16.032 12.5949 16.203 12.4968 16.3365C12.3765 16.5156 12.1557 16.6215 11.9403 16.5969C11.7129 16.5777 11.5074 16.4139 11.4336 16.1985C11.394 16.0944 11.3994 15.9813 11.3997 15.8721C10.8186 15.7473 10.2645 15.45 9.88231 14.9892C9.57061 14.6178 9.39121 14.1348 9.40051 13.6488C9.40111 13.3272 9.69901 13.0479 10.0197 13.0668C10.2519 13.0719 10.4715 13.2258 10.5561 13.4421C10.62 13.5828 10.5831 13.743 10.6332 13.8873C10.7157 14.1582 10.9197 14.3799 11.1618 14.5203C11.5122 14.7252 11.9388 14.7729 12.3348 14.7039C12.6855 14.6409 13.0269 14.4588 13.2327 14.1615C13.3608 13.9785 13.4325 13.7466 13.386 13.524C13.3224 13.2117 13.0923 12.9555 12.8199 12.8025C12.5721 12.6618 12.2853 12.6 12.0018 12.6C11.3187 12.6 10.6299 12.3594 10.1187 11.9016C9.75691 11.5788 9.49561 11.1357 9.42481 10.653C9.34171 10.1373 9.46501 9.5922 9.76531 9.1647C10.1436 8.6181 10.7565 8.265 11.3994 8.1279C11.3925 7.9677 11.4048 7.7964 11.5035 7.6629Z" fill="#4B4B4B"/>
</svg>
