<svg width="24" height="24" viewBox="0 0 24 24" fill="none" xmlns="http://www.w3.org/2000/svg">
<path d="M8.89094 1.27248C9.92744 1.24788 10.964 1.25058 12.0005 1.25058C12.2222 1.24758 12.4397 1.35258 12.5798 1.52388C12.7538 1.73148 12.7988 2.03568 12.6941 2.28528C12.5843 2.56008 12.2999 2.75358 12.0035 2.75028C10.5818 2.75478 9.15884 2.73858 7.73924 2.82078C7.09844 2.86188 6.45644 2.92338 5.82944 3.06588C5.36834 3.17238 4.91174 3.32748 4.51034 3.58248C4.07474 3.85668 3.71354 4.24668 3.47114 4.70028C3.23864 5.13228 3.10364 5.60898 3.01124 6.08838C2.87084 6.83028 2.82224 7.58538 2.79044 8.33838C2.74004 9.69828 2.75294 11.0597 2.75054 12.4202C2.75054 13.3511 2.75054 14.282 2.77574 15.2123C2.79704 15.9482 2.83124 16.685 2.93024 17.4152C3.00824 17.9765 3.12374 18.5387 3.35294 19.0595C3.54164 19.4885 3.82334 19.8782 4.18364 20.1791C4.55504 20.495 5.00624 20.7032 5.47124 20.8406C6.05384 21.0119 6.65894 21.0905 7.26224 21.1445C8.52854 21.2486 9.80054 21.2441 11.0702 21.2495C12.6305 21.245 14.1917 21.2666 15.7511 21.206C16.4261 21.1763 17.1023 21.1295 17.7689 21.0152C18.2963 20.9216 18.8237 20.7851 19.298 20.5298C19.778 20.2736 20.1866 19.8848 20.4629 19.4159C20.7023 19.0139 20.8475 18.563 20.9483 18.1082C21.0884 17.462 21.1478 16.8011 21.1862 16.142C21.2633 14.7425 21.2417 13.34 21.2528 11.9393C21.2711 11.6639 21.458 11.4092 21.7142 11.3069C21.938 11.2118 22.2071 11.2373 22.4096 11.372C22.6289 11.5112 22.7612 11.7716 22.7501 12.0308C22.7456 13.5314 22.7633 15.0338 22.6646 16.532C22.5869 17.5922 22.4528 18.671 22.0241 19.6538C21.6503 20.5208 21.002 21.2675 20.189 21.749C19.3055 22.2755 18.2777 22.4864 17.2673 22.5995C15.917 22.7432 14.5571 22.7408 13.2011 22.7498C11.5406 22.7438 9.87914 22.7696 8.21924 22.706C7.00724 22.6484 5.77124 22.5617 4.62344 22.1372C3.73094 21.8114 2.93594 21.2135 2.40164 20.4251C1.80794 19.5593 1.55594 18.5138 1.42634 17.4863C1.25684 16.0838 1.26134 14.6684 1.25054 13.2581C1.25294 11.9189 1.24214 10.5791 1.26464 9.23988C1.28174 8.38968 1.31024 7.53828 1.40504 6.69258C1.48724 5.97438 1.61924 5.25588 1.87964 4.57908C2.16404 3.82578 2.63954 3.14328 3.26504 2.63418C3.69404 2.28138 4.19084 2.01618 4.71284 1.82988C5.30714 1.61778 5.93054 1.49928 6.55544 1.42158C7.33034 1.32708 8.11124 1.29288 8.89094 1.27248Z" fill="#4B4B4B"/>
<path opacity="0.5" d="M21.3893 1.56065C21.587 1.40825 21.8636 1.36865 22.0973 1.45535C22.3274 1.53875 22.5113 1.74065 22.5677 1.97945C22.6322 2.22965 22.5548 2.51075 22.3688 2.69075C21.0956 3.96365 19.8227 5.23655 18.5498 6.50975C19.3859 6.51035 20.2223 6.51006 21.0584 6.51006C21.1883 6.51096 21.3218 6.50106 21.4481 6.53916C21.6917 6.60816 21.8933 6.80915 21.9608 7.05335C22.0199 7.25555 21.9881 7.48205 21.8747 7.65965C21.7409 7.87445 21.4937 8.01276 21.2402 8.00976C19.8005 8.01036 18.3605 8.00975 16.9208 8.01005C16.7891 8.00945 16.6538 8.01875 16.5263 7.97945C16.2869 7.90955 16.0895 7.71245 16.0205 7.47275C15.9812 7.34585 15.9902 7.21176 15.9899 7.08096C15.9902 5.64066 15.9896 4.20035 15.9902 2.76005C15.9884 2.54795 16.0829 2.33855 16.2425 2.19935C16.4534 2.00585 16.7798 1.95545 17.0405 2.07275C17.3081 2.18705 17.4941 2.46755 17.4896 2.75975C17.4905 3.65645 17.4893 4.55345 17.4902 5.45015C18.7238 4.21715 19.9571 2.98355 21.1904 1.74995C21.2555 1.68575 21.317 1.61735 21.3893 1.56065Z" fill="#4B4B4B"/>
<path opacity="0.5" d="M11.5038 7.66217C11.6244 7.48337 11.8449 7.37837 12.06 7.40297C12.2892 7.42247 12.4953 7.58867 12.5679 7.80617C12.606 7.90877 12.5997 8.02007 12.6006 8.12776C13.1883 8.25407 13.7496 8.55737 14.1318 9.02807C14.4399 9.40307 14.6151 9.88907 14.5983 10.3757C14.5845 10.6556 14.3484 10.9019 14.0697 10.9292C13.8003 10.9661 13.5231 10.7927 13.4352 10.5362C13.383 10.4009 13.4142 10.2506 13.3674 10.1141C13.2693 9.79096 13.0023 9.54227 12.6993 9.40817C12.3315 9.24557 11.9067 9.22696 11.5197 9.32926C11.1468 9.43036 10.7961 9.68356 10.6533 10.0523C10.563 10.2746 10.5927 10.5332 10.7118 10.739C10.9017 11.0789 11.2653 11.2934 11.6409 11.3657C11.868 11.4155 12.1023 11.3882 12.3318 11.4188C12.9486 11.4896 13.551 11.7563 13.9884 12.2015C14.3034 12.5186 14.5212 12.935 14.58 13.3796C14.6553 13.8989 14.5215 14.4446 14.2113 14.8682C13.8309 15.3965 13.2306 15.7376 12.6006 15.872C12.606 16.0253 12.5973 16.1888 12.5079 16.3199C12.39 16.5086 12.1626 16.6223 11.9406 16.5971C11.7207 16.5782 11.5206 16.4249 11.4417 16.2194C11.3946 16.1099 11.3991 15.9884 11.3997 15.872C10.8183 15.7472 10.2633 15.4493 9.88111 14.9876C9.56551 14.6105 9.38492 14.1185 9.40172 13.6253C9.41492 13.3238 9.68731 13.0655 9.98881 13.0664C10.2321 13.0589 10.4691 13.2164 10.5567 13.4435C10.6164 13.5749 10.5861 13.7243 10.6257 13.8608C10.6998 14.1353 10.9008 14.3624 11.1411 14.5079C11.496 14.7236 11.9334 14.7746 12.3378 14.7032C12.6879 14.6399 13.0284 14.4572 13.2333 14.1602C13.3617 13.9769 13.4328 13.7444 13.3854 13.5215C13.3209 13.2098 13.0911 12.9545 12.819 12.8018C12.5715 12.6617 12.285 12.5999 12.0021 12.5999C11.4036 12.6002 10.8033 12.4154 10.3182 12.0629C9.96301 11.8049 9.67261 11.4488 9.52231 11.0339C9.30961 10.4546 9.37621 9.77897 9.70561 9.25607C10.0752 8.65877 10.7217 8.27176 11.3994 8.12776C11.3925 7.96726 11.4051 7.79597 11.5038 7.66217Z" fill="#4B4B4B"/>
</svg>
