<svg width="24" height="24" viewBox="0 0 24 24" fill="none" xmlns="http://www.w3.org/2000/svg">
<path d="M8.88961 1.27229C9.92581 1.24769 10.9626 1.25039 11.9991 1.25039C12.2127 1.24739 12.4227 1.34369 12.5631 1.50419C12.7392 1.70039 12.7971 1.99289 12.7101 2.24189C12.6165 2.52839 12.3348 2.74199 12.0324 2.74889C10.6011 2.75609 9.16831 2.73719 7.73881 2.82059C7.09771 2.86199 6.45481 2.92319 5.82721 3.06629C5.35981 3.17429 4.89751 3.33239 4.49251 3.59369C4.06441 3.86729 3.70981 4.25369 3.47041 4.70159C3.23431 5.14169 3.09841 5.62769 3.00601 6.11639C2.86441 6.87959 2.81761 7.65629 2.78731 8.43089C2.73841 9.84989 2.75371 11.2704 2.75071 12.6903C2.75161 13.6704 2.75311 14.6511 2.78941 15.6309C2.81671 16.3041 2.85901 16.9785 2.96431 17.6448C3.05131 18.1788 3.17821 18.7134 3.41971 19.2006C3.62551 19.6188 3.92731 19.9896 4.29931 20.2713C4.68481 20.5662 5.14171 20.7537 5.60791 20.8791C6.17731 21.0306 6.76441 21.1026 7.35061 21.1515C8.61811 21.2496 9.89071 21.2448 11.1612 21.2493C12.711 21.2448 14.2614 21.2664 15.8103 21.2031C16.4658 21.1731 17.1219 21.126 17.7693 21.015C18.2973 20.9211 18.8253 20.7846 19.2999 20.5287C19.7796 20.2722 20.1876 19.8831 20.4639 19.4145C20.7066 19.0062 20.8524 18.5484 20.9529 18.0864C21.0978 17.4081 21.1554 16.7148 21.1926 16.0233C21.2541 14.7834 21.2478 13.5417 21.2493 12.3006C21.2508 12.1716 21.2436 12.0423 21.2553 11.9139C21.2826 11.6472 21.4671 11.4051 21.7158 11.3061C21.9393 11.2119 22.2078 11.2374 22.4097 11.3718C22.629 11.5113 22.7613 11.7714 22.7502 12.0303C22.7457 13.5312 22.7634 15.0336 22.6647 16.5321C22.5864 17.5998 22.4511 18.6867 22.0149 19.6746C21.6285 20.5599 20.9538 21.3174 20.1123 21.7935C19.2318 22.2957 18.2184 22.4955 17.2212 22.6044C15.8856 22.7424 14.5413 22.7409 13.2 22.7496C11.4993 22.7433 9.79741 22.7712 8.09761 22.7004C6.90241 22.6392 5.68321 22.5447 4.55641 22.1112C3.65791 21.7701 2.86591 21.1473 2.34421 20.3382C1.74991 19.425 1.51921 18.3336 1.40071 17.2656C1.25521 15.8958 1.25911 14.5161 1.25041 13.14C1.25491 11.6106 1.23571 10.0806 1.28221 8.55149C1.31011 7.72949 1.35661 6.90569 1.48711 6.09269C1.59661 5.42129 1.76911 4.75379 2.07121 4.14119C2.42461 3.42029 2.97211 2.79539 3.64411 2.35559C4.19221 1.99469 4.81561 1.76249 5.45221 1.61339C6.57811 1.35419 7.73881 1.30619 8.88961 1.27229Z" fill="#4B4B4B"/>
<path opacity="0.5" d="M16.6605 1.842C16.7793 1.5834 17.0544 1.4061 17.34 1.4103C18.8403 1.41 20.3406 1.4097 21.8409 1.4103C22.2291 1.4004 22.5834 1.7394 22.5885 2.1282C22.5918 3.6384 22.5894 5.1486 22.59 6.6591C22.5915 6.8637 22.5042 7.0668 22.3539 7.2057C22.1715 7.3821 21.8958 7.4511 21.6513 7.3863C21.4002 7.3227 21.1896 7.1193 21.12 6.8694C21.0807 6.7437 21.0906 6.6102 21.09 6.4803C21.09 5.6436 21.0903 4.8066 21.0897 3.9699C19.8165 5.2428 18.5433 6.51601 17.2704 7.7892C17.1327 7.9305 16.9368 8.0109 16.74 8.01C16.4547 8.0139 16.1799 7.8369 16.0605 7.5789C15.9306 7.3083 15.9837 6.9609 16.1949 6.7464C17.4726 5.4669 18.7521 4.1892 20.0301 2.9103C19.1331 2.9097 18.2361 2.9103 17.3391 2.9097C17.121 2.9115 16.9068 2.8107 16.7673 2.6439C16.5789 2.4279 16.5366 2.1 16.6605 1.842Z" fill="#4B4B4B"/>
<path opacity="0.5" d="M11.5281 7.62991C11.6577 7.46161 11.8803 7.37251 12.09 7.40671C12.3063 7.43671 12.4965 7.59691 12.5667 7.80301C12.6063 7.90651 12.5997 8.01901 12.6006 8.12791C13.1889 8.25421 13.7505 8.55811 14.1327 9.02941C14.4408 9.40441 14.6154 9.89101 14.5983 10.3776C14.5836 10.6572 14.3472 10.9026 14.0688 10.9293C13.8003 10.9656 13.524 10.7931 13.4358 10.5378C13.383 10.4019 13.4142 10.2513 13.3674 10.1142C13.2807 9.82861 13.0599 9.59851 12.8007 9.45871C12.432 9.25861 11.9883 9.22291 11.5824 9.31321C11.2068 9.39961 10.8474 9.63331 10.6803 9.98971C10.5735 10.2045 10.575 10.4658 10.6818 10.6806C10.9062 11.1477 11.4387 11.391 11.9388 11.3985C12.57 11.3901 13.2081 11.5794 13.7142 11.961C14.0496 12.2133 14.3244 12.5538 14.4711 12.9489C14.6835 13.5117 14.6316 14.1684 14.3277 14.6883C13.9653 15.3159 13.2993 15.7242 12.6006 15.8721C12.6072 16.032 12.5949 16.2033 12.4965 16.3368C12.3765 16.5156 12.1563 16.6209 11.9418 16.5972C11.721 16.5786 11.52 16.4247 11.4411 16.2183C11.3946 16.1091 11.3991 15.9882 11.3997 15.8721C10.8177 15.7473 10.2624 15.4491 9.88019 14.9868C9.56459 14.6091 9.384 14.1162 9.4017 13.6224C9.4164 13.3218 9.68879 13.065 9.98969 13.0665C10.2324 13.0593 10.4685 13.2162 10.5564 13.4427C10.6167 13.5747 10.5858 13.7247 10.6257 13.8615C10.7004 14.1369 10.902 14.364 11.1432 14.5092C11.4972 14.7237 11.9331 14.7744 12.3363 14.7036C12.687 14.6406 13.0278 14.4579 13.2333 14.1606C13.3611 13.9779 13.4322 13.746 13.386 13.5237C13.3224 13.212 13.0926 12.9561 12.8208 12.8031C12.5727 12.6618 12.285 12.5997 12.0009 12.6C11.4027 12.6 10.8024 12.4152 10.3176 12.0627C9.9633 11.805 9.67379 11.4504 9.52319 11.0364C9.31709 10.4769 9.37079 9.82741 9.67229 9.31201C10.0344 8.68411 10.7007 8.27581 11.3994 8.12791C11.3898 7.95421 11.4108 7.76731 11.5281 7.62991Z" fill="#4B4B4B"/>
</svg>
