<svg width="24" height="24" viewBox="0 0 24 24" fill="none" xmlns="http://www.w3.org/2000/svg">
<path d="M11.1747 1.281C11.4591 1.2609 11.7447 1.2468 12.03 1.2513C12.2928 1.2564 12.5424 1.4172 12.6633 1.6491C12.7779 1.8627 12.7785 2.1315 12.666 2.346C12.537 2.5998 12.2556 2.7633 11.9709 2.7507C9.8112 2.7465 7.6638 3.5397 6.0216 4.9413C4.5315 6.1998 3.4536 7.9398 3.0039 9.8388C2.559 11.6934 2.7003 13.686 3.417 15.4548C4.1232 17.2167 5.3895 18.7461 6.9849 19.7736C7.8495 20.3334 8.8089 20.7465 9.81 20.9889C11.1921 21.3249 12.6513 21.3363 14.0388 21.0246C15.8802 20.6142 17.5821 19.6167 18.8478 18.2187C19.5525 17.4432 20.1258 16.5477 20.5311 15.5811C20.9835 14.5068 21.2274 13.3452 21.2478 12.1794C21.2508 12.0585 21.2418 11.9355 21.2724 11.8176C21.3279 11.5893 21.498 11.3934 21.7158 11.3061C21.9255 11.2182 22.1751 11.2338 22.3716 11.3484C22.5936 11.4723 22.743 11.7171 22.7487 11.9718C22.7634 14.0778 22.1325 16.182 20.9646 17.9346C19.8249 19.6584 18.1782 21.0423 16.2816 21.8637C14.187 22.7793 11.7969 22.9908 9.5712 22.4745C7.6152 22.0263 5.796 21.0087 4.3824 19.5852C2.8869 18.0885 1.8468 16.1415 1.4478 14.0628C0.995403 11.751 1.3218 9.291 2.3856 7.1871C3.5166 4.9164 5.4801 3.0747 7.8195 2.0931C8.8839 1.6425 10.0221 1.3683 11.1747 1.281Z" fill="#4B4B4B"/>
<path opacity="0.5" d="M21.2205 1.84291C21.4293 1.71811 21.7002 1.70611 21.9198 1.81141C22.1391 1.91401 22.3032 2.12791 22.3401 2.36821C22.3803 2.60191 22.3008 2.85271 22.1307 3.01861C20.8572 4.29241 19.5834 5.56591 18.3099 6.83971C19.2069 6.84031 20.1036 6.8397 21.0006 6.8403C21.2124 6.83881 21.4212 6.93301 21.5604 7.09231C21.7536 7.30261 21.8043 7.62811 21.6882 7.88851C21.5742 8.15731 21.2928 8.34451 20.9997 8.34001C19.5 8.34001 18 8.34 16.5003 8.3397C16.1667 8.3463 15.8514 8.10031 15.7734 7.77691C15.7419 7.65661 15.7506 7.53121 15.75 7.4085C15.75 6.02851 15.75 4.64881 15.75 3.26881C15.7503 3.13831 15.7416 3.0042 15.7803 2.87761C15.8502 2.63671 16.0488 2.43751 16.2906 2.36971C16.4931 2.30971 16.7205 2.34121 16.8987 2.45461C17.1141 2.58841 17.253 2.83621 17.2497 3.09061C17.2503 3.987 17.2497 4.88371 17.2503 5.78011C18.4839 4.54711 19.7169 3.3135 20.9505 2.0802C21.036 1.9962 21.1152 1.90291 21.2205 1.84291Z" fill="#4B4B4B"/>
<path opacity="0.5" d="M11.5284 7.6293C11.658 7.4616 11.8803 7.3725 12.09 7.4067C12.306 7.4367 12.4962 7.5966 12.5664 7.8027C12.6063 7.9062 12.5997 8.019 12.6006 8.1279C13.1883 8.2542 13.7493 8.5575 14.1315 9.0276C14.4351 9.3966 14.6085 9.8727 14.5995 10.3515C14.5959 10.5549 14.4783 10.7508 14.3022 10.8516C14.1309 10.9539 13.908 10.9605 13.7307 10.8693C13.5369 10.7742 13.4037 10.5672 13.401 10.3506C13.4007 10.1895 13.3539 10.0305 13.2687 9.894C13.0743 9.5733 12.7242 9.3723 12.3621 9.3015C11.9727 9.2271 11.5524 9.2676 11.2005 9.4575C10.9248 9.6066 10.6899 9.8583 10.6185 10.1694C10.5615 10.4058 10.6398 10.656 10.7811 10.8477C10.9896 11.1339 11.3235 11.31 11.6682 11.3709C11.8779 11.4129 12.093 11.3901 12.3045 11.4159C12.9381 11.4828 13.5588 11.7561 14.0037 12.2175C14.3109 12.5325 14.5227 12.9435 14.5803 13.3812C14.655 13.8999 14.5209 14.4453 14.211 14.8683C13.8309 15.3966 13.2306 15.7377 12.6006 15.8721C12.606 16.0254 12.5973 16.1889 12.5079 16.32C12.39 16.5087 12.1626 16.6224 11.9406 16.5969C11.7204 16.5783 11.52 16.4244 11.4411 16.2186C11.3946 16.1094 11.3991 15.9882 11.3997 15.8721C10.8183 15.7473 10.2636 15.4497 9.88171 14.9883C9.57661 14.6247 9.39871 14.1546 9.39991 13.6788C9.38311 13.3371 9.70501 13.0317 10.0455 13.0683C10.269 13.083 10.4754 13.2348 10.5567 13.4433C10.617 13.5759 10.5858 13.7262 10.6263 13.8636C10.7013 14.1378 10.9026 14.3643 11.1429 14.5092C11.4963 14.7231 11.931 14.7741 12.3336 14.7039C12.6783 14.6424 13.0137 14.466 13.221 14.178C13.3563 13.9923 13.4337 13.7535 13.386 13.5243C13.3239 13.2189 13.1025 12.9669 12.8382 12.813C12.5862 12.6651 12.2922 12.5997 12.0015 12.6C11.3964 12.6003 10.7892 12.4113 10.3017 12.051C9.94111 11.7846 9.64951 11.4162 9.50641 10.9887C9.31291 10.4196 9.38491 9.7656 9.70591 9.2562C10.0752 8.6586 10.7217 8.2719 11.3994 8.1279C11.3901 7.9539 11.4111 7.7667 11.5284 7.6293Z" fill="#4B4B4B"/>
</svg>
