<svg width="24" height="24" viewBox="0 0 24 24" fill="none" xmlns="http://www.w3.org/2000/svg">
<path d="M8.88868 1.27229C9.92488 1.24769 10.9617 1.25039 11.9979 1.25039C12.2127 1.24709 12.4236 1.34429 12.5643 1.50569C12.7503 1.71299 12.8022 2.02769 12.6945 2.28449C12.5847 2.56019 12.2991 2.75429 12.0015 2.75009C10.791 2.75249 9.58018 2.74469 8.37028 2.78939C7.65418 2.81849 6.93658 2.86409 6.22948 2.98529C5.70178 3.07889 5.17408 3.21569 4.69948 3.47159C4.29058 3.69059 3.93358 4.00529 3.66598 4.38449C3.38188 4.78649 3.20668 5.25479 3.08938 5.73029C2.94328 6.32969 2.87698 6.94499 2.83258 7.55909C2.74678 8.84699 2.75368 10.1385 2.75068 11.4285C2.75188 12.5394 2.74528 13.6503 2.76538 14.7609C2.78008 15.4908 2.80378 16.2213 2.87548 16.9482C2.93578 17.5356 3.02338 18.1248 3.20968 18.687C3.35098 19.1157 3.56278 19.5261 3.86368 19.8654C4.16818 20.2146 4.55758 20.4852 4.98328 20.6652C5.57248 20.916 6.20878 21.0267 6.84118 21.102C8.15548 21.246 9.47998 21.2394 10.8003 21.2493C12.3402 21.2448 13.8804 21.2643 15.42 21.2181C16.2003 21.1911 16.9824 21.1479 17.7531 21.0177C18.2718 20.9265 18.7902 20.7948 19.2597 20.55C19.6539 20.346 20.0031 20.0547 20.2713 19.7004C20.5719 19.3077 20.7606 18.8418 20.886 18.3666C21.0378 17.7855 21.1086 17.187 21.1563 16.5894C21.2688 15.0516 21.2418 13.5084 21.2511 11.9679C21.2586 11.6901 21.438 11.4273 21.6921 11.3163C21.9135 11.214 22.1844 11.2305 22.3914 11.3601C22.6113 11.4915 22.7526 11.7432 22.7496 11.9997C22.7484 13.3005 22.7568 14.6019 22.7004 15.9018C22.6404 17.0796 22.5474 18.2793 22.131 19.3929C21.8088 20.2656 21.2262 21.0441 20.4591 21.5742C19.6476 22.143 18.6678 22.4067 17.6982 22.5447C16.4277 22.7211 15.1419 22.7322 13.8615 22.746C12.3408 22.7496 10.8201 22.7574 9.29968 22.7361C8.08588 22.7097 6.86308 22.6761 5.66938 22.4346C5.02048 22.3002 4.38028 22.0899 3.80908 21.7479C3.02398 21.2817 2.39098 20.5686 2.01388 19.7376C1.56718 18.7632 1.42438 17.685 1.34218 16.626C1.28098 15.7854 1.26448 14.9424 1.25578 14.1C1.24618 12.9801 1.25218 11.8605 1.25068 10.7406C1.25518 9.82709 1.26028 8.91299 1.30408 8.00039C1.33918 7.30169 1.39438 6.60269 1.51798 5.91359C1.63348 5.27399 1.81228 4.64009 2.11198 4.06049C2.47888 3.34679 3.03958 2.73329 3.71998 2.30699C4.27798 1.95539 4.90828 1.73339 5.54968 1.59119C6.64558 1.35209 7.77118 1.30469 8.88868 1.27229Z" fill="#4B4B4B"/>
<path opacity="0.5" d="M18.2865 5.0907C18.4269 4.9608 18.6186 4.8918 18.8091 4.8954C19.7502 4.896 20.6913 4.8942 21.6324 4.8963C22.0143 4.8936 22.3593 5.2266 22.3671 5.6088C22.3716 6.5295 22.3668 7.4502 22.3695 8.3709C22.3716 8.5005 22.3671 8.634 22.3146 8.7549C22.1979 9.0585 21.8661 9.2598 21.5427 9.2208C21.1866 9.1917 20.8827 8.8761 20.8707 8.5185C20.8653 8.1663 20.8707 7.8141 20.8683 7.4619C19.8804 8.4426 18.8994 9.4308 17.9133 10.4136C17.7978 10.5282 17.6472 10.6086 17.4855 10.6311C17.2125 10.6743 16.9227 10.5498 16.7649 10.3236C16.6068 10.1058 16.5813 9.8013 16.7013 9.5604C16.7649 9.4227 16.8825 9.3234 16.9872 9.2181C17.9271 8.277 18.8688 7.338 19.8078 6.396C19.4649 6.3948 19.122 6.3966 18.7794 6.3954C18.4701 6.3969 18.1767 6.1827 18.0807 5.8896C17.9829 5.6133 18.0663 5.2845 18.2865 5.0907Z" fill="#4B4B4B"/>
<path d="M17.8986 1.94099C18.0897 1.74269 18.3933 1.66289 18.6564 1.74719C18.9342 1.82849 19.1499 2.08469 19.1814 2.37269C19.2093 2.59379 19.1331 2.82629 18.9756 2.98469C17.985 3.97499 16.9941 4.96529 16.0041 5.95649C16.3587 5.95889 16.7136 5.95379 17.0682 5.95889C17.4474 5.97209 17.7744 6.31349 17.7729 6.69269C17.79 7.08269 17.4558 7.44329 17.0658 7.45529C16.1877 7.45889 15.3093 7.45589 14.4312 7.45679C14.2818 7.45379 14.1285 7.47089 13.9836 7.42679C13.7364 7.35629 13.533 7.14989 13.4694 6.90029C13.4388 6.79349 13.4439 6.68159 13.4436 6.57179C13.4445 5.67119 13.4427 4.77029 13.4445 3.86969C13.4442 3.63179 13.5681 3.39959 13.7634 3.26459C13.9677 3.11729 14.2488 3.08789 14.4807 3.18509C14.7534 3.29429 14.9454 3.57569 14.9436 3.86999C14.9442 4.21169 14.9433 4.55339 14.9439 4.89509C15.9291 3.91079 16.9134 2.92559 17.8986 1.94099Z" fill="#4B4B4B"/>
<path opacity="0.5" d="M11.5146 7.6473C11.6367 7.4775 11.8506 7.3797 12.0591 7.4028C12.2874 7.422 12.4938 7.587 12.567 7.8036C12.6063 7.9071 12.5997 8.0193 12.6006 8.1279C13.182 8.2527 13.737 8.5509 14.1192 9.0126C14.4396 9.3963 14.6226 9.8991 14.5962 10.4001C14.5695 10.7025 14.283 10.9503 13.98 10.9332C13.6728 10.9296 13.4004 10.6572 13.401 10.3491C13.4028 10.0785 13.2609 9.8253 13.0647 9.6462C12.8085 9.411 12.4632 9.2895 12.1191 9.2703C11.7324 9.246 11.3268 9.3363 11.0172 9.5772C10.8069 9.7386 10.6422 9.9747 10.6056 10.2414C10.5741 10.4868 10.6767 10.7319 10.8348 10.9158C11.0511 11.1699 11.3685 11.3226 11.6946 11.3757C11.8959 11.4117 12.1014 11.391 12.3039 11.4159C12.9303 11.4819 13.5435 11.7492 13.9878 12.201C14.3028 12.5178 14.5212 12.9348 14.58 13.3794C14.6532 13.8855 14.5284 14.4171 14.2341 14.8356C13.8558 15.3822 13.2435 15.735 12.6006 15.8721C12.6084 16.0392 12.5919 16.2186 12.4839 16.3545C12.3501 16.5408 12.1047 16.6368 11.88 16.5879C11.6472 16.5435 11.4531 16.347 11.4108 16.1142C11.3967 16.0341 11.3994 15.9528 11.3994 15.8721C10.8177 15.747 10.2624 15.4491 9.88023 14.9868C9.56433 14.6085 9.38343 14.1147 9.40203 13.6203C9.41793 13.2885 9.74973 13.0185 10.0782 13.0719C10.3299 13.1013 10.548 13.3077 10.5894 13.5576C10.6056 13.6743 10.5972 13.7952 10.6392 13.9074C10.7478 14.2341 11.0265 14.4801 11.3391 14.6088C11.7054 14.7573 12.1221 14.7708 12.5013 14.6646C12.873 14.5584 13.2207 14.2986 13.3545 13.926C13.4388 13.7016 13.3998 13.4457 13.278 13.2432C13.0146 12.7947 12.4716 12.5871 11.9694 12.5994C11.2902 12.5928 10.6071 12.3468 10.1028 11.8869C9.74913 11.5659 9.49503 11.1288 9.42483 10.6536C9.34143 10.1373 9.46533 9.591 9.76653 9.1632C10.1445 8.6172 10.7571 8.265 11.3994 8.1279C11.3916 7.9614 11.4075 7.7826 11.5146 7.6473Z" fill="#4B4B4B"/>
</svg>
