<svg width="24" height="24" viewBox="0 0 24 24" fill="none" xmlns="http://www.w3.org/2000/svg">
<path d="M8.8885 1.27248C9.9247 1.24788 10.9615 1.25058 11.9977 1.25058C12.2125 1.24728 12.4234 1.34448 12.5641 1.50588C12.7501 1.71318 12.802 2.02788 12.6943 2.28468C12.5845 2.56038 12.2989 2.75448 12.0013 2.75028C10.7908 2.75268 9.58 2.74488 8.3701 2.78958C7.654 2.81868 6.9364 2.86428 6.2293 2.98548C5.7016 3.07908 5.1739 3.21588 4.6993 3.47178C4.2904 3.69078 3.9334 4.00548 3.6658 4.38468C3.3817 4.78668 3.2065 5.25498 3.0892 5.73048C2.9431 6.32988 2.8768 6.94518 2.8324 7.55928C2.7466 8.84718 2.7535 10.1387 2.7505 11.4287C2.7517 12.5396 2.7451 13.6505 2.7652 14.7611C2.7799 15.491 2.8036 16.2215 2.8753 16.9484C2.9356 17.5358 3.0232 18.125 3.2095 18.6872C3.3508 19.1159 3.5626 19.5263 3.8635 19.8656C4.168 20.2148 4.5574 20.4854 4.9831 20.6654C5.5723 20.9162 6.2086 21.0269 6.841 21.1022C8.1553 21.2462 9.4798 21.2396 10.8001 21.2495C12.34 21.245 13.8802 21.2645 15.4198 21.2183C16.2001 21.1913 16.9822 21.1481 17.7529 21.0179C18.2716 20.9267 18.79 20.795 19.2595 20.5502C19.6537 20.3462 20.0029 20.0549 20.2711 19.7006C20.5717 19.3079 20.7604 18.842 20.8858 18.3668C21.0376 17.7857 21.1084 17.1872 21.1561 16.5896C21.2686 15.0518 21.2416 13.5086 21.2509 11.9681C21.2584 11.6903 21.4378 11.4275 21.6919 11.3165C21.9133 11.2142 22.1842 11.2307 22.3912 11.3603C22.6111 11.4917 22.7524 11.7434 22.7494 11.9999C22.7482 13.3007 22.7566 14.6021 22.7002 15.902C22.6402 17.0798 22.5472 18.2795 22.1308 19.3931C21.8086 20.2658 21.226 21.0443 20.4589 21.5744C19.6474 22.1432 18.6676 22.4069 17.698 22.5449C16.4275 22.7213 15.1417 22.7324 13.8613 22.7462C12.3406 22.7498 10.8199 22.7576 9.2995 22.7363C8.0857 22.7099 6.8629 22.6763 5.6692 22.4348C5.0203 22.3004 4.3801 22.0901 3.8089 21.7481C3.0238 21.2819 2.3908 20.5688 2.0137 19.7378C1.567 18.7634 1.4242 17.6852 1.342 16.6262C1.2808 15.7856 1.2643 14.9426 1.2556 14.1002C1.246 12.9803 1.252 11.8607 1.2505 10.7408C1.255 9.82728 1.2601 8.91318 1.3039 8.00058C1.339 7.30188 1.3942 6.60288 1.5178 5.91378C1.6333 5.27418 1.8121 4.64028 2.1118 4.06068C2.4787 3.34698 3.0394 2.73348 3.7198 2.30718C4.2778 1.95558 4.9081 1.73358 5.5495 1.59138C6.6454 1.35228 7.771 1.30488 8.8885 1.27248Z" fill="#4B4B4B"/>
<path opacity="0.5" d="M18.2868 5.09095C18.4272 4.96105 18.6189 4.89205 18.8094 4.89565C19.7505 4.89625 20.6916 4.89446 21.6327 4.89656C22.0146 4.89386 22.3596 5.22686 22.3674 5.60906C22.3719 6.52976 22.3671 7.45046 22.3698 8.37115C22.3719 8.50075 22.3674 8.63425 22.3149 8.75515C22.1982 9.05875 21.8664 9.26005 21.543 9.22105C21.1869 9.19195 20.883 8.87636 20.871 8.51876C20.8656 8.16656 20.871 7.81436 20.8686 7.46216C19.8807 8.44286 18.8997 9.43106 17.9136 10.4138C17.7981 10.5284 17.6475 10.6088 17.4858 10.6313C17.2128 10.6745 16.923 10.55 16.7652 10.3238C16.6071 10.106 16.5816 9.80155 16.7016 9.56065C16.7652 9.42295 16.8828 9.32365 16.9875 9.21835C17.9274 8.27725 18.8691 7.33825 19.8081 6.39625C19.4652 6.39505 19.1223 6.39685 18.7797 6.39565C18.4704 6.39715 18.177 6.18296 18.081 5.88986C17.9832 5.61356 18.0666 5.28475 18.2868 5.09095Z" fill="#4B4B4B"/>
<path d="M17.8985 1.94096C18.0896 1.74266 18.3932 1.66286 18.6563 1.74716C18.9341 1.82846 19.1498 2.08466 19.1813 2.37266C19.2092 2.59376 19.133 2.82626 18.9755 2.98466C17.9849 3.97496 16.994 4.96527 16.004 5.95647C16.3586 5.95887 16.7135 5.95376 17.0681 5.95887C17.4473 5.97207 17.7743 6.31346 17.7728 6.69267C17.7899 7.08267 17.4557 7.44327 17.0657 7.45527C16.1876 7.45886 15.3092 7.45586 14.4311 7.45677C14.2817 7.45376 14.1284 7.47086 13.9835 7.42677C13.7363 7.35627 13.5329 7.14986 13.4693 6.90026C13.4387 6.79346 13.4438 6.68156 13.4435 6.57177C13.4444 5.67116 13.4426 4.77027 13.4444 3.86968C13.4441 3.63177 13.568 3.39956 13.7633 3.26456C13.9676 3.11726 14.2487 3.08786 14.4806 3.18506C14.7533 3.29426 14.9453 3.57566 14.9435 3.86996C14.9441 4.21166 14.9432 4.55337 14.9438 4.89507C15.929 3.91077 16.9133 2.92556 17.8985 1.94096Z" fill="#4B4B4B"/>
<path opacity="0.5" d="M11.5146 7.64727C11.6367 7.47747 11.8506 7.37967 12.0591 7.40277C12.2874 7.42197 12.4938 7.58697 12.567 7.80357C12.6063 7.90707 12.5997 8.01927 12.6006 8.12787C13.182 8.25267 13.737 8.55087 14.1192 9.01257C14.4396 9.39627 14.6226 9.89907 14.5962 10.4C14.5695 10.7024 14.283 10.9502 13.98 10.9331C13.6728 10.9295 13.4004 10.6571 13.401 10.349C13.4028 10.0784 13.2609 9.82527 13.0647 9.64617C12.8085 9.41097 12.4632 9.28947 12.1191 9.27027C11.7324 9.24597 11.3268 9.33627 11.0172 9.57717C10.8069 9.73857 10.6422 9.97467 10.6056 10.2413C10.5741 10.4867 10.6767 10.7318 10.8348 10.9157C11.0511 11.1698 11.3685 11.3225 11.6946 11.3756C11.8959 11.4116 12.1014 11.3909 12.3039 11.4158C12.9303 11.4818 13.5435 11.7491 13.9878 12.2009C14.3028 12.5177 14.5212 12.9347 14.58 13.3793C14.6532 13.8854 14.5284 14.417 14.2341 14.8355C13.8558 15.3821 13.2435 15.7349 12.6006 15.872C12.6084 16.0391 12.5919 16.2185 12.4839 16.3544C12.3501 16.5407 12.1047 16.6367 11.88 16.5878C11.6472 16.5434 11.4531 16.3469 11.4108 16.1141C11.3967 16.034 11.3994 15.9527 11.3994 15.872C10.8177 15.7469 10.2624 15.449 9.88023 14.9867C9.56433 14.6084 9.38343 14.1146 9.40203 13.6202C9.41793 13.2884 9.74973 13.0184 10.0782 13.0718C10.3299 13.1012 10.548 13.3076 10.5894 13.5575C10.6056 13.6742 10.5972 13.7951 10.6392 13.9073C10.7478 14.234 11.0265 14.48 11.3391 14.6087C11.7054 14.7572 12.1221 14.7707 12.5013 14.6645C12.873 14.5583 13.2207 14.2985 13.3545 13.9259C13.4388 13.7015 13.3998 13.4456 13.278 13.2431C13.0146 12.7946 12.4716 12.587 11.9694 12.5993C11.2902 12.5927 10.6071 12.3467 10.1028 11.8868C9.74913 11.5658 9.49503 11.1287 9.42483 10.6535C9.34143 10.1372 9.46533 9.59097 9.76653 9.16317C10.1445 8.61717 10.7571 8.26497 11.3994 8.12787C11.3916 7.96137 11.4075 7.78257 11.5146 7.64727Z" fill="#4B4B4B"/>
</svg>
