<svg width="24" height="24" viewBox="0 0 24 24" fill="none" xmlns="http://www.w3.org/2000/svg">
<path d="M11.173 1.28118C11.4682 1.26078 11.7643 1.24398 12.0598 1.25298C12.4093 1.27158 12.7144 1.57038 12.7456 1.91778C12.7843 2.22408 12.6097 2.53968 12.3322 2.67288C12.2029 2.74068 12.0541 2.75448 11.9104 2.75118C9.77078 2.76048 7.64828 3.55308 6.02138 4.94178C4.51058 6.21708 3.42458 7.98798 2.98568 9.91668C2.56298 11.7488 2.71058 13.7102 3.41678 15.4538C4.12298 17.2166 5.38988 18.7466 6.98618 19.7741C7.85108 20.3342 8.81138 20.7473 9.81308 20.9897C11.2087 21.3284 12.6829 21.3365 14.0824 21.0146C15.9139 20.597 17.6044 19.598 18.8617 18.2033C19.5604 17.4308 20.1292 16.5404 20.5318 15.5798C20.9839 14.5058 21.2275 13.3448 21.2479 12.1799C21.2509 12.0596 21.2419 11.9369 21.2722 11.819C21.3274 11.5901 21.4978 11.393 21.7165 11.3057C21.9259 11.2181 22.1752 11.234 22.3714 11.3483C22.5934 11.4719 22.7428 11.7164 22.7488 11.9708C22.7641 14.1059 22.1149 16.2389 20.917 18.0059C19.7626 19.7216 18.1039 21.0932 16.1989 21.899C14.1238 22.7852 11.7664 22.9838 9.56918 22.4738C7.61498 22.0256 5.79758 21.0092 4.38488 19.5875C2.91098 18.113 1.87868 16.2017 1.46678 14.1572C1.03058 12.0242 1.25498 9.75888 2.11898 7.75908C2.61698 6.59928 3.32258 5.52888 4.19048 4.61238C5.17388 3.57228 6.36638 2.72958 7.67738 2.15418C8.78198 1.66788 9.96968 1.37208 11.173 1.28118Z" fill="#4B4B4B"/>
<path opacity="0.5" d="M13.3709 3.17049C13.7024 2.99079 14.1557 3.11499 14.3483 3.43929C14.8448 4.28349 15.3362 5.13039 15.8324 5.97459C15.8702 6.05259 15.9767 6.07569 16.0466 6.02739C16.5584 5.73009 17.0687 5.43009 17.5802 5.13189C17.7278 5.04639 17.8721 4.95249 18.0335 4.89369C18.4535 4.73349 18.9392 4.75689 19.3415 4.95729C19.6265 5.09529 19.8689 5.31879 20.0303 5.59119C20.4344 6.27999 20.8355 6.97059 21.2402 7.65909C21.3179 7.42029 21.3302 7.14819 21.4982 6.94899C21.6947 6.70299 22.0538 6.60789 22.3463 6.72579C22.6838 6.84729 22.8938 7.23399 22.8101 7.58349C22.6181 8.32479 22.4228 9.06579 22.2278 9.80679C22.1525 10.0897 21.8951 10.3111 21.6047 10.3459C21.4262 10.3747 21.2531 10.3087 21.0827 10.2664C20.495 10.1125 19.9073 9.95799 19.3193 9.80439C19.1978 9.77139 19.0712 9.74799 18.9608 9.68469C18.7379 9.56049 18.5885 9.31629 18.5807 9.06129C18.5696 8.81409 18.6899 8.56449 18.893 8.42229C19.067 8.29479 19.298 8.25099 19.5071 8.30319C19.6532 8.33949 19.7981 8.38059 19.9445 8.41689C19.5452 7.73289 19.1459 7.04859 18.7448 6.36549C18.7058 6.28809 18.5987 6.26529 18.5288 6.31479C17.9468 6.65409 17.3657 6.99519 16.7837 7.33479C16.4471 7.53009 16.0397 7.59789 15.6578 7.52439C15.1997 7.44099 14.7839 7.15209 14.5478 6.75009C14.0504 5.89989 13.5524 5.04999 13.0565 4.19859C12.8489 3.84609 13.0034 3.34749 13.3709 3.17049Z" fill="#4B4B4B"/>
<path opacity="0.5" d="M11.5029 7.66357C11.6226 7.48507 11.8419 7.37947 12.0564 7.40257C12.2865 7.42057 12.4947 7.58707 12.5676 7.80547C12.6063 7.90837 12.5997 8.01996 12.6006 8.12766C13.1946 8.25516 13.7616 8.56387 14.1438 9.04297C14.4396 9.40927 14.6082 9.87876 14.5995 10.3506C14.5959 10.5468 14.4873 10.7364 14.3208 10.8399C14.1468 10.9527 13.9134 10.9638 13.7298 10.8684C13.5363 10.773 13.4037 10.5666 13.401 10.3503C13.4022 9.97387 13.1388 9.64627 12.8214 9.46987C12.4488 9.25987 11.9955 9.22087 11.5824 9.31327C11.2068 9.39937 10.8474 9.63306 10.6803 9.98946C10.5813 10.1901 10.5735 10.4325 10.6632 10.638C10.8084 10.9851 11.139 11.2263 11.493 11.3292C11.6577 11.3784 11.8299 11.3991 12.0015 11.3997C12.642 11.4003 13.2861 11.6127 13.7856 12.0165C14.1246 12.2907 14.3919 12.66 14.5155 13.0803C14.6853 13.6464 14.5974 14.2854 14.2713 14.7798C13.8978 15.357 13.2648 15.7305 12.6006 15.8718C12.6084 16.0383 12.5922 16.2171 12.4851 16.3527C12.3633 16.5222 12.1494 16.62 11.9412 16.5969C11.721 16.5783 11.5206 16.4247 11.4414 16.2189C11.3946 16.1094 11.3991 15.9882 11.3997 15.8718C10.8177 15.7467 10.2627 15.4488 9.88054 14.9868C9.56434 14.6085 9.38344 14.1147 9.40204 13.6203C9.41764 13.3206 9.68944 13.065 9.98944 13.0662C10.2327 13.059 10.4688 13.2162 10.5567 13.443C10.6194 13.5837 10.5831 13.7436 10.6332 13.8879C10.716 14.1582 10.92 14.3796 11.1615 14.52C11.5125 14.7252 11.9397 14.7726 12.336 14.7033C12.687 14.6403 13.0284 14.4573 13.2336 14.1597C13.3662 13.971 13.4364 13.7289 13.3809 13.5009C13.3089 13.1907 13.0746 12.9393 12.7995 12.7908C12.5562 12.6579 12.2769 12.5997 12.0009 12.5997C11.403 12.5997 10.803 12.4152 10.3182 12.063C9.95644 11.7999 9.66214 11.4354 9.51424 11.0109C9.30904 10.4304 9.38224 9.75787 9.71614 9.23946C10.0872 8.65117 10.7277 8.27046 11.3994 8.12766C11.3928 7.96776 11.4048 7.79707 11.5029 7.66357Z" fill="#4B4B4B"/>
</svg>
