<svg width="24" height="24" viewBox="0 0 24 24" fill="none" xmlns="http://www.w3.org/2000/svg">
<path d="M8.8887 1.2723C9.9258 1.2477 10.9629 1.2507 12 1.2504C12.2208 1.2474 12.4377 1.3515 12.5778 1.5213C12.753 1.7283 12.7992 2.0331 12.6948 2.2833C12.5853 2.5605 12.2976 2.7552 11.9991 2.7504C10.7997 2.7522 9.5997 2.745 8.4009 2.7882C7.6749 2.817 6.9474 2.8626 6.2304 2.985C5.7102 3.0774 5.1903 3.2115 4.7211 3.4602C4.3221 3.6699 3.9711 3.9699 3.7035 4.3329C3.4041 4.7367 3.2196 5.2134 3.0975 5.6979C2.9385 6.3357 2.8716 6.9924 2.8266 7.6467C2.7405 9.0354 2.7537 10.4277 2.7507 11.8185C2.7516 12.948 2.7456 14.0781 2.7756 15.2073C2.7969 15.945 2.8314 16.6839 2.9304 17.4156C3.0096 17.9841 3.1269 18.5541 3.3624 19.0803C3.5562 19.5138 3.8466 19.9056 4.2162 20.2056C4.6002 20.5227 5.0649 20.7267 5.5416 20.8608C6.1419 21.0282 6.7632 21.1035 7.383 21.1542C8.8785 21.2649 10.3794 21.2448 11.8779 21.2493C13.4097 21.2445 14.9436 21.2673 16.4727 21.165C17.1489 21.1146 17.8281 21.0393 18.4824 20.8536C18.9714 20.7153 19.446 20.4981 19.8333 20.1642C20.1795 19.8705 20.4528 19.4946 20.6373 19.0803C20.8548 18.5964 20.9703 18.0744 21.0501 17.5521C21.1461 16.905 21.1863 16.2513 21.2118 15.5979C21.2553 14.3991 21.2475 13.1994 21.2499 12.0003C21.2472 11.733 21.4005 11.4723 21.6354 11.3445C21.8661 11.2134 22.1664 11.2185 22.3911 11.3601C22.6209 11.4969 22.7622 11.7642 22.7499 12.0306C22.7454 13.557 22.7646 15.0852 22.659 16.6089C22.5801 17.6436 22.4427 18.6951 22.0242 19.6539C21.6669 20.4807 21.0612 21.1995 20.2992 21.681C19.4424 22.2264 18.4305 22.4574 17.4342 22.5798C16.0491 22.7427 14.6517 22.7388 13.2591 22.7496C11.6895 22.7448 10.1193 22.7652 8.5503 22.7178C7.8204 22.6932 7.0899 22.653 6.3657 22.5537C5.652 22.4547 4.9389 22.2951 4.2807 21.9948C3.4278 21.612 2.6973 20.9601 2.2284 20.1501C1.6899 19.2258 1.4904 18.1524 1.383 17.1006C1.3113 16.3728 1.284 15.6411 1.2678 14.91C1.2423 13.6104 1.2528 12.3105 1.2507 11.0106C1.257 9.639 1.2525 8.2644 1.3833 6.8979C1.4709 6.036 1.6203 5.1678 1.9662 4.3683C2.2977 3.5922 2.8455 2.9088 3.5391 2.427C4.0716 2.0541 4.6833 1.8072 5.3112 1.6482C6.4797 1.3566 7.6905 1.3086 8.8887 1.2723Z" fill="#4B4B4B"/>
<path opacity="0.5" d="M16.4496 1.4805C16.719 1.1949 17.217 1.1871 17.4942 1.4655C18.1563 2.1258 18.8166 2.7879 19.4784 3.4488C20.097 2.8308 20.715 2.2125 21.3333 1.5942C21.4083 1.5195 21.4806 1.44 21.57 1.3815C21.7533 1.2609 21.9912 1.227 22.2006 1.2933C22.4484 1.3665 22.6485 1.5786 22.7085 1.8297C22.7709 2.0769 22.6968 2.3538 22.5159 2.5341C21.8568 3.1911 21.2016 3.8517 20.5407 4.5066C21.1458 5.1228 21.7614 5.7288 22.3704 6.3411C22.4625 6.4371 22.5696 6.5229 22.6338 6.642C22.7445 6.8361 22.7604 7.0803 22.677 7.2873C22.5918 7.5054 22.3983 7.6779 22.1709 7.7349C21.9303 7.8006 21.6573 7.7355 21.4755 7.5639C20.808 6.9012 20.1474 6.2313 19.4778 5.571C18.8211 6.2304 18.1617 6.8874 17.5041 7.5459C17.3316 7.719 17.07 7.7958 16.8312 7.7448C16.557 7.6932 16.3251 7.4739 16.2555 7.2039C16.2021 7.0089 16.2327 6.7926 16.3392 6.6204C16.4016 6.5157 16.494 6.4344 16.5789 6.3486C17.1921 5.7351 17.8059 5.1222 18.4188 4.5081C17.7582 3.8472 17.097 3.1869 16.4367 2.5257C16.1571 2.2491 16.1643 1.7505 16.4496 1.4805Z" fill="#4B4B4B"/>
<path opacity="0.5" d="M11.5161 7.6452C11.6445 7.4676 11.874 7.3707 12.0909 7.407C12.3471 7.4418 12.5631 7.6617 12.5943 7.9179C12.6018 7.9878 12.6006 8.058 12.6 8.1282C13.182 8.2524 13.7373 8.5509 14.1195 9.0129C14.4354 9.3909 14.6157 9.8838 14.5983 10.3779C14.5833 10.6572 14.3475 10.902 14.0697 10.9296C13.809 10.9644 13.5396 10.8039 13.4445 10.5594C13.3788 10.4181 13.4178 10.2567 13.3665 10.1118C13.2822 9.8349 13.0704 9.6102 12.8214 9.4701C12.4848 9.2793 12.081 9.2316 11.7027 9.2898C11.3727 9.3414 11.0511 9.4956 10.8327 9.7527C10.6812 9.9327 10.578 10.1679 10.6038 10.407C10.6326 10.6752 10.7958 10.9125 11.0028 11.0781C11.2824 11.3016 11.6454 11.4012 12 11.4C12.5766 11.4 13.1544 11.5722 13.6299 11.8998C13.9833 12.1446 14.2791 12.4818 14.4444 12.8814C14.6694 13.4175 14.6493 14.0499 14.3907 14.5707C14.0484 15.2619 13.3419 15.7167 12.6003 15.8718C12.6078 16.0326 12.5946 16.2042 12.4959 16.3383C12.3753 16.5162 12.1551 16.6212 11.9406 16.5972C11.7129 16.5777 11.5071 16.4139 11.4336 16.1982C11.394 16.0941 11.3994 15.981 11.4 15.8721C10.8183 15.7476 10.2633 15.4494 9.8811 14.9877C9.5649 14.6097 9.384 14.1162 9.4017 13.6221C9.4167 13.3224 9.6876 13.0662 9.9873 13.0665C10.2312 13.0584 10.4688 13.2159 10.5567 13.4433C10.6209 13.5831 10.5819 13.743 10.6329 13.8867C10.7196 14.172 10.9404 14.4018 11.1993 14.5413C11.5425 14.7288 11.9526 14.7702 12.3342 14.7039C12.6987 14.6388 13.0539 14.4441 13.2558 14.1264C13.3791 13.9371 13.4367 13.6974 13.3749 13.4766C13.29 13.1553 13.0344 12.9024 12.741 12.7611C12.5112 12.6489 12.2541 12.5997 11.9997 12.6C11.352 12.6 10.701 12.3825 10.1985 11.9706C9.8676 11.6979 9.6063 11.334 9.4848 10.9206C9.3213 10.3752 9.3954 9.7617 9.6939 9.276C10.0608 8.6676 10.7142 8.2728 11.3997 8.1282C11.3907 7.9608 11.4081 7.7811 11.5161 7.6452Z" fill="#4B4B4B"/>
</svg>
