<svg width="24" height="24" viewBox="0 0 24 24" fill="none" xmlns="http://www.w3.org/2000/svg">
<path d="M11.1747 1.28091C11.4792 1.26171 11.7855 1.24011 12.0906 1.25601C12.483 1.29171 12.7947 1.68141 12.7467 2.07201C12.7188 2.45781 12.354 2.77401 11.9685 2.75061C9.90297 2.74791 7.84797 3.47181 6.23727 4.76391C4.68237 5.99901 3.54027 7.74621 3.04587 9.67041C2.55537 11.5568 2.67627 13.5983 3.39897 15.4094C4.08057 17.1365 5.29917 18.6446 6.84117 19.6784C7.71627 20.2691 8.69457 20.7071 9.71817 20.9663C11.0607 21.3071 12.4794 21.3407 13.8369 21.0674C15.7899 20.6792 17.6001 19.6304 18.9186 18.1397C20.3916 16.4921 21.2397 14.3012 21.2487 12.0905C21.24 11.9027 21.279 11.708 21.3951 11.5565C21.5802 11.2961 21.942 11.1812 22.2432 11.2901C22.53 11.3849 22.7427 11.6672 22.7487 11.9702C22.764 14.1056 22.1148 16.2392 20.9166 18.0065C19.7706 19.7093 18.1281 21.0731 16.2411 21.881C14.1558 22.7822 11.7819 22.9871 9.57057 22.4741C7.61547 22.0259 5.79747 21.0095 4.38417 19.5869C2.89257 18.0947 1.85367 16.1549 1.45167 14.0828C0.99477 11.7725 1.31637 9.31221 2.37567 7.20651C3.47877 4.98141 5.37957 3.16521 7.65297 2.16501C8.76477 1.67211 9.96177 1.37241 11.1747 1.28091Z" fill="#4B4B4B"/>
<path opacity="0.5" d="M16.4033 2.21155C16.5119 1.93315 16.7987 1.73605 17.0987 1.74055C18.5387 1.73995 19.9787 1.74055 21.4187 1.74025C21.5489 1.74115 21.683 1.73125 21.8093 1.76995C22.0511 1.83835 22.2509 2.03725 22.3196 2.27905C22.3586 2.40565 22.3493 2.53975 22.3499 2.67055C22.3499 4.04035 22.3499 5.41045 22.3499 6.78055C22.349 6.89185 22.3556 7.00375 22.3394 7.11445C22.3019 7.35415 22.1372 7.56775 21.9179 7.66975C21.7259 7.76035 21.4949 7.76395 21.3008 7.67815C21.0995 7.59085 20.9393 7.41145 20.8799 7.19995C20.8406 7.07395 20.8505 6.94015 20.8499 6.80995C20.8499 5.97355 20.8502 5.13685 20.8496 4.30015C19.5761 5.57305 18.3029 6.84655 17.0297 8.12005C16.8923 8.26105 16.6964 8.34085 16.4999 8.34025C16.2077 8.34445 15.9263 8.15785 15.812 7.88965C15.6923 7.62205 15.749 7.28575 15.9551 7.07605C17.2331 5.79685 18.512 4.51945 19.79 3.24055C18.8933 3.23995 17.9966 3.24055 17.1002 3.23995C16.8887 3.24175 16.6799 3.14785 16.5404 2.98915C16.3517 2.78395 16.2977 2.46925 16.4033 2.21155Z" fill="#4B4B4B"/>
<path opacity="0.5" d="M11.5154 7.64653C11.6372 7.47733 11.8505 7.38013 12.0581 7.40263C12.2873 7.42153 12.4943 7.58683 12.5675 7.80403C12.6065 7.90723 12.5999 8.01943 12.6008 8.12773C13.1828 8.25283 13.7384 8.55103 14.1203 9.01363C14.4356 9.39103 14.6156 9.88333 14.5985 10.3762C14.5841 10.6672 14.3294 10.9192 14.039 10.9321C13.772 10.954 13.5077 10.7728 13.4291 10.5175C13.3856 10.3867 13.4123 10.2445 13.3676 10.114C13.2743 9.80683 13.0271 9.56533 12.7427 9.42853C12.3788 9.25213 11.9522 9.22603 11.5619 9.31813C11.1869 9.40933 10.8302 9.64933 10.6712 10.0102C10.5695 10.2274 10.5806 10.4881 10.6913 10.6996C10.9271 11.1646 11.4659 11.3992 11.969 11.3992C12.6065 11.3944 13.2491 11.5963 13.7528 11.9905C14.1068 12.2665 14.3873 12.6451 14.5148 13.078C14.6861 13.645 14.5979 14.2855 14.2709 14.7808C13.8974 15.3574 13.2647 15.7306 12.6008 15.8719C12.6089 16.0387 12.5921 16.2181 12.4844 16.354C12.356 16.5322 12.125 16.6294 11.9078 16.5925C11.6849 16.561 11.4908 16.3909 11.4263 16.1758C11.3945 16.0777 11.3999 15.9733 11.3999 15.8719C10.8191 15.7471 10.265 15.4501 9.88278 14.9893C9.57768 14.626 9.39948 14.1562 9.40008 13.6804C9.38328 13.3483 9.68598 13.0474 10.0181 13.0666C10.2515 13.0711 10.4723 13.2256 10.5569 13.4431C10.6169 13.5751 10.586 13.7248 10.6259 13.8613C10.7024 14.143 10.9115 14.3743 11.1602 14.5192C11.4992 14.7181 11.9099 14.7688 12.2945 14.7106C12.6326 14.6581 12.9626 14.4982 13.1813 14.2303C13.3361 14.0407 13.4339 13.7896 13.3898 13.5433C13.3382 13.2517 13.1378 13.0057 12.8942 12.847C12.6302 12.6751 12.3125 12.5989 11.9996 12.5998C11.4149 12.5995 10.8287 12.4228 10.3499 12.0856C9.99258 11.8336 9.69708 11.4853 9.53838 11.0758C9.31488 10.507 9.36378 9.83803 9.67338 9.31033C10.0355 8.68333 10.7015 8.27563 11.3996 8.12773C11.3915 7.96093 11.408 7.78213 11.5154 7.64653Z" fill="#4B4B4B"/>
</svg>
