<svg width="24" height="24" viewBox="0 0 24 24" fill="none" xmlns="http://www.w3.org/2000/svg">
<path d="M8.8908 1.2723C9.8574 1.2492 10.8243 1.2501 11.7912 1.2507C11.9097 1.2516 12.0297 1.2429 12.147 1.2642C12.4113 1.314 12.639 1.5192 12.7161 1.7766C12.789 2.0049 12.7431 2.2674 12.5952 2.4564C12.4572 2.6391 12.2319 2.7516 12.0027 2.7501C10.5447 2.7549 9.0849 2.7366 7.6287 2.8278C7.0098 2.8707 6.3894 2.9343 5.784 3.0765C5.3184 3.1872 4.8588 3.3501 4.458 3.6162C4.0197 3.9045 3.6627 4.3125 3.4284 4.7817C3.1545 5.3298 3.0234 5.9358 2.937 6.5388C2.769 7.7817 2.7663 9.0387 2.7534 10.2906C2.7498 11.5302 2.748 12.7701 2.7555 14.0097C2.7639 14.8707 2.7783 15.7323 2.8437 16.5909C2.8872 17.1354 2.9505 17.6802 3.0756 18.2127C3.1818 18.6591 3.3348 19.0998 3.582 19.4886C3.8562 19.9254 4.2474 20.2869 4.7022 20.5299C5.1267 20.7579 5.5947 20.892 6.066 20.9844C6.8256 21.1302 7.5999 21.1788 8.3718 21.2106C9.8703 21.264 11.37 21.2454 12.8691 21.2493C14.1906 21.2436 15.5145 21.2508 16.8321 21.1359C17.451 21.0768 18.072 20.9904 18.6648 20.7978C19.1085 20.6541 19.5333 20.4354 19.8816 20.1219C20.2464 19.7994 20.5227 19.3833 20.7009 18.9312C20.9481 18.3093 21.0513 17.6418 21.1212 16.9797C21.2442 15.7239 21.2403 14.4606 21.2493 13.2003C21.2496 12.7998 21.2481 12.3993 21.2499 11.9991C21.2472 11.7177 21.4185 11.445 21.6729 11.3253C21.9036 11.2104 22.1934 11.2278 22.4082 11.3709C22.6284 11.5101 22.7613 11.7705 22.7502 12.0303C22.7451 13.5627 22.7649 15.0975 22.6578 16.6272C22.5765 17.679 22.4343 18.7491 21.9951 19.7187C21.5949 20.6115 20.8989 21.369 20.0379 21.8349C19.1568 22.3167 18.1524 22.5057 17.1639 22.6104C15.8472 22.7421 14.5221 22.7412 13.2003 22.7496C11.55 22.7439 9.8991 22.7688 8.2497 22.707C7.035 22.6503 5.7966 22.5657 4.6449 22.1451C3.7644 21.8274 2.976 21.2472 2.4387 20.4777C1.8234 19.6089 1.5618 18.5484 1.4292 17.5068C1.2567 16.098 1.2615 14.676 1.2507 13.2591C1.2531 11.9091 1.242 10.5591 1.2654 9.2094C1.2822 8.3898 1.3101 7.5693 1.3986 6.7539C1.479 6.0228 1.6092 5.2908 1.8714 4.6011C2.1528 3.846 2.625 3.1599 3.249 2.6472C3.6816 2.2881 4.1838 2.0187 4.7124 1.83C5.307 1.6179 5.9304 1.4991 6.5556 1.4214C7.3302 1.3269 8.1108 1.293 8.8908 1.2723Z" fill="#4B4B4B"/>
<path opacity="0.5" d="M13.1793 3.3114C13.3458 3.1398 13.5984 3.057 13.8342 3.0978C14.0523 3.1317 14.2506 3.2685 14.361 3.4599C14.8227 4.2489 15.2841 5.0382 15.7452 5.8275C15.7821 5.889 15.8136 5.9544 15.8589 6.0108C15.9132 6.0687 16.0047 6.0606 16.0656 6.0174C16.6269 5.6883 17.1891 5.3607 17.7504 5.0316C18.2283 4.7337 18.8601 4.707 19.3605 4.9668C19.644 5.1084 19.8831 5.3358 20.0415 5.61C20.4411 6.2934 20.8404 6.9768 21.24 7.6602C21.3171 7.4214 21.33 7.1487 21.4977 6.9492C21.6936 6.7035 22.0518 6.6081 22.3443 6.7248C22.6824 6.8457 22.8933 7.2321 22.8102 7.5822C22.6293 8.2836 22.4427 8.9838 22.2606 9.6852C22.2285 9.8208 22.1856 9.9585 22.095 10.0674C21.9159 10.299 21.5946 10.4064 21.3123 10.3266C20.5926 10.1379 19.8729 9.9489 19.1529 9.7608C18.9396 9.7092 18.7527 9.5604 18.657 9.3627C18.5397 9.1308 18.5583 8.8389 18.7014 8.6223C18.8592 8.3721 19.1751 8.2362 19.4655 8.2944C19.6263 8.3298 19.7841 8.3781 19.9443 8.4168C19.5444 7.7319 19.1448 7.047 18.7431 6.363C18.7029 6.2862 18.5961 6.2661 18.5268 6.3156C17.9649 6.6441 17.4027 6.9726 16.8411 7.3014C16.6233 7.4349 16.3767 7.5225 16.1217 7.5459C15.5097 7.6104 14.8767 7.2987 14.5599 6.7704C14.0862 5.9637 13.6155 5.1552 13.1427 4.3479C13.0818 4.2438 13.014 4.1406 12.9861 4.0215C12.921 3.7725 12.9969 3.4929 13.1793 3.3114Z" fill="#4B4B4B"/>
<path opacity="0.5" d="M11.4921 7.68C11.61 7.4913 11.8377 7.3776 12.0597 7.4028C12.2889 7.4223 12.495 7.5885 12.5679 7.806C12.606 7.9086 12.5997 8.0202 12.6006 8.1279C13.1886 8.2542 13.7502 8.5578 14.1324 9.0288C14.4402 9.4038 14.6151 9.8895 14.5983 10.3758C14.5845 10.6563 14.3475 10.9026 14.0685 10.9296C13.8075 10.9641 13.5384 10.8027 13.4436 10.5576C13.3809 10.4178 13.4157 10.2591 13.3677 10.1154C13.284 9.8367 13.0713 9.6105 12.8211 9.4698C12.4425 9.2568 11.9808 9.2196 11.5623 9.3183C11.187 9.4095 10.8297 9.6498 10.6707 10.011C10.5762 10.2144 10.578 10.4568 10.6725 10.6602C10.9044 11.1708 11.4951 11.4162 12.0315 11.4006C12.6402 11.4066 13.2501 11.6049 13.7343 11.9763C14.0724 12.2355 14.346 12.5862 14.4864 12.9906C14.6883 13.5639 14.6193 14.2266 14.2953 14.742C13.926 15.3402 13.2792 15.7278 12.6006 15.8721C12.606 16.0251 12.5976 16.1883 12.5085 16.3191C12.3957 16.4994 12.1833 16.6128 11.9703 16.5993C11.7393 16.5912 11.5236 16.4343 11.4414 16.2189C11.3946 16.1097 11.3991 15.9885 11.3997 15.8721C10.818 15.7473 10.263 15.4494 9.8811 14.9877C9.5652 14.61 9.384 14.1171 9.4017 13.6233C9.4161 13.3221 9.6891 13.0647 9.9903 13.0665C10.2327 13.0596 10.4685 13.2165 10.5564 13.4424C10.6164 13.5741 10.5861 13.7229 10.6254 13.8594C10.6992 14.1354 10.9011 14.3634 11.1423 14.5089C11.4843 14.7162 11.9028 14.7702 12.294 14.7108C12.6318 14.6586 12.9618 14.4987 13.1805 14.2311C13.3356 14.0412 13.434 13.7901 13.3896 13.5432C13.338 13.2519 13.1373 13.0056 12.894 12.8472C12.63 12.6753 12.3123 12.5991 11.9994 12.6C11.415 12.5997 10.8294 12.423 10.3506 12.0864C9.9987 11.8386 9.7065 11.4972 9.546 11.0955C9.3168 10.53 9.3588 9.8613 9.6615 9.3306C10.0209 8.6925 10.6938 8.2773 11.3994 8.1279C11.3937 7.9743 11.4024 7.8111 11.4921 7.68Z" fill="#4B4B4B"/>
</svg>
