<svg width="24" height="24" viewBox="0 0 24 24" fill="none" xmlns="http://www.w3.org/2000/svg">
<path d="M8.8892 1.27225C10.3454 1.23895 11.8019 1.25395 13.2584 1.25035C14.6822 1.26175 16.1117 1.25635 17.5274 1.43185C18.5903 1.56865 19.6745 1.84255 20.549 2.48965C21.3239 3.05245 21.8912 3.87385 22.1933 4.77895C22.5926 5.96215 22.6643 7.22215 22.715 8.46055C22.7678 10.1795 22.7459 11.8997 22.7477 13.6193C22.7366 14.9159 22.7297 16.2173 22.571 17.5061C22.4435 18.5003 22.2023 19.5092 21.6443 20.3561C21.1385 21.131 20.3852 21.734 19.5278 22.0778C18.4628 22.508 17.3048 22.6199 16.1681 22.6871C14.54 22.7699 12.9092 22.7444 11.2796 22.7492C9.8801 22.7453 8.4782 22.7522 7.0826 22.634C6.0338 22.538 4.9646 22.3631 4.0226 21.8678C3.1277 21.4001 2.4041 20.6213 1.9961 19.6985C1.5347 18.6665 1.4039 17.5268 1.3274 16.4102C1.2707 15.5108 1.2593 14.6093 1.253 13.7084C1.2506 12.3791 1.2458 11.0501 1.2578 9.72115C1.2683 8.87245 1.2881 8.02285 1.3577 7.17655C1.4147 6.50755 1.5035 5.83825 1.6802 5.18935C1.8326 4.63165 2.0555 4.08925 2.3792 3.60865C2.8259 2.94085 3.4556 2.39875 4.1804 2.05285C4.8461 1.73005 5.5745 1.56025 6.3032 1.45495C7.1597 1.33345 8.0252 1.29565 8.8892 1.27225ZM8.8622 2.77375C8.1359 2.79325 7.4087 2.82565 6.6875 2.91685C6.1757 2.98285 5.6645 3.07885 5.1788 3.25675C4.7723 3.40495 4.388 3.62365 4.0712 3.92095C3.7175 4.24705 3.4535 4.66315 3.2825 5.11135C3.0368 5.75125 2.9372 6.43525 2.8694 7.11355C2.7518 8.40865 2.7575 9.71094 2.7509 11.0102C2.7527 12.2 2.7446 13.3901 2.7623 14.5802C2.7758 15.3626 2.7977 16.1456 2.8733 16.925C2.9327 17.5124 3.0191 18.1016 3.2024 18.6644C3.344 19.1018 3.5579 19.5209 3.8645 19.8662C4.1744 20.2211 4.5719 20.495 5.0063 20.6747C5.5895 20.9189 6.2183 21.0275 6.8429 21.1022C8.1563 21.2459 9.4799 21.239 10.7996 21.2492C12.3698 21.2444 13.9409 21.2654 15.5108 21.215C16.2602 21.1871 17.0114 21.1427 17.7521 21.0179C18.2861 20.924 18.8201 20.7872 19.3001 20.5286C19.7291 20.2988 20.1008 19.964 20.3723 19.5599C20.6624 19.1285 20.8322 18.6287 20.9447 18.1247C21.0839 17.4917 21.1436 16.8446 21.1832 16.199C21.2636 14.7407 21.2462 13.2797 21.2495 11.8202C21.2465 10.4192 21.26 9.01645 21.1715 7.61755C21.1295 7.01035 21.0665 6.40255 20.9297 5.80885C20.8202 5.34175 20.6597 4.87975 20.3957 4.47595C20.1149 4.04305 19.7186 3.68695 19.2605 3.45025C18.794 3.20785 18.2798 3.07435 17.7641 2.98435C17.129 2.87485 16.4849 2.82865 15.8417 2.79835C14.9219 2.75755 14.0009 2.75395 13.0805 2.75065C11.6744 2.75395 10.268 2.73955 8.8622 2.77375Z" fill="#4B4B4B"/>
<path opacity="0.5" d="M11.4805 7.69899C11.5951 7.49979 11.8294 7.37679 12.0589 7.40289C12.2878 7.42209 12.4942 7.58739 12.5674 7.80459C12.6064 7.90779 12.5998 8.01969 12.6007 8.12799C13.1947 8.25549 13.762 8.56449 14.1442 9.04359C14.4397 9.40929 14.6077 9.87789 14.5996 10.3489C14.5969 10.546 14.4877 10.7365 14.3206 10.8406C14.1475 10.9528 13.915 10.9642 13.7314 10.8697C13.537 10.7746 13.4035 10.567 13.4011 10.3501C13.4008 10.1887 13.3531 10.0294 13.2679 9.89259C13.0729 9.57249 12.7228 9.37179 12.361 9.30129C11.9854 9.22959 11.5828 9.26559 11.2384 9.43749C10.9552 9.58029 10.7101 9.82719 10.6261 10.1389C10.5604 10.369 10.6246 10.6192 10.7572 10.8133C10.963 11.1199 11.3113 11.3086 11.6698 11.3713C11.8789 11.413 12.0934 11.3902 12.3043 11.416C12.9304 11.482 13.5436 11.7493 13.9876 12.2008C14.3032 12.5179 14.5216 12.9352 14.5801 13.3804C14.653 13.8853 14.5288 14.4157 14.2357 14.8336C13.8577 15.3811 13.2442 15.7351 12.6004 15.8722C12.6088 16.0393 12.592 16.219 12.484 16.3549C12.3613 16.5238 12.1471 16.6207 11.9392 16.597C11.7199 16.5775 11.5207 16.4248 11.4418 16.2199C11.3947 16.1104 11.3989 15.9889 11.3998 15.8722C10.8181 15.7474 10.2628 15.4492 9.88064 14.9872C9.57644 14.6236 9.39913 14.1547 9.40003 13.6798C9.38383 13.3474 9.68715 13.0468 10.0192 13.0669C10.2517 13.0717 10.4716 13.2259 10.5562 13.4425C10.6171 13.5745 10.5856 13.7245 10.6258 13.8616C10.7002 14.1367 10.9018 14.3638 11.1427 14.509C11.4907 14.7199 11.9176 14.7724 12.3148 14.7073C12.6598 14.6497 12.9964 14.4784 13.2088 14.1949C13.3474 14.011 13.4311 13.7746 13.3897 13.5436C13.3351 13.2373 13.1176 12.9817 12.8566 12.8239C12.6007 12.6685 12.2989 12.5998 12.0013 12.6001C11.416 12.6004 10.8292 12.4234 10.3498 12.0859C9.99823 11.8381 9.70663 11.497 9.54613 11.0956C9.31963 10.5364 9.35773 9.87669 9.65143 9.34899C10.0081 8.70099 10.6873 8.27859 11.3998 8.12799C11.395 7.98159 11.4004 7.82679 11.4805 7.69899Z" fill="#4B4B4B"/>
</svg>
