<svg width="24" height="24" viewBox="0 0 24 24" fill="none" xmlns="http://www.w3.org/2000/svg">
<path opacity="0.5" d="M4.59793 6.36645C4.86553 6.19155 5.24293 6.21645 5.48413 6.42675C7.65673 8.28765 9.82723 10.1506 12.0004 12.0109C14.1733 10.1509 16.3435 8.28795 18.5158 6.42735C18.6928 6.27525 18.9433 6.21465 19.1704 6.26925C19.3936 6.31905 19.5874 6.47985 19.6825 6.68715C19.7833 6.90495 19.7707 7.17135 19.648 7.37805C19.5745 7.51065 19.4503 7.60095 19.3381 7.69815C17.0719 9.64095 14.8051 11.5828 12.5392 13.5262C12.2965 13.7719 11.884 13.8259 11.5948 13.6309C11.5129 13.5757 11.4412 13.5073 11.3662 13.444C9.08263 11.4868 6.79933 9.52935 4.51573 7.57245C4.36063 7.44315 4.26283 7.24905 4.25173 7.04775C4.23133 6.77925 4.37053 6.50895 4.59793 6.36645Z" fill="#4B4B4B"/>
<path d="M4.28676 10.7683C4.36716 10.5133 4.59396 10.3105 4.85796 10.2637C5.07366 10.2211 5.30736 10.2793 5.47626 10.4209C7.65126 12.2842 9.82446 14.149 12.0001 16.0117C14.1691 14.1535 16.3375 12.2941 18.5062 10.4353C18.7126 10.2508 19.0243 10.1983 19.2799 10.3042C19.5334 10.4032 19.7212 10.6501 19.7461 10.9216C19.7743 11.17 19.6672 11.4271 19.4722 11.5834C17.1409 13.5808 14.8105 15.5794 12.4795 17.5765C12.2149 17.8069 11.7877 17.8063 11.5225 17.5777C9.18546 15.5758 6.84936 13.573 4.51326 11.5702C4.28436 11.3809 4.19166 11.0491 4.28676 10.7683Z" fill="#4B4B4B"/>
</svg>
