<svg width="24" height="24" viewBox="0 0 24 24" fill="none" xmlns="http://www.w3.org/2000/svg">
<path d="M11.7294 6.30001C11.9847 6.19861 12.2913 6.25441 12.4959 6.43681C14.7519 8.37061 17.0079 10.3041 19.2639 12.2379C19.3791 12.3423 19.5099 12.432 19.605 12.5565C19.7616 12.7656 19.7943 13.0593 19.6884 13.2981C19.5957 13.5147 19.3959 13.6824 19.1649 13.7319C18.9423 13.7829 18.6978 13.7253 18.5229 13.5783C16.3482 11.7153 14.175 9.85081 12 7.98841C9.91201 9.77731 7.82491 11.5671 5.73721 13.3563C5.56051 13.4994 5.40001 13.6875 5.16541 13.7319C4.81801 13.8174 4.43191 13.6143 4.30411 13.281C4.20481 13.0389 4.24501 12.7467 4.40641 12.5409C4.47331 12.4566 4.55941 12.3906 4.64041 12.3207C6.89611 10.3869 9.15211 8.45341 11.4078 6.51991C11.5053 6.43381 11.6052 6.34501 11.7294 6.30001Z" fill="#4B4B4B"/>
<path opacity="0.5" d="M11.6523 10.3356C11.9166 10.1928 12.2652 10.2318 12.4896 10.4322C14.7672 12.3843 17.0448 14.3367 19.3224 16.2891C19.3968 16.3542 19.4757 16.4148 19.5453 16.4853C19.7088 16.6536 19.7805 16.9026 19.7382 17.1327C19.6959 17.3808 19.5183 17.6004 19.2846 17.6937C19.0524 17.7918 18.771 17.76 18.567 17.6121C18.4923 17.5575 18.4251 17.4939 18.3546 17.4345C16.2363 15.6195 14.1192 13.8027 12 11.9886C9.83251 13.8447 7.66651 15.7023 5.50021 17.5593C5.31571 17.7255 5.04661 17.7912 4.80661 17.7249C4.53121 17.6547 4.30861 17.4135 4.26181 17.133C4.21291 16.8747 4.31281 16.596 4.51471 16.4277C6.74971 14.5122 8.98471 12.5964 11.2197 10.6806C11.364 10.566 11.4903 10.4262 11.6523 10.3356Z" fill="#4B4B4B"/>
</svg>
