<svg width="24" height="24" viewBox="0 0 24 24" fill="none" xmlns="http://www.w3.org/2000/svg">
<path d="M12.4164 4.52818C12.543 4.37278 12.7314 4.26928 12.9321 4.25308C13.2081 4.22428 13.491 4.36648 13.6365 4.60198C13.8063 4.86688 13.7826 5.23798 13.578 5.47768C11.715 7.65208 9.85048 9.82498 7.98838 12C9.83758 14.1582 11.6871 16.3161 13.5372 18.4734C13.6536 18.5994 13.7343 18.7605 13.7472 18.933C13.7778 19.2306 13.6092 19.5342 13.3422 19.668C13.0449 19.8255 12.6465 19.7493 12.432 19.4889C10.4796 17.2125 8.52808 14.9349 6.57628 12.6579C6.48028 12.5415 6.36598 12.435 6.30868 12.2922C6.19648 12.0339 6.24838 11.7162 6.43558 11.5056C8.42908 9.17998 10.4226 6.85408 12.4164 4.52818Z" fill="#4B4B4B"/>
<path opacity="0.5" d="M16.5489 4.40009C16.7211 4.26839 16.9527 4.22009 17.1636 4.26809C17.4078 4.32059 17.6184 4.50449 17.703 4.73939C17.7981 4.98629 17.7462 5.28179 17.574 5.48219C15.7128 7.65539 13.8492 9.82619 11.9889 12C13.8486 14.1732 15.7119 16.3434 17.5722 18.516C17.8302 18.8061 17.8017 19.2933 17.5095 19.5498C17.283 19.7682 16.914 19.8129 16.6404 19.6584C16.5114 19.593 16.4199 19.4784 16.329 19.3701C14.3634 17.0766 12.3975 14.7834 10.4319 12.4899C10.1916 12.222 10.1898 11.7801 10.4304 11.5119C12.3966 9.21749 14.3631 6.92369 16.3293 4.62959C16.3986 4.54949 16.4637 4.46399 16.5489 4.40009Z" fill="#4B4B4B"/>
</svg>
