<svg width="24" height="24" viewBox="0 0 24 24" fill="none" xmlns="http://www.w3.org/2000/svg">
<path opacity="0.5" d="M4.59781 6.36657C4.86541 6.19167 5.24281 6.21657 5.48401 6.42687C7.65661 8.28777 9.82711 10.1508 12.0003 12.0111C14.1732 10.1511 16.3434 8.28807 18.5157 6.42747C18.6927 6.27537 18.9432 6.21477 19.1703 6.26937C19.3935 6.31917 19.5873 6.47997 19.6824 6.68727C19.7832 6.90507 19.7706 7.17147 19.6479 7.37817C19.5744 7.51077 19.4502 7.60107 19.338 7.69827C17.0718 9.64107 14.805 11.583 12.5391 13.5264C12.2964 13.7721 11.8839 13.8261 11.5947 13.6311C11.5128 13.5759 11.4411 13.5075 11.3661 13.4442C9.08251 11.487 6.79921 9.52947 4.51561 7.57257C4.36051 7.44327 4.26271 7.24917 4.25161 7.04787C4.23121 6.77937 4.37041 6.50907 4.59781 6.36657Z" fill="#4B4B4B"/>
<path d="M4.2867 10.7682C4.3671 10.5132 4.5939 10.3104 4.8579 10.2636C5.0736 10.221 5.3073 10.2792 5.4762 10.4208C7.6512 12.2841 9.8244 14.1489 12 16.0116C14.169 14.1534 16.3374 12.294 18.5061 10.4352C18.7125 10.2507 19.0242 10.1982 19.2798 10.3041C19.5333 10.4031 19.7211 10.65 19.746 10.9215C19.7742 11.1699 19.6671 11.427 19.4721 11.5833C17.1408 13.5807 14.8104 15.5793 12.4794 17.5764C12.2148 17.8068 11.7876 17.8062 11.5224 17.5776C9.1854 15.5757 6.8493 13.5729 4.5132 11.5701C4.2843 11.3808 4.1916 11.049 4.2867 10.7682Z" fill="#4B4B4B"/>
</svg>
