<svg width="24" height="24" viewBox="0 0 24 24" fill="none" xmlns="http://www.w3.org/2000/svg">
<path opacity="0.5" d="M6.49107 4.44932C6.71817 4.23122 7.08747 4.18772 7.36077 4.34252C7.49607 4.41152 7.58937 4.53482 7.68567 4.64792C9.64677 6.93572 11.6076 9.22382 13.5687 11.5113C13.8081 11.7792 13.8093 12.2202 13.5693 12.4881C11.5656 14.8254 9.56217 17.1633 7.55817 19.5006C7.28667 19.8228 6.74037 19.8321 6.45837 19.5186C6.19437 19.2561 6.17997 18.7941 6.42687 18.516C8.28777 16.3434 10.1505 14.1726 12.0114 11.9997C10.1922 9.87512 8.37057 7.75262 6.55077 5.62862C6.45747 5.51882 6.35157 5.41292 6.30117 5.27462C6.18777 4.99472 6.26547 4.65062 6.49107 4.44932Z" fill="#4B4B4B"/>
<path d="M10.7697 4.2861C11.0496 4.1925 11.3802 4.2843 11.5686 4.5117C13.5216 6.7887 15.4731 9.0669 17.4255 11.3442C17.5209 11.4594 17.6334 11.5656 17.691 11.7066C17.8035 11.9652 17.7516 12.2838 17.5644 12.4944C15.6075 14.7774 13.6506 17.0604 11.694 19.3434C11.6286 19.4184 11.5671 19.4976 11.493 19.5648C11.331 19.71 11.1024 19.7748 10.8879 19.7415C10.6518 19.7079 10.4373 19.5525 10.3305 19.3395C10.2285 19.1394 10.2228 18.8934 10.3173 18.6894C10.3689 18.5682 10.464 18.4749 10.5477 18.3759C12.3687 16.2504 14.1912 14.1261 16.0116 12C14.1528 9.8304 12.2931 7.6617 10.434 5.4924C10.2834 5.3214 10.2186 5.0799 10.2639 4.8567C10.3122 4.593 10.5141 4.3656 10.7697 4.2861Z" fill="#4B4B4B"/>
</svg>
