<svg width="24" height="24" viewBox="0 0 24 24" fill="none" xmlns="http://www.w3.org/2000/svg">
<path d="M11.7294 6.30013C11.9847 6.19873 12.2913 6.25453 12.4959 6.43693C14.7519 8.37073 17.0079 10.3042 19.2639 12.238C19.3791 12.3424 19.5099 12.4321 19.605 12.5566C19.7616 12.7657 19.7943 13.0594 19.6884 13.2982C19.5957 13.5148 19.3959 13.6825 19.1649 13.732C18.9423 13.783 18.6978 13.7254 18.5229 13.5784C16.3482 11.7154 14.175 9.85093 12 7.98853C9.91201 9.77743 7.82491 11.5672 5.73721 13.3564C5.56051 13.4995 5.40001 13.6876 5.16541 13.732C4.81801 13.8175 4.43191 13.6144 4.30411 13.2811C4.20481 13.039 4.24501 12.7468 4.40641 12.541C4.47331 12.4567 4.55941 12.3907 4.64041 12.3208C6.89611 10.387 9.15211 8.45353 11.4078 6.52003C11.5053 6.43393 11.6052 6.34513 11.7294 6.30013Z" fill="#4B4B4B"/>
<path opacity="0.5" d="M11.6523 10.3354C11.9166 10.1926 12.2652 10.2316 12.4896 10.432C14.7672 12.3841 17.0448 14.3365 19.3224 16.2889C19.3968 16.354 19.4757 16.4146 19.5453 16.4851C19.7088 16.6534 19.7805 16.9024 19.7382 17.1325C19.6959 17.3806 19.5183 17.6002 19.2846 17.6935C19.0524 17.7916 18.771 17.7598 18.567 17.6119C18.4923 17.5573 18.4251 17.4937 18.3546 17.4343C16.2363 15.6193 14.1192 13.8025 12 11.9884C9.83248 13.8445 7.66648 15.7021 5.50018 17.5591C5.31568 17.7253 5.04658 17.791 4.80658 17.7247C4.53118 17.6545 4.30858 17.4133 4.26178 17.1328C4.21288 16.8745 4.31278 16.5958 4.51468 16.4275C6.74968 14.512 8.98468 12.5962 11.2197 10.6804C11.364 10.5658 11.4903 10.426 11.6523 10.3354Z" fill="#4B4B4B"/>
</svg>
