<svg width="24" height="24" viewBox="0 0 24 24" fill="none" xmlns="http://www.w3.org/2000/svg">
<path d="M12.4164 4.5283C12.543 4.3729 12.7314 4.2694 12.9321 4.2532C13.2081 4.2244 13.491 4.3666 13.6365 4.6021C13.8063 4.867 13.7826 5.2381 13.578 5.4778C11.715 7.6522 9.85054 9.8251 7.98844 12.0001C9.83764 14.1583 11.6871 16.3162 13.5372 18.4735C13.6536 18.5995 13.7343 18.7606 13.7472 18.9331C13.7778 19.2307 13.6092 19.5343 13.3422 19.6681C13.0449 19.8256 12.6465 19.7494 12.432 19.489C10.4796 17.2126 8.52814 14.935 6.57634 12.658C6.48034 12.5416 6.36604 12.4351 6.30874 12.2923C6.19654 12.034 6.24844 11.7163 6.43564 11.5057C8.42914 9.1801 10.4226 6.8542 12.4164 4.5283Z" fill="#4B4B4B"/>
<path opacity="0.5" d="M16.5488 4.40015C16.721 4.26845 16.9526 4.22015 17.1635 4.26815C17.4077 4.32065 17.6183 4.50455 17.7029 4.73945C17.798 4.98635 17.7461 5.28185 17.5739 5.48225C15.7127 7.65545 13.8491 9.82625 11.9888 12.0001C13.8485 14.1733 15.7118 16.3435 17.5721 18.5161C17.8301 18.8062 17.8016 19.2934 17.5094 19.5499C17.2829 19.7683 16.9139 19.813 16.6403 19.6585C16.5113 19.5931 16.4198 19.4785 16.3289 19.3702C14.3633 17.0767 12.3974 14.7835 10.4318 12.49C10.1915 12.2221 10.1897 11.7802 10.4303 11.512C12.3965 9.21755 14.363 6.92375 16.3292 4.62965C16.3985 4.54955 16.4636 4.46405 16.5488 4.40015Z" fill="#4B4B4B"/>
</svg>
