<svg width="24" height="24" viewBox="0 0 24 24" fill="none" xmlns="http://www.w3.org/2000/svg">
<path opacity="0.5" d="M6.49107 4.44938C6.71817 4.23128 7.08747 4.18778 7.36077 4.34258C7.49607 4.41158 7.58937 4.53488 7.68567 4.64798C9.64677 6.93578 11.6076 9.22388 13.5687 11.5114C13.8081 11.7793 13.8093 12.2203 13.5693 12.4882C11.5656 14.8255 9.56217 17.1634 7.55817 19.5007C7.28667 19.8229 6.74037 19.8322 6.45837 19.5187C6.19437 19.2562 6.17997 18.7942 6.42687 18.5161C8.28777 16.3435 10.1505 14.1727 12.0114 11.9998C10.1922 9.87518 8.37057 7.75268 6.55077 5.62868C6.45747 5.51888 6.35157 5.41298 6.30117 5.27468C6.18777 4.99478 6.26547 4.65068 6.49107 4.44938Z" fill="#4B4B4B"/>
<path d="M10.7698 4.28629C11.0497 4.19269 11.3803 4.28449 11.5687 4.51189C13.5217 6.78889 15.4732 9.06709 17.4256 11.3444C17.521 11.4596 17.6335 11.5658 17.6911 11.7068C17.8036 11.9654 17.7517 12.284 17.5645 12.4946C15.6076 14.7776 13.6507 17.0606 11.6941 19.3436C11.6287 19.4186 11.5672 19.4978 11.4931 19.565C11.3311 19.7102 11.1025 19.775 10.888 19.7417C10.6519 19.7081 10.4374 19.5527 10.3306 19.3397C10.2286 19.1396 10.2229 18.8936 10.3174 18.6896C10.369 18.5684 10.4641 18.4751 10.5478 18.3761C12.3688 16.2506 14.1913 14.1263 16.0117 12.0002C14.1529 9.83059 12.2932 7.66189 10.4341 5.49259C10.2835 5.32159 10.2187 5.08009 10.264 4.85689C10.3123 4.59319 10.5142 4.36579 10.7698 4.28629Z" fill="#4B4B4B"/>
</svg>
