<svg width="24" height="24" viewBox="0 0 24 24" fill="none" xmlns="http://www.w3.org/2000/svg">
<g clip-path="url(#clip0_35569_36377)">
<mask id="mask0_35569_36377" style="mask-type:luminance" maskUnits="userSpaceOnUse" x="0" y="0" width="24" height="24">
<path d="M24 0H0V24H24V0Z" fill="white"/>
</mask>
<g mask="url(#mask0_35569_36377)">
<mask id="mask1_35569_36377" style="mask-type:luminance" maskUnits="userSpaceOnUse" x="0" y="0" width="24" height="24">
<path d="M24 0H0V24H24V0Z" fill="white"/>
</mask>
<g mask="url(#mask1_35569_36377)">
<path opacity="0.2" d="M6.5187 3.10711C7.17381 2.97571 7.84372 3.00347 8.50623 3.00347C11.2784 3.01643 14.0525 2.97756 16.8228 3.02198C19.0565 3.10526 20.9774 5.11129 20.9885 7.34125C21.0033 10.478 21.0051 13.6147 20.9866 16.7515C20.9385 18.9333 19.0676 20.8876 16.8802 20.9912C13.6509 21.006 10.4216 20.9986 7.19231 20.9949C4.98641 20.9357 3.047 18.9722 3.00443 16.7663C2.99703 13.6166 3.00073 10.4669 3.00258 7.31719C3.00998 5.31856 4.56633 3.48648 6.5187 3.10711Z" fill="#4B4B4B"/>
<path d="M6.07031 0.828415C9.73219 0.719665 13.3959 0.832164 17.0578 0.787164C18.9984 0.717789 20.9466 1.66091 22.0716 3.24529C22.8066 4.25216 23.2116 5.48966 23.2191 6.73654C23.2341 10.1809 23.2209 13.6272 23.2247 17.0715C23.2341 18.0653 23.0259 19.0647 22.5741 19.9515C21.5953 21.9203 19.4616 23.244 17.2603 23.2272C13.6284 23.2159 9.99469 23.2459 6.36281 23.2122C3.44719 23.0959 0.910311 20.5347 0.788436 17.6247C0.758436 15.7422 0.765935 13.8578 0.78281 11.9753C0.732185 11.1353 2.10469 11.0097 2.24344 11.8328C2.32969 13.7903 2.21906 15.7553 2.29406 17.7128C2.47406 19.9234 4.51969 21.7722 6.73781 21.7272C10.3116 21.7234 13.8872 21.7328 17.4609 21.7234C19.6997 21.6728 21.6666 19.6815 21.7153 17.4484C21.7434 14.0715 21.7134 10.6947 21.7284 7.31779C21.7416 6.55279 21.6984 5.76341 21.3759 5.05466C20.7253 3.41029 19.0228 2.26279 17.2509 2.27966C13.7541 2.26654 10.2553 2.26841 6.75656 2.27779C4.82719 2.25716 2.98406 3.62216 2.45906 5.48216C2.11969 6.48904 2.38594 7.56529 2.20969 8.59279C1.92094 9.23217 0.867185 9.09904 0.79031 8.38654C0.74156 7.11529 0.696561 5.78966 1.18406 4.58779C1.95281 2.55716 3.91219 1.05154 6.07031 0.828415Z" fill="#4B4B4B"/>
<path d="M11.6858 6.35875C12.6112 6.2114 13.5888 6.41913 14.3691 6.93905C14.8801 7.27645 15.3078 7.7395 15.5999 8.2778C15.7848 8.61503 15.9128 8.98218 15.9863 9.35948C16.6063 9.6218 17.1533 10.0544 17.5515 10.5973C17.9004 11.0703 18.1344 11.6277 18.2254 12.2085C18.3332 12.8892 18.2487 13.5999 17.9781 14.2343C17.7321 14.8148 17.3346 15.3293 16.8382 15.7172C16.4341 16.0345 15.9642 16.2676 15.4672 16.3975C15.3494 16.4263 15.2268 16.4673 15.1051 16.4349C14.9132 16.391 14.7667 16.2055 14.7705 16.0083C14.7676 15.8089 14.9184 15.6206 15.1144 15.5823C15.6958 15.4591 16.2367 15.1525 16.639 14.7152C17.0324 14.2922 17.293 13.7469 17.3696 13.1741C17.4584 12.537 17.3215 11.8707 16.9848 11.3223C16.6731 10.8069 16.1942 10.3962 15.6394 10.1627C14.9802 9.88255 14.217 9.85805 13.541 10.0938C13.4577 10.1234 13.366 10.1298 13.2802 10.1071C13.1236 10.0682 12.9946 9.9361 12.9617 9.77773C12.9239 9.61725 12.988 9.43928 13.1184 9.339C13.1959 9.2767 13.2946 9.25325 13.3873 9.22333C13.9102 9.06268 14.4676 9.02068 15.0096 9.09103C14.8276 8.59053 14.5049 8.14253 14.0859 7.81318C13.7197 7.52338 13.2822 7.32423 12.823 7.23865C12.27 7.13435 11.6869 7.19158 11.1662 7.40595C10.6096 7.63293 10.128 8.03858 9.81018 8.54888C9.38878 9.2158 9.27083 10.063 9.48976 10.8206C9.77746 10.9049 10.0536 11.0307 10.3026 11.198C10.4171 11.2742 10.4893 11.4077 10.4928 11.5449C10.4991 11.6985 10.4167 11.8522 10.2849 11.9315C10.1409 12.0226 9.94476 12.0165 9.80581 11.9183C9.41818 11.6621 8.94236 11.5465 8.48018 11.5885C8.00033 11.6291 7.53693 11.844 7.19796 12.1864C6.87718 12.5044 6.66753 12.933 6.61748 13.3822C6.56236 13.8474 6.67681 14.3298 6.93616 14.7199C7.30121 15.2804 7.95308 15.639 8.62211 15.6453C8.74338 15.6395 8.86903 15.6744 8.95898 15.7584C9.09041 15.873 9.13941 16.0699 9.07816 16.233C9.02006 16.4001 8.85188 16.5208 8.67478 16.521C8.06823 16.5256 7.46238 16.3352 6.96696 15.9853C6.54871 15.6917 6.20851 15.2873 5.99431 14.823C5.77136 14.3442 5.68736 13.8031 5.74826 13.2788C5.80671 12.7638 6.00936 12.2668 6.32558 11.8564C6.69501 11.3729 7.21913 11.0097 7.80171 10.8335C8.04933 10.7576 8.30693 10.7161 8.56558 10.7065C8.44956 10.0609 8.50538 9.38433 8.73306 8.7685C8.95443 8.16423 9.33768 7.6212 9.82943 7.20663C10.3549 6.7609 11.0049 6.46393 11.6858 6.35875Z" fill="#4B4B4B"/>
<path d="M11.7511 13.9738C11.8566 13.8991 11.9965 13.8768 12.1205 13.9129C12.2555 13.9503 12.3683 14.0569 12.4135 14.1897C12.4446 14.273 12.4373 14.3633 12.4378 14.4507C12.438 15.2263 12.4376 16.0017 12.438 16.7773C12.5843 16.6322 12.7287 16.485 12.8757 16.3407C13.0251 16.2003 13.2748 16.1929 13.4344 16.3204C13.5667 16.421 13.6325 16.6004 13.5939 16.7624C13.5758 16.8473 13.5298 16.9243 13.4686 16.985C13.0834 17.37 12.6987 17.7553 12.3132 18.14C12.1954 18.2613 12.0059 18.3045 11.8477 18.2439C11.7586 18.2131 11.6902 18.1458 11.6265 18.0795C11.2592 17.7118 10.8912 17.3448 10.5242 16.9766C10.4187 16.8721 10.3725 16.7122 10.4075 16.5676C10.4439 16.4014 10.5872 16.2645 10.7552 16.2364C10.8941 16.2099 11.0443 16.2568 11.1432 16.3578C11.283 16.4978 11.4228 16.6376 11.5626 16.7774C11.5632 15.9609 11.5625 15.1444 11.563 14.3278C11.5633 14.1883 11.6361 14.0522 11.7511 13.9738Z" fill="#4B4B4B"/>
</g>
</g>
</g>
<defs>
<clipPath id="clip0_35569_36377">
<rect width="24" height="24" fill="white"/>
</clipPath>
</defs>
</svg>
