<svg width="24" height="24" viewBox="0 0 24 24" fill="none" xmlns="http://www.w3.org/2000/svg">
<path opacity="0.5" d="M11.5791 3.38209C11.7711 3.24679 12.0276 3.21349 12.2487 3.29119C12.5409 3.38929 12.7542 3.68179 12.7536 3.99049C12.7536 8.70229 12.7536 13.4141 12.7536 18.1259C12.7587 18.1379 12.7689 18.1616 12.774 18.1736C12.51 18.4178 12.2691 18.6884 12.0036 18.929C11.7378 18.6887 11.4978 18.4184 11.2344 18.1745C11.2392 18.1622 11.2488 18.1382 11.2536 18.1259C11.2536 13.4135 11.2533 8.70079 11.2539 3.98809C11.2542 3.74899 11.3817 3.51589 11.5791 3.38209Z" fill="#4B4B4B"/>
<path d="M5.32797 13.6672C5.45367 13.4062 5.74137 13.2349 6.03087 13.2511C6.23547 13.2559 6.42867 13.3558 6.56637 13.5043C8.12007 15.0619 9.68187 16.612 11.2308 18.1744C11.4942 18.4183 11.7342 18.6886 12 18.9289C12.2655 18.6883 12.5064 18.4177 12.7704 18.1735C14.3187 16.6111 15.8805 15.0616 17.4339 13.5037C17.5845 13.3408 17.8041 13.2391 18.0279 13.2511C18.3225 13.2571 18.6003 13.4575 18.7011 13.7338C18.8022 13.9915 18.7434 14.3023 18.555 14.5051C16.5399 16.5205 14.5248 18.5356 12.5094 20.5507C12.2367 20.8162 11.7618 20.8144 11.4894 20.5498C9.51927 18.5794 7.54917 16.6096 5.57907 14.6395C5.49567 14.554 5.40207 14.4751 5.34627 14.3674C5.22507 14.1559 5.21757 13.8844 5.32797 13.6672Z" fill="#4B4B4B"/>
</svg>
