<svg width="24" height="24" viewBox="0 0 24 24" fill="none" xmlns="http://www.w3.org/2000/svg">
<path d="M11.4617 2.32929C13.0481 2.07669 14.7239 2.43279 16.0616 3.32409C16.9376 3.90249 17.6708 4.69629 18.1715 5.61909C18.4886 6.19719 18.7079 6.82659 18.8339 7.47339C19.8968 7.92309 20.8346 8.66469 21.5171 9.59529C22.1153 10.4062 22.5164 11.3617 22.6724 12.3574C22.8572 13.5244 22.7123 14.7427 22.2485 15.8302C21.8267 16.8253 21.1454 17.7073 20.2943 18.3724C19.6016 18.9163 18.7961 19.3159 17.9441 19.5385C17.7422 19.588 17.5319 19.6582 17.3234 19.6027C16.9943 19.5274 16.7432 19.2094 16.7498 18.8713C16.7447 18.5296 17.0033 18.2068 17.3393 18.1411C18.3359 17.9299 19.2632 17.4043 19.9529 16.6546C20.6273 15.9295 21.074 14.9947 21.2054 14.0128C21.3575 12.9205 21.1229 11.7784 20.5457 10.8382C20.0114 9.95469 19.1903 9.25059 18.2393 8.85039C17.1092 8.37009 15.8009 8.32809 14.642 8.73219C14.4992 8.78289 14.342 8.79399 14.195 8.75499C13.9265 8.68839 13.7054 8.46189 13.649 8.19039C13.5842 7.91529 13.694 7.61019 13.9175 7.43829C14.0504 7.33149 14.2196 7.29129 14.3786 7.23999C15.275 6.96459 16.2305 6.89259 17.1596 7.01319C16.8476 6.15519 16.2944 5.38719 15.5762 4.82259C14.9483 4.32579 14.1983 3.98439 13.4111 3.83769C12.4631 3.65889 11.4635 3.75699 10.571 4.12449C9.6167 4.51359 8.7911 5.20899 8.2463 6.08379C7.5239 7.22709 7.3217 8.67939 7.697 9.97809C8.1902 10.1227 8.66361 10.3384 9.09051 10.6252C9.28671 10.7557 9.41061 10.9846 9.4166 11.2198C9.42741 11.4832 9.28611 11.7466 9.06021 11.8825C8.81331 12.0388 8.477 12.0283 8.2388 11.86C7.5743 11.4208 6.7586 11.2225 5.9663 11.2945C5.1437 11.3641 4.3493 11.7325 3.7682 12.3196C3.2183 12.8647 2.8589 13.5994 2.7731 14.3695C2.6786 15.1669 2.8748 15.994 3.3194 16.6627C3.9452 17.6236 5.0627 18.2383 6.2096 18.2491C6.4175 18.2392 6.6329 18.2989 6.7871 18.4429C7.0124 18.6394 7.0964 18.9769 6.9914 19.2565C6.8918 19.543 6.6035 19.75 6.2999 19.7503C5.2601 19.7581 4.2215 19.4317 3.3722 18.832C2.6552 18.3286 2.072 17.6353 1.7048 16.8394C1.3226 16.0186 1.1786 15.091 1.283 14.1922C1.3832 13.3093 1.7306 12.4573 2.2727 11.7538C2.906 10.9249 3.8045 10.3024 4.8032 10.0003C5.2277 9.87009 5.6693 9.79899 6.1127 9.78249C5.9138 8.67579 6.0095 7.51599 6.3998 6.46029C6.7793 5.42439 7.4363 4.49349 8.2793 3.78279C9.1802 3.01869 10.2944 2.50959 11.4617 2.32929Z" fill="#4B4B4B"/>
<path opacity="0.5" d="M11.5732 15.3834C11.7541 15.2553 11.9938 15.2172 12.2065 15.279C12.4378 15.3432 12.6313 15.5259 12.7087 15.7536C12.7621 15.8964 12.7495 16.0512 12.7504 16.2009C12.7507 17.5305 12.7501 18.8598 12.7507 20.1894C13.0015 19.9407 13.249 19.6884 13.501 19.4409C13.7572 19.2003 14.1853 19.1877 14.4589 19.4061C14.6857 19.5786 14.7985 19.8861 14.7322 20.1639C14.7013 20.3094 14.6224 20.4414 14.5174 20.5455C13.8571 21.2055 13.1977 21.8661 12.5368 22.5255C12.3349 22.7334 12.01 22.8075 11.7388 22.7037C11.5861 22.6509 11.4688 22.5354 11.3596 22.4217C10.7299 21.7914 10.099 21.1623 9.46989 20.5311C9.28899 20.352 9.20979 20.0778 9.26979 19.83C9.33219 19.545 9.57789 19.3104 9.86589 19.2621C10.1041 19.2168 10.3615 19.2972 10.531 19.4703C10.7707 19.7103 11.0104 19.95 11.2501 20.1897C11.251 18.7899 11.2498 17.3901 11.2507 15.9903C11.2513 15.7512 11.3761 15.5178 11.5732 15.3834Z" fill="#4B4B4B"/>
</svg>
