<svg width="24" height="24" viewBox="0 0 24 24" fill="none" xmlns="http://www.w3.org/2000/svg">
<path d="M11.7848 2.30064C12.8449 2.18795 13.9316 2.34135 14.9201 2.73993C16.2051 3.25636 17.3123 4.20174 18.0262 5.38847C18.4169 6.03222 18.6845 6.74772 18.8285 7.48639C20.1243 8.03387 21.2308 9.01771 21.9224 10.2428C22.4519 11.1754 22.7376 12.244 22.7432 13.3165C22.7508 14.3026 22.5279 15.2909 22.0884 16.1745C21.5036 17.358 20.5427 18.3495 19.3818 18.9769C18.9671 19.2013 18.5284 19.3813 18.0748 19.5102C17.8557 19.5644 17.6353 19.6485 17.4058 19.6278C17.052 19.5925 16.7558 19.272 16.7448 18.9173C16.7223 18.5695 16.9782 18.2272 17.3194 18.1538C18.2329 17.9629 19.0894 17.5081 19.759 16.8576C20.3542 16.2818 20.8009 15.553 21.0393 14.7594C21.4336 13.4663 21.251 12.0101 20.5438 10.8571C19.8105 9.63425 18.5226 8.76489 17.115 8.53839C16.3642 8.41355 15.5846 8.45809 14.8544 8.6747C14.6819 8.72351 14.5126 8.80763 14.3281 8.78941C13.9988 8.77389 13.7017 8.51342 13.6416 8.18952C13.5838 7.91916 13.6929 7.62203 13.9111 7.45265C14.0362 7.35234 14.1934 7.30937 14.3436 7.26259C15.2485 6.97895 16.215 6.90495 17.1546 7.02596C16.8853 6.28729 16.4377 5.6143 15.8594 5.08167C15.2863 4.55308 14.587 4.16283 13.8366 3.95207C12.8899 3.68531 11.8651 3.70442 10.929 4.00606C9.84888 4.3511 8.8972 5.08077 8.28382 6.03425C7.52985 7.18589 7.31235 8.66862 7.6945 9.99009C8.14638 10.1227 8.58162 10.3146 8.97975 10.5665C9.04385 10.6074 9.10886 10.6475 9.16622 10.6976C9.35493 10.8652 9.4485 11.1331 9.40352 11.3817C9.35988 11.6475 9.16262 11.881 8.90642 11.9658C8.70039 12.0349 8.46354 12.0119 8.27752 11.8979C7.51703 11.3812 6.55231 11.1837 5.64877 11.3477C4.92944 11.4757 4.25173 11.8317 3.74181 12.3558C3.20558 12.8995 2.85559 13.6249 2.77169 14.3845C2.67812 15.1814 2.87583 16.0087 3.32074 16.6765C3.95415 17.646 5.09319 18.2652 6.2527 18.2582C6.46121 18.2555 6.67422 18.332 6.81952 18.4847C7.04153 18.7051 7.09844 19.0702 6.95471 19.348C6.83325 19.5907 6.57143 19.7585 6.29904 19.7594C5.28303 19.767 4.26792 19.4557 3.42961 18.8819C2.83355 18.4757 2.32633 17.9397 1.95452 17.3214C1.55999 16.6684 1.32247 15.9223 1.26489 15.1616C1.19673 14.3057 1.35598 13.4326 1.72599 12.6572C2.07846 11.9136 2.61986 11.2611 3.2834 10.7746C4.09788 10.1711 5.09814 9.82814 6.11077 9.7944C5.96097 8.95946 5.97851 8.0946 6.16385 7.26686C6.46481 5.91031 7.23295 4.66667 8.29934 3.77775C9.27981 2.95316 10.5106 2.43245 11.7848 2.30064Z" fill="#4B4B4B"/>
<path d="M11.2479 15.9921C11.2472 15.6325 11.5436 15.3041 11.901 15.2665C12.2371 15.2166 12.586 15.4291 12.6995 15.7485C12.7605 15.9046 12.7454 16.0751 12.7461 16.2393C12.747 17.5586 12.7448 18.878 12.7472 20.1972C12.9735 19.972 13.1989 19.7458 13.4249 19.5199C13.4998 19.4426 13.5819 19.369 13.6823 19.3263C13.9956 19.1801 14.4034 19.2802 14.6018 19.5667C14.8141 19.8479 14.7873 20.2739 14.5401 20.5254C13.871 21.1972 13.1991 21.8666 12.5291 22.5376C12.3469 22.7218 12.0657 22.7999 11.8145 22.7367C11.6671 22.7027 11.5391 22.6145 11.4341 22.5081C10.7892 21.8628 10.1437 21.2182 9.49903 20.5726C9.34495 20.4318 9.24913 20.2285 9.24733 20.0191C9.24013 19.7586 9.38386 19.504 9.60564 19.3692C9.82517 19.2305 10.1174 19.2235 10.3461 19.3449C10.4865 19.4147 10.5834 19.542 10.6954 19.6475C10.879 19.8312 11.0627 20.0148 11.2465 20.1986C11.2472 18.7963 11.2452 17.3941 11.2479 15.9921Z" fill="#4B4B4B"/>
<path opacity="0.3" d="M10.5185 4.6486C11.3346 4.26037 12.2678 4.12857 13.1603 4.26532C13.8902 4.37464 14.5916 4.66637 15.1836 5.10723C15.6892 5.48309 16.1157 5.96602 16.4223 6.51687C15.7095 6.50787 14.9937 6.59537 14.3097 6.79893C14.1161 6.85696 13.9181 6.9114 13.7438 7.01711C13.4408 7.19796 13.2325 7.5232 13.1842 7.87162C13.1329 8.22071 13.2476 8.58937 13.4876 8.84827C13.7951 9.18926 14.3145 9.33524 14.7483 9.17059C15.6274 8.82937 16.6159 8.79023 17.5235 9.04013C18.2512 9.23919 18.923 9.63304 19.4584 10.1639C19.9312 10.63 20.2974 11.2038 20.5196 11.8295C20.7729 12.5317 20.839 13.2981 20.72 14.0345C20.6156 14.6895 20.361 15.3204 19.9798 15.8634C19.4561 16.6108 18.7017 17.1995 17.8393 17.5034C17.7883 17.5232 17.7431 17.554 17.694 17.5778C17.4392 17.6849 17.1483 17.686 16.9063 17.8268C16.588 18.0041 16.357 18.3318 16.3028 18.6928C16.2765 18.8527 16.29 19.0162 16.3235 19.1741C15.8372 19.1746 15.3509 19.1746 14.8649 19.1737C14.6159 18.9193 14.2555 18.7762 13.8992 18.8073C13.639 18.823 13.3927 18.9357 13.1934 19.1006C13.1909 18.0641 13.1932 17.0279 13.1921 15.9914C13.1889 15.6783 13.0587 15.3672 12.8333 15.149C12.5587 14.8755 12.1452 14.7511 11.7653 14.8269C11.4378 14.8872 11.1434 15.095 10.9698 15.3782C10.8562 15.562 10.795 15.7773 10.7943 15.9934C10.7927 17.0297 10.7927 18.0661 10.793 19.1026C10.6033 18.9443 10.3705 18.8356 10.1238 18.8098C9.78956 18.772 9.44002 18.8824 9.19328 19.1121C9.15774 19.1442 9.11995 19.1836 9.06709 19.175C8.53558 19.1714 8.00407 19.1775 7.47279 19.1721C7.51935 18.8091 7.39901 18.4254 7.13967 18.1644C6.91136 17.9267 6.58027 17.7989 6.25232 17.803C5.8353 17.8054 5.41963 17.7141 5.03792 17.5477C4.97809 17.5214 4.93806 17.466 4.88047 17.4363C4.25022 17.119 3.74435 16.5661 3.47489 15.9147C3.16516 15.1742 3.17461 14.3087 3.49513 13.5734C3.76932 12.9427 4.26641 12.4103 4.8807 12.0999C4.93221 12.0715 4.97337 12.0277 5.02555 12.0009C5.97206 11.5771 7.13292 11.6703 7.99485 12.2495C8.28231 12.4431 8.65592 12.5005 8.98904 12.406C9.33386 12.3111 9.62739 12.0508 9.76527 11.7213C9.9243 11.3565 9.88269 10.9145 9.65933 10.5854C9.57363 10.4563 9.46274 10.3445 9.33408 10.2588C8.94158 9.99428 8.51129 9.78892 8.06548 9.6317C7.89363 8.88538 7.92895 8.0943 8.15208 7.3626C8.51084 6.17745 9.39976 5.17291 10.5185 4.6486Z" fill="#4B4B4B"/>
</svg>
