<svg width="24" height="24" viewBox="0 0 24 24" fill="none" xmlns="http://www.w3.org/2000/svg">
<path d="M11.7847 2.30037C12.8448 2.18768 13.9315 2.34108 14.92 2.73966C16.2051 3.25609 17.3122 4.20147 18.0261 5.3882C18.4168 6.03195 18.6845 6.74745 18.8284 7.48612C20.1242 8.0336 21.2307 9.01744 21.9223 10.2426C22.4518 11.1752 22.7375 12.2438 22.7431 13.3163C22.7507 14.3024 22.5278 15.2907 22.0883 16.1743C21.5035 17.3578 20.5426 18.3493 19.3817 18.9767C18.967 19.2011 18.5284 19.3811 18.0747 19.51C17.8556 19.5642 17.6352 19.6483 17.4057 19.6276C17.0519 19.5923 16.7557 19.2718 16.7447 18.9171C16.7222 18.5693 16.9781 18.227 17.3194 18.1536C18.2328 17.9627 19.0893 17.5079 19.7589 16.8574C20.3541 16.2816 20.8008 15.5528 21.0392 14.7592C21.4335 13.4661 21.2509 12.0099 20.5437 10.8569C19.8105 9.63398 18.5225 8.76462 17.1149 8.53812C16.3641 8.41328 15.5845 8.45782 14.8544 8.67443C14.6818 8.72324 14.5125 8.80736 14.328 8.78914C13.9987 8.77362 13.7016 8.51315 13.6415 8.18925C13.5837 7.91889 13.6928 7.62176 13.911 7.45238C14.0361 7.35207 14.1933 7.3091 14.3435 7.26232C15.2484 6.97868 16.215 6.90468 17.1545 7.02569C16.8852 6.28702 16.4376 5.61403 15.8593 5.0814C15.2862 4.55281 14.5869 4.16256 13.8365 3.9518C12.8898 3.68504 11.865 3.70415 10.9289 4.00579C9.84877 4.35083 8.89709 5.0805 8.28371 6.03398C7.52974 7.18562 7.31223 8.66835 7.69439 9.98982C8.14627 10.1225 8.58151 10.3144 8.97964 10.5663C9.04374 10.6072 9.10875 10.6473 9.1661 10.6974C9.35482 10.865 9.44839 11.1329 9.40341 11.3815C9.35977 11.6473 9.16251 11.8808 8.90631 11.9656C8.70027 12.0347 8.46342 12.0117 8.27741 11.8977C7.51692 11.381 6.5522 11.1835 5.64865 11.3475C4.92933 11.4755 4.25162 11.8315 3.7417 12.3556C3.20547 12.8993 2.85548 13.6247 2.77158 14.3843C2.67801 15.1812 2.87572 16.0085 3.32063 16.6763C3.95403 17.6458 5.09308 18.265 6.25259 18.258C6.4611 18.2553 6.67411 18.3318 6.81941 18.4845C7.04142 18.7049 7.09833 19.07 6.9546 19.3478C6.83313 19.5905 6.57132 19.7583 6.29893 19.7592C5.28292 19.7668 4.26781 19.4555 3.4295 18.8817C2.83343 18.4755 2.32622 17.9395 1.95441 17.3212C1.55988 16.6682 1.32236 15.9221 1.26477 15.1614C1.19662 14.3055 1.35587 13.4324 1.72588 12.657C2.07834 11.9134 2.61975 11.2609 3.28329 10.7744C4.09776 10.1709 5.09803 9.82787 6.11066 9.79413C5.96086 8.95919 5.9784 8.09433 6.16374 7.26659C6.4647 5.91004 7.23283 4.6664 8.29923 3.77748C9.27969 2.95289 10.5105 2.43218 11.7847 2.30037Z" fill="#4B4B4B"/>
<path d="M11.2478 15.992C11.2472 15.6324 11.5436 15.304 11.901 15.2664C12.2371 15.2165 12.5859 15.429 12.6995 15.7484C12.7605 15.9045 12.7454 16.075 12.7461 16.2392C12.747 17.5585 12.7447 18.8779 12.7472 20.1971C12.9735 19.9719 13.1989 19.7457 13.4249 19.5198C13.4998 19.4425 13.5819 19.3689 13.6822 19.3262C13.9956 19.18 14.4034 19.2801 14.6018 19.5666C14.8141 19.8478 14.7873 20.2738 14.5401 20.5253C13.871 21.1971 13.1991 21.8665 12.529 22.5375C12.3468 22.7217 12.0657 22.7998 11.8144 22.7366C11.6671 22.7026 11.5391 22.6144 11.4341 22.508C10.7892 21.8627 10.1437 21.2181 9.499 20.5725C9.34493 20.4317 9.24911 20.2284 9.24731 20.019C9.24011 19.7585 9.38384 19.5039 9.60562 19.3691C9.82515 19.2304 10.1173 19.2234 10.3461 19.3448C10.4864 19.4146 10.5834 19.5419 10.6954 19.6474C10.8789 19.8311 11.0627 20.0147 11.2465 20.1985C11.2472 18.7962 11.2451 17.394 11.2478 15.992Z" fill="#4B4B4B"/>
<path opacity="0.3" d="M10.5184 4.64863C11.3344 4.2604 12.2677 4.1286 13.1602 4.26535C13.8901 4.37467 14.5914 4.6664 15.1834 5.10726C15.6891 5.48312 16.1155 5.96605 16.4221 6.5169C15.7093 6.5079 14.9936 6.5954 14.3096 6.79896C14.1159 6.85699 13.918 6.91143 13.7437 7.01714C13.4407 7.19799 13.2324 7.52323 13.184 7.87165C13.1327 8.22074 13.2475 8.5894 13.4875 8.8483C13.7949 9.18929 14.3143 9.33527 14.7482 9.17062C15.6272 8.8294 16.6158 8.79026 17.5234 9.04016C18.251 9.23922 18.9229 9.63307 19.4582 10.1639C19.931 10.63 20.2972 11.2038 20.5194 11.8295C20.7727 12.5317 20.8388 13.2981 20.7199 14.0345C20.6155 14.6895 20.3609 15.3204 19.9796 15.8634C19.456 16.6108 18.7016 17.1995 17.8392 17.5034C17.7881 17.5232 17.7429 17.554 17.6939 17.5778C17.439 17.6849 17.1482 17.686 16.9062 17.8268C16.5879 18.0041 16.3569 18.3318 16.3027 18.6928C16.2764 18.8527 16.2899 19.0162 16.3234 19.1741C15.8371 19.1746 15.3508 19.1746 14.8647 19.1737C14.6157 18.9193 14.2554 18.7762 13.8991 18.8073C13.6388 18.823 13.3925 18.9357 13.1933 19.1006C13.1908 18.0641 13.193 17.0279 13.1919 15.9914C13.1888 15.6783 13.0585 15.3672 12.8331 15.149C12.5585 14.8755 12.1451 14.7511 11.7652 14.8269C11.4377 14.8872 11.1432 15.095 10.9696 15.3782C10.856 15.562 10.7948 15.7773 10.7942 15.9934C10.7926 17.0297 10.7926 18.0661 10.7928 19.1026C10.6032 18.9443 10.3704 18.8356 10.1236 18.8098C9.78939 18.772 9.43985 18.8824 9.1931 19.1121C9.15757 19.1442 9.11978 19.1836 9.06692 19.175C8.53541 19.1714 8.0039 19.1775 7.47262 19.1721C7.51918 18.8091 7.39884 18.4254 7.1395 18.1644C6.91119 17.9267 6.5801 17.7989 6.25215 17.803C5.83513 17.8054 5.41946 17.7141 5.03775 17.5477C4.97792 17.5214 4.93788 17.466 4.8803 17.4363C4.25005 17.119 3.74418 16.5661 3.47472 15.9147C3.16499 15.1742 3.17443 14.3087 3.49496 13.5734C3.76915 12.9427 4.26624 12.4103 4.88053 12.0999C4.93204 12.0715 4.9732 12.0277 5.02538 12.0009C5.97189 11.5771 7.13275 11.6703 7.99468 12.2495C8.28214 12.4431 8.65575 12.5005 8.98887 12.406C9.33369 12.3111 9.62722 12.0508 9.7651 11.7213C9.92413 11.3565 9.88251 10.9145 9.65916 10.5854C9.57346 10.4563 9.46257 10.3445 9.33391 10.2588C8.94141 9.99431 8.51112 9.78895 8.06531 9.63173C7.89346 8.88541 7.92877 8.09433 8.15191 7.36263C8.51067 6.17748 9.39959 5.17294 10.5184 4.64863Z" fill="#4B4B4B"/>
</svg>
