<svg width="24" height="24" viewBox="0 0 24 24" fill="none" xmlns="http://www.w3.org/2000/svg">
<path d="M11.5869 1.26816C12.5211 1.18566 13.479 1.38546 14.2986 1.84236C15.2478 2.36556 16.0071 3.22356 16.4091 4.23006C16.8516 5.32326 16.8633 6.58266 16.4427 7.68456C16.0653 8.68746 15.3348 9.55116 14.4111 10.0936C13.4178 10.6855 12.204 10.8871 11.0712 10.6594C10.212 10.4911 9.40377 10.0753 8.76417 9.47736C8.06217 8.82666 7.56387 7.95906 7.36047 7.02336C7.16337 6.12696 7.23057 5.17326 7.55757 4.31496C7.90467 3.39546 8.54727 2.59116 9.36597 2.04726C10.0248 1.60566 10.7964 1.33476 11.5869 1.26816ZM11.5356 2.78316C10.9455 2.86686 10.3803 3.11856 9.92277 3.50076C9.36867 3.95916 8.97357 4.60686 8.82327 5.31066C8.66817 6.02376 8.76027 6.78906 9.08667 7.44216C9.41577 8.10996 9.98157 8.65656 10.6602 8.96196C11.2911 9.24966 12.0156 9.32406 12.6927 9.17616C13.3734 9.03006 14.0019 8.65536 14.4564 8.12826C14.7858 7.74906 15.0261 7.29246 15.1494 6.80556C15.3195 6.14046 15.2733 5.42196 15.0153 4.78566C14.7084 4.01706 14.0949 3.37806 13.3404 3.03876C12.7797 2.78316 12.1452 2.69586 11.5356 2.78316Z" fill="#4B4B4B"/>
<path d="M20.4334 11.7547C20.6622 11.7236 20.8977 11.7619 21.1103 11.8501C21.3425 11.9451 21.5482 12.0946 21.7322 12.2634C21.9 12.4206 22.056 12.5923 22.1803 12.7865C22.3049 12.9794 22.3962 13.1971 22.4249 13.4261C22.455 13.6578 22.4157 13.8956 22.3251 14.11C22.2333 14.3262 22.0944 14.5193 21.9372 14.6925C21.8164 14.8219 21.6877 14.9437 21.5637 15.07C20.6358 15.9978 19.708 16.9257 18.7801 17.8536C18.6864 17.9451 18.5998 18.0456 18.4896 18.1182C18.3057 18.2417 18.097 18.3364 17.8754 18.3627C17.538 18.4106 17.2008 18.459 16.8636 18.5072C16.7399 18.5241 16.6156 18.5482 16.49 18.5391C16.2606 18.5279 16.0329 18.4326 15.8759 18.2628C15.6824 18.0604 15.6072 17.7641 15.6477 17.4906C15.7018 17.1032 15.7574 16.716 15.8134 16.3288C15.8498 16.0112 16.0021 15.7079 16.235 15.4886C17.2024 14.5188 18.1715 13.5506 19.1402 12.582C19.3122 12.4133 19.4757 12.2342 19.6695 12.0894C19.8924 11.9199 20.1527 11.7892 20.4334 11.7547ZM20.1728 12.5276C19.9483 12.6679 19.7724 12.8686 19.5852 13.0525C19.6957 13.3457 19.8571 13.6198 20.061 13.8578C20.3446 14.1897 20.7178 14.442 21.1276 14.5914C21.2736 14.4411 21.4321 14.3017 21.5609 14.1355C21.6708 13.9935 21.765 13.8301 21.784 13.6485C21.8032 13.463 21.7313 13.2814 21.6312 13.1286C21.5055 12.9396 21.3449 12.7755 21.1688 12.6332C21.0209 12.517 20.8503 12.4175 20.6603 12.3958C20.488 12.3755 20.3169 12.4369 20.1728 12.5276ZM16.6656 15.9713C16.529 16.1062 16.4578 16.2943 16.4448 16.4836C16.3931 16.8461 16.3412 17.2087 16.2894 17.5713C16.2793 17.6421 16.2828 17.7183 16.3195 17.7815C16.3475 17.8318 16.398 17.8671 16.4533 17.8813C16.5245 17.9023 16.5994 17.8922 16.6714 17.8809C17.0565 17.8254 17.4417 17.7713 17.8267 17.7153C17.987 17.6816 18.1372 17.5955 18.2461 17.4729C19.0396 16.6785 19.8339 15.8851 20.6275 15.0911C19.9597 14.7725 19.4027 14.2236 19.0791 13.5579C18.2743 14.3621 17.4706 15.1673 16.6656 15.9713Z" fill="#4B4B4B"/>
<path opacity="0.5" d="M20.2889 12.7347C20.4124 12.6642 20.556 12.6033 20.7008 12.6333C20.865 12.6689 21.005 12.7711 21.1284 12.8808C21.2688 13.0096 21.3938 13.1576 21.4879 13.3237C21.5676 13.4579 21.572 13.6305 21.5077 13.7717C21.4816 13.8265 21.4569 13.8824 21.4226 13.9326C21.3086 14.0892 21.1679 14.2233 21.031 14.3597C20.6459 14.2288 20.3086 13.9701 20.072 13.6404C19.9639 13.4895 19.8718 13.3247 19.8175 13.1466C19.9521 12.9863 20.109 12.8427 20.2889 12.7347Z" fill="#4B4B4B"/>
<path opacity="0.5" fill-rule="evenodd" clip-rule="evenodd" d="M15.9745 14.3853C15.802 14.3251 15.628 14.2697 15.4534 14.2185C14.1544 13.8444 12.793 13.7082 11.4445 13.7616C10.3219 13.8078 9.20109 13.9904 8.13429 14.3475C7.27419 14.6412 6.4357 15.0453 5.74599 15.6456C5.35899 15.9885 5.0188 16.4052 4.85169 16.9005C4.78059 17.1093 4.74669 17.33 4.74999 17.5506L4.75081 17.6581C4.75316 17.9827 4.75553 18.3078 4.78659 18.6312C4.8238 19.0311 4.91379 19.4433 5.15769 19.7718C5.43279 20.1441 5.84949 20.3784 6.27039 20.5506C6.92439 20.8119 7.62099 20.9454 8.3155 21.0444C9.65559 21.2241 11.0104 21.2552 12.3607 21.2487C13.6351 21.2349 14.9146 21.1824 16.1734 20.9685C16.8277 20.8506 17.4856 20.6952 18.0808 20.3898C18.4621 20.193 18.8167 19.9055 18.9997 19.5087C19.1066 19.2804 19.1645 19.0376 19.1975 18.7899L20.7392 17.2171C20.7478 17.3175 20.7519 17.4182 20.7514 17.5191C20.7523 18.1728 20.7526 18.8361 20.5933 19.4748C20.4721 19.9719 20.2459 20.4474 19.9117 20.8368C19.552 21.2621 19.0813 21.5807 18.5797 21.8163C17.6629 22.2414 16.6588 22.4319 15.6628 22.56C14.1802 22.74 12.6838 22.7646 11.1922 22.743C9.79779 22.713 8.39589 22.6344 7.02939 22.3398C6.13689 22.14 5.23629 21.8403 4.51749 21.2559C4.05909 20.8851 3.70659 20.3862 3.51399 19.8288C3.24205 19.0632 3.24666 18.2388 3.25115 17.4366L3.25119 17.43C3.26259 16.7034 3.52809 15.9951 3.94929 15.4077C4.60659 14.4879 5.56689 13.8297 6.57999 13.3548C8.14629 12.6309 9.87459 12.3054 11.5927 12.2552C12.9952 12.219 14.407 12.3693 15.7603 12.7458C16.2247 12.8766 16.6837 13.034 17.1284 13.2237L15.9745 14.3853Z" fill="#4B4B4B"/>
</svg>
