<svg width="24" height="24" viewBox="0 0 24 24" fill="none" xmlns="http://www.w3.org/2000/svg">
<path d="M8.89093 1.27227C9.92683 1.24677 10.963 1.25067 11.9989 1.25007C12.2059 1.24707 12.4096 1.33767 12.5503 1.48887C12.7363 1.68567 12.8002 1.98717 12.7102 2.24277C12.616 2.52927 12.3334 2.74197 12.031 2.74857C10.6015 2.75517 9.17083 2.73657 7.74313 2.81997C7.09963 2.86107 6.45463 2.92287 5.82463 3.06657C5.35153 3.17607 4.88353 3.33747 4.47493 3.60507C4.04833 3.88197 3.69643 4.27137 3.46003 4.72137C3.22063 5.17497 3.08623 5.67537 2.99503 6.17757C2.86453 6.91137 2.81833 7.65687 2.78863 8.40027C2.74153 9.72957 2.75293 11.0598 2.75113 12.3894C2.75083 13.3854 2.75083 14.3817 2.78113 15.3774C2.80663 16.1433 2.84743 16.911 2.96863 17.6688C3.05683 18.2016 3.18553 18.7347 3.43003 19.2195C3.63553 19.6302 3.93433 19.9944 4.30063 20.2716C4.69903 20.5761 5.17243 20.7657 5.65453 20.8908C6.28633 21.0534 6.93763 21.1224 7.58713 21.1689C9.04573 21.2628 10.5085 21.2454 11.9695 21.249C13.4302 21.2457 14.8924 21.2628 16.3513 21.1731C16.9693 21.1314 17.5885 21.0684 18.1933 20.9286C18.6739 20.8164 19.1491 20.649 19.5604 20.3712C19.9708 20.0964 20.3098 19.7172 20.5396 19.2801C20.7853 18.816 20.9203 18.3027 21.0118 17.7885C21.1411 17.046 21.1858 16.2921 21.2143 15.54C21.2527 14.4198 21.2497 13.2984 21.2497 12.1779C21.2506 12.0576 21.2422 11.9358 21.2728 11.8182C21.3325 11.5677 21.532 11.3568 21.7789 11.2836C21.9952 11.2137 22.2421 11.2527 22.4278 11.3832C22.6363 11.5245 22.7611 11.7771 22.7503 12.0288C22.7455 13.5705 22.7653 15.1146 22.6561 16.6536C22.5739 17.6961 22.4311 18.7566 21.9958 19.7178C21.5866 20.6316 20.8669 21.4029 19.9789 21.8664C19.0642 22.3491 18.0271 22.527 17.008 22.6254C15.6127 22.7508 14.2102 22.7442 12.8107 22.749C11.1715 22.7442 9.53113 22.7697 7.89343 22.6899C7.16743 22.6509 6.44053 22.5885 5.72713 22.446C5.08153 22.3161 4.44343 22.1145 3.87133 21.7836C3.12373 21.3549 2.50543 20.7057 2.11303 19.9386C1.80823 19.3515 1.62913 18.708 1.51363 18.0591C1.28803 16.7424 1.27513 15.4014 1.25593 14.0691C1.24843 12.6294 1.24693 11.1897 1.25803 9.74997C1.26913 8.84877 1.28923 7.94637 1.36933 7.04817C1.43203 6.37137 1.52953 5.69427 1.72303 5.04117C1.88713 4.48767 2.12653 3.95247 2.46613 3.48387C2.94973 2.80917 3.62623 2.27967 4.38973 1.95687C5.07163 1.66407 5.80543 1.51557 6.53863 1.42317C7.31893 1.32717 8.10553 1.29237 8.89093 1.27227Z" fill="#4B4B4B"/>
<path opacity="0.5" d="M18.1343 1.27932C18.6647 1.21212 19.2083 1.30572 19.6991 1.51332C20.255 1.74552 20.7455 2.11122 21.1823 2.52222C21.6098 2.93052 22.001 3.38382 22.2923 3.90042C22.5401 4.34112 22.7093 4.83222 22.7396 5.33922C22.775 5.87712 22.652 6.41922 22.418 6.90312C22.1738 7.41012 21.8222 7.85802 21.4328 8.26122C18.9632 10.7314 16.493 13.201 14.0231 15.6712C13.7168 15.9961 13.3247 16.2283 12.9161 16.4008C12.6911 16.4935 12.4553 16.5622 12.2135 16.5916C11.2976 16.7221 10.3817 16.8532 9.46577 16.984C9.02357 17.0467 8.56007 16.9966 8.15387 16.8055C7.75487 16.6216 7.42097 16.3003 7.22357 15.9076C7.02407 15.5191 6.95897 15.0694 7.00757 14.6374C7.14617 13.6423 7.28927 12.6475 7.43357 11.653C7.54997 11.0653 7.83317 10.5067 8.24297 10.069C10.5419 7.76832 12.8426 5.46912 15.1421 3.16902C15.5144 2.80152 15.8711 2.41482 16.2881 2.09592C16.8233 1.67892 17.453 1.35672 18.1343 1.27932ZM17.45 3.10812C16.9574 3.42792 16.5683 3.87312 16.1519 4.28022C15.7691 4.66212 15.3869 5.04462 15.0047 5.42712C13.1489 7.28262 11.2934 9.13872 9.43757 10.9942C9.12947 11.2768 8.92487 11.6755 8.88467 12.0922C8.76497 12.9307 8.64527 13.7695 8.52527 14.608C8.50547 14.7481 8.47787 14.8903 8.50037 15.0322C8.52017 15.184 8.59787 15.3355 8.73257 15.4159C8.89397 15.5158 9.09377 15.5236 9.27707 15.496C10.1837 15.3664 11.0903 15.2362 11.9969 15.1075C12.2582 15.0763 12.4991 14.9557 12.7187 14.8168C12.8591 14.7307 12.9662 14.6041 13.0832 14.4904C14.9147 12.6589 16.7462 10.8277 18.5774 8.99622C18.959 8.61432 19.3412 8.23302 19.7222 7.85082C20.0897 7.47342 20.4902 7.12332 20.7995 6.69402C21.041 6.35952 21.2387 5.96952 21.2444 5.54862C21.2498 5.12322 21.0629 4.72212 20.8241 4.37952C20.5451 3.98472 20.2028 3.63672 19.8284 3.33192C19.4738 3.05112 19.0622 2.80812 18.6032 2.76552C18.1913 2.72562 17.7887 2.88522 17.45 3.10812Z" fill="#4B4B4B"/>
<path d="M15 5.42815C15.3822 5.04565 15.7644 4.66315 16.1472 4.28125C16.4028 4.98475 16.7901 5.64055 17.2875 6.20035C17.943 6.94255 18.7878 7.51285 19.7175 7.85185C19.3365 8.23405 18.9543 8.61535 18.5727 8.99725C17.0148 8.27065 15.729 6.98455 15 5.42815Z" fill="#4B4B4B"/>
</svg>
