<svg width="24" height="24" viewBox="0 0 24 24" fill="none" xmlns="http://www.w3.org/2000/svg">
<path d="M11.5869 1.26816C12.5211 1.18566 13.479 1.38546 14.2986 1.84236C15.2478 2.36556 16.0071 3.22356 16.4091 4.23006C16.8516 5.32326 16.8633 6.58266 16.4427 7.68456C16.0653 8.68746 15.3348 9.55116 14.4111 10.0936C13.4178 10.6855 12.204 10.8871 11.0712 10.6594C10.212 10.4911 9.40377 10.0753 8.76417 9.47736C8.06217 8.82666 7.56387 7.95906 7.36047 7.02336C7.16337 6.12696 7.23057 5.17326 7.55757 4.31496C7.90467 3.39546 8.54727 2.59116 9.36597 2.04726C10.0248 1.60566 10.7964 1.33476 11.5869 1.26816ZM11.5356 2.78316C10.9455 2.86686 10.3803 3.11856 9.92277 3.50076C9.36867 3.95916 8.97357 4.60686 8.82327 5.31066C8.66817 6.02376 8.76027 6.78906 9.08667 7.44216C9.41577 8.10996 9.98157 8.65656 10.6602 8.96196C11.2911 9.24966 12.0156 9.32406 12.6927 9.17616C13.3734 9.03006 14.0019 8.65536 14.4564 8.12826C14.7858 7.74906 15.0261 7.29246 15.1494 6.80556C15.3195 6.14046 15.2733 5.42196 15.0153 4.78566C14.7084 4.01706 14.0949 3.37806 13.3404 3.03876C12.7797 2.78316 12.1452 2.69586 11.5356 2.78316Z" fill="#4B4B4B"/>
<path d="M20.4333 11.7548C20.6621 11.7237 20.8976 11.762 21.1102 11.8502C21.3424 11.9452 21.5481 12.0947 21.7321 12.2635C21.8999 12.4207 22.0559 12.5924 22.1802 12.7866C22.3048 12.9795 22.3961 13.1972 22.4248 13.4262C22.4549 13.6579 22.4156 13.8957 22.325 14.1101C22.2332 14.3263 22.0943 14.5194 21.9371 14.6926C21.8163 14.822 21.6876 14.9438 21.5636 15.0701C20.6357 15.9979 19.7079 16.9258 18.78 17.8537C18.6863 17.9452 18.5997 18.0457 18.4895 18.1183C18.3056 18.2418 18.0969 18.3365 17.8753 18.3628C17.5379 18.4107 17.2007 18.4591 16.8635 18.5073C16.7398 18.5242 16.6155 18.5483 16.4899 18.5392C16.2605 18.528 16.0328 18.4327 15.8758 18.2629C15.6823 18.0605 15.6071 17.7642 15.6476 17.4907C15.7017 17.1033 15.7573 16.7161 15.8133 16.3289C15.8497 16.0113 16.002 15.708 16.2349 15.4887C17.2023 14.5189 18.1714 13.5507 19.1401 12.5821C19.3121 12.4134 19.4756 12.2343 19.6694 12.0895C19.8923 11.92 20.1526 11.7893 20.4333 11.7548ZM20.1727 12.5277C19.9482 12.668 19.7723 12.8687 19.5851 13.0526C19.6956 13.3458 19.857 13.6199 20.0609 13.8579C20.3445 14.1898 20.7177 14.4421 21.1275 14.5915C21.2735 14.4412 21.432 14.3018 21.5608 14.1356C21.6707 13.9936 21.7649 13.8302 21.7839 13.6486C21.8031 13.4631 21.7312 13.2815 21.6311 13.1287C21.5054 12.9397 21.3448 12.7756 21.1687 12.6333C21.0208 12.5171 20.8502 12.4176 20.6602 12.3959C20.4879 12.3756 20.3168 12.437 20.1727 12.5277ZM16.6655 15.9714C16.5289 16.1063 16.4577 16.2944 16.4447 16.4837C16.393 16.8462 16.3411 17.2088 16.2893 17.5714C16.2792 17.6422 16.2827 17.7184 16.3194 17.7816C16.3474 17.8319 16.3979 17.8672 16.4532 17.8814C16.5244 17.9024 16.5993 17.8923 16.6713 17.881C17.0564 17.8255 17.4416 17.7714 17.8266 17.7154C17.9869 17.6817 18.1371 17.5956 18.246 17.473C19.0395 16.6786 19.8338 15.8852 20.6274 15.0912C19.9596 14.7726 19.4026 14.2237 19.079 13.558C18.2742 14.3622 17.4705 15.1674 16.6655 15.9714Z" fill="#4B4B4B"/>
<path opacity="0.5" d="M20.2889 12.7347C20.4123 12.6642 20.5559 12.6033 20.7008 12.6333C20.8649 12.6689 21.005 12.7711 21.1283 12.8808C21.2688 13.0096 21.3937 13.1576 21.4878 13.3237C21.5675 13.4579 21.5719 13.6305 21.5076 13.7717C21.4816 13.8265 21.4569 13.8824 21.4226 13.9326C21.3085 14.0892 21.1678 14.2233 21.031 14.3597C20.6459 14.2288 20.3085 13.9701 20.0719 13.6404C19.9638 13.4895 19.8718 13.3247 19.8174 13.1466C19.952 12.9863 20.1089 12.8427 20.2889 12.7347Z" fill="#4B4B4B"/>
<path opacity="0.5" fill-rule="evenodd" clip-rule="evenodd" d="M15.9745 14.3853C15.802 14.3251 15.628 14.2697 15.4534 14.2185C14.1544 13.8444 12.793 13.7082 11.4445 13.7616C10.3219 13.8078 9.20109 13.9905 8.13429 14.3475C7.27419 14.6412 6.43569 15.0453 5.74599 15.6456C5.35899 15.9885 5.01879 16.4052 4.85169 16.9005C4.78059 17.1093 4.74669 17.3301 4.74999 17.5506C4.75029 17.5864 4.75055 17.6222 4.75081 17.658C4.75316 17.9826 4.75552 18.3077 4.78659 18.6312C4.82379 19.0311 4.91379 19.4433 5.15769 19.7718C5.43279 20.1441 5.84949 20.3784 6.27039 20.5506C6.92439 20.8119 7.62099 20.9454 8.31549 21.0444C9.65559 21.2241 11.0104 21.2553 12.3607 21.2487C13.6351 21.2349 14.9146 21.1824 16.1734 20.9685C16.8277 20.8506 17.4856 20.6952 18.0808 20.3898C18.4621 20.193 18.8167 19.9056 18.9997 19.5087C19.1066 19.2804 19.1645 19.0376 19.1975 18.7899L20.7392 17.2171C20.7478 17.3174 20.7519 17.4182 20.7514 17.5191C20.7523 18.1728 20.7526 18.8361 20.5933 19.4748C20.4721 19.9719 20.2459 20.4474 19.9117 20.8368C19.552 21.2622 19.0813 21.5808 18.5797 21.8163C17.6629 22.2414 16.6588 22.4319 15.6628 22.56C14.1802 22.74 12.6838 22.7646 11.1922 22.743C9.79779 22.713 8.39589 22.6344 7.02939 22.3398C6.13689 22.14 5.23629 21.8403 4.51749 21.2559C4.05909 20.8851 3.70659 20.3862 3.51399 19.8288C3.24205 19.0632 3.24666 18.2389 3.25115 17.4367L3.25119 17.43C3.26259 16.7034 3.52809 15.9951 3.94929 15.4077C4.60659 14.4879 5.56689 13.8297 6.57999 13.3548C8.14629 12.6309 9.87459 12.3054 11.5927 12.2553C12.9952 12.219 14.407 12.3693 15.7603 12.7458C16.2247 12.8766 16.6837 13.034 17.1284 13.2237L15.9745 14.3853Z" fill="#4B4B4B"/>
</svg>
