<svg width="24" height="24" viewBox="0 0 24 24" fill="none" xmlns="http://www.w3.org/2000/svg">
<path d="M10.7446 1.26816C11.6788 1.18566 12.6367 1.38546 13.4563 1.84236C14.4055 2.36556 15.1648 3.22356 15.5668 4.23006C16.0093 5.32326 16.021 6.58266 15.6004 7.68456C15.223 8.68746 14.4925 9.55116 13.5688 10.0936C12.5755 10.6855 11.3617 10.8871 10.2289 10.6594C9.36972 10.4911 8.56149 10.0753 7.92189 9.47736C7.21989 8.82666 6.72159 7.95906 6.51819 7.02336C6.32109 6.12696 6.38829 5.17326 6.71529 4.31496C7.06239 3.39546 7.70499 2.59116 8.52369 2.04726C9.18252 1.60566 9.95412 1.33476 10.7446 1.26816ZM10.6933 2.78316C10.1032 2.86686 9.53802 3.11856 9.08049 3.50076C8.52639 3.95916 8.13129 4.60686 7.98099 5.31066C7.82589 6.02376 7.91799 6.78906 8.24439 7.44216C8.57349 8.10996 9.13929 8.65656 9.81792 8.96196C10.4488 9.24966 11.1733 9.32406 11.8504 9.17616C12.5311 9.03006 13.1596 8.65536 13.6141 8.12826C13.9435 7.74906 14.1838 7.29246 14.3071 6.80556C14.4772 6.14046 14.431 5.42196 14.173 4.78566C13.8661 4.01706 13.2526 3.37806 12.4981 3.03876C11.9374 2.78316 11.3029 2.69586 10.6933 2.78316Z" fill="#4B4B4B"/>
<path d="M19.591 11.7548C19.8198 11.7237 20.0553 11.762 20.2679 11.8502C20.5001 11.9452 20.7058 12.0947 20.8898 12.2635C21.0576 12.4207 21.2136 12.5924 21.3379 12.7866C21.4625 12.9795 21.5538 13.1972 21.5825 13.4262C21.6126 13.6579 21.5733 13.8957 21.4827 14.1101C21.3909 14.3263 21.252 14.5194 21.0948 14.6926C20.974 14.822 20.8453 14.9438 20.7213 15.0701C19.7934 15.9979 18.8656 16.9258 17.9377 17.8537C17.844 17.9452 17.7574 18.0457 17.6472 18.1183C17.4633 18.2418 17.2546 18.3365 17.033 18.3628C16.6956 18.4107 16.3584 18.4591 16.0212 18.5073C15.8975 18.5242 15.7732 18.5483 15.6476 18.5392C15.4182 18.528 15.1905 18.4327 15.0335 18.2629C14.84 18.0605 14.7648 17.7642 14.8053 17.4907C14.8594 17.1033 14.915 16.7161 14.971 16.3289C15.0074 16.0113 15.1597 15.708 15.3926 15.4887C16.36 14.5189 17.3291 13.5507 18.2978 12.5821C18.4698 12.4134 18.6333 12.2343 18.8271 12.0895C19.05 11.92 19.3103 11.7893 19.591 11.7548ZM19.3304 12.5277C19.1059 12.668 18.93 12.8687 18.7428 13.0526C18.8533 13.3458 19.0147 13.6199 19.2186 13.8579C19.5022 14.1898 19.8754 14.4421 20.2852 14.5915C20.4312 14.4412 20.5897 14.3018 20.7185 14.1356C20.8284 13.9936 20.9226 13.8302 20.9416 13.6486C20.9608 13.4631 20.8889 13.2815 20.7888 13.1287C20.6631 12.9397 20.5025 12.7756 20.3264 12.6333C20.1785 12.5171 20.0079 12.4176 19.8179 12.3959C19.6456 12.3756 19.4745 12.437 19.3304 12.5277ZM15.8232 15.9714C15.6866 16.1063 15.6154 16.2944 15.6024 16.4837C15.5507 16.8462 15.4988 17.2088 15.447 17.5714C15.4369 17.6422 15.4404 17.7184 15.4771 17.7816C15.5051 17.8319 15.5556 17.8672 15.6109 17.8814C15.6821 17.9024 15.757 17.8923 15.829 17.881C16.2141 17.8255 16.5993 17.7714 16.9843 17.7154C17.1446 17.6817 17.2948 17.5956 17.4037 17.473C18.1972 16.6786 18.9915 15.8852 19.7851 15.0912C19.1173 14.7726 18.5603 14.2237 18.2367 13.558C17.4319 14.3622 16.6282 15.1674 15.8232 15.9714Z" fill="#4B4B4B"/>
<path opacity="0.5" d="M19.4466 12.7347C19.57 12.6642 19.7136 12.6033 19.8585 12.6333C20.0226 12.6689 20.1627 12.7711 20.286 12.8808C20.4265 13.0096 20.5514 13.1576 20.6455 13.3237C20.7252 13.4579 20.7296 13.6305 20.6653 13.7717C20.6393 13.8265 20.6146 13.8824 20.5803 13.9326C20.4662 14.0892 20.3255 14.2233 20.1887 14.3597C19.8036 14.2288 19.4662 13.9701 19.2296 13.6404C19.1215 13.4895 19.0295 13.3247 18.9751 13.1466C19.1097 12.9863 19.2666 12.8427 19.4466 12.7347Z" fill="#4B4B4B"/>
<path opacity="0.5" fill-rule="evenodd" clip-rule="evenodd" d="M15.1322 14.3853C14.9597 14.3251 14.7857 14.2697 14.6111 14.2185C13.3121 13.8444 11.9507 13.7082 10.6022 13.7616C9.47961 13.8078 8.3588 13.9905 7.292 14.3475C6.4319 14.6412 5.5934 15.0453 4.9037 15.6456C4.5167 15.9885 4.1765 16.4052 4.0094 16.9005C3.9383 17.1093 3.9044 17.3301 3.9077 17.5506C3.908 17.5864 3.90826 17.6222 3.90852 17.658C3.91087 17.9826 3.91323 18.3077 3.9443 18.6312C3.9815 19.0311 4.0715 19.4433 4.3154 19.7718C4.5905 20.1441 5.00721 20.3784 5.4281 20.5506C6.0821 20.8119 6.7787 20.9454 7.4732 21.0444C8.8133 21.2241 10.1681 21.2553 11.5184 21.2487C12.7928 21.2349 14.0723 21.1824 15.3311 20.9685C15.9854 20.8506 16.6433 20.6952 17.2385 20.3898C17.6198 20.193 17.9744 19.9056 18.1574 19.5087C18.2643 19.2804 18.3222 19.0376 18.3552 18.7899L19.8969 17.2171C19.9055 17.3174 19.9096 17.4182 19.9091 17.5191C19.91 18.1728 19.9103 18.8361 19.751 19.4748C19.6298 19.9719 19.4036 20.4474 19.0694 20.8368C18.7097 21.2622 18.239 21.5808 17.7374 21.8163C16.8206 22.2414 15.8165 22.4319 14.8205 22.56C13.3379 22.74 11.8415 22.7646 10.3499 22.743C8.9555 22.713 7.5536 22.6344 6.1871 22.3398C5.2946 22.14 4.394 21.8403 3.6752 21.2559C3.2168 20.8851 2.8643 20.3862 2.6717 19.8288C2.39976 19.0632 2.40437 18.2389 2.40886 17.4367L2.4089 17.43C2.4203 16.7034 2.6858 15.9951 3.107 15.4077C3.7643 14.4879 4.7246 13.8297 5.7377 13.3548C7.304 12.6309 9.0323 12.3054 10.7504 12.2553C12.1529 12.219 13.5647 12.3693 14.918 12.7458C15.3824 12.8766 15.8414 13.034 16.2861 13.2237L15.1322 14.3853Z" fill="#4B4B4B"/>
</svg>
