<svg width="24" height="24" viewBox="0 0 24 24" fill="none" xmlns="http://www.w3.org/2000/svg">
<path d="M8.41629 1.28689C9.60999 1.24489 10.8046 1.2515 11.9989 1.2506C12.2488 1.2461 12.4951 1.38019 12.6295 1.59049C12.757 1.78699 12.7873 2.0447 12.703 2.2643C12.6019 2.5391 12.3262 2.7431 12.0316 2.7485C10.531 2.7569 9.02829 2.7332 7.53009 2.8346C6.90639 2.8799 6.28149 2.9498 5.67429 3.1034C5.20479 3.2234 4.74399 3.404 4.35009 3.69079C3.96129 3.97309 3.64299 4.3508 3.42969 4.781C3.19929 5.237 3.07209 5.7368 2.98419 6.2375C2.85909 6.9704 2.81469 7.71439 2.78649 8.45629C2.74029 9.8273 2.75229 11.1992 2.75019 12.5705C2.75109 13.511 2.75229 14.4518 2.78139 15.392C2.80629 16.1357 2.84589 16.8806 2.96019 17.6168C3.04089 18.1235 3.15699 18.6299 3.37149 19.0985C3.58389 19.5704 3.91569 19.9901 4.33359 20.2967C4.71399 20.5781 5.15919 20.759 5.61429 20.8802C6.25809 21.0509 6.92349 21.1217 7.58649 21.1688C9.08559 21.2663 10.5883 21.2435 12.0895 21.2495C13.5499 21.2459 15.0121 21.2624 16.4704 21.1649C17.0752 21.1211 17.6809 21.0539 18.2713 20.9102C18.739 20.7947 19.2001 20.6234 19.5973 20.3462C20.0161 20.057 20.356 19.6571 20.5807 19.2008C20.797 18.7622 20.9227 18.2852 21.0085 17.8055C21.1384 17.0675 21.1843 16.3181 21.2131 15.5702C21.2548 14.3903 21.2491 13.2098 21.2494 12.0293C21.2464 11.8613 21.2938 11.6918 21.3952 11.5565C21.5692 11.3129 21.8977 11.1947 22.1869 11.273C22.5124 11.3501 22.7566 11.6678 22.7506 12.0017C22.7443 13.571 22.7671 15.1424 22.6516 16.7084C22.5712 17.7023 22.4323 18.7094 22.0339 19.6316C21.628 20.5886 20.8843 21.401 19.9585 21.8768C19.1221 22.3139 18.1813 22.4981 17.251 22.6004C15.955 22.736 14.6503 22.7423 13.3486 22.7477C11.6785 22.7444 10.0075 22.7699 8.33799 22.7093C7.08639 22.6556 5.80929 22.5737 4.62339 22.1369C3.71079 21.8048 2.90199 21.1853 2.36709 20.3723C1.82079 19.5509 1.57239 18.5729 1.44399 17.6057C1.34679 16.8908 1.30449 16.1696 1.28229 15.449C1.24809 14.2892 1.25109 13.1288 1.25049 11.9687C1.25379 10.5989 1.24209 9.2282 1.31169 7.8596C1.35609 7.0634 1.42719 6.2648 1.60599 5.48629C1.75779 4.82479 1.99749 4.17589 2.37789 3.61039C2.85759 2.89009 3.55329 2.3198 4.34619 1.976C4.99359 1.691 5.69079 1.5389 6.38889 1.4429C7.06119 1.3523 7.73889 1.31119 8.41629 1.28689Z" fill="#4B4B4B"/>
<path d="M18.1073 1.28253C18.6377 1.21053 19.1834 1.29933 19.676 1.50363C20.2142 1.72383 20.6909 2.07033 21.1175 2.46153C21.5063 2.82573 21.8678 3.22383 22.1558 3.67383C22.4447 4.12083 22.6562 4.62543 22.7228 5.15613C22.7924 5.69313 22.7015 6.24423 22.4915 6.74103C22.2788 7.24203 21.9569 7.68963 21.5924 8.09103C21.3125 8.39103 21.0143 8.67333 20.7269 8.96583C18.5765 11.1162 16.4261 13.2666 14.2757 15.417C14.0585 15.6291 13.8578 15.8619 13.6025 16.0302C13.1762 16.3164 12.6926 16.536 12.179 16.5969C11.3972 16.7079 10.6157 16.8201 9.83422 16.9317C9.54742 16.971 9.25942 17.0268 8.96842 17.0058C8.43682 16.9797 7.90912 16.7589 7.54522 16.3653C7.09672 15.8964 6.92242 15.2097 7.01632 14.5758C7.14172 13.6779 7.27042 12.7806 7.40032 11.8833C7.48462 11.1471 7.83772 10.4442 8.37742 9.93603C10.6193 7.68843 12.8654 5.44473 15.1103 3.19983C15.509 2.80893 15.8879 2.39373 16.337 2.05833C16.8536 1.66533 17.4569 1.36263 18.1073 1.28253ZM17.5034 3.07383C16.9832 3.39903 16.5755 3.86403 16.1417 4.29033C16.3976 4.96983 16.7717 5.60493 17.2442 6.15663C17.9015 6.92583 18.7664 7.51053 19.7162 7.85673C20.0546 7.50843 20.4218 7.18533 20.7203 6.80013C20.975 6.47103 21.1934 6.09243 21.2375 5.67153C21.2819 5.24163 21.1154 4.82073 20.8832 4.46673C20.5919 4.02873 20.2199 3.64833 19.8116 3.31863C19.469 3.04923 19.0736 2.81853 18.6332 2.76843C18.2339 2.72133 17.8373 2.86353 17.5034 3.07383ZM9.37522 11.0547C9.05872 11.3673 8.89372 11.8032 8.86372 12.2421C8.74372 13.0821 8.62342 13.9224 8.50342 14.7627C8.48002 14.9268 8.48812 15.1035 8.57332 15.2499C8.63812 15.3666 8.75512 15.4482 8.88322 15.4812C9.04822 15.5298 9.22192 15.5064 9.38872 15.4803C10.2812 15.3516 11.174 15.2262 12.0662 15.0966C12.4376 15.0183 12.7859 14.8188 13.0382 14.5347C14.8772 12.6936 16.718 10.8549 18.5573 9.01473C17.0096 8.27643 15.7187 7.00443 14.9687 5.46153C13.1036 7.32543 11.2409 9.19143 9.37522 11.0547Z" fill="#4B4B4B"/>
<path opacity="0.5" d="M6.4229 3.4088C7.0256 3.3053 7.6379 3.2753 8.2484 3.2567C9.1187 3.2336 9.9893 3.2417 10.8599 3.2402C11.4689 3.2414 12.08 3.2312 12.6863 3.299C13.2065 3.3572 13.7246 3.5072 14.1641 3.7979C12.1721 5.7914 10.1786 7.7834 8.186 9.7766C7.6016 10.3238 7.2104 11.0792 7.1222 11.8766C7.0016 12.7082 6.8819 13.5401 6.7652 14.3723C6.7295 14.6405 6.6764 14.9087 6.6917 15.1808C6.7091 15.7412 6.9332 16.2995 7.3388 16.6916C7.8356 17.1839 8.5721 17.3795 9.2561 17.2904C10.097 17.1728 10.937 17.0492 11.7779 16.931C12.0494 16.8875 12.3254 16.8674 12.5915 16.7951C13.0124 16.6763 13.4111 16.4795 13.7663 16.2248C13.988 16.0697 14.1674 15.866 14.3594 15.6779C16.2347 13.8032 18.1085 11.9279 19.9841 10.0538C20.2772 10.4402 20.5172 10.8749 20.624 11.351C20.7797 12.0257 20.7548 12.7235 20.7599 13.4111C20.7581 14.3912 20.7695 15.3722 20.7188 16.3517C20.6894 16.8668 20.6423 17.3831 20.5283 17.8874C20.42 18.3656 20.2433 18.8348 19.9568 19.2359C19.6616 19.6517 19.2608 19.991 18.8024 20.2142C18.2813 20.4707 17.705 20.5877 17.132 20.6552C16.424 20.7347 15.7106 20.7485 14.999 20.7563C13.4795 20.7653 11.9603 20.7569 10.4411 20.7602C9.6899 20.7602 8.9387 20.7626 8.1878 20.7413C7.6073 20.7227 7.0253 20.6921 6.4517 20.5958C5.9765 20.5154 5.504 20.3849 5.0792 20.153C4.5611 19.8737 4.1282 19.4405 3.8477 18.9233C3.6104 18.4862 3.4778 18.0005 3.3977 17.5118C3.305 16.9397 3.275 16.3598 3.2576 15.7811C3.2333 14.9012 3.2414 14.0207 3.2399 13.1405C3.2399 12.2603 3.2399 11.3798 3.2399 10.4996C3.2402 9.7295 3.2363 8.9591 3.2582 8.189C3.2771 7.6064 3.308 7.022 3.4049 6.4466C3.4883 5.9588 3.6239 5.4734 3.8684 5.0402C4.1402 4.5518 4.5506 4.1426 5.0378 3.8693C5.4653 3.6299 5.942 3.4919 6.4229 3.4088Z" fill="#4B4B4B"/>
<path opacity="0.5" d="M17.7723 3.55389C18.0585 3.39039 18.3912 3.24939 18.7269 3.31899C19.1073 3.40149 19.4319 3.63819 19.7178 3.89259C20.0433 4.19109 20.3328 4.53399 20.5509 4.91889C20.7357 5.22999 20.7459 5.62989 20.5968 5.95719C20.5365 6.08409 20.4792 6.21369 20.3997 6.33009C20.1354 6.69309 19.8093 7.00389 19.4922 7.31979C18.5997 7.01649 17.8179 6.41709 17.2695 5.65299C17.019 5.30319 16.8057 4.92129 16.6797 4.50849C16.9917 4.13709 17.3553 3.80409 17.7723 3.55389Z" fill="#4B4B4B"/>
</svg>
