<svg width="24" height="24" viewBox="0 0 24 24" fill="none" xmlns="http://www.w3.org/2000/svg">
<path d="M8.4165 1.2867C9.6102 1.2447 10.8048 1.2513 11.9991 1.2504C12.249 1.2459 12.4953 1.38 12.6297 1.5903C12.7572 1.7868 12.7875 2.0445 12.7032 2.2641C12.6021 2.5389 12.3264 2.7429 12.0318 2.7483C10.5312 2.7567 9.0285 2.733 7.5303 2.8344C6.9066 2.8797 6.2817 2.9496 5.6745 3.1032C5.205 3.2232 4.7442 3.4038 4.3503 3.6906C3.9615 3.9729 3.6432 4.3506 3.4299 4.7808C3.1995 5.2368 3.0723 5.7366 2.9844 6.2373C2.8593 6.9702 2.8149 7.7142 2.7867 8.4561C2.7405 9.8271 2.7525 11.199 2.7504 12.5703C2.7513 13.5108 2.7525 14.4516 2.7816 15.3918C2.8065 16.1355 2.8461 16.8804 2.9604 17.6166C3.0411 18.1233 3.1572 18.6297 3.3717 19.0983C3.5841 19.5702 3.9159 19.9899 4.3338 20.2965C4.7142 20.5779 5.1594 20.7588 5.6145 20.88C6.2583 21.0507 6.9237 21.1215 7.5867 21.1686C9.0858 21.2661 10.5885 21.2433 12.0897 21.2493C13.5501 21.2457 15.0123 21.2622 16.4706 21.1647C17.0754 21.1209 17.6811 21.0537 18.2715 20.91C18.7392 20.7945 19.2003 20.6232 19.5975 20.346C20.0163 20.0568 20.3562 19.6569 20.5809 19.2006C20.7972 18.762 20.9229 18.285 21.0087 17.8053C21.1386 17.0673 21.1845 16.3179 21.2133 15.57C21.255 14.3901 21.2493 13.2096 21.2496 12.0291C21.2466 11.8611 21.294 11.6916 21.3954 11.5563C21.5694 11.3127 21.8979 11.1945 22.1871 11.2728C22.5126 11.3499 22.7568 11.6676 22.7508 12.0015C22.7445 13.5708 22.7673 15.1422 22.6518 16.7082C22.5714 17.7021 22.4325 18.7092 22.0341 19.6314C21.6282 20.5884 20.8845 21.4008 19.9587 21.8766C19.1223 22.3137 18.1815 22.4979 17.2512 22.6002C15.9552 22.7358 14.6505 22.7421 13.3488 22.7475C11.6787 22.7442 10.0077 22.7697 8.3382 22.7091C7.0866 22.6554 5.8095 22.5735 4.6236 22.1367C3.711 21.8046 2.9022 21.1851 2.3673 20.3721C1.821 19.5507 1.5726 18.5727 1.4442 17.6055C1.347 16.8906 1.3047 16.1694 1.2825 15.4488C1.2483 14.289 1.2513 13.1286 1.2507 11.9685C1.254 10.5987 1.2423 9.228 1.3119 7.8594C1.3563 7.0632 1.4274 6.2646 1.6062 5.4861C1.758 4.8246 1.9977 4.1757 2.3781 3.6102C2.8578 2.8899 3.5535 2.3196 4.3464 1.9758C4.9938 1.6908 5.691 1.5387 6.3891 1.4427C7.0614 1.3521 7.7391 1.311 8.4165 1.2867Z" fill="#4B4B4B"/>
<path d="M18.1071 1.2825C18.6375 1.2105 19.1832 1.2993 19.6758 1.5036C20.214 1.7238 20.6907 2.0703 21.1173 2.4615C21.5061 2.8257 21.8676 3.2238 22.1556 3.6738C22.4445 4.1208 22.656 4.6254 22.7226 5.1561C22.7922 5.6931 22.7013 6.2442 22.4913 6.741C22.2786 7.242 21.9567 7.6896 21.5922 8.091C21.3123 8.391 21.0141 8.67329 20.7267 8.96579C18.5763 11.1162 16.4259 13.2666 14.2755 15.417C14.0583 15.6291 13.8576 15.8619 13.6023 16.0302C13.176 16.3164 12.6924 16.536 12.1788 16.5969C11.397 16.7079 10.6155 16.8201 9.83401 16.9317C9.54721 16.971 9.25921 17.0268 8.96821 17.0058C8.43661 16.9797 7.90891 16.7589 7.54501 16.3653C7.09651 15.8964 6.92221 15.2097 7.01611 14.5758C7.14151 13.6779 7.27021 12.7806 7.40011 11.8833C7.48441 11.1471 7.83751 10.4442 8.37721 9.936C10.6191 7.6884 12.8652 5.4447 15.1101 3.1998C15.5088 2.8089 15.8877 2.3937 16.3368 2.0583C16.8534 1.6653 17.4567 1.3626 18.1071 1.2825ZM17.5032 3.0738C16.983 3.399 16.5753 3.864 16.1415 4.29029C16.3974 4.96979 16.7715 5.6049 17.244 6.1566C17.9013 6.9258 18.7662 7.5105 19.716 7.8567C20.0544 7.5084 20.4216 7.1853 20.7201 6.8001C20.9748 6.471 21.1932 6.0924 21.2373 5.6715C21.2817 5.2416 21.1152 4.8207 20.883 4.4667C20.5917 4.0287 20.2197 3.6483 19.8114 3.3186C19.4688 3.0492 19.0734 2.8185 18.633 2.7684C18.2337 2.7213 17.8371 2.8635 17.5032 3.0738ZM9.37501 11.0547C9.05851 11.3673 8.89351 11.8032 8.86351 12.2421C8.74351 13.0821 8.62321 13.9224 8.50321 14.7627C8.47981 14.9268 8.48791 15.1035 8.57311 15.2499C8.63791 15.3666 8.75491 15.4482 8.88301 15.4812C9.04801 15.5298 9.22171 15.5064 9.38851 15.4803C10.281 15.3516 11.1738 15.2262 12.066 15.0966C12.4374 15.0183 12.7857 14.8188 13.038 14.5347C14.877 12.6936 16.7178 10.8549 18.5571 9.01469C17.0094 8.27639 15.7185 7.0044 14.9685 5.4615C13.1034 7.3254 11.2407 9.19139 9.37501 11.0547Z" fill="#4B4B4B"/>
<path opacity="0.5" d="M6.42301 3.4086C7.02571 3.3051 7.63801 3.2751 8.24851 3.2565C9.11881 3.2334 9.98941 3.2415 10.86 3.24C11.469 3.2412 12.0801 3.231 12.6864 3.2988C13.2066 3.357 13.7247 3.507 14.1642 3.7977C12.1722 5.7912 10.1787 7.7832 8.18611 9.7764C7.60171 10.3236 7.21051 11.079 7.12231 11.8764C7.00171 12.708 6.88201 13.5399 6.76531 14.3721C6.72961 14.6403 6.67651 14.9085 6.69181 15.1806C6.70921 15.741 6.93331 16.2993 7.33891 16.6914C7.83571 17.1837 8.57221 17.3793 9.25621 17.2902C10.0971 17.1726 10.9371 17.049 11.778 16.9308C12.0495 16.8873 12.3255 16.8672 12.5916 16.7949C13.0125 16.6761 13.4112 16.4793 13.7664 16.2246C13.9881 16.0695 14.1675 15.8658 14.3595 15.6777C16.2348 13.803 18.1086 11.9277 19.9842 10.0536C20.2773 10.44 20.5173 10.8747 20.6241 11.3508C20.7798 12.0255 20.7549 12.7233 20.76 13.4109C20.7582 14.391 20.7696 15.372 20.7189 16.3515C20.6895 16.8666 20.6424 17.3829 20.5284 17.8872C20.4201 18.3654 20.2434 18.8346 19.9569 19.2357C19.6617 19.6515 19.2609 19.9908 18.8025 20.214C18.2814 20.4705 17.7051 20.5875 17.1321 20.655C16.4241 20.7345 15.7107 20.7483 14.9991 20.7561C13.4796 20.7651 11.9604 20.7567 10.4412 20.76C9.69001 20.76 8.93881 20.7624 8.18791 20.7411C7.60741 20.7225 7.02541 20.6919 6.45181 20.5956C5.97661 20.5152 5.50411 20.3847 5.07931 20.1528C4.56121 19.8735 4.12831 19.4403 3.84781 18.9231C3.61051 18.486 3.47791 18.0003 3.39781 17.5116C3.30511 16.9395 3.27511 16.3596 3.25771 15.7809C3.23341 14.901 3.24151 14.0205 3.24001 13.1403C3.24001 12.2601 3.24001 11.3796 3.24001 10.4994C3.24031 9.7293 3.23641 8.9589 3.25831 8.1888C3.27721 7.6062 3.30811 7.0218 3.40501 6.4464C3.48841 5.9586 3.62401 5.4732 3.86851 5.04C4.14031 4.5516 4.55071 4.1424 5.03791 3.8691C5.46541 3.6297 5.94211 3.4917 6.42301 3.4086Z" fill="#4B4B4B"/>
<path opacity="0.5" d="M17.7723 3.5538C18.0585 3.3903 18.3912 3.2493 18.7269 3.3189C19.1073 3.4014 19.4319 3.6381 19.7178 3.8925C20.0433 4.191 20.3328 4.5339 20.5509 4.9188C20.7357 5.2299 20.7459 5.6298 20.5968 5.9571C20.5365 6.084 20.4792 6.2136 20.3997 6.33C20.1354 6.693 19.8093 7.0038 19.4922 7.3197C18.5997 7.0164 17.8179 6.417 17.2695 5.6529C17.019 5.3031 16.8057 4.9212 16.6797 4.5084C16.9917 4.137 17.3553 3.804 17.7723 3.5538Z" fill="#4B4B4B"/>
</svg>
