<svg width="24" height="24" viewBox="0 0 24 24" fill="none" xmlns="http://www.w3.org/2000/svg">
<path opacity="0.5" d="M15.3956 2.35498C15.8914 2.31764 16.3923 2.41593 16.8473 2.61207C17.4949 2.88918 18.0523 3.33972 18.5399 3.84154C19.0031 4.32064 19.4131 4.86632 19.6551 5.49184C19.8492 5.98871 19.9203 6.53619 19.8351 7.06433C19.7327 7.74249 19.3924 8.36127 18.9655 8.88896C18.7016 9.22275 18.3899 9.51359 18.0914 9.81522C15.7825 12.1241 13.4732 14.433 11.1645 16.7422C10.8138 17.1156 10.3563 17.374 9.8788 17.5485C9.57312 17.6626 9.24585 17.6862 8.92622 17.7355C8.14414 17.8468 7.36251 17.959 6.58043 18.0704C6.15801 18.1282 5.71693 18.0825 5.32532 17.9093C4.90853 17.7283 4.55719 17.3987 4.3534 16.9923C4.14737 16.5901 4.08349 16.1227 4.14377 15.6771C4.26995 14.774 4.39906 13.8714 4.5302 12.969C4.61365 12.2368 4.96409 11.538 5.49829 11.0305C7.94171 8.58598 10.3855 6.14167 12.8305 3.69848C13.3499 3.18924 13.9493 2.73691 14.6464 2.5059C14.8886 2.4247 15.141 2.37454 15.3956 2.35498ZM15.1592 3.91666C14.8097 4.02215 14.5015 4.22931 14.2224 4.45942C13.8879 4.73653 13.5969 5.05976 13.2847 5.36049C13.2858 5.37083 13.2878 5.39153 13.2887 5.40187C13.2829 5.39333 13.2707 5.37601 13.2649 5.36746C13.1828 5.47273 13.0791 5.55842 12.9878 5.65537C12.7034 5.94418 12.4099 6.22467 12.131 6.51865C12.133 6.52292 12.1371 6.53192 12.1391 6.53642L12.122 6.54024C12.0786 6.55464 12.0539 6.59535 12.0219 6.62504C10.1737 8.47306 8.32611 10.3213 6.47764 12.1691C6.31232 12.3437 6.18455 12.5533 6.10381 12.7796C6.01698 13.0101 6.00844 13.2587 5.9684 13.4991C5.85616 14.2846 5.74369 15.07 5.63168 15.8555C5.60199 16.0582 5.62988 16.2898 5.78261 16.4399C5.94366 16.5917 6.18321 16.6135 6.39284 16.5829C7.3173 16.4507 8.24154 16.3182 9.166 16.1868C9.4141 16.1486 9.64172 16.0318 9.85181 15.8991C10.0045 15.8022 10.1206 15.6612 10.2501 15.5372C11.5176 14.2702 12.7846 13.0027 14.0519 11.7357C14.6001 11.1842 15.155 10.6392 15.6988 10.0836C16.0763 9.69893 16.464 9.32442 16.8365 8.93529C16.8797 8.91887 16.9065 8.87411 16.9409 8.8442C17.3919 8.39299 17.8818 7.95595 18.1735 7.37766C18.3274 7.0749 18.4097 6.72671 18.3517 6.38796C18.2896 5.99861 18.0901 5.64637 17.8534 5.33687C17.5887 4.98958 17.276 4.6803 16.9364 4.40656C16.6249 4.16229 16.2733 3.95085 15.8799 3.87573C15.641 3.82782 15.3914 3.84468 15.1592 3.91666Z" fill="#4B4B4B"/>
<path d="M13.2647 5.36743C13.2706 5.37598 13.2827 5.3933 13.2886 5.40184C13.4103 5.74756 13.5738 6.07776 13.7596 6.39333C14.4517 7.56162 15.5599 8.47438 16.8364 8.93526C16.4639 9.32439 16.0761 9.6989 15.6987 10.0836C14.1496 9.36151 12.865 8.0839 12.139 6.53639C12.1369 6.53189 12.1329 6.52289 12.1309 6.51862C12.4098 6.22464 12.7033 5.94415 12.9876 5.65534C13.0789 5.55839 13.1826 5.4727 13.2647 5.36743Z" fill="#4B4B4B"/>
<path d="M5.82895 19.5527C5.92477 19.539 6.02171 19.5417 6.11843 19.5417C10.3538 19.5419 14.5895 19.5414 18.8251 19.5419C19.1574 19.5412 19.4831 19.711 19.6747 19.9823C19.8713 20.2524 19.9239 20.6191 19.8142 20.9346C19.6783 21.3487 19.2626 21.6493 18.8263 21.6454C14.5749 21.6461 10.3235 21.6454 6.07232 21.6459C5.95154 21.6477 5.8294 21.6434 5.71244 21.6112C5.41958 21.5359 5.16518 21.3265 5.03405 21.0541C4.88964 20.7626 4.89324 20.4034 5.04349 20.1148C5.19442 19.8154 5.4965 19.5983 5.82895 19.5527Z" fill="#4B4B4B"/>
</svg>
