<svg width="24" height="24" viewBox="0 0 24 24" fill="none" xmlns="http://www.w3.org/2000/svg">
<path d="M16.3744 2.47324C17.1074 2.07714 17.9516 1.89314 18.7829 1.9424C19.545 1.98446 20.2947 2.22491 20.9396 2.63316C21.5786 3.03624 22.1142 3.60103 22.4826 4.26053C23.134 5.41284 23.2383 6.85622 22.7583 8.08973C22.6344 8.39114 22.4054 8.63699 22.1472 8.82998C21.7669 9.10754 21.2657 9.21011 20.8066 9.10619C20.3473 9.007 19.9393 8.70289 19.7094 8.29352C19.3619 8.5198 18.9496 8.64553 18.5346 8.64643C18.0767 8.65116 17.6187 8.50563 17.2482 8.23639C16.9421 8.01573 16.6947 7.71432 16.5388 7.37041C16.3323 6.91875 16.2896 6.39556 16.4169 5.91579C16.5852 5.26192 17.0786 4.70431 17.7058 4.45464C18.2076 4.25041 18.7865 4.24478 19.2926 4.43845C19.9272 4.67575 20.4328 5.22705 20.613 5.88025C20.6746 6.09618 20.6993 6.32133 20.6946 6.54559C20.6944 6.85307 20.6944 7.16077 20.6946 7.46825C20.6917 7.63088 20.7801 7.79013 20.9184 7.87492C21.0712 7.97187 21.2794 7.9694 21.4295 7.86818C21.5226 7.79665 21.6207 7.71635 21.6614 7.60208C21.9394 6.8326 21.9209 5.96055 21.6081 5.20433C21.3228 4.50593 20.7922 3.91189 20.1312 3.54863C19.4458 3.16692 18.6235 3.04388 17.8553 3.20066C17.0919 3.35226 16.3904 3.78503 15.9074 4.39481C15.4286 4.99155 15.1681 5.75789 15.1829 6.52287C15.191 7.34342 15.5194 8.15406 16.0818 8.75103C16.6951 9.41277 17.5863 9.80707 18.4892 9.80887C18.6774 9.80055 18.8675 9.88287 18.9854 10.0309C19.1233 10.1969 19.1586 10.4398 19.0742 10.6386C18.9874 10.8541 18.7663 11.0071 18.5335 11.0086C17.7591 11.0131 16.9846 10.8139 16.3092 10.4349C15.6159 10.0482 15.0273 9.4762 14.6213 8.79399C14.2043 8.0985 13.9818 7.28853 13.9829 6.47766C13.98 5.68793 14.1885 4.89865 14.5835 4.21442C15.003 3.4825 15.6308 2.87159 16.3744 2.47324ZM18.2948 5.52283C17.9478 5.60156 17.6587 5.8861 17.5746 6.23181C17.4981 6.52602 17.5699 6.85374 17.764 7.0879C17.9341 7.29888 18.1956 7.43249 18.4665 7.44553C18.7413 7.4624 19.0209 7.35489 19.213 7.1574C19.4134 6.95766 19.5178 6.66705 19.491 6.38544C19.4665 6.07796 19.2839 5.7896 19.0182 5.6335C18.8034 5.50439 18.5382 5.4648 18.2948 5.52283Z" fill="#4B4B4B"/>
<path d="M5.41031 8.72142C5.62084 8.68498 5.84532 8.74481 6.00952 8.88179C6.72075 9.47448 7.4322 10.0668 8.1432 10.6597C8.72644 11.1426 9.30249 11.6352 9.9125 12.0842C10.2514 12.3278 10.6019 12.5673 10.9971 12.7097C11.3068 12.8226 11.6519 12.8368 11.9681 12.7414C12.3449 12.6285 12.68 12.4132 13.001 12.1915C13.6663 11.7195 14.2835 11.1844 14.9131 10.6667C15.0825 10.5328 15.3117 10.4809 15.5227 10.5249C15.8032 10.5792 16.0387 10.8084 16.1016 11.0866C16.1693 11.3599 16.0657 11.6649 15.8461 11.8406C15.2336 12.3476 14.6284 12.8644 13.9846 13.3318C13.598 13.6103 13.1931 13.8699 12.7513 14.0527C12.3613 14.2156 11.9398 14.308 11.5162 14.3044C11.0724 14.304 10.6334 14.1967 10.229 14.0172C9.61627 13.7446 9.07486 13.3408 8.54875 12.9306C7.84315 12.3725 7.15913 11.7882 6.46635 11.2144C5.9958 10.8223 5.52524 10.4303 5.05492 10.038C4.88127 9.89578 4.7787 9.67242 4.78388 9.44794C4.7832 9.09615 5.06279 8.77248 5.41031 8.72142Z" fill="#4B4B4B"/>
<path opacity="0.5" d="M6.98062 4.73212C7.86235 4.7094 8.74475 4.71322 9.62692 4.713C10.5867 4.71277 11.5463 4.71345 12.506 4.71255C12.6185 4.71052 12.7319 4.72987 12.8344 4.77643C13.1091 4.89429 13.2953 5.18828 13.2809 5.48721C13.2751 5.78276 13.0753 6.06123 12.7982 6.16335C12.6484 6.2252 12.4838 6.21148 12.3254 6.2126C10.9983 6.21328 9.67101 6.21126 8.34392 6.21373C7.44263 6.22025 6.53999 6.22385 5.64184 6.30663C5.15982 6.35409 4.67554 6.42291 4.21466 6.57767C3.87974 6.68991 3.55989 6.8595 3.30077 7.10175C3.043 7.33725 2.84799 7.63596 2.71843 7.95918C2.53736 8.40814 2.45616 8.88949 2.40015 9.36814C2.31693 10.119 2.30186 10.8755 2.29129 11.6303C2.28139 12.777 2.28297 13.924 2.28904 15.0706C2.29556 15.7299 2.30613 16.3894 2.35359 17.0471C2.38621 17.4828 2.43389 17.9189 2.52994 18.3458C2.60484 18.6758 2.71123 19.0022 2.88218 19.2959C3.07832 19.6345 3.36488 19.9199 3.7043 20.1147C4.04461 20.3104 4.4261 20.4213 4.80915 20.4968C5.58831 20.6449 6.38388 20.6714 7.17474 20.6923C8.1642 20.7128 9.15412 20.7063 10.1438 20.7076C11.6284 20.7069 13.1129 20.7085 14.5974 20.7067C15.2423 20.7036 15.8874 20.6991 16.5318 20.6721C17.0278 20.6502 17.5244 20.6165 18.0155 20.5391C18.4244 20.4732 18.8333 20.3772 19.2078 20.1954C19.5268 20.0409 19.8104 19.8128 20.025 19.5301C20.2544 19.2307 20.3977 18.8744 20.4931 18.5116C20.6121 18.0561 20.6669 17.5865 20.7045 17.118C20.788 15.9726 20.7749 14.823 20.7787 13.6754C20.7738 12.9401 20.799 12.205 20.7792 11.47C20.774 11.2464 20.8777 11.0246 21.0504 10.8831C21.2774 10.6899 21.6229 10.6555 21.8836 10.8001C22.1126 10.9209 22.2691 11.1672 22.2774 11.4266C22.2891 11.8164 22.2878 12.2064 22.2835 12.5962C22.2682 13.9458 22.2975 15.2962 22.2358 16.6452C22.1877 17.5683 22.1085 18.5064 21.79 19.3816C21.5466 20.0585 21.1204 20.6718 20.5516 21.1147C19.9643 21.5799 19.2404 21.8372 18.5108 21.9744C17.5924 22.1467 16.6553 22.175 15.7234 22.1955C14.3811 22.2158 13.0384 22.2036 11.6958 22.207C10.3316 22.2043 8.9672 22.2135 7.603 22.1996C6.7323 22.1858 5.85912 22.1649 4.99517 22.0473C4.28529 21.9483 3.57226 21.7724 2.94763 21.4096C2.27397 21.0218 1.73009 20.4172 1.40911 19.7098C1.05642 18.9399 0.933835 18.0901 0.865681 17.2531C0.778633 16.0927 0.788305 14.928 0.785156 13.7654C0.789205 12.4687 0.769636 11.1704 0.850386 9.87536C0.912467 8.99161 1.02201 8.09189 1.38077 7.27315C1.68353 6.57497 2.19974 5.97013 2.84799 5.56998C3.45485 5.1921 4.15663 5.00023 4.85774 4.89272C5.56019 4.78565 6.27119 4.75214 6.98062 4.73212Z" fill="#4B4B4B"/>
</svg>
