<svg width="25" height="25" viewBox="0 0 25 25" fill="none" xmlns="http://www.w3.org/2000/svg">
<g clip-path="url(#clip0_35834_49202)">
<path d="M12.0507 1.14786C12.9317 1.07273 13.8341 1.2475 14.62 1.65395C15.3843 2.04533 16.0378 2.64972 16.4896 3.37961C16.9094 4.05395 17.1534 4.83626 17.1934 5.62959C17.2384 6.47082 17.0553 7.32353 16.6646 8.0703C16.2922 8.78422 15.7359 9.40121 15.0631 9.84364C14.4363 10.2584 13.7086 10.5196 12.9612 10.5983C12.0851 10.693 11.1829 10.54 10.3898 10.1549C9.12027 9.54854 8.15037 8.34921 7.83322 6.97714C7.63191 6.12691 7.6688 5.22111 7.94321 4.39112C8.19671 3.62006 8.65354 2.91783 9.25298 2.3708C10.018 1.67195 11.0167 1.23041 12.0507 1.14786ZM12.0509 2.65466C11.3273 2.74239 10.6376 3.08496 10.13 3.60792C9.67584 4.07037 9.36522 4.67206 9.2541 5.31086C9.12994 6.00927 9.24015 6.74816 9.57035 7.37661C9.92956 8.07187 10.5499 8.62767 11.2805 8.90816C12.027 9.19945 12.8827 9.19877 13.6288 8.90681C14.3483 8.62925 14.9603 8.08447 15.3214 7.40316C15.7076 6.68428 15.8029 5.8165 15.5888 5.0297C15.3954 4.30655 14.9403 3.65785 14.3292 3.22644C13.6767 2.76016 12.8462 2.55367 12.0509 2.65466Z" fill="#4B4B4B"/>
<path d="M12.134 11.3723C13.9389 11.3365 15.766 11.6013 17.4451 12.2803C18.1197 12.5559 18.7679 12.9036 19.3493 13.3447C19.893 13.7579 20.3809 14.2568 20.7243 14.8504C21.0354 15.3803 21.2142 15.9903 21.2151 16.6062C21.2158 17.1699 21.2181 17.7378 21.12 18.295C21.0489 18.7014 20.9212 19.1002 20.7183 19.4606C20.3894 20.0575 19.8516 20.5159 19.2526 20.8284C18.6019 21.1666 17.89 21.37 17.1727 21.5108C16.244 21.6903 15.2999 21.7751 14.3561 21.8232C13.489 21.8662 12.6206 21.8711 11.7528 21.8599C10.3254 21.8327 8.88989 21.756 7.49083 21.4539C6.68783 21.2735 5.88415 21.0144 5.20486 20.5371C4.65356 20.1583 4.21877 19.6088 3.99429 18.9774C3.76486 18.3496 3.72348 17.6735 3.71965 17.0111C3.7219 16.7324 3.70863 16.4521 3.74822 16.1752C3.83887 15.4926 4.14477 14.8495 4.57619 14.3169C5.02357 13.7561 5.58882 13.2982 6.19973 12.9263C6.89206 12.5046 7.64535 12.1897 8.41844 11.9499C9.62091 11.5792 10.878 11.4027 12.134 11.3723ZM11.7132 12.8895C10.8632 12.9367 10.0166 13.0636 9.19467 13.2865C8.45487 13.4875 7.73217 13.7656 7.06908 14.1529C6.5324 14.4716 6.02383 14.8619 5.65652 15.3727C5.3992 15.7312 5.22196 16.1602 5.21881 16.6062C5.22038 16.9317 5.22016 17.2574 5.24175 17.5824C5.26627 17.9448 5.318 18.3141 5.47838 18.6441C5.61401 18.9263 5.83962 19.1569 6.09671 19.3314C6.40779 19.5427 6.7589 19.6866 7.11519 19.8025C7.61296 19.963 8.12805 20.0629 8.64449 20.1403C10.1328 20.3526 11.6406 20.3776 13.1417 20.3605C13.9978 20.3463 14.8546 20.3101 15.7059 20.215C16.3135 20.1464 16.9197 20.0523 17.5108 19.8942C17.9082 19.7867 18.2996 19.6463 18.6593 19.4441C19.0081 19.2448 19.3242 18.9585 19.4834 18.5827C19.6382 18.23 19.6816 17.8415 19.6993 17.4603C19.7117 17.1755 19.7162 16.8905 19.7151 16.6055C19.7135 16.231 19.586 15.8664 19.3937 15.5486C19.1856 15.2058 18.9044 14.9129 18.5967 14.6583C18.0918 14.2489 17.5166 13.932 16.917 13.6846C16.1639 13.3749 15.3717 13.1661 14.5689 13.0345C13.6262 12.8814 12.6667 12.8377 11.7132 12.8895Z" fill="#4B4B4B"/>
<path opacity="0.5" d="M6.55543 4.5319C6.71873 4.51773 6.88361 4.51458 7.04735 4.52853C7.1542 4.53663 7.25204 4.60141 7.3085 4.69115C7.40049 4.83308 7.39599 5.02675 7.3058 5.16845C7.20795 5.32411 7.02599 5.41903 6.84289 5.4188C6.5705 5.41813 6.29699 5.46806 6.04552 5.57378C5.59948 5.75777 5.22362 6.10529 5.00364 6.53468C4.77984 6.96474 4.71708 7.47466 4.82392 7.94701C4.92582 8.40587 5.19056 8.82604 5.55989 9.11642C5.90898 9.39421 6.35165 9.55188 6.79791 9.55661C7.15824 9.56358 7.51858 9.46844 7.83168 9.29097C8.0159 9.18277 8.26692 9.18412 8.43764 9.31818C8.58925 9.43312 8.65988 9.65693 8.57215 9.83125C8.52559 9.93291 8.42167 9.9851 8.33125 10.0411C7.80694 10.3567 7.18186 10.4988 6.57253 10.4451C5.98906 10.3972 5.42336 10.1671 4.97035 9.79638C4.43952 9.36744 4.06569 8.74956 3.93298 8.07994C3.80117 7.43687 3.89024 6.75106 4.18355 6.16354C4.46763 5.58705 4.94539 5.10862 5.52188 4.82431C5.8442 4.66349 6.19667 4.56429 6.55543 4.5319Z" fill="#4B4B4B"/>
<path opacity="0.5" d="M17.85 4.53886C18.5685 4.45631 19.3152 4.67157 19.8922 5.10613C20.4655 5.53395 20.876 6.17545 21.0197 6.87656C21.1853 7.65864 21.0209 8.50662 20.5665 9.16522C20.1196 9.82583 19.3948 10.2939 18.6062 10.4183C17.9231 10.5341 17.2025 10.3906 16.61 10.0334C16.5274 9.98306 16.4361 9.93358 16.39 9.84428C16.2946 9.66951 16.3632 9.43963 16.5157 9.32042C16.6862 9.18276 16.9406 9.18164 17.1253 9.29208C17.5349 9.52735 18.0282 9.60923 18.4924 9.52488C19.1535 9.41129 19.7381 8.94613 20.0051 8.33208C20.2192 7.85298 20.2408 7.29223 20.066 6.79761C19.8506 6.17095 19.3143 5.66621 18.6744 5.49279C18.4909 5.44195 18.3003 5.41924 18.11 5.41946C17.906 5.41879 17.7007 5.29845 17.619 5.10838C17.5201 4.9001 17.6161 4.60229 17.85 4.53886Z" fill="#4B4B4B"/>
<path opacity="0.5" d="M4.7944 11.1837C5.75305 11.0231 6.73644 11.0134 7.69892 11.1491C8.2248 11.2231 8.74439 11.3461 9.24576 11.5218C8.64227 11.6585 8.04756 11.8369 7.47084 12.0612C7.39841 12.0954 7.31879 12.0715 7.24321 12.0663C6.24205 11.9712 5.22064 12.0288 4.24804 12.2935C3.59845 12.4703 2.96235 12.7384 2.43196 13.1595C2.12043 13.4105 1.84332 13.7317 1.73266 14.1233C1.66608 14.3449 1.69262 14.5779 1.69172 14.8055C1.70229 15.1699 1.71848 15.5608 1.92632 15.8748C2.14158 16.1902 2.50326 16.3587 2.85281 16.4813C3.06087 16.5537 3.21584 16.7629 3.20932 16.9853C3.20954 17.1979 3.05187 17.4059 2.83863 17.4417C2.7129 17.4678 2.59189 17.4138 2.47582 17.3738C2.06623 17.2278 1.6699 17.0193 1.36265 16.7066C1.10735 16.4495 0.930781 16.1207 0.83721 15.7718C0.718447 15.3328 0.721146 14.8739 0.721821 14.4225C0.722946 13.9731 0.877922 13.5327 1.1249 13.1604C1.47646 12.6372 1.98458 12.2377 2.53296 11.937C3.23451 11.5544 4.00849 11.3173 4.7944 11.1837Z" fill="#4B4B4B"/>
<path opacity="0.5" d="M18.2665 11.0603C19.1752 11.0299 20.0907 11.1221 20.9692 11.3608C21.5824 11.529 22.1803 11.7688 22.7178 12.1112C23.0998 12.3552 23.4527 12.6523 23.7271 13.0147C23.9556 13.3157 24.1264 13.6647 24.1963 14.0375C24.2512 14.3125 24.2321 14.5944 24.2314 14.8728C24.2217 15.3738 24.1486 15.8922 23.8859 16.3284C23.6034 16.8063 23.12 17.128 22.611 17.3246C22.4781 17.3711 22.3476 17.4355 22.2057 17.4472C21.974 17.4573 21.7713 17.2573 21.7502 17.0317C21.7176 16.7946 21.8777 16.5567 22.1018 16.4813C22.3307 16.4035 22.5557 16.3047 22.7507 16.1597C22.9668 16.0085 23.1209 15.7764 23.1857 15.5215C23.2754 15.1702 23.2629 14.8047 23.2683 14.4453C23.2678 14.0282 23.0388 13.6483 22.7502 13.3624C22.3031 12.9216 21.7288 12.6332 21.1415 12.4265C20.0491 12.0531 18.8731 11.9542 17.7273 12.0664C17.6515 12.07 17.5719 12.0979 17.4988 12.0666C16.9205 11.8388 16.3226 11.6642 15.7183 11.5207C16.5354 11.2301 17.4014 11.0918 18.2665 11.0603Z" fill="#4B4B4B"/>
</g>
<defs>
<clipPath id="clip0_35834_49202">
<rect width="24" height="24" fill="white" transform="translate(0.5 0.5)"/>
</clipPath>
</defs>
</svg>
