<svg width="24" height="25" viewBox="0 0 24 25" fill="none" xmlns="http://www.w3.org/2000/svg">
<path d="M4.20986 2.6239C5.07845 2.47437 5.96392 2.51843 6.84142 2.50296C7.53658 2.51374 8.24205 2.47343 8.92548 2.62859C9.69283 2.80624 10.3613 3.29702 10.8291 3.92234C11.3845 4.66249 11.7281 5.52968 12.157 6.34343C13.5586 6.3439 14.9602 6.34343 16.3617 6.3439C17.1755 6.34577 17.9916 6.33546 18.802 6.41843C19.3458 6.47984 19.8961 6.60921 20.362 6.90687C20.8331 7.20405 21.2363 7.61374 21.5166 8.09562C21.8067 8.6089 21.9108 9.20187 21.9661 9.78218C22.0491 10.7951 22.0284 11.8133 22.0308 12.8286C22.0327 13.1703 21.7622 13.4848 21.4242 13.5336C21.0239 13.6091 20.6105 13.2781 20.5945 12.8717C20.5856 12.1541 20.5992 11.4359 20.5763 10.7183C20.5561 10.1961 20.5411 9.66734 20.4061 9.15968C20.3034 8.74343 19.9988 8.41062 19.6589 8.16687C19.3388 7.94187 18.9385 7.8814 18.5583 7.84062C18.0141 7.78999 17.467 7.78859 16.921 7.78437C13.5938 7.78437 10.2661 7.78437 6.93892 7.78437C6.58126 7.79843 6.24189 7.51765 6.19876 7.16093C6.13126 6.75405 6.47861 6.3453 6.89111 6.34484C8.10939 6.34202 9.32814 6.34437 10.5464 6.3439C10.2877 5.83437 10.0486 5.31077 9.71814 4.84249C9.41392 4.39812 8.93767 4.05312 8.39345 3.99077C7.87923 3.93405 7.36033 3.94905 6.84376 3.94343C6.18611 3.9514 5.52705 3.93265 4.8708 3.98843C4.52298 4.02077 4.16298 4.07374 3.86205 4.26359C3.41205 4.54296 3.04126 4.98968 2.94236 5.51937C2.85095 5.98062 2.8458 6.45312 2.83689 6.92187C2.82751 8.76593 2.8322 10.6105 2.83455 12.455C2.84251 13.5017 2.85048 14.5503 2.94705 15.5937C3.02298 16.3339 3.13548 17.0862 3.45142 17.7673C3.76173 18.4344 4.33595 18.9641 5.00861 19.2542C5.56408 19.4909 6.16501 19.5922 6.76126 19.6592C8.42533 19.8219 10.0997 19.7661 11.7685 19.7876C12.0502 19.8064 12.3085 20.0089 12.3933 20.2784C12.5128 20.6056 12.3417 21.0003 12.0286 21.147C11.8167 21.2567 11.5716 21.2183 11.3424 21.2248C9.90611 21.215 8.46751 21.2389 7.03408 21.1306C6.23439 21.0636 5.42767 20.9534 4.67205 20.6717C3.6408 20.2953 2.7497 19.5355 2.23923 18.5614C1.84736 17.8203 1.66595 16.9901 1.56189 16.1642C1.41517 14.9633 1.4058 13.7516 1.39455 12.5436C1.3922 10.6386 1.38658 8.73359 1.39783 6.82859C1.41798 6.07062 1.42595 5.28312 1.7358 4.57624C2.19189 3.58905 3.12517 2.80437 4.20986 2.6239Z" fill="#4B4B4B"/>
<path opacity="0.5" d="M17.2758 14.0797C18.0328 13.9536 18.8255 14.0427 19.5328 14.3417C20.4741 14.7336 21.2532 15.4953 21.6703 16.4248C22.0299 17.2152 22.1232 18.1217 21.938 18.9692C21.7519 19.8434 21.2644 20.6483 20.58 21.223C19.9496 21.7592 19.1503 22.092 18.3258 22.1652C17.5008 22.243 16.6533 22.062 15.9343 21.6486C15.1158 21.185 14.4671 20.4294 14.1357 19.5486C13.7752 18.6036 13.7855 17.5241 14.1643 16.5861C14.6738 15.2858 15.8963 14.2995 17.2758 14.0797ZM16.665 15.7963C17.8613 16.9963 19.0603 18.1925 20.258 19.3911C20.6471 18.6969 20.6977 17.8273 20.3897 17.0938C20.1085 16.4094 19.5263 15.8558 18.8264 15.6139C18.1228 15.3641 17.3166 15.432 16.665 15.7963ZM15.5836 19.2673C15.9436 20.0084 16.6693 20.5588 17.4816 20.6994C18.0778 20.8123 18.7078 20.7027 19.238 20.4111C18.0436 19.2097 16.8436 18.0139 15.645 16.8163C15.2264 17.5588 15.203 18.5047 15.5836 19.2673Z" fill="#4B4B4B"/>
</svg>
