<svg width="24" height="24" viewBox="0 0 24 24" fill="none" xmlns="http://www.w3.org/2000/svg">
<path d="M4.2098 2.12387C5.07839 1.97434 5.96386 2.0184 6.84136 2.00293C7.53652 2.01371 8.24198 1.9734 8.92542 2.12856C9.69277 2.30621 10.3612 2.79699 10.829 3.42231C11.3845 4.16246 11.7281 5.02965 12.157 5.8434C13.5585 5.84387 14.9601 5.8434 16.3617 5.84387C17.1754 5.84574 17.9915 5.83543 18.802 5.9184C19.3457 5.97981 19.896 6.10918 20.362 6.40684C20.8331 6.70402 21.2362 7.11371 21.5165 7.59559C21.8067 8.10887 21.9107 8.70184 21.966 9.28215C22.049 10.2951 22.0284 11.3132 22.0307 12.3285C22.0326 12.6702 21.7621 12.9848 21.4242 13.0335C21.0239 13.109 20.6104 12.778 20.5945 12.3716C20.5856 11.654 20.5992 10.9359 20.5762 10.2182C20.556 9.69606 20.541 9.16731 20.406 8.65965C20.3034 8.2434 19.9987 7.91059 19.6589 7.66684C19.3387 7.44184 18.9384 7.38137 18.5582 7.34059C18.014 7.28996 17.467 7.28856 16.9209 7.28434C13.5937 7.28434 10.266 7.28434 6.93886 7.28434C6.5812 7.2984 6.24183 7.01762 6.1987 6.6609C6.1312 6.25403 6.47855 5.84528 6.89105 5.84481C8.10933 5.84199 9.32808 5.84434 10.5464 5.84387C10.2876 5.33434 10.0485 4.81074 9.71808 4.34246C9.41386 3.89809 8.93761 3.55309 8.39339 3.49074C7.87917 3.43402 7.36027 3.44902 6.8437 3.4434C6.18605 3.45137 5.52698 3.43262 4.87073 3.4884C4.52292 3.52074 4.16292 3.57371 3.86198 3.76356C3.41198 4.04293 3.0412 4.48965 2.9423 5.01934C2.85089 5.48059 2.84573 5.95309 2.83683 6.42184C2.82745 8.2659 2.83214 10.1104 2.83448 11.9549C2.84245 13.0016 2.85042 14.0502 2.94698 15.0937C3.02292 15.8338 3.13542 16.5862 3.45136 17.2673C3.76167 17.9343 4.33589 18.464 5.00855 18.7541C5.56402 18.9909 6.16495 19.0921 6.7612 19.1591C8.42527 19.3218 10.0996 19.266 11.7684 19.2876C12.0501 19.3063 12.3084 19.5088 12.3932 19.7784C12.5128 20.1055 12.3417 20.5002 12.0285 20.647C11.8167 20.7566 11.5715 20.7182 11.3423 20.7248C9.90605 20.7149 8.46745 20.7388 7.03402 20.6305C6.23433 20.5635 5.42761 20.4534 4.67198 20.1716C3.64073 19.7952 2.74964 19.0354 2.23917 18.0613C1.8473 17.3202 1.66589 16.4901 1.56183 15.6641C1.41511 14.4632 1.40573 13.2515 1.39448 12.0435C1.39214 10.1385 1.38652 8.23356 1.39777 6.32856C1.41792 5.57059 1.42589 4.78309 1.73573 4.07621C2.19183 3.08902 3.12511 2.30434 4.2098 2.12387Z" fill="#4B4B4B"/>
<path opacity="0.5" d="M17.2757 13.5795C18.0327 13.4534 18.8254 13.5425 19.5327 13.8416C20.474 14.2334 21.253 14.9951 21.6702 15.9247C22.0298 16.715 22.123 17.6216 21.9379 18.4691C21.7518 19.3433 21.2643 20.1481 20.5799 20.7228C19.9494 21.2591 19.1502 21.5919 18.3257 21.665C17.5007 21.7428 16.6532 21.5619 15.9341 21.1484C15.1157 20.6848 14.4669 19.9292 14.1355 19.0484C13.7751 18.1034 13.7854 17.0239 14.1641 16.0859C14.6737 14.7856 15.8962 13.7994 17.2757 13.5795ZM16.6649 15.2961C17.8612 16.4961 19.0602 17.6923 20.2579 18.8909C20.6469 18.1967 20.6976 17.3272 20.3896 16.5936C20.1084 15.9092 19.5262 15.3556 18.8263 15.1137C18.1227 14.8639 17.3165 14.9319 16.6649 15.2961ZM15.5835 18.7672C15.9435 19.5083 16.6691 20.0586 17.4815 20.1992C18.0777 20.3122 18.7077 20.2025 19.2379 19.9109C18.0435 18.7095 16.8435 17.5137 15.6449 16.3161C15.2263 17.0586 15.2029 18.0045 15.5835 18.7672Z" fill="#4B4B4B"/>
</svg>
