<svg width="24" height="24" viewBox="0 0 24 24" fill="none" xmlns="http://www.w3.org/2000/svg">
<path d="M19.0581 1.15172C19.205 1.00101 19.4346 0.938707 19.6378 0.99404C19.8573 1.04982 20.035 1.24056 20.0743 1.46392C20.1081 1.65016 20.0514 1.85327 19.9169 1.98823C19.5865 2.32225 19.2533 2.65402 18.92 2.98534C19.2423 3.31577 19.5741 3.63697 19.8971 3.96671C20.109 4.15565 20.1416 4.5007 19.9846 4.73327C19.8307 4.97575 19.4945 5.06684 19.2358 4.94718C19.124 4.90219 19.0462 4.80705 18.9614 4.72585C18.6647 4.42939 18.368 4.13271 18.0713 3.83603C17.7416 4.16488 17.4127 4.49485 17.083 4.82392C16.9363 4.9726 16.7092 5.03625 16.5072 4.98137C16.2971 4.92761 16.1228 4.75374 16.0742 4.54163C16.0281 4.34774 16.0823 4.13024 16.2231 3.98718C16.5551 3.65316 16.89 3.32206 17.222 2.98759C16.8916 2.65447 16.5582 2.32405 16.2271 1.99138C16.1023 1.86519 16.0411 1.68143 16.0618 1.50553C16.0857 1.277 16.2532 1.07097 16.4732 1.00281C16.6795 0.935333 16.9215 0.989542 17.0756 1.14384C17.4087 1.47427 17.738 1.80874 18.0718 2.13871C18.4013 1.81031 18.729 1.48034 19.0581 1.15172Z" fill="#4B4B4B"/>
<path d="M8.65933 2.27556C9.36269 2.22045 10.069 2.2272 10.7739 2.22337C11.7942 2.22382 12.8142 2.2218 13.8343 2.22495C13.9229 2.22517 14.0124 2.22135 14.0999 2.23912C14.3433 2.28748 14.5547 2.46765 14.6409 2.70045C14.7475 2.97936 14.6695 3.31721 14.4474 3.51762C14.3017 3.65438 14.1013 3.73085 13.9013 3.72455C12.6185 3.72208 11.3358 3.71916 10.053 3.72658C9.52081 3.7313 8.98683 3.73513 8.45825 3.80283C8.16044 3.84129 7.85656 3.89393 7.58822 4.03563C7.33585 4.16654 7.14331 4.39867 7.04614 4.66453C6.90376 5.04309 6.87069 5.45111 6.841 5.85126C6.79737 6.59938 6.80929 7.34907 6.80501 8.09809C6.80681 8.66019 6.80659 9.22229 6.80456 9.78416C6.79984 10.1416 6.49753 10.4646 6.14282 10.499C5.81982 10.5422 5.48378 10.3431 5.36321 10.0408C5.30811 9.91799 5.30428 9.78124 5.30631 9.64898C5.30698 9.07743 5.30608 8.50588 5.30676 7.93456C5.30923 7.42645 5.30226 6.91833 5.31868 6.41044C5.3243 6.3054 5.3216 6.20035 5.32363 6.09554C5.35062 5.7199 5.36479 5.3427 5.42822 4.97089C5.49997 4.51541 5.6311 4.0624 5.87178 3.66562C6.18443 3.14918 6.68198 2.75128 7.24992 2.54862C7.70113 2.38195 8.18181 2.31312 8.65933 2.27556Z" fill="#4B4B4B"/>
<path d="M9.86208 6.24505C9.96105 6.21784 10.0645 6.22054 10.1664 6.22099C11.4706 6.22166 12.7747 6.22031 14.0788 6.22166C14.4524 6.22616 14.7867 6.55208 14.7995 6.92592C14.8236 7.24734 14.6146 7.56652 14.311 7.67381C14.2165 7.71047 14.1142 7.72217 14.0134 7.72082C12.761 7.71834 11.5086 7.72014 10.2562 7.71969C10.0983 7.71969 9.93383 7.73274 9.78471 7.67043C9.47273 7.55505 9.26219 7.21405 9.30965 6.88296C9.34002 6.5829 9.57035 6.31928 9.86208 6.24505Z" fill="#4B4B4B"/>
<path d="M17.8308 6.35997C17.9874 6.30801 18.1567 6.32015 18.3151 6.35794C18.4615 6.43622 18.6068 6.53181 18.6907 6.68027C18.7762 6.8132 18.8023 6.97403 18.7969 7.1299C18.7987 7.39779 18.7985 7.66591 18.7985 7.93403C18.7969 8.55078 18.8005 9.16754 18.7967 9.7843C18.794 10.168 18.4435 10.5065 18.0611 10.5036C17.6707 10.5209 17.304 10.1779 17.3009 9.7861C17.2962 8.8857 17.3013 7.98508 17.2975 7.08469C17.2953 6.76169 17.5211 6.45286 17.8308 6.35997Z" fill="#4B4B4B"/>
<path d="M9.20974 9.23601C9.3249 9.21397 9.44299 9.22296 9.5595 9.21914C11.2094 9.21936 12.8592 9.21914 14.5089 9.21936C14.635 9.22004 14.7626 9.21104 14.8874 9.23511C15.1303 9.28482 15.3397 9.46521 15.4293 9.69599C15.5395 9.96996 15.4673 10.3053 15.2513 10.5075C15.1141 10.6402 14.9252 10.7196 14.7336 10.7181C12.9418 10.7174 11.1498 10.7181 9.35796 10.7178C8.97086 10.7208 8.62379 10.3721 8.62447 9.98592C8.6085 9.63908 8.87212 9.30821 9.20974 9.23601Z" fill="#4B4B4B"/>
<path opacity="0.25" d="M9.11077 4.08685C9.74597 4.03467 10.3841 4.04996 11.0209 4.04996C11.711 4.05086 12.4013 4.05086 13.0914 4.04996C13.6991 4.04929 14.3078 4.03714 14.9144 4.07966C15.2599 4.10822 15.6115 4.15096 15.9342 4.28479C15.8868 4.46541 15.9057 4.66447 16.0031 4.82575C16.1571 5.09836 16.4934 5.25694 16.8009 5.18001C16.9386 5.55115 16.9734 5.95017 16.9957 6.34245C17.0229 6.91939 17.0123 7.49701 17.0117 8.07418C17.0108 8.71186 17.0114 9.34976 17.0112 9.98766C17.0099 10.5496 17.0227 11.113 16.9649 11.6729C16.9673 11.7113 16.9404 11.7379 16.9129 11.7604C16.2755 12.2849 15.6436 12.8159 15.001 13.334C14.4873 13.742 13.969 14.1498 13.4015 14.4818C13.0048 14.7099 12.5664 14.8981 12.1014 14.9049C11.6727 14.9206 11.2559 14.7764 10.881 14.5792C10.3087 14.2746 9.79343 13.8765 9.28464 13.4775C8.57949 12.9176 7.89188 12.3357 7.19662 11.7637C7.17323 11.7435 7.14669 11.7212 7.14691 11.6875C7.09068 11.1303 7.1026 10.5693 7.10125 10.0102C7.10102 9.3655 7.10147 8.72086 7.10103 8.07621C7.09968 7.55842 7.09158 7.04063 7.10755 6.52307C7.12374 6.1029 7.14871 5.67666 7.2749 5.27291C7.37679 4.93799 7.58417 4.63051 7.87973 4.43774C8.24277 4.19707 8.6852 4.12622 9.11077 4.08685ZM9.74935 5.99696C9.5811 6.0181 9.42635 6.1065 9.30804 6.22593C8.91463 6.63058 8.91823 7.35328 9.32356 7.74893C9.46279 7.88682 9.65488 7.97319 9.85259 7.96959C11.3218 7.96892 12.7913 7.96914 14.2608 7.96959C14.4412 7.97094 14.6164 7.89581 14.7507 7.77728C15.1823 7.3922 15.2021 6.6452 14.801 6.23133C14.6611 6.08603 14.4659 5.98638 14.2612 5.99111C13.0839 5.98931 11.9064 5.99088 10.7291 5.99043C10.4025 5.99448 10.0755 5.98166 9.74935 5.99696ZM9.00528 8.9838C8.72187 9.03328 8.50549 9.26721 8.39819 9.52363C8.27021 9.83336 8.28258 10.2023 8.44116 10.4989C8.54305 10.6892 8.70635 10.8552 8.91373 10.9265C9.04127 10.9724 9.17915 10.9578 9.31208 10.9596C11.2015 10.9616 13.0907 10.9603 14.9799 10.961C15.1717 10.9641 15.3573 10.8784 15.4943 10.7466C15.9081 10.344 15.9104 9.60258 15.503 9.19456C15.3663 9.056 15.1767 8.96918 14.9805 8.97233C13.2708 8.973 11.5609 8.97278 9.85124 8.97233C9.56918 8.9739 9.28644 8.96333 9.00528 8.9838Z" fill="#4B4B4B"/>
<path opacity="0.25" d="M3.37371 11.3247C3.43355 11.4433 3.4918 11.5676 3.59819 11.6527C4.30065 12.2404 5.00535 12.8259 5.70893 13.4125C6.36033 13.953 7.00588 14.5005 7.66605 15.0304C8.28191 15.5113 8.88179 16.0147 9.53409 16.4468C10.0804 16.8054 10.6702 17.1205 11.3149 17.2559C11.8934 17.3816 12.5027 17.3537 13.0698 17.1855C13.3743 17.0987 13.662 16.9646 13.945 16.8245C14.564 16.5888 15.1243 16.2262 15.6565 15.8368C16.2545 15.3973 16.8261 14.9234 17.397 14.4497C18.4037 13.6129 19.4083 12.7737 20.4144 11.9363C20.5642 11.8265 20.6908 11.6844 20.7556 11.508C20.8341 12.3484 20.8379 13.193 20.8424 14.036C20.842 15.1386 20.8532 16.2415 20.8188 17.3434C20.797 17.9098 20.7621 18.4779 20.6578 19.036C20.5802 19.4431 20.4605 19.8473 20.2533 20.2083C20.084 20.5061 19.8532 20.7679 19.5821 20.9769C19.2972 21.1971 18.9661 21.3512 18.623 21.4567C18.1955 21.5876 17.7508 21.6521 17.3068 21.6949C16.2788 21.7862 15.2457 21.7747 14.2149 21.7799C12.7306 21.7799 11.2465 21.7799 9.76239 21.7801C8.9531 21.7768 8.14312 21.7788 7.33473 21.7342C6.91951 21.7109 6.50429 21.6742 6.09424 21.6022C5.66417 21.5251 5.23591 21.4061 4.85195 21.1928C4.32359 20.9036 3.90635 20.424 3.68412 19.8649C3.48123 19.3678 3.39823 18.8318 3.34537 18.3002C3.2545 17.2939 3.26597 16.2822 3.26147 15.2727C3.26215 14.5234 3.25855 13.774 3.27272 13.0247C3.28622 12.4575 3.29949 11.8879 3.37371 11.3247Z" fill="#4B4B4B"/>
<path opacity="0.5" d="M18.3151 6.35803C18.413 6.34926 18.5099 6.37041 18.6066 6.38323C19.3341 6.48759 20.066 6.67204 20.6994 7.05734C21.3123 7.4278 21.8135 7.97888 22.1266 8.62285C22.4529 9.28684 22.5947 10.023 22.6758 10.7532C22.7901 11.8434 22.7883 12.9415 22.7955 14.0365C22.7928 15.2434 22.8052 16.4506 22.7726 17.6574C22.7391 18.563 22.6936 19.4771 22.4707 20.3592C22.2971 21.0478 21.9842 21.7135 21.4907 22.2316C21.008 22.7536 20.3705 23.1151 19.6919 23.3159C18.7342 23.6016 17.7272 23.6518 16.7343 23.6866C15.5271 23.721 14.3195 23.7075 13.1121 23.7105C11.9132 23.7105 10.7143 23.7105 9.51544 23.7107C8.5849 23.7082 7.65392 23.7089 6.72451 23.6605C6.02678 23.6212 5.3259 23.5562 4.64728 23.3819C4.01388 23.2203 3.40095 22.9426 2.9052 22.5109C2.40159 22.082 2.02595 21.5136 1.80035 20.8937C1.49242 20.0533 1.4083 19.1534 1.35791 18.2663C1.3001 17.1571 1.31337 16.046 1.30933 14.9357C1.3109 13.7429 1.301 12.5488 1.37613 11.3578C1.43169 10.58 1.52481 9.79406 1.7936 9.05742C2.02798 8.4004 2.4324 7.80186 2.97583 7.36145C3.63712 6.81217 4.48129 6.54338 5.3187 6.41044C5.30228 6.91833 5.30925 7.42645 5.30678 7.93457C4.95274 8.00992 4.59937 8.10889 4.2802 8.28343C3.90614 8.48542 3.59101 8.79537 3.3852 9.16763C3.07727 9.72658 2.9801 10.3699 2.91083 10.9956C2.80691 12.058 2.81658 13.1269 2.80803 14.1928C2.81006 15.2725 2.80196 16.3521 2.82603 17.4313C2.8411 18.0029 2.86516 18.5753 2.93377 19.1433C2.99 19.5868 3.06918 20.0322 3.23562 20.4492C3.35056 20.7392 3.51589 21.0113 3.73497 21.2349C3.94573 21.4544 4.2035 21.6263 4.48241 21.7471C4.87244 21.9176 5.29283 22.0039 5.71255 22.0638C6.44267 22.1663 7.18134 22.1848 7.91754 22.1998C9.41714 22.2212 10.917 22.2075 12.4166 22.2111C13.0237 22.2129 13.6308 22.2084 14.2378 22.2093C15.3402 22.2055 16.4439 22.2205 17.5448 22.1488C18.0423 22.1141 18.5407 22.0629 19.0264 21.9448C19.3719 21.86 19.7122 21.7356 20.0093 21.5368C20.3584 21.3037 20.6366 20.9693 20.8098 20.5875C20.9932 20.1885 21.0842 19.7549 21.1472 19.3225C21.2844 18.3164 21.2831 17.2982 21.2943 16.2846C21.2979 15.0853 21.302 13.8858 21.2831 12.6867C21.2637 11.8974 21.2388 11.1041 21.1016 10.3251C21.0215 9.90585 20.9104 9.48411 20.689 9.11545C20.4985 8.79155 20.2255 8.51713 19.9013 8.32684C19.5626 8.12733 19.1811 8.01464 18.7985 7.93412C18.7985 7.666 18.7987 7.39788 18.7969 7.12999C18.8023 6.97412 18.7762 6.81329 18.6908 6.68036C18.6069 6.53191 18.4616 6.43631 18.3151 6.35803Z" fill="#4B4B4B"/>
<path opacity="0.5" d="M4.54938 10.3529C4.75699 10.3194 4.9781 10.3781 5.14027 10.5129C5.8317 11.0885 6.52269 11.6647 7.2139 12.2408C7.86552 12.7824 8.51309 13.329 9.17326 13.8605C9.68138 14.2651 10.1953 14.6687 10.7608 14.9914C11.1686 15.222 11.6254 15.401 12.1014 15.3839C12.5175 15.3781 12.9143 15.2245 13.276 15.029C13.8379 14.7195 14.3455 14.3232 14.8485 13.9275C15.4724 13.4277 16.0833 12.912 16.6983 12.4016C17.4055 11.812 18.1126 11.2225 18.8203 10.6334C18.9525 10.5138 19.0983 10.3968 19.278 10.3606C19.6235 10.278 20.0075 10.4825 20.1339 10.8138C20.2551 11.1049 20.1658 11.467 19.9213 11.6665C18.8128 12.5901 17.7055 13.515 16.5957 14.4368C16.0314 14.903 15.4648 15.3684 14.8678 15.7926C14.3516 16.1577 13.8041 16.4917 13.202 16.6939C12.6691 16.8727 12.0946 16.9301 11.5384 16.8464C10.7925 16.7387 10.1117 16.3817 9.49176 15.9688C8.85768 15.5414 8.26454 15.0569 7.67343 14.5728C6.50919 13.6072 5.349 12.6366 4.18657 11.6688C3.92925 11.4632 3.84355 11.0765 3.98526 10.7801C4.0876 10.5565 4.30556 10.3896 4.54938 10.3529Z" fill="#4B4B4B"/>
</svg>
