<svg width="24" height="24" viewBox="0 0 24 24" fill="none" xmlns="http://www.w3.org/2000/svg">
<path d="M19.058 1.15187C19.2049 1.00116 19.4346 0.938857 19.6377 0.99419C19.8572 1.04997 20.0349 1.24071 20.0743 1.46407C20.108 1.65031 20.0513 1.85342 19.9168 1.98838C19.5864 2.3224 19.2533 2.65417 18.9199 2.98549C19.2423 3.31591 19.574 3.63711 19.897 3.96686C20.1089 4.1558 20.1415 4.50084 19.9845 4.73342C19.8307 4.9759 19.4944 5.06699 19.2357 4.94733C19.124 4.90234 19.0461 4.8072 18.9613 4.726C18.6646 4.42954 18.368 4.13286 18.0713 3.83618C17.7415 4.16502 17.4127 4.495 17.0829 4.82407C16.9363 4.97275 16.7091 5.0364 16.5071 4.98152C16.297 4.92776 16.1227 4.75389 16.0741 4.54178C16.028 4.34789 16.0822 4.13038 16.223 3.98733C16.555 3.65331 16.89 3.32221 17.2219 2.98774C16.8915 2.65462 16.5582 2.3242 16.2271 1.99153C16.1022 1.86534 16.0411 1.68158 16.0618 1.50568C16.0856 1.27715 16.2532 1.07112 16.4732 1.00296C16.6794 0.935483 16.9214 0.989691 17.0755 1.14399C17.4086 1.47441 17.7379 1.80888 18.0717 2.13886C18.4013 1.81046 18.729 1.48049 19.058 1.15187Z" fill="#4B4B4B"/>
<path d="M8.65933 2.27539C9.36269 2.22028 10.069 2.22703 10.7739 2.22321C11.7942 2.22366 12.8142 2.22163 13.8343 2.22478C13.9229 2.22501 14.0124 2.22118 14.0999 2.23895C14.3433 2.28731 14.5547 2.46748 14.6409 2.70028C14.7475 2.9792 14.6695 3.31704 14.4474 3.51745C14.3017 3.65421 14.1013 3.73069 13.9013 3.72439C12.6185 3.72191 11.3358 3.71899 10.053 3.72641C9.52081 3.73113 8.98683 3.73496 8.45825 3.80266C8.16044 3.84113 7.85656 3.89376 7.58822 4.03547C7.33585 4.16637 7.14331 4.3985 7.04614 4.66437C6.90376 5.04292 6.87069 5.45095 6.841 5.8511C6.79737 6.59921 6.80929 7.3489 6.80501 8.09792C6.80681 8.66002 6.80659 9.22212 6.80456 9.78399C6.79984 10.1414 6.49753 10.4644 6.14282 10.4988C5.81982 10.542 5.48378 10.3429 5.36321 10.0406C5.30811 9.91783 5.30428 9.78107 5.30631 9.64881C5.30698 9.07726 5.30608 8.50572 5.30676 7.9344C5.30923 7.42628 5.30226 6.91816 5.31868 6.41027C5.3243 6.30523 5.3216 6.20019 5.32363 6.09537C5.35062 5.71974 5.36479 5.34253 5.42822 4.97072C5.49997 4.51524 5.6311 4.06223 5.87178 3.66546C6.18443 3.14902 6.68198 2.75112 7.24992 2.54845C7.70113 2.38178 8.18181 2.31295 8.65933 2.27539Z" fill="#4B4B4B"/>
<path d="M9.86202 6.24517C9.96099 6.21796 10.0645 6.22065 10.1663 6.2211C11.4705 6.22178 12.7746 6.22043 14.0788 6.22178C14.4524 6.22628 14.7866 6.5522 14.7995 6.92603C14.8235 7.24746 14.6146 7.56663 14.3109 7.67393C14.2164 7.71059 14.1141 7.72229 14.0133 7.72094C12.7609 7.71846 11.5085 7.72026 10.2561 7.71981C10.0982 7.71981 9.93377 7.73286 9.78464 7.67055C9.47267 7.55516 9.26213 7.21417 9.30959 6.88307C9.33996 6.58302 9.57029 6.3194 9.86202 6.24517Z" fill="#4B4B4B"/>
<path d="M17.8308 6.35989C17.9874 6.30793 18.1568 6.32008 18.3151 6.35786C18.4615 6.43614 18.6068 6.53173 18.6907 6.68019C18.7762 6.81312 18.8023 6.97395 18.7969 7.12982C18.7987 7.39771 18.7985 7.66583 18.7985 7.93395C18.7969 8.5507 18.8005 9.16746 18.7967 9.78422C18.794 10.1679 18.4435 10.5065 18.0612 10.5035C17.6707 10.5209 17.3041 10.1778 17.3009 9.78602C17.2962 8.88562 17.3014 7.98501 17.2975 7.08461C17.2953 6.76161 17.5211 6.45278 17.8308 6.35989Z" fill="#4B4B4B"/>
<path d="M9.20974 9.23606C9.3249 9.21402 9.44299 9.22302 9.5595 9.21919C11.2094 9.21942 12.8592 9.21919 14.5089 9.21942C14.635 9.22009 14.7626 9.2111 14.8874 9.23516C15.1303 9.28487 15.3397 9.46527 15.4293 9.69604C15.5395 9.97001 15.4673 10.3054 15.2513 10.5076C15.1141 10.6403 14.9252 10.7197 14.7336 10.7181C12.9418 10.7174 11.1498 10.7181 9.35796 10.7179C8.97086 10.7208 8.62379 10.3722 8.62447 9.98598C8.6085 9.63914 8.87212 9.30826 9.20974 9.23606Z" fill="#4B4B4B"/>
<path opacity="0.25" d="M9.11077 4.08697C9.74597 4.03479 10.3841 4.05008 11.0209 4.05008C11.711 4.05098 12.4013 4.05098 13.0914 4.05008C13.6991 4.04941 14.3078 4.03726 14.9144 4.07978C15.2599 4.10834 15.6115 4.15108 15.9342 4.28491C15.8868 4.46553 15.9057 4.66459 16.0031 4.82587C16.1571 5.09848 16.4934 5.25706 16.8009 5.18013C16.9386 5.55127 16.9734 5.95029 16.9957 6.34257C17.0229 6.91951 17.0123 7.49713 17.0117 8.0743C17.0108 8.71198 17.0114 9.34988 17.0112 9.98778C17.0099 10.5497 17.0227 11.1131 16.9649 11.673C16.9673 11.7114 16.9404 11.738 16.9129 11.7605C16.2755 12.285 15.6436 12.816 15.001 13.3341C14.4873 13.7421 13.969 14.1499 13.4015 14.4819C13.0048 14.71 12.5664 14.8982 12.1014 14.905C11.6727 14.9207 11.2559 14.7765 10.881 14.5793C10.3087 14.2747 9.79343 13.8766 9.28464 13.4776C8.57949 12.9177 7.89188 12.3358 7.19662 11.7638C7.17323 11.7436 7.14669 11.7213 7.14691 11.6876C7.09068 11.1304 7.1026 10.5694 7.10125 10.0103C7.10102 9.36562 7.10147 8.72098 7.10103 8.07633C7.09968 7.55854 7.09158 7.04075 7.10755 6.52319C7.12374 6.10302 7.14871 5.67678 7.2749 5.27303C7.37679 4.93811 7.58417 4.63063 7.87973 4.43786C8.24277 4.19719 8.6852 4.12634 9.11077 4.08697ZM9.74935 5.99708C9.5811 6.01822 9.42635 6.10662 9.30804 6.22605C8.91463 6.6307 8.91823 7.3534 9.32356 7.74905C9.46279 7.88694 9.65488 7.97331 9.85259 7.96971C11.3218 7.96904 12.7913 7.96926 14.2608 7.96971C14.4412 7.97106 14.6164 7.89593 14.7507 7.7774C15.1823 7.39232 15.2021 6.64532 14.801 6.23145C14.6611 6.08615 14.4659 5.9865 14.2612 5.99123C13.0839 5.98943 11.9064 5.991 10.7291 5.99055C10.4025 5.9946 10.0755 5.98178 9.74935 5.99708ZM9.00528 8.98392C8.72187 9.0334 8.50549 9.26733 8.39819 9.52375C8.27021 9.83348 8.28258 10.2024 8.44116 10.499C8.54305 10.6893 8.70635 10.8553 8.91373 10.9266C9.04127 10.9725 9.17915 10.9579 9.31208 10.9597C11.2015 10.9617 13.0907 10.9604 14.9799 10.9611C15.1717 10.9642 15.3573 10.8785 15.4943 10.7467C15.9081 10.3441 15.9104 9.6027 15.503 9.19468C15.3663 9.05612 15.1767 8.9693 14.9805 8.97245C13.2708 8.97312 11.5609 8.9729 9.85124 8.97245C9.56918 8.97402 9.28644 8.96345 9.00528 8.98392Z" fill="#4B4B4B"/>
<path opacity="0.25" d="M3.37371 11.3245C3.43355 11.4431 3.4918 11.5675 3.59819 11.6525C4.30065 12.2402 5.00535 12.8257 5.70893 13.4123C6.36033 13.9528 7.00588 14.5003 7.66605 15.0303C8.28191 15.5112 8.88179 16.0145 9.53409 16.4466C10.0804 16.8052 10.6702 17.1203 11.3149 17.2557C11.8934 17.3814 12.5027 17.3536 13.0698 17.1853C13.3743 17.0985 13.662 16.9644 13.945 16.8243C14.564 16.5886 15.1243 16.226 15.6565 15.8366C16.2545 15.3971 16.8261 14.9232 17.397 14.4495C18.4037 13.6127 19.4083 12.7735 20.4144 11.9361C20.5642 11.8264 20.6908 11.6842 20.7556 11.5079C20.8341 12.3482 20.8379 13.1928 20.8424 14.0358C20.842 15.1384 20.8532 16.2413 20.8188 17.3432C20.797 17.9096 20.7621 18.4778 20.6578 19.0358C20.5802 19.4429 20.4605 19.8471 20.2533 20.2081C20.084 20.5059 19.8532 20.7678 19.5821 20.9767C19.2972 21.1969 18.9661 21.351 18.623 21.4565C18.1955 21.5874 17.7508 21.652 17.3068 21.6947C16.2788 21.786 15.2457 21.7745 14.2149 21.7797C12.7306 21.7797 11.2465 21.7797 9.76239 21.7799C8.9531 21.7766 8.14312 21.7786 7.33473 21.7341C6.91951 21.7107 6.50429 21.674 6.09424 21.602C5.66417 21.5249 5.23591 21.4059 4.85195 21.1927C4.32359 20.9034 3.90635 20.4238 3.68412 19.8647C3.48123 19.3676 3.39823 18.8316 3.34537 18.3001C3.2545 17.2937 3.26597 16.282 3.26147 15.2725C3.26215 14.5233 3.25855 13.7738 3.27272 13.0246C3.28622 12.4573 3.29949 11.8878 3.37371 11.3245Z" fill="#4B4B4B"/>
<path opacity="0.5" d="M18.3151 6.35786C18.413 6.34909 18.5099 6.37023 18.6066 6.38306C19.3341 6.48742 20.066 6.67187 20.6994 7.05717C21.3123 7.42763 21.8135 7.97871 22.1266 8.62268C22.4529 9.28667 22.5947 10.0229 22.6758 10.753C22.7901 11.8432 22.7883 12.9413 22.7955 14.0363C22.7928 15.2433 22.8052 16.4505 22.7726 17.6572C22.7391 18.5628 22.6936 19.4769 22.4707 20.3591C22.2971 21.0476 21.9842 21.7134 21.4907 22.2314C21.008 22.7534 20.3705 23.1149 19.6919 23.3158C18.7342 23.6014 17.7272 23.6516 16.7343 23.6865C15.5271 23.7209 14.3195 23.7074 13.1121 23.7103C11.9132 23.7103 10.7143 23.7103 9.51544 23.7105C8.5849 23.708 7.65392 23.7087 6.72451 23.6604C6.02678 23.621 5.3259 23.556 4.64728 23.3817C4.01388 23.2202 3.40095 22.9424 2.9052 22.5107C2.40159 22.0818 2.02595 21.5134 1.80035 20.8935C1.49242 20.0532 1.4083 19.1532 1.35791 18.2661C1.3001 17.157 1.31337 16.0458 1.30933 14.9356C1.3109 13.7428 1.301 12.5486 1.37613 11.3576C1.43169 10.5798 1.52481 9.79389 1.7936 9.05725C2.02798 8.40023 2.4324 7.80169 2.97583 7.36127C3.63712 6.812 4.48129 6.54321 5.3187 6.41027C5.30228 6.91816 5.30925 7.42628 5.30678 7.9344C4.95274 8.00975 4.59937 8.10872 4.2802 8.28326C3.90614 8.48525 3.59101 8.7952 3.3852 9.16746C3.07727 9.72641 2.9801 10.3697 2.91083 10.9955C2.80691 12.0578 2.81658 13.1267 2.80803 14.1926C2.81006 15.2723 2.80196 16.3519 2.82603 17.4312C2.8411 18.0027 2.86516 18.5751 2.93377 19.1431C2.99 19.5867 3.06918 20.032 3.23562 20.449C3.35056 20.739 3.51589 21.0111 3.73497 21.2347C3.94573 21.4542 4.2035 21.6261 4.48241 21.7469C4.87244 21.9174 5.29283 22.0037 5.71255 22.0636C6.44267 22.1661 7.18134 22.1846 7.91754 22.1997C9.41714 22.221 10.917 22.2073 12.4166 22.2109C13.0237 22.2127 13.6308 22.2082 14.2378 22.2091C15.3402 22.2053 16.4439 22.2204 17.5448 22.1486C18.0423 22.114 18.5407 22.0627 19.0264 21.9446C19.3719 21.8598 19.7122 21.7354 20.0093 21.5366C20.3584 21.3035 20.6366 20.9691 20.8098 20.5874C20.9932 20.1883 21.0842 19.7547 21.1472 19.3224C21.2844 18.3163 21.2831 17.298 21.2943 16.2845C21.2979 15.0851 21.302 13.8856 21.2831 12.6865C21.2637 11.8972 21.2388 11.1039 21.1016 10.3249C21.0215 9.90568 20.9104 9.48394 20.689 9.11528C20.4985 8.79138 20.2255 8.51696 19.9013 8.32667C19.5626 8.12716 19.1811 8.01447 18.7985 7.93395C18.7985 7.66583 18.7987 7.39771 18.7969 7.12982C18.8023 6.97395 18.7762 6.81312 18.6908 6.68019C18.6069 6.53173 18.4616 6.43614 18.3151 6.35786Z" fill="#4B4B4B"/>
<path opacity="0.5" d="M4.54944 10.3528C4.75705 10.3193 4.97816 10.378 5.14033 10.5128C5.83177 11.0884 6.52275 11.6646 7.21396 12.2407C7.86558 12.7823 8.51315 13.3289 9.17332 13.8604C9.68144 14.265 10.1954 14.6686 10.7609 14.9913C11.1687 15.2219 11.6255 15.4009 12.1015 15.3838C12.5176 15.378 12.9144 15.2244 13.276 15.0289C13.8379 14.7194 14.3456 14.3231 14.8485 13.9274C15.4725 13.4276 16.0834 12.9119 16.6983 12.4015C17.4055 11.812 18.1127 11.2224 18.8203 10.6333C18.9526 10.5137 19.0983 10.3967 19.2781 10.3605C19.6236 10.2779 20.0075 10.4824 20.1339 10.8137C20.2552 11.1048 20.1659 11.4669 19.9214 11.6664C18.8129 12.59 17.7056 13.5149 16.5958 14.4367C16.0314 14.9029 15.4648 15.3683 14.8679 15.7925C14.3517 16.1576 13.8042 16.4916 13.202 16.6938C12.6692 16.8727 12.0947 16.93 11.5385 16.8463C10.7926 16.7386 10.1117 16.3816 9.49182 15.9687C8.85774 15.5413 8.26461 15.0568 7.67349 14.5727C6.50925 13.6071 5.34907 12.6366 4.18663 11.6687C3.92931 11.4631 3.84361 11.0764 3.98532 10.78C4.08766 10.5564 4.30562 10.3895 4.54944 10.3528Z" fill="#4B4B4B"/>
</svg>
