<svg width="24" height="24" viewBox="0 0 24 24" fill="none" xmlns="http://www.w3.org/2000/svg">
<g clip-path="url(#clip0_27010_52623)">
<path d="M16.0636 1.55439C16.0677 1.32536 16.2182 1.1081 16.4301 1.02158C16.6419 0.929968 16.9048 0.975615 17.072 1.13578C17.4082 1.46946 17.7405 1.80712 18.0781 2.13938C18.4097 1.80712 18.7418 1.47535 19.0738 1.14341C19.2163 1.00186 19.4334 0.943806 19.6281 0.990566C19.8137 1.03335 19.9743 1.17013 20.0454 1.34684C20.1361 1.56124 20.0858 1.82589 19.9217 1.9913C19.5902 2.3234 19.2587 2.65549 18.9262 2.98648C19.2629 3.33241 19.6106 3.66832 19.9478 4.01378C20.147 4.23819 20.1343 4.61132 19.9198 4.82111C19.7068 5.05062 19.3128 5.06191 19.0868 4.84576C18.7493 4.51049 18.414 4.17298 18.0769 3.83707C17.7475 4.16551 17.419 4.4949 17.09 4.82365C16.9874 4.92783 16.8461 4.99241 16.7001 5.00099C16.4775 5.01722 16.2529 4.89634 16.1431 4.70198C16.0111 4.4809 16.0456 4.17632 16.2257 3.99151C16.5595 3.65703 16.8945 3.32334 17.2282 2.9887C16.8988 2.65804 16.5681 2.32833 16.2382 1.99814C16.1215 1.88331 16.0571 1.71806 16.0636 1.55439Z" fill="#4B4B4B"/>
<path d="M8.48098 2.29159C9.21313 2.22253 9.94932 2.22771 10.6839 2.22411C11.7785 2.22478 12.8732 2.22208 13.9677 2.22591C14.2279 2.22568 14.4787 2.37864 14.6018 2.60739C14.7406 2.85594 14.7185 3.18298 14.5473 3.41084C14.4101 3.60068 14.1818 3.72079 13.9474 3.72529C12.7396 3.72237 11.5317 3.72282 10.3241 3.72484C9.60383 3.73429 8.87731 3.72192 8.16563 3.84878C7.94677 3.89219 7.72702 3.95269 7.53448 4.06853C7.33924 4.18527 7.18336 4.36364 7.08889 4.57013C6.97395 4.82002 6.92424 5.09376 6.88803 5.36458C6.82662 5.86077 6.81875 6.36147 6.81155 6.86081C6.80345 7.8406 6.8111 8.8204 6.8066 9.80019C6.79333 10.1547 6.49485 10.4694 6.14171 10.502C5.81174 10.5449 5.4721 10.3373 5.35806 10.0253C5.29283 9.87082 5.31037 9.701 5.30835 9.53792C5.30812 9.00417 5.3088 8.47063 5.30812 7.9371C5.31397 7.34598 5.29553 6.75329 5.33691 6.16353C5.33421 6.1597 5.32859 6.15206 5.32589 6.14823L5.32184 6.14059C5.35086 5.76608 5.36233 5.38685 5.42329 5.01459C5.48514 4.60926 5.58883 4.20596 5.77733 3.84C6.05331 3.2932 6.52859 2.85346 7.09136 2.61369C7.53065 2.42317 8.00705 2.33882 8.48098 2.29159Z" fill="#4B4B4B"/>
<path d="M9.86406 6.24787C9.97675 6.21548 10.0948 6.22403 10.2109 6.22313C11.5004 6.22335 12.7902 6.22268 14.0799 6.22335C14.3858 6.22853 14.6728 6.44311 14.7666 6.73417C14.8422 6.95595 14.8055 7.21259 14.6692 7.40356C14.5329 7.60037 14.2977 7.72408 14.0579 7.72273C12.7756 7.72251 11.4932 7.72251 10.2109 7.72251C10.0942 7.72161 9.97495 7.73038 9.86136 7.69687C9.62271 7.63434 9.4223 7.4454 9.3456 7.21102C9.24888 6.93256 9.33728 6.60326 9.56041 6.41072C9.64745 6.33424 9.75182 6.27756 9.86406 6.24787Z" fill="#4B4B4B"/>
<path d="M17.5502 6.52835C17.7135 6.37405 17.9478 6.30252 18.1701 6.33356C18.2267 6.33649 18.2819 6.36168 18.339 6.35448C18.3417 6.3619 18.3473 6.37697 18.35 6.3844C18.604 6.48719 18.7884 6.74158 18.8008 7.01622C18.8062 7.32303 18.803 7.63006 18.8044 7.93686C18.8026 8.56059 18.8066 9.18432 18.8026 9.80805C18.7852 10.1866 18.4411 10.5121 18.0616 10.5062C17.677 10.5202 17.3228 10.1916 17.3063 9.80715C17.3014 8.90001 17.3077 7.99264 17.3027 7.08528C17.3039 6.87609 17.3959 6.66983 17.5502 6.52835Z" fill="#4B4B4B"/>
<path d="M9.29252 9.22683C9.66635 9.21604 10.0411 9.22504 10.4154 9.22211C11.8021 9.22211 13.189 9.22211 14.5759 9.22211C14.7185 9.22099 14.8663 9.21469 15.001 9.27047C15.2235 9.35347 15.4 9.54871 15.4599 9.77859C15.5141 9.97855 15.4801 10.2006 15.3676 10.3749C15.2331 10.5883 14.9862 10.7251 14.7333 10.7217C12.9409 10.7215 11.1482 10.7219 9.35572 10.7213C8.96884 10.7197 8.62605 10.3747 8.62785 9.98755C8.61053 9.61214 8.91868 9.26102 9.29252 9.22683Z" fill="#4B4B4B"/>
<path opacity="0.5" d="M5.30024 6.16262C5.30677 6.15902 5.31959 6.15182 5.32588 6.14822C5.32858 6.15205 5.33421 6.1597 5.33691 6.16352C5.29552 6.75328 5.31396 7.34597 5.30812 7.93709C4.98129 8.00659 4.65537 8.09544 4.35644 8.24704C4.04738 8.4 3.77364 8.62358 3.56491 8.89776C3.21784 9.35167 3.07006 9.91962 2.97964 10.4743C2.87033 11.1684 2.84356 11.872 2.82534 12.5733C2.80172 13.765 2.8096 14.9574 2.81072 16.1493C2.81454 16.8243 2.82017 17.4995 2.85413 18.1739C2.88202 18.693 2.92476 19.213 3.02575 19.7239C3.10178 20.0968 3.21155 20.4681 3.40274 20.7997C3.6009 21.1443 3.89218 21.4344 4.2379 21.6304C4.58227 21.827 4.96825 21.9363 5.35513 22.0116C6.13293 22.1565 6.92671 22.1828 7.71576 22.2033C9.06512 22.2278 10.4147 22.215 11.7643 22.2183C13.0459 22.217 14.328 22.2217 15.6097 22.2143C16.2471 22.2084 16.885 22.1988 17.5213 22.1576C18.0196 22.1236 18.5189 22.0737 19.0057 21.9581C19.3705 21.8704 19.7311 21.7404 20.0415 21.5255C20.3647 21.3031 20.6254 20.9931 20.7945 20.6395C20.9965 20.2205 21.0921 19.7601 21.1576 19.3023C21.2475 18.6451 21.2723 17.9811 21.2882 17.3187C21.3103 16.1342 21.3031 14.9495 21.3017 13.765C21.297 13.0147 21.2912 12.2634 21.2435 11.5141C21.1999 10.8942 21.1382 10.2676 20.9448 9.67377C20.8067 9.24438 20.566 8.84176 20.2176 8.55025C19.8206 8.20858 19.3093 8.04168 18.8043 7.93686C18.803 7.63006 18.8061 7.32303 18.8007 7.01623C18.7884 6.74159 18.6039 6.48719 18.35 6.3844C18.3527 6.3763 18.3581 6.35988 18.3608 6.35179C19.2031 6.4539 20.0606 6.64329 20.7837 7.108C21.3078 7.44314 21.746 7.91145 22.0456 8.4569C22.3299 8.97087 22.4932 9.54286 22.5937 10.1191C22.706 10.766 22.7474 11.4228 22.7726 12.0783C22.8124 13.2322 22.8007 14.3869 22.8031 15.5415C22.7971 16.7197 22.8072 17.9006 22.6945 19.0747C22.609 19.9144 22.4478 20.7689 22.0296 21.5125C21.6452 22.2008 21.0361 22.7588 20.3195 23.087C19.8413 23.3097 19.3257 23.4408 18.8068 23.5256C18.2263 23.6192 17.6385 23.659 17.0515 23.6833C15.9493 23.7256 14.846 23.7157 13.7434 23.7177C12.3934 23.7177 11.0436 23.7177 9.6938 23.7177C9.01158 23.717 8.32937 23.717 7.64738 23.7015C6.91861 23.6837 6.18826 23.6532 5.46579 23.5501C4.83194 23.4577 4.19831 23.3036 3.62767 23.0054C3.07411 22.7195 2.59411 22.2923 2.24547 21.7759C2.01694 21.4378 1.84622 21.0626 1.72341 20.674C1.55201 20.133 1.46542 19.5693 1.41121 19.0059C1.31336 17.937 1.31471 16.8623 1.31021 15.7901C1.31111 14.5824 1.29964 13.3745 1.33676 12.1673C1.36307 11.4309 1.40738 10.692 1.54662 9.96731C1.68112 9.26867 1.92495 8.57657 2.35929 8.00547C2.63303 7.64333 2.97267 7.33113 3.3573 7.09C3.94819 6.7164 4.63288 6.52566 5.31689 6.41184C5.30654 6.32952 5.345 6.23325 5.30024 6.16262Z" fill="#4B4B4B"/>
<path opacity="0.5" d="M4.5312 10.3598C4.74444 10.3191 4.97386 10.3769 5.14121 10.5155C5.83175 11.0904 6.52205 11.666 7.21236 12.2413C7.86039 12.7796 8.50391 13.3233 9.16003 13.8518C9.55253 14.1663 9.94976 14.476 10.3693 14.7538C10.7386 14.9949 11.1284 15.2196 11.5596 15.3283C11.9438 15.4261 12.3547 15.4045 12.7297 15.2772C13.1941 15.12 13.61 14.8508 14.0095 14.5716C14.6915 14.0846 15.3323 13.5435 15.9779 13.0097C16.9516 12.1991 17.9246 11.3875 18.8981 10.5764C19.0421 10.4399 19.2322 10.3465 19.4335 10.3474C19.74 10.3384 20.0372 10.54 20.144 10.8272C20.2385 11.0672 20.1964 11.3544 20.0365 11.5571C19.9886 11.621 19.9267 11.672 19.8653 11.7224C18.8961 12.5297 17.9273 13.3374 16.9583 14.1447C16.3459 14.6526 15.7352 15.1639 15.095 15.6371C14.5734 16.0193 14.0277 16.3803 13.424 16.6196C12.9546 16.8067 12.4478 16.9055 11.9417 16.8873C11.4424 16.8731 10.9511 16.7433 10.4968 16.5391C9.76172 16.2073 9.11235 15.7199 8.47962 15.2266C7.77716 14.6724 7.09518 14.0932 6.40689 13.5219C5.66282 12.9015 4.91853 12.2818 4.17469 11.6612C3.92659 11.4518 3.84697 11.0737 3.98777 10.7815C4.08742 10.5647 4.2957 10.4014 4.5312 10.3598Z" fill="#4B4B4B"/>
</g>
<defs>
<clipPath id="clip0_27010_52623">
<rect width="24" height="24" fill="white"/>
</clipPath>
</defs>
</svg>
