<svg width="24" height="24" viewBox="0 0 24 24" fill="none" xmlns="http://www.w3.org/2000/svg">
<path d="M9.00465 1.26953C10.4114 1.23961 11.8183 1.25288 13.2252 1.25019C14.441 1.25918 15.659 1.25648 16.8713 1.36288C17.8538 1.44835 18.8491 1.604 19.7509 2.02192C20.5303 2.37956 21.2046 2.9619 21.6641 3.6864C21.9901 4.18664 22.2053 4.75077 22.3484 5.32861C22.5425 6.09382 22.6237 6.8822 22.6703 7.66878C22.7503 9.06987 22.742 10.4741 22.7422 11.8772C22.7404 13.1069 22.7488 14.337 22.7074 15.5663C22.6628 16.63 22.5989 17.7029 22.3308 18.7373C22.1212 19.5489 21.7494 20.3325 21.1691 20.9455C20.8171 21.3222 20.4003 21.6383 19.9432 21.8765C19.0757 22.3225 18.1024 22.5072 17.1397 22.6048C15.9289 22.7233 14.7107 22.7339 13.4949 22.7413C12.2049 22.7393 10.915 22.7472 9.625 22.7346C8.79704 22.7244 7.96885 22.6993 7.14335 22.6327C6.40221 22.567 5.65882 22.4658 4.94692 22.2418C4.37132 22.0614 3.81664 21.7975 3.34227 21.4217C2.94369 21.1092 2.5982 20.7293 2.32446 20.3033C1.83906 19.5435 1.59861 18.6559 1.46613 17.7719C1.30395 16.6543 1.27584 15.5229 1.25897 14.3955C1.24547 13.1209 1.24997 11.8459 1.25132 10.571C1.25649 9.56584 1.26414 8.5595 1.32892 7.55609C1.38628 6.70091 1.483 5.84145 1.72885 5.01753C1.8791 4.51729 2.09053 4.03257 2.38407 3.59935C2.84652 2.90994 3.50579 2.35662 4.26111 2.01315C5.13338 1.61187 6.09361 1.45825 7.04214 1.36872C7.69466 1.30889 8.34965 1.28505 9.00465 1.26953ZM9.97095 2.75474C8.82223 2.77004 7.66879 2.78061 6.5284 2.93716C5.9708 3.01701 5.4123 3.13667 4.89698 3.3706C4.34253 3.62184 3.86118 4.03774 3.54853 4.5616C3.34092 4.90327 3.20326 5.28273 3.10407 5.6687C2.97653 6.16153 2.91063 6.66762 2.86272 7.17371C2.78039 8.11639 2.7615 9.06312 2.75453 10.0087C2.748 11.2982 2.74733 12.588 2.75363 13.8775C2.7651 14.9653 2.77567 16.0557 2.89556 17.1381C2.96011 17.6984 3.05616 18.2594 3.24712 18.792C3.38231 19.1665 3.57395 19.5239 3.83419 19.8269C4.132 20.1771 4.51348 20.4536 4.93432 20.6378C5.64667 20.9507 6.42718 21.0577 7.19531 21.1317C8.13147 21.2149 9.07168 21.2278 10.011 21.2379C11.4197 21.2453 12.8287 21.2458 14.2374 21.2352C15.3407 21.2221 16.448 21.1997 17.5419 21.0438C18.0666 20.9657 18.59 20.847 19.0763 20.6304C19.4472 20.4635 19.788 20.2268 20.0665 19.9299C20.3094 19.6722 20.5019 19.3689 20.6439 19.0448C20.8449 18.5891 20.9552 18.0997 21.0339 17.6098C21.1252 17.0229 21.1668 16.4298 21.1943 15.8371C21.2503 14.6004 21.2406 13.3622 21.2419 12.1246C21.2417 11.2699 21.246 10.4152 21.2336 9.56044C21.2163 8.61101 21.1956 7.65911 21.0807 6.71553C20.9882 6.01082 20.8501 5.29442 20.5042 4.66529C20.2797 4.2566 19.9574 3.90301 19.5727 3.63961C19.2761 3.4356 18.9425 3.2903 18.6001 3.18211C18.0747 3.01836 17.5281 2.93581 16.982 2.87823C15.8538 2.76689 14.7185 2.76081 13.586 2.75159C12.3811 2.75069 11.1759 2.74574 9.97095 2.75474Z" fill="#4B4B4B"/>
<path opacity="0.5" fill-rule="evenodd" clip-rule="evenodd" d="M9.84702 3.24979C11.0698 3.23604 12.2925 3.23997 13.5152 3.24418L13.5748 3.2447C14.3883 3.25179 15.2027 3.25889 16.0142 3.32111C16.9323 3.39523 17.8776 3.5123 18.7034 3.94861C19.1815 4.20522 19.5953 4.5806 19.8946 5.03318C20.1484 5.4167 20.3163 5.85104 20.4303 6.29492C20.5684 6.83959 20.6364 7.39971 20.6788 7.95898C20.7589 9.08343 20.7594 10.211 20.76 11.338C20.7601 11.5493 20.7601 11.7606 20.7608 11.9719C20.7601 12.1915 20.76 12.4112 20.76 12.631C20.7596 13.7414 20.7592 14.8526 20.6847 15.9612C20.635 16.614 20.5637 17.2707 20.3758 17.9004C20.2655 18.2685 20.1187 18.6287 19.9059 18.9502C19.604 19.4089 19.1894 19.7944 18.7036 20.0519C18.2856 20.2748 17.8282 20.4149 17.365 20.5078C16.7903 20.6212 16.2054 20.6718 15.6212 20.7052C14.5403 20.7613 13.4577 20.7603 12.3753 20.7593C12.0446 20.7589 11.714 20.7586 11.3834 20.7599C11.2528 20.7594 11.1223 20.759 10.9917 20.7587C9.8847 20.7555 8.77629 20.7523 7.67281 20.6538C6.99674 20.5878 6.31561 20.4834 5.68138 20.2304C4.96853 19.9522 4.35029 19.4291 3.97969 18.7573C3.74806 18.3451 3.60431 17.8897 3.50745 17.4287C3.38167 16.8136 3.32355 16.1869 3.29211 15.5608C3.25533 14.8053 3.24634 14.0487 3.24269 13.2926C3.24269 13.0069 3.2422 12.7212 3.24171 12.4354C3.23988 11.3731 3.23805 10.3108 3.26151 9.2488C3.28369 8.4899 3.31738 7.72932 3.43277 6.97801C3.517 6.45299 3.64278 5.92909 3.87356 5.44758C4.19279 4.76842 4.75094 4.20634 5.42813 3.88291C5.88072 3.66223 6.37261 3.53505 6.86731 3.45222C7.83089 3.28947 8.81008 3.2702 9.78486 3.25102L9.84702 3.24979ZM14.1262 9.00296C14.3867 8.91321 14.6933 8.98384 14.8881 9.17886C15.3453 9.63636 15.8027 10.0937 16.2601 10.551L16.2619 10.5528C16.8724 11.1631 17.4828 11.7735 18.0929 12.3843C18.3605 12.6585 18.3585 13.1385 18.0886 13.4104C17.0208 14.4798 15.9522 15.5479 14.8833 16.6159C14.6388 16.86 14.2218 16.8951 13.94 16.6951C13.7661 16.577 13.6462 16.3833 13.6199 16.1748C13.588 15.9463 13.6698 15.7054 13.8347 15.5441C14.0888 15.2906 14.3424 15.0368 14.596 14.7829C14.9703 14.4083 15.3445 14.0337 15.7201 13.6603L15.7049 13.644C14.6072 13.6451 13.5095 13.6449 12.4118 13.6447C11.7533 13.6446 11.0948 13.6445 10.4364 13.6447C9.89198 13.6512 9.34405 13.6375 8.8085 13.532C8.09952 13.399 7.40336 13.1035 6.8831 12.5933C6.56617 12.2877 6.32032 11.9123 6.14825 11.5081C5.95346 11.0542 5.84685 10.5674 5.78499 10.0791C5.70492 9.43693 5.69952 8.78846 5.69772 8.14223C5.6981 8.11086 5.69778 8.07923 5.69747 8.04751C5.6961 7.90958 5.69472 7.76983 5.75013 7.64109C5.86822 7.32799 6.21393 7.12285 6.54548 7.17324C6.89255 7.21192 7.18271 7.523 7.19598 7.87209C7.19668 7.96869 7.19707 8.06534 7.19745 8.16202C7.19977 8.74183 7.20209 9.32267 7.2738 9.89871C7.33071 10.3328 7.4245 10.7737 7.64651 11.1565C7.81026 11.4431 8.06308 11.6752 8.35864 11.8207C8.79995 12.0409 9.29772 12.1129 9.78514 12.1381C10.0544 12.1476 10.3238 12.1465 10.5932 12.1454C10.7431 12.1447 10.8931 12.1441 11.043 12.1453C11.4896 12.1453 11.9361 12.1453 12.3827 12.1454C13.4995 12.1455 14.6163 12.1455 15.7332 12.1451C15.7333 12.1451 15.7332 12.145 15.7332 12.1451L14.7808 11.1926L13.8277 10.2396C13.6651 10.0759 13.5864 9.8343 13.6213 9.60645C13.6579 9.33113 13.8619 9.08776 14.1262 9.00296Z" fill="#4B4B4B"/>
</svg>
