<svg width="24" height="24" viewBox="0 0 24 24" fill="none" xmlns="http://www.w3.org/2000/svg">
<path d="M9.00462 1.2695C10.4113 1.23959 11.8183 1.25286 13.2252 1.25016C14.4409 1.25916 15.6589 1.25646 16.8713 1.36285C17.8538 1.44832 18.8491 1.60397 19.7509 2.02189C20.5302 2.37953 21.2046 2.96187 21.6641 3.68637C21.99 4.18662 22.2053 4.75074 22.3483 5.32858C22.5425 6.0938 22.6237 6.88217 22.6702 7.66875C22.7503 9.06984 22.742 10.4741 22.7422 11.8772C22.7404 13.1069 22.7487 14.337 22.7073 15.5663C22.6628 16.63 22.5989 17.7029 22.3308 18.7373C22.1212 19.5489 21.7494 20.3325 21.169 20.9455C20.817 21.3222 20.4002 21.6382 19.9432 21.8764C19.0756 22.3225 18.1024 22.5071 17.1397 22.6048C15.9289 22.7233 14.7106 22.7339 13.4949 22.7413C12.2049 22.7393 10.9149 22.7471 9.62497 22.7345C8.79701 22.7244 7.96882 22.6992 7.14332 22.6327C6.40218 22.567 5.65879 22.4658 4.94689 22.2417C4.37129 22.0613 3.81661 21.7975 3.34224 21.4216C2.94366 21.1092 2.59817 20.7293 2.32443 20.3033C1.83903 19.5435 1.59858 18.6559 1.4661 17.7719C1.30392 16.6542 1.27581 15.5228 1.25894 14.3955C1.24544 13.1208 1.24994 11.8459 1.25129 10.571C1.25646 9.56581 1.26411 8.55947 1.32889 7.55606C1.38625 6.70088 1.48297 5.84142 1.72882 5.01751C1.87907 4.51726 2.0905 4.03254 2.38404 3.59933C2.84649 2.90992 3.50576 2.35659 4.26108 2.01312C5.13335 1.61185 6.09358 1.45822 7.04211 1.3687C7.69463 1.30887 8.34962 1.28502 9.00462 1.2695ZM9.97092 2.75471C8.8222 2.77001 7.66876 2.78058 6.52837 2.93713C5.97077 3.01698 5.41227 3.13664 4.89695 3.37057C4.3425 3.62182 3.86115 4.03771 3.5485 4.56157C3.34089 4.90324 3.20323 5.2827 3.10404 5.66868C2.9765 6.1615 2.9106 6.66759 2.86269 7.17368C2.78036 8.11636 2.76147 9.06309 2.7545 10.0087C2.74797 11.2982 2.7473 12.588 2.7536 13.8775C2.76507 14.9652 2.77564 16.0557 2.89553 17.1381C2.96008 17.6984 3.05613 18.2593 3.24709 18.792C3.38227 19.1665 3.57392 19.5239 3.83416 19.8269C4.13197 20.1771 4.51345 20.4535 4.93429 20.6378C5.64664 20.9506 6.42715 21.0577 7.19528 21.1317C8.13144 21.2149 9.07165 21.2277 10.011 21.2379C11.4197 21.2453 12.8286 21.2457 14.2374 21.2352C15.3407 21.2221 16.448 21.1996 17.5418 21.0437C18.0666 20.9657 18.59 20.8469 19.0763 20.6303C19.4472 20.4634 19.788 20.2268 20.0664 19.9299C20.3094 19.6721 20.5019 19.3689 20.6438 19.0448C20.8449 18.5891 20.9551 18.0996 21.0339 17.6097C21.1252 17.0229 21.1668 16.4298 21.1942 15.8371C21.2502 14.6004 21.2406 13.3622 21.2419 12.1246C21.2417 11.2699 21.246 10.4151 21.2336 9.56041C21.2163 8.61098 21.1956 7.65908 21.0806 6.7155C20.9882 6.0108 20.8501 5.2944 20.5042 4.66527C20.2797 4.25657 19.9573 3.90298 19.5727 3.63959C19.276 3.43558 18.9425 3.29027 18.6001 3.18208C18.0747 3.01833 17.5281 2.93578 16.982 2.8782C15.8537 2.76686 14.7185 2.76079 13.586 2.75156C12.381 2.75067 11.1759 2.74572 9.97092 2.75471Z" fill="#4B4B4B"/>
<path d="M14.1267 9.00304C14.3872 8.91329 14.6938 8.98392 14.8886 9.17893C15.9565 10.2476 17.0256 11.3153 18.0933 12.3844C18.361 12.6586 18.359 13.1386 18.0891 13.4105C17.0213 14.4799 15.9527 15.548 14.8838 16.616C14.6393 16.8601 14.2223 16.8951 13.9405 16.6952C13.7666 16.5771 13.6467 16.3834 13.6204 16.1749C13.5885 15.9464 13.6703 15.7055 13.8352 15.5442C14.4641 14.9167 15.0905 14.2869 15.7206 13.6604C15.9727 13.4038 16.2305 13.1523 16.4824 12.8954C16.2345 12.6435 15.9831 12.3952 15.7336 12.1451C15.0986 11.5099 14.4632 10.8749 13.8282 10.2397C13.6656 10.076 13.5869 9.83438 13.6217 9.60652C13.6584 9.33121 13.8624 9.08784 14.1267 9.00304Z" fill="#4B4B4B"/>
<path opacity="0.5" d="M5.75056 7.64109C5.86865 7.32798 6.21437 7.12285 6.54591 7.17323C6.89298 7.21192 7.18314 7.523 7.19641 7.87209C7.20136 8.548 7.19056 9.22662 7.27424 9.89871C7.33114 10.3328 7.42494 10.7737 7.64695 11.1565C7.81069 11.4431 8.06352 11.6752 8.35907 11.8207C8.80038 12.0409 9.29815 12.1129 9.78558 12.1381C10.2046 12.153 10.6241 12.1419 11.0434 12.1453C12.6069 12.1453 14.1701 12.1458 15.7336 12.1451C15.9831 12.3952 16.2345 12.6435 16.4824 12.8954C16.2305 13.1523 15.9727 13.4038 15.7206 13.6604L15.7053 13.644C13.949 13.6458 12.1928 13.6442 10.4367 13.6447C9.89242 13.6512 9.34449 13.6375 8.80893 13.532C8.09995 13.3991 7.4038 13.1035 6.88353 12.5934C6.56661 12.2877 6.32076 11.9123 6.14869 11.5081C5.9539 11.0542 5.84728 10.5674 5.78543 10.0791C5.70535 9.43693 5.69995 8.78845 5.69815 8.14223C5.70018 7.97443 5.68241 7.79944 5.75056 7.64109Z" fill="#4B4B4B"/>
</svg>
