<svg width="24" height="24" viewBox="0 0 24 24" fill="none" xmlns="http://www.w3.org/2000/svg">
<path d="M9.00459 1.2695C10.4113 1.23958 11.8182 1.25285 13.2252 1.25016C14.4409 1.25915 15.6589 1.25645 16.8713 1.36285C17.8538 1.44832 18.8491 1.60397 19.7508 2.02189C20.5302 2.37953 21.2045 2.96187 21.6641 3.68637C21.99 4.18661 22.2053 4.75074 22.3483 5.32858C22.5424 6.09379 22.6236 6.88217 22.6702 7.66875C22.7503 9.06984 22.7419 10.4741 22.7422 11.8772C22.7404 13.1069 22.7487 14.337 22.7073 15.5663C22.6628 16.6299 22.5989 17.7029 22.3308 18.7373C22.1211 19.5489 21.7493 20.3325 21.169 20.9454C20.817 21.3222 20.4002 21.6382 19.9431 21.8764C19.0756 22.3225 18.1023 22.5071 17.1396 22.6048C15.9288 22.7233 14.7106 22.7339 13.4949 22.7413C12.2049 22.7393 10.9149 22.7471 9.62494 22.7345C8.79698 22.7244 7.96879 22.6992 7.14329 22.6326C6.40215 22.567 5.65876 22.4658 4.94686 22.2417C4.37126 22.0613 3.81658 21.7975 3.34221 21.4216C2.94363 21.1092 2.59814 20.7293 2.3244 20.3033C1.839 19.5435 1.59855 18.6559 1.46607 17.7719C1.30389 16.6542 1.27578 15.5228 1.25891 14.3955C1.24541 13.1208 1.24991 11.8459 1.25126 10.571C1.25643 9.56581 1.26408 8.55947 1.32886 7.55606C1.38622 6.70088 1.48294 5.84142 1.72879 5.0175C1.87904 4.51726 2.09047 4.03254 2.38401 3.59932C2.84646 2.90991 3.50573 2.35658 4.26104 2.01312C5.13332 1.61184 6.09355 1.45822 7.04208 1.36869C7.6946 1.30886 8.34959 1.28502 9.00459 1.2695ZM9.97089 2.75471C8.82217 2.77001 7.66873 2.78058 6.52834 2.93713C5.97074 3.01698 5.41223 3.13664 4.89692 3.37057C4.34247 3.62181 3.86112 4.03771 3.54847 4.56157C3.34086 4.90324 3.2032 5.2827 3.10401 5.66867C2.97647 6.1615 2.91057 6.66759 2.86266 7.17368C2.78033 8.11636 2.76144 9.06309 2.75447 10.0087C2.74794 11.2982 2.74727 12.588 2.75357 13.8775C2.76504 14.9652 2.77561 16.0557 2.8955 17.1381C2.96005 17.6984 3.0561 18.2593 3.24706 18.792C3.38224 19.1665 3.57388 19.5239 3.83413 19.8269C4.13193 20.1771 4.51342 20.4535 4.93426 20.6377C5.64661 20.9506 6.42712 21.0577 7.19525 21.1317C8.13141 21.2149 9.07162 21.2277 10.0109 21.2379C11.4197 21.2453 12.8286 21.2457 14.2374 21.2352C15.3406 21.2221 16.448 21.1996 17.5418 21.0437C18.0666 20.9657 18.59 20.8469 19.0763 20.6303C19.4472 20.4634 19.7879 20.2268 20.0664 19.9299C20.3093 19.6721 20.5019 19.3689 20.6438 19.0448C20.8449 18.5891 20.9551 18.0996 21.0338 17.6097C21.1252 17.0229 21.1668 16.4298 21.1942 15.8371C21.2502 14.6004 21.2405 13.3622 21.2419 12.1246C21.2417 11.2699 21.2459 10.4151 21.2336 9.56041C21.2162 8.61098 21.1956 7.65908 21.0806 6.7155C20.9882 6.01079 20.8501 5.29439 20.5041 4.66526C20.2796 4.25657 19.9573 3.90298 19.5727 3.63958C19.276 3.43557 18.9424 3.29027 18.6001 3.18208C18.0747 3.01833 17.5281 2.93578 16.9819 2.8782C15.8537 2.76686 14.7185 2.76078 13.586 2.75156C12.381 2.75066 11.1758 2.74571 9.97089 2.75471Z" fill="#4B4B4B"/>
<path opacity="0.5" fill-rule="evenodd" clip-rule="evenodd" d="M9.84726 3.24968C11.07 3.23592 12.2927 3.23985 13.5154 3.24407L13.575 3.24459C14.3885 3.25168 15.2029 3.25878 16.0144 3.32099C16.9325 3.39511 17.8778 3.51219 18.7036 3.94849C19.1817 4.20511 19.5955 4.58048 19.8948 5.03307C20.1486 5.41659 20.3165 5.85092 20.4305 6.29481C20.5686 6.83948 20.6366 7.3996 20.679 7.95887C20.7591 9.08331 20.7596 10.2109 20.7602 11.3379C20.7603 11.5492 20.7603 11.7605 20.761 11.9718C20.7603 12.1914 20.7602 12.4112 20.7602 12.6309V12.631C20.7598 13.7414 20.7594 14.8525 20.6849 15.9611C20.6352 16.6139 20.5639 17.2706 20.376 17.9003C20.2657 18.2684 20.1189 18.6286 19.9061 18.9501C19.6042 19.4088 19.1896 19.7943 18.7038 20.0518C18.2858 20.2747 17.8284 20.4148 17.3652 20.5077C16.7905 20.6212 16.2056 20.6717 15.6214 20.7051C14.5405 20.7612 13.4579 20.7602 12.3755 20.7592C12.0448 20.7589 11.7142 20.7585 11.3836 20.7599C11.253 20.7593 11.1225 20.7589 10.9919 20.7586C9.88494 20.7554 8.77653 20.7522 7.67305 20.6537C6.99698 20.5877 6.31585 20.4833 5.68162 20.2303C4.96877 19.9521 4.35053 19.429 3.97993 18.7572C3.7483 18.345 3.60455 17.8896 3.50769 17.4286C3.38191 16.8135 3.32379 16.1868 3.29235 15.5607C3.25557 14.8052 3.24658 14.0486 3.24293 13.2925C3.24293 13.0068 3.24244 12.7211 3.24195 12.4353C3.24012 11.3731 3.23829 10.3107 3.26175 9.24868C3.28393 8.48979 3.31762 7.72921 3.43301 6.9779C3.51724 6.45287 3.64302 5.92897 3.8738 5.44747C4.19303 4.76831 4.75118 4.20623 5.42837 3.88279C5.88096 3.66212 6.37285 3.53493 6.86755 3.45211C7.83113 3.28936 8.81032 3.27009 9.7851 3.25091L9.84726 3.24968ZM14.1264 9.00285C14.3869 8.9131 14.6935 8.98373 14.8883 9.17874C15.3455 9.63625 15.8029 10.0936 16.2603 10.5509L16.2621 10.5527C16.8726 11.1631 17.483 11.7734 18.0931 12.3842C18.3607 12.6584 18.3587 13.1384 18.0888 13.4103C17.021 14.4797 15.9524 15.5479 14.8835 16.6158C14.639 16.8599 14.222 16.895 13.9402 16.695C13.7663 16.5769 13.6464 16.3832 13.6201 16.1747C13.5882 15.9462 13.67 15.7053 13.8349 15.544C14.089 15.2905 14.3426 15.0367 14.5962 14.7828C14.9705 14.4082 15.3447 14.0336 15.7203 13.6602C15.7203 13.6602 15.7203 13.6602 15.7203 13.6602L15.7051 13.6439C14.6074 13.645 13.5097 13.6448 12.412 13.6446C11.7535 13.6445 11.095 13.6444 10.4366 13.6446C9.89222 13.6511 9.34429 13.6374 8.80874 13.5319C8.09976 13.399 7.4036 13.1034 6.88334 12.5933C6.56641 12.2876 6.32056 11.9122 6.14849 11.508C5.9537 11.0541 5.84709 10.5673 5.78523 10.079C5.70516 9.43682 5.69976 8.78834 5.69796 8.14212C5.69834 8.11075 5.69802 8.07912 5.69771 8.0474C5.69634 7.90947 5.69496 7.76972 5.75037 7.64098C5.86846 7.32788 6.21417 7.12274 6.54572 7.17312C6.89279 7.21181 7.18295 7.52289 7.19622 7.87198C7.19692 7.96858 7.19731 8.06523 7.19769 8.1619C7.20001 8.74172 7.20233 9.32256 7.27404 9.8986C7.33095 10.3327 7.42474 10.7736 7.64675 11.1564C7.8105 11.443 8.06332 11.6751 8.35888 11.8206C8.80019 12.0408 9.29796 12.1128 9.78538 12.138C10.0546 12.1475 10.324 12.1464 10.5934 12.1453C10.7433 12.1446 10.8933 12.144 11.0432 12.1452C11.4898 12.1452 11.9363 12.1452 12.3829 12.1453C13.4997 12.1454 14.6165 12.1455 15.7334 12.145C15.7334 12.1449 15.7334 12.1449 15.7333 12.1449L14.781 11.1925L13.8279 10.2395C13.6653 10.0758 13.5866 9.83419 13.6215 9.60634C13.6581 9.33102 13.8621 9.08765 14.1264 9.00285Z" fill="#4B4B4B"/>
</svg>
