<svg width="24" height="24" viewBox="0 0 24 24" fill="none" xmlns="http://www.w3.org/2000/svg">
<path d="M9.00465 1.26953C10.4114 1.23961 11.8183 1.25288 13.2252 1.25019C14.441 1.25918 15.659 1.25648 16.8713 1.36288C17.8538 1.44835 18.8491 1.604 19.7509 2.02192C20.5303 2.37956 21.2046 2.9619 21.6641 3.6864C21.9901 4.18664 22.2053 4.75077 22.3484 5.32861C22.5425 6.09382 22.6237 6.8822 22.6703 7.66878C22.7503 9.06987 22.742 10.4741 22.7422 11.8772C22.7404 13.1069 22.7488 14.337 22.7074 15.5663C22.6628 16.63 22.5989 17.7029 22.3308 18.7373C22.1212 19.5489 21.7494 20.3325 21.1691 20.9455C20.8171 21.3222 20.4003 21.6383 19.9432 21.8765C19.0757 22.3225 18.1024 22.5072 17.1397 22.6048C15.9289 22.7233 14.7107 22.7339 13.4949 22.7413C12.2049 22.7393 10.915 22.7472 9.625 22.7346C8.79704 22.7244 7.96885 22.6993 7.14335 22.6327C6.40221 22.567 5.65882 22.4658 4.94692 22.2418C4.37132 22.0614 3.81664 21.7975 3.34227 21.4217C2.94369 21.1092 2.5982 20.7293 2.32446 20.3033C1.83906 19.5435 1.59861 18.6559 1.46613 17.7719C1.30395 16.6543 1.27584 15.5229 1.25897 14.3955C1.24547 13.1209 1.24997 11.8459 1.25132 10.571C1.25649 9.56584 1.26414 8.5595 1.32892 7.55609C1.38628 6.70091 1.483 5.84145 1.72885 5.01753C1.8791 4.51729 2.09053 4.03257 2.38407 3.59935C2.84652 2.90994 3.50579 2.35662 4.26111 2.01315C5.13338 1.61187 6.09361 1.45825 7.04214 1.36872C7.69466 1.30889 8.34965 1.28505 9.00465 1.26953ZM9.97095 2.75474C8.82223 2.77004 7.66879 2.78061 6.5284 2.93716C5.9708 3.01701 5.4123 3.13667 4.89698 3.3706C4.34253 3.62184 3.86118 4.03774 3.54853 4.5616C3.34092 4.90327 3.20326 5.28273 3.10407 5.6687C2.97653 6.16153 2.91063 6.66762 2.86272 7.17371C2.78039 8.11639 2.7615 9.06312 2.75453 10.0087C2.748 11.2982 2.74733 12.588 2.75363 13.8775C2.7651 14.9653 2.77567 16.0557 2.89556 17.1381C2.96011 17.6984 3.05616 18.2594 3.24712 18.792C3.38231 19.1665 3.57395 19.5239 3.83419 19.8269C4.132 20.1771 4.51348 20.4536 4.93432 20.6378C5.64667 20.9507 6.42718 21.0577 7.19531 21.1317C8.13147 21.2149 9.07168 21.2278 10.011 21.2379C11.4197 21.2453 12.8287 21.2458 14.2374 21.2352C15.3407 21.2221 16.448 21.1997 17.5419 21.0438C18.0666 20.9657 18.59 20.847 19.0763 20.6304C19.4472 20.4635 19.788 20.2268 20.0665 19.9299C20.3094 19.6722 20.5019 19.3689 20.6439 19.0448C20.8449 18.5891 20.9552 18.0997 21.0339 17.6098C21.1252 17.0229 21.1668 16.4298 21.1943 15.8371C21.2503 14.6004 21.2406 13.3622 21.2419 12.1246C21.2417 11.2699 21.246 10.4152 21.2336 9.56044C21.2163 8.61101 21.1956 7.65911 21.0807 6.71553C20.9882 6.01082 20.8501 5.29442 20.5042 4.66529C20.2797 4.2566 19.9574 3.90301 19.5727 3.63961C19.2761 3.4356 18.9425 3.2903 18.6001 3.18211C18.0747 3.01836 17.5281 2.93581 16.982 2.87823C15.8538 2.76689 14.7185 2.76081 13.586 2.75159C12.3811 2.75069 11.1759 2.74574 9.97095 2.75474Z" fill="#4B4B4B"/>
<path d="M14.1269 9.00285C14.3873 8.91311 14.6939 8.98373 14.8887 9.17875C15.9567 10.2475 17.0258 11.3152 18.0935 12.3843C18.3612 12.6585 18.3592 13.1385 18.0892 13.4104C17.0215 14.4797 15.9529 15.5479 14.884 16.6159C14.6395 16.86 14.2225 16.895 13.9406 16.6951C13.7668 16.577 13.6469 16.3833 13.6206 16.1748C13.5886 15.9463 13.6705 15.7054 13.8354 15.5441C14.4643 14.9166 15.0907 14.2868 15.7207 13.6603C15.9729 13.4037 16.2306 13.1522 16.4826 12.8953C16.2347 12.6434 15.9832 12.3951 15.7338 12.145C15.0988 11.5098 14.4634 10.8748 13.8284 10.2396C13.6658 10.0758 13.587 9.83419 13.6219 9.60634C13.6586 9.33103 13.8626 9.08765 14.1269 9.00285Z" fill="#4B4B4B"/>
<path opacity="0.5" d="M5.75035 7.64098C5.86844 7.32788 6.21416 7.12274 6.5457 7.17313C6.89277 7.21182 7.18293 7.52289 7.1962 7.87199C7.20115 8.5479 7.19035 9.22651 7.27403 9.8986C7.33093 10.3327 7.42473 10.7736 7.64674 11.1564C7.81048 11.443 8.06331 11.6751 8.35886 11.8206C8.80018 12.0409 9.29794 12.1128 9.78537 12.138C10.2045 12.1529 10.6239 12.1418 11.0432 12.1452C12.6067 12.1452 14.17 12.1457 15.7334 12.145C15.9829 12.3951 16.2344 12.6434 16.4822 12.8954C16.2303 13.1522 15.9725 13.4037 15.7204 13.6603L15.7051 13.6439C13.9489 13.6457 12.1926 13.6442 10.4366 13.6446C9.89221 13.6511 9.34428 13.6374 8.80872 13.5319C8.09974 13.399 7.40359 13.1034 6.88332 12.5933C6.5664 12.2876 6.32055 11.9122 6.14848 11.508C5.95369 11.0541 5.84707 10.5673 5.78522 10.079C5.70514 9.43682 5.69974 8.78835 5.69794 8.14213C5.69997 7.97433 5.6822 7.79933 5.75035 7.64098Z" fill="#4B4B4B"/>
</svg>
