<svg width="24" height="24" viewBox="0 0 24 24" fill="none" xmlns="http://www.w3.org/2000/svg">
<path d="M6.80907 1.36845C7.96587 1.24935 9.13017 1.25955 10.2915 1.25025C11.6604 1.25175 13.0296 1.24695 14.3985 1.25385C15.1494 1.25985 15.9006 1.26915 16.65 1.32135C17.3763 1.37355 18.1071 1.46385 18.8007 1.69575C19.2612 1.85415 19.7034 2.07915 20.0799 2.39055C20.4801 2.71755 20.8128 3.12735 21.0465 3.58845C21.3336 4.14225 21.4845 4.75545 21.5769 5.36925C21.6447 5.85075 21.6927 6.33615 21.7017 6.82215C21.264 6.48345 20.7222 6.28035 20.1687 6.25485C20.1111 5.61975 20.0304 4.97205 19.7667 4.38525C19.5645 3.92925 19.2087 3.54525 18.7692 3.30975C18.309 3.06525 17.7909 2.96085 17.2791 2.89005C16.524 2.79195 15.7611 2.77365 15.0006 2.76045C13.9107 2.74755 12.8205 2.75085 11.7306 2.75055C10.7103 2.75115 9.69027 2.74755 8.67027 2.76615C7.85757 2.78775 7.03947 2.81295 6.23967 2.96985C5.66907 3.08145 5.09127 3.29475 4.68177 3.72375C4.27557 4.13355 4.07547 4.69605 3.96627 5.25165C3.81327 6.04095 3.78657 6.84765 3.76557 7.64925C3.73947 9.03945 3.75417 10.4296 3.75027 11.8198C3.75027 12.8803 3.75057 13.9411 3.74997 15.0019C3.75807 15.9022 3.75687 16.8037 3.82797 17.7016C3.87387 18.2473 3.94137 18.7969 4.11537 19.3183C4.25277 19.7338 4.48437 20.125 4.82067 20.4097C5.20227 20.7448 5.69457 20.9182 6.18417 21.022C6.92187 21.1735 7.67727 21.2074 8.42817 21.2308C9.83877 21.2635 11.25 21.2491 12.6609 21.2527C13.5306 21.2524 14.4006 21.2533 15.2703 21.238C16.0158 21.2212 16.7637 21.1954 17.5014 21.0808C17.9805 21.0013 18.4635 20.8813 18.8829 20.6278C19.2714 20.3914 19.5804 20.0329 19.767 19.6189C19.9884 19.1278 20.0778 18.5908 20.1387 18.0592C20.2239 17.2624 20.2353 16.4602 20.2458 15.6598C20.253 14.6371 20.2509 13.6144 20.2488 12.5917C20.7486 12.0925 21.2469 11.5924 21.7476 11.0938C21.7506 12.727 21.7566 14.3602 21.7422 15.9934C21.7167 17.158 21.7005 18.3397 21.405 19.474C21.2811 19.9321 21.0999 20.3782 20.8371 20.7748C20.5503 21.2092 20.1717 21.583 19.7334 21.8638C19.2933 22.1503 18.7929 22.3324 18.2841 22.4539C17.7111 22.5895 17.1237 22.6513 16.5372 22.6894C15.8454 22.7335 15.1521 22.7425 14.4591 22.7494C12.6894 22.7536 10.9197 22.7584 9.15027 22.7449C8.46957 22.7362 7.78857 22.72 7.10997 22.6633C6.45777 22.6069 5.80347 22.5121 5.18127 22.3009C4.72707 22.1428 4.29117 21.9193 3.91947 21.6115C3.51537 21.2815 3.18087 20.8663 2.94657 20.4001C2.68617 19.8946 2.54127 19.3384 2.44617 18.7804C2.31627 17.9776 2.28447 17.1634 2.26497 16.3516C2.24997 15.6022 2.24937 14.8528 2.25027 14.1031C2.25027 12.5824 2.25027 11.0614 2.25027 9.54075C2.24937 8.94015 2.25237 8.33985 2.26317 7.73925C2.28087 6.93915 2.30907 6.13635 2.42787 5.34375C2.52987 4.67235 2.70597 4.00035 3.05067 3.41025C3.45837 2.70375 4.10577 2.14125 4.85787 1.82745C5.47557 1.56195 6.14427 1.44225 6.80907 1.36845Z" fill="#4B4B4B"/>
<path opacity="0.5" d="M18.1299 7.02953C18.6615 6.50003 19.4202 6.21353 20.1687 6.25373C20.7222 6.27923 21.264 6.48233 21.7017 6.82103C22.161 7.17893 22.5027 7.68653 22.6542 8.24933C22.8666 9.01103 22.7232 9.86243 22.269 10.5104C22.1253 10.73 21.9303 10.907 21.7476 11.0927C21.2469 11.5913 20.7486 12.0914 20.2488 12.5906C19.2873 13.5521 18.3258 14.5136 17.3643 15.4754C17.0217 15.8132 16.6959 16.1774 16.2831 16.4327C15.7968 16.7624 15.2253 16.919 14.6751 17.1053C14.097 17.2982 13.5189 17.4908 12.9411 17.6834C12.6672 17.7758 12.3615 17.7734 12.0903 17.6723C11.7744 17.5598 11.5107 17.3135 11.3694 17.0102C11.2353 16.7228 11.2119 16.3847 11.3109 16.0829C11.5557 15.3476 11.8011 14.6123 12.0462 13.8773C12.1041 13.7075 12.1581 13.5362 12.2262 13.3703C12.4317 12.8567 12.7569 12.3965 13.1499 12.0092C14.8068 10.3463 16.4673 8.68673 18.1299 7.02953ZM19.41 7.92353C19.2462 8.01533 19.125 8.16143 18.9918 8.29013C19.1844 8.94113 19.653 9.49763 20.2482 9.81923C20.3952 9.89693 20.5497 9.95933 20.7084 10.0091C20.8818 9.84623 21.0606 9.67553 21.1512 9.44993C21.312 9.07973 21.276 8.62913 21.0477 8.29433C20.8638 8.01893 20.5671 7.82153 20.2392 7.76663C19.9557 7.72193 19.6557 7.77233 19.41 7.92353ZM14.0793 13.2077C13.8378 13.4675 13.6575 13.7819 13.5477 14.1188C13.371 14.6474 13.1922 15.1748 13.0206 15.7049C13.1148 15.7943 13.2063 15.8873 13.2975 15.9803C13.7445 15.8342 14.1903 15.683 14.6367 15.5351C14.877 15.4532 15.1239 15.3824 15.3429 15.2504C15.5745 15.1229 15.7761 14.9486 15.9603 14.7605C17.1597 13.5557 18.3702 12.3608 19.563 11.15C18.8349 10.7711 18.2289 10.1609 17.8482 9.43433C16.5924 10.6925 15.3309 11.9453 14.0793 13.2077Z" fill="#4B4B4B"/>
<path opacity="0.5" d="M7.81656 8.27303C7.93806 8.24213 8.06436 8.25083 8.18856 8.25023C10.2298 8.25023 12.2713 8.25023 14.3125 8.25023C14.4523 8.25053 14.5963 8.24063 14.731 8.28593C15.0145 8.37443 15.232 8.64503 15.2497 8.94293C15.2761 9.23393 15.1114 9.52883 14.8525 9.66263C14.734 9.72743 14.5975 9.75383 14.4631 9.75053C12.3022 9.74903 10.141 9.75174 7.97976 9.74934C7.61856 9.74754 7.29036 9.44633 7.25646 9.08723C7.20546 8.72513 7.46226 8.35703 7.81656 8.27303Z" fill="#4B4B4B"/>
<path opacity="0.5" d="M7.92884 12.2533C8.78564 12.2467 9.64244 12.2527 10.4992 12.2503C10.8634 12.2389 11.2 12.535 11.2435 12.895C11.2945 13.219 11.1028 13.5583 10.8019 13.6864C10.6897 13.7398 10.5634 13.7521 10.4407 13.7509C9.63074 13.7494 8.82074 13.7512 8.01074 13.75C7.69904 13.756 7.39514 13.5502 7.29464 13.2535C7.18784 12.9682 7.27754 12.6247 7.51184 12.4294C7.62884 12.3307 7.77584 12.2659 7.92884 12.2533Z" fill="#4B4B4B"/>
<path opacity="0.5" d="M7.81178 16.2764C7.91618 16.2485 8.02537 16.2494 8.13277 16.2503C8.59207 16.2518 9.05138 16.2488 9.51068 16.2518C9.76809 16.2524 10.0189 16.397 10.147 16.6205C10.249 16.7903 10.2766 17.0012 10.2265 17.1926C10.1488 17.4986 9.86078 17.7413 9.54278 17.7497C9.02138 17.7518 8.49998 17.7503 7.97888 17.7503C7.62218 17.7497 7.29817 17.4551 7.25797 17.102C7.20127 16.7393 7.45328 16.3598 7.81178 16.2764Z" fill="#4B4B4B"/>
</svg>
