<svg width="24" height="24" viewBox="0 0 24 24" fill="none" xmlns="http://www.w3.org/2000/svg">
<path d="M10.2901 1.31789C10.9138 1.19309 11.5549 1.26329 12.1795 1.34549C13.0624 1.47149 13.9387 1.63889 14.818 1.78859C15.5641 1.91939 16.3108 2.04719 17.0563 2.18069C17.6569 2.29139 18.2584 2.40449 18.8458 2.57309C19.348 2.71889 19.8439 2.91329 20.2711 3.22019C20.7352 3.55049 21.1024 4.0137 21.3238 4.5384C21.5542 5.0772 21.6433 5.66339 21.6916 6.2436C21.7453 6.9207 21.7465 7.6005 21.7507 8.2794C21.7507 10.7697 21.7507 13.26 21.7507 15.7503C21.7453 16.491 21.7453 17.2335 21.6721 17.9712C21.6142 18.5247 21.5086 19.0824 21.2665 19.5876C21.0454 20.0553 20.7055 20.4666 20.2861 20.7699C19.8505 21.087 19.3414 21.2841 18.8272 21.4329C18.2683 21.5916 17.6974 21.7014 17.1265 21.8067C15.8296 22.0383 14.5312 22.2609 13.2334 22.488C12.5461 22.6023 11.857 22.7256 11.1592 22.7484C10.6147 22.7646 10.0477 22.6932 9.5707 22.4133C9.1252 22.1559 8.7787 21.7401 8.5903 21.2628C8.4589 20.9394 8.3863 20.595 8.3413 20.2497C8.2783 19.7526 8.2642 19.2507 8.2561 18.7503C8.2444 17.3004 8.2537 15.8505 8.2507 14.4006C8.2507 11.9805 8.2507 9.5601 8.2507 7.14C8.2519 6.51 8.2474 5.88 8.2561 5.2503C8.2639 4.74959 8.2783 4.24799 8.3413 3.75059C8.4187 3.13559 8.599 2.50289 9.0235 2.03369C9.3511 1.66259 9.8053 1.41239 10.2901 1.31789ZM10.6333 2.77919C10.3579 2.81309 10.1095 2.99459 10.0021 3.25169C9.8257 3.66389 9.8059 4.12079 9.7768 4.56209C9.7342 5.59109 9.7564 6.621 9.7507 7.6506C9.7522 11.2401 9.748 14.8299 9.7528 18.4194C9.7624 19.0503 9.7567 19.6866 9.8695 20.3097C9.9202 20.5629 9.9949 20.8305 10.1875 21.0141C10.3423 21.1641 10.5601 21.2214 10.7695 21.2394C11.1289 21.2697 11.4895 21.2301 11.8465 21.1863C12.5224 21.0966 13.1926 20.9709 13.8646 20.8554C14.7178 20.7066 15.571 20.5584 16.4242 20.4087C17.062 20.2935 17.7022 20.184 18.3286 20.0148C18.7957 19.8819 19.2865 19.7214 19.6291 19.3587C19.9402 19.0356 20.0689 18.588 20.1361 18.1557C20.2396 17.469 20.2399 16.7724 20.2486 16.0797C20.2537 13.5096 20.2492 10.9395 20.2507 8.3694C20.245 7.6383 20.2513 6.9054 20.1793 6.177C20.1247 5.6886 20.0419 5.1732 19.7383 4.77029C19.4899 4.4358 19.1059 4.23959 18.7204 4.10699C18.145 3.9096 17.545 3.7992 16.9489 3.68639C16.0618 3.52499 15.1729 3.37409 14.2846 3.21809C13.453 3.07679 12.6238 2.91659 11.7871 2.80649C11.4052 2.76299 11.0161 2.71979 10.6333 2.77919Z" fill="#4B4B4B"/>
<path opacity="0.5" d="M4.77876 3.91164C5.32926 3.80094 5.89236 3.77664 6.45216 3.76104C7.08186 3.74694 7.71156 3.75024 8.34126 3.75054C8.27826 4.24794 8.26386 4.74954 8.25606 5.25024C7.44936 5.25294 6.64176 5.23974 5.83626 5.28834C5.44026 5.31894 5.03616 5.35494 4.66356 5.50254C4.38576 5.61054 4.15146 5.82714 4.02996 6.10044C3.88026 6.43404 3.83676 6.80274 3.80196 7.16334C3.74736 7.84405 3.75336 8.52744 3.75066 9.20964C3.75066 10.7696 3.75066 12.3296 3.75066 13.8893C3.75216 14.6102 3.74556 15.3311 3.76236 16.0517C3.77466 16.4834 3.79206 16.9169 3.86676 17.3429C3.92946 17.7062 4.05576 18.0896 4.35906 18.3233C4.69746 18.5837 5.13816 18.6395 5.54946 18.6881C6.44916 18.7691 7.35396 18.7445 8.25606 18.7502C8.26416 19.2506 8.27826 19.7525 8.34126 20.2496C7.51026 20.2484 6.67836 20.2604 5.84826 20.2154C5.23746 20.1782 4.61496 20.1086 4.04736 19.8662C3.55476 19.6592 3.12726 19.3004 2.84196 18.8483C2.56536 18.413 2.42826 17.9057 2.35626 17.3996C2.27106 16.7843 2.26116 16.1621 2.25336 15.542C2.24766 14.441 2.25216 13.34 2.25066 12.2393C2.25336 10.8995 2.24466 9.55944 2.25606 8.21965C2.27466 7.43484 2.28636 6.63534 2.51346 5.87724C2.67816 5.32134 3.00996 4.81134 3.47676 4.46334C3.85656 4.17444 4.31406 4.00464 4.77876 3.91164Z" fill="#4B4B4B"/>
<path opacity="0.5" d="M11.8269 10.2729C12.2589 10.1556 12.7341 10.5054 12.7479 10.9527C12.7536 11.5524 12.7488 12.1524 12.7503 12.7521C12.7473 12.9321 12.7695 13.1211 12.6933 13.2903C12.5724 13.5951 12.2352 13.7931 11.91 13.7478C11.5524 13.7127 11.253 13.386 11.2512 13.026C11.2494 12.3453 11.25 11.6646 11.2509 10.9839C11.2524 10.6521 11.5038 10.3452 11.8269 10.2729Z" fill="#4B4B4B"/>
</svg>
