<svg width="24" height="24" viewBox="0 0 24 24" fill="none" xmlns="http://www.w3.org/2000/svg">
<path d="M7.65278 1.26478C8.56577 1.24589 9.47898 1.25061 10.3922 1.24926C10.9761 1.25218 11.5616 1.24746 12.1431 1.30797C12.5979 1.35543 13.0509 1.45552 13.4681 1.64604C14.1348 1.94812 14.6929 2.43396 15.2385 2.91172C16.4966 4.03816 17.7494 5.17068 19.0057 6.29961C19.5954 6.83359 20.1919 7.36015 20.7759 7.90066C21.2867 8.38156 21.7961 8.88158 22.1515 9.49271C22.4453 9.99115 22.6009 10.5596 22.6671 11.1315C22.7494 11.8336 22.7399 12.5419 22.7431 13.2477C22.7395 14.5149 22.7559 15.7829 22.7062 17.0497C22.6612 17.9978 22.5897 18.9614 22.2739 19.8638C22.0377 20.5453 21.6205 21.1675 21.0552 21.6193C20.4751 22.0921 19.7549 22.358 19.027 22.5002C18.1095 22.6785 17.1718 22.7089 16.2399 22.7303C15.0408 22.7505 13.8415 22.7408 12.6424 22.7431C11.3077 22.7422 9.97293 22.7458 8.6382 22.7406C7.73848 22.7336 6.83718 22.724 5.94061 22.6394C5.20284 22.5665 4.45855 22.4392 3.77814 22.1331C3.13777 21.8483 2.57791 21.3841 2.18631 20.8026C1.71711 20.1112 1.50747 19.2821 1.39996 18.4634C1.26523 17.4053 1.26095 16.3364 1.2515 15.2714C1.24701 13.3379 1.25038 11.4044 1.24926 9.47067C1.2542 8.33702 1.24633 7.20135 1.34125 6.07063C1.41503 5.24919 1.54864 4.41515 1.9119 3.66658C2.25537 2.95153 2.83119 2.35052 3.53319 1.98051C4.29323 1.57676 5.15628 1.4283 6.00404 1.34823C6.5522 1.29784 7.1026 1.27693 7.65278 1.26478ZM6.83718 2.79273C6.29443 2.82107 5.7501 2.86403 5.21657 2.97267C4.83891 3.05072 4.46305 3.16544 4.13038 3.36517C3.79973 3.56311 3.5224 3.84855 3.33323 4.18414C3.15149 4.50467 3.04487 4.86186 2.97042 5.22084C2.8809 5.66126 2.83726 6.10954 2.80779 6.5576C2.77023 7.15232 2.75966 7.74815 2.75381 8.34399C2.74346 10.369 2.75134 12.3941 2.74864 14.4191C2.75336 15.4691 2.74504 16.5202 2.81679 17.5684C2.85345 18.0562 2.90699 18.5455 3.02777 19.0205C3.11437 19.3575 3.24033 19.6888 3.43827 19.9767C3.63868 20.2684 3.90927 20.5113 4.22058 20.6796C4.57102 20.8701 4.96037 20.9751 5.35062 21.0471C5.84165 21.1362 6.33986 21.1751 6.83763 21.2005C7.72206 21.243 8.60761 21.2408 9.49271 21.2437C11.5022 21.2417 13.5117 21.248 15.521 21.2397C16.4954 21.2275 17.4748 21.223 18.4409 21.0811C18.8851 21.0116 19.3316 20.9088 19.7333 20.7003C20.077 20.5224 20.3741 20.2551 20.5849 19.9306C20.7869 19.6204 20.909 19.2655 20.9925 18.9067C21.1016 18.4303 21.1504 17.9422 21.1832 17.4552C21.2475 16.4217 21.2397 15.3854 21.2437 14.3503C21.2417 13.5932 21.2496 12.8358 21.2295 12.0787C21.2133 11.6304 21.1942 11.1761 21.0692 10.7424L21.0512 10.7435L21.0701 10.7424C20.9956 10.5035 20.8879 10.275 20.745 10.0692C20.5361 9.766 20.2749 9.50418 20.0133 9.24709C19.8114 9.05207 19.6055 8.86178 19.3982 8.67262C18.1341 7.5293 16.8648 6.3916 15.5986 5.25053C14.9828 4.70126 14.3789 4.13803 13.7459 3.60855C13.586 3.47741 13.4229 3.34943 13.2504 3.23494C12.9499 3.03003 12.6055 2.89102 12.2463 2.83299C11.9748 2.78845 11.6995 2.77271 11.4249 2.76304C10.8936 2.74639 10.3621 2.75044 9.83077 2.74887C8.83276 2.75202 7.8343 2.74504 6.83718 2.79273Z" fill="#4B4B4B"/>
<path d="M7.81337 13.586C8.21307 13.5855 8.61255 13.5858 9.01225 13.586C9.0118 14.523 9.01292 15.4603 9.01157 16.3974C9.0073 16.7557 8.90136 17.132 8.63976 17.3889C8.37592 17.6568 7.99309 17.7719 7.62488 17.7825C7.19819 17.8003 6.74586 17.7096 6.40846 17.4339C6.05555 17.1552 5.91249 16.6866 5.92284 16.2503C6.31737 16.2521 6.71189 16.2509 7.10664 16.2512C7.11429 16.4007 7.13454 16.5735 7.2605 16.6734C7.38601 16.7629 7.57382 16.7681 7.69776 16.6729C7.79583 16.5895 7.81292 16.4511 7.81337 16.3301C7.8136 15.4153 7.8136 14.5008 7.81337 13.586Z" fill="#4B4B4B"/>
<path d="M9.73292 13.586C10.3571 13.5862 10.9813 13.5844 11.6052 13.5871C11.9957 13.5927 12.3999 13.6962 12.7045 13.9501C12.9771 14.1728 13.1262 14.5208 13.1465 14.8679C13.1757 15.2295 13.0673 15.6079 12.8223 15.88C12.6003 16.1232 12.2895 16.2752 11.9669 16.3306C11.6259 16.3906 11.2786 16.3594 10.9345 16.367C10.9336 16.8396 10.9354 17.3122 10.9336 17.7845C10.533 17.7843 10.1324 17.7847 9.73203 17.7843C9.73248 16.3848 9.73068 14.9853 9.73292 13.586ZM10.9345 14.5269C10.9343 14.8301 10.9343 15.1333 10.9345 15.4365C11.0985 15.4385 11.2624 15.4376 11.4264 15.4376C11.5555 15.4367 11.6939 15.4129 11.7944 15.3258C11.8866 15.2466 11.9213 15.1202 11.9233 15.0026C11.9262 14.8764 11.8983 14.7383 11.8032 14.6485C11.7031 14.5539 11.5594 14.5282 11.4264 14.5269C11.2624 14.5262 11.0985 14.5269 10.9345 14.5269Z" fill="#4B4B4B"/>
<path d="M14.9367 13.8361C15.2606 13.6658 15.6274 13.5903 15.9918 13.5862C16.4936 13.5772 17.0182 13.6879 17.4215 14.0012C17.7375 14.2372 17.9469 14.5975 18.022 14.9823C17.5978 14.9907 17.1736 14.9817 16.7494 14.9866C16.6324 14.8154 16.4446 14.6958 16.2399 14.6627C16.0172 14.6265 15.7802 14.6447 15.5753 14.7439C15.4036 14.8267 15.2658 14.9722 15.1857 15.1445C15.0786 15.365 15.064 15.6171 15.084 15.8578C15.1045 16.0811 15.1771 16.3081 15.3303 16.4766C15.4839 16.6405 15.7035 16.7294 15.9237 16.7561C16.1695 16.7888 16.4334 16.7768 16.6551 16.6549C16.8295 16.562 16.9583 16.4023 17.0465 16.2285C16.6484 16.2246 16.25 16.228 15.8519 16.2267C15.8517 15.9518 15.8517 15.6769 15.8519 15.4021C16.591 15.3998 17.3302 15.4014 18.0693 15.4014C18.0679 15.7557 18.0709 16.1101 18.0684 16.4646C18.0693 16.4934 18.0641 16.5211 18.0522 16.5476C17.7796 17.1597 17.1927 17.6176 16.5346 17.7393C16.1414 17.8117 15.7309 17.7982 15.3443 17.6957C14.9347 17.587 14.559 17.3484 14.2972 17.0144C14.0509 16.7053 13.9173 16.3175 13.8815 15.9266C13.8437 15.5024 13.9 15.062 14.0948 14.6796C14.2743 14.3166 14.5761 14.0185 14.9367 13.8361Z" fill="#4B4B4B"/>
<path opacity="0.5" d="M12.2463 2.83299C12.6055 2.89102 12.9499 3.03003 13.2504 3.23494C13.4229 3.34943 13.586 3.47741 13.7459 3.60855C13.7459 4.25724 13.7459 4.90594 13.7459 5.55486C13.7484 6.08592 13.749 6.61743 13.783 7.14759C13.8143 7.56011 13.8503 7.98253 14.0118 8.36806C14.1294 8.6508 14.3647 8.87932 14.6494 8.99156C15.0253 9.14182 15.4338 9.17916 15.8341 9.20907C16.4487 9.24843 17.0645 9.24461 17.6799 9.24753C18.4577 9.24708 19.2355 9.24798 20.0133 9.24708C20.2749 9.50418 20.5361 9.766 20.745 10.0692C20.8879 10.275 20.9956 10.5035 21.0701 10.7424L21.0512 10.7435C20.797 10.7516 20.5426 10.7447 20.2882 10.7469C19.2054 10.7458 18.1226 10.7494 17.0395 10.7447C16.4918 10.7397 15.9432 10.7307 15.3978 10.6774C14.9353 10.63 14.4708 10.547 14.0415 10.3625C13.4872 10.1293 13.0158 9.70302 12.7355 9.17038C12.5173 8.76259 12.4078 8.30643 12.3457 7.85095C12.2726 7.29874 12.2589 6.74114 12.2506 6.18489C12.2422 5.06744 12.2488 3.95021 12.2463 2.83299Z" fill="#4B4B4B"/>
</svg>
