<svg width="24" height="24" viewBox="0 0 24 24" fill="none" xmlns="http://www.w3.org/2000/svg">
<path d="M7.65211 1.26478C8.67037 1.24476 9.68885 1.24971 10.7071 1.25016C11.2852 1.25488 11.8662 1.25826 12.4388 1.3471C12.8489 1.41008 13.2511 1.53065 13.6213 1.71891C14.2698 2.05023 14.8163 2.54013 15.3586 3.01833C16.7215 4.24262 18.0821 5.46916 19.444 6.69413C19.9708 7.17166 20.5066 7.63951 21.0197 8.13211C21.4914 8.58962 21.948 9.08019 22.2485 9.67063C22.5429 10.2397 22.6599 10.8808 22.704 11.5146C22.7528 12.2189 22.7406 12.9254 22.7431 13.6307C22.7399 14.8312 22.7541 16.0323 22.6977 17.2319C22.6466 18.1705 22.5616 19.1262 22.2192 20.01C21.9543 20.7001 21.4925 21.3155 20.8897 21.7453C20.252 22.2066 19.4796 22.4361 18.7103 22.5566C17.7375 22.7064 16.7507 22.7231 15.7685 22.7372C14.4783 22.748 13.1881 22.7413 11.8979 22.7431C10.6311 22.7411 9.36427 22.7487 8.09769 22.7357C7.26343 22.7235 6.42737 22.7035 5.5985 22.6014C4.89919 22.513 4.19629 22.3587 3.56694 22.0305C2.94118 21.7068 2.4099 21.2032 2.05541 20.5943C1.63366 19.8741 1.46159 19.0405 1.3705 18.2198C1.25668 17.1444 1.25713 16.0616 1.25016 14.9814C1.24971 12.8595 1.24656 10.7377 1.25218 8.61593C1.2632 7.5311 1.2686 6.44131 1.42313 5.36547C1.54527 4.53098 1.79224 3.68795 2.31475 3.01181C2.60109 2.63842 2.9576 2.31902 3.36157 2.07767C4.07775 1.64783 4.91134 1.47014 5.73233 1.37612C6.36978 1.30437 7.01128 1.2794 7.65211 1.26478ZM5.56836 2.91014C5.11895 2.97987 4.66662 3.08176 4.26017 3.29252C3.91175 3.47156 3.61147 3.7435 3.40026 4.07348C3.20322 4.37938 3.08356 4.72802 3.00124 5.08049C2.89552 5.53889 2.84649 6.0081 2.8132 6.47685C2.74572 7.50253 2.75314 8.53113 2.74864 9.55861C2.75044 11.516 2.74504 13.4733 2.75201 15.4306C2.76281 16.3974 2.76663 17.3682 2.89484 18.3282C2.96075 18.7909 3.05837 19.2562 3.26463 19.6789C3.42905 20.0167 3.67693 20.3139 3.98351 20.5316C4.27771 20.7419 4.62006 20.8742 4.96847 20.9637C5.38977 21.0716 5.82253 21.1252 6.25507 21.1625C7.09991 21.2311 7.94789 21.2358 8.79498 21.2419C10.9687 21.2444 13.1426 21.2457 15.3164 21.241C16.3389 21.2304 17.3659 21.2309 18.3806 21.0901C18.8347 21.0224 19.2915 20.9225 19.7045 20.7151C20.0547 20.5397 20.3591 20.2727 20.5752 19.9456C20.7768 19.6411 20.9002 19.2924 20.9848 18.9393C21.0928 18.482 21.1429 18.0137 21.1771 17.5461C21.2482 16.4898 21.2392 15.4304 21.2437 14.3726C21.2417 13.615 21.2496 12.8577 21.2302 12.1003C21.214 11.646 21.196 11.1853 21.0701 10.7456H21.0642C21.0084 10.5179 20.8984 10.3058 20.7723 10.1097C20.5595 9.78939 20.2866 9.51565 20.0133 9.24731C19.7927 9.03363 19.5664 8.82579 19.3395 8.61908C18.083 7.48409 16.8229 6.35359 15.5649 5.22039C14.9603 4.68124 14.3678 4.12813 13.7459 3.60877C13.5826 3.47404 13.4155 3.3438 13.2387 3.22707C12.9411 3.02643 12.601 2.8899 12.2463 2.83299C11.8342 2.76663 11.4156 2.76124 10.9991 2.75359C10.0771 2.74572 9.15486 2.74797 8.23265 2.75539C7.34328 2.76866 6.45008 2.78126 5.56836 2.91014Z" fill="#4B4B4B"/>
<path d="M6.1489 13.5833C6.62036 13.5801 7.09203 13.5853 7.56349 13.5815C7.84352 13.9623 8.10917 14.3534 8.38808 14.7349C8.62403 14.3519 8.85548 13.9663 9.09031 13.5828C9.54782 13.5815 10.0055 13.5824 10.4633 13.5833C10.001 14.2878 9.53679 14.9911 9.07231 15.694C9.56424 16.3904 10.0616 17.083 10.5557 17.7778C10.0822 17.7838 9.60877 17.7773 9.13552 17.7805C8.85121 17.3891 8.57567 16.9914 8.29046 16.6007C8.04034 16.9892 7.81136 17.3909 7.56439 17.7809C7.10733 17.7787 6.6505 17.7793 6.19366 17.7807C6.66197 17.0623 7.13634 16.3479 7.60397 15.629C7.11947 14.9468 6.628 14.2693 6.1489 13.5833Z" fill="#4B4B4B"/>
<path d="M11.2775 13.5934C11.6783 13.5932 12.0789 13.5932 12.4795 13.5932C12.4818 14.6893 12.476 15.7851 12.4825 16.881C12.9299 16.879 13.3772 16.8805 13.8246 16.8801C13.8255 17.1752 13.8231 17.4703 13.826 17.7654C12.9762 17.7694 12.1264 17.7706 11.2766 17.7647C11.2786 16.3742 11.2768 14.9837 11.2775 13.5934Z" fill="#4B4B4B"/>
<path d="M15.2358 13.7733C15.6238 13.5907 16.0665 13.5615 16.4878 13.6098C16.8513 13.6519 17.2152 13.7943 17.4721 14.0619C17.6768 14.2722 17.7782 14.5658 17.791 14.8555C17.3659 14.855 16.9406 14.8593 16.5157 14.8539C16.5051 14.779 16.4961 14.6994 16.4484 14.6378C16.3353 14.4873 16.1086 14.4425 15.9426 14.5266C15.7871 14.6101 15.7662 14.8494 15.8915 14.9686C15.9855 15.0543 16.1018 15.111 16.2195 15.1571C16.5452 15.2804 16.883 15.3746 17.1939 15.5345C17.4026 15.6335 17.5823 15.7912 17.7101 15.9833C17.8385 16.185 17.8635 16.4358 17.8324 16.6686C17.7868 17.029 17.5564 17.3547 17.2424 17.5335C16.8506 17.767 16.3747 17.8036 15.9302 17.7537C15.5357 17.7067 15.1333 17.5609 14.8591 17.2627C14.6584 17.0479 14.5602 16.755 14.5451 16.4651C14.9628 16.4655 15.3807 16.4631 15.7984 16.4662C15.8094 16.5944 15.8533 16.7341 15.9682 16.8061C16.1223 16.9017 16.336 16.9021 16.488 16.8022C16.6342 16.7042 16.6288 16.4712 16.5022 16.3591C16.4165 16.2878 16.3112 16.2458 16.2091 16.2044C15.8501 16.0679 15.472 15.9774 15.1308 15.7975C14.8984 15.6605 14.6848 15.4581 14.6067 15.1929C14.5426 14.9821 14.5453 14.7554 14.5887 14.5408C14.6652 14.2003 14.9227 13.9178 15.2358 13.7733Z" fill="#4B4B4B"/>
<path opacity="0.5" d="M12.2463 2.83299C12.601 2.8899 12.9411 3.02643 13.2387 3.22707C13.4155 3.3438 13.5826 3.47404 13.7459 3.60877C13.7461 4.26512 13.7459 4.92146 13.7461 5.57781C13.7488 6.10617 13.7495 6.63498 13.7839 7.16221C13.815 7.56484 13.8514 7.97646 14.0057 8.35366C14.12 8.6373 14.3507 8.86965 14.6342 8.98504C14.9947 9.1344 15.3883 9.17308 15.7739 9.20502C16.3936 9.24821 17.015 9.24416 17.6358 9.24753C18.4285 9.24753 19.2209 9.24776 20.0133 9.24731C20.2866 9.51565 20.5595 9.78939 20.7723 10.1097C20.8984 10.3058 21.0084 10.5179 21.0642 10.7456C19.7482 10.7478 18.4321 10.7483 17.116 10.7451C16.5481 10.7406 15.9792 10.7334 15.4135 10.679C14.9628 10.6338 14.51 10.5548 14.0887 10.3823C13.5302 10.159 13.0502 9.74238 12.7598 9.2147C12.5261 8.79633 12.4098 8.32375 12.3459 7.85207C12.2771 7.33698 12.2614 6.81649 12.2521 6.29736C12.2402 5.14279 12.2494 3.98778 12.2463 2.83299Z" fill="#4B4B4B"/>
</svg>
