<svg width="24" height="24" viewBox="0 0 24 24" fill="none" xmlns="http://www.w3.org/2000/svg">
<path d="M7.65272 1.26503C8.56571 1.24613 9.47892 1.25086 10.3922 1.24951C10.9761 1.25243 11.5616 1.24771 12.143 1.30821C12.5978 1.35567 13.0508 1.45577 13.4681 1.64628C14.1348 1.94836 14.6928 2.43421 15.2385 2.91196C16.4965 4.03841 17.7494 5.17093 19.0056 6.29985C19.5954 6.83384 20.1919 7.3604 20.7758 7.9009C21.2866 8.3818 21.7961 8.88182 22.1515 9.49296C22.4452 9.9914 22.6009 10.5598 22.667 11.1318C22.7493 11.8338 22.7399 12.5421 22.7431 13.2479C22.7395 14.5151 22.7559 15.7831 22.7062 17.0499C22.6612 17.998 22.5897 18.9616 22.2738 19.864C22.0377 20.5455 21.6204 21.1677 21.0552 21.6196C20.4751 22.0924 19.7549 22.3582 19.027 22.5004C18.1095 22.6787 17.1718 22.7091 16.2399 22.7305C15.0408 22.7507 13.8415 22.7411 12.6424 22.7433C11.3076 22.7424 9.97287 22.746 8.63814 22.7408C7.73842 22.7339 6.83713 22.7242 5.94056 22.6396C5.20279 22.5667 4.45849 22.4394 3.77808 22.1333C3.13771 21.8485 2.57786 21.3843 2.18625 20.8028C1.71705 20.1114 1.50742 19.2823 1.3999 18.4636C1.26517 17.4055 1.26089 16.3366 1.25145 15.2716C1.24695 13.3381 1.25032 11.4046 1.2492 9.47091C1.25414 8.33727 1.24627 7.2016 1.34119 6.07088C1.41497 5.24943 1.54858 4.41539 1.91184 3.66683C2.25531 2.95178 2.83113 2.35076 3.53313 1.98075C4.29317 1.57701 5.15623 1.42855 6.00399 1.34848C6.55214 1.29809 7.10254 1.27717 7.65272 1.26503ZM6.83713 2.79298C6.29437 2.82132 5.75004 2.86428 5.21651 2.97292C4.83885 3.05097 4.46299 3.16568 4.13032 3.36542C3.79967 3.56336 3.52234 3.8488 3.33317 4.18439C3.15143 4.50492 3.04481 4.8621 2.97036 5.22109C2.88084 5.6615 2.8372 6.10979 2.80773 6.55785C2.77017 7.15256 2.7596 7.7484 2.75375 8.34424C2.7434 10.3692 2.75128 12.3943 2.74858 14.4193C2.7533 15.4693 2.74498 16.5204 2.81673 17.5686C2.8534 18.0564 2.90693 18.5457 3.02772 19.0207C3.11431 19.3577 3.24027 19.689 3.43821 19.9769C3.63862 20.2686 3.90922 20.5116 4.22052 20.6798C4.57096 20.8703 4.96031 20.9754 5.35057 21.0473C5.84159 21.1364 6.33981 21.1753 6.83758 21.2007C7.722 21.2432 8.60755 21.241 9.49265 21.2439C11.5022 21.2419 13.5117 21.2482 15.521 21.2399C16.4954 21.2277 17.4747 21.2232 18.4408 21.0813C18.8851 21.0118 19.3315 20.909 19.7333 20.7005C20.077 20.5226 20.3741 20.2554 20.5848 19.9308C20.7868 19.6206 20.909 19.2657 20.9924 18.9069C21.1015 18.4305 21.1503 17.9424 21.1832 17.4554C21.2475 16.4219 21.2396 15.3856 21.2437 14.3505C21.2416 13.5934 21.2495 12.836 21.2295 12.0789C21.2133 11.6306 21.1942 11.1763 21.0691 10.7426C20.9947 10.5038 20.8878 10.2752 20.745 10.0694C20.536 9.76625 20.2749 9.50443 20.0133 9.24733C19.8113 9.05232 19.6055 8.86203 19.3981 8.67286C18.134 7.52955 16.8647 6.39185 15.5986 5.25078C14.9828 4.7015 14.3788 4.13828 13.7459 3.6088C13.5859 3.47766 13.4229 3.34968 13.2503 3.23519C12.9498 3.03028 12.6055 2.89127 12.2463 2.83324C11.9748 2.7887 11.6995 2.77296 11.4248 2.76328C10.8935 2.74664 10.362 2.75069 9.83072 2.74911C8.8327 2.75226 7.83424 2.74529 6.83713 2.79298Z" fill="#4B4B4B"/>
<path d="M7.81342 13.5862C8.21312 13.5858 8.61259 13.586 9.01229 13.5862C9.01184 14.5233 9.01297 15.4606 9.01162 16.3976C9.00735 16.7559 8.9014 17.1322 8.63981 17.3891C8.37597 17.657 7.99314 17.7722 7.62493 17.7827C7.19824 17.8005 6.7459 17.7099 6.40851 17.4341C6.05559 17.1554 5.91254 16.6869 5.92288 16.2505C6.31741 16.2523 6.71194 16.2512 7.10669 16.2514C7.11434 16.401 7.13458 16.5737 7.26054 16.6736C7.38605 16.7631 7.57387 16.7683 7.69781 16.6731C7.79587 16.5897 7.81297 16.4514 7.81342 16.3304C7.81364 15.4156 7.81364 14.501 7.81342 13.5862Z" fill="#4B4B4B"/>
<path d="M9.73309 13.5859C10.3573 13.5861 10.9814 13.5843 11.6054 13.587C11.9959 13.5927 12.4001 13.6961 12.7046 13.9501C12.9772 14.1728 13.1264 14.5207 13.1466 14.8678C13.1758 15.2295 13.0674 15.6078 12.8225 15.88C12.6005 16.1231 12.2896 16.2752 11.9671 16.3305C11.6261 16.3906 11.2788 16.3593 10.9346 16.3669C10.9337 16.8395 10.9355 17.3121 10.9337 17.7845C10.5331 17.7842 10.1325 17.7847 9.73219 17.7842C9.73264 16.3847 9.73084 14.9852 9.73309 13.5859ZM10.9346 14.5268C10.9344 14.83 10.9344 15.1332 10.9346 15.4364C11.0986 15.4384 11.2626 15.4375 11.4266 15.4375C11.5557 15.4366 11.694 15.4128 11.7946 15.3257C11.8868 15.2466 11.9214 15.1202 11.9234 15.0025C11.9264 14.8763 11.8985 14.7382 11.8033 14.6485C11.7032 14.5538 11.5595 14.5281 11.4266 14.5268C11.2626 14.5261 11.0986 14.5268 10.9346 14.5268Z" fill="#4B4B4B"/>
<path d="M14.9369 13.8363C15.2608 13.666 15.6276 13.5904 15.992 13.5864C16.4938 13.5774 17.0184 13.6881 17.4217 14.0014C17.7377 14.2373 17.9471 14.5977 18.0222 14.9825C17.598 14.9909 17.1738 14.9819 16.7496 14.9868C16.6326 14.8156 16.4448 14.696 16.2401 14.6629C16.0174 14.6267 15.7804 14.6449 15.5755 14.7441C15.4038 14.8269 15.266 14.9724 15.1859 15.1447C15.0788 15.3651 15.0642 15.6173 15.0842 15.858C15.1047 16.0813 15.1773 16.3083 15.3305 16.4767C15.4841 16.6407 15.7037 16.7296 15.9239 16.7563C16.1697 16.7889 16.4336 16.777 16.6553 16.6551C16.8297 16.5622 16.9585 16.4025 17.0467 16.2286C16.6486 16.2248 16.2502 16.2282 15.8521 16.2268C15.8519 15.952 15.8519 15.6771 15.8521 15.4023C16.5912 15.4 17.3304 15.4016 18.0695 15.4016C18.0681 15.7558 18.0711 16.1103 18.0686 16.4648C18.0695 16.4936 18.0643 16.5213 18.0524 16.5478C17.7798 17.1599 17.1929 17.6178 16.5348 17.7395C16.1416 17.8119 15.7311 17.7984 15.3445 17.6959C14.9349 17.5872 14.5592 17.3486 14.2974 17.0145C14.0511 16.7055 13.9175 16.3177 13.8817 15.9268C13.8439 15.5026 13.9002 15.0622 14.095 14.6798C14.2745 14.3167 14.5763 14.0187 14.9369 13.8363Z" fill="#4B4B4B"/>
<path opacity="0.5" d="M12.2462 2.83301C12.6055 2.89104 12.9498 3.03005 13.2503 3.23496C13.4228 3.34945 13.5859 3.47743 13.7458 3.60857C13.7458 4.25726 13.7458 4.90596 13.7458 5.55488C13.7483 6.08594 13.749 6.61745 13.783 7.14761C13.8142 7.56013 13.8502 7.98255 14.0117 8.36808C14.1294 8.65082 14.3646 8.87934 14.6494 8.99158C15.0252 9.14184 15.4337 9.17918 15.8341 9.20909C16.4486 9.24845 17.0645 9.24463 17.6799 9.24755C18.4577 9.2471 19.2355 9.248 20.0133 9.2471C20.2749 9.5042 20.536 9.76602 20.745 10.0692C20.8878 10.275 20.9956 10.5036 21.07 10.7424L21.0511 10.7436C20.7969 10.7517 20.5425 10.7447 20.2882 10.7469C19.2053 10.7458 18.1225 10.7494 17.0395 10.7447C16.4918 10.7397 15.9432 10.7307 15.3977 10.6774C14.9353 10.63 14.4708 10.547 14.0414 10.3625C13.4872 10.1293 13.0157 9.70304 12.7355 9.1704C12.5173 8.7626 12.4077 8.30645 12.3457 7.85097C12.2726 7.29876 12.2588 6.74116 12.2505 6.18491C12.2422 5.06746 12.2487 3.95023 12.2462 2.83301Z" fill="#4B4B4B"/>
</svg>
