<svg width="24" height="24" viewBox="0 0 24 24" fill="none" xmlns="http://www.w3.org/2000/svg">
<path d="M7.65031 1.26478C8.66902 1.24499 9.68817 1.24971 10.7069 1.25038C11.2631 1.25443 11.8216 1.25826 12.3734 1.33698C12.7897 1.39591 13.2 1.51085 13.5779 1.69732C14.245 2.02774 14.8042 2.52978 15.3587 3.01833C16.7404 4.25972 18.1201 5.50336 19.5012 6.74564C20.0167 7.21305 20.5413 7.67078 21.0422 8.15393C21.5255 8.62425 21.9916 9.13237 22.2858 9.74598C22.5337 10.2552 22.6453 10.8187 22.6929 11.3796C22.7489 12.0385 22.7411 12.7004 22.7431 13.3608C22.7397 14.5905 22.7548 15.8207 22.7062 17.0497C22.6612 17.9978 22.5897 18.9616 22.2737 19.864C22.0409 20.5356 21.6328 21.1495 21.0797 21.5993C20.4954 22.0845 19.7643 22.3564 19.0259 22.5004C18.0861 22.6828 17.1255 22.7107 16.1709 22.7316C14.8667 22.751 13.5626 22.7404 12.2582 22.7431C10.8783 22.7408 9.49833 22.7492 8.11861 22.7359C7.27018 22.7237 6.41949 22.704 5.57668 22.5987C4.874 22.5085 4.16772 22.3504 3.53814 22.0152C2.8854 21.6711 2.33927 21.1292 1.99018 20.479C1.58306 19.7236 1.431 18.8633 1.3498 18.0178C1.24611 16.8664 1.25466 15.7089 1.24926 14.5539C1.24926 13.2562 1.24926 11.9586 1.24926 10.661C1.25106 9.5892 1.24274 8.51719 1.26928 7.44562C1.29942 6.48067 1.34216 5.5056 1.58418 4.5663C1.76525 3.86024 2.09972 3.18163 2.61863 2.66272C2.89327 2.38201 3.21335 2.14695 3.56154 1.96544C4.06291 1.70317 4.61443 1.55134 5.17001 1.45552C5.98898 1.31719 6.82144 1.28502 7.65031 1.26478ZM6.42129 2.81814C5.94534 2.85391 5.46849 2.90609 5.00446 3.02081C4.65829 3.10718 4.31708 3.23314 4.02084 3.43535C3.70977 3.64656 3.45537 3.93874 3.28487 4.27344C3.09436 4.6457 2.99404 5.0562 2.92521 5.46624C2.82692 6.06838 2.79453 6.67861 2.77383 7.2875C2.73897 8.49447 2.75179 9.70234 2.74887 10.9098C2.74932 12.2297 2.74774 13.5495 2.74977 14.8694C2.75539 15.8735 2.75224 16.8796 2.84289 17.8806C2.8872 18.3354 2.95153 18.7915 3.08716 19.2292C3.19738 19.5844 3.36562 19.9272 3.61754 20.2041C3.8562 20.4729 4.16322 20.6762 4.4959 20.8096C4.93451 20.9866 5.40461 21.068 5.87224 21.1243C6.65567 21.2133 7.4454 21.2271 8.23333 21.2376C9.23764 21.2469 10.2422 21.2428 11.2467 21.2437C12.6635 21.2424 14.0802 21.2473 15.497 21.2399C16.4498 21.2289 17.4066 21.2232 18.3525 21.0941C18.8156 21.0269 19.2817 20.927 19.7027 20.716C20.0484 20.5433 20.3494 20.2812 20.5653 19.9605C20.7792 19.6427 20.907 19.2754 20.9929 18.9044C21.1018 18.4292 21.1504 17.9424 21.1832 17.4568C21.2491 16.3929 21.2397 15.3265 21.2437 14.2612C21.2419 13.5261 21.2493 12.7909 21.2289 12.056C21.2127 11.6154 21.1918 11.1689 21.0696 10.7424L21.0509 10.7435L21.0698 10.7411C20.9934 10.4977 20.8829 10.2647 20.7358 10.0559C20.528 9.75813 20.2707 9.49946 20.012 9.24619C19.3066 8.57185 18.5704 7.9308 17.8479 7.2749C17.1304 6.62913 16.4129 5.98336 15.6954 5.33758C15.0471 4.75996 14.4121 4.1666 13.7461 3.60877C13.5997 3.48821 13.4499 3.3708 13.2931 3.26373C12.9818 3.04442 12.6228 2.89282 12.2463 2.83299C11.8637 2.77113 11.475 2.76281 11.0884 2.75494C10.4136 2.74549 9.73856 2.74999 9.06377 2.74999C8.18272 2.75449 7.30054 2.75629 6.42129 2.81814Z" fill="#4B4B4B"/>
<path d="M7.39276 13.5858C8.44228 13.5862 9.49181 13.5846 10.5413 13.5867C10.5375 13.8719 10.5461 14.1571 10.5382 14.4423C10.5425 14.4886 10.5017 14.5197 10.4788 14.555C9.90095 15.3155 9.32086 16.0746 8.74481 16.8367C9.34335 16.8371 9.94167 16.8371 10.5402 16.8367C10.5413 17.1525 10.5404 17.4685 10.5407 17.7843C9.49136 17.7834 8.44206 17.7868 7.39299 17.7825C7.39344 17.5002 7.39141 17.2177 7.39366 16.9354C7.39141 16.9082 7.39951 16.8848 7.41795 16.8652C8.00052 16.0843 8.58849 15.3074 9.17173 14.5266C8.57882 14.5266 7.9859 14.5266 7.39299 14.5266C7.39254 14.2131 7.39276 13.8995 7.39276 13.5858Z" fill="#4B4B4B"/>
<path d="M11.2616 13.5871C11.661 13.5842 12.0605 13.5864 12.4602 13.5858C12.4618 14.9855 12.4613 16.385 12.4607 17.7847C12.0605 17.7827 11.6604 17.7872 11.2604 17.7825C11.2629 16.3839 11.2607 14.9855 11.2616 13.5871Z" fill="#4B4B4B"/>
<path d="M13.184 13.586C13.8132 13.5885 14.4423 13.5846 15.0714 13.5882C15.459 13.5966 15.8593 13.7025 16.1603 13.9567C16.4277 14.1793 16.5751 14.5233 16.5953 14.867C16.6257 15.2365 16.5116 15.6243 16.2554 15.8974C16.0175 16.15 15.683 16.2971 15.3422 16.3432C15.0253 16.3841 14.7052 16.3625 14.387 16.3666C14.3791 16.8387 14.3858 17.311 14.3838 17.7834C13.9832 17.7859 13.5828 17.7834 13.1822 17.7847C13.182 16.3852 13.1784 14.9855 13.184 13.586ZM14.3822 14.5305C14.3854 14.833 14.3813 15.1355 14.3843 15.4378C14.5527 15.439 14.7214 15.4381 14.8899 15.4376C15.0177 15.4356 15.1544 15.4088 15.2514 15.3197C15.338 15.2397 15.3699 15.1178 15.3721 15.0035C15.3753 14.88 15.3488 14.7468 15.2595 14.656C15.1634 14.5595 15.0213 14.5307 14.8901 14.5282C14.7208 14.5271 14.5514 14.5244 14.3822 14.5305Z" fill="#4B4B4B"/>
<path opacity="0.5" d="M12.2463 2.83299C12.6228 2.89282 12.9818 3.04442 13.2931 3.26373C13.4499 3.3708 13.5997 3.48821 13.7461 3.60877C13.7457 4.25792 13.7461 4.90707 13.7459 5.55621C13.7486 6.08682 13.7493 6.61811 13.783 7.14782C13.8145 7.56056 13.8503 7.98365 14.0124 8.36918C14.1303 8.65192 14.3656 8.88 14.6506 8.99201C15.019 9.13957 15.4194 9.17691 15.8117 9.20772C16.4334 9.24866 17.0569 9.24439 17.6795 9.24753C18.4571 9.24663 19.2346 9.24933 20.012 9.24618C20.2707 9.49946 20.528 9.75812 20.7358 10.0559C20.8829 10.2647 20.9934 10.4977 21.0698 10.7411L21.0509 10.7435C20.8643 10.7516 20.6773 10.7447 20.4906 10.7469C19.3518 10.7458 18.2132 10.7494 17.0744 10.7449C16.5152 10.7399 15.9547 10.7321 15.3978 10.6774C14.9464 10.6311 14.4929 10.5508 14.0721 10.3756C13.5158 10.1488 13.0392 9.72978 12.7522 9.2012C12.5234 8.78598 12.4091 8.31857 12.3459 7.85207C12.2753 7.32236 12.2602 6.78725 12.2515 6.25372C12.2409 5.11333 12.2494 3.97316 12.2463 2.83299Z" fill="#4B4B4B"/>
</svg>
