<svg width="24" height="24" viewBox="0 0 24 24" fill="none" xmlns="http://www.w3.org/2000/svg">
<path d="M7.65274 1.26503C8.56551 1.24613 9.47872 1.25086 10.3918 1.24951C10.9804 1.25243 11.5708 1.24771 12.1572 1.30979C12.6181 1.3586 13.0772 1.46319 13.4985 1.66023C14.1865 1.9803 14.759 2.49112 15.3238 2.98754C16.5634 4.10027 17.8005 5.21592 19.0387 6.33C19.5903 6.82844 20.1467 7.32171 20.694 7.82488C21.1715 8.27069 21.6486 8.7282 22.0145 9.27343C22.3328 9.74128 22.5332 10.2829 22.6246 10.84C22.7327 11.4867 22.7368 12.1448 22.742 12.7987C22.7413 14.036 22.7516 15.2734 22.724 16.5105C22.6941 17.4914 22.6527 18.4831 22.4052 19.4377C22.2215 20.1496 21.88 20.8328 21.3519 21.3519C20.8422 21.8706 20.1739 22.2098 19.4758 22.3953C18.5531 22.6419 17.5927 22.6889 16.6425 22.7208C15.4291 22.7532 14.2151 22.7406 13.0016 22.7433C11.5695 22.7424 10.1374 22.7456 8.70519 22.7413C7.85653 22.7354 7.0072 22.7267 6.16079 22.6594C5.47565 22.602 4.78669 22.5058 4.13552 22.2766C3.48322 22.0514 2.88446 21.6621 2.43775 21.1337C1.95685 20.5759 1.67299 19.8752 1.52003 19.1611C1.323 18.2391 1.28858 17.2926 1.26429 16.3533C1.24022 15.0482 1.25214 13.743 1.24899 12.4377C1.25214 10.9385 1.24135 9.43942 1.25889 7.94049C1.27981 6.91661 1.30298 5.88463 1.51014 4.87807C1.66556 4.12343 1.96674 3.38117 2.48723 2.80287C2.77559 2.4783 3.12041 2.20388 3.50234 1.99717C3.96547 1.74458 4.47561 1.58938 4.9916 1.48861C5.86793 1.32081 6.76292 1.2873 7.65274 1.26503ZM6.43565 2.81727C5.98084 2.85078 5.52581 2.89982 5.0809 3.00261C4.73406 3.08336 4.39104 3.20032 4.08828 3.39129C3.75111 3.60272 3.47422 3.90705 3.29181 4.26019C3.09949 4.6302 2.99782 5.03935 2.92787 5.44827C2.83812 5.98923 2.80303 6.53783 2.78077 7.08531C2.74613 8.0073 2.75085 8.93018 2.7486 9.85262C2.74995 11.7121 2.745 13.5713 2.75197 15.4308C2.76165 16.3674 2.76704 17.3074 2.88266 18.2386C2.94676 18.7204 3.04033 19.2065 3.24997 19.6487C3.40989 19.9897 3.65439 20.2916 3.95895 20.514C4.24708 20.7264 4.58448 20.8618 4.92862 20.9535C5.60206 21.129 6.30024 21.1751 6.9928 21.2079C7.84033 21.2432 8.68877 21.2414 9.53675 21.2439C11.0292 21.2439 12.5218 21.2439 14.0142 21.2439C15.0336 21.2417 16.0537 21.2489 17.0724 21.2048C17.6003 21.1796 18.1293 21.1407 18.65 21.046C19.0448 20.9724 19.4389 20.8649 19.7918 20.6688C20.1436 20.4742 20.4414 20.1834 20.6434 19.8359C20.8294 19.5171 20.9394 19.1606 21.0156 18.8014C21.1112 18.3437 21.156 17.8769 21.1859 17.4109C21.2473 16.3841 21.2399 15.355 21.2435 14.3269C21.2417 13.5851 21.2491 12.8432 21.23 12.1017C21.214 11.6457 21.1958 11.1837 21.0692 10.7426C20.9954 10.5042 20.8879 10.2757 20.7455 10.0703C20.5363 9.7667 20.2749 9.5042 20.0127 9.24688C19.3104 8.57614 18.5781 7.93802 17.859 7.28527C17.1214 6.6215 16.3839 5.95774 15.6463 5.29397C15.0143 4.73052 14.3953 4.15245 13.7459 3.6088C13.5903 3.48104 13.4315 3.35665 13.2641 3.24441C12.96 3.03477 12.6109 2.89172 12.2461 2.83301C11.8932 2.77588 11.5348 2.76508 11.1781 2.75676C10.4808 2.74484 9.78328 2.75046 9.086 2.75001C8.20225 2.75451 7.3176 2.75609 6.43565 2.81727Z" fill="#4B4B4B"/>
<path d="M5.0083 13.588C5.61089 13.5844 6.21325 13.5864 6.81562 13.5873C7.28954 13.5954 7.76819 13.7241 8.16137 13.994C8.49719 14.2194 8.74889 14.5611 8.8798 14.9425C8.99991 15.3011 9.02532 15.6895 8.96662 16.0625C8.89599 16.5166 8.66274 16.9437 8.31635 17.246C7.88808 17.6212 7.30956 17.7872 6.74724 17.7845C6.16782 17.7839 5.58795 17.7866 5.00853 17.7832C5.00785 16.3848 5.01033 14.9864 5.0083 13.588ZM6.2146 14.6013C6.2182 15.3188 6.2155 16.0364 6.21595 16.7537C6.57674 16.7517 6.96564 16.7921 7.29179 16.6039C7.50368 16.4835 7.66787 16.2777 7.72501 16.0397C7.79406 15.777 7.78551 15.4941 7.69959 15.2363C7.60287 14.9596 7.36152 14.7457 7.08328 14.6614C6.80257 14.5723 6.50431 14.6018 6.2146 14.6013Z" fill="#4B4B4B"/>
<path d="M11.5952 13.6033C12.0788 13.546 12.5853 13.6252 13.0125 13.8654C13.3681 14.0586 13.6619 14.3629 13.8445 14.7239C14.0175 15.0566 14.0818 15.4383 14.0622 15.8108C14.0438 16.1736 13.9345 16.5344 13.732 16.8376C13.5067 17.1806 13.1744 17.4512 12.7954 17.6078C12.2752 17.8228 11.6778 17.8412 11.144 17.6642C10.7762 17.5432 10.4429 17.3199 10.1923 17.0245C9.71027 16.4687 9.59983 15.6495 9.83443 14.9633C9.96917 14.5834 10.2225 14.2471 10.5486 14.0102C10.8545 13.7871 11.2196 13.6477 11.5952 13.6033ZM11.6184 14.6601C11.4301 14.7017 11.2587 14.811 11.1384 14.9608C10.9535 15.1909 10.9044 15.5004 10.9236 15.7879C10.9355 16.0364 11.0214 16.289 11.1982 16.4687C11.3523 16.6275 11.5718 16.7078 11.7895 16.7231C11.9976 16.7366 12.2167 16.7128 12.3998 16.6057C12.5898 16.4984 12.7311 16.3153 12.8019 16.1102C12.8798 15.885 12.8834 15.6401 12.8449 15.4068C12.7972 15.1272 12.6238 14.8648 12.3687 14.7343C12.1384 14.6182 11.8671 14.6086 11.6184 14.6601Z" fill="#4B4B4B"/>
<path d="M15.4027 14.1429C15.7448 13.8226 16.2014 13.6397 16.6657 13.5981C17.0132 13.5673 17.369 13.5958 17.7024 13.7018C18.0791 13.8264 18.4208 14.0632 18.6577 14.3831C18.8194 14.6006 18.924 14.8566 18.9845 15.12C18.5564 15.1202 18.1284 15.1202 17.7004 15.12C17.6052 14.931 17.4439 14.7727 17.2442 14.6989C17.0166 14.6159 16.7579 14.6195 16.5339 14.7115C16.3053 14.8089 16.1353 15.0174 16.0606 15.2515C15.9855 15.49 15.9814 15.7468 16.0271 15.9916C16.0712 16.2118 16.1812 16.427 16.3643 16.5633C16.5705 16.7197 16.8467 16.7586 17.0971 16.7131C17.3571 16.6688 17.5852 16.488 17.6988 16.2516C18.1268 16.2484 18.5549 16.2525 18.9831 16.2493C18.9172 16.5687 18.7697 16.8715 18.5549 17.1173C18.3329 17.3724 18.0375 17.5607 17.7163 17.665C17.3576 17.7824 16.9725 17.8076 16.5984 17.7658C16.2226 17.7226 15.8532 17.5899 15.552 17.3578C15.2614 17.1371 15.037 16.8303 14.9171 16.4855C14.7749 16.0836 14.7529 15.6436 14.8258 15.2252C14.9002 14.8167 15.0968 14.4267 15.4027 14.1429Z" fill="#4B4B4B"/>
<path opacity="0.5" d="M12.2464 2.83252C12.6112 2.89123 12.9603 3.03429 13.2644 3.24392C13.4318 3.35616 13.5906 3.48055 13.7462 3.60831C13.746 4.2651 13.746 4.92167 13.746 5.57824C13.7489 6.10368 13.7496 6.62979 13.7833 7.15432C13.815 7.5646 13.851 7.98476 14.0121 8.36804C14.1275 8.64516 14.3553 8.87076 14.6329 8.98435C14.9937 9.13393 15.3877 9.17284 15.7735 9.20478C16.4076 9.24887 17.0435 9.24392 17.6787 9.24729C18.4567 9.24662 19.2347 9.24842 20.013 9.24639C20.2752 9.50371 20.5366 9.76621 20.7458 10.0699C20.8882 10.2753 20.9959 10.5033 21.0697 10.7418L21.0504 10.7433C20.6536 10.7512 20.2568 10.7445 19.86 10.7467C18.8557 10.7451 17.8516 10.7508 16.8473 10.7424C16.3068 10.735 15.7652 10.7229 15.228 10.6581C14.7953 10.6046 14.3618 10.5123 13.9646 10.3279C13.4174 10.0787 12.9612 9.63642 12.6976 9.09614C12.4967 8.69172 12.3964 8.24591 12.3391 7.80055C12.2709 7.25757 12.2583 6.70964 12.2502 6.16306C12.2421 5.05281 12.2489 3.94278 12.2464 2.83252Z" fill="#4B4B4B"/>
</svg>
