<svg width="24" height="24" viewBox="0 0 24 24" fill="none" xmlns="http://www.w3.org/2000/svg">
<path d="M7.65225 1.26475C8.67051 1.24473 9.68899 1.24968 10.7072 1.25013C11.2853 1.25485 11.8663 1.25823 12.439 1.34707C12.849 1.41005 13.2512 1.53062 13.6214 1.71888C14.2699 2.0502 14.8165 2.5401 15.3588 3.0183C16.7216 4.24259 18.0822 5.46914 19.4442 6.6941C19.971 7.17163 20.5067 7.63948 21.0198 8.13208C21.4915 8.58959 21.9481 9.08016 22.2486 9.6706C22.543 10.2397 22.66 10.8807 22.7041 11.5146C22.7529 12.2188 22.7407 12.9253 22.7432 13.6307C22.7401 14.8312 22.7542 16.0323 22.6978 17.2318C22.6467 18.1705 22.5617 19.1262 22.2194 20.0099C21.9544 20.7 21.4926 21.3154 20.8898 21.7453C20.2521 22.2066 19.4797 22.436 18.7105 22.5566C17.7376 22.7064 16.7509 22.723 15.7686 22.7372C14.4784 22.748 13.1882 22.7413 11.898 22.7431C10.6312 22.741 9.36442 22.7487 8.09784 22.7356C7.26358 22.7235 6.42751 22.7035 5.59865 22.6014C4.89934 22.513 4.19643 22.3587 3.56708 22.0305C2.94133 21.7068 2.41004 21.2032 2.05555 20.5943C1.63381 19.8741 1.46174 19.0405 1.37064 18.2197C1.25683 17.1443 1.25728 16.0615 1.25031 14.9814C1.24986 12.8594 1.24671 10.7377 1.25233 8.6159C1.26335 7.53107 1.26875 6.44128 1.42328 5.36544C1.54541 4.53095 1.79239 3.68792 2.3149 3.01178C2.60123 2.6384 2.95775 2.319 3.36172 2.07765C4.0779 1.64781 4.91149 1.47011 5.73248 1.37609C6.36993 1.30434 7.01143 1.27937 7.65225 1.26475ZM5.56851 2.91011C5.1191 2.97984 4.66676 3.08173 4.26031 3.29249C3.9119 3.47154 3.61162 3.74348 3.40041 4.07345C3.20337 4.37935 3.08371 4.72799 3.00138 5.08046C2.89567 5.53886 2.84663 6.00807 2.81334 6.47682C2.74586 7.5025 2.75329 8.53111 2.74879 9.55858C2.75059 11.5159 2.74519 13.4733 2.75216 15.4306C2.76296 16.3973 2.76678 17.3681 2.89499 18.3281C2.9609 18.7908 3.05852 19.2562 3.26478 19.6788C3.4292 20.0167 3.67707 20.3138 3.98365 20.5316C4.27786 20.7419 4.6202 20.8741 4.96862 20.9636C5.38991 21.0716 5.82268 21.1251 6.25522 21.1625C7.10005 21.2311 7.94804 21.2358 8.79512 21.2419C10.9688 21.2444 13.1428 21.2457 15.3165 21.241C16.339 21.2304 17.366 21.2309 18.3807 21.0901C18.8348 21.0224 19.2917 20.9225 19.7046 20.7151C20.0549 20.5397 20.3592 20.2727 20.5753 19.9456C20.7769 19.6411 20.9004 19.2924 20.9849 18.9393C21.0929 18.482 21.1431 18.0137 21.1773 17.5461C21.2483 16.4898 21.2393 15.4304 21.2438 14.3725C21.2418 13.615 21.2497 12.8576 21.2303 12.1003C21.2141 11.6459 21.1962 11.1853 21.0702 10.7455H21.0643C21.0086 10.5179 20.8986 10.3058 20.7724 10.1097C20.5596 9.78936 20.2868 9.51562 20.0135 9.24728C19.7928 9.0336 19.5665 8.82576 19.3396 8.61905C18.0831 7.48406 16.8231 6.35356 15.565 5.22036C14.9604 4.68121 14.368 4.12811 13.746 3.60874C13.5827 3.47401 13.4156 3.34378 13.2388 3.22704C12.9412 3.0264 12.6011 2.88987 12.2464 2.83296C11.8344 2.76661 11.4158 2.76121 10.9992 2.75356C10.0772 2.74569 9.15501 2.74794 8.2328 2.75536C7.34343 2.76863 6.45023 2.78123 5.56851 2.91011Z" fill="#4B4B4B"/>
<path d="M6.14893 13.5833C6.62038 13.5801 7.09206 13.5853 7.56351 13.5815C7.84355 13.9623 8.10919 14.3534 8.3881 14.7349C8.62405 14.3519 8.85551 13.9663 9.09033 13.5828C9.54784 13.5815 10.0056 13.5824 10.4633 13.5833C10.0011 14.2878 9.53682 14.9911 9.07234 15.694C9.56426 16.3904 10.0616 17.083 10.5557 17.7778C10.0823 17.7838 9.60879 17.7773 9.13554 17.7805C8.85123 17.3891 8.57569 16.9914 8.29048 16.6007C8.04036 16.9892 7.81138 17.3909 7.56441 17.7809C7.10735 17.7787 6.65052 17.7793 6.19369 17.7807C6.66199 17.0623 7.13637 16.3479 7.604 15.629C7.1195 14.9468 6.62803 14.2693 6.14893 13.5833Z" fill="#4B4B4B"/>
<path d="M11.2773 13.5933C11.6781 13.593 12.0787 13.593 12.4793 13.593C12.4816 14.6891 12.4757 15.785 12.4823 16.8808C12.9296 16.8788 13.377 16.8804 13.8244 16.8799C13.8253 17.175 13.8228 17.4702 13.8258 17.7653C12.976 17.7693 12.1262 17.7704 11.2764 17.7646C11.2784 16.3741 11.2766 14.9836 11.2773 13.5933Z" fill="#4B4B4B"/>
<path d="M15.2361 13.7734C15.6241 13.5907 16.0668 13.5615 16.4881 13.6099C16.8516 13.6519 17.2155 13.7943 17.4724 14.062C17.6771 14.2723 17.7785 14.5658 17.7913 14.8555C17.3662 14.8551 16.9409 14.8593 16.516 14.854C16.5054 14.779 16.4964 14.6994 16.4487 14.6378C16.3356 14.4873 16.1089 14.4426 15.9429 14.5267C15.7874 14.6101 15.7665 14.8495 15.8918 14.9687C15.9858 15.0544 16.1021 15.111 16.2197 15.1572C16.5454 15.2804 16.8833 15.3747 17.1941 15.5346C17.4029 15.6336 17.5826 15.7912 17.7104 15.9833C17.8388 16.1851 17.8638 16.4359 17.8327 16.6687C17.7871 17.029 17.5567 17.3547 17.2427 17.5335C16.8509 17.767 16.3749 17.8037 15.9305 17.7537C15.536 17.7067 15.1336 17.561 14.8594 17.2627C14.6587 17.0479 14.5604 16.7551 14.5454 16.4651C14.9631 16.4656 15.381 16.4631 15.7987 16.4662C15.8097 16.5945 15.8536 16.7341 15.9685 16.8061C16.1226 16.9017 16.3363 16.9022 16.4883 16.8023C16.6345 16.7042 16.6291 16.4712 16.5025 16.3592C16.4168 16.2879 16.3115 16.2458 16.2094 16.2044C15.8504 16.0679 15.4723 15.9775 15.1311 15.7975C14.8987 15.6605 14.685 15.4581 14.607 15.1929C14.5429 14.9822 14.5456 14.7554 14.589 14.5408C14.6655 14.2003 14.923 13.9178 15.2361 13.7734Z" fill="#4B4B4B"/>
<path opacity="0.5" d="M12.2461 2.83301C12.6008 2.88992 12.9409 3.02645 13.2385 3.22708C13.4153 3.34382 13.5824 3.47406 13.7457 3.60879C13.7459 4.26514 13.7457 4.92148 13.7459 5.57783C13.7486 6.10619 13.7493 6.635 13.7837 7.16223C13.8148 7.56486 13.8512 7.97648 14.0055 8.35368C14.1198 8.63732 14.3506 8.86967 14.634 8.98506C14.9945 9.13441 15.3882 9.1731 15.7737 9.20504C16.3934 9.24823 17.0149 9.24418 17.6357 9.24755C18.4283 9.24755 19.2207 9.24778 20.0132 9.24733C20.2865 9.51567 20.5593 9.78941 20.7721 10.1097C20.8983 10.3058 21.0083 10.518 21.064 10.7456C19.748 10.7478 18.4319 10.7483 17.1158 10.7451C16.5479 10.7406 15.9791 10.7334 15.4134 10.679C14.9626 10.6338 14.5098 10.5548 14.0885 10.3823C13.53 10.159 13.05 9.7424 12.7596 9.21472C12.5259 8.79635 12.4096 8.32377 12.3458 7.85209C12.2769 7.337 12.2612 6.81651 12.252 6.29738C12.24 5.14281 12.2493 3.9878 12.2461 2.83301Z" fill="#4B4B4B"/>
</svg>
