<svg width="24" height="24" viewBox="0 0 24 24" fill="none" xmlns="http://www.w3.org/2000/svg">
<path d="M7.65293 1.26494C8.67096 1.24514 9.68922 1.24987 10.7072 1.25032C11.2563 1.25437 11.8078 1.25842 12.3526 1.33422C12.7647 1.39112 13.1711 1.50111 13.5465 1.68241C14.2229 2.00923 14.7877 2.51555 15.3469 3.00792C16.7565 4.27405 18.1636 5.54265 19.5722 6.80946C20.1149 7.30228 20.6698 7.7825 21.1896 8.29962C21.642 8.75105 22.0664 9.24814 22.328 9.83679C22.5824 10.3982 22.6746 11.0166 22.7115 11.627C22.7518 12.3092 22.741 12.993 22.7432 13.6761C22.7403 14.8521 22.7533 16.0287 22.6994 17.2037C22.6494 18.1396 22.5671 19.092 22.2326 19.9757C21.9767 20.6593 21.5297 21.2729 20.9415 21.7077C20.3207 22.174 19.5625 22.4144 18.8045 22.5415C17.8755 22.6951 16.9315 22.7179 15.9922 22.7347C14.6658 22.7498 13.3394 22.7408 12.0129 22.7433C10.7 22.741 9.38714 22.7493 8.07422 22.7356C7.26358 22.7235 6.45136 22.7032 5.64566 22.6074C4.9576 22.5233 4.26639 22.3778 3.64131 22.0687C3.0187 21.7628 2.48292 21.2821 2.11539 20.6935C1.66103 19.9694 1.47389 19.1163 1.37717 18.2773C1.25705 17.1909 1.25773 16.0959 1.25053 15.0043C1.24963 12.8821 1.24693 10.7597 1.2521 8.63746C1.2629 7.55015 1.26785 6.45789 1.42125 5.37913C1.54226 4.54486 1.78654 3.70205 2.30568 3.02411C2.54388 2.71079 2.83156 2.43502 3.15501 2.21099C3.55561 1.93275 4.00997 1.73932 4.47872 1.60931C5.51137 1.32837 6.58946 1.29463 7.65293 1.26494ZM6.09349 2.84597C5.63778 2.89118 5.18095 2.95686 4.74324 3.09474C4.39752 3.20383 4.0644 3.36916 3.79359 3.6132C3.52389 3.85163 3.31921 4.15798 3.18515 4.49088C3.00003 4.94771 2.91861 5.43828 2.86238 5.92526C2.75329 6.95274 2.75733 7.98764 2.74991 9.01939C2.74856 11.0818 2.74721 13.1442 2.75081 15.2066C2.75981 16.2039 2.75958 17.2046 2.87767 18.1963C2.93908 18.6754 3.02882 19.1579 3.22789 19.601C3.37094 19.9213 3.5853 20.2106 3.85657 20.4339C4.13435 20.6654 4.46882 20.819 4.81364 20.9209C5.26733 21.0547 5.73855 21.1161 6.20821 21.1586C7.07576 21.2317 7.94691 21.2362 8.81672 21.2421C10.9841 21.2446 13.1513 21.2459 15.3185 21.2412C16.3401 21.2306 17.3665 21.2311 18.3807 21.0903C18.8342 21.0228 19.2901 20.9231 19.7026 20.7164C20.0488 20.5435 20.35 20.2812 20.5659 19.9598C20.7731 19.6521 20.8992 19.2976 20.9849 18.9388C21.1015 18.4451 21.1512 17.9383 21.1849 17.4331C21.2474 16.4068 21.2398 15.3782 21.2438 14.3505C21.2418 13.5934 21.2497 12.836 21.2297 12.0789C21.2135 11.6311 21.1944 11.1769 21.0695 10.7435L21.0515 10.7442L21.0693 10.7415C20.9942 10.4979 20.883 10.2655 20.7366 10.0568C20.5288 9.75896 20.2715 9.50052 20.013 9.24702C19.7732 9.01489 19.5269 8.78951 19.28 8.56526C18.0541 7.45883 16.8255 6.35577 15.5988 5.25069C14.9827 4.70164 14.3794 4.13819 13.746 3.60893C13.5908 3.48095 13.432 3.35678 13.2649 3.24454C12.9606 3.03491 12.6113 2.89141 12.2462 2.83315C11.8865 2.77467 11.5215 2.76454 11.158 2.75622C10.46 2.74498 9.7621 2.75037 9.06414 2.75015C8.07332 2.75622 7.08071 2.75442 6.09349 2.84597Z" fill="#4B4B4B"/>
<path d="M6.07332 13.5856C6.711 13.5861 7.34845 13.5843 7.98612 13.587C8.37188 13.5942 8.76978 13.692 9.07793 13.9338C9.35775 14.1491 9.51992 14.4939 9.54579 14.8426C9.58065 15.2015 9.47876 15.5788 9.24101 15.8536C9.0172 16.1089 8.69713 16.2679 8.36536 16.3271C8.01334 16.3916 7.65435 16.3595 7.29896 16.3665C7.29581 16.8388 7.29874 17.3114 7.29761 17.7837C6.88959 17.7853 6.48157 17.7837 6.07355 17.7844C6.07287 16.3849 6.07355 14.9854 6.07332 13.5856ZM7.29896 15.4377C7.47486 15.4366 7.65075 15.4388 7.82665 15.4368C7.95373 15.433 8.08982 15.4044 8.18474 15.314C8.26976 15.2344 8.30125 15.114 8.30283 15.0009C8.30575 14.8801 8.27966 14.7494 8.19284 14.6599C8.09859 14.5627 7.95778 14.5322 7.8271 14.5279C7.65165 14.5243 7.47576 14.5283 7.30031 14.5256C7.29536 14.8295 7.29739 15.1338 7.29896 15.4377Z" fill="#4B4B4B"/>
<path d="M10.2721 13.5857C10.8746 13.5857 11.4772 13.5846 12.0796 13.5871C12.5749 13.595 13.076 13.7362 13.478 14.0311C13.7933 14.259 14.0273 14.5921 14.1496 14.9603C14.2569 15.2876 14.2834 15.6389 14.2421 15.9803C14.1953 16.3845 14.0212 16.7732 13.7504 17.0771C13.4762 17.3823 13.1057 17.5944 12.7101 17.6966C12.4242 17.7733 12.1264 17.7881 11.8317 17.7836C11.3119 17.7825 10.7919 17.7838 10.2721 17.7829C10.2721 16.3839 10.2718 14.9848 10.2721 13.5857ZM11.4788 14.5991C11.4815 15.317 11.4792 16.035 11.4799 16.7532C11.7413 16.7487 12.0067 16.7735 12.2638 16.7147C12.6043 16.6443 12.9076 16.383 12.989 16.0395C13.0583 15.7718 13.0502 15.4833 12.9584 15.2221C12.8549 14.9401 12.6001 14.7277 12.3128 14.6503C12.0416 14.5734 11.7568 14.6033 11.4788 14.5991Z" fill="#4B4B4B"/>
<path d="M14.9805 13.5856C15.9603 13.5858 16.9401 13.5849 17.9199 13.5863C17.919 13.8956 17.9199 14.2049 17.9194 14.5141C17.3416 14.5153 16.7635 14.5123 16.1857 14.5157C16.1881 14.7613 16.1845 15.0072 16.187 15.2528C16.6126 15.2539 17.0381 15.2537 17.4637 15.253C17.4669 15.5486 17.4637 15.8444 17.4655 16.1404C17.0393 16.1428 16.613 16.1404 16.1868 16.1415C16.1868 16.689 16.1854 17.2367 16.1857 17.7842C15.7839 17.7846 15.3824 17.7839 14.9809 17.7846C14.98 16.3849 14.9807 14.9854 14.9805 13.5856Z" fill="#4B4B4B"/>
<path opacity="0.5" d="M12.2461 2.83301C12.6112 2.89126 12.9605 3.03477 13.2648 3.2444C13.4319 3.35664 13.5907 3.48081 13.7459 3.60879C13.7461 4.26491 13.7459 4.92081 13.7462 5.57693C13.7497 6.16287 13.7486 6.74993 13.7972 7.3343C13.833 7.70634 13.8773 8.08804 14.0404 8.42926C14.1701 8.70097 14.414 8.90903 14.696 9.01025C15.1032 9.15871 15.5404 9.18997 15.9696 9.21741C16.5391 9.24733 17.1097 9.24508 17.6799 9.24755C18.4575 9.2471 19.2353 9.24845 20.0129 9.24688C20.2714 9.50037 20.5287 9.75882 20.7365 10.0566C20.8829 10.2654 20.9941 10.4977 21.0692 10.7413L21.0514 10.744C19.7853 10.7503 18.5187 10.7463 17.2526 10.7458C16.7276 10.7429 16.2022 10.7382 15.6781 10.7013C15.2487 10.67 14.8177 10.6167 14.4041 10.4934C14.0752 10.3958 13.7592 10.2489 13.4841 10.0431C13.1699 9.8083 12.9085 9.50285 12.7274 9.15488C12.5504 8.81884 12.4456 8.4495 12.3806 8.07657C12.3037 7.63076 12.2776 7.17843 12.2623 6.72699C12.2427 6.10461 12.247 5.48178 12.2465 4.85895C12.2463 4.18371 12.2472 3.50825 12.2461 2.83301Z" fill="#4B4B4B"/>
</svg>
