<svg width="24" height="24" viewBox="0 0 24 24" fill="none" xmlns="http://www.w3.org/2000/svg">
<path d="M7.65301 1.26478C8.56578 1.24589 9.47899 1.25061 10.392 1.24926C10.9806 1.25218 11.5711 1.24746 12.1575 1.30954C12.6183 1.35835 13.0774 1.46294 13.4987 1.65998C14.1868 1.98006 14.7592 2.49087 15.324 2.98729C16.5636 4.10002 17.8007 5.21567 19.039 6.32975C19.5905 6.82819 20.147 7.32146 20.6942 7.82463C21.1717 8.27044 21.6488 8.72795 22.0148 9.27318C22.3331 9.74103 22.5335 10.2827 22.6248 10.8398C22.733 11.4865 22.737 12.1446 22.7422 12.7985C22.7415 14.0358 22.7519 15.2732 22.7242 16.5103C22.6943 17.4912 22.6529 18.4829 22.4055 19.4375C22.2217 20.1494 21.8803 20.8325 21.3521 21.3517C20.8424 21.8704 20.1742 22.2096 19.476 22.3951C18.5533 22.6417 17.5929 22.6887 16.6428 22.7206C15.4293 22.753 14.2153 22.7404 13.0018 22.7431C11.5697 22.7422 10.1376 22.7453 8.70546 22.7411C7.8568 22.7352 7.00747 22.7265 6.16106 22.6592C5.47592 22.6018 4.78696 22.5056 4.13579 22.2764C3.48349 22.0512 2.88473 21.6619 2.43802 21.1335C1.95712 20.5757 1.67326 19.875 1.52031 19.1609C1.32327 18.2389 1.28885 17.2924 1.26456 16.3531C1.24049 15.048 1.25241 13.7428 1.24926 12.4375C1.25241 10.9383 1.24162 9.43918 1.25916 7.94024C1.28008 6.91636 1.30325 5.88439 1.51041 4.87783C1.66583 4.12319 1.96702 3.38092 2.4875 2.80262C2.77586 2.47805 3.12068 2.20364 3.50261 1.99693C3.96574 1.74433 4.47588 1.58913 4.99187 1.48836C5.8682 1.32056 6.76319 1.28705 7.65301 1.26478ZM6.43592 2.81702C5.98111 2.85053 5.52608 2.89957 5.08117 3.00236C4.73433 3.08311 4.39131 3.20008 4.08855 3.39104C3.75138 3.60247 3.47449 3.9068 3.29208 4.25994C3.09976 4.62995 2.99809 5.0391 2.92814 5.44802C2.83839 5.98898 2.8033 6.53758 2.78104 7.08506C2.7464 8.00705 2.75112 8.92993 2.74887 9.85237C2.75022 11.7119 2.74527 13.5711 2.75225 15.4306C2.76192 16.3672 2.76732 17.3072 2.88293 18.2384C2.94703 18.7202 3.04061 19.2063 3.25024 19.6485C3.41016 19.9895 3.65466 20.2914 3.95922 20.5138C4.24735 20.7262 4.58475 20.8616 4.92889 20.9533C5.60233 21.1288 6.30051 21.1749 6.99307 21.2077C7.84061 21.243 8.68904 21.2412 9.53703 21.2437C11.0294 21.2437 12.5221 21.2437 14.0145 21.2437C15.0339 21.2415 16.0539 21.2487 17.0726 21.2046C17.6005 21.1794 18.1296 21.1405 18.6503 21.0458C19.045 20.9722 19.4391 20.8647 19.792 20.6686C20.1438 20.474 20.4416 20.1832 20.6436 19.8357C20.8296 19.5169 20.9396 19.1604 21.0159 18.8012C21.1115 18.3435 21.1562 17.8767 21.1861 17.4107C21.2475 16.3839 21.2401 15.3548 21.2437 14.3267C21.2419 13.5849 21.2493 12.843 21.2302 12.1014C21.2143 11.6455 21.196 11.1835 21.0694 10.7424L21.0503 10.7435L21.0696 10.742C20.9958 10.5035 20.8881 10.2755 20.7457 10.0701C20.5365 9.76645 20.2752 9.50396 20.0129 9.24664C19.3107 8.5759 18.5783 7.93777 17.8592 7.28502C17.1217 6.62126 16.3841 5.95749 15.6466 5.29372C15.0145 4.73027 14.3955 4.1522 13.7461 3.60855C13.5905 3.48079 13.4317 3.3564 13.2643 3.24416C12.9602 3.03453 12.6111 2.89147 12.2463 2.83277C11.8934 2.77563 11.5351 2.76484 11.1783 2.75651C10.4811 2.74459 9.78355 2.75022 9.08627 2.74977C8.20252 2.75426 7.31787 2.75584 6.43592 2.81702Z" fill="#4B4B4B"/>
<path d="M5.00851 13.5878C5.6111 13.5842 6.21346 13.5862 6.81582 13.5871C7.28975 13.5952 7.7684 13.7239 8.16158 13.9938C8.4974 14.2192 8.7491 14.5608 8.88001 14.9423C9.00012 15.3008 9.02553 15.6893 8.96683 16.0622C8.8962 16.5164 8.66295 16.9435 8.31656 17.2458C7.88829 17.621 7.30977 17.787 6.74745 17.7843C6.16803 17.7836 5.58816 17.7863 5.00874 17.7829C5.00806 16.3846 5.01054 14.9862 5.00851 13.5878ZM6.21481 14.6011C6.21841 15.3186 6.21571 16.0361 6.21616 16.7534C6.57695 16.7514 6.96585 16.7919 7.292 16.6036C7.50389 16.4833 7.66808 16.2775 7.72522 16.0395C7.79427 15.7768 7.78572 15.4938 7.6998 15.2361C7.60308 14.9594 7.36173 14.7455 7.08349 14.6611C6.80278 14.5721 6.50452 14.6015 6.21481 14.6011Z" fill="#4B4B4B"/>
<path d="M11.5954 13.6035C12.079 13.5462 12.5855 13.6253 13.0126 13.8656C13.3683 14.0588 13.662 14.3631 13.8447 14.7241C14.0176 15.0568 14.082 15.4385 14.0624 15.811C14.0439 16.1738 13.9346 16.5346 13.7322 16.8378C13.5068 17.1808 13.1746 17.4514 12.7956 17.6079C12.2753 17.823 11.6779 17.8414 11.1442 17.6644C10.7764 17.5434 10.443 17.32 10.1925 17.0247C9.71045 16.4689 9.60001 15.6497 9.83461 14.9635C9.96935 14.5835 10.2226 14.2473 10.5488 14.0104C10.8547 13.7873 11.2197 13.6478 11.5954 13.6035ZM11.6185 14.6602C11.4303 14.7019 11.2589 14.8112 11.1385 14.961C10.9536 15.1911 10.9046 15.5006 10.9237 15.788C10.9356 16.0366 11.0216 16.2892 11.1984 16.4689C11.3524 16.6277 11.572 16.708 11.7897 16.7233C11.9978 16.7368 12.2168 16.713 12.3999 16.6059C12.59 16.4986 12.7313 16.3155 12.8021 16.1104C12.8799 15.8852 12.8835 15.6403 12.8451 15.407C12.7974 15.1274 12.624 14.8649 12.3689 14.7345C12.1386 14.6184 11.8673 14.6087 11.6185 14.6602Z" fill="#4B4B4B"/>
<path d="M15.4025 14.1427C15.7446 13.8224 16.2012 13.6395 16.6655 13.5979C17.013 13.5671 17.3688 13.5957 17.7022 13.7016C18.0789 13.8262 18.4206 14.0631 18.6575 14.3829C18.8192 14.6004 18.9238 14.8564 18.9843 15.1198C18.5563 15.12 18.1282 15.12 17.7002 15.1198C17.605 14.9308 17.4437 14.7725 17.244 14.6987C17.0164 14.6157 16.7577 14.6193 16.5337 14.7113C16.3052 14.8087 16.1351 15.0172 16.0604 15.2514C15.9853 15.4898 15.9813 15.7467 16.0269 15.9914C16.071 16.2116 16.181 16.4268 16.3641 16.5631C16.5703 16.7195 16.8466 16.7584 17.0969 16.713C17.3569 16.6686 17.585 16.4878 17.6986 16.2514C18.1266 16.2482 18.5547 16.2523 18.9829 16.2491C18.917 16.5685 18.7695 16.8713 18.5547 17.1172C18.3327 17.3722 18.0373 17.5605 17.7161 17.6649C17.3574 17.7823 16.9723 17.8075 16.5982 17.7656C16.2224 17.7224 15.853 17.5897 15.5519 17.3576C15.2613 17.1369 15.0368 16.8301 14.9169 16.4853C14.7747 16.0834 14.7527 15.6434 14.8256 15.225C14.9 14.8166 15.0966 14.4265 15.4025 14.1427Z" fill="#4B4B4B"/>
<path opacity="0.5" d="M12.2463 2.83276C12.6111 2.89147 12.9602 3.03453 13.2643 3.24416C13.4317 3.3564 13.5905 3.48079 13.7461 3.60855C13.7459 4.26534 13.7459 4.92191 13.7459 5.57848C13.7488 6.10392 13.7495 6.63003 13.7832 7.15456C13.815 7.56484 13.8509 7.985 14.012 8.36828C14.1274 8.6454 14.3552 8.871 14.6328 8.98459C14.9936 9.13417 15.3877 9.17308 15.7734 9.20502C16.4075 9.24911 17.0434 9.24416 17.6786 9.24753C18.4566 9.24686 19.2346 9.24866 20.0129 9.24663C20.2752 9.50395 20.5365 9.76645 20.7457 10.0701C20.8881 10.2755 20.9958 10.5035 21.0696 10.742L21.0503 10.7435C20.6535 10.7514 20.2567 10.7447 19.8599 10.7469C18.8556 10.7453 17.8515 10.751 16.8472 10.7426C16.3067 10.7352 15.7651 10.7231 15.228 10.6583C14.7952 10.6048 14.3618 10.5125 13.9645 10.3281C13.4173 10.0789 12.9611 9.63666 12.6975 9.09638C12.4966 8.69196 12.3963 8.24615 12.339 7.80079C12.2708 7.25781 12.2582 6.70988 12.2501 6.1633C12.242 5.05305 12.2488 3.94302 12.2463 2.83276Z" fill="#4B4B4B"/>
</svg>
