<svg width="24" height="24" viewBox="0 0 24 24" fill="none" xmlns="http://www.w3.org/2000/svg">
<path d="M7.65279 1.26478C8.67082 1.24499 9.68908 1.24971 10.7071 1.25016C11.2562 1.25421 11.8077 1.25826 12.3525 1.33406C12.7645 1.39097 13.171 1.50096 13.5464 1.68225C14.2228 2.00907 14.7876 2.51539 15.3467 3.00776C16.7564 4.27389 18.1635 5.54249 19.572 6.8093C20.1148 7.30212 20.6697 7.78234 21.1895 8.29946C21.6418 8.75089 22.0663 9.24799 22.3279 9.83663C22.5823 10.3981 22.6745 11.0164 22.7114 11.6268C22.7516 12.3091 22.7408 12.9928 22.7431 13.676C22.7402 14.8519 22.7532 16.0285 22.6992 17.2035C22.6493 18.1395 22.567 19.0918 22.2325 19.9756C21.9765 20.6591 21.5296 21.2727 20.9414 21.7075C20.3206 22.1738 19.5624 22.4142 18.8044 22.5413C17.8754 22.695 16.9314 22.7177 15.9921 22.7345C14.6656 22.7496 13.3392 22.7406 12.0128 22.7431C10.6999 22.7408 9.38699 22.7492 8.07408 22.7354C7.26343 22.7233 6.45121 22.7031 5.64551 22.6072C4.95745 22.5231 4.26625 22.3776 3.64117 22.0685C3.01856 21.7626 2.48278 21.2819 2.11524 20.6933C1.66088 19.9693 1.47374 19.1161 1.37702 18.2771C1.25691 17.1907 1.25759 16.0957 1.25039 15.0042C1.24949 12.8819 1.24679 10.7595 1.25196 8.6373C1.26276 7.54999 1.26771 6.45773 1.42111 5.37897C1.54212 4.5447 1.78639 3.70189 2.30553 3.02395C2.54373 2.71063 2.83142 2.43486 3.15487 2.21083C3.55547 1.9326 4.00982 1.73916 4.47858 1.60915C5.51123 1.32821 6.58932 1.29447 7.65279 1.26478ZM6.09335 2.84581C5.63764 2.89102 5.18081 2.9567 4.7431 3.09458C4.39738 3.20367 4.06426 3.369 3.79344 3.61305C3.52375 3.85147 3.31907 4.15783 3.18501 4.49072C2.99989 4.94755 2.91847 5.43813 2.86223 5.9251C2.75314 6.95258 2.75719 7.98748 2.74977 9.01923C2.74842 11.0816 2.74707 13.144 2.75067 15.2064C2.75967 16.2037 2.75944 17.2044 2.87753 18.1961C2.93893 18.6752 3.02868 19.1577 3.22774 19.6008C3.3708 19.9211 3.58516 20.2104 3.85642 20.4337C4.13421 20.6652 4.46868 20.8188 4.8135 20.9207C5.26718 21.0545 5.73841 21.116 6.20806 21.1585C7.07562 21.2316 7.94677 21.2361 8.81657 21.2419C10.984 21.2444 13.1512 21.2457 15.3184 21.241C16.34 21.2304 17.3664 21.2309 18.3806 21.0901C18.834 21.0226 19.29 20.923 19.7025 20.7163C20.0487 20.5433 20.3498 20.281 20.5658 19.9596C20.7729 19.6519 20.8991 19.2974 20.9848 18.9386C21.1013 18.4449 21.151 17.9381 21.1848 17.433C21.2473 16.4066 21.2397 15.378 21.2437 14.3503C21.2417 13.5932 21.2496 12.8358 21.2295 12.0787C21.2133 11.6309 21.1942 11.1768 21.0694 10.7433L21.0514 10.744L21.0692 10.7413C20.994 10.4977 20.8829 10.2653 20.7365 10.0566C20.5287 9.7588 20.2713 9.50036 20.0129 9.24686C19.7731 9.01473 19.5268 8.78935 19.2799 8.5651C18.054 7.45867 16.8254 6.35561 15.5987 5.25053C14.9826 4.70148 14.3793 4.13803 13.7459 3.60877C13.5907 3.48079 13.4319 3.35663 13.2648 3.24439C12.9605 3.03475 12.6111 2.89125 12.2461 2.83299C11.8864 2.77451 11.5214 2.76439 11.1579 2.75606C10.4599 2.74482 9.76195 2.75022 9.064 2.74999C8.07318 2.75606 7.08057 2.75426 6.09335 2.84581Z" fill="#4B4B4B"/>
<path d="M6.0731 13.5858C6.71078 13.5862 7.34823 13.5844 7.98591 13.5871C8.37166 13.5943 8.76956 13.6921 9.07772 13.9339C9.35753 14.1492 9.5197 14.494 9.54557 14.8427C9.58043 15.2017 9.47854 15.5789 9.24079 15.8537C9.01698 16.109 8.69691 16.268 8.36514 16.3272C8.01312 16.3918 7.65414 16.3596 7.29875 16.3666C7.2956 16.8389 7.29852 17.3115 7.2974 17.7838C6.88937 17.7854 6.48135 17.7838 6.07333 17.7845C6.07266 16.385 6.07333 14.9855 6.0731 13.5858ZM7.29875 15.4378C7.47464 15.4367 7.65054 15.439 7.82643 15.4369C7.95352 15.4331 8.0896 15.4045 8.18452 15.3141C8.26954 15.2345 8.30103 15.1142 8.30261 15.001C8.30553 14.8802 8.27944 14.7495 8.19262 14.66C8.09837 14.5629 7.95757 14.5323 7.82688 14.528C7.65144 14.5244 7.47554 14.5284 7.3001 14.5257C7.29515 14.8296 7.29717 15.1339 7.29875 15.4378Z" fill="#4B4B4B"/>
<path d="M10.2719 13.586C10.8745 13.586 11.477 13.5849 12.0794 13.5873C12.5747 13.5952 13.0758 13.7365 13.4778 14.0313C13.7931 14.2592 14.0271 14.5923 14.1494 14.9605C14.2567 15.2878 14.2833 15.6391 14.2419 15.9806C14.1951 16.3848 14.021 16.7735 13.7502 17.0773C13.476 17.3826 13.1055 17.5947 12.7099 17.6968C12.424 17.7735 12.1262 17.7883 11.8315 17.7838C11.3117 17.7827 10.7917 17.7841 10.2719 17.7832C10.2719 16.3841 10.2716 14.985 10.2719 13.586ZM11.4786 14.5993C11.4813 15.3173 11.4791 16.0352 11.4797 16.7534C11.7411 16.7489 12.0065 16.7737 12.2636 16.715C12.6042 16.6446 12.9074 16.3832 12.9888 16.0397C13.0581 15.7721 13.05 15.4835 12.9582 15.2223C12.8547 14.9403 12.5999 14.7279 12.3127 14.6506C12.0414 14.5736 11.7566 14.6036 11.4786 14.5993Z" fill="#4B4B4B"/>
<path d="M14.9803 13.5858C15.9601 13.586 16.9399 13.5851 17.9197 13.5864C17.9188 13.8957 17.9197 14.205 17.9193 14.5143C17.3414 14.5154 16.7633 14.5125 16.1855 14.5158C16.188 14.7615 16.1844 15.0073 16.1868 15.2529C16.6124 15.2541 17.038 15.2538 17.4635 15.2532C17.4667 15.5487 17.4635 15.8445 17.4653 16.1405C17.0391 16.143 16.6129 16.1405 16.1866 16.1416C16.1866 16.6891 16.1853 17.2368 16.1855 17.7843C15.7838 17.7847 15.3823 17.7841 14.9808 17.7847C14.9799 16.385 14.9805 14.9855 14.9803 13.5858Z" fill="#4B4B4B"/>
<path opacity="0.5" d="M12.2461 2.83299C12.6111 2.89125 12.9604 3.03475 13.2648 3.24439C13.4319 3.35663 13.5907 3.48079 13.7459 3.60877C13.7461 4.26489 13.7459 4.92079 13.7461 5.57691C13.7497 6.16285 13.7486 6.74991 13.7972 7.33428C13.833 7.70632 13.8773 8.08802 14.0403 8.42924C14.1701 8.70095 14.4139 8.90902 14.696 9.01023C15.1031 9.15869 15.5404 9.18995 15.9696 9.21739C16.5391 9.24731 17.1097 9.24506 17.6799 9.24753C18.4575 9.24708 19.2353 9.24843 20.0129 9.24686C20.2713 9.50036 20.5287 9.7588 20.7365 10.0566C20.8829 10.2653 20.994 10.4977 21.0692 10.7413L21.0514 10.744C19.7853 10.7503 18.5187 10.7462 17.2526 10.7458C16.7276 10.7429 16.2021 10.7381 15.678 10.7013C15.2487 10.67 14.8177 10.6167 14.404 10.4934C14.0752 10.3958 13.7592 10.2489 13.4841 10.0431C13.1699 9.80828 12.9085 9.50283 12.7274 9.15486C12.5504 8.81882 12.4456 8.44948 12.3806 8.07655C12.3037 7.63074 12.2776 7.17841 12.2623 6.72697C12.2427 6.10459 12.247 5.48176 12.2465 4.85893C12.2463 4.18369 12.2472 3.50823 12.2461 2.83299Z" fill="#4B4B4B"/>
</svg>
