<svg width="24" height="24" viewBox="0 0 24 24" fill="none" xmlns="http://www.w3.org/2000/svg">
<path d="M7.65225 1.26451C8.67051 1.24449 9.68899 1.24944 10.7072 1.24989C11.2853 1.25461 11.8663 1.25799 12.439 1.34683C12.849 1.40981 13.2512 1.53038 13.6214 1.71864C14.2699 2.04996 14.8165 2.53986 15.3588 3.01806C16.7216 4.24235 18.0822 5.4689 19.4442 6.69386C19.971 7.17139 20.5067 7.63924 21.0198 8.13184C21.4915 8.58935 21.9481 9.07992 22.2486 9.67036C22.543 10.2395 22.66 10.8805 22.7041 11.5144C22.7529 12.2186 22.7407 12.9251 22.7432 13.6305C22.7401 14.831 22.7542 16.0321 22.6978 17.2316C22.6467 18.1703 22.5617 19.126 22.2194 20.0097C21.9544 20.6998 21.4926 21.3152 20.8898 21.7451C20.2521 22.2064 19.4797 22.4358 18.7105 22.5564C17.7376 22.7062 16.7509 22.7228 15.7686 22.737C14.4784 22.7478 13.1882 22.7411 11.898 22.7429C10.6312 22.7408 9.36442 22.7485 8.09784 22.7354C7.26358 22.7233 6.42751 22.7033 5.59865 22.6012C4.89934 22.5128 4.19643 22.3585 3.56708 22.0303C2.94133 21.7066 2.41004 21.203 2.05555 20.5941C1.63381 19.8739 1.46174 19.0403 1.37064 18.2195C1.25683 17.1441 1.25728 16.0613 1.25031 14.9812C1.24986 12.8592 1.24671 10.7375 1.25233 8.61566C1.26335 7.53083 1.26875 6.44104 1.42328 5.3652C1.54541 4.53071 1.79239 3.68768 2.3149 3.01154C2.60123 2.63816 2.95775 2.31876 3.36172 2.07741C4.0779 1.64757 4.91149 1.46987 5.73248 1.37585C6.36993 1.3041 7.01143 1.27913 7.65225 1.26451ZM5.56851 2.90987C5.1191 2.9796 4.66676 3.08149 4.26031 3.29225C3.9119 3.4713 3.61162 3.74324 3.40041 4.07321C3.20337 4.37911 3.08371 4.72775 3.00138 5.08022C2.89567 5.53862 2.84663 6.00783 2.81334 6.47658C2.74586 7.50226 2.75329 8.53087 2.74879 9.55834C2.75059 11.5157 2.74519 13.4731 2.75216 15.4304C2.76296 16.3971 2.76678 17.3679 2.89499 18.3279C2.9609 18.7906 3.05852 19.256 3.26478 19.6786C3.4292 20.0165 3.67707 20.3136 3.98365 20.5314C4.27786 20.7417 4.6202 20.8739 4.96862 20.9634C5.38991 21.0714 5.82268 21.1249 6.25522 21.1623C7.10005 21.2309 7.94804 21.2356 8.79512 21.2417C10.9688 21.2442 13.1428 21.2455 15.3165 21.2408C16.339 21.2302 17.366 21.2307 18.3807 21.0899C18.8348 21.0222 19.2917 20.9223 19.7046 20.7149C20.0549 20.5395 20.3592 20.2725 20.5753 19.9454C20.7769 19.6409 20.9004 19.2922 20.9849 18.9391C21.0929 18.4818 21.1431 18.0135 21.1773 17.5459C21.2483 16.4896 21.2393 15.4302 21.2438 14.3723C21.2418 13.6148 21.2497 12.8574 21.2303 12.1001C21.2141 11.6457 21.1962 11.1851 21.0702 10.7453H21.0643C21.0086 10.5177 20.8986 10.3056 20.7724 10.1095C20.5596 9.78912 20.2868 9.51538 20.0135 9.24704C19.7928 9.03336 19.5665 8.82552 19.3396 8.61881C18.0831 7.48382 16.8231 6.35332 15.565 5.22012C14.9604 4.68097 14.368 4.12787 13.746 3.6085C13.5827 3.47377 13.4156 3.34354 13.2388 3.2268C12.9412 3.02616 12.6011 2.88963 12.2464 2.83272C11.8344 2.76637 11.4158 2.76097 10.9992 2.75332C10.0772 2.74545 9.15501 2.7477 8.2328 2.75512C7.34343 2.76839 6.45023 2.78099 5.56851 2.90987Z" fill="#4B4B4B"/>
<path d="M6.14893 13.5833C6.62038 13.5801 7.09206 13.5853 7.56351 13.5815C7.84355 13.9623 8.10919 14.3534 8.3881 14.7349C8.62405 14.3519 8.85551 13.9663 9.09033 13.5828C9.54784 13.5815 10.0056 13.5824 10.4633 13.5833C10.0011 14.2878 9.53682 14.9911 9.07234 15.694C9.56426 16.3904 10.0616 17.083 10.5557 17.7778C10.0823 17.7838 9.60879 17.7773 9.13554 17.7805C8.85123 17.3891 8.57569 16.9914 8.29048 16.6007C8.04036 16.9892 7.81138 17.3909 7.56441 17.7809C7.10735 17.7787 6.65052 17.7793 6.19369 17.7807C6.66199 17.0623 7.13637 16.3479 7.604 15.629C7.1195 14.9468 6.62803 14.2693 6.14893 13.5833Z" fill="#4B4B4B"/>
<path d="M11.2773 13.5936C11.6781 13.5933 12.0787 13.5933 12.4793 13.5933C12.4816 14.6894 12.4757 15.7853 12.4823 16.8811C12.9296 16.8791 13.377 16.8807 13.8244 16.8802C13.8253 17.1753 13.8228 17.4705 13.8258 17.7656C12.976 17.7696 12.1262 17.7707 11.2764 17.7649C11.2784 16.3744 11.2766 14.9839 11.2773 13.5936Z" fill="#4B4B4B"/>
<path d="M15.2361 13.7736C15.6241 13.5909 16.0668 13.5617 16.4881 13.6101C16.8516 13.6521 17.2155 13.7945 17.4724 14.0622C17.6771 14.2725 17.7785 14.566 17.7913 14.8557C17.3662 14.8553 16.9409 14.8595 16.516 14.8542C16.5054 14.7792 16.4964 14.6996 16.4487 14.638C16.3356 14.4875 16.1089 14.4428 15.9429 14.5269C15.7874 14.6103 15.7665 14.8497 15.8918 14.9689C15.9858 15.0546 16.1021 15.1112 16.2197 15.1574C16.5454 15.2806 16.8833 15.3749 17.1941 15.5348C17.4029 15.6338 17.5826 15.7914 17.7104 15.9835C17.8388 16.1853 17.8638 16.4361 17.8327 16.6689C17.7871 17.0292 17.5567 17.3549 17.2427 17.5337C16.8509 17.7672 16.3749 17.8039 15.9305 17.7539C15.536 17.7069 15.1336 17.5612 14.8594 17.2629C14.6587 17.0481 14.5604 16.7553 14.5454 16.4653C14.9631 16.4658 15.381 16.4633 15.7987 16.4664C15.8097 16.5947 15.8536 16.7343 15.9685 16.8063C16.1226 16.9019 16.3363 16.9024 16.4883 16.8025C16.6345 16.7044 16.6291 16.4714 16.5025 16.3594C16.4168 16.2881 16.3115 16.246 16.2094 16.2046C15.8504 16.0681 15.4723 15.9777 15.1311 15.7977C14.8987 15.6607 14.685 15.4583 14.607 15.1931C14.5429 14.9824 14.5456 14.7556 14.589 14.541C14.6655 14.2005 14.923 13.918 15.2361 13.7736Z" fill="#4B4B4B"/>
<path opacity="0.5" d="M12.2461 2.83301C12.6008 2.88992 12.9409 3.02645 13.2385 3.22708C13.4153 3.34382 13.5824 3.47406 13.7457 3.60879C13.7459 4.26514 13.7457 4.92148 13.7459 5.57783C13.7486 6.10619 13.7493 6.635 13.7837 7.16223C13.8148 7.56486 13.8512 7.97648 14.0055 8.35368C14.1198 8.63732 14.3506 8.86967 14.634 8.98506C14.9945 9.13441 15.3882 9.1731 15.7737 9.20504C16.3934 9.24823 17.0149 9.24418 17.6357 9.24755C18.4283 9.24755 19.2207 9.24778 20.0132 9.24733C20.2865 9.51567 20.5593 9.78941 20.7721 10.1097C20.8983 10.3058 21.0083 10.518 21.064 10.7456C19.748 10.7478 18.4319 10.7483 17.1158 10.7451C16.5479 10.7406 15.9791 10.7334 15.4134 10.679C14.9626 10.6338 14.5098 10.5548 14.0885 10.3823C13.53 10.159 13.05 9.7424 12.7596 9.21472C12.5259 8.79635 12.4096 8.32377 12.3458 7.85209C12.2769 7.337 12.2612 6.81651 12.252 6.29738C12.24 5.14281 12.2493 3.9878 12.2461 2.83301Z" fill="#4B4B4B"/>
</svg>
