<svg width="24" height="24" viewBox="0 0 24 24" fill="none" xmlns="http://www.w3.org/2000/svg">
<path d="M7.65056 1.26488C8.66926 1.24508 9.68842 1.24981 10.7071 1.25048C11.2633 1.25453 11.8218 1.25835 12.3736 1.33708C12.7899 1.39601 13.2002 1.51095 13.5781 1.69742C14.2452 2.02784 14.8044 2.52988 15.3589 3.01843C16.7406 4.25982 18.1203 5.50345 19.5014 6.74574C20.0169 7.21314 20.5415 7.67087 21.0424 8.15402C21.5258 8.62435 21.9918 9.13247 22.286 9.74608C22.5339 10.2553 22.6455 10.8187 22.6931 11.3797C22.7492 12.0385 22.7413 12.7005 22.7433 13.3609C22.7399 14.5906 22.755 15.8207 22.7064 17.0497C22.6614 17.9978 22.5899 18.9617 22.2739 19.8641C22.0411 20.5357 21.633 21.1495 21.0799 21.5994C20.4956 22.0846 19.7646 22.3565 19.0261 22.5005C18.0864 22.6829 17.1257 22.7108 16.1711 22.7317C14.8669 22.751 13.5628 22.7405 12.2584 22.7432C10.8785 22.7409 9.49858 22.7492 8.11886 22.736C7.27043 22.7238 6.41974 22.704 5.57693 22.5988C4.87425 22.5086 4.16797 22.3504 3.53839 22.0153C2.88565 21.6712 2.33952 21.1293 1.99043 20.479C1.5833 19.7237 1.43125 18.8634 1.35005 18.0178C1.24636 16.8664 1.25491 15.7089 1.24951 14.5539C1.24951 13.2563 1.24951 11.9587 1.24951 10.6611C1.25131 9.5893 1.24298 8.51729 1.26953 7.44572C1.29967 6.48077 1.3424 5.5057 1.58443 4.5664C1.7655 3.86034 2.09997 3.18173 2.61888 2.66281C2.89352 2.3821 3.21359 2.14705 3.56178 1.96553C4.06315 1.70326 4.61468 1.55144 5.17026 1.45562C5.98923 1.31729 6.82169 1.28512 7.65056 1.26488ZM6.42154 2.81824C5.94559 2.85401 5.46874 2.90619 5.00471 3.0209C4.65854 3.10728 4.31732 3.23324 4.02109 3.43545C3.71001 3.64666 3.45562 3.93884 3.28512 4.27354C3.09461 4.6458 2.99429 5.05629 2.92546 5.46634C2.82716 6.06848 2.79477 6.67871 2.77408 7.28759C2.73922 8.49457 2.75204 9.70244 2.74911 10.9098C2.74956 12.2297 2.74799 13.5496 2.75001 14.8695C2.75564 15.8736 2.75249 16.8797 2.84313 17.8806C2.88745 18.3354 2.95178 18.7916 3.08741 19.2293C3.19762 19.5845 3.36587 19.9273 3.61779 20.2042C3.85644 20.473 4.16347 20.6763 4.49614 20.8097C4.93476 20.9867 5.40486 21.0681 5.87249 21.1244C6.65592 21.2134 7.44565 21.2271 8.23358 21.2377C9.23789 21.2469 10.2424 21.2429 11.2469 21.2438C12.6638 21.2424 14.0804 21.2474 15.4972 21.24C16.45 21.2289 17.4068 21.2233 18.3527 21.0942C18.8158 21.027 19.2819 20.9271 19.7029 20.7161C20.0486 20.5434 20.3496 20.2813 20.5655 19.9606C20.7794 19.6427 20.9072 19.2754 20.9931 18.9045C21.102 18.4292 21.1506 17.9425 21.1834 17.4569C21.2493 16.393 21.2399 15.3266 21.2439 14.2613C21.2421 13.5262 21.2495 12.7909 21.2291 12.0561C21.2129 11.6154 21.192 11.169 21.0698 10.7425L21.0512 10.7436L21.07 10.7411C20.9936 10.4978 20.8831 10.2647 20.736 10.056C20.5282 9.75822 20.2709 9.49955 20.0122 9.24628C19.3068 8.57194 18.5706 7.93089 17.8482 7.275C17.1306 6.62923 16.4131 5.98345 15.6956 5.33768C15.0473 4.76006 14.4124 4.1667 13.7463 3.60887C13.5999 3.48831 13.4501 3.37089 13.2933 3.26383C12.982 3.04452 12.623 2.89292 12.2465 2.83309C11.8639 2.77123 11.4752 2.76291 11.0886 2.75504C10.4138 2.74559 9.7388 2.75009 9.06402 2.75009C8.18297 2.75459 7.30079 2.75639 6.42154 2.81824Z" fill="#4B4B4B"/>
<path d="M7.39276 13.5856C8.44228 13.5861 9.49181 13.5845 10.5413 13.5865C10.5375 13.8717 10.5461 14.157 10.5382 14.4422C10.5425 14.4885 10.5017 14.5195 10.4788 14.5549C9.90095 15.3153 9.32086 16.0745 8.74481 16.8365C9.34335 16.837 9.94167 16.837 10.5402 16.8365C10.5413 17.1523 10.5404 17.4684 10.5407 17.7842C9.49136 17.7833 8.44206 17.7866 7.39299 17.7824C7.39344 17.5001 7.39141 17.2176 7.39366 16.9353C7.39141 16.9081 7.39951 16.8847 7.41795 16.8651C8.00052 16.0842 8.58849 15.3072 9.17173 14.5265C8.57882 14.5265 7.9859 14.5265 7.39299 14.5265C7.39254 14.213 7.39276 13.8994 7.39276 13.5856Z" fill="#4B4B4B"/>
<path d="M11.2618 13.587C11.6613 13.584 12.0608 13.5863 12.4605 13.5856C12.462 14.9853 12.4616 16.3849 12.4609 17.7846C12.0608 17.7826 11.6606 17.7871 11.2607 17.7823C11.2632 16.3837 11.2609 14.9853 11.2618 13.587Z" fill="#4B4B4B"/>
<path d="M13.1838 13.5859C13.813 13.5884 14.4421 13.5846 15.0712 13.5882C15.4588 13.5965 15.8592 13.7025 16.1601 13.9566C16.4276 14.1793 16.5749 14.5232 16.5951 14.8669C16.6255 15.2365 16.5115 15.6243 16.2553 15.8973C16.0173 16.1499 15.6828 16.297 15.342 16.3431C15.0251 16.3841 14.705 16.3625 14.3868 16.3665C14.3789 16.8386 14.3856 17.311 14.3836 17.7834C13.983 17.7858 13.5826 17.7834 13.182 17.7847C13.1818 16.3852 13.1782 14.9855 13.1838 13.5859ZM14.382 14.5304C14.3852 14.8329 14.3811 15.1355 14.3841 15.4378C14.5525 15.4389 14.7212 15.438 14.8897 15.4376C15.0175 15.4355 15.1542 15.4088 15.2512 15.3197C15.3378 15.2396 15.3697 15.1177 15.372 15.0034C15.3751 14.88 15.3486 14.7468 15.2593 14.6559C15.1632 14.5594 15.0211 14.5306 14.8899 14.5282C14.7206 14.527 14.5512 14.5243 14.382 14.5304Z" fill="#4B4B4B"/>
<path opacity="0.5" d="M12.2464 2.83301C12.6229 2.89284 12.9819 3.04444 13.2932 3.26375C13.45 3.37081 13.5998 3.48823 13.7462 3.60879C13.7458 4.25794 13.7462 4.90708 13.746 5.55623C13.7487 6.08684 13.7494 6.61812 13.7831 7.14783C13.8146 7.56058 13.8504 7.98367 14.0125 8.3692C14.1304 8.65194 14.3657 8.88002 14.6507 8.99203C15.0191 9.13959 15.4195 9.17692 15.8117 9.20774C16.4335 9.24868 17.057 9.2444 17.6796 9.24755C18.4571 9.24665 19.2347 9.24935 20.0121 9.2462C20.2708 9.49947 20.5281 9.75814 20.7359 10.056C20.883 10.2647 20.9935 10.4977 21.0699 10.7411L21.051 10.7436C20.8643 10.7517 20.6774 10.7447 20.4907 10.7469C19.3519 10.7458 18.2133 10.7494 17.0745 10.7449C16.5153 10.74 15.9548 10.7321 15.3979 10.6774C14.9464 10.6311 14.493 10.5508 14.0721 10.3756C13.5159 10.1488 13.0393 9.7298 12.7523 9.20122C12.5235 8.786 12.4092 8.31859 12.346 7.85209C12.2754 7.32238 12.2603 6.78727 12.2516 6.25374C12.241 5.11335 12.2495 3.97318 12.2464 2.83301Z" fill="#4B4B4B"/>
</svg>
