<svg width="24" height="24" viewBox="0 0 24 24" fill="none" xmlns="http://www.w3.org/2000/svg">
<path d="M2.57327 7.70061C2.70887 7.42431 3.02747 7.25271 3.33317 7.29561C3.54887 7.31961 3.74657 7.44531 3.86747 7.62441C4.53977 8.54901 5.27417 9.43101 6.09347 10.229C7.13837 11.24 8.33477 12.1292 9.70427 12.6449C10.4375 12.9206 11.2172 13.0793 12.0014 13.0838C13.1267 13.094 14.2382 12.779 15.2336 12.2642C16.3007 11.7152 17.2484 10.9577 18.0968 10.1141C18.8831 9.33321 19.5857 8.47131 20.2346 7.57371C20.4497 7.29111 20.8751 7.20501 21.1829 7.38231C21.4664 7.53321 21.6275 7.87851 21.5564 8.19261C21.5255 8.37531 21.401 8.51781 21.2963 8.66301C20.8622 9.25371 20.4035 9.82671 19.9151 10.3736C19.5818 10.7459 19.2356 11.1071 18.8732 11.4509C18.1808 12.1067 17.4323 12.707 16.6184 13.2056C16.1804 13.4726 15.7259 13.7156 15.2507 13.9097C14.4701 14.2472 13.6364 14.4653 12.7895 14.5478C12.2924 14.5961 11.7908 14.5958 11.2937 14.5481C10.4408 14.4665 9.60437 14.2412 8.81657 13.907C8.35547 13.7099 7.90937 13.4783 7.48097 13.2179C6.67007 12.7208 5.91827 12.1295 5.22977 11.4743C4.85957 11.1314 4.51127 10.7657 4.17257 10.3919C3.62447 9.78111 3.11237 9.13881 2.63087 8.47491C2.46977 8.25381 2.44697 7.94301 2.57327 7.70061Z" fill="#4B4B4B"/>
<path opacity="0.5" d="M18.875 11.4523C19.2374 11.1085 19.5836 10.7473 19.9169 10.375C20.2304 10.6759 20.5328 10.9879 20.8415 11.2933C20.9843 11.4298 21.0779 11.62 21.0842 11.8189C21.0968 12.0814 20.9582 12.3451 20.7347 12.4834C20.4659 12.6598 20.0807 12.6307 19.8422 12.415C19.5161 12.0979 19.2011 11.7697 18.875 11.4523Z" fill="#4B4B4B"/>
<path opacity="0.5" d="M3.24625 11.3128C3.55645 11.0065 3.85975 10.6927 4.17385 10.3906C4.51255 10.7644 4.86085 11.1301 5.23105 11.473C5.21845 11.4799 5.19295 11.494 5.18035 11.5012C4.88545 11.7967 4.58995 12.0916 4.29475 12.3871C4.10305 12.5776 3.80275 12.6433 3.54655 12.5614C3.32155 12.4921 3.13795 12.3082 3.06325 12.0856C2.96965 11.8207 3.04525 11.5084 3.24625 11.3128Z" fill="#4B4B4B"/>
<path opacity="0.5" d="M15.25 13.9072C15.7252 13.7131 16.1797 13.4701 16.6177 13.2031C16.9285 13.6819 17.2402 14.1601 17.5516 14.6386C17.6629 14.8099 17.7001 15.0268 17.6506 15.2251C17.5882 15.4918 17.3662 15.7123 17.1001 15.775C16.8118 15.85 16.4833 15.7297 16.3135 15.4843C15.9685 14.9647 15.637 14.4358 15.2887 13.9183C15.2791 13.9156 15.2599 13.9099 15.25 13.9072Z" fill="#4B4B4B"/>
<path opacity="0.5" d="M7.48601 13.2188C7.91441 13.4791 8.36051 13.7108 8.82161 13.9079C8.55131 14.3372 8.26931 14.7595 7.99391 15.1861C7.91261 15.3052 7.84211 15.4325 7.75151 15.545C7.56941 15.7556 7.26341 15.8506 6.99461 15.7744C6.69821 15.6988 6.46421 15.4246 6.44081 15.1186C6.42431 14.9473 6.46991 14.7715 6.56651 14.6293C6.87341 14.1592 7.17731 13.6874 7.48601 13.2188Z" fill="#4B4B4B"/>
<path opacity="0.5" d="M11.2911 14.5472C11.7882 14.5949 12.2898 14.5952 12.7869 14.5469C12.7962 15.0572 12.7878 15.5678 12.7887 16.0784C12.7851 16.4702 12.4209 16.8137 12.03 16.799C11.6469 16.8023 11.2956 16.4645 11.2908 16.0802C11.2914 15.569 11.2863 15.0581 11.2911 14.5472Z" fill="#4B4B4B"/>
</svg>
