<svg width="24" height="24" viewBox="0 0 24 24" fill="none" xmlns="http://www.w3.org/2000/svg">
<path d="M12 21.5C17.2467 21.5 21.5 17.2467 21.5 12C21.5 6.75329 17.2467 2.5 12 2.5C6.75329 2.5 2.5 6.75329 2.5 12C2.5 17.2467 6.75329 21.5 12 21.5Z" fill="#F64C4C" stroke="white"/>
<path d="M11.9766 15.8828C12.2012 15.8626 12.4484 16.0506 12.4883 16.2734L12.4922 16.293C12.5228 16.4326 12.4742 16.6034 12.3643 16.7236L12.3135 16.7715L12.3086 16.7764C12.2684 16.8101 12.2144 16.8397 12.1494 16.8604L12.0869 16.876C11.9497 16.9011 11.7922 16.8587 11.6777 16.7656L11.6318 16.7227C11.5659 16.6518 11.5213 16.5589 11.5059 16.4629L11.501 16.3652V16.3574C11.5036 16.2729 11.5312 16.1868 11.5781 16.1133L11.6309 16.0449L11.6328 16.043C11.6969 15.9736 11.7825 15.9227 11.873 15.8984L11.9648 15.8838L11.9766 15.8828Z" fill="white" stroke="white"/>
<path d="M11.75 7.35938C11.7489 7.27742 11.8154 7.17904 11.9043 7.14062L11.9434 7.12793L11.959 7.12402C12.0405 7.10459 12.1624 7.15794 12.2178 7.24707L12.2373 7.28711L12.2402 7.2959C12.2406 7.29723 12.2419 7.30156 12.2432 7.30957C12.2449 7.32084 12.2461 7.33729 12.2471 7.3623C12.248 7.38883 12.2481 7.41718 12.248 7.45703L12.25 7.59082L12.249 13.3955C12.2472 13.5052 12.1203 13.6262 12.0107 13.6221H11.9854C11.8876 13.6232 11.7811 13.5293 11.7559 13.4346L11.75 13.3945V7.35938Z" fill="white" stroke="white"/>
</svg>
