<svg width="24" height="24" viewBox="0 0 24 24" fill="none" xmlns="http://www.w3.org/2000/svg">
<path opacity="0.5" d="M11.3882 1.29425C13.169 1.19348 14.9751 1.53987 16.5868 2.30643C18.0909 3.01811 19.4236 4.08607 20.4511 5.39449C21.2736 6.44199 21.8989 7.64379 22.2818 8.91959C22.9179 11.0218 22.8875 13.3201 22.1925 15.4036C21.6632 17.0103 20.7423 18.485 19.5365 19.6706C18.4114 20.7819 17.0384 21.6421 15.5453 22.1641C13.4659 22.8929 11.161 22.9602 9.0424 22.3546C7.76255 21.9905 6.55355 21.3818 5.49435 20.5766C4.22935 19.6159 3.1805 18.372 2.4506 16.9608C1.60757 15.3404 1.19212 13.501 1.2551 11.6754C1.30571 10.1212 1.69192 8.57635 2.39527 7.18853C3.17195 5.64304 4.33259 4.29503 5.73705 3.28645C7.37904 2.10039 9.36584 1.40311 11.3882 1.29425ZM11.2568 2.80532C10.1799 2.8899 9.11797 3.16611 8.13638 3.61777C6.69593 4.27659 5.43362 5.31666 4.50556 6.59966C3.65893 7.7621 3.09143 9.12652 2.86628 10.547C2.69105 11.6424 2.71175 12.7693 2.93128 13.8568C3.23066 15.3472 3.9077 16.76 4.8812 17.9274C5.82927 19.0666 7.05177 19.9783 8.42001 20.5496C9.85732 21.1564 11.4512 21.3787 13.0012 21.2109C14.8179 21.0199 16.5674 20.2635 17.9597 19.0826C19.2016 18.0349 20.1598 16.6542 20.7048 15.1236C21.1528 13.8653 21.3202 12.509 21.1998 11.1792C21.0761 9.78579 20.6263 8.42272 19.8995 7.22744C19.0736 5.86617 17.8896 4.72487 16.5002 3.94774C14.9171 3.0577 13.0659 2.66002 11.2568 2.80532Z" fill="#4B4B4B"/>
<path d="M11.841 6.46875C12.1446 6.39003 12.4831 6.59404 12.5558 6.8986C12.6653 7.41054 12.8086 7.9155 12.9879 8.40742C13.1514 8.84986 13.3419 9.28577 13.6013 9.6812C13.7497 9.90748 13.9301 10.1149 14.149 10.2755C14.5215 10.5526 14.9466 10.7492 15.3769 10.9185C15.8762 11.1118 16.3915 11.2629 16.9138 11.3812C17.0256 11.4087 17.1446 11.4181 17.2467 11.4768C17.4527 11.5855 17.5814 11.8223 17.5587 12.0547C17.5418 12.298 17.3598 12.518 17.1243 12.581C16.3528 12.7501 15.5901 12.9807 14.8766 13.3228C14.5226 13.4978 14.1721 13.6993 13.8973 13.9875C13.6186 14.2896 13.4231 14.6569 13.2529 15.0282C12.9802 15.6389 12.7841 16.2818 12.635 16.9329C12.6057 17.0499 12.5967 17.175 12.5337 17.2809C12.4244 17.4824 12.1916 17.6073 11.9633 17.5866C11.755 17.5724 11.5607 17.4397 11.471 17.2517C11.4278 17.1669 11.4161 17.0715 11.3947 16.9799C11.2768 16.4669 11.1261 15.961 10.9367 15.4698C10.7674 15.039 10.5715 14.6141 10.2993 14.2376C10.1358 14.0068 9.92367 13.8141 9.68726 13.6598C9.33547 13.4281 8.94927 13.2538 8.55722 13.1028C8.09116 12.926 7.61206 12.7852 7.12666 12.6728C6.97529 12.6343 6.80974 12.6253 6.6804 12.5284C6.45795 12.377 6.36415 12.0679 6.46717 11.8187C6.5225 11.677 6.63362 11.5578 6.77195 11.4941C6.8572 11.4527 6.95212 11.4424 7.04322 11.4201C7.52816 11.3086 8.00659 11.1669 8.47264 10.9919C8.89619 10.8297 9.31388 10.6426 9.69041 10.3877C9.91624 10.237 10.1182 10.0496 10.2757 9.82785C10.524 9.48394 10.7062 9.09751 10.8643 8.70546C11.0955 8.12064 11.2687 7.51378 11.3972 6.8986C11.4505 6.68761 11.6289 6.51576 11.841 6.46875ZM11.1619 10.6437C10.95 10.9185 10.6905 11.1543 10.4055 11.3513C10.004 11.6307 9.56198 11.8468 9.10987 12.0308C9.65532 12.2483 10.1891 12.5126 10.6506 12.8795C10.9224 13.0943 11.1529 13.357 11.3475 13.6429C11.6145 14.0352 11.825 14.4634 12.002 14.9032C12.2285 14.3449 12.498 13.7961 12.8815 13.3273C13.1026 13.0549 13.3736 12.8264 13.6654 12.6332C14.0424 12.3831 14.4506 12.1838 14.8694 12.0144C14.7678 11.96 14.6562 11.9251 14.552 11.8749C14.0923 11.6698 13.6454 11.4246 13.2591 11.0989C13.014 10.8933 12.8066 10.6464 12.6278 10.3821C12.3653 9.9943 12.1606 9.57076 11.9829 9.13845C11.7712 9.67018 11.5144 10.19 11.1619 10.6437Z" fill="#4B4B4B"/>
</svg>
