<svg width="24" height="24" viewBox="0 0 24 24" fill="none" xmlns="http://www.w3.org/2000/svg">
<path opacity="0.5" d="M11.3025 1.29942C12.9985 1.19055 14.7207 1.48543 16.2784 2.16652C17.7715 2.81477 19.1102 3.81143 20.1672 5.04855C21.082 6.11764 21.7835 7.36892 22.2156 8.70815C22.9019 10.8155 22.9113 13.1366 22.2424 15.2496C21.764 16.7789 20.9326 18.1955 19.8361 19.3635C18.754 20.5197 17.4147 21.4349 15.9412 22.0163C14.0489 22.7667 11.9413 22.9557 9.94369 22.5694C8.6076 22.3128 7.32325 21.7948 6.18061 21.0572C4.92798 20.2518 3.84629 19.1827 3.02575 17.9399C2.11006 16.5584 1.52322 14.9612 1.32595 13.3156C1.18177 12.1152 1.24138 10.8909 1.50005 9.71021C1.81832 8.24367 2.4542 6.84843 3.34717 5.64259C4.32314 4.32247 5.60367 3.22797 7.06189 2.47288C8.37345 1.79291 9.8283 1.39254 11.3025 1.29942ZM11.7494 2.77968C10.0197 2.82039 8.30575 3.36382 6.868 4.3263C5.67857 5.11895 4.67741 6.19119 3.96708 7.43123C3.27947 8.62785 2.86807 9.98148 2.7727 11.3583C2.69847 12.397 2.79857 13.4488 3.07253 14.4538C3.45536 15.8616 4.17806 17.1759 5.16393 18.2515C6.15205 19.3343 7.39861 20.1805 8.77383 20.6899C10.2674 21.2462 11.9057 21.3998 13.4785 21.147C15.1542 20.8798 16.7483 20.1314 18.0313 19.0216C19.211 18.0049 20.1281 16.6857 20.6681 15.2248C21.1414 13.9447 21.3215 12.5589 21.2016 11.1999C21.0755 9.73946 20.5907 8.31183 19.8048 7.07471C18.9899 5.78969 17.8533 4.71093 16.5281 3.96326C15.0822 3.14429 13.4099 2.73447 11.7494 2.77968Z" fill="#FFAD0D"/>
<path d="M11.8403 6.46898C12.0385 6.42085 12.258 6.48405 12.4008 6.62936C12.5135 6.73575 12.5625 6.8878 12.5864 7.0367C12.7661 7.81114 13.0063 8.5777 13.3705 9.28667C13.5549 9.63577 13.7733 9.97968 14.0871 10.2271C14.4065 10.4811 14.7745 10.6653 15.1479 10.8259C15.7824 11.0924 16.4466 11.2847 17.1196 11.426C17.4494 11.5058 17.6507 11.8963 17.524 12.2117C17.4586 12.3925 17.3007 12.5365 17.1142 12.5839C16.4948 12.7171 15.8845 12.897 15.2972 13.1352C14.8784 13.3091 14.4645 13.5097 14.1078 13.7934C13.8284 14.0138 13.6251 14.3132 13.4546 14.6218C13.0761 15.3256 12.8343 16.0942 12.6496 16.8691C12.6104 17.011 12.6051 17.1655 12.5263 17.2939C12.4224 17.4734 12.2197 17.5895 12.0124 17.5886C11.8146 17.5911 11.6208 17.4872 11.5117 17.3227C11.4143 17.1828 11.4093 17.0069 11.3637 16.8479C11.172 16.0757 10.9241 15.3096 10.5379 14.6112C10.369 14.313 10.1682 14.0248 9.896 13.8118C9.58379 13.5644 9.22503 13.3835 8.86109 13.2256C8.21982 12.9537 7.5475 12.7591 6.86664 12.6159C6.63317 12.5554 6.45097 12.3405 6.42893 12.1003C6.40239 11.8749 6.51845 11.6419 6.71279 11.5256C6.84123 11.4446 6.99688 11.4375 7.13993 11.3979C7.8813 11.2161 8.61547 10.9806 9.29341 10.6257C9.62923 10.4453 9.95853 10.2318 10.1974 9.92975C10.4556 9.60562 10.6419 9.23134 10.8043 8.85189C11.0661 8.22501 11.2564 7.56979 11.3956 6.90534C11.4464 6.69166 11.6264 6.51689 11.8403 6.46898Z" fill="#FFAD0D"/>
</svg>
