<svg width="24" height="24" viewBox="0 0 24 24" fill="none" xmlns="http://www.w3.org/2000/svg">
<path opacity="0.5" d="M11.3883 1.29441C13.1691 1.19364 14.9753 1.54003 16.5869 2.30659C18.091 3.01827 19.4237 4.08624 20.4512 5.39465C21.2738 6.44215 21.8991 7.64395 22.2819 8.91975C22.918 11.022 22.8876 13.3203 22.1926 15.4038C21.6633 17.0105 20.7425 18.4851 19.5366 19.6707C18.4115 20.7821 17.0386 21.6422 15.5455 22.1643C13.466 22.8931 11.1611 22.9603 9.04256 22.3548C7.76271 21.9907 6.55371 21.382 5.49451 20.5768C4.22951 19.6161 3.18066 18.3722 2.45077 16.961C1.60773 15.3406 1.19228 13.5011 1.25526 11.6756C1.30587 10.1213 1.69208 8.57651 2.39543 7.18869C3.17211 5.6432 4.33275 4.2952 5.73721 3.28661C7.3792 2.10056 9.366 1.40328 11.3883 1.29441ZM11.257 2.80549C10.18 2.89006 9.11813 3.16628 8.13654 3.61793C6.69609 4.27675 5.43378 5.31683 4.50572 6.59983C3.65909 7.76226 3.09159 9.12669 2.86644 10.5471C2.69122 11.6425 2.71191 12.7694 2.93144 13.857C3.23082 15.3474 3.90786 16.7602 4.88136 17.9275C5.82943 19.0668 7.05193 19.9784 8.42017 20.5498C9.85748 21.1566 11.4513 21.3789 13.0013 21.2111C14.818 21.0201 16.5675 20.2637 17.9599 19.0828C19.2017 18.0351 20.1599 16.6544 20.7049 15.1238C21.153 13.8655 21.3203 12.5092 21.2 11.1794C21.0763 9.78596 20.6264 8.42288 19.8997 7.22761C19.0737 5.86633 17.8897 4.72504 16.5003 3.94791C14.9172 3.05786 13.0661 2.66018 11.257 2.80549Z" fill="#4B4B4B"/>
<path d="M11.8409 6.46863C12.1445 6.38991 12.483 6.59392 12.5557 6.89847C12.6652 7.41041 12.8085 7.91538 12.9878 8.4073C13.1513 8.84974 13.3418 9.28565 13.6012 9.68108C13.7496 9.90736 13.93 10.1148 14.1489 10.2754C14.5214 10.5525 14.9465 10.7491 15.3768 10.9184C15.8761 11.1117 16.3914 11.2628 16.9137 11.3811C17.0255 11.4086 17.1445 11.418 17.2466 11.4767C17.4526 11.5854 17.5813 11.8222 17.5586 12.0546C17.5417 12.2979 17.3597 12.5179 17.1242 12.5809C16.3527 12.75 15.59 12.9806 14.8765 13.3227C14.5225 13.4977 14.172 13.6992 13.8972 13.9874C13.6185 14.2895 13.423 14.6568 13.2528 15.0281C12.9801 15.6388 12.784 16.2817 12.6349 16.9328C12.6056 17.0498 12.5966 17.1749 12.5336 17.2808C12.4243 17.4823 12.1915 17.6072 11.9632 17.5865C11.7549 17.5723 11.5606 17.4396 11.4709 17.2516C11.4277 17.1668 11.416 17.0714 11.3946 16.9798C11.2767 16.4668 11.126 15.9609 10.9366 15.4697C10.7673 15.0389 10.5714 14.614 10.2992 14.2375C10.1357 14.0067 9.92355 13.814 9.68714 13.6597C9.33535 13.428 8.94915 13.2537 8.5571 13.1027C8.09104 12.9259 7.61194 12.7851 7.12654 12.6727C6.97517 12.6342 6.80962 12.6252 6.68028 12.5283C6.45783 12.3769 6.36403 12.0678 6.46705 11.8186C6.52238 11.6769 6.6335 11.5577 6.77183 11.494C6.85708 11.4526 6.952 11.4423 7.0431 11.42C7.52804 11.3085 8.00647 11.1668 8.47252 10.9918C8.89607 10.8296 9.31376 10.6424 9.69029 10.3876C9.91612 10.2369 10.1181 10.0495 10.2756 9.82773C10.5239 9.48381 10.7061 9.09738 10.8642 8.70533C11.0954 8.12051 11.2686 7.51365 11.3971 6.89847C11.4504 6.68749 11.6288 6.51564 11.8409 6.46863ZM11.1618 10.6436C10.9499 10.9184 10.6904 11.1542 10.4054 11.3512C10.0039 11.6306 9.56186 11.8467 9.10975 12.0307C9.6552 12.2482 10.189 12.5125 10.6505 12.8794C10.9223 13.0942 11.1528 13.3569 11.3474 13.6428C11.6144 14.0351 11.8249 14.4633 12.0019 14.9031C12.2284 14.3448 12.4979 13.796 12.8814 13.3272C13.1025 13.0548 13.3735 12.8263 13.6653 12.6331C14.0423 12.383 14.4505 12.1837 14.8693 12.0143C14.7677 11.9599 14.6561 11.925 14.5519 11.8748C14.0922 11.6697 13.6453 11.4245 13.259 11.0988C13.0139 10.8932 12.8065 10.6463 12.6277 10.382C12.3652 9.99418 12.1605 9.57064 11.9828 9.13832C11.7711 9.67006 11.5143 10.1899 11.1618 10.6436Z" fill="#4B4B4B"/>
</svg>
