<svg width="24" height="24" viewBox="0 0 24 24" fill="none" xmlns="http://www.w3.org/2000/svg">
<path opacity="0.5" d="M11.3023 1.2994C12.9983 1.19054 14.7206 1.48542 16.2782 2.16651C17.7713 2.81475 19.1101 3.81142 20.167 5.04853C21.0818 6.11762 21.7834 7.36891 22.2155 8.70814C22.9017 10.8155 22.9112 13.1366 22.2422 15.2495C21.7638 16.7788 20.9325 18.1954 19.8359 19.3635C18.7538 20.5196 17.4146 21.4349 15.941 22.0163C14.0487 22.7667 11.9411 22.9556 9.94348 22.5694C8.60739 22.3128 7.32305 21.7948 6.1804 21.0572C4.92777 20.2518 3.84608 19.1827 3.02554 17.9399C2.10985 16.5584 1.52301 14.9612 1.32574 13.3156C1.18156 12.1151 1.24117 10.8909 1.49984 9.7102C1.81812 8.24366 2.45399 6.84842 3.34696 5.64257C4.32293 4.32246 5.60346 3.22795 7.06168 2.47286C8.37324 1.7929 9.82809 1.39252 11.3023 1.2994ZM11.7493 2.77967C10.0195 2.82038 8.30554 3.36381 6.86779 4.32628C5.67836 5.11893 4.6772 6.19117 3.96687 7.43121C3.27926 8.62784 2.86786 9.98146 2.77249 11.3583C2.69827 12.397 2.79836 13.4488 3.07232 14.4537C3.45515 15.8616 4.17785 17.1758 5.16372 18.2515C6.15184 19.3343 7.3984 20.1805 8.77362 20.6899C10.2672 21.2462 11.9056 21.3998 13.4783 21.147C15.154 20.8798 16.7481 20.1314 18.0311 19.0216C19.2108 18.0049 20.1279 16.6857 20.6679 15.2248C21.1412 13.9447 21.3214 12.5589 21.2015 11.1999C21.0753 9.73944 20.5906 8.31181 19.8047 7.0747C18.9897 5.78967 17.8532 4.71091 16.5279 3.96325C15.082 3.14428 13.4097 2.73445 11.7493 2.77967Z" fill="#FFAD0D"/>
<path d="M11.8404 6.46904C12.0386 6.42091 12.2581 6.48411 12.4009 6.62942C12.5136 6.73581 12.5626 6.88786 12.5865 7.03676C12.7662 7.8112 13.0064 8.57776 13.3706 9.28673C13.555 9.63583 13.7734 9.97974 14.0872 10.2272C14.4066 10.4812 14.7746 10.6654 15.148 10.826C15.7825 11.0925 16.4467 11.2848 17.1197 11.4261C17.4495 11.5059 17.6508 11.8964 17.5241 12.2118C17.4587 12.3926 17.3008 12.5366 17.1143 12.584C16.4949 12.7172 15.8846 12.8971 15.2973 13.1353C14.8785 13.3092 14.4646 13.5098 14.1079 13.7935C13.8285 14.0139 13.6252 14.3133 13.4547 14.6219C13.0762 15.3257 12.8344 16.0943 12.6497 16.8692C12.6105 17.0111 12.6052 17.1656 12.5264 17.294C12.4225 17.4735 12.2198 17.5896 12.0125 17.5887C11.8147 17.5912 11.6209 17.4873 11.5118 17.3228C11.4144 17.1829 11.4094 17.007 11.3638 16.848C11.1721 16.0758 10.9242 15.3097 10.538 14.6113C10.3691 14.3131 10.1683 14.0249 9.89612 13.8119C9.58391 13.5645 9.22515 13.3836 8.86121 13.2257C8.21994 12.9538 7.54762 12.7592 6.86676 12.616C6.63329 12.5555 6.45109 12.3406 6.42905 12.1004C6.40251 11.875 6.51857 11.642 6.71291 11.5257C6.84135 11.4447 6.997 11.4376 7.14005 11.398C7.88142 11.2162 8.61559 10.9807 9.29353 10.6258C9.62935 10.4454 9.95865 10.2319 10.1975 9.92981C10.4557 9.60568 10.642 9.2314 10.8044 8.85195C11.0662 8.22507 11.2565 7.56985 11.3957 6.9054C11.4465 6.69172 11.6265 6.51695 11.8404 6.46904Z" fill="#FFAD0D"/>
</svg>
