<svg width="24" height="24" viewBox="0 0 24 24" fill="none" xmlns="http://www.w3.org/2000/svg">
<path opacity="0.5" d="M4.86493 4.08631C5.13763 3.92851 5.45143 3.86041 5.76223 3.82951C6.12043 3.79561 6.48073 3.79831 6.84013 3.79861C9.73933 3.79831 12.6386 3.79861 15.5378 3.79831C16.2788 3.80101 17.0204 3.79321 17.7617 3.80281C18.2576 3.81481 18.7835 3.85501 19.2113 4.13221C19.6448 4.40761 19.9061 4.89151 19.9952 5.38801C20.1152 6.03991 20.0849 6.70621 20.0924 7.36531C19.5926 7.36471 19.0925 7.36381 18.5924 7.36591C18.5906 6.90181 18.5984 6.43711 18.563 5.97421C18.5438 5.79961 18.5336 5.61721 18.4514 5.45851C18.4079 5.36701 18.2975 5.35291 18.2093 5.33701C17.9516 5.29891 17.6906 5.30251 17.4311 5.29861C13.8608 5.29831 10.2908 5.29861 6.72043 5.29831C6.40993 5.30161 6.09703 5.29291 5.78893 5.33761C5.70043 5.35381 5.59033 5.36791 5.54623 5.45881C5.47123 5.61031 5.45833 5.78341 5.43883 5.94931C5.40073 6.41971 5.40913 6.89221 5.40733 7.36381C4.90753 7.36531 4.40773 7.36591 3.90763 7.36351C3.90673 6.91891 3.90523 6.47371 3.92893 6.02941C3.95383 5.63281 4.00153 5.22751 4.16953 4.86301C4.31533 4.54171 4.55533 4.25941 4.86493 4.08631Z" fill="#4B4B4B"/>
<path d="M3.90806 7.36377C4.40816 7.36617 4.90796 7.36557 5.40776 7.36407C5.41736 7.88817 5.38256 8.41497 5.44406 8.93667C5.47076 9.23547 5.76956 9.37737 5.98616 9.53067C6.99536 10.1592 8.01626 10.7688 9.02726 11.394C9.31346 11.5716 9.59096 11.7711 9.80966 12.03C10.2782 12.5529 10.535 13.2519 10.5425 13.9518C10.5563 14.8011 10.5455 15.6504 10.5488 16.4997C10.5533 16.8339 10.5356 17.1693 10.5698 17.5023C10.5821 17.5701 10.5863 17.6544 10.6502 17.6961C10.7591 17.7741 10.8827 17.8278 11.0033 17.8854C11.3522 18.0396 11.7047 18.186 12.0569 18.3333C12.4115 18.4734 12.7643 18.6324 13.1429 18.6954C13.2002 18.6951 13.2902 18.7272 13.3169 18.657C13.3649 18.5643 13.3805 18.459 13.3976 18.3576C13.4447 18.0204 13.4462 17.679 13.4513 17.3391C13.4513 16.3896 13.4516 15.4398 13.4513 14.49C13.4537 14.2086 13.4498 13.926 13.478 13.6455C13.5653 12.8028 14.0411 12.0096 14.7479 11.541C15.1967 11.2443 15.6632 10.9752 16.1207 10.6917C16.6925 10.3413 17.2658 9.99387 17.837 9.64287C18.0416 9.51267 18.2561 9.39117 18.4286 9.21837C18.5579 9.09057 18.5642 8.89677 18.5789 8.72697C18.6029 8.27397 18.5888 7.81977 18.5927 7.36617C19.0928 7.36407 19.5929 7.36497 20.0927 7.36557C20.0903 7.80687 20.0999 8.24847 20.0828 8.68947C20.0687 9.03717 20.0252 9.39087 19.8818 9.71127C19.7213 10.0749 19.4375 10.3698 19.1153 10.5963C18.6884 10.8969 18.233 11.154 17.7902 11.43C17.1563 11.817 16.5218 12.2031 15.8885 12.5913C15.6962 12.714 15.491 12.8256 15.3374 12.9978C15.0896 13.2606 14.9588 13.6218 14.9579 13.9812C14.9447 14.8806 14.9543 15.7806 14.9516 16.68C14.9483 17.3202 14.9687 17.9646 14.8778 18.6003C14.8097 19.0626 14.6294 19.5357 14.258 19.8384C13.9508 20.0994 13.5401 20.2233 13.1396 20.1993C12.6134 20.1708 12.1181 19.9707 11.633 19.7805C11.2232 19.6122 10.8143 19.4418 10.409 19.2624C9.98696 19.0809 9.56186 18.834 9.32306 18.4263C9.06806 18.0126 9.05186 17.5101 9.04886 17.0385C9.04856 16.1493 9.04976 15.2598 9.04826 14.3706C9.03866 14.112 9.06296 13.8474 8.99126 13.5951C8.93096 13.3581 8.80436 13.1403 8.63306 12.9663C8.48426 12.8088 8.29076 12.7065 8.11046 12.5904C7.24166 12.0582 6.37136 11.5287 5.50226 10.9977C5.15516 10.7835 4.80146 10.5699 4.51016 10.281C4.26956 10.0365 4.09406 9.72897 4.00976 9.39627C3.91286 9.02247 3.91406 8.63367 3.90806 8.25057C3.90776 7.95477 3.90746 7.65927 3.90806 7.36377Z" fill="#4B4B4B"/>
</svg>
