<svg width="24" height="24" viewBox="0 0 24 24" fill="none" xmlns="http://www.w3.org/2000/svg">
<path d="M9.57749 1.26841C10.9155 1.25221 12.2535 1.25881 13.5912 1.26061C15.0648 1.27591 16.5471 1.27321 18.0054 1.51021C19.0098 1.67881 20.0181 2.01901 20.802 2.69071C21.2613 3.07891 21.6369 3.56341 21.9108 4.09831C22.1211 4.50211 22.2627 4.93771 22.3731 5.37841C22.5507 6.09241 22.6305 6.82621 22.6773 7.55911C22.7691 9.06751 22.7556 10.5798 22.7589 12.0906C22.7493 13.65 22.7763 15.2127 22.6545 16.7688C22.5672 17.8272 22.4085 18.9057 21.9354 19.8684C21.5367 20.6898 20.8785 21.3786 20.0823 21.8238C19.1253 22.3536 18.0252 22.5429 16.9479 22.6401C15.3822 22.7718 13.8093 22.7547 12.2394 22.7586C10.7199 22.7532 9.19889 22.7751 7.68149 22.6857C6.52678 22.6107 5.34599 22.4835 4.28129 21.9993C3.35249 21.5844 2.57699 20.8431 2.11319 19.9383C1.62299 18.9669 1.45109 17.8743 1.36349 16.8009C1.29179 15.9129 1.27438 15.0219 1.26298 14.1315C1.25428 12.7908 1.25668 11.4501 1.26208 10.1094C1.26778 9.27871 1.28128 8.44771 1.33438 7.61851C1.38298 6.86071 1.46159 6.10081 1.64489 5.36221C1.77929 4.83151 1.96648 4.30951 2.24758 3.83821C2.66638 3.12871 3.28229 2.53681 4.01069 2.15131C4.68359 1.79101 5.43269 1.59901 6.18299 1.48231C7.30589 1.31371 8.44379 1.28611 9.57749 1.26841ZM9.36928 2.77201C8.63399 2.78461 7.89809 2.80591 7.16519 2.87401C6.56429 2.93071 5.96159 3.01561 5.38409 3.19711C4.97369 3.32731 4.57709 3.51601 4.24109 3.78841C3.87539 4.08091 3.58408 4.46341 3.38848 4.88851C3.17759 5.34241 3.05968 5.83351 2.97838 6.32551C2.85478 7.09111 2.81369 7.86661 2.78819 8.64061C2.76599 9.37051 2.76148 10.1007 2.75789 10.8309C2.75969 11.9907 2.75338 13.1508 2.76629 14.3103C2.77708 15.1317 2.79508 15.9537 2.86558 16.7724C2.91688 17.3403 2.99159 17.9088 3.14489 18.4593C3.27779 18.9354 3.47998 19.3998 3.79589 19.7841C4.09408 20.1555 4.48619 20.4477 4.91999 20.6424C5.32738 20.8278 5.76479 20.937 6.20399 21.0174C6.85049 21.1314 7.50659 21.1785 8.16179 21.2094C9.03029 21.2502 9.89999 21.2529 10.7694 21.2571C12.1899 21.2574 13.611 21.2685 15.0312 21.2367C15.8514 21.216 16.6734 21.1842 17.4867 21.069C18.048 20.9868 18.6114 20.8677 19.1283 20.6265C19.5534 20.4321 19.9344 20.1402 20.2269 19.7751C20.5374 19.3935 20.7378 18.9342 20.8695 18.4632C21.0279 17.8908 21.1047 17.2995 21.1551 16.7088C21.2691 15.2427 21.2538 13.7706 21.2568 12.3009C21.2544 10.8507 21.2715 9.39931 21.198 7.95031C21.162 7.27951 21.105 6.60721 20.9664 5.94871C20.8698 5.49511 20.73 5.04541 20.499 4.64071C20.2086 4.12891 19.7643 3.70531 19.2369 3.44371C18.8013 3.21931 18.3228 3.09391 17.8431 3.00541C17.2497 2.89861 16.6479 2.84851 16.0464 2.81641C15.2088 2.77291 14.3697 2.76571 13.5309 2.76031C12.1437 2.75911 10.7565 2.75131 9.36928 2.77201Z" fill="#4B4B4B"/>
<path opacity="0.5" d="M9.6702 3.25199C10.8963 3.23429 12.123 3.24059 13.3494 3.24209C14.2698 3.25019 15.1917 3.25289 16.1097 3.32819C16.6629 3.37319 17.2167 3.44099 17.7543 3.58349C18.1866 3.69959 18.6108 3.86459 18.9825 4.11689C19.4343 4.41899 19.8099 4.83419 20.0616 5.31599C20.3094 5.78339 20.4495 6.29969 20.5416 6.81809C20.655 7.46879 20.6982 8.12909 20.724 8.78849C20.7777 10.2978 20.7561 11.8086 20.7582 13.3185C20.7558 14.0841 20.7456 14.8497 20.706 15.6144C20.6733 16.2036 20.6211 16.7937 20.5053 17.3733C20.4108 17.8404 20.2704 18.303 20.0406 18.7227C19.7628 19.2387 19.3404 19.674 18.8382 19.9755C18.4338 20.2173 17.9814 20.3682 17.5239 20.4735C16.8939 20.6136 16.2489 20.6697 15.6057 20.7057C14.1951 20.7783 12.7818 20.7543 11.3697 20.76C10.4697 20.7597 9.56971 20.7558 8.6703 20.7198C8.06731 20.6931 7.464 20.6505 6.8682 20.5503C6.3993 20.4696 5.9328 20.3523 5.4996 20.1519C5.0334 19.9413 4.6167 19.6218 4.2951 19.224C3.9948 18.8583 3.7872 18.4245 3.6471 17.9745C3.4806 17.4378 3.3993 16.8789 3.3459 16.3206C3.2706 15.5025 3.2547 14.6805 3.246 13.8597C3.2373 12.6999 3.2388 11.5401 3.2439 10.3803C3.2499 9.64229 3.2604 8.90399 3.3075 8.16749C3.3483 7.55489 3.4116 6.94109 3.5583 6.34409C3.6666 5.90399 3.828 5.47379 4.0704 5.08949C4.3743 4.60379 4.8117 4.20479 5.3178 3.93749C5.7744 3.69749 6.2763 3.55649 6.7821 3.46529C7.7349 3.29819 8.7051 3.27179 9.6702 3.25199ZM9.32011 6.77219C8.95141 6.98969 8.6727 7.34339 8.5272 7.74419C8.3541 7.74569 8.1807 7.73969 8.0079 7.74659C7.7064 7.76339 7.4517 8.03879 7.4481 8.33909C7.4352 8.60189 7.6131 8.85539 7.8612 8.93939C8.08171 9.00389 8.316 8.96159 8.5425 8.97359C8.7486 9.52799 9.2355 9.96929 9.8106 10.1112C10.2753 10.2291 10.7853 10.1553 11.196 9.90719C11.5524 9.69659 11.826 9.35879 11.9748 8.97389C13.293 8.97329 14.6112 8.97419 15.9294 8.97359C16.1619 8.97839 16.389 8.83859 16.4898 8.62919C16.5945 8.42069 16.566 8.15369 16.4178 7.97339C16.3086 7.83689 16.1385 7.74779 15.9627 7.74449C14.6367 7.74029 13.3104 7.74959 11.9844 7.73939C11.811 7.22969 11.3967 6.81299 10.8933 6.62549C10.3827 6.43469 9.7863 6.48899 9.32011 6.77219ZM12.7881 10.4478C12.4284 10.6665 12.1536 11.0139 12.0126 11.4096C10.698 11.409 9.3834 11.4096 8.0688 11.4093C7.7853 11.4003 7.5174 11.6157 7.4619 11.8932C7.3968 12.1686 7.551 12.4746 7.8114 12.5853C7.9383 12.6486 8.0832 12.6402 8.2209 12.6393C9.4893 12.639 10.7574 12.639 12.0255 12.6393C12.2088 13.122 12.5964 13.5246 13.0809 13.7085C13.5978 13.9131 14.2074 13.8609 14.6826 13.5717C15.0366 13.3608 15.3111 13.0254 15.4572 12.6405C15.6537 12.6327 15.8514 12.651 16.0473 12.6297C16.3407 12.5823 16.5708 12.2964 16.5519 11.9994C16.5471 11.7153 16.3185 11.4591 16.0386 11.4168C15.8502 11.3997 15.6609 11.4141 15.4722 11.4093C15.3009 10.9284 14.9292 10.5207 14.4561 10.3242C13.9233 10.0932 13.2813 10.1418 12.7881 10.4478ZM9.2757 14.1051C8.9301 14.3241 8.6673 14.664 8.529 15.0483C8.3553 15.0522 8.1816 15.0408 8.0082 15.0522C7.7022 15.0687 7.4439 15.354 7.4475 15.6588C7.4415 15.9057 7.6047 16.143 7.8324 16.2351C8.061 16.3173 8.3088 16.2597 8.54551 16.2813C8.72491 16.7706 9.1251 17.1711 9.6123 17.3547C10.1232 17.5497 10.7214 17.4984 11.19 17.2164C11.5488 17.0052 11.826 16.6665 11.9751 16.2789C13.2939 16.278 14.6127 16.2792 15.9315 16.2783C16.0932 16.2798 16.2555 16.2171 16.3689 16.1013C16.5258 15.9522 16.5885 15.7158 16.5324 15.5076C16.4826 15.3084 16.3251 15.1419 16.1301 15.0789C15.9972 15.0345 15.8553 15.0516 15.7182 15.0489C14.4741 15.0471 13.2303 15.0525 11.9865 15.0462C11.7867 14.4669 11.2788 14.0058 10.6818 13.8672C10.2063 13.7547 9.6864 13.8393 9.2757 14.1051Z" fill="#4B4B4B"/>
<path opacity="0.35" d="M10.1223 7.75829C10.3134 7.71299 10.5246 7.76909 10.6671 7.90469C10.8426 8.06759 10.9047 8.34029 10.8123 8.56199C10.707 8.83439 10.3842 8.99909 10.1022 8.91599C9.86192 8.85029 9.67172 8.62349 9.66272 8.37239C9.64202 8.09249 9.84812 7.81769 10.1223 7.75829Z" fill="#4B4B4B"/>
<path opacity="0.35" d="M13.6332 11.418C13.9575 11.3487 14.3076 11.6046 14.3358 11.9364C14.3844 12.2649 14.1036 12.5958 13.7718 12.6021C13.4745 12.6228 13.1862 12.3852 13.1514 12.0891C13.1004 11.7843 13.3293 11.4687 13.6332 11.418Z" fill="#4B4B4B"/>
<path opacity="0.35" d="M10.1172 15.0654C10.4373 14.9772 10.8 15.216 10.8471 15.5445C10.9119 15.8697 10.6503 16.2156 10.3191 16.2402C9.9984 16.2825 9.6801 16.0143 9.6636 15.6924C9.6354 15.4098 9.8412 15.1284 10.1172 15.0654Z" fill="#4B4B4B"/>
</svg>
