<svg width="24" height="24" viewBox="0 0 24 24" fill="none" xmlns="http://www.w3.org/2000/svg">
<path opacity="0.5" d="M4.8651 4.0866C5.1378 3.9288 5.4516 3.8607 5.7624 3.8298C6.1206 3.7959 6.4809 3.7986 6.8403 3.7989C9.7395 3.7986 12.6387 3.7989 15.5379 3.7986C16.2789 3.8013 17.0205 3.7935 17.7618 3.8031C18.2577 3.8151 18.7836 3.8553 19.2114 4.1325C19.6449 4.4079 19.9062 4.8918 19.9953 5.3883C20.1153 6.0402 20.085 6.7065 20.0925 7.3656C19.5927 7.365 19.0926 7.3641 18.5925 7.3662C18.5907 6.9021 18.5985 6.4374 18.5631 5.9745C18.5439 5.7999 18.5337 5.6175 18.4515 5.4588C18.408 5.3673 18.2976 5.3532 18.2094 5.3373C17.9517 5.2992 17.6907 5.3028 17.4312 5.2989C13.8609 5.2986 10.2909 5.2989 6.7206 5.2986C6.4101 5.3019 6.0972 5.2932 5.7891 5.3379C5.7006 5.3541 5.5905 5.3682 5.5464 5.4591C5.4714 5.6106 5.4585 5.7837 5.439 5.9496C5.4009 6.42 5.4093 6.8925 5.4075 7.3641C4.9077 7.3656 4.4079 7.3662 3.9078 7.3638C3.9069 6.9192 3.9054 6.474 3.9291 6.0297C3.954 5.6331 4.0017 5.2278 4.1697 4.8633C4.3155 4.542 4.5555 4.2597 4.8651 4.0866Z" fill="#4B4B4B"/>
<path d="M3.9078 7.3638C4.4079 7.3662 4.9077 7.3656 5.4075 7.3641C5.4171 7.8882 5.3823 8.415 5.4438 8.9367C5.4705 9.2355 5.7693 9.3774 5.9859 9.5307C6.9951 10.1592 8.016 10.7688 9.027 11.394C9.3132 11.5716 9.5907 11.7711 9.8094 12.03C10.278 12.5529 10.5348 13.2519 10.5423 13.9518C10.5561 14.8011 10.5453 15.6504 10.5486 16.4997C10.5531 16.8339 10.5354 17.1693 10.5696 17.5023C10.5819 17.5701 10.5861 17.6544 10.65 17.6961C10.7589 17.7741 10.8825 17.8278 11.0031 17.8854C11.352 18.0396 11.7045 18.186 12.0567 18.3333C12.4113 18.4734 12.7641 18.6324 13.1427 18.6954C13.2 18.6951 13.29 18.7272 13.3167 18.657C13.3647 18.5643 13.3803 18.459 13.3974 18.3576C13.4445 18.0204 13.446 17.679 13.4511 17.3391C13.4511 16.3896 13.4514 15.4398 13.4511 14.49C13.4535 14.2086 13.4496 13.926 13.4778 13.6455C13.5651 12.8028 14.0409 12.0096 14.7477 11.541C15.1965 11.2443 15.663 10.9752 16.1205 10.6917C16.6923 10.3413 17.2656 9.9939 17.8368 9.6429C18.0414 9.5127 18.2559 9.3912 18.4284 9.2184C18.5577 9.0906 18.564 8.8968 18.5787 8.727C18.6027 8.274 18.5886 7.8198 18.5925 7.3662C19.0926 7.3641 19.5927 7.365 20.0925 7.3656C20.0901 7.8069 20.0997 8.2485 20.0826 8.6895C20.0685 9.0372 20.025 9.3909 19.8816 9.7113C19.7211 10.0749 19.4373 10.3698 19.1151 10.5963C18.6882 10.8969 18.2328 11.154 17.79 11.43C17.1561 11.817 16.5216 12.2031 15.8883 12.5913C15.696 12.714 15.4908 12.8256 15.3372 12.9978C15.0894 13.2606 14.9586 13.6218 14.9577 13.9812C14.9445 14.8806 14.9541 15.7806 14.9514 16.68C14.9481 17.3202 14.9685 17.9646 14.8776 18.6003C14.8095 19.0626 14.6292 19.5357 14.2578 19.8384C13.9506 20.0994 13.5399 20.2233 13.1394 20.1993C12.6132 20.1708 12.1179 19.9707 11.6328 19.7805C11.223 19.6122 10.8141 19.4418 10.4088 19.2624C9.9867 19.0809 9.5616 18.834 9.3228 18.4263C9.0678 18.0126 9.0516 17.5101 9.0486 17.0385C9.0483 16.1493 9.0495 15.2598 9.048 14.3706C9.0384 14.112 9.0627 13.8474 8.991 13.5951C8.9307 13.3581 8.8041 13.1403 8.6328 12.9663C8.484 12.8088 8.2905 12.7065 8.1102 12.5904C7.2414 12.0582 6.3711 11.5287 5.502 10.9977C5.1549 10.7835 4.8012 10.5699 4.5099 10.281C4.2693 10.0365 4.0938 9.729 4.0095 9.3963C3.9126 9.0225 3.9138 8.6337 3.9078 8.2506C3.9075 7.9548 3.9072 7.6593 3.9078 7.3638Z" fill="#4B4B4B"/>
</svg>
