<svg width="24" height="24" viewBox="0 0 24 24" fill="none" xmlns="http://www.w3.org/2000/svg">
<path d="M9.57758 1.26847C10.9156 1.25227 12.2536 1.25887 13.5913 1.26067C15.0649 1.27597 16.5472 1.27327 18.0055 1.51027C19.0099 1.67887 20.0182 2.01907 20.8021 2.69077C21.2614 3.07897 21.637 3.56347 21.9109 4.09837C22.1212 4.50217 22.2628 4.93777 22.3732 5.37847C22.5508 6.09247 22.6306 6.82627 22.6774 7.55917C22.7692 9.06757 22.7557 10.5799 22.759 12.0907C22.7494 13.6501 22.7764 15.2128 22.6546 16.7689C22.5673 17.8273 22.4086 18.9058 21.9355 19.8685C21.5368 20.6899 20.8786 21.3787 20.0824 21.8239C19.1254 22.3537 18.0253 22.543 16.948 22.6402C15.3823 22.7719 13.8094 22.7548 12.2395 22.7587C10.72 22.7533 9.19898 22.7752 7.68158 22.6858C6.52688 22.6108 5.34608 22.4836 4.28138 21.9994C3.35258 21.5845 2.57708 20.8432 2.11328 19.9384C1.62308 18.967 1.45118 17.8744 1.36358 16.801C1.29188 15.913 1.27448 15.022 1.26308 14.1316C1.25438 12.7909 1.25678 11.4502 1.26218 10.1095C1.26788 9.27877 1.28138 8.44777 1.33448 7.61857C1.38308 6.86077 1.46168 6.10087 1.64498 5.36227C1.77938 4.83157 1.96658 4.30957 2.24768 3.83827C2.66648 3.12877 3.28238 2.53687 4.01078 2.15137C4.68368 1.79107 5.43278 1.59907 6.18309 1.48237C7.30599 1.31377 8.44388 1.28617 9.57758 1.26847ZM9.36938 2.77207C8.63408 2.78467 7.89819 2.80597 7.16528 2.87407C6.56438 2.93077 5.96169 3.01567 5.38418 3.19717C4.97378 3.32737 4.57718 3.51607 4.24118 3.78847C3.87548 4.08097 3.58418 4.46347 3.38858 4.88857C3.17768 5.34247 3.05978 5.83357 2.97848 6.32557C2.85488 7.09117 2.81378 7.86667 2.78828 8.64067C2.76608 9.37057 2.76158 10.1008 2.75798 10.831C2.75978 11.9908 2.75348 13.1509 2.76638 14.3104C2.77718 15.1318 2.79518 15.9538 2.86568 16.7725C2.91698 17.3404 2.99168 17.9089 3.14498 18.4594C3.27788 18.9355 3.48008 19.3999 3.79598 19.7842C4.09418 20.1556 4.48628 20.4478 4.92008 20.6425C5.32748 20.8279 5.76488 20.9371 6.20409 21.0175C6.85058 21.1315 7.50669 21.1786 8.16189 21.2095C9.03038 21.2503 9.90008 21.253 10.7695 21.2572C12.19 21.2575 13.6111 21.2686 15.0313 21.2368C15.8515 21.2161 16.6735 21.1843 17.4868 21.0691C18.0481 20.9869 18.6115 20.8678 19.1284 20.6266C19.5535 20.4322 19.9345 20.1403 20.227 19.7752C20.5375 19.3936 20.7379 18.9343 20.8696 18.4633C21.028 17.8909 21.1048 17.2996 21.1552 16.7089C21.2692 15.2428 21.2539 13.7707 21.2569 12.301C21.2545 10.8508 21.2716 9.39937 21.1981 7.95037C21.1621 7.27957 21.1051 6.60727 20.9665 5.94877C20.8699 5.49517 20.7301 5.04547 20.4991 4.64077C20.2087 4.12897 19.7644 3.70537 19.237 3.44377C18.8014 3.21937 18.3229 3.09397 17.8432 3.00547C17.2498 2.89867 16.648 2.84857 16.0465 2.81647C15.2089 2.77297 14.3698 2.76577 13.531 2.76037C12.1438 2.75917 10.7566 2.75137 9.36938 2.77207Z" fill="#4B4B4B"/>
<path opacity="0.5" d="M9.67017 3.25196C10.8963 3.23426 12.123 3.24056 13.3494 3.24206C14.2698 3.25016 15.1917 3.25286 16.1097 3.32816C16.6629 3.37316 17.2167 3.44096 17.7543 3.58346C18.1866 3.69956 18.6108 3.86456 18.9825 4.11686C19.4343 4.41896 19.8099 4.83416 20.0616 5.31596C20.3094 5.78336 20.4495 6.29966 20.5416 6.81806C20.655 7.46876 20.6982 8.12906 20.724 8.78846C20.7777 10.2978 20.7561 11.8086 20.7582 13.3185C20.7558 14.0841 20.7456 14.8497 20.706 15.6144C20.6733 16.2036 20.6211 16.7937 20.5053 17.3733C20.4108 17.8404 20.2704 18.303 20.0406 18.7227C19.7628 19.2387 19.3404 19.674 18.8382 19.9755C18.4338 20.2173 17.9814 20.3682 17.5239 20.4735C16.8939 20.6136 16.2489 20.6697 15.6057 20.7057C14.1951 20.7783 12.7818 20.7543 11.3697 20.76C10.4697 20.7597 9.56967 20.7558 8.67027 20.7198C8.06727 20.6931 7.46397 20.6505 6.86817 20.5503C6.39927 20.4696 5.93277 20.3523 5.49957 20.1519C5.03337 19.9413 4.61667 19.6218 4.29507 19.224C3.99477 18.8583 3.78717 18.4245 3.64707 17.9745C3.48057 17.4378 3.39927 16.8789 3.34587 16.3206C3.27057 15.5025 3.25467 14.6805 3.24597 13.8597C3.23727 12.6999 3.23877 11.5401 3.24387 10.3803C3.24987 9.64226 3.26037 8.90396 3.30747 8.16746C3.34827 7.55486 3.41157 6.94106 3.55827 6.34406C3.66657 5.90396 3.82797 5.47376 4.07037 5.08946C4.37427 4.60376 4.81167 4.20476 5.31777 3.93746C5.77437 3.69746 6.27627 3.55646 6.78207 3.46526C7.73487 3.29816 8.70507 3.27176 9.67017 3.25196ZM9.32007 6.77216C8.95137 6.98966 8.67267 7.34336 8.52717 7.74416C8.35407 7.74566 8.18067 7.73966 8.00787 7.74656C7.70637 7.76336 7.45167 8.03876 7.44807 8.33906C7.43517 8.60186 7.61307 8.85536 7.86117 8.93936C8.08167 9.00386 8.31597 8.96156 8.54247 8.97356C8.74857 9.52796 9.23547 9.96926 9.81057 10.1112C10.2753 10.2291 10.7853 10.1553 11.196 9.90716C11.5524 9.69656 11.826 9.35876 11.9748 8.97386C13.293 8.97326 14.6112 8.97416 15.9294 8.97356C16.1619 8.97836 16.389 8.83856 16.4898 8.62916C16.5945 8.42066 16.566 8.15366 16.4178 7.97336C16.3086 7.83686 16.1385 7.74776 15.9627 7.74446C14.6367 7.74026 13.3104 7.74956 11.9844 7.73936C11.811 7.22966 11.3967 6.81296 10.8933 6.62546C10.3827 6.43466 9.78627 6.48896 9.32007 6.77216ZM12.7881 10.4478C12.4284 10.6665 12.1536 11.0139 12.0126 11.4096C10.698 11.409 9.38337 11.4096 8.06877 11.4093C7.78527 11.4003 7.51737 11.6157 7.46187 11.8932C7.39677 12.1686 7.55097 12.4746 7.81137 12.5853C7.93827 12.6486 8.08317 12.6402 8.22087 12.6393C9.48927 12.639 10.7574 12.639 12.0255 12.6393C12.2088 13.122 12.5964 13.5246 13.0809 13.7085C13.5978 13.9131 14.2074 13.8609 14.6826 13.5717C15.0366 13.3608 15.3111 13.0254 15.4572 12.6405C15.6537 12.6327 15.8514 12.651 16.0473 12.6297C16.3407 12.5823 16.5708 12.2964 16.5519 11.9994C16.5471 11.7153 16.3185 11.4591 16.0386 11.4168C15.8502 11.3997 15.6609 11.4141 15.4722 11.4093C15.3009 10.9284 14.9292 10.5207 14.4561 10.3242C13.9233 10.0932 13.2813 10.1418 12.7881 10.4478ZM9.27567 14.1051C8.93007 14.3241 8.66727 14.664 8.52897 15.0483C8.35527 15.0522 8.18157 15.0408 8.00817 15.0522C7.70217 15.0687 7.44387 15.354 7.44747 15.6588C7.44147 15.9057 7.60467 16.143 7.83237 16.2351C8.06097 16.3173 8.30877 16.2597 8.54547 16.2813C8.72487 16.7706 9.12507 17.1711 9.61227 17.3547C10.1232 17.5497 10.7214 17.4984 11.19 17.2164C11.5488 17.0052 11.826 16.6665 11.9751 16.2789C13.2939 16.278 14.6127 16.2792 15.9315 16.2783C16.0932 16.2798 16.2555 16.2171 16.3689 16.1013C16.5258 15.9522 16.5885 15.7158 16.5324 15.5076C16.4826 15.3084 16.3251 15.1419 16.1301 15.0789C15.9972 15.0345 15.8553 15.0516 15.7182 15.0489C14.4741 15.0471 13.2303 15.0525 11.9865 15.0462C11.7867 14.4669 11.2788 14.0058 10.6818 13.8672C10.2063 13.7547 9.68637 13.8393 9.27567 14.1051Z" fill="#4B4B4B"/>
<path opacity="0.35" d="M10.1222 7.75811C10.3133 7.71281 10.5245 7.76891 10.667 7.90451C10.8425 8.06741 10.9046 8.34011 10.8122 8.56181C10.7069 8.83421 10.3841 8.99891 10.1021 8.91581C9.86176 8.85011 9.67157 8.62331 9.66257 8.37221C9.64187 8.09231 9.84797 7.81751 10.1222 7.75811Z" fill="#4B4B4B"/>
<path opacity="0.35" d="M13.633 11.4181C13.9573 11.3488 14.3074 11.6047 14.3356 11.9365C14.3842 12.265 14.1034 12.5959 13.7716 12.6022C13.4743 12.6229 13.186 12.3853 13.1512 12.0892C13.1002 11.7844 13.3291 11.4688 13.633 11.4181Z" fill="#4B4B4B"/>
<path opacity="0.35" d="M10.1173 15.0653C10.4374 14.9771 10.8001 15.2159 10.8472 15.5444C10.912 15.8696 10.6504 16.2155 10.3192 16.2401C9.99852 16.2824 9.68022 16.0142 9.66372 15.6923C9.63552 15.4097 9.84132 15.1283 10.1173 15.0653Z" fill="#4B4B4B"/>
</svg>
