<svg width="24" height="24" viewBox="0 0 24 24" fill="none" xmlns="http://www.w3.org/2000/svg">
<path d="M9.39831 1.27073C10.7951 1.25183 12.1922 1.25873 13.5893 1.26053C14.9798 1.27403 16.3769 1.27523 17.7566 1.47113C18.7826 1.62023 19.8218 1.92053 20.6501 2.56853C21.3866 3.13403 21.9227 3.93683 22.2107 4.81613C22.604 5.99873 22.6736 7.25663 22.7234 8.49293C22.7729 10.13 22.7555 11.7683 22.7567 13.4063C22.7462 14.738 22.745 16.0736 22.5932 17.3987C22.4708 18.4169 22.2389 19.4531 21.677 20.3264C21.1667 21.1256 20.3945 21.7469 19.514 22.0946C18.443 22.523 17.2796 22.6313 16.1381 22.6976C14.5493 22.7759 12.9578 22.754 11.3678 22.7594C9.91611 22.7516 8.46171 22.7648 7.01451 22.6355C6.00051 22.5386 4.96911 22.3637 4.05621 21.8894C3.14391 21.4211 2.40681 20.6291 1.99611 19.6904C1.53201 18.6404 1.40511 17.4824 1.33041 16.3484C1.23261 14.6099 1.26441 12.8681 1.25781 11.1281C1.26381 9.76703 1.25871 8.40353 1.37751 7.04663C1.46061 6.15983 1.60191 5.26553 1.94751 4.43903C2.25801 3.68543 2.76861 3.01283 3.42321 2.52503C3.87771 2.18213 4.39881 1.93493 4.94061 1.76423C5.59731 1.55723 6.28131 1.45253 6.96501 1.38593C7.77381 1.30883 8.58621 1.28483 9.39831 1.27073ZM9.30831 2.77283C8.50821 2.78783 7.70721 2.81303 6.91131 2.89943C6.38691 2.95823 5.86281 3.04343 5.35941 3.20513C4.94331 3.33953 4.54251 3.53573 4.20561 3.81773C3.85041 4.11113 3.56841 4.49003 3.37881 4.90943C3.14061 5.43293 3.02181 6.00143 2.94171 6.56813C2.84001 7.30403 2.80581 8.04743 2.78361 8.78933C2.74851 10.1585 2.76021 11.5283 2.75781 12.8981C2.76111 13.8089 2.76261 14.7203 2.79711 15.6305C2.82291 16.2914 2.86461 16.9529 2.96481 17.6072C3.04821 18.1382 3.17091 18.6692 3.40191 19.157C3.61881 19.6175 3.95061 20.0243 4.36401 20.3219C4.74231 20.5961 5.18241 20.7731 5.63211 20.8916C6.22101 21.047 6.82821 21.1178 7.43421 21.1661C8.76321 21.2636 10.097 21.2522 11.4287 21.2591C12.8882 21.2549 14.3486 21.2711 15.8075 21.212C16.4996 21.1799 17.1932 21.1313 17.8754 21.0053C18.3629 20.9141 18.8483 20.7803 19.2887 20.5472C19.7834 20.2874 20.2031 19.8863 20.4833 19.4027C20.7293 18.9821 20.8739 18.5111 20.9729 18.0365C21.1121 17.3624 21.1664 16.6745 21.203 15.9881C21.2702 14.549 21.254 13.1078 21.2585 11.6675C21.2525 10.2968 21.266 8.92463 21.1745 7.55633C21.1313 6.96263 21.0671 6.36803 20.9303 5.78783C20.822 5.33243 20.6627 4.88333 20.4062 4.48883C20.1227 4.05083 19.7216 3.68963 19.2563 3.45293C18.791 3.21173 18.2777 3.08123 17.7644 2.99123C17.1182 2.88143 16.4636 2.83463 15.8096 2.80493C15.0299 2.77103 14.249 2.76443 13.4684 2.76023C12.0818 2.75873 10.6949 2.75153 9.30831 2.77283Z" fill="#4B4B4B"/>
<path opacity="0.5" d="M8.82134 5.58029C9.24344 5.34899 9.74234 5.26499 10.2175 5.33819C11.0194 5.45279 11.7274 6.04439 11.9848 6.81209C13.5913 6.81359 15.1978 6.81239 16.8043 6.81269C17.0515 6.80939 17.2936 6.94139 17.4286 7.14779C17.569 7.35449 17.5924 7.63379 17.491 7.86179C17.4034 8.06309 17.224 8.22239 17.0125 8.28239C16.8865 8.32049 16.7536 8.31209 16.6237 8.31269C15.0724 8.31239 13.5211 8.31299 11.9698 8.31239C11.8195 8.71169 11.5561 9.06839 11.2132 9.32309C10.8304 9.61139 10.3522 9.76949 9.87314 9.76619C9.37394 9.76709 8.87714 9.59159 8.48834 9.27839C8.17334 9.02789 7.93124 8.68949 7.78994 8.31299C7.58384 8.31089 7.37744 8.31569 7.17164 8.31119C6.90494 8.30399 6.65234 8.13839 6.53384 7.90049C6.43004 7.69859 6.42584 7.44839 6.52424 7.24349C6.63374 7.00499 6.87764 6.83249 7.14044 6.81509C7.35134 6.80879 7.56224 6.81479 7.77344 6.81239C7.95374 6.29069 8.33414 5.84069 8.82134 5.58029ZM9.70574 6.83369C9.35834 6.91169 9.10724 7.27229 9.15794 7.62539C9.19304 8.01149 9.57974 8.31719 9.96374 8.26139C10.3666 8.22599 10.6783 7.80899 10.5952 7.41209C10.5355 7.01099 10.0975 6.72449 9.70574 6.83369Z" fill="#4B4B4B"/>
<path opacity="0.5" d="M12.9799 10.0993C13.4377 9.8212 13.9978 9.7204 14.5243 9.817C15.3034 9.9499 15.9799 10.534 16.2331 11.2813C16.4233 11.2822 16.6132 11.281 16.8034 11.2816C17.0503 11.278 17.2924 11.4094 17.4277 11.6155C17.5819 11.8405 17.5948 12.1519 17.4619 12.3898C17.3395 12.6169 17.0938 12.7726 16.8349 12.7798C16.6285 12.7846 16.4218 12.7795 16.2154 12.7822C16.0549 13.2193 15.7516 13.6021 15.364 13.8601C14.9866 14.1148 14.5285 14.2465 14.0734 14.2345C13.5649 14.2252 13.063 14.0314 12.6778 13.6993C12.3901 13.4545 12.1699 13.1341 12.037 12.781C10.435 12.7825 8.83303 12.781 7.23103 12.7819C7.01803 12.7882 6.80413 12.703 6.65893 12.5464C6.45343 12.3364 6.39463 12.0001 6.51523 11.7325C6.62833 11.464 6.91003 11.2759 7.20223 11.2816C8.80843 11.2816 10.4146 11.2822 12.0211 11.281C12.1903 10.7914 12.5347 10.3648 12.9799 10.0993ZM13.9663 11.299C13.6762 11.3611 13.4407 11.6173 13.4065 11.9125C13.357 12.2374 13.5604 12.5776 13.8694 12.6886C14.1532 12.8005 14.5003 12.7078 14.6896 12.4684C14.9038 12.2158 14.9077 11.815 14.698 11.5585C14.5303 11.3413 14.2336 11.2357 13.9663 11.299Z" fill="#4B4B4B"/>
<path opacity="0.5" d="M8.83596 14.4777C9.26946 14.2452 9.78186 14.1672 10.2661 14.2521C11.0485 14.3823 11.7313 14.9664 11.9848 15.7173C13.5913 15.7185 15.1978 15.717 16.804 15.7179C17.059 15.7161 17.3095 15.855 17.4415 16.0737C17.5708 16.2786 17.5885 16.5468 17.491 16.7682C17.377 17.037 17.0947 17.2227 16.8022 17.2176C15.1915 17.2179 13.5808 17.2176 11.9698 17.2179C11.8003 17.6724 11.4802 18.0693 11.0695 18.3282C10.6027 18.627 10.0213 18.7371 9.47676 18.636C8.71596 18.504 8.05296 17.9421 7.78896 17.2176C7.59306 17.2173 7.39686 17.2182 7.20096 17.2176C6.95526 17.2194 6.71346 17.0898 6.57906 16.884C6.42546 16.6593 6.41106 16.3497 6.54306 16.1118C6.66426 15.882 6.91296 15.7263 7.17276 15.7191C7.37286 15.7152 7.57326 15.7191 7.77366 15.7176C7.95576 15.1905 8.34246 14.7378 8.83596 14.4777ZM9.70416 15.7398C9.45276 15.7998 9.24366 16.0044 9.17766 16.2546C9.10356 16.5192 9.19506 16.8204 9.40596 16.9971C9.67386 17.2374 10.12 17.2281 10.3765 16.9752C10.6459 16.7346 10.6834 16.2873 10.4578 16.0053C10.2886 15.7773 9.97926 15.6684 9.70416 15.7398Z" fill="#4B4B4B"/>
</svg>
