<svg width="24" height="24" viewBox="0 0 24 24" fill="none" xmlns="http://www.w3.org/2000/svg">
<g clip-path="url(#clip0_35569_36572)">
<mask id="mask0_35569_36572" style="mask-type:luminance" maskUnits="userSpaceOnUse" x="0" y="0" width="24" height="24">
<path d="M24 0H0V24H24V0Z" fill="white"/>
</mask>
<g mask="url(#mask0_35569_36572)">
<mask id="mask1_35569_36572" style="mask-type:luminance" maskUnits="userSpaceOnUse" x="0" y="0" width="24" height="24">
<path d="M24 0H0V24H24V0Z" fill="white"/>
</mask>
<g mask="url(#mask1_35569_36572)">
<path d="M9.9081 2.62961C11.6486 2.50365 13.4303 2.96835 14.8763 3.94837C15.9214 4.65645 16.7914 5.63219 17.3371 6.77326C17.4716 7.05757 17.3468 7.43006 17.0737 7.58278C16.844 7.72179 16.53 7.6894 16.3274 7.51553C16.1915 7.40082 16.131 7.22807 16.0455 7.07782C15.3827 5.8551 14.2639 4.90477 12.98 4.38451C11.1913 3.64719 9.05921 3.72974 7.37179 4.69649C7.16328 4.79905 6.99144 4.97203 6.76426 5.03568C6.47545 5.11576 6.14435 4.95763 6.02199 4.68479C5.89603 4.42207 5.97813 4.07231 6.21993 3.90496C7.30499 3.15797 8.59586 2.72295 9.9081 2.62961Z" fill="#4B4B4B"/>
<path d="M4.17072 6.42565C4.44851 6.35952 4.76296 6.5037 4.88555 6.7635C4.97777 6.94052 4.97597 7.16072 4.88825 7.33954C4.50384 8.13332 4.30455 9.01504 4.30568 9.89677C4.30545 11.1638 4.30568 12.4308 4.30545 13.6979C4.305 14.645 4.54185 15.5906 4.98317 16.4283C5.42178 17.2578 6.05631 17.9837 6.82107 18.5275C6.99516 18.6434 7.1814 18.7853 7.22841 19.0017C7.32198 19.3128 7.12787 19.6738 6.81904 19.7714C6.63842 19.8378 6.43194 19.8099 6.26774 19.7132C4.98227 18.8519 3.96783 17.5828 3.4424 16.1248C3.13357 15.2787 2.99524 14.374 3.01683 13.4743C3.01728 12.4391 3.01458 11.404 3.01683 10.3691C3.01908 10.0322 3.01053 9.69456 3.03707 9.35851C3.10185 8.47251 3.33623 7.60068 3.71816 6.79904C3.79981 6.61257 3.97076 6.46794 4.17072 6.42565Z" fill="#4B4B4B"/>
<path d="M17.2614 9.75315C17.5871 9.6661 17.9499 9.89215 18.0329 10.2149C18.0557 10.3019 18.0507 10.3926 18.0527 10.4816C18.0566 10.7745 18.0518 11.0676 18.0534 11.3604C18.0725 11.7331 17.7131 12.064 17.3435 12.0172C17.0403 11.9833 16.7727 11.7151 16.7632 11.4063C16.7661 11.0977 16.7639 10.7893 16.7648 10.481C16.7655 10.3932 16.761 10.3039 16.7846 10.2187C16.8435 9.99225 17.0338 9.80668 17.2614 9.75315Z" fill="#4B4B4B"/>
<path d="M10.4012 9.89181C10.7644 9.80409 11.1675 10.1046 11.1763 10.4806C11.1824 11.359 11.1801 12.2373 11.1774 13.1155C11.1729 13.4425 10.8744 13.7295 10.549 13.7295C10.2685 13.7401 10.0001 13.5415 9.91759 13.2754C9.88385 13.1721 9.89217 13.0624 9.89127 12.9555C9.88947 12.1384 9.89014 11.3212 9.89104 10.504C9.89284 10.2143 10.1202 9.95074 10.4012 9.89181Z" fill="#4B4B4B"/>
<path d="M16.0495 12.5231C16.9074 12.4264 17.7931 12.5816 18.5633 12.973C19.5505 13.4676 20.3405 14.3424 20.7273 15.377C21.0533 16.2379 21.0989 17.2012 20.8598 18.0899C20.6743 18.785 20.3141 19.4319 19.8238 19.9582C19.2761 20.5493 18.5653 20.9879 17.7904 21.2097C16.9649 21.4477 16.0708 21.4416 15.2487 21.1917C14.248 20.891 13.3638 20.2236 12.7983 19.345C12.389 18.7148 12.1452 17.9781 12.0984 17.228C12.0446 16.4169 12.2183 15.5914 12.5997 14.8732C12.9778 14.1548 13.5577 13.5448 14.2543 13.1284C14.8 12.8007 15.4168 12.5929 16.0495 12.5231ZM16.17 13.8079C15.697 14.2798 15.2213 14.7493 14.7476 15.2207C14.5476 15.3856 14.4885 15.6969 14.629 15.9178C14.739 16.1049 14.9691 16.2109 15.1831 16.1728C15.3007 16.1544 15.41 16.0955 15.4926 16.0098C15.6608 15.8404 15.8315 15.6733 16.0011 15.505C16.0029 16.508 16.002 17.511 16.002 18.5139C15.9986 18.7015 16.1023 18.8853 16.2634 18.9811C16.4177 19.0738 16.6186 19.0859 16.781 19.007C16.9672 18.9204 17.0956 18.7202 17.0896 18.5139C17.0914 17.5114 17.0866 16.5089 17.0916 15.5064C17.2598 15.6668 17.4213 15.8341 17.5873 15.9972C17.6548 16.0678 17.7369 16.1258 17.8311 16.1544C18.0631 16.2329 18.3377 16.1303 18.4621 15.9198C18.6054 15.6976 18.5444 15.3831 18.3408 15.2185C17.8617 14.7454 17.386 14.2686 16.906 13.7965C16.7065 13.608 16.3662 13.6215 16.17 13.8079ZM14.6533 19.3363C14.5227 19.3594 14.4039 19.4433 14.3398 19.5598C14.2563 19.7042 14.2635 19.8957 14.3585 20.0331C14.4401 20.1566 14.5852 20.2344 14.7334 20.2328C15.9478 20.2324 17.1624 20.2335 18.3768 20.2322C18.6072 20.2299 18.8094 20.0239 18.8103 19.7942C18.8238 19.5553 18.6168 19.3329 18.3775 19.3302C17.3955 19.3282 16.4132 19.33 15.4309 19.3293C15.1718 19.3338 14.912 19.3203 14.6533 19.3363Z" fill="#4B4B4B"/>
<path d="M11.6614 19.6071C11.9954 19.516 12.3782 19.7428 12.4515 20.0824C12.539 20.4129 12.3062 20.7864 11.9718 20.8543C11.1791 21.0131 10.3608 21.0431 9.5592 20.941C9.48362 20.9309 9.40669 20.924 9.33472 20.8984C9.0702 20.805 8.88238 20.524 8.9105 20.2428C8.92714 19.9799 9.12823 19.7458 9.37993 19.6763C9.49734 19.6403 9.62173 19.6552 9.74116 19.67C10.3793 19.7506 11.0298 19.7278 11.6614 19.6071Z" fill="#4B4B4B"/>
<path opacity="0.5" d="M10.4251 6.0411C10.5556 6.02086 10.6878 6.0321 10.8187 6.04154C11.657 6.09418 12.4686 6.4363 13.1087 6.97681C14.0091 7.73347 14.56 8.87949 14.6106 10.0524C14.6135 10.1676 14.6241 10.2843 14.6027 10.3984C14.5469 10.6629 14.309 10.879 14.0384 10.9027C13.7583 10.9357 13.4697 10.7587 13.3708 10.4951C13.3231 10.3766 13.3287 10.247 13.3233 10.1219C13.2959 9.38491 12.9886 8.6595 12.4684 8.13519C11.9638 7.61965 11.2508 7.30746 10.5272 7.31353C10.2004 7.31263 9.89903 7.03304 9.89228 6.70262C9.86799 6.38862 10.1147 6.08564 10.4251 6.0411Z" fill="#4B4B4B"/>
<path opacity="0.5" d="M7.34268 8.08886C7.64409 8.04162 7.96034 8.24473 8.04401 8.53782C8.09642 8.70134 8.07168 8.88151 7.99723 9.03401C7.8373 9.39727 7.75385 9.7927 7.74373 10.189C7.74081 11.0739 7.74351 11.9588 7.74238 12.8436C7.7489 13.1743 7.72506 13.5074 7.78084 13.8354C7.89218 14.5524 8.26848 15.2281 8.83418 15.6854C9.35512 16.1076 10.0348 16.3368 10.7058 16.2914C10.8245 16.2853 10.9438 16.2522 11.0627 16.2756C11.3279 16.3188 11.5621 16.5356 11.6015 16.8055C11.6647 17.1407 11.4073 17.4988 11.0681 17.5417C10.2602 17.6549 9.41833 17.5071 8.69676 17.127C8.01005 16.7682 7.43558 16.2061 7.04487 15.5385C6.65979 14.8822 6.45713 14.1224 6.45421 13.3619C6.45331 12.4694 6.45421 11.5771 6.45398 10.6845C6.45556 10.3926 6.44521 10.0997 6.47805 9.80912C6.52529 9.34329 6.65125 8.88691 6.83996 8.45887C6.93578 8.2652 7.12517 8.11495 7.34268 8.08886Z" fill="#4B4B4B"/>
</g>
</g>
</g>
<defs>
<clipPath id="clip0_35569_36572">
<rect width="24" height="24" fill="white"/>
</clipPath>
</defs>
</svg>
