<svg width="24" height="24" viewBox="0 0 24 24" fill="none" xmlns="http://www.w3.org/2000/svg">
<path d="M11.3808 1.69715C14.2599 1.52097 17.2224 2.72456 18.9933 4.92681C19.3627 5.39782 19.7124 5.8949 19.9449 6.44321C20.1343 6.95018 19.568 7.50029 19.0355 7.3358C18.5912 7.23063 18.4787 6.75782 18.2565 6.43602C16.7733 4.054 13.7012 2.78838 10.8671 3.19288C9.80589 3.3331 8.7812 3.70883 7.88964 4.27782C7.62995 4.45849 7.25683 4.48187 6.99433 4.294C6.58933 4.03872 6.57339 3.40052 6.97933 3.13805C8.26745 2.27602 9.81526 1.78613 11.3808 1.69715Z" fill="#4B4B4B"/>
<path opacity="0.5" d="M11.7473 5.56407C12.2666 5.4634 12.8076 5.57935 13.312 5.70789C15.0698 6.19508 16.3991 7.74385 16.6757 9.4634C16.7198 9.81666 16.8023 10.1879 16.6954 10.5375C16.5351 10.9708 15.9088 11.1362 15.5404 10.8396C15.2582 10.6508 15.246 10.3002 15.231 10.0036C15.1635 8.84138 14.4088 7.72767 13.2988 7.24048C12.8198 6.99688 12.2723 6.99329 11.751 6.91778C11.0995 6.73711 11.0976 5.74834 11.7473 5.56407Z" fill="#4B4B4B"/>
<path d="M4.44599 6.01343C4.8388 5.82646 5.35911 6.05478 5.47255 6.45927C5.5588 6.69208 5.45755 6.93118 5.35724 7.14332C4.94005 8.01163 4.74224 8.97163 4.74974 9.92624C4.75349 11.3923 4.7413 12.8575 4.75536 14.3235C4.80224 16.3811 5.93661 18.3667 7.68599 19.5496C7.96911 19.7204 8.23161 20.0017 8.17067 20.3487C8.13036 20.844 7.4788 21.1568 7.04567 20.8755C4.80786 19.4642 3.3313 16.9896 3.25817 14.4152C3.23849 12.9177 3.25442 11.4193 3.24974 9.92174C3.24317 8.85748 3.44942 7.79141 3.87224 6.80624C4.00724 6.515 4.11224 6.15186 4.44599 6.01343Z" fill="#4B4B4B"/>
<path opacity="0.5" d="M8.08744 7.88474C8.47182 7.71126 8.97245 7.92789 9.09432 8.3162C9.20776 8.60294 9.03901 8.88429 8.94713 9.15216C8.71463 9.74272 8.74932 10.3827 8.74932 11.0021C8.76057 12.0142 8.72776 13.0281 8.7662 14.0394C8.86463 15.5576 10.1893 16.9544 11.8037 17.0308C13.2812 17.1459 14.68 16.1095 15.0831 14.7684C15.2331 14.3684 15.219 13.9396 15.2837 13.5243C15.4 13.0659 16.0375 12.8537 16.4284 13.1396C16.6815 13.2987 16.7743 13.6034 16.7453 13.8812C16.7031 15.3652 15.9193 16.8241 14.6425 17.6744C13.5297 18.4358 12.0512 18.6758 10.7397 18.3054C9.18151 17.892 7.9337 16.6443 7.47619 15.1693C7.13494 14.1409 7.28213 13.0497 7.24932 11.9899C7.28213 10.9077 7.12651 9.79036 7.50057 8.74496C7.61963 8.42407 7.72463 8.02766 8.08744 7.88474Z" fill="#4B4B4B"/>
<path d="M19.8218 9.70262C20.1227 9.62801 20.4621 9.75745 20.6271 10.01C20.7612 10.1952 20.7462 10.4298 20.7518 10.6437C20.7424 11.8698 20.7584 13.0967 20.7434 14.3228C20.704 16.1934 19.9184 18.0226 18.6246 19.4158C16.6877 21.5363 13.609 22.6698 10.6934 22.2239C10.2321 22.1493 9.96396 21.6028 10.1843 21.21C10.3343 20.8963 10.7196 20.7561 11.0618 20.8253C12.5777 21.0095 14.148 20.7138 15.4859 20.0046C17.6074 18.908 19.1449 16.7516 19.2387 14.419C19.2677 13.0698 19.234 11.7197 19.2555 10.3704C19.2565 10.0576 19.5059 9.77183 19.8218 9.70262Z" fill="#4B4B4B"/>
<path d="M11.7512 9.88206C12.2059 9.71128 12.7553 10.0708 12.744 10.541C12.7553 11.5064 12.7525 12.4726 12.745 13.4389C12.7581 13.8219 12.4037 14.1661 12.0043 14.1589C11.5993 14.1715 11.2375 13.8237 11.2534 13.4353C11.244 12.5014 11.2515 11.5675 11.2496 10.6344C11.2253 10.3126 11.425 9.98364 11.7512 9.88206Z" fill="#4B4B4B"/>
</svg>
