<svg width="24" height="24" viewBox="0 0 24 24" fill="none" xmlns="http://www.w3.org/2000/svg">
<g clip-path="url(#clip0_35569_36573)">
<mask id="mask0_35569_36573" style="mask-type:luminance" maskUnits="userSpaceOnUse" x="0" y="0" width="24" height="24">
<path d="M24 0H0V24H24V0Z" fill="white"/>
</mask>
<g mask="url(#mask0_35569_36573)">
<mask id="mask1_35569_36573" style="mask-type:luminance" maskUnits="userSpaceOnUse" x="0" y="0" width="24" height="24">
<path d="M24 0H0V24H24V0Z" fill="white"/>
</mask>
<g mask="url(#mask1_35569_36573)">
<path d="M9.9315 2.62715C11.6533 2.51041 13.4125 2.97106 14.8455 3.93556C15.8973 4.64364 16.7732 5.62231 17.3229 6.76765C17.4619 7.05466 17.3348 7.43457 17.0559 7.58595C16.8018 7.73665 16.4473 7.67772 16.2538 7.45481C16.1537 7.3365 16.0988 7.1894 16.0219 7.05646C15.3728 5.87198 14.2949 4.94415 13.0546 4.42096C11.9365 3.94164 10.6837 3.78464 9.48119 3.96615C8.67032 4.08762 7.88239 4.369 7.18398 4.79974C7.01641 4.91018 6.84546 5.04244 6.63718 5.05481C6.33487 5.07843 6.03279 4.86205 5.96779 4.56379C5.90998 4.31974 6.00535 4.03881 6.21724 3.89822C7.31039 3.14876 8.61094 2.71509 9.9315 2.62715Z" fill="#4B4B4B"/>
<path d="M4.17088 6.42319C4.45474 6.36111 4.77009 6.51811 4.88503 6.78645C4.96713 6.96235 4.95971 7.17423 4.87311 7.34698C4.49725 8.12546 4.29864 8.98874 4.29459 9.85314C4.29234 11.1347 4.29414 12.4164 4.29347 13.698C4.29324 14.6257 4.5202 15.5515 4.94419 16.3763C5.37988 17.2211 6.01868 17.9602 6.79064 18.5149C6.96608 18.6326 7.15885 18.7695 7.2126 18.9868C7.3145 19.2981 7.12511 19.6663 6.81538 19.7689C6.66625 19.8247 6.49755 19.8197 6.35067 19.7594C6.24383 19.7192 6.15633 19.6445 6.06411 19.5804C4.90573 18.7495 3.98576 17.5826 3.47675 16.249C3.15982 15.4233 2.99877 14.5382 3.00484 13.6537C3.00597 12.364 3.00215 11.074 3.00664 9.78409C3.01946 8.81329 3.23472 7.84587 3.63262 6.96032C3.68661 6.84628 3.72934 6.72325 3.81594 6.62833C3.90681 6.52216 4.0348 6.45198 4.17088 6.42319Z" fill="#4B4B4B"/>
<path d="M17.2407 9.75556C17.5534 9.66649 17.9047 9.86848 18.0082 10.1712C18.0397 10.2562 18.0401 10.348 18.0408 10.4373C18.0446 10.7526 18.0408 11.0678 18.0415 11.3831C18.0444 11.6784 17.8127 11.9517 17.5242 12.0068C17.1555 12.0939 16.7596 11.7792 16.7515 11.4029C16.7551 11.0518 16.7502 10.7004 16.7547 10.3493C16.7607 10.0722 16.9742 9.82147 17.2407 9.75556Z" fill="#4B4B4B"/>
<path d="M10.4023 9.88906C10.7188 9.82226 11.0598 10.0397 11.1453 10.349C11.1702 10.4365 11.1653 10.5282 11.1659 10.6182C11.1698 11.4498 11.1686 12.2816 11.1662 13.1131C11.1628 13.4449 10.8571 13.736 10.5265 13.7297C10.1951 13.7378 9.88314 13.449 9.88067 13.1147C9.87684 12.2445 9.87887 11.374 9.87977 10.5037C9.88112 10.2095 10.116 9.94372 10.4023 9.88906Z" fill="#4B4B4B"/>
<path d="M16.0486 12.5218C16.9058 12.4275 17.7902 12.5843 18.5588 12.9768C19.5177 13.4595 20.2899 14.301 20.6853 15.2994C21.0494 16.2075 21.0974 17.237 20.8238 18.1761C20.6068 18.9282 20.1835 19.6188 19.6153 20.157C19.0878 20.6588 18.436 21.0289 17.734 21.2221C16.8266 21.474 15.8398 21.4308 14.959 21.0972C13.9574 20.7225 13.1024 19.973 12.6 19.029C12.2129 18.3099 12.034 17.4819 12.0853 16.667C12.1314 15.8811 12.3944 15.1094 12.8368 14.4582C13.2921 13.7836 13.9356 13.2382 14.6758 12.9001C15.109 12.7013 15.5747 12.5733 16.0486 12.5218ZM16.3142 13.7065C16.159 13.7731 16.0407 13.9173 16.0031 14.0817C15.9843 14.1705 15.9919 14.2618 15.9908 14.3523C15.9901 15.3064 15.9923 16.2606 15.989 17.215C15.8131 17.0445 15.6412 16.8697 15.4669 16.6976C15.3371 16.5663 15.1378 16.5114 14.9588 16.5541C14.8022 16.5908 14.6637 16.6994 14.594 16.8447C14.5074 17.0166 14.5263 17.235 14.6387 17.3908C14.6826 17.4511 14.7397 17.4997 14.7921 17.5526C15.2051 17.964 15.6194 18.3742 16.0331 18.7847C16.1174 18.8673 16.1955 18.9622 16.3059 19.011C16.5029 19.103 16.7528 19.0598 16.911 18.9118C17.3725 18.4512 17.8365 17.993 18.299 17.5332C18.3552 17.4765 18.4162 17.4221 18.4558 17.3517C18.5478 17.1936 18.5543 16.9873 18.465 16.8263C18.3755 16.6553 18.1879 16.5417 17.9949 16.5402C17.8485 16.5368 17.7023 16.5957 17.5992 16.6996C17.4269 16.8728 17.2517 17.0429 17.0792 17.2158C17.0772 16.2158 17.0801 15.2158 17.0783 14.2157C17.0826 14.0608 17.0169 13.9065 16.9022 13.8025C16.7477 13.659 16.5063 13.6201 16.3142 13.7065ZM14.6727 19.3322C14.5278 19.3462 14.394 19.4366 14.3249 19.5646C14.2514 19.6968 14.2514 19.8666 14.3258 19.9989C14.4005 20.1377 14.5528 20.2313 14.7107 20.2324C15.8952 20.2335 17.0797 20.2319 18.2639 20.2331C18.3645 20.236 18.4697 20.2313 18.5592 20.18C18.7432 20.0862 18.8413 19.8563 18.7817 19.6586C18.7302 19.4624 18.5343 19.3196 18.3318 19.3291C17.112 19.3315 15.8923 19.3255 14.6727 19.3322Z" fill="#4B4B4B"/>
<path d="M11.641 19.609C11.9768 19.5134 12.3652 19.739 12.4397 20.0818C12.5267 20.41 12.2982 20.7827 11.966 20.8526C11.1403 21.0202 10.2855 21.0452 9.451 20.9282C9.2461 20.9055 9.06436 20.7683 8.96966 20.5877C8.84528 20.3623 8.88284 20.0629 9.05671 19.8737C9.20112 19.705 9.43368 19.6241 9.65209 19.6614C10.3123 19.7502 10.9866 19.7338 11.641 19.609Z" fill="#4B4B4B"/>
<path opacity="0.5" d="M10.4029 6.04267C10.5455 6.01905 10.6902 6.03322 10.8334 6.04334C11.6544 6.1007 12.4482 6.43562 13.0785 6.96173C14.0538 7.77148 14.6244 9.03671 14.6019 10.3023C14.5922 10.6192 14.3082 10.8957 13.9926 10.9051C13.7197 10.9222 13.4469 10.7434 13.3551 10.4854C13.3108 10.3693 13.3167 10.2434 13.3113 10.1215C13.2832 9.37185 12.9653 8.63408 12.4289 8.10797C11.9718 7.65407 11.3517 7.36346 10.7077 7.3196C10.5874 7.31015 10.4634 7.32432 10.3467 7.28721C10.1672 7.23615 10.0129 7.10456 9.93511 6.93497C9.87528 6.80181 9.86359 6.64818 9.90025 6.50715C9.95941 6.27322 10.165 6.08271 10.4029 6.04267Z" fill="#4B4B4B"/>
<path opacity="0.5" d="M7.32102 8.09027C7.61343 8.03988 7.92451 8.2259 8.02145 8.50571C8.08196 8.66721 8.06914 8.85098 7.99739 9.00663C7.84848 9.33683 7.76256 9.69424 7.73804 10.0555C7.72634 10.2201 7.73354 10.3852 7.73062 10.5501C7.73039 11.4948 7.72994 12.4395 7.73174 13.3842C7.73669 14.1568 8.04507 14.9279 8.59255 15.476C9.17264 16.0705 10.0362 16.3888 10.863 16.2736C11.1844 16.2244 11.5234 16.4567 11.5843 16.7784C11.6575 17.0881 11.4528 17.4275 11.1516 17.5211C11.0666 17.5463 10.9777 17.5519 10.8902 17.5614C10.0926 17.6378 9.27341 17.4635 8.57658 17.0681C7.93598 16.7075 7.40065 16.1679 7.03041 15.5341C6.69639 14.9621 6.49913 14.312 6.45347 13.6516C6.4375 13.4503 6.4447 13.2486 6.442 13.047C6.442 12.1172 6.44177 11.1873 6.442 10.2575C6.44335 9.67557 6.56166 9.09503 6.78546 8.55812C6.86441 8.32262 7.06977 8.12401 7.32102 8.09027Z" fill="#4B4B4B"/>
</g>
</g>
</g>
<defs>
<clipPath id="clip0_35569_36573">
<rect width="24" height="24" fill="white"/>
</clipPath>
</defs>
</svg>
