<svg width="24" height="24" viewBox="0 0 24 24" fill="none" xmlns="http://www.w3.org/2000/svg">
<path d="M13.7127 5.30699C13.9737 5.19539 14.2956 5.25089 14.5041 5.44409C16.5195 7.45919 18.5349 9.47489 20.5503 11.4903C20.811 11.7579 20.8149 12.2205 20.5635 12.4959C18.5496 14.511 16.5348 16.5246 14.5206 18.5394C14.3637 18.693 14.1357 18.771 13.9176 18.7455C13.6566 18.7191 13.4169 18.5439 13.314 18.3024C13.1859 18.0243 13.2552 17.6742 13.4754 17.4627C14.2896 16.6473 15.105 15.8328 15.9198 15.0177C16.6722 14.2689 17.4174 13.5123 18.1746 12.7686C18.4191 12.5064 18.6864 12.2646 18.9291 12.0012C18.6897 11.736 18.4194 11.4951 18.1752 11.2326C16.6128 9.68249 15.0618 8.12069 13.5036 6.56639C13.3476 6.42149 13.2468 6.21479 13.2504 5.99999C13.245 5.70329 13.4379 5.41709 13.7127 5.30699Z" fill="#4B4B4B"/>
<path d="M18.1758 11.2344C18.42 11.4969 18.6902 11.7378 18.9296 12.003C18.6869 12.2664 18.4197 12.5082 18.1752 12.7704C18.1626 12.7659 18.1374 12.7563 18.1248 12.7518C13.4124 12.7518 8.69995 12.7521 3.98755 12.7515C3.74155 12.7506 3.50275 12.6162 3.37075 12.4095C3.25765 12.2385 3.22195 12.0198 3.27235 11.8212C3.33265 11.5701 3.53215 11.3586 3.77995 11.2851C3.90565 11.2422 4.04005 11.2524 4.17055 11.2518C8.82265 11.2518 13.4748 11.2521 18.1269 11.2515C18.1392 11.2473 18.1635 11.2386 18.1758 11.2344Z" fill="#4B4B4B"/>
</svg>
