<svg width="24" height="24" viewBox="0 0 24 24" fill="none" xmlns="http://www.w3.org/2000/svg">
<path d="M8.51812 3.31497C8.82639 3.25239 9.16374 3.40895 9.31019 3.68814C9.37867 3.81351 9.4069 3.95996 9.3911 4.10197C9.30049 4.92269 9.13761 5.7451 8.79942 6.50261C8.46544 7.24937 7.92792 7.90531 7.25596 8.37288C6.71001 8.75448 6.08104 9.00227 5.43689 9.16073C5.00072 9.2684 4.55612 9.33899 4.11026 9.39104C3.91535 9.41695 3.71159 9.35564 3.56304 9.2271C3.34137 9.04252 3.24866 8.72287 3.33315 8.44747C3.41554 8.1588 3.68062 7.93776 3.97688 7.89794C4.7112 7.80607 5.46028 7.67374 6.11812 7.31679C6.68746 7.00895 7.1485 6.50998 7.41652 5.92147C7.70225 5.30556 7.81772 4.62854 7.90095 3.95953C7.94731 3.64473 8.20311 3.37102 8.51812 3.31497Z" fill="#4B4B4B"/>
<path d="M19.8775 14.5909C20.1822 14.5517 20.4923 14.7371 20.6135 15.017C20.7089 15.226 20.7003 15.4791 20.5901 15.6809C20.4723 15.9015 20.2426 16.0564 19.9946 16.0857C19.8044 16.1087 19.6143 16.1342 19.4257 16.167C18.7784 16.2806 18.1235 16.4606 17.5786 16.8417C17.2556 17.0685 16.9768 17.3586 16.7655 17.6922C16.3911 18.2891 16.2297 18.9889 16.127 19.6779C16.0906 19.8873 16.0992 20.1145 15.9806 20.3006C15.8154 20.5922 15.446 20.7487 15.1228 20.652C14.8017 20.5684 14.5598 20.2453 14.5882 19.9118C14.6565 19.2674 14.7705 18.6248 14.9763 18.0093C15.1276 17.5501 15.3407 17.1102 15.6182 16.7138C15.9614 16.221 16.409 15.8027 16.917 15.4833C17.3873 15.1881 17.9115 14.9879 18.4465 14.8459C18.9156 14.722 19.3958 14.6449 19.8775 14.5909Z" fill="#4B4B4B"/>
<path opacity="0.5" d="M15.1783 3.3165C15.3719 3.27794 15.5801 3.31987 15.7434 3.43133C15.9295 3.55544 16.0561 3.76278 16.0839 3.98445C16.1037 4.1448 16.1242 4.30515 16.1507 4.46466C16.2588 5.11281 16.4259 5.76896 16.7888 6.32566C17.0098 6.66533 17.3021 6.95801 17.6394 7.18241C18.2526 7.58614 18.9839 7.75281 19.7006 7.85859C19.8618 7.88724 20.0303 7.8845 20.1846 7.94519C20.4258 8.03748 20.6161 8.25578 20.6646 8.51074C20.7326 8.82723 20.567 9.17616 20.2758 9.31903C20.1256 9.39867 19.9498 9.40858 19.7849 9.38055C19.017 9.28974 18.249 9.13465 17.5372 8.82533C16.8777 8.53813 16.2803 8.10175 15.8264 7.54189C15.55 7.20454 15.3222 6.828 15.1482 6.42849C14.8637 5.76159 14.7114 5.04623 14.6163 4.33002C14.599 4.17367 14.5626 4.01311 14.6041 3.85739C14.6673 3.58473 14.9042 3.36665 15.1783 3.3165Z" fill="#4B4B4B"/>
<path opacity="0.5" d="M3.92826 14.5938C4.05553 14.575 4.1828 14.6022 4.30922 14.6157C5.10023 14.716 5.89188 14.8902 6.61462 15.236C7.27035 15.5472 7.84706 16.0213 8.28218 16.6021C8.68169 17.1278 8.94382 17.7452 9.11786 18.379C9.24703 18.8495 9.3271 19.3322 9.38399 19.8167C9.41433 19.997 9.38252 20.1892 9.28053 20.3428C9.12145 20.594 8.80243 20.7267 8.51165 20.6658C8.19727 20.6079 7.94357 20.3321 7.89995 20.0173C7.81335 19.3192 7.68987 18.6108 7.37486 17.9753C7.07481 17.3602 6.55456 16.8589 5.93465 16.5715C5.32633 16.2927 4.66217 16.1642 4.00116 16.0881C3.77802 16.0656 3.56668 15.944 3.43878 15.7594C3.26494 15.5186 3.25693 15.1734 3.41918 14.9248C3.53044 14.7478 3.7205 14.6218 3.92826 14.5938Z" fill="#4B4B4B"/>
</svg>
