<svg width="24" height="24" viewBox="0 0 24 24" fill="none" xmlns="http://www.w3.org/2000/svg">
<path opacity="0.5" d="M6.66755 1.40475C6.96718 1.35545 7.28009 1.52486 7.41178 1.79646C7.51693 2.00212 7.5184 2.25687 7.41579 2.46379C7.30495 2.69388 7.07444 2.85929 6.82221 2.89532C6.12202 2.98319 5.41045 3.10624 4.7741 3.4261C4.19423 3.71372 3.71338 4.19457 3.42576 4.77444C3.14383 5.33536 3.01466 5.95759 2.92743 6.57497C2.90446 6.71657 2.90404 6.86428 2.84841 6.99871C2.76329 7.21954 2.57301 7.39822 2.34439 7.46291C2.08164 7.54087 1.77948 7.45954 1.59363 7.25768C1.45435 7.11123 1.38144 6.90368 1.40251 6.70224C1.49417 5.86256 1.66169 5.02034 2.01463 4.24809C2.43015 3.34161 3.15036 2.57673 4.03746 2.11927C4.8508 1.6949 5.76381 1.51242 6.66755 1.40475Z" fill="#4B4B4B"/>
<path opacity="0.5" d="M21.734 16.4891C22.0703 16.4362 22.4266 16.6459 22.5353 16.9699C22.6084 17.1589 22.5598 17.3616 22.5379 17.5553C22.4274 18.3806 22.238 19.2096 21.8471 19.9509C21.5231 20.5699 21.0532 21.111 20.4847 21.5173C19.9564 21.9008 19.3426 22.1503 18.7145 22.3161C18.2429 22.4404 17.7602 22.5182 17.276 22.5715C17.0912 22.5911 16.9005 22.5331 16.757 22.4155C16.5421 22.2449 16.4392 21.9495 16.4985 21.6821C16.5549 21.398 16.7886 21.1639 17.068 21.0948C17.2269 21.0611 17.3902 21.0529 17.5503 21.0249C18.2461 20.9168 18.9547 20.7442 19.5462 20.3457C19.8684 20.1268 20.1482 19.8453 20.3635 19.5204C20.7651 18.9085 20.9322 18.1796 21.0376 17.4649C21.069 17.2911 21.0631 17.1071 21.1387 16.9438C21.2426 16.7042 21.4738 16.523 21.734 16.4891Z" fill="#4B4B4B"/>
<path d="M17.1397 1.40192C17.1899 1.39707 17.2406 1.39918 17.291 1.40403C18.03 1.48684 18.7689 1.62654 19.4626 1.90173C20.0747 2.14531 20.643 2.50921 21.099 2.98689C21.5781 3.48543 21.9389 4.09439 22.161 4.74864C22.3786 5.38668 22.5034 6.05316 22.5748 6.72238C22.6018 7.02643 22.4041 7.32628 22.1224 7.43648C21.9182 7.52055 21.6772 7.50812 21.4833 7.40297C21.2734 7.29151 21.1222 7.07911 21.0825 6.84522C20.9846 6.06348 20.844 5.26067 20.4376 4.57312C20.1099 4.01811 19.5947 3.58152 19.0013 3.33309C18.4114 3.08087 17.7729 2.9713 17.1397 2.89375C16.8921 2.85583 16.6669 2.69232 16.5579 2.46622C16.4376 2.22517 16.4627 1.92006 16.6216 1.70239C16.7408 1.53446 16.9338 1.41983 17.1397 1.40192Z" fill="#4B4B4B"/>
<path d="M2.05279 16.4867C2.44788 16.4322 2.83643 16.7421 2.89248 17.1326C2.98077 17.8408 3.10466 18.5604 3.4281 19.2037C3.74607 19.8459 4.3053 20.3611 4.96545 20.6373C5.55629 20.8889 6.19369 21.0054 6.82877 21.0786C7.17097 21.123 7.46386 21.4201 7.48914 21.7667C7.52538 22.099 7.30856 22.4389 6.98891 22.5396C6.81255 22.6035 6.62501 22.5618 6.44507 22.5411C5.70421 22.4448 4.96419 22.2821 4.28064 21.973C3.26796 21.5236 2.43566 20.686 1.99148 19.671C1.65118 18.9099 1.48998 18.0822 1.40149 17.2573C1.36398 16.8785 1.67794 16.5202 2.05279 16.4867Z" fill="#4B4B4B"/>
</svg>
