<svg width="24" height="24" viewBox="0 0 24 24" fill="none" xmlns="http://www.w3.org/2000/svg">
<path d="M6.49849 1.42781C7.56601 1.2951 8.6432 1.27238 9.71768 1.25754C10.4822 1.24922 11.2467 1.24922 12.0113 1.24967C12.3183 1.25102 12.6085 1.46402 12.705 1.75486C12.7713 1.94492 12.7565 2.16153 12.664 2.34035C12.5599 2.54639 12.3559 2.69889 12.128 2.73758C12.045 2.75377 11.96 2.7477 11.8761 2.74882C11.1264 2.74995 10.3765 2.74882 9.62681 2.75849C8.71765 2.77176 7.80691 2.79223 6.90224 2.88985C6.39007 2.94743 5.87791 3.02976 5.38531 3.18429C5.0369 3.29428 4.69883 3.44475 4.39832 3.65416C4.06475 3.88674 3.77909 4.18815 3.56496 4.53409C3.3524 4.87711 3.21024 5.25926 3.10858 5.64839C2.98464 6.12637 2.91626 6.61694 2.86858 7.10774C2.75454 8.35002 2.75724 9.59883 2.74981 10.8449C2.74981 11.5071 2.74599 12.1691 2.75049 12.8311C2.75116 13.9611 2.75296 15.0921 2.81752 16.2208C2.85126 16.7705 2.90142 17.3202 3.00173 17.8623C3.09441 18.356 3.23026 18.8477 3.46914 19.2924C3.78089 19.8804 4.29598 20.3538 4.90329 20.6242C5.6035 20.9389 6.37321 21.0505 7.13099 21.126C8.073 21.2129 9.0195 21.2277 9.96488 21.2378C11.4267 21.2459 12.8889 21.2479 14.3508 21.2342C15.4057 21.2174 16.4647 21.1973 17.511 21.0487C18.2951 20.9317 19.1038 20.7329 19.7374 20.2315C20.1069 19.9404 20.4041 19.5605 20.6027 19.1347C20.8429 18.6273 20.9624 18.0735 21.0483 17.522C21.2003 16.4344 21.2201 15.3343 21.2354 14.2382C21.244 13.4804 21.2424 12.7229 21.244 11.9651C21.2505 11.7708 21.3382 11.5809 21.4808 11.4487C21.6754 11.2626 21.9739 11.1974 22.2285 11.2842C22.5267 11.3787 22.7449 11.6763 22.7427 11.9898C22.7409 13.2789 22.7492 14.5687 22.6948 15.8568C22.6439 16.9167 22.5621 17.9878 22.2532 19.0083C22.0206 19.7821 21.6194 20.5142 21.0375 21.0804C20.6765 21.4387 20.252 21.732 19.7927 21.9504C18.9423 22.3555 18.0014 22.5186 17.0711 22.6121C15.8758 22.726 14.6738 22.7329 13.4742 22.7413C12.222 22.743 10.9701 22.7471 9.71813 22.735C8.94527 22.7257 8.17197 22.7082 7.40091 22.6529C6.65099 22.5973 5.89928 22.508 5.17231 22.3085C4.52023 22.1301 3.88908 21.8492 3.3542 21.431C2.74217 20.9582 2.26127 20.3224 1.95918 19.6111C1.57343 18.7105 1.4333 17.7287 1.35232 16.7592C1.25763 15.5464 1.25538 14.3293 1.24998 13.1138C1.25111 11.6889 1.23986 10.2639 1.27315 8.83924C1.30082 7.86822 1.34513 6.89338 1.51315 5.93473C1.62651 5.30043 1.80016 4.67107 2.09369 4.09503C2.49857 3.2855 3.15491 2.60487 3.94891 2.17053C4.73212 1.73911 5.61857 1.54072 6.49849 1.42781Z" fill="#4B4B4B"/>
<path d="M18.1943 2.0475C18.1959 1.65634 18.5482 1.31175 18.9393 1.31917C19.3329 1.3068 19.6921 1.6523 19.693 2.0466C19.6937 4.31659 19.693 6.58658 19.6935 8.85634C20.205 8.34665 20.7149 7.83516 21.2257 7.3248C21.3564 7.20086 21.4707 7.04926 21.6432 6.97998C21.9453 6.8421 22.331 6.93904 22.5321 7.20334C22.6943 7.4051 22.7377 7.69323 22.6437 7.93436C22.6027 8.04705 22.5299 8.14512 22.4439 8.22767C21.4576 9.21376 20.4715 10.2003 19.485 11.1864C19.3433 11.3329 19.1413 11.4197 18.9373 11.4161C18.7452 11.4159 18.556 11.3367 18.419 11.2024C17.4633 10.2469 16.5078 9.29113 15.5521 8.33563C15.4893 8.27063 15.4219 8.21057 15.3638 8.14152C15.2187 7.9663 15.1621 7.72315 15.2133 7.50159C15.2667 7.25597 15.4536 7.04588 15.69 6.96176C15.9529 6.86437 16.2665 6.93117 16.466 7.12798C17.0423 7.70313 17.6172 8.27962 18.1937 8.85477C18.1943 6.58568 18.1928 4.31659 18.1943 2.0475Z" fill="#4B4B4B"/>
<path opacity="0.5" d="M9.77226 4.35752C10.3677 4.30758 10.9777 4.45829 11.4797 4.78264C12.1176 5.18863 12.5747 5.86792 12.7034 6.61379C12.855 7.43546 12.6042 8.31876 12.0407 8.93619C11.4968 9.54822 10.6689 9.89236 9.85121 9.8431C9.03494 9.80622 8.25038 9.37772 7.77353 8.71531C7.3934 8.19774 7.20671 7.54342 7.25439 6.90327C7.29736 6.24805 7.58819 5.61398 8.05447 5.15219C8.50905 4.69491 9.12941 4.40723 9.77226 4.35752ZM9.87842 5.85353C9.52281 5.88479 9.18677 6.07936 8.9805 6.37041C8.79989 6.61986 8.71846 6.93836 8.75558 7.24427C8.79359 7.58436 8.98051 7.90399 9.25717 8.1053C9.50954 8.29244 9.83456 8.37701 10.1461 8.33855C10.4806 8.30054 10.7946 8.11812 10.9957 7.84843C11.184 7.60078 11.2726 7.28048 11.24 6.97098C11.2087 6.64483 11.0409 6.33533 10.7863 6.12929C10.5357 5.92258 10.2019 5.82159 9.87842 5.85353Z" fill="#4B4B4B"/>
<path opacity="0.5" d="M4.88148 9.66934C5.56415 9.58139 6.27492 9.7339 6.86064 10.0956C7.10379 10.2432 7.3204 10.4301 7.51676 10.6348C8.91492 12.0327 10.3129 13.4309 11.7111 14.8288C11.9265 15.0452 12.2239 15.1768 12.5289 15.1912C12.8197 15.2076 13.1131 15.1156 13.3456 14.9413C13.6288 14.7377 13.9172 14.5366 14.2393 14.3985C15.0686 14.0256 16.0349 13.9727 16.9006 14.2503C17.301 14.3771 17.6798 14.5726 18.0154 14.8252C18.178 14.9451 18.3242 15.0845 18.4749 15.2188C19.2566 15.9224 20.0384 16.6258 20.82 17.3293C20.8974 17.3921 20.9618 17.4724 21.0486 17.5219C20.9627 18.0734 20.8432 18.6272 20.603 19.1346C20.4624 19.0408 20.3475 18.9149 20.219 18.806C19.2719 17.9533 18.3244 17.1008 17.3773 16.2483C17.2362 16.1176 17.0891 15.9921 16.9229 15.8947C16.5122 15.6466 16.0203 15.5369 15.543 15.5848C15.1444 15.623 14.7584 15.7724 14.4352 16.0083C14.1853 16.1869 13.9336 16.3696 13.6457 16.4829C12.8272 16.8291 11.8429 16.74 11.0999 16.2522C10.9384 16.1476 10.7875 16.0261 10.6519 15.8898C9.2314 14.4691 7.81097 13.0489 6.39054 11.6283C6.07541 11.2947 5.60868 11.1118 5.1505 11.149C4.83312 11.1714 4.52407 11.2956 4.27912 11.4987C3.76808 11.9409 3.26424 12.3917 2.75072 12.831C2.74623 12.169 2.75005 11.507 2.75005 10.8448C2.9192 10.6923 3.09239 10.5446 3.26334 10.3939C3.715 9.99886 4.28587 9.74289 4.88148 9.66934Z" fill="#4B4B4B"/>
</svg>
