<svg width="24" height="24" viewBox="0 0 24 24" fill="none" xmlns="http://www.w3.org/2000/svg">
<path fill-rule="evenodd" clip-rule="evenodd" d="M4.49316 5.02734C4.49316 3.50856 5.72438 2.27734 7.24316 2.27734H19.2432C20.7619 2.27734 21.9932 3.50856 21.9932 5.02734V13.0158C21.9932 14.3882 20.9509 15.5172 19.6148 15.6545V18.3981C19.6148 19.4479 18.399 20.0301 17.5811 19.372L15.201 17.1065V15.4885L18.1148 17.876V15.3942C18.1148 14.7173 18.6635 14.1685 19.3405 14.1685C19.9771 14.1685 20.4932 13.6524 20.4932 13.0158V5.02734C20.4932 4.33698 19.9335 3.77734 19.2432 3.77734H7.24316C6.55281 3.77734 5.99316 4.33698 5.99316 5.02734V9.25393H4.49316V5.02734Z" fill="#4B4B4B"/>
<path opacity="0.5" fill-rule="evenodd" clip-rule="evenodd" d="M4.25 10.7495C3.83579 10.7495 3.5 11.0853 3.5 11.4995V17.1912C3.5 17.6055 3.83579 17.9412 4.25 17.9412H4.57869C5.26904 17.9412 5.82869 18.5009 5.82869 19.1912V20.2035L8.61567 18.1798C8.82917 18.0247 9.08627 17.9412 9.35013 17.9412H12.945C13.3592 17.9412 13.695 17.6055 13.695 17.1912V11.4995C13.695 11.0853 13.3592 10.7495 12.945 10.7495H4.25ZM2 11.4995C2 10.2569 3.00736 9.24951 4.25 9.24951H12.945C14.1877 9.24951 15.195 10.2569 15.195 11.4995V17.1912C15.195 18.4339 14.1876 19.4412 12.945 19.4412H9.43133L6.31315 21.7055C5.48684 22.3055 4.32869 21.7152 4.32869 20.694V19.4412H4.25C3.00736 19.4412 2 18.4339 2 17.1912V11.4995Z" fill="#4B4B4B"/>
</svg>
