<svg width="24" height="24" viewBox="0 0 24 24" fill="none" xmlns="http://www.w3.org/2000/svg">
<path d="M8.89069 1.27237C9.85729 1.24927 10.8242 1.25017 11.7911 1.25077C11.9096 1.25167 12.0296 1.24297 12.1469 1.26427C12.4112 1.31407 12.6389 1.51927 12.716 1.77667C12.7889 2.00497 12.743 2.26747 12.5951 2.45647C12.4571 2.63917 12.2318 2.75167 12.0026 2.75017C10.5446 2.75497 9.08479 2.73667 7.62859 2.82787C7.00969 2.87077 6.38929 2.93437 5.78389 3.07657C5.31829 3.18727 4.85869 3.35017 4.45789 3.61627C4.01959 3.90457 3.66259 4.31257 3.42829 4.78177C3.15439 5.32987 3.02329 5.93587 2.93689 6.53887C2.76889 7.78177 2.76619 9.03877 2.75329 10.2906C2.74969 11.5302 2.74789 12.7701 2.75539 14.0097C2.76379 14.8707 2.77819 15.7323 2.84359 16.5909C2.88709 17.1354 2.95039 17.6802 3.07549 18.2127C3.18169 18.6591 3.33469 19.0998 3.58189 19.4886C3.85609 19.9254 4.24729 20.2869 4.70209 20.5299C5.12659 20.7579 5.59459 20.892 6.06589 20.9844C6.82549 21.1302 7.59979 21.1788 8.37169 21.2106C9.87019 21.264 11.3699 21.2454 12.869 21.2493C14.1905 21.2436 15.5144 21.2508 16.832 21.1359C17.4509 21.0768 18.0719 20.9904 18.6647 20.7978C19.1084 20.6541 19.5332 20.4354 19.8815 20.1219C20.2463 19.7994 20.5226 19.3833 20.7008 18.9312C20.948 18.3093 21.0512 17.6418 21.1211 16.9797C21.2441 15.7239 21.2402 14.4606 21.2492 13.2003C21.2495 12.7998 21.248 12.3993 21.2498 11.9991C21.2471 11.7177 21.4184 11.445 21.6728 11.3253C21.9035 11.2104 22.1933 11.2278 22.4081 11.3709C22.6283 11.5101 22.7612 11.7705 22.7501 12.0303C22.745 13.5627 22.7648 15.0975 22.6577 16.6272C22.5764 17.679 22.4342 18.7491 21.995 19.7187C21.5948 20.6115 20.8988 21.369 20.0378 21.8349C19.1567 22.3167 18.1523 22.5057 17.1638 22.6104C15.8471 22.7421 14.522 22.7412 13.2002 22.7496C11.5499 22.7439 9.89899 22.7688 8.24959 22.707C7.03489 22.6503 5.79649 22.5657 4.64479 22.1451C3.76429 21.8274 2.97589 21.2472 2.43859 20.4777C1.82329 19.6089 1.56169 18.5484 1.42909 17.5068C1.25659 16.098 1.26139 14.676 1.25059 13.2591C1.25299 11.9091 1.24189 10.5591 1.26529 9.20947C1.28209 8.38987 1.30999 7.56937 1.39849 6.75397C1.47889 6.02287 1.60909 5.29087 1.87129 4.60117C2.15269 3.84607 2.62489 3.15997 3.24889 2.64727C3.68149 2.28817 4.18369 2.01877 4.71229 1.83007C5.30689 1.61797 5.93029 1.49917 6.55549 1.42147C7.33009 1.32697 8.11069 1.29307 8.89069 1.27237Z" fill="#4B4B4B"/>
<path opacity="0.5" d="M12.8197 17.9718C13.1378 17.9533 13.4579 17.9686 13.7768 17.9636C14.8645 17.9636 15.9523 17.9634 17.0404 17.9639C17.2203 17.9622 17.3978 18.0457 17.513 18.1839C17.6716 18.3673 17.7035 18.6473 17.5908 18.8619C17.4892 19.0653 17.2685 19.2024 17.0406 19.1992C15.6723 19.2 14.304 19.199 12.9356 19.1997C12.7369 19.2052 12.5394 19.109 12.4228 18.9479C12.2821 18.7622 12.2633 18.4946 12.3756 18.2906C12.4633 18.1226 12.6331 18.0022 12.8197 17.9718Z" fill="#4B4B4B"/>
<path opacity="0.5" d="M9.77903 15.7843C9.94875 15.6048 10.2358 15.5491 10.4633 15.6492C10.6631 15.7318 10.8093 15.9252 10.8292 16.1374C10.8488 16.3131 10.7839 16.4955 10.6565 16.6212C9.87969 17.419 9.1048 18.2192 8.32723 19.0168C8.15408 19.1987 7.86044 19.2522 7.63145 19.1449C7.51659 19.0972 7.43308 19.0036 7.34957 18.9162C7.07086 18.6292 6.79167 18.3426 6.51321 18.0553C6.3888 17.9295 6.32537 17.7483 6.34619 17.5743C6.367 17.3722 6.50121 17.1857 6.68906 17.0996C6.92833 16.981 7.24058 17.0444 7.4152 17.2433C7.57292 17.4056 7.72966 17.5688 7.88909 17.7298C8.51826 17.0804 9.1484 16.4324 9.77903 15.7843Z" fill="#4B4B4B"/>
<path opacity="0.5" d="M12.8197 12.572C13.1378 12.5534 13.4579 12.5688 13.7768 12.5638C14.8645 12.5638 15.9523 12.5636 17.0404 12.5641C17.2203 12.5623 17.3978 12.6459 17.513 12.784C17.6716 12.9674 17.7035 13.2475 17.5908 13.462C17.4892 13.6654 17.2685 13.8026 17.0406 13.7994C15.6723 13.8002 14.304 13.7992 12.9356 13.7999C12.7369 13.8053 12.5394 13.7092 12.4228 13.548C12.2821 13.3624 12.2633 13.0947 12.3756 12.8908C12.4633 12.7227 12.6331 12.6024 12.8197 12.572Z" fill="#4B4B4B"/>
<path opacity="0.5" d="M9.77903 10.3844C9.94875 10.2049 10.2358 10.1492 10.4633 10.2493C10.6631 10.3319 10.8093 10.5253 10.8292 10.7375C10.8488 10.9132 10.7839 11.0956 10.6565 11.2213C9.87969 12.0191 9.1048 12.8193 8.32723 13.6168C8.15408 13.7988 7.86044 13.8523 7.63145 13.745C7.51659 13.6972 7.43308 13.6036 7.34957 13.5163C7.07086 13.2292 6.79167 12.9427 6.51321 12.6554C6.3888 12.5296 6.32537 12.3484 6.34619 12.1744C6.367 11.9723 6.50121 11.7858 6.68906 11.6997C6.92833 11.5811 7.24058 11.6445 7.4152 11.8434C7.57292 12.0057 7.72966 12.1689 7.88909 12.3299C8.51826 11.6805 9.1484 11.0324 9.77903 10.3844Z" fill="#4B4B4B"/>
<path opacity="0.5" d="M9.77903 4.98452C9.94875 4.80499 10.2358 4.74931 10.4633 4.84939C10.6631 4.93195 10.8093 5.1254 10.8292 5.33757C10.8488 5.51325 10.7839 5.69566 10.6565 5.82142C9.87969 6.61921 9.1048 7.41939 8.32723 8.21694C8.15408 8.39886 7.86044 8.45238 7.63145 8.3451C7.51659 8.29734 7.43308 8.20373 7.34957 8.11637C7.07086 7.82932 6.79167 7.54275 6.51321 7.25546C6.3888 7.1297 6.32537 6.9485 6.34619 6.77449C6.367 6.5724 6.50121 6.38592 6.68906 6.29976C6.92833 6.18119 7.24058 6.24455 7.4152 6.44352C7.57292 6.60577 7.72966 6.76897 7.88909 6.93001C8.51826 6.28055 9.1484 5.63254 9.77903 4.98452Z" fill="#4B4B4B"/>
<path d="M17.6923 1.25418C18.0304 1.25298 18.3696 1.23918 18.7071 1.26738C19.2483 1.31178 19.7268 1.74078 19.8441 2.26848C19.8753 2.39718 19.8744 2.53038 19.8882 2.66148C19.9014 2.77608 20.001 2.87748 20.1196 2.87928C20.2432 2.88408 20.3413 2.79588 20.4523 2.75568C20.8939 2.55198 21.4428 2.64108 21.8136 2.94978C22.0134 3.11658 22.14 3.34908 22.2711 3.56928C22.4013 3.80028 22.5453 4.02468 22.6503 4.26888C22.8627 4.75308 22.7281 5.36148 22.3405 5.71878C22.2379 5.81988 22.1077 5.88498 21.997 5.97558C21.889 6.07278 21.8977 6.25788 22.012 6.34698C22.1209 6.42858 22.2418 6.49458 22.3402 6.58998C22.6831 6.90588 22.8273 7.41648 22.7106 7.86648C22.6492 8.09028 22.5277 8.29038 22.4149 8.49108C22.2685 8.73558 22.1403 8.99388 21.9582 9.21468C21.642 9.58788 21.1011 9.74838 20.6313 9.61818C20.4978 9.58218 20.376 9.51648 20.2527 9.45678C20.1477 9.40458 20.0046 9.42678 19.9371 9.52758C19.8591 9.63288 19.8891 9.77178 19.8684 9.89328C19.8244 10.3627 19.4913 10.7812 19.0578 10.957C18.7776 11.0725 18.4677 11.0533 18.1713 11.0593C17.931 11.0566 17.6898 11.0653 17.451 11.0362C16.9464 10.9765 16.5051 10.5829 16.3713 10.0954C16.3332 9.96018 16.3258 9.81918 16.3177 9.67968C16.3147 9.55938 16.2237 9.44058 16.0995 9.43128C15.9654 9.41658 15.8592 9.51498 15.7398 9.55758C15.2265 9.78948 14.5701 9.62688 14.2203 9.18648C14.0628 8.98638 13.9452 8.75958 13.8159 8.54118C13.7034 8.34198 13.5825 8.14488 13.509 7.92708C13.362 7.46568 13.5027 6.92568 13.8567 6.59478C13.95 6.50508 14.0613 6.43758 14.1675 6.36468C14.2722 6.29568 14.3181 6.14508 14.2512 6.03498C14.1864 5.92848 14.0616 5.88558 13.9698 5.80848C13.5183 5.48118 13.3311 4.84038 13.5306 4.32078C13.6107 4.11288 13.7289 3.92238 13.8384 3.72918C13.9596 3.52278 14.0727 3.30978 14.2212 3.12108C14.5758 2.67558 15.2439 2.51658 15.7596 2.75988C15.8904 2.81508 16.0299 2.92968 16.1775 2.85558C16.3179 2.79228 16.3239 2.62188 16.3266 2.48958C16.3449 2.03538 16.6308 1.61268 17.031 1.40478C17.2323 1.29288 17.4652 1.25988 17.6923 1.25418ZM17.6649 2.15628C17.5248 2.15268 17.3839 2.21058 17.3023 2.32758C17.2099 2.43678 17.2267 2.58648 17.2138 2.71908C17.1826 3.09588 16.9596 3.45408 16.6263 3.63618C16.2735 3.83718 15.8196 3.82038 15.471 3.61878C15.3513 3.54648 15.2017 3.51888 15.0709 3.57918C14.9278 3.62988 14.86 3.77478 14.7841 3.89448C14.6482 4.12968 14.5038 4.36068 14.3865 4.60578C14.2938 4.79868 14.3919 5.04438 14.5806 5.13768C14.9172 5.33088 15.1584 5.68998 15.1806 6.08088C15.2103 6.48288 15.0045 6.88698 14.6718 7.11108C14.574 7.18068 14.4522 7.23348 14.4006 7.34958C14.3295 7.47768 14.3394 7.63698 14.4132 7.76208C14.5635 8.03958 14.7174 8.31588 14.8902 8.58018C15.0033 8.76498 15.2709 8.81658 15.4506 8.69928C15.7986 8.49588 16.2508 8.46678 16.6081 8.66298C16.9522 8.84178 17.1832 9.20718 17.2141 9.59148C17.2243 9.68778 17.2161 9.78738 17.2467 9.88068C17.3013 10.024 17.439 10.1395 17.5956 10.147C17.8758 10.1662 18.1573 10.1584 18.4381 10.1563C18.5688 10.1512 18.7171 10.1569 18.8209 10.0624C18.9424 9.97458 18.9873 9.82248 18.9825 9.67818C18.9885 9.27378 19.2108 8.87448 19.5675 8.67738C19.9047 8.48208 20.3394 8.48358 20.6821 8.66478C20.7939 8.72448 20.9173 8.78928 21.0484 8.75478C21.2035 8.73408 21.3072 8.60688 21.3789 8.47878C21.5247 8.23278 21.673 7.98738 21.8031 7.73268C21.8706 7.61148 21.8634 7.45938 21.7968 7.33968C21.7407 7.22778 21.6201 7.17618 21.5235 7.10658C21.1698 6.86448 20.9638 6.41898 21.0309 5.99238C21.0796 5.62938 21.318 5.31108 21.6321 5.13048C21.8187 5.03508 21.9082 4.78488 21.8116 4.59678C21.697 4.35858 21.556 4.13418 21.4245 3.90498C21.3447 3.77988 21.2736 3.62628 21.1224 3.57528C20.9892 3.51738 20.8408 3.55128 20.7216 3.62478C20.3589 3.82998 19.8849 3.83478 19.5303 3.60948C19.2123 3.41688 19.0083 3.05958 18.9864 2.69028C18.9768 2.56488 18.9856 2.42388 18.8959 2.32308C18.8131 2.20638 18.6705 2.15238 18.531 2.15598C18.2424 2.14848 17.9535 2.14818 17.6649 2.15628Z" fill="#4B4B4B"/>
<path d="M17.8566 4.38415C18.2811 4.32445 18.7275 4.42105 19.0848 4.65955C19.4832 4.91815 19.7688 5.34265 19.8582 5.80915C19.9458 6.25014 19.8597 6.72325 19.6185 7.10305C19.3815 7.48225 18.9969 7.76665 18.564 7.88005C18.1497 7.99045 17.6955 7.94664 17.3121 7.75374C16.8927 7.54825 16.5615 7.17054 16.4133 6.72774C16.2645 6.29304 16.2921 5.80045 16.4919 5.38645C16.7412 4.85185 17.2713 4.46095 17.8566 4.38415ZM17.9718 5.27695C17.4951 5.33755 17.1363 5.83375 17.232 6.30565C17.3031 6.78595 17.8179 7.13575 18.291 7.01965C18.7389 6.93475 19.0638 6.46375 18.9804 6.01465C18.9195 5.54665 18.4362 5.19385 17.9718 5.27695Z" fill="#4B4B4B"/>
</svg>
