<svg width="24" height="24" viewBox="0 0 24 24" fill="none" xmlns="http://www.w3.org/2000/svg">
<path d="M8.89081 1.27231C9.85741 1.24921 10.8243 1.25011 11.7912 1.25071C11.9097 1.25161 12.0297 1.24291 12.147 1.26421C12.4113 1.31401 12.639 1.51921 12.7161 1.77661C12.789 2.00491 12.7431 2.26741 12.5952 2.45641C12.4572 2.63911 12.2319 2.75161 12.0027 2.75011C10.5447 2.75491 9.08491 2.73661 7.62871 2.82781C7.00981 2.87071 6.38941 2.93431 5.78401 3.07651C5.31841 3.18721 4.85881 3.35011 4.45801 3.61621C4.01971 3.90451 3.66271 4.31251 3.42841 4.78171C3.15451 5.32981 3.02341 5.93581 2.93701 6.53881C2.76901 7.78171 2.76631 9.03871 2.75341 10.2906C2.74981 11.5302 2.74801 12.7701 2.75551 14.0097C2.76391 14.8707 2.77831 15.7323 2.84371 16.5909C2.88721 17.1354 2.95051 17.6802 3.07561 18.2127C3.18181 18.6591 3.33481 19.0998 3.58201 19.4886C3.85621 19.9254 4.24741 20.2869 4.70221 20.5299C5.12671 20.7579 5.59471 20.892 6.06601 20.9844C6.82561 21.1302 7.59991 21.1788 8.37181 21.2106C9.87031 21.264 11.37 21.2454 12.8691 21.2493C14.1906 21.2436 15.5145 21.2508 16.8321 21.1359C17.451 21.0768 18.072 20.9904 18.6648 20.7978C19.1085 20.6541 19.5333 20.4354 19.8816 20.1219C20.2464 19.7994 20.5227 19.3833 20.7009 18.9312C20.9481 18.3093 21.0513 17.6418 21.1212 16.9797C21.2442 15.7239 21.2403 14.4606 21.2493 13.2003C21.2496 12.7998 21.2481 12.3993 21.2499 11.9991C21.2472 11.7177 21.4185 11.445 21.6729 11.3253C21.9036 11.2104 22.1934 11.2278 22.4082 11.3709C22.6284 11.5101 22.7613 11.7705 22.7502 12.0303C22.7451 13.5627 22.7649 15.0975 22.6578 16.6272C22.5765 17.679 22.4343 18.7491 21.9951 19.7187C21.5949 20.6115 20.8989 21.369 20.0379 21.8349C19.1568 22.3167 18.1524 22.5057 17.1639 22.6104C15.8472 22.7421 14.5221 22.7412 13.2003 22.7496C11.55 22.7439 9.89911 22.7688 8.24971 22.707C7.03501 22.6503 5.79661 22.5657 4.64491 22.1451C3.76441 21.8274 2.97601 21.2472 2.43871 20.4777C1.82341 19.6089 1.56181 18.5484 1.42921 17.5068C1.25671 16.098 1.26151 14.676 1.25071 13.2591C1.25311 11.9091 1.24201 10.5591 1.26541 9.20941C1.28221 8.38981 1.31011 7.56931 1.39861 6.75391C1.47901 6.02281 1.60921 5.29081 1.87141 4.60111C2.15281 3.84601 2.62501 3.15991 3.24901 2.64721C3.68161 2.28811 4.18381 2.01871 4.71241 1.83001C5.30701 1.61791 5.93041 1.49911 6.55561 1.42141C7.33021 1.32691 8.11081 1.29301 8.89081 1.27231Z" fill="#4B4B4B"/>
<path opacity="0.5" d="M12.8197 17.9718C13.1378 17.9533 13.4579 17.9686 13.7767 17.9637C14.8645 17.9637 15.9523 17.9634 17.0403 17.9639C17.2202 17.9622 17.3977 18.0457 17.5129 18.1839C17.6716 18.3673 17.7035 18.6473 17.5908 18.8619C17.4892 19.0653 17.2684 19.2025 17.0406 19.1993C15.6722 19.2 14.3039 19.199 12.9356 19.1998C12.7369 19.2052 12.5394 19.1091 12.4227 18.9479C12.2821 18.7623 12.2633 18.4946 12.3755 18.2907C12.4632 18.1226 12.6331 18.0022 12.8197 17.9718Z" fill="#4B4B4B"/>
<path opacity="0.5" d="M9.77903 15.7845C9.94875 15.6049 10.2358 15.5493 10.4633 15.6493C10.6631 15.7319 10.8093 15.9253 10.8292 16.1375C10.8488 16.3132 10.7839 16.4956 10.6565 16.6214C9.87969 17.4191 9.1048 18.2193 8.32723 19.0169C8.15408 19.1988 7.86044 19.2523 7.63145 19.145C7.51659 19.0973 7.43308 19.0037 7.34957 18.9163C7.07086 18.6293 6.79167 18.3427 6.51321 18.0554C6.3888 17.9296 6.32537 17.7484 6.34619 17.5744C6.367 17.3723 6.50121 17.1859 6.68906 17.0997C6.92833 16.9811 7.24058 17.0445 7.4152 17.2435C7.57292 17.4057 7.72966 17.5689 7.88909 17.73C8.51826 17.0805 9.1484 16.4325 9.77903 15.7845Z" fill="#4B4B4B"/>
<path opacity="0.5" d="M12.8197 12.5718C13.1378 12.5533 13.4579 12.5686 13.7767 12.5637C14.8645 12.5637 15.9523 12.5634 17.0403 12.5639C17.2202 12.5622 17.3977 12.6457 17.5129 12.7839C17.6716 12.9673 17.7035 13.2473 17.5908 13.4619C17.4892 13.6653 17.2684 13.8025 17.0406 13.7993C15.6722 13.8 14.3039 13.799 12.9356 13.7998C12.7369 13.8052 12.5394 13.7091 12.4227 13.5479C12.2821 13.3623 12.2633 13.0946 12.3755 12.8907C12.4632 12.7226 12.6331 12.6022 12.8197 12.5718Z" fill="#4B4B4B"/>
<path opacity="0.5" d="M9.77903 10.3844C9.94875 10.2049 10.2358 10.1492 10.4633 10.2493C10.6631 10.3319 10.8093 10.5253 10.8292 10.7375C10.8488 10.9132 10.7839 11.0956 10.6565 11.2214C9.87969 12.0191 9.1048 12.8193 8.32723 13.6169C8.15408 13.7988 7.86044 13.8523 7.63145 13.745C7.51659 13.6973 7.43308 13.6037 7.34957 13.5163C7.07086 13.2293 6.79167 12.9427 6.51321 12.6554C6.3888 12.5296 6.32537 12.3484 6.34619 12.1744C6.367 11.9723 6.50121 11.7859 6.68906 11.6997C6.92833 11.5811 7.24058 11.6445 7.4152 11.8435C7.57292 12.0057 7.72966 12.1689 7.88909 12.3299C8.51826 11.6805 9.1484 11.0325 9.77903 10.3844Z" fill="#4B4B4B"/>
<path opacity="0.5" d="M9.77903 4.98446C9.94875 4.80493 10.2358 4.74925 10.4633 4.84933C10.6631 4.93189 10.8093 5.12534 10.8292 5.33751C10.8488 5.51319 10.7839 5.6956 10.6565 5.82136C9.87969 6.61915 9.1048 7.41933 8.32723 8.21688C8.15408 8.3988 7.86044 8.45232 7.63145 8.34504C7.51659 8.29728 7.43308 8.20367 7.34957 8.11631C7.07086 7.82926 6.79167 7.54269 6.51321 7.2554C6.3888 7.12964 6.32537 6.94844 6.34619 6.77443C6.367 6.57234 6.50121 6.38586 6.68906 6.2997C6.92833 6.18113 7.24058 6.24449 7.4152 6.44346C7.57292 6.60571 7.72966 6.76891 7.88909 6.92995C8.51826 6.28049 9.1484 5.63248 9.77903 4.98446Z" fill="#4B4B4B"/>
<path d="M17.6924 1.25412C18.0305 1.25292 18.3698 1.23912 18.7073 1.26732C19.2485 1.31172 19.727 1.74072 19.8443 2.26842C19.8755 2.39712 19.8746 2.53032 19.8884 2.66142C19.9016 2.77602 20.0012 2.87742 20.1197 2.87922C20.2433 2.88402 20.3414 2.79582 20.4524 2.75562C20.894 2.55192 21.443 2.64102 21.8138 2.94972C22.0136 3.11652 22.1402 3.34902 22.2713 3.56922C22.4015 3.80022 22.5455 4.02462 22.6505 4.26882C22.8629 4.75302 22.7282 5.36142 22.3406 5.71872C22.238 5.81982 22.1078 5.88492 21.9971 5.97552C21.8891 6.07272 21.8978 6.25782 22.0121 6.34692C22.121 6.42852 22.2419 6.49452 22.3403 6.58992C22.6832 6.90582 22.8275 7.41642 22.7108 7.86642C22.6493 8.09022 22.5278 8.29032 22.415 8.49102C22.2686 8.73552 22.1405 8.99382 21.9584 9.21462C21.6422 9.58782 21.1013 9.74832 20.6315 9.61812C20.498 9.58212 20.3762 9.51642 20.2529 9.45672C20.1479 9.40452 20.0048 9.42672 19.9373 9.52752C19.8593 9.63282 19.8893 9.77172 19.8686 9.89322C19.8245 10.3627 19.4915 10.7812 19.058 10.957C18.7778 11.0725 18.4679 11.0533 18.1715 11.0593C17.9312 11.0566 17.69 11.0653 17.4512 11.0362C16.9466 10.9765 16.5053 10.5829 16.3715 10.0954C16.3334 9.96012 16.3259 9.81912 16.3178 9.67962C16.3148 9.55932 16.2239 9.44052 16.0997 9.43122C15.9656 9.41652 15.8594 9.51492 15.74 9.55752C15.2267 9.78942 14.5703 9.62682 14.2205 9.18642C14.063 8.98632 13.9454 8.75952 13.8161 8.54112C13.7036 8.34192 13.5827 8.14482 13.5092 7.92702C13.3622 7.46562 13.5029 6.92562 13.8569 6.59472C13.9502 6.50502 14.0615 6.43752 14.1677 6.36462C14.2724 6.29562 14.3183 6.14502 14.2514 6.03492C14.1866 5.92842 14.0618 5.88552 13.97 5.80842C13.5185 5.48112 13.3313 4.84032 13.5308 4.32072C13.6109 4.11282 13.7291 3.92232 13.8386 3.72912C13.9598 3.52272 14.0729 3.30972 14.2214 3.12102C14.576 2.67552 15.2441 2.51652 15.7598 2.75982C15.8906 2.81502 16.0301 2.92962 16.1777 2.85552C16.3181 2.79222 16.3241 2.62182 16.3268 2.48952C16.3451 2.03532 16.631 1.61262 17.0312 1.40472C17.2325 1.29282 17.4653 1.25982 17.6924 1.25412ZM17.6651 2.15622C17.525 2.15262 17.384 2.21052 17.3024 2.32752C17.21 2.43672 17.2268 2.58642 17.2139 2.71902C17.1827 3.09582 16.9598 3.45402 16.6265 3.63612C16.2737 3.83712 15.8198 3.82032 15.4712 3.61872C15.3515 3.54642 15.2018 3.51882 15.071 3.57912C14.9279 3.62982 14.8601 3.77472 14.7842 3.89442C14.6483 4.12962 14.504 4.36062 14.3867 4.60572C14.294 4.79862 14.3921 5.04432 14.5808 5.13762C14.9174 5.33082 15.1586 5.68992 15.1808 6.08082C15.2105 6.48282 15.0047 6.88692 14.672 7.11102C14.5742 7.18062 14.4524 7.23342 14.4008 7.34952C14.3297 7.47762 14.3396 7.63692 14.4134 7.76202C14.5637 8.03952 14.7176 8.31582 14.8904 8.58012C15.0035 8.76492 15.2711 8.81652 15.4508 8.69922C15.7988 8.49582 16.2509 8.46672 16.6082 8.66292C16.9523 8.84172 17.1833 9.20712 17.2142 9.59142C17.2244 9.68772 17.2163 9.78732 17.2469 9.88062C17.3015 10.024 17.4392 10.1395 17.5958 10.147C17.876 10.1662 18.1574 10.1584 18.4382 10.1563C18.569 10.1512 18.7172 10.1569 18.821 10.0624C18.9425 9.97452 18.9875 9.82242 18.9827 9.67812C18.9887 9.27372 19.211 8.87442 19.5677 8.67732C19.9049 8.48202 20.3396 8.48352 20.6822 8.66472C20.7941 8.72442 20.9174 8.78922 21.0485 8.75472C21.2036 8.73402 21.3074 8.60682 21.3791 8.47872C21.5249 8.23272 21.6731 7.98732 21.8033 7.73262C21.8708 7.61142 21.8636 7.45932 21.797 7.33962C21.7409 7.22772 21.6203 7.17612 21.5237 7.10652C21.17 6.86442 20.9639 6.41892 21.0311 5.99232C21.0797 5.62932 21.3182 5.31102 21.6323 5.13042C21.8189 5.03502 21.9083 4.78482 21.8117 4.59672C21.6971 4.35852 21.5561 4.13412 21.4247 3.90492C21.3449 3.77982 21.2738 3.62622 21.1226 3.57522C20.9894 3.51732 20.8409 3.55122 20.7218 3.62472C20.3591 3.82992 19.8851 3.83472 19.5305 3.60942C19.2125 3.41682 19.0085 3.05952 18.9866 2.69022C18.977 2.56482 18.9857 2.42382 18.896 2.32302C18.8132 2.20632 18.6707 2.15232 18.5312 2.15592C18.2426 2.14842 17.9537 2.14812 17.6651 2.15622Z" fill="#4B4B4B"/>
<path d="M17.8563 4.38409C18.2808 4.32439 18.7272 4.42099 19.0845 4.65949C19.4829 4.91809 19.7685 5.34259 19.8579 5.80909C19.9455 6.25008 19.8594 6.72319 19.6182 7.10299C19.3812 7.48219 18.9966 7.76659 18.5637 7.87999C18.1494 7.99039 17.6952 7.94658 17.3118 7.75368C16.8924 7.54819 16.5612 7.17048 16.413 6.72768C16.2642 6.29298 16.2918 5.80039 16.4916 5.38639C16.7409 4.85179 17.271 4.46089 17.8563 4.38409ZM17.9715 5.27689C17.4948 5.33749 17.136 5.83369 17.2317 6.30559C17.3028 6.78589 17.8176 7.13569 18.2907 7.01959C18.7386 6.93469 19.0635 6.46369 18.9801 6.01459C18.9192 5.54659 18.4359 5.19379 17.9715 5.27689Z" fill="#4B4B4B"/>
</svg>
