<svg width="24" height="24" viewBox="0 0 24 24" fill="none" xmlns="http://www.w3.org/2000/svg">
<path d="M4.32861 13.8611C4.32861 13.437 4.67246 13.0931 5.09662 13.0931H18.9034C19.3275 13.0931 19.6714 13.437 19.6714 13.8611C19.6714 14.2853 19.3275 14.6291 18.9034 14.6291H5.09662C4.67246 14.6291 4.32861 14.2853 4.32861 13.8611Z" fill="#4B4B4B"/>
<path d="M14.6098 9.59811C14.9097 9.29819 15.396 9.29819 15.6959 9.59811L19.4136 13.3158C19.7135 13.6157 19.7135 14.102 19.4136 14.4019C19.1137 14.7019 18.6274 14.7019 18.3275 14.4019L14.6098 10.6842C14.3098 10.3843 14.3098 9.89804 14.6098 9.59811Z" fill="#4B4B4B"/>
</svg>
