<svg width="24" height="24" viewBox="0 0 24 24" fill="none" xmlns="http://www.w3.org/2000/svg">
<path d="M4.32861 13.8613C4.32861 13.4372 4.67246 13.0933 5.09662 13.0933H18.9034C19.3275 13.0933 19.6714 13.4372 19.6714 13.8613C19.6714 14.2855 19.3275 14.6293 18.9034 14.6293H5.09662C4.67246 14.6293 4.32861 14.2855 4.32861 13.8613Z" fill="#4B4B4B"/>
<path d="M14.6098 9.59799C14.9097 9.29807 15.396 9.29807 15.6959 9.59799L19.4136 13.3157C19.7135 13.6156 19.7135 14.1019 19.4136 14.4018C19.1137 14.7018 18.6274 14.7018 18.3275 14.4018L14.6098 10.6841C14.3098 10.3842 14.3098 9.89792 14.6098 9.59799Z" fill="#4B4B4B"/>
</svg>
