<svg width="24" height="24" viewBox="0 0 24 24" fill="none" xmlns="http://www.w3.org/2000/svg">
<path d="M19.6714 13.8611C19.6714 13.437 19.3275 13.0931 18.9034 13.0931H5.09662C4.67246 13.0931 4.32861 13.437 4.32861 13.8611C4.32861 14.2853 4.67246 14.6291 5.09662 14.6291H18.9034C19.3275 14.6291 19.6714 14.2853 19.6714 13.8611Z" fill="#4B4B4B"/>
<path d="M9.39023 9.59811C9.0903 9.29819 8.60403 9.29819 8.30411 9.59811L4.58642 13.3158C4.28649 13.6157 4.28649 14.102 4.58642 14.4019C4.88634 14.7019 5.37262 14.7019 5.67254 14.4019L9.39023 10.6842C9.69016 10.3843 9.69015 9.89804 9.39023 9.59811Z" fill="#4B4B4B"/>
</svg>
