<svg width="24" height="24" viewBox="0 0 24 24" fill="none" xmlns="http://www.w3.org/2000/svg">
<path d="M19.6714 13.8613C19.6714 13.4372 19.3275 13.0933 18.9034 13.0933H5.09662C4.67246 13.0933 4.32861 13.4372 4.32861 13.8613C4.32861 14.2855 4.67246 14.6293 5.09662 14.6293H18.9034C19.3275 14.6293 19.6714 14.2855 19.6714 13.8613Z" fill="#4B4B4B"/>
<path d="M9.39033 9.59799C9.0904 9.29807 8.60413 9.29807 8.30421 9.59799L4.58652 13.3157C4.28659 13.6156 4.28659 14.1019 4.58652 14.4018C4.88644 14.7018 5.37272 14.7018 5.67264 14.4018L9.39033 10.6841C9.69026 10.3842 9.69025 9.89792 9.39033 9.59799Z" fill="#4B4B4B"/>
</svg>
