<svg width="24" height="24" viewBox="0 0 24 24" fill="none" xmlns="http://www.w3.org/2000/svg">
<path d="M8.64899 2.262C9.29609 2.2428 9.94349 2.2524 10.5906 2.25C11.9298 2.2503 13.2693 2.2494 14.6085 2.2506C15.3336 2.2602 16.0695 2.25 16.779 2.4213C17.3037 2.5461 17.7972 2.8314 18.1278 3.2625C18.4785 3.7074 18.6252 4.2741 18.6852 4.8282C18.7641 5.5758 18.7467 6.3291 18.75 7.0797C18.7467 7.8108 18.7614 8.5452 18.6732 9.2724C18.6054 9.8154 18.4422 10.3674 18.0834 10.7925C17.76 11.1882 17.295 11.4504 16.8027 11.5728C16.1757 11.7306 15.5241 11.7363 14.8815 11.7477C13.1706 11.7543 11.46 11.7489 9.7494 11.7507C9.1998 11.748 8.6496 11.7513 8.1012 11.7108C7.54139 11.6682 6.96509 11.5731 6.47819 11.2767C6.04289 11.0154 5.70719 10.5999 5.53019 10.125C5.31839 9.5658 5.28389 8.9604 5.26229 8.3688C5.24159 7.5795 5.25119 6.7899 5.25299 6.0003C5.26979 5.3568 5.27729 4.7016 5.46059 4.0788C5.60909 3.5589 5.93189 3.0861 6.38369 2.7843C7.04639 2.3376 7.87499 2.2896 8.64899 2.262ZM8.00699 3.8043C7.67699 3.8463 7.30139 3.8943 7.07249 4.1637C6.88139 4.4004 6.84119 4.7157 6.80429 5.0076C6.74639 5.5611 6.75359 6.1188 6.75059 6.6744C6.74969 6.8913 6.74969 7.1082 6.75059 7.3254C6.75389 7.8849 6.74579 8.4468 6.80549 9.0036C6.84749 9.3333 6.89849 9.7086 7.17089 9.9342C7.43639 10.1388 7.7862 10.1688 8.1078 10.2066C8.6289 10.2516 9.15269 10.2462 9.67559 10.2504C11.2254 10.2507 12.7752 10.2507 14.325 10.2504C14.8476 10.2459 15.3714 10.2522 15.8925 10.2063C16.2261 10.1673 16.5951 10.1364 16.8603 9.9069C17.133 9.6474 17.1645 9.2448 17.2062 8.8926C17.2515 8.3712 17.2473 7.8471 17.2497 7.3242C17.25 7.1076 17.2503 6.891 17.2494 6.6744C17.2464 6.1185 17.2533 5.5605 17.1957 5.0064C17.1543 4.6836 17.1084 4.3188 16.8531 4.0872C16.6161 3.8829 16.2897 3.8421 15.9909 3.804C15.4377 3.7464 14.8806 3.7536 14.3256 3.7506C12.7752 3.7497 11.2251 3.7497 9.6747 3.7503C9.11849 3.7536 8.56079 3.7467 8.00699 3.8043Z" fill="#4B4B4B"/>
<path opacity="0.5" d="M8.00699 3.80431C8.56079 3.74671 9.11849 3.75361 9.6747 3.75031C9.50729 4.59181 9.03509 5.36611 8.36969 5.90641C7.90259 6.28801 7.3422 6.55621 6.7506 6.67441C6.7536 6.11881 6.74639 5.56111 6.80429 5.00761C6.80249 5.03191 6.7992 5.0802 6.7974 5.1045C7.3929 4.8813 7.88189 4.39291 8.10449 3.79711C8.08019 3.79891 8.03129 3.80251 8.00699 3.80431Z" fill="#4B4B4B"/>
<path opacity="0.5" d="M14.3256 3.75061C14.8806 3.75361 15.4377 3.74641 15.9909 3.80401C15.9669 3.80221 15.9192 3.79861 15.8952 3.79711C16.1181 4.39261 16.6068 4.88191 17.2029 5.10451C17.2011 5.08021 17.1975 5.03101 17.1957 5.00641C17.2533 5.56051 17.2464 6.11851 17.2494 6.67441C16.9206 6.60871 16.6014 6.49651 16.302 6.34501C15.2958 5.83861 14.5428 4.85731 14.3256 3.75061Z" fill="#4B4B4B"/>
<path opacity="0.5" d="M11.7429 5.26831C12.1665 5.20531 12.6129 5.30251 12.9684 5.54221C13.2951 5.75791 13.5447 6.08701 13.665 6.45961C13.8033 6.88201 13.7718 7.35721 13.5783 7.75771C13.3869 8.15641 13.0398 8.47801 12.6261 8.63461C12.1374 8.82451 11.5629 8.77831 11.1129 8.50861C10.7895 8.31901 10.53 8.02231 10.3854 7.67611C10.1907 7.21741 10.2072 6.67531 10.4283 6.22891C10.6749 5.71951 11.1822 5.34751 11.7429 5.26831ZM11.9199 6.76261C11.7438 6.81301 11.6901 7.06951 11.8329 7.18531C11.9646 7.31821 12.2157 7.23241 12.2454 7.05001C12.2907 6.86941 12.0933 6.69571 11.9199 6.76261Z" fill="#4B4B4B"/>
<path opacity="0.5" d="M14.982 8.7738C15.5256 8.0337 16.3488 7.5051 17.2497 7.3242C17.2473 7.8471 17.2515 8.3712 17.2062 8.8926C16.6077 9.1182 16.1178 9.6075 15.8925 10.2063C15.3714 10.2522 14.8476 10.2459 14.325 10.2504C14.4324 9.7179 14.6586 9.2103 14.982 8.7738Z" fill="#4B4B4B"/>
<path opacity="0.5" d="M6.7506 7.32541C7.3575 7.44751 7.9317 7.72561 8.406 8.12341C9.0528 8.66251 9.5094 9.42451 9.6756 10.2504C9.15269 10.2462 8.6289 10.2516 8.1078 10.2066C7.8822 9.61111 7.3971 9.11941 6.7998 8.89681C6.801 8.92351 6.804 8.97691 6.8055 9.00361C6.7458 8.44681 6.7539 7.88491 6.7506 7.32541Z" fill="#4B4B4B"/>
<path opacity="0.5" d="M9.7527 14.2935C11.0013 14.1756 12.2955 14.2842 13.4595 14.7759C13.9293 14.9817 14.4021 15.2217 14.7534 15.6054C15.1353 16.011 15.357 16.5591 15.3702 17.1156C15.8037 16.8348 16.2048 16.5078 16.6197 16.2006C16.9728 15.9333 17.3262 15.6669 17.6793 15.3999C17.8404 15.2739 18.0129 15.162 18.1992 15.0768C19.1385 14.6316 20.3466 14.8014 21.0963 15.5322C21.4707 15.8955 21.7203 16.3947 21.7485 16.9191C21.7734 17.319 21.663 17.7225 21.4512 18.0612C21.1581 18.5307 20.8485 18.9903 20.5092 19.4274C20.2029 19.8189 19.8714 20.1951 19.4841 20.5089C19.0701 20.8461 18.6156 21.1299 18.1494 21.3879C17.7006 21.633 17.2434 21.8658 16.7628 22.0419C15.8541 22.3755 14.8959 22.5528 13.9365 22.6608C12.5499 22.8099 11.1435 22.7718 9.7668 22.5492C9.2997 22.476 8.8395 22.3629 8.3712 22.2969C7.6851 22.194 6.9918 22.1409 6.2982 22.1382C5.529 22.1379 4.7598 22.1385 3.9906 22.1379C3.7374 22.1382 3.4908 21.9969 3.3603 21.7806C3.1974 21.5223 3.2169 21.1644 3.4089 20.9265C3.5463 20.7489 3.7662 20.6385 3.9909 20.6388C4.7607 20.6373 5.5305 20.6385 6.3003 20.6382C7.0734 20.6409 7.8462 20.7 8.6106 20.8161C9.1128 20.8863 9.6057 21.0093 10.1073 21.084C11.5266 21.303 12.9795 21.3066 14.3988 21.0873C15.0054 20.9925 15.609 20.8623 16.1877 20.6547C16.6134 20.5044 17.0154 20.2959 17.4117 20.0814C17.8773 19.8225 18.3369 19.5411 18.7296 19.1775C19.2381 18.6852 19.6398 18.0969 20.0262 17.5077C20.1123 17.3598 20.2419 17.2218 20.2479 17.0418C20.2587 16.8531 20.1465 16.6806 20.004 16.5663C19.6191 16.2546 19.0176 16.2543 18.6297 16.5618C18.1173 16.9491 17.6046 17.3361 17.0922 17.7234C16.7322 17.9973 16.3701 18.27 15.9816 18.5025C15.4572 18.8202 14.8854 19.0686 14.2815 19.1853C13.4301 19.3392 12.5574 19.359 11.697 19.281C11.4723 19.2657 11.2593 19.143 11.133 18.9567C10.9776 18.7362 10.9587 18.4296 11.0841 18.1911C11.2128 17.9334 11.4999 17.7642 11.7882 17.784C12.3639 17.835 12.9462 17.8464 13.5207 17.7768C13.7835 17.619 13.9233 17.2839 13.8492 16.9854C13.7907 16.7253 13.5879 16.5255 13.3611 16.4001C12.4563 15.8733 11.3829 15.7146 10.3494 15.756C9.1887 15.8052 8.0469 16.0875 6.9666 16.5063C6.1233 16.8363 5.3121 17.2524 4.5642 17.7639C4.467 17.8299 4.374 17.9064 4.2618 17.946C4.0203 18.0381 3.732 17.9928 3.5319 17.829C3.3495 17.6844 3.24 17.4522 3.2502 17.2194C3.2559 16.9845 3.3801 16.7571 3.5745 16.6251C4.3764 16.059 5.2464 15.5925 6.1524 15.2166C7.3011 14.7432 8.514 14.4117 9.7527 14.2935Z" fill="#4B4B4B"/>
</svg>
