<svg width="24" height="24" viewBox="0 0 24 24" fill="none" xmlns="http://www.w3.org/2000/svg">
<path d="M8.6493 2.26185C9.2964 2.24265 9.9438 2.25225 10.5909 2.24985C11.9301 2.25015 13.2696 2.24925 14.6088 2.25045C15.3339 2.26005 16.0698 2.24985 16.7793 2.42115C17.304 2.54595 17.7975 2.83125 18.1281 3.26235C18.4788 3.70725 18.6255 4.27395 18.6855 4.82805C18.7644 5.57565 18.747 6.32895 18.7503 7.07955C18.747 7.81065 18.7617 8.54505 18.6735 9.27225C18.6057 9.81525 18.4425 10.3672 18.0837 10.7923C17.7603 11.188 17.2953 11.4502 16.803 11.5726C16.176 11.7304 15.5244 11.7361 14.8818 11.7475C13.1709 11.7541 11.4603 11.7487 9.7497 11.7505C9.2001 11.7478 8.6499 11.7511 8.1015 11.7106C7.5417 11.668 6.9654 11.5729 6.4785 11.2765C6.0432 11.0152 5.7075 10.5997 5.5305 10.1248C5.3187 9.56565 5.2842 8.96025 5.2626 8.36865C5.2419 7.57935 5.2515 6.78975 5.2533 6.00015C5.2701 5.35665 5.2776 4.70145 5.4609 4.07865C5.6094 3.55875 5.9322 3.08595 6.384 2.78415C7.0467 2.33745 7.8753 2.28945 8.6493 2.26185ZM8.0073 3.80415C7.6773 3.84615 7.3017 3.89415 7.0728 4.16355C6.8817 4.40025 6.8415 4.71555 6.8046 5.00745C6.7467 5.56095 6.7539 6.11865 6.7509 6.67425C6.75 6.89115 6.75 7.10805 6.7509 7.32525C6.7542 7.88475 6.7461 8.44665 6.8058 9.00345C6.8478 9.33315 6.8988 9.70845 7.1712 9.93405C7.4367 10.1386 7.7865 10.1686 8.1081 10.2064C8.6292 10.2514 9.153 10.246 9.6759 10.2502C11.2257 10.2505 12.7755 10.2505 14.3253 10.2502C14.8479 10.2457 15.3717 10.252 15.8928 10.2061C16.2264 10.1671 16.5954 10.1362 16.8606 9.90675C17.1333 9.64725 17.1648 9.24465 17.2065 8.89245C17.2518 8.37105 17.2476 7.84695 17.25 7.32405C17.2503 7.10745 17.2506 6.89085 17.2497 6.67425C17.2467 6.11835 17.2536 5.56035 17.196 5.00625C17.1546 4.68345 17.1087 4.31865 16.8534 4.08705C16.6164 3.88275 16.29 3.84195 15.9912 3.80385C15.438 3.74625 14.8809 3.75345 14.3259 3.75045C12.7755 3.74955 11.2254 3.74955 9.675 3.75015C9.1188 3.75345 8.5611 3.74655 8.0073 3.80415Z" fill="#4B4B4B"/>
<path opacity="0.5" d="M8.00689 3.80449C8.56069 3.74689 9.11839 3.75379 9.67459 3.75049C9.50719 4.59199 9.03499 5.36629 8.36959 5.90659C7.90249 6.28819 7.34209 6.55639 6.75049 6.67459C6.75349 6.11899 6.74629 5.56129 6.80419 5.00779C6.80239 5.03209 6.79909 5.08038 6.79729 5.10468C7.39279 4.88148 7.88179 4.39309 8.10439 3.79729C8.08009 3.79909 8.03119 3.80269 8.00689 3.80449Z" fill="#4B4B4B"/>
<path opacity="0.5" d="M14.3257 3.75049C14.8807 3.75349 15.4378 3.74629 15.991 3.80389C15.967 3.80209 15.9193 3.79849 15.8953 3.79699C16.1182 4.39249 16.6069 4.88179 17.203 5.10439C17.2012 5.08009 17.1976 5.03089 17.1958 5.00629C17.2534 5.56039 17.2465 6.11839 17.2495 6.67429C16.9207 6.60859 16.6015 6.49639 16.3021 6.34489C15.2959 5.83849 14.5429 4.85719 14.3257 3.75049Z" fill="#4B4B4B"/>
<path opacity="0.5" d="M11.7428 5.26823C12.1664 5.20523 12.6128 5.30243 12.9683 5.54213C13.295 5.75783 13.5446 6.08693 13.6649 6.45953C13.8032 6.88193 13.7717 7.35713 13.5782 7.75763C13.3868 8.15633 13.0397 8.47793 12.626 8.63453C12.1373 8.82443 11.5628 8.77823 11.1128 8.50853C10.7894 8.31893 10.5299 8.02223 10.3853 7.67603C10.1906 7.21733 10.2071 6.67523 10.4282 6.22883C10.6748 5.71943 11.1821 5.34743 11.7428 5.26823ZM11.9198 6.76253C11.7437 6.81293 11.69 7.06943 11.8328 7.18523C11.9645 7.31813 12.2156 7.23233 12.2453 7.04993C12.2906 6.86933 12.0932 6.69563 11.9198 6.76253Z" fill="#4B4B4B"/>
<path opacity="0.5" d="M14.9822 8.77382C15.5258 8.03372 16.349 7.50512 17.2499 7.32422C17.2475 7.84712 17.2517 8.37122 17.2064 8.89262C16.6079 9.11822 16.118 9.60752 15.8927 10.2063C15.3716 10.2522 14.8478 10.2459 14.3252 10.2504C14.4326 9.71792 14.6588 9.21032 14.9822 8.77382Z" fill="#4B4B4B"/>
<path opacity="0.5" d="M6.75049 7.3252C7.35739 7.4473 7.93159 7.7254 8.40589 8.1232C9.05269 8.6623 9.50929 9.4243 9.67549 10.2502C9.15259 10.246 8.62879 10.2514 8.10769 10.2064C7.88209 9.6109 7.39699 9.1192 6.79969 8.8966C6.80089 8.9233 6.80389 8.9767 6.80539 9.0034C6.74569 8.4466 6.75379 7.8847 6.75049 7.3252Z" fill="#4B4B4B"/>
<path opacity="0.5" d="M9.75267 14.2936C11.0013 14.1757 12.2955 14.2843 13.4595 14.776C13.9293 14.9818 14.4021 15.2218 14.7534 15.6055C15.1353 16.0111 15.357 16.5592 15.3702 17.1157C15.8037 16.8349 16.2048 16.5079 16.6197 16.2007C16.9728 15.9334 17.3262 15.667 17.6793 15.4C17.8404 15.274 18.0129 15.1621 18.1992 15.0769C19.1385 14.6317 20.3466 14.8015 21.0963 15.5323C21.4707 15.8956 21.7203 16.3948 21.7485 16.9192C21.7734 17.3191 21.663 17.7226 21.4512 18.0613C21.1581 18.5308 20.8485 18.9904 20.5092 19.4275C20.2029 19.819 19.8714 20.1952 19.4841 20.509C19.0701 20.8462 18.6156 21.13 18.1494 21.388C17.7006 21.6331 17.2434 21.8659 16.7628 22.042C15.8541 22.3756 14.8959 22.5529 13.9365 22.6609C12.5499 22.81 11.1435 22.7719 9.76677 22.5493C9.29967 22.4761 8.83947 22.363 8.37117 22.297C7.68507 22.1941 6.99177 22.141 6.29817 22.1383C5.52897 22.138 4.75977 22.1386 3.99057 22.138C3.73737 22.1383 3.49077 21.997 3.36027 21.7807C3.19737 21.5224 3.21687 21.1645 3.40887 20.9266C3.54627 20.749 3.76617 20.6386 3.99087 20.6389C4.76067 20.6374 5.53047 20.6386 6.30027 20.6383C7.07337 20.641 7.84617 20.7001 8.61057 20.8162C9.11277 20.8864 9.60567 21.0094 10.1073 21.0841C11.5266 21.3031 12.9795 21.3067 14.3988 21.0874C15.0054 20.9926 15.609 20.8624 16.1877 20.6548C16.6134 20.5045 17.0154 20.296 17.4117 20.0815C17.8773 19.8226 18.3369 19.5412 18.7296 19.1776C19.2381 18.6853 19.6398 18.097 20.0262 17.5078C20.1123 17.3599 20.2419 17.2219 20.2479 17.0419C20.2587 16.8532 20.1465 16.6807 20.004 16.5664C19.6191 16.2547 19.0176 16.2544 18.6297 16.5619C18.1173 16.9492 17.6046 17.3362 17.0922 17.7235C16.7322 17.9974 16.3701 18.2701 15.9816 18.5026C15.4572 18.8203 14.8854 19.0687 14.2815 19.1854C13.4301 19.3393 12.5574 19.3591 11.697 19.2811C11.4723 19.2658 11.2593 19.1431 11.133 18.9568C10.9776 18.7363 10.9587 18.4297 11.0841 18.1912C11.2128 17.9335 11.4999 17.7643 11.7882 17.7841C12.3639 17.8351 12.9462 17.8465 13.5207 17.7769C13.7835 17.6191 13.9233 17.284 13.8492 16.9855C13.7907 16.7254 13.5879 16.5256 13.3611 16.4002C12.4563 15.8734 11.3829 15.7147 10.3494 15.7561C9.18867 15.8053 8.04687 16.0876 6.96657 16.5064C6.12327 16.8364 5.31207 17.2525 4.56417 17.764C4.46697 17.83 4.37397 17.9065 4.26177 17.9461C4.02027 18.0382 3.73197 17.9929 3.53187 17.8291C3.34947 17.6845 3.23997 17.4523 3.25017 17.2195C3.25587 16.9846 3.38007 16.7572 3.57447 16.6252C4.37637 16.0591 5.24637 15.5926 6.15237 15.2167C7.30107 14.7433 8.51397 14.4118 9.75267 14.2936Z" fill="#4B4B4B"/>
</svg>
