<svg width="24" height="24" viewBox="0 0 24 24" fill="none" xmlns="http://www.w3.org/2000/svg">
<path d="M11.8958 1.24009C13.4522 1.18579 15.0155 1.52029 16.4255 2.17759C17.3336 2.59849 18.1802 3.15019 18.9386 3.80269C19.2941 4.11649 19.6589 4.42489 19.955 4.79719C20.666 5.58709 21.2651 6.47778 21.7238 7.43629C21.8747 7.72098 21.9956 8.02099 22.1012 8.32549C22.5722 9.58969 22.8032 10.9463 22.7528 12.2954C22.7339 12.7007 22.3385 13.0358 21.9353 12.9869C21.5489 12.9611 21.2291 12.5945 21.2549 12.2081C21.2918 11.0531 21.0911 9.89298 20.6825 8.81269C19.8335 6.55788 18.0959 4.65199 15.9266 3.60259C15.5432 3.44329 15.1679 3.26209 14.7704 3.13909C13.8416 2.83969 12.8609 2.70049 11.8856 2.74519C11.6876 2.76319 11.4791 2.72899 11.3165 2.60839C11.0906 2.45119 10.9661 2.16199 11.0081 1.88989C11.0432 1.63579 11.2181 1.40659 11.4551 1.30789C11.5928 1.24459 11.7473 1.24489 11.8958 1.24009Z" fill="#4B4B4B"/>
<path d="M11.2884 8.7578C11.3778 8.4782 11.6442 8.2664 11.9376 8.2457C12.2583 8.2127 12.5823 8.41521 12.6978 8.71521C12.7635 8.86881 12.7506 9.03862 12.7509 9.20152C12.7509 10.2152 12.7509 11.2286 12.7509 12.2423C13.8408 12.2432 14.9307 12.2408 16.0206 12.2435C16.4211 12.2429 16.7721 12.6122 16.7508 13.0127C16.7496 13.3982 16.4082 13.7432 16.0215 13.742C14.6814 13.7432 13.3413 13.742 12.0012 13.7426C11.6958 13.7486 11.403 13.544 11.2989 13.2578C11.2365 13.1039 11.2521 12.9353 11.2509 12.7736C11.2509 11.5736 11.2512 10.3736 11.2506 9.1736C11.2512 9.0344 11.2413 8.8913 11.2884 8.7578Z" fill="#4B4B4B"/>
<path d="M4.57728 8.68331C4.79598 8.48711 5.16048 8.49101 5.37288 8.69531C5.81898 9.13931 6.26238 9.58571 6.70878 10.0297C6.96828 10.2436 6.98928 10.6741 6.74568 10.9081C6.33078 11.3233 5.91528 11.7382 5.50038 12.1537C5.40978 12.2446 5.32068 12.3457 5.19708 12.3919C4.95738 12.4939 4.65588 12.4162 4.49808 12.208C4.31958 11.9905 4.32828 11.6473 4.51938 11.4406C4.63428 11.3209 4.75428 11.2066 4.87008 11.0881C3.85698 11.0869 2.84388 11.089 1.83078 11.0872C1.62498 11.0878 1.42308 10.9735 1.31958 10.7956C1.20708 10.6126 1.20588 10.3687 1.31658 10.1848C1.42008 10.0027 1.62498 9.88391 1.83468 9.88781C2.84658 9.88751 3.85878 9.88811 4.87068 9.88751C4.74378 9.75461 4.60428 9.63311 4.48518 9.49301C4.29978 9.25271 4.34358 8.87651 4.57728 8.68331Z" fill="#4B4B4B"/>
<path d="M2.99364 11.5698C3.23364 11.4861 3.51864 11.5782 3.66654 11.7843C3.83274 12.0027 3.81834 12.3357 3.63114 12.537C3.51624 12.6561 3.39654 12.7707 3.28044 12.8889C4.29774 12.8898 5.31474 12.8883 6.33174 12.8898C6.61944 12.8886 6.88164 13.1259 6.91254 13.4112C6.95094 13.6725 6.79254 13.9461 6.54714 14.0433C6.41364 14.1015 6.26544 14.0883 6.12384 14.0892C5.17674 14.0892 4.22964 14.0889 3.28284 14.0895C3.41274 14.2281 3.56064 14.3508 3.67854 14.5002C3.83364 14.7192 3.81174 15.0402 3.63054 15.2376C3.41664 15.4902 2.99154 15.5049 2.76234 15.2658C2.30694 14.811 1.85124 14.3562 1.39704 13.9002C1.18314 13.6842 1.17954 13.3047 1.39014 13.0854C1.81884 12.6531 2.25144 12.2247 2.68044 11.7933C2.76924 11.6997 2.86704 11.607 2.99364 11.5698Z" fill="#4B4B4B"/>
<path opacity="0.5" d="M8.25957 1.92708C8.45097 1.89048 8.65587 1.93188 8.81727 2.04108C9.00567 2.16558 9.13197 2.37948 9.14757 2.60508C9.16857 2.84298 9.06567 3.08688 8.88207 3.23898C8.74947 3.35418 8.57457 3.39498 8.41827 3.46548C8.25987 3.53508 8.09697 3.61548 7.91877 3.60198C7.56957 3.59598 7.25367 3.31458 7.20537 2.96928C7.14927 2.64708 7.33287 2.30298 7.63257 2.17158C7.83867 2.08398 8.04207 1.98408 8.25957 1.92708Z" fill="#4B4B4B"/>
<path opacity="0.5" d="M4.90217 4.03571C5.15327 3.96341 5.43977 4.03421 5.62607 4.21811C5.86397 4.44011 5.92427 4.82201 5.76977 5.10791C5.69747 5.24891 5.56877 5.34701 5.46137 5.45951C5.34347 5.57201 5.24117 5.70851 5.08937 5.77811C4.84487 5.90201 4.53287 5.87441 4.31387 5.70941C4.05287 5.52341 3.94007 5.16071 4.04927 4.85921C4.11497 4.65551 4.28657 4.51691 4.42997 4.36841C4.56527 4.23071 4.70807 4.08401 4.90217 4.03571Z" fill="#4B4B4B"/>
<path opacity="0.5" d="M2.70626 7.20971C2.91146 7.16801 3.13316 7.21811 3.30056 7.34411C3.50546 7.49471 3.62306 7.75541 3.59966 8.00861C3.59066 8.16221 3.51356 8.29841 3.45656 8.43761C3.41066 8.54381 3.37526 8.65451 3.32246 8.75771C3.19736 8.99561 2.93366 9.15101 2.66516 9.14951C2.40386 9.15251 2.14646 9.00551 2.01686 8.77841C1.90406 8.58791 1.88216 8.34671 1.96076 8.13971C2.02586 7.96781 2.09606 7.79771 2.17166 7.63031C2.26946 7.41521 2.47436 7.25441 2.70626 7.20971Z" fill="#4B4B4B"/>
<path opacity="0.5" d="M21.2129 14.8527C21.395 14.8239 21.5865 14.8656 21.7407 14.9673C21.9579 15.1065 22.0904 15.3654 22.0781 15.6231C22.0757 15.7797 22.0049 15.9228 21.9482 16.0656C21.8975 16.1844 21.8529 16.3065 21.7911 16.4205C21.6684 16.6398 21.4283 16.7865 21.1772 16.797C20.918 16.812 20.6568 16.6803 20.5158 16.4622C20.376 16.2546 20.3504 15.9756 20.4536 15.7473C20.5193 15.5991 20.5791 15.4485 20.6403 15.2985C20.7366 15.0633 20.9627 14.8911 21.2129 14.8527Z" fill="#4B4B4B"/>
<path opacity="0.5" d="M1.91541 15.5679C1.92051 15.3546 2.02821 15.1542 2.18781 15.0156C2.39061 15.2055 2.58501 15.4047 2.78811 15.5946C2.98821 15.7482 3.26121 15.6951 3.48291 15.6222C3.55701 15.7734 3.61941 15.9378 3.60081 16.1094C3.58221 16.3821 3.40191 16.6356 3.14931 16.7403C2.87331 16.8645 2.52711 16.7952 2.31801 16.5774C2.18811 16.4508 2.13351 16.2732 2.06241 16.1115C1.99281 15.9372 1.90191 15.7611 1.91541 15.5679Z" fill="#4B4B4B"/>
<path opacity="0.5" d="M4.56677 18.1632C4.81427 18.1002 5.09387 18.1707 5.27387 18.3543C5.39777 18.4806 5.52437 18.6045 5.64887 18.7302C5.88107 18.9699 5.91287 19.3698 5.72747 19.6464C5.55707 19.917 5.20217 20.0517 4.89527 19.9602C4.62287 19.8879 4.45517 19.6446 4.25867 19.4622C4.07147 19.2906 3.96587 19.0293 4.00997 18.7761C4.05047 18.4842 4.28117 18.2328 4.56677 18.1632Z" fill="#4B4B4B"/>
<path opacity="0.5" d="M19.0856 18.1559C19.3061 18.11 19.5458 18.1688 19.7183 18.3149C19.9427 18.4976 20.0416 18.8165 19.96 19.0946C19.9138 19.2812 19.7752 19.4216 19.642 19.5515C19.5298 19.6592 19.4275 19.7795 19.2985 19.8677C19.0969 20.0006 18.8297 20.0249 18.6068 19.9325C18.3653 19.8365 18.1843 19.6052 18.1489 19.3481C18.1153 19.1276 18.1843 18.8915 18.34 18.7301C18.4438 18.6239 18.5518 18.5216 18.6547 18.4145C18.7684 18.2879 18.9164 18.1886 19.0856 18.1559Z" fill="#4B4B4B"/>
<path opacity="0.5" d="M7.80571 20.4058C8.09521 20.3377 8.35021 20.515 8.61061 20.6077C8.77471 20.6647 8.92771 20.7655 9.02281 20.914C9.17701 21.1393 9.19231 21.4498 9.05881 21.6883C8.92921 21.9364 8.64931 22.0945 8.37001 22.0807C8.20621 22.0774 8.05741 22.0009 7.90801 21.9424C7.77661 21.8848 7.63801 21.8389 7.51771 21.7588C7.26541 21.5878 7.14001 21.2542 7.21861 20.9593C7.28521 20.6812 7.52461 20.4574 7.80571 20.4058Z" fill="#4B4B4B"/>
<path opacity="0.5" d="M15.8756 20.4108C16.0955 20.3571 16.3376 20.4126 16.5143 20.5539C16.7012 20.7003 16.8095 20.9406 16.7966 21.1776C16.7861 21.4281 16.6397 21.669 16.4204 21.7914C16.2929 21.8595 16.1567 21.909 16.0241 21.966C15.8867 22.0221 15.7454 22.0836 15.5939 22.0791C15.2942 22.0836 15.0047 21.8877 14.8973 21.6078C14.7848 21.3357 14.8538 21.0015 15.0653 20.7969C15.1688 20.688 15.3101 20.6313 15.4478 20.5803C15.5918 20.5275 15.7271 20.451 15.8756 20.4108Z" fill="#4B4B4B"/>
<path opacity="0.5" d="M11.6204 21.2531C11.7548 21.2333 11.891 21.2471 12.026 21.2444C12.1667 21.2453 12.311 21.2297 12.4478 21.2705C12.659 21.3284 12.8393 21.4862 12.9281 21.6863C13.0145 21.875 13.0145 22.1 12.932 22.2902C12.8294 22.532 12.5903 22.7114 12.3281 22.7369C12.1979 22.7492 12.0668 22.7432 11.9366 22.7447C11.774 22.7447 11.6045 22.7504 11.4533 22.6811C11.1521 22.5554 10.958 22.217 11.0078 21.8933C11.0438 21.5762 11.3063 21.3047 11.6204 21.2531Z" fill="#4B4B4B"/>
</svg>
