<svg width="24" height="24" viewBox="0 0 24 24" fill="none" xmlns="http://www.w3.org/2000/svg">
<path d="M11.1368 1.3488C12.3458 1.0388 13.5798 1.4808 14.6178 2.0878C16.2298 3.0258 17.7968 4.0378 19.3848 5.0148C20.1988 5.5458 21.0508 6.0568 21.6878 6.8048C22.2038 7.4158 22.5158 8.1828 22.6238 8.9728C22.7818 10.1088 22.7418 11.2588 22.7488 12.4028C22.7398 14.1028 22.7818 15.8058 22.6798 17.5038C22.6008 18.6588 22.4268 19.8678 21.7538 20.8428C21.2058 21.6358 20.3438 22.1738 19.4168 22.4088C18.1398 22.7378 16.8088 22.7188 15.4998 22.7478C13.1348 22.7488 10.7698 22.7518 8.40473 22.7468C7.00073 22.7138 5.55973 22.7378 4.20973 22.2958C3.11673 21.9438 2.20573 21.0798 1.79873 20.0048C1.34673 18.8268 1.30773 17.5438 1.26773 16.2978C1.23473 14.5988 1.25673 12.8988 1.25073 11.1988C1.26873 10.2148 1.25673 9.2118 1.53073 8.2578C1.73773 7.5198 2.18273 6.8648 2.74873 6.3538C3.46573 5.7138 4.29373 5.2178 5.10473 4.7088C6.15673 4.0578 7.20573 3.4008 8.25973 2.7528C9.17573 2.2078 10.0918 1.6098 11.1368 1.3488ZM11.3328 2.8488C10.5318 3.1078 9.81573 3.5688 9.09773 3.9978C7.76273 4.8268 6.42273 5.6468 5.09673 6.4878C4.43073 6.9338 3.70973 7.3628 3.25473 8.0428C2.78673 8.8048 2.79273 9.7348 2.75973 10.5988C2.73773 12.1988 2.75173 13.7988 2.75173 15.3988C2.78973 16.6708 2.74173 17.9758 3.10873 19.2088C3.31873 19.9918 3.93873 20.6498 4.71673 20.8828C5.87673 21.2478 7.11073 21.2108 8.31373 21.2468C10.6778 21.2548 13.0428 21.2488 15.4068 21.2498C16.5698 21.2258 17.7478 21.2438 18.8908 20.9948C19.5878 20.8458 20.2688 20.4638 20.6238 19.8258C21.0988 18.9658 21.1458 17.9568 21.2068 16.9978C21.2828 15.1348 21.2378 13.2698 21.2508 11.4058C21.2388 10.5728 21.2558 9.7308 21.0888 8.9108C20.9608 8.2538 20.5508 7.6808 20.0258 7.2768C19.1728 6.6028 18.2208 6.0708 17.3058 5.4878C16.0858 4.7418 14.8898 3.9558 13.6388 3.2608C12.9448 2.8818 12.1218 2.5868 11.3328 2.8488Z" fill="#4B4B4B"/>
<path opacity="0.5" d="M11.6441 6.02359C12.2626 5.93987 12.9174 6.07858 13.426 6.44596C14.2032 6.97079 14.6256 7.96671 14.4669 8.89141C14.3507 9.71115 13.7821 10.4484 13.0224 10.7758C12.2164 11.1519 11.2079 11.0445 10.5032 10.5009C9.73842 9.94357 9.3523 8.9214 9.55224 7.99545C9.73842 6.98078 10.6269 6.16355 11.6441 6.02359ZM11.4291 7.18697C10.918 7.41064 10.5532 7.95172 10.5744 8.51404C10.5519 9.27504 11.2542 9.95357 12.0102 9.92483C12.8212 9.95357 13.5234 9.16008 13.4222 8.35909C13.3685 7.42814 12.2689 6.7846 11.4291 7.18697Z" fill="#4B4B4B"/>
<path opacity="0.5" d="M11.2781 15.0678C12.5941 14.7928 14.1668 15.3968 13.9857 16.1068C13.9757 17.0788 13.9956 18.0508 13.9757 19.0218C13.9936 19.5498 13.0341 20.0328 11.9769 20.0078C10.9377 20.0128 9.96615 19.5458 10.006 19.0168C9.998 18.0098 9.998 17.0018 10.006 15.9948C9.99004 15.5898 10.5515 15.2208 11.2781 15.0678Z" fill="#4B4B4B"/>
</svg>
