<svg width="24" height="24" viewBox="0 0 24 24" fill="none" xmlns="http://www.w3.org/2000/svg">
<path d="M11.137 1.349C12.346 1.039 13.58 1.481 14.618 2.088C16.23 3.026 17.797 4.038 19.385 5.015C20.199 5.546 21.051 6.057 21.688 6.805C22.204 7.416 22.516 8.183 22.624 8.973C22.782 10.109 22.742 11.259 22.749 12.403C22.74 14.103 22.782 15.806 22.68 17.504C22.601 18.659 22.427 19.868 21.754 20.843C21.206 21.636 20.344 22.174 19.417 22.409C18.14 22.738 16.809 22.719 15.5 22.748C13.135 22.749 10.77 22.752 8.405 22.747C7.001 22.714 5.56 22.738 4.21 22.296C3.117 21.944 2.206 21.08 1.799 20.005C1.347 18.827 1.308 17.544 1.268 16.298C1.235 14.599 1.257 12.899 1.251 11.199C1.269 10.215 1.257 9.212 1.531 8.258C1.738 7.52 2.183 6.865 2.749 6.354C3.466 5.714 4.294 5.218 5.105 4.709C6.157 4.058 7.206 3.401 8.26 2.753C9.176 2.208 10.092 1.61 11.137 1.349ZM11.333 2.849C10.532 3.108 9.816 3.569 9.098 3.998C7.763 4.827 6.423 5.647 5.097 6.488C4.431 6.934 3.71 7.363 3.255 8.043C2.787 8.805 2.793 9.735 2.76 10.599C2.738 12.199 2.752 13.799 2.752 15.399C2.79 16.671 2.742 17.976 3.109 19.209C3.319 19.992 3.939 20.65 4.717 20.883C5.877 21.248 7.111 21.211 8.314 21.247C10.678 21.255 13.043 21.249 15.407 21.25C16.57 21.226 17.748 21.244 18.891 20.995C19.588 20.846 20.269 20.464 20.624 19.826C21.099 18.966 21.146 17.957 21.207 16.998C21.283 15.135 21.238 13.27 21.251 11.406C21.239 10.573 21.256 9.731 21.089 8.911C20.961 8.254 20.551 7.681 20.026 7.277C19.173 6.603 18.221 6.071 17.306 5.488C16.086 4.742 14.89 3.956 13.639 3.261C12.945 2.882 12.122 2.587 11.333 2.849Z" fill="#4B4B4B"/>
<path opacity="0.5" d="M11.6441 6.02359C12.2626 5.93987 12.9174 6.07858 13.426 6.44596C14.2032 6.97079 14.6256 7.96671 14.4669 8.89141C14.3507 9.71115 13.7821 10.4484 13.0224 10.7758C12.2164 11.1519 11.2079 11.0445 10.5032 10.5009C9.73842 9.94357 9.3523 8.9214 9.55224 7.99545C9.73842 6.98078 10.6269 6.16355 11.6441 6.02359ZM11.4291 7.18697C10.918 7.41064 10.5532 7.95172 10.5744 8.51404C10.5519 9.27504 11.2542 9.95357 12.0102 9.92483C12.8212 9.95357 13.5234 9.16008 13.4222 8.35909C13.3685 7.42814 12.2689 6.7846 11.4291 7.18697Z" fill="#4B4B4B"/>
<path opacity="0.5" d="M11.2781 15.0678C12.5941 14.7928 14.1668 15.3968 13.9857 16.1068C13.9757 17.0788 13.9956 18.0508 13.9757 19.0218C13.9936 19.5498 13.0341 20.0328 11.9769 20.0078C10.9377 20.0128 9.96616 19.5458 10.006 19.0168C9.99801 18.0098 9.99801 17.0018 10.006 15.9948C9.99005 15.5898 10.5515 15.2208 11.2781 15.0678Z" fill="#4B4B4B"/>
</svg>
