<svg width="24" height="24" viewBox="0 0 24 24" fill="none" xmlns="http://www.w3.org/2000/svg">
<g opacity="0.46">
<path opacity="0.5" d="M7.16385 1.27763C8.11216 1.24614 9.06113 1.24997 10.0096 1.24952C10.3742 1.24727 10.7062 1.54867 10.7418 1.91081C10.7863 2.23831 10.5845 2.57683 10.2768 2.69514C10.114 2.76622 9.93364 2.7462 9.76089 2.74867C8.78672 2.75137 7.81187 2.74575 6.83838 2.79186C6.32531 2.81795 5.81135 2.85844 5.30593 2.95359C4.91793 3.02804 4.53127 3.13713 4.18533 3.33259C3.83062 3.5321 3.53259 3.83014 3.33307 4.18485C3.14301 4.52067 3.03504 4.89563 2.96036 5.27216C2.86207 5.7805 2.82046 6.29784 2.79347 6.81428C2.74601 7.7961 2.75186 8.77949 2.74916 9.76198C2.74668 9.93405 2.7667 10.114 2.69562 10.2764C2.57146 10.601 2.20258 10.8045 1.86181 10.7337C1.52036 10.6765 1.24887 10.3558 1.25 10.0094C1.2518 8.88386 1.24235 7.75741 1.30173 6.63321C1.35662 5.71302 1.45064 4.77574 1.80085 3.91448C2.07797 3.22665 2.55549 2.61911 3.16887 2.20075C3.76899 1.78687 4.48066 1.56982 5.19369 1.45015C5.84464 1.34129 6.50481 1.30148 7.16385 1.27763Z" fill="#4B4B4B"/>
<path opacity="0.5" d="M21.8299 13.2634C22.1288 13.1921 22.4603 13.3291 22.6236 13.5889C22.71 13.7205 22.7487 13.8793 22.7438 14.0358C22.7397 15.2124 22.7527 16.3904 22.6787 17.5654C22.6178 18.4449 22.5103 19.3397 22.1587 20.1564C21.8748 20.8222 21.3993 21.4057 20.7977 21.8094C20.1523 22.2458 19.3851 22.4574 18.6219 22.5701C17.722 22.7004 16.811 22.7211 15.9032 22.7354C15.3105 22.7429 14.7176 22.7424 14.1247 22.7431C13.9949 22.7451 13.8617 22.7451 13.7389 22.6977C13.473 22.6032 13.2738 22.3479 13.2497 22.0665C13.2198 21.7943 13.3545 21.5132 13.5848 21.3656C13.6982 21.2912 13.8323 21.2475 13.9681 21.2442C15.1004 21.2388 16.2338 21.2529 17.3648 21.1888C17.8437 21.1591 18.3232 21.1146 18.7938 21.0172C19.1604 20.9401 19.5248 20.8276 19.8489 20.6355C20.1858 20.4364 20.4688 20.1474 20.6605 19.8062C20.8402 19.4884 20.9463 19.1352 21.0206 18.7794C21.1231 18.2769 21.167 17.7645 21.1956 17.2532C21.252 16.1583 21.2396 15.0615 21.2446 13.9657C21.2507 13.6343 21.506 13.3305 21.8299 13.2634Z" fill="#4B4B4B"/>
<path d="M13.8202 1.26997C13.9648 1.23623 14.1141 1.25355 14.2612 1.24928C15.4462 1.25355 16.6331 1.2414 17.8156 1.33228C18.6472 1.40133 19.4915 1.52549 20.2554 1.8784C20.9315 2.18768 21.5132 2.70007 21.8996 3.33572C22.2357 3.8841 22.4224 4.51031 22.5326 5.14011C22.657 5.85651 22.6959 6.58438 22.7193 7.31001C22.7447 8.21692 22.7436 9.12429 22.7415 10.0312C22.7344 10.4172 22.3848 10.7526 21.9995 10.7467C21.6142 10.7593 21.2599 10.4307 21.2449 10.0454C21.2381 8.92028 21.2532 7.79383 21.1913 6.66963C21.1632 6.19863 21.1212 5.72695 21.0303 5.26337C20.954 4.88122 20.8429 4.50086 20.6463 4.16189C20.4477 3.81865 20.156 3.53006 19.8107 3.33482C19.4758 3.14453 19.1013 3.03612 18.7254 2.96122C18.2538 2.86944 17.7742 2.82716 17.2953 2.79949C16.1801 2.73921 15.0629 2.75451 13.9468 2.74731C13.5892 2.73246 13.2752 2.42633 13.2491 2.06982C13.2068 1.70926 13.4666 1.34825 13.8202 1.26997Z" fill="#4B4B4B"/>
<path d="M1.83235 13.2645C2.12678 13.1932 2.45518 13.3234 2.62118 13.5765C2.699 13.6916 2.74467 13.8288 2.74826 13.9683C2.75276 15.041 2.74174 16.1143 2.7937 17.1861C2.82002 17.6884 2.8605 18.1911 2.95362 18.686C3.02538 19.0589 3.1284 19.4305 3.30991 19.7661C3.50808 20.1359 3.81196 20.4481 4.17702 20.6552C4.52678 20.855 4.91929 20.9649 5.31269 21.0403C6.07452 21.1802 6.85098 21.2074 7.62339 21.2279C8.38905 21.2443 9.15471 21.243 9.9206 21.2436C10.1086 21.2322 10.3027 21.2796 10.4523 21.3975C10.7009 21.5819 10.8097 21.9288 10.711 22.2221C10.6197 22.5217 10.323 22.7428 10.0094 22.7428C9.23749 22.7432 8.46575 22.7441 7.69402 22.7293C6.93151 22.7122 6.16697 22.6834 5.41098 22.5763C4.74789 22.4803 4.08435 22.3159 3.49346 21.9911C2.81664 21.6231 2.26039 21.0398 1.92255 20.3477C1.52914 19.5472 1.39936 18.65 1.32873 17.7698C1.23651 16.5125 1.25361 15.2506 1.24956 13.9908C1.24551 13.6518 1.50125 13.3347 1.83235 13.2645Z" fill="#4B4B4B"/>
<path opacity="0.25" d="M16.7822 6.07822C17.1389 6.02939 17.5103 6.09503 17.8277 6.26495C18.1209 6.42685 18.3683 6.67562 18.5158 6.97762C18.6761 7.29503 18.7327 7.66287 18.6775 8.01411C18.6117 8.42658 18.3815 8.80943 18.0523 9.0654C17.8113 9.25793 17.5137 9.37601 17.2079 9.41043C16.7826 9.45726 16.3388 9.33778 16.0021 9.07181C15.4858 8.68635 15.2406 7.98569 15.3881 7.36047C15.5366 6.70524 16.1114 6.16208 16.7822 6.07822Z" fill="#4B4B4B"/>
<path d="M9.68739 9.94808C9.77685 9.87563 9.90674 9.85561 10.011 9.90745C10.1351 9.97069 10.2199 10.086 10.3034 10.1935C10.5265 10.5003 10.7353 10.8171 10.9522 11.1283C11.8668 12.4596 12.7792 13.7927 13.691 15.126C12.8647 16.1626 12.0281 17.1913 11.2116 18.2356C11.1405 18.3153 11.1615 18.455 11.2614 18.5004C9.25971 18.4934 7.25778 18.4982 5.25605 18.4968C5.00609 18.4952 4.75452 18.5034 4.50615 18.4692C4.38868 18.4496 4.25599 18.4173 4.18394 18.3135C4.1169 18.2204 4.1253 18.0953 4.16453 17.9929C4.23077 17.8181 4.33884 17.6636 4.43931 17.5075C6.0748 15.1195 7.71468 12.7348 9.35037 10.347C9.45284 10.2067 9.5489 10.0564 9.68739 9.94808Z" fill="#4B4B4B"/>
<path opacity="0.6" d="M15.0385 13.4415C15.155 13.3117 15.2881 13.1419 15.4832 13.16C15.6783 13.1886 15.798 13.3657 15.9193 13.5032C16.8233 14.6407 17.7291 15.7767 18.6379 16.9104C18.8378 17.164 19.0448 17.4122 19.2359 17.6725C19.332 17.8094 19.4374 17.9527 19.4604 18.1228C19.4789 18.2655 19.371 18.3972 19.2365 18.4331C18.9737 18.5109 18.6951 18.4925 18.4244 18.4967C17.5836 18.4977 16.743 18.4939 15.9023 18.4997C15.0151 18.5117 14.1277 18.5213 13.2405 18.5143C12.6465 18.5145 12.0525 18.5137 11.4585 18.5145C11.3929 18.5135 11.3232 18.5277 11.2612 18.5003C11.1613 18.4549 11.1403 18.3152 11.2114 18.2355C12.0279 17.1912 12.8645 16.1625 13.6908 15.1259C14.1417 14.5659 14.5862 14.0005 15.0385 13.4415Z" fill="#4B4B4B"/>
</g>
</svg>
