<svg width="24" height="24" viewBox="0 0 24 24" fill="none" xmlns="http://www.w3.org/2000/svg">
<path opacity="0.5" d="M7.16357 1.27782C8.11187 1.24633 9.06085 1.25016 10.0094 1.24971C10.374 1.24746 10.706 1.54886 10.7415 1.911C10.7861 2.2385 10.5843 2.57702 10.2766 2.69533C10.1137 2.76641 9.93335 2.74639 9.7606 2.74886C8.78643 2.75156 7.81159 2.74594 6.83809 2.79205C6.32503 2.81814 5.81106 2.85863 5.30565 2.95378C4.91764 3.02823 4.53099 3.13732 4.18505 3.33278C3.83033 3.53229 3.5323 3.83033 3.33279 4.18504C3.14272 4.52086 3.03476 4.89582 2.96008 5.27235C2.86178 5.78069 2.82017 6.29803 2.79318 6.81447C2.74572 7.79629 2.75157 8.77968 2.74887 9.76217C2.7464 9.93424 2.76641 10.1142 2.69534 10.2766C2.57118 10.6012 2.20229 10.8047 1.86152 10.7339C1.52008 10.6767 1.24859 10.356 1.24971 10.0096C1.25151 8.88405 1.24207 7.7576 1.30145 6.6334C1.35633 5.71321 1.45035 4.77593 1.80057 3.91467C2.07768 3.22684 2.55521 2.6193 3.16859 2.20094C3.7687 1.78706 4.48038 1.57001 5.19341 1.45034C5.84435 1.34148 6.50452 1.30167 7.16357 1.27782Z" fill="#4B4B4B"/>
<path opacity="0.5" d="M21.8297 13.2637C22.1286 13.1924 22.4601 13.3293 22.6234 13.5891C22.7098 13.7207 22.7485 13.8795 22.7436 14.0361C22.7395 15.2127 22.7525 16.3906 22.6785 17.5657C22.6176 18.4451 22.5101 19.3399 22.1585 20.1566C21.8746 20.8224 21.3991 21.4059 20.7975 21.8096C20.1521 22.246 19.3849 22.4577 18.6217 22.5703C17.7218 22.7006 16.8108 22.7213 15.903 22.7357C15.3103 22.7431 14.7174 22.7426 14.1245 22.7433C13.9947 22.7453 13.8615 22.7453 13.7387 22.6979C13.4728 22.6034 13.2736 22.3481 13.2495 22.0667C13.2196 21.7946 13.3543 21.5134 13.5846 21.3659C13.698 21.2914 13.8321 21.2478 13.9679 21.2444C15.1002 21.239 16.2336 21.2532 17.3646 21.1891C17.8435 21.1594 18.323 21.1148 18.7936 21.0174C19.1602 20.9403 19.5246 20.8278 19.8487 20.6357C20.1856 20.4367 20.4686 20.1476 20.6603 19.8064C20.84 19.4886 20.9461 19.1354 21.0204 18.7796C21.1229 18.2771 21.1668 17.7647 21.1954 17.2535C21.2518 16.1585 21.2394 15.0617 21.2444 13.9659C21.2505 13.6346 21.5058 13.3307 21.8297 13.2637Z" fill="#4B4B4B"/>
<path d="M13.8204 1.26995C13.965 1.23621 14.1143 1.25353 14.2614 1.24926C15.4464 1.25353 16.6333 1.24139 17.8158 1.33226C18.6474 1.40131 19.4917 1.52547 20.2556 1.87839C20.9317 2.18767 21.5134 2.70006 21.8998 3.33571C22.2359 3.88409 22.4226 4.51029 22.5328 5.1401C22.6572 5.8565 22.6961 6.58437 22.7195 7.30999C22.7449 8.21691 22.7438 9.12428 22.7417 10.0312C22.7346 10.4172 22.385 10.7525 21.9997 10.7467C21.6144 10.7593 21.2601 10.4307 21.2451 10.0454C21.2383 8.92026 21.2534 7.79382 21.1915 6.66962C21.1634 6.19861 21.1214 5.72694 21.0305 5.26336C20.9542 4.8812 20.8431 4.50085 20.6465 4.16188C20.4479 3.81863 20.1562 3.53005 19.8109 3.33481C19.476 3.14452 19.1015 3.0361 18.7256 2.9612C18.254 2.86943 17.7744 2.82714 17.2955 2.79948C16.1803 2.7392 15.0631 2.75449 13.947 2.74729C13.5894 2.73245 13.2754 2.42632 13.2493 2.0698C13.207 1.70924 13.4668 1.34823 13.8204 1.26995Z" fill="#4B4B4B"/>
<path d="M1.83228 13.2643C2.12671 13.193 2.45511 13.3233 2.6211 13.5763C2.69893 13.6915 2.74459 13.8287 2.74819 13.9681C2.75269 15.0408 2.74167 16.1142 2.79363 17.186C2.81994 17.6882 2.86043 18.191 2.95355 18.6858C3.0253 19.0587 3.12832 19.4303 3.30984 19.7659C3.508 20.1357 3.81188 20.4479 4.17694 20.6551C4.52671 20.8548 4.91921 20.9648 5.31261 21.0401C6.07445 21.1801 6.85091 21.2073 7.62332 21.2277C8.38898 21.2442 9.15464 21.2428 9.92052 21.2435C10.1086 21.232 10.3027 21.2795 10.4523 21.3973C10.7008 21.5818 10.8097 21.9286 10.7109 22.2219C10.6196 22.5215 10.3229 22.7426 10.0094 22.7426C9.23741 22.7431 8.46568 22.744 7.69394 22.7291C6.93143 22.7121 6.1669 22.6833 5.41091 22.5762C4.74781 22.4801 4.08427 22.3157 3.49338 21.9909C2.81657 21.6229 2.26032 21.0397 1.92247 20.3476C1.52907 19.5471 1.39929 18.6498 1.32866 17.7697C1.23644 16.5123 1.25353 15.2505 1.24948 13.9906C1.24543 13.6517 1.50118 13.3345 1.83228 13.2643Z" fill="#4B4B4B"/>
<path opacity="0.25" d="M16.7823 6.07817C17.139 6.02934 17.5104 6.09498 17.8278 6.26489C18.121 6.4268 18.3684 6.67557 18.5159 6.97757C18.6762 7.29498 18.7328 7.66282 18.6776 8.01405C18.6117 8.42653 18.3816 8.80938 18.0524 9.06535C17.8114 9.25788 17.5138 9.37596 17.208 9.41038C16.7827 9.45721 16.3388 9.33773 16.0022 9.07176C15.4859 8.6863 15.2407 7.98564 15.3882 7.36042C15.5367 6.70519 16.1115 6.16203 16.7823 6.07817Z" fill="#4B4B4B"/>
<path d="M9.68726 9.94804C9.77672 9.87559 9.9066 9.85558 10.0109 9.90741C10.135 9.97065 10.2198 10.0859 10.3033 10.1934C10.5264 10.5002 10.7352 10.817 10.9521 11.1282C11.8667 12.4595 12.7791 13.7926 13.6909 15.1259C12.8646 16.1626 12.028 17.1912 11.2115 18.2355C11.1404 18.3152 11.1614 18.4549 11.2613 18.5003C9.25957 18.4933 7.25764 18.4981 5.25592 18.4967C5.00595 18.4951 4.75438 18.5033 4.50602 18.4691C4.38854 18.4495 4.25585 18.4173 4.18381 18.3134C4.11676 18.2203 4.12517 18.0952 4.16439 17.9928C4.23064 17.8181 4.33871 17.6636 4.43917 17.5075C6.07466 15.1195 7.71455 12.7347 9.35023 10.3469C9.4527 10.2066 9.54876 10.0563 9.68726 9.94804Z" fill="#4B4B4B"/>
<path opacity="0.6" d="M15.0386 13.4416C15.1551 13.3117 15.2882 13.142 15.4833 13.16C15.6784 13.1886 15.7981 13.3657 15.9194 13.5032C16.8234 14.6408 17.7292 15.7767 18.638 16.9105C18.8379 17.164 19.0449 17.4122 19.236 17.6726C19.3321 17.8095 19.4375 17.9527 19.4605 18.1229C19.479 18.2656 19.3711 18.3972 19.2366 18.4331C18.9738 18.5109 18.6952 18.4925 18.4245 18.4967C17.5837 18.4977 16.7431 18.4939 15.9024 18.4997C15.0152 18.5117 14.1278 18.5213 13.2406 18.5143C12.6466 18.5145 12.0526 18.5137 11.4586 18.5145C11.393 18.5135 11.3233 18.5277 11.2613 18.5003C11.1614 18.4549 11.1404 18.3152 11.2115 18.2355C12.028 17.1912 12.8646 16.1626 13.6909 15.1259C14.1418 14.5659 14.5863 14.0005 15.0386 13.4416Z" fill="#4B4B4B"/>
</svg>
