<svg width="24" height="24" viewBox="0 0 24 24" fill="none" xmlns="http://www.w3.org/2000/svg">
<path d="M6.81327 4.27627C7.34105 3.91618 7.98489 3.72464 8.62448 3.75302C9.23966 3.77686 9.84349 4.00471 10.3267 4.38551C10.55 4.55804 10.7518 4.75695 10.9782 4.92578C11.5055 5.31623 12.2605 5.36333 12.8334 5.04553C13.179 4.85626 13.439 4.55179 13.7571 4.3245C14.324 3.90483 15.0453 3.69854 15.7485 3.76097C16.5991 3.83105 17.4079 4.28393 17.9135 4.97118C18.096 5.2172 18.2418 5.48989 18.3465 5.77762C18.4109 5.95184 18.4521 6.13373 18.5012 6.31278C18.9189 7.88252 19.3294 9.45424 19.7471 11.0243C20.3249 11.0254 20.9029 11.0254 21.4809 11.0268C21.81 11.0325 22.0898 11.3472 22.0595 11.6746C22.0467 11.9856 21.7624 12.2529 21.4511 12.2441C15.2178 12.2441 8.98457 12.2441 2.7513 12.2441C2.59836 12.2427 2.4369 12.2603 2.29531 12.1896C2.03936 12.0784 1.88698 11.7762 1.95281 11.5044C2.00673 11.23 2.27204 11.0183 2.55154 11.0257C3.1199 11.0268 3.68826 11.0245 4.25634 11.0243C4.69844 9.35861 5.13457 7.69127 5.57865 6.0259C5.76621 5.32105 6.20915 4.68629 6.81327 4.27627ZM7.25139 5.47854C7.00338 5.7203 6.82689 6.033 6.74233 6.3684C6.32946 7.91714 5.92369 9.46758 5.51338 11.0166C9.83867 11.0169 14.1642 11.0175 18.4895 11.0149C18.1019 9.55412 17.7194 8.09221 17.331 6.63172C17.2697 6.40784 17.2231 6.17715 17.1122 5.97085C16.8605 5.46492 16.3665 5.0861 15.8075 4.99105C15.3401 4.90876 14.8387 5.02396 14.4605 5.31197C14.1835 5.52422 13.9392 5.7779 13.647 5.97C13.0837 6.34541 12.3896 6.52134 11.7157 6.45409C11.2186 6.40755 10.7365 6.22794 10.3239 5.94759C10.0438 5.76031 9.81058 5.51401 9.54215 5.31169C9.23285 5.07816 8.84325 4.95416 8.45593 4.96608C8.00873 4.97544 7.56806 5.16215 7.25139 5.47854Z" fill="#4B4B4B"/>
<path d="M6.79242 13.8571C7.8383 13.5613 9.02051 13.8394 9.8259 14.5689C10.2831 14.1657 10.8509 13.888 11.4531 13.787C12.4157 13.6182 13.4439 13.9153 14.1702 14.5686C14.5322 14.2522 14.9598 14.0098 15.4218 13.8741C16.2073 13.6397 17.0812 13.7185 17.8123 14.0899C18.7157 14.5413 19.3838 15.4341 19.552 16.4311C19.6748 17.1204 19.5677 17.8484 19.2485 18.4718C18.9813 18.9987 18.5675 19.4505 18.0656 19.7626C17.5146 20.1073 16.8587 20.2793 16.2092 20.2513C15.1633 20.2157 14.157 19.6373 13.5985 18.7524C12.9979 17.8348 12.9224 16.6102 13.3883 15.6196C13.0381 15.2734 12.5588 15.0579 12.0652 15.0454C11.5273 15.0235 10.9875 15.2396 10.6097 15.6219C10.9126 16.279 10.9933 17.0375 10.8258 17.7426C10.6094 18.6859 9.94582 19.5122 9.07291 19.9295C8.33536 20.2896 7.4602 20.3526 6.67828 20.1044C5.77097 19.8257 5.00577 19.126 4.64439 18.2486C4.32995 17.4998 4.31323 16.6321 4.59552 15.8707C4.94886 14.8988 5.79219 14.1223 6.79242 13.8571ZM7.35217 15.0679C6.55 15.1804 5.86357 15.8505 5.73078 16.6491C5.6324 17.1809 5.76808 17.7519 6.09892 18.1802C6.35645 18.5203 6.7294 18.7692 7.14062 18.8817C7.59878 19.009 8.10323 18.9589 8.52763 18.7438C8.91634 18.5521 9.2356 18.2252 9.4195 17.8329C9.62334 17.4069 9.66289 16.9054 9.5301 16.4523C9.38639 15.9649 9.04848 15.5357 8.60222 15.2904C8.22637 15.0788 7.77818 15.0026 7.35217 15.0679ZM16.0359 15.0689C15.2781 15.1782 14.6261 15.7836 14.4467 16.526C14.3065 17.0825 14.4267 17.6998 14.7724 18.1589C15.0232 18.4994 15.3887 18.7521 15.7941 18.8717C16.2439 19.0058 16.7416 18.9679 17.1667 18.7685C17.6126 18.564 17.9743 18.1837 18.1553 17.7278C18.2875 17.3992 18.3306 17.0346 18.272 16.6854C18.1817 16.1012 17.8062 15.5698 17.2869 15.2875C16.9098 15.0776 16.4619 15.0023 16.0359 15.0689Z" fill="#4B4B4B"/>
</svg>
