<svg width="24" height="24" viewBox="0 0 24 24" fill="none" xmlns="http://www.w3.org/2000/svg">
<path opacity="0.5" d="M18.5002 4.15816C18.781 3.86476 19.2526 3.77476 19.6174 3.95896C19.993 4.13836 20.227 4.57096 20.155 4.98376C20.1208 5.20636 19.9996 5.40616 19.8412 5.56216C15.6178 9.78556 11.3938 14.0084 7.17103 18.233C6.71803 18.2294 6.26503 18.2402 5.81203 18.2258C5.78563 17.7698 5.81743 17.3132 5.79883 16.8566C10.0354 12.6266 14.266 8.38996 18.5002 4.15816Z" fill="#4B4B4B"/>
<path d="M3.86514 12.3546C3.85554 11.7858 4.43094 11.3082 4.98774 11.4156C5.44014 11.4798 5.80014 11.9016 5.80254 12.357C5.80914 13.857 5.80314 15.357 5.79834 16.8564C5.81694 17.313 5.78514 17.7696 5.81154 18.2256C6.26454 18.24 6.71754 18.2292 7.17054 18.2328C8.66154 18.2328 10.1519 18.2316 11.6423 18.2334C12.1139 18.2298 12.5393 18.6192 12.5891 19.086C12.6725 19.6314 12.1937 20.1834 11.6405 20.1678C9.36054 20.1666 7.08054 20.1678 4.80054 20.1672C4.29714 20.1708 3.85494 19.7022 3.86274 19.2036C3.86394 16.9206 3.85974 14.6376 3.86514 12.3546Z" fill="#4B4B4B"/>
</svg>
