<svg width="24" height="24" viewBox="0 0 24 24" fill="none" xmlns="http://www.w3.org/2000/svg">
<g clip-path="url(#clip0_35569_35225)">
<mask id="mask0_35569_35225" style="mask-type:luminance" maskUnits="userSpaceOnUse" x="0" y="0" width="24" height="24">
<path d="M24 0H0V24H24V0Z" fill="white"/>
</mask>
<g mask="url(#mask0_35569_35225)">
<mask id="mask1_35569_35225" style="mask-type:luminance" maskUnits="userSpaceOnUse" x="0" y="0" width="24" height="24">
<path d="M24 0H0V24H24V0Z" fill="white"/>
</mask>
<g mask="url(#mask1_35569_35225)">
<path d="M9.69621 0.578376C11.0846 0.565476 12.473 0.569676 13.8614 0.574776C15.3947 0.590676 16.9376 0.594576 18.4538 0.849576C19.5221 1.03228 20.5925 1.40848 21.4145 2.13718C21.8726 2.53858 22.2548 3.02728 22.5287 3.57148C23.0381 4.57378 23.2121 5.70328 23.3117 6.81148C23.4344 8.25748 23.4206 9.71008 23.4302 11.1599C23.4296 12.8102 23.4431 14.4611 23.3801 16.1105C23.3294 17.2079 23.2421 18.3155 22.94 19.3763C22.7018 20.2076 22.2917 21.0029 21.6749 21.617C21.2768 22.0235 20.8046 22.3568 20.2898 22.5989C19.3193 23.0507 18.2483 23.2214 17.1902 23.3114C15.9032 23.4179 14.6105 23.4248 13.3199 23.4299C11.6693 23.4242 10.0181 23.4473 8.36811 23.3975C7.11951 23.3522 5.85621 23.2871 4.64721 22.9469C4.05231 22.7765 3.47691 22.5248 2.97021 22.1672C2.20251 21.6263 1.60701 20.8499 1.26621 19.9757C0.990515 19.2857 0.845615 18.5513 0.754115 17.816C0.586415 16.4138 0.584615 14.999 0.572315 13.589C0.570815 12.1595 0.563915 10.7297 0.582515 9.30028C0.598115 8.37988 0.623015 7.45828 0.713915 6.54178C0.792215 5.78698 0.912815 5.03098 1.16031 4.31128C1.32711 3.82408 1.55631 3.35668 1.85721 2.93788C2.22711 2.42248 2.70411 1.98568 3.24471 1.65448C3.70401 1.37188 4.21131 1.17538 4.72941 1.03168C5.46681 0.829176 6.22881 0.735276 6.98961 0.674676C7.88991 0.605376 8.79351 0.587676 9.69621 0.578376ZM9.37011 2.08198C8.37711 2.09818 7.38201 2.12218 6.39501 2.24008C5.77101 2.31718 5.14491 2.43238 4.55931 2.66848C4.11381 2.84548 3.70341 3.11398 3.37101 3.46018C3.00381 3.83428 2.74731 4.30528 2.57901 4.79878C2.35701 5.44708 2.26131 6.13018 2.19471 6.80938C2.07111 8.21608 2.07771 9.62938 2.07021 11.0402C2.07141 12.2396 2.06571 13.439 2.08191 14.6384C2.09421 15.4298 2.11371 16.2218 2.17911 17.0111C2.23461 17.6555 2.31561 18.3017 2.49201 18.9257C2.60271 19.307 2.74611 19.6832 2.96181 20.0186C3.22161 20.4281 3.56961 20.783 3.98181 21.0392C4.48041 21.3518 5.05161 21.5267 5.62521 21.6404C6.38151 21.7895 7.15251 21.8441 7.92111 21.8795C9.39981 21.9443 10.88 21.9269 12.3596 21.9299C13.8908 21.9275 15.4247 21.941 16.9529 21.8261C17.6879 21.764 18.4286 21.6764 19.1321 21.4451C19.5032 21.3233 19.8644 21.1616 20.1806 20.9303C20.5865 20.6378 20.9276 20.2532 21.1601 19.8098C21.4196 19.3232 21.5666 18.7853 21.665 18.245C21.7862 17.5676 21.8426 16.8806 21.875 16.1936C21.938 14.7569 21.9278 13.3187 21.9323 11.8808C21.9215 10.3511 21.9443 8.81908 21.8453 7.29148C21.7919 6.58558 21.7199 5.87638 21.5402 5.18998C21.4223 4.74628 21.2564 4.31068 21.0032 3.92578C20.6906 3.45478 20.2568 3.06268 19.7498 2.81128C19.2227 2.53978 18.6398 2.39908 18.0578 2.30398C16.6601 2.08918 15.2417 2.09008 13.8314 2.07448C12.3443 2.06968 10.8572 2.06458 9.37011 2.08198Z" fill="#4B4B4B"/>
<path opacity="0.5" d="M9.69735 2.65006C10.9648 2.63476 12.2326 2.64016 13.5004 2.64256C14.4715 2.65096 15.4438 2.65576 16.4122 2.73556C16.9861 2.78296 17.5603 2.85436 18.1186 2.99926C18.5428 3.11086 18.9598 3.26536 19.3345 3.49606C19.7836 3.77176 20.1736 4.14586 20.4571 4.59076C20.7241 5.00296 20.8981 5.46886 21.0169 5.94346C21.1744 6.58066 21.2437 7.23556 21.2875 7.88956C21.3751 9.31756 21.3556 10.7491 21.3601 12.1789C21.3562 13.6039 21.3733 15.0313 21.2614 16.4533C21.1987 17.2036 21.0931 17.9599 20.8267 18.6685C20.5519 19.4242 20.023 20.0896 19.3327 20.5057C18.8959 20.7694 18.4084 20.9395 17.9125 21.0514C17.3008 21.1888 16.675 21.2497 16.0504 21.2905C15.1321 21.3496 14.2114 21.3529 13.2913 21.3577C11.8108 21.3586 10.33 21.3721 8.84985 21.3316C8.09745 21.3073 7.34325 21.2671 6.59865 21.1495C6.01305 21.0541 5.42835 20.9071 4.89795 20.6344C4.18275 20.272 3.60345 19.6558 3.27945 18.9229C3.04425 18.4045 2.91525 17.8447 2.83275 17.2834C2.71635 16.4872 2.68095 15.682 2.66055 14.8786C2.63895 13.9594 2.64015 13.0402 2.64015 12.121C2.64375 10.732 2.62725 9.34156 2.70855 7.95436C2.75325 7.25746 2.82465 6.55846 2.99895 5.88046C3.12405 5.39986 3.31065 4.93096 3.59025 4.51816C3.86745 4.11166 4.23075 3.76366 4.65015 3.50566C5.49525 2.98906 6.49905 2.83606 7.46895 2.74546C8.20995 2.68036 8.95395 2.66116 9.69735 2.65006ZM11.8576 7.62916C11.7358 7.64956 11.6179 7.69486 11.5153 7.76416C11.1544 7.99516 11.0119 8.50576 11.2162 8.88586C11.3998 9.27286 11.8885 9.47596 12.2905 9.32026C12.6976 9.18856 12.9574 8.72956 12.8566 8.31256C12.7765 7.86436 12.3025 7.54666 11.8576 7.62916ZM11.833 10.4872C11.56 10.555 11.3464 10.8181 11.3443 11.1004C11.3425 12.8602 11.3407 14.6203 11.3425 16.3801C11.3425 16.5169 11.3854 16.6534 11.4655 16.7644C11.6119 16.9744 11.8888 17.0812 12.1384 17.0251C12.3646 16.9798 12.5545 16.8022 12.6262 16.5847C12.6694 16.4608 12.6538 16.3279 12.6562 16.1995C12.6565 14.5897 12.6592 12.9802 12.658 11.3704C12.6562 11.1922 12.6772 11.0029 12.5926 10.8385C12.4657 10.5598 12.1276 10.4047 11.833 10.4872Z" fill="#4B4B4B"/>
</g>
</g>
</g>
<defs>
<clipPath id="clip0_35569_35225">
<rect width="24" height="24" fill="white"/>
</clipPath>
</defs>
</svg>
