<svg width="24" height="24" viewBox="0 0 24 24" fill="none" xmlns="http://www.w3.org/2000/svg">
<path d="M11.918 7.00479C12.4172 6.95259 12.9104 7.33389 12.9851 7.83009C13.0766 8.29749 12.7805 8.79729 12.3293 8.94579C11.8949 9.10749 11.3684 8.91339 11.1392 8.51169C10.9484 8.19729 10.9541 7.77639 11.1539 7.46769C11.3177 7.20489 11.6093 7.02759 11.918 7.00479Z" fill="#4B4B4B"/>
<path d="M11.8028 10.2791C12.2285 10.148 12.7124 10.4774 12.7457 10.9208C12.7574 11.3012 12.7475 11.6822 12.7508 12.0632C12.7505 13.7135 12.7514 15.3641 12.7505 17.0147C12.7553 17.411 12.3977 17.7641 12.0011 17.7533C11.6045 17.7635 11.2469 17.4116 11.2511 17.015C11.2502 15.0644 11.2511 13.1141 11.2508 11.1638C11.2502 11.0285 11.2427 10.8884 11.2913 10.7594C11.369 10.5275 11.567 10.343 11.8028 10.2791Z" fill="#4B4B4B"/>
</svg>
