<svg width="24" height="24" viewBox="0 0 24 24" fill="none" xmlns="http://www.w3.org/2000/svg">
<g clip-path="url(#clip0_27038_11335)">
<path d="M11.7087 0.253798C13.3146 0.213598 14.9292 0.503398 16.4175 1.1094C18.3981 1.9101 20.1477 3.2676 21.4236 4.9803C22.7793 6.7866 23.5863 8.9946 23.7276 11.2479C23.8767 13.5267 23.3439 15.8454 22.2072 17.8266C21.207 19.5774 19.7487 21.0621 18.0171 22.0953C16.0737 23.2626 13.785 23.8368 11.5209 23.7408C9.3222 23.6586 7.1535 22.9359 5.3442 21.6846C3.6594 20.5272 2.283 18.924 1.4025 17.0787C0.7653 15.7545 0.3807 14.3088 0.2799 12.8424C0.1161 10.6011 0.6096 8.3154 1.6968 6.348C2.6289 4.6494 3.9885 3.1887 5.6145 2.1357C7.4193 0.959998 9.5556 0.302098 11.7087 0.253798ZM11.7117 1.7541C9.786 1.803 7.8771 2.4123 6.282 3.4929C4.5213 4.6734 3.1422 6.4131 2.4003 8.3991C1.9452 9.6096 1.7262 10.9074 1.752 12.2001C1.7769 13.6716 2.1258 15.1362 2.7693 16.4598C3.2271 17.4093 3.8334 18.2865 4.5597 19.0503C5.9952 20.5704 7.9059 21.6375 9.9573 22.0473C12.2466 22.5129 14.6943 22.1751 16.761 21.0807C18.5265 20.1546 20.0112 18.7029 20.9751 16.9572C21.5667 15.8877 21.963 14.7111 22.1418 13.5021C22.4787 11.2479 22.0371 8.8863 20.9001 6.9102C19.8459 5.0685 18.2082 3.5664 16.2783 2.6829C14.8551 2.0259 13.278 1.7094 11.7117 1.7541Z" fill="#4B4B4B"/>
<path opacity="0.5" d="M11.325 2.5734C12.9378 2.4585 14.5803 2.76 16.041 3.4554C17.7516 4.263 19.2063 5.5983 20.1606 7.2312C20.7531 8.2428 21.1521 9.3663 21.3354 10.524C21.5418 11.8404 21.4707 13.2009 21.1182 14.4867C20.6301 16.2999 19.5783 17.9532 18.1518 19.1727C17.3643 19.8495 16.4652 20.3967 15.5004 20.7807C13.2657 21.6777 10.6854 21.6732 8.4555 20.7627C6.6276 20.0262 5.0457 18.699 3.9987 17.0298C3.3681 16.0275 2.9253 14.9064 2.7105 13.7415C2.3118 11.6235 2.6601 9.3696 3.6996 7.4799C4.6491 5.7354 6.1608 4.3017 7.9587 3.456C9.0135 2.9574 10.1607 2.6538 11.325 2.5734ZM11.8017 7.7277C11.3508 7.8219 11.0487 8.3166 11.1633 8.7615C11.2593 9.2283 11.7876 9.5325 12.2409 9.39C12.6837 9.2721 12.9657 8.7585 12.8253 8.322C12.7104 7.8963 12.2295 7.6134 11.8017 7.7277ZM11.8317 10.5183C11.6418 10.5693 11.4789 10.7115 11.4045 10.8939C11.3427 11.0343 11.3562 11.1912 11.355 11.3409C11.3571 13.0002 11.3526 14.6592 11.3571 16.3182C11.3601 16.5762 11.5407 16.8189 11.784 16.9023C12.0132 16.9866 12.288 16.9251 12.4575 16.7484C12.5871 16.6218 12.6513 16.4391 12.645 16.2594C12.645 14.5599 12.645 12.8601 12.645 11.1603C12.6495 10.9611 12.5604 10.7607 12.4023 10.6377C12.246 10.509 12.0264 10.4658 11.8317 10.5183Z" fill="#4B4B4B"/>
</g>
<defs>
<clipPath id="clip0_27038_11335">
<rect width="24" height="24" fill="white"/>
</clipPath>
</defs>
</svg>
