<svg width="24" height="24" viewBox="0 0 24 24" fill="none" xmlns="http://www.w3.org/2000/svg">
<path d="M8.83145 1.27379C10.3171 1.23809 11.803 1.25429 13.2886 1.25039C14.7199 1.26239 16.1566 1.25669 17.5789 1.43849C18.6313 1.57769 19.7035 1.85729 20.5663 2.50259C21.3451 3.07319 21.9097 3.90659 22.2076 4.82039C22.603 6.02159 22.6696 7.29719 22.7182 8.55119C22.7653 10.1205 22.7449 11.6907 22.7497 13.2603C22.7395 14.6307 22.7422 16.0053 22.5877 17.3691C22.4695 18.3669 22.2481 19.3809 21.7144 20.2461C21.2368 21.0252 20.5135 21.6471 19.6771 22.0137C18.6886 22.4508 17.6011 22.5861 16.5328 22.6644C14.9248 22.7691 13.3123 22.7448 11.7016 22.7493C10.1854 22.7457 8.66645 22.7616 7.15385 22.6404C6.10295 22.548 5.03195 22.3812 4.08125 21.8985C3.18695 21.4467 2.45435 20.6874 2.03315 19.7784C1.56575 18.7821 1.42205 17.6736 1.33925 16.5873C1.27655 15.6996 1.26185 14.8098 1.25465 13.9203C1.24775 12.7299 1.24985 11.5398 1.25255 10.3494C1.25765 9.56579 1.26665 8.78159 1.30415 7.99859C1.34285 7.23689 1.40405 6.47399 1.55405 5.72549C1.68425 5.07899 1.88615 4.43999 2.21795 3.86729C2.63165 3.14789 3.24935 2.54789 3.98015 2.15519C4.58555 1.82639 5.25575 1.63559 5.93105 1.51469C6.88805 1.34639 7.86155 1.30139 8.83145 1.27379ZM8.86055 2.77379C8.12495 2.79389 7.38785 2.82659 6.65735 2.92049C6.10265 2.99399 5.54705 3.10229 5.02745 3.31559C4.59845 3.49199 4.20275 3.75599 3.89255 4.10249C3.57065 4.45349 3.34805 4.88519 3.20225 5.33639C3.00935 5.92889 2.92325 6.54989 2.86445 7.16819C2.74985 8.47559 2.75675 9.78929 2.75075 11.1003C2.75255 12.3003 2.74445 13.5003 2.76425 14.7003C2.77865 15.4509 2.80175 16.2024 2.87555 16.95C2.93705 17.5452 3.02615 18.1425 3.21815 18.7113C3.35885 19.131 3.56825 19.5315 3.86255 19.8642C4.14275 20.1846 4.49345 20.4408 4.87955 20.6187C5.41025 20.8644 5.98865 20.9853 6.56495 21.0669C7.32575 21.1707 8.09405 21.2049 8.86115 21.2262C10.3075 21.2607 11.7544 21.2457 13.201 21.2493C14.5336 21.2388 15.8704 21.2463 17.1964 21.0975C17.8234 21.0216 18.4543 20.9079 19.0372 20.6565C19.4998 20.4573 19.9174 20.1495 20.2303 19.7535C20.5537 19.3503 20.755 18.8637 20.8858 18.3672C21.0451 17.757 21.1156 17.1279 21.1633 16.5003C21.2575 15.1317 21.2461 13.7589 21.2494 12.3879C21.2455 10.878 21.2659 9.36719 21.1864 7.85879C21.1477 7.20269 21.0895 6.54509 20.9503 5.90159C20.8438 5.41559 20.686 4.93319 20.4181 4.51079C20.1394 4.06769 19.741 3.70259 19.2781 3.45929C18.8071 3.21089 18.286 3.07589 17.7643 2.98409C17.1091 2.87189 16.4446 2.82539 15.7813 2.79539C14.8912 2.75789 14.0005 2.75399 13.1098 2.75069C11.6935 2.75399 10.2769 2.73959 8.86055 2.77379Z" fill="#4B4B4B"/>
<path opacity="0.5" d="M11.9209 7.00483C12.442 6.94993 12.9514 7.37053 12.9952 7.89283C13.0651 8.40763 12.6667 8.92363 12.1528 8.99053C11.6824 9.07303 11.1865 8.76493 11.0488 8.30863C10.9078 7.89343 11.0818 7.40023 11.4523 7.16593C11.5909 7.07263 11.7547 7.01893 11.9209 7.00483Z" fill="#4B4B4B"/>
<path opacity="0.5" d="M11.8017 10.2794C12.2268 10.1477 12.7107 10.4759 12.7455 10.919C12.7575 11.3204 12.747 11.7227 12.7506 12.1244C12.7503 13.7549 12.7512 15.3854 12.75 17.0159C12.7491 17.2682 12.6078 17.5133 12.3918 17.6432C12.1332 17.8067 11.7753 17.7848 11.5374 17.5931C11.3526 17.4503 11.244 17.2169 11.2503 16.9835C11.2515 14.9825 11.2494 12.9815 11.2512 10.9805C11.2545 10.6589 11.4915 10.361 11.8017 10.2794Z" fill="#4B4B4B"/>
</svg>
