<svg width="24" height="24" viewBox="0 0 24 24" fill="none" xmlns="http://www.w3.org/2000/svg">
<path d="M8.8314 1.27379C10.317 1.23809 11.8029 1.25429 13.2885 1.25039C14.7198 1.26239 16.1565 1.25669 17.5788 1.43849C18.6312 1.57769 19.7034 1.85729 20.5662 2.50259C21.345 3.07319 21.9096 3.90659 22.2075 4.82039C22.6029 6.02159 22.6695 7.29719 22.7181 8.55119C22.7652 10.1205 22.7448 11.6907 22.7496 13.2603C22.7394 14.6307 22.7421 16.0053 22.5876 17.3691C22.4694 18.3669 22.248 19.3809 21.7143 20.2461C21.2367 21.0252 20.5134 21.6471 19.677 22.0137C18.6885 22.4508 17.601 22.5861 16.5327 22.6644C14.9247 22.7691 13.3122 22.7448 11.7015 22.7493C10.1853 22.7457 8.6664 22.7616 7.1538 22.6404C6.1029 22.548 5.0319 22.3812 4.0812 21.8985C3.1869 21.4467 2.4543 20.6874 2.0331 19.7784C1.5657 18.7821 1.422 17.6736 1.3392 16.5873C1.2765 15.6996 1.2618 14.8098 1.2546 13.9203C1.2477 12.7299 1.2498 11.5398 1.2525 10.3494C1.2576 9.56579 1.2666 8.78159 1.3041 7.99859C1.3428 7.23689 1.404 6.47399 1.554 5.72549C1.6842 5.07899 1.8861 4.43999 2.2179 3.86729C2.6316 3.14789 3.2493 2.54789 3.9801 2.15519C4.5855 1.82639 5.2557 1.63559 5.931 1.51469C6.888 1.34639 7.8615 1.30139 8.8314 1.27379ZM8.8605 2.77379C8.1249 2.79389 7.3878 2.82659 6.6573 2.92049C6.1026 2.99399 5.547 3.10229 5.0274 3.31559C4.5984 3.49199 4.2027 3.75599 3.8925 4.10249C3.5706 4.45349 3.348 4.88519 3.2022 5.33639C3.0093 5.92889 2.9232 6.54989 2.8644 7.16819C2.7498 8.47559 2.7567 9.78929 2.7507 11.1003C2.7525 12.3003 2.7444 13.5003 2.7642 14.7003C2.7786 15.4509 2.8017 16.2024 2.8755 16.95C2.937 17.5452 3.0261 18.1425 3.2181 18.7113C3.3588 19.131 3.5682 19.5315 3.8625 19.8642C4.1427 20.1846 4.4934 20.4408 4.8795 20.6187C5.4102 20.8644 5.9886 20.9853 6.5649 21.0669C7.3257 21.1707 8.094 21.2049 8.8611 21.2262C10.3074 21.2607 11.7543 21.2457 13.2009 21.2493C14.5335 21.2388 15.8703 21.2463 17.1963 21.0975C17.8233 21.0216 18.4542 20.9079 19.0371 20.6565C19.4997 20.4573 19.9173 20.1495 20.2302 19.7535C20.5536 19.3503 20.7549 18.8637 20.8857 18.3672C21.045 17.757 21.1155 17.1279 21.1632 16.5003C21.2574 15.1317 21.246 13.7589 21.2493 12.3879C21.2454 10.878 21.2658 9.36719 21.1863 7.85879C21.1476 7.20269 21.0894 6.54509 20.9502 5.90159C20.8437 5.41559 20.6859 4.93319 20.418 4.51079C20.1393 4.06769 19.7409 3.70259 19.278 3.45929C18.807 3.21089 18.2859 3.07589 17.7642 2.98409C17.109 2.87189 16.4445 2.82539 15.7812 2.79539C14.8911 2.75789 14.0004 2.75399 13.1097 2.75069C11.6934 2.75399 10.2768 2.73959 8.8605 2.77379Z" fill="#4B4B4B"/>
<path opacity="0.5" d="M11.9209 7.00483C12.442 6.94993 12.9514 7.37053 12.9952 7.89283C13.0651 8.40763 12.6667 8.92363 12.1528 8.99053C11.6824 9.07303 11.1865 8.76493 11.0488 8.30863C10.9078 7.89343 11.0818 7.40023 11.4523 7.16593C11.5909 7.07263 11.7547 7.01893 11.9209 7.00483Z" fill="#4B4B4B"/>
<path opacity="0.5" d="M11.8017 10.2794C12.2268 10.1477 12.7107 10.4759 12.7455 10.919C12.7575 11.3204 12.747 11.7227 12.7506 12.1244C12.7503 13.7549 12.7512 15.3854 12.75 17.0159C12.7491 17.2682 12.6078 17.5133 12.3918 17.6432C12.1332 17.8067 11.7753 17.7848 11.5374 17.5931C11.3526 17.4503 11.244 17.2169 11.2503 16.9835C11.2515 14.9825 11.2494 12.9815 11.2512 10.9805C11.2545 10.6589 11.4915 10.361 11.8017 10.2794Z" fill="#4B4B4B"/>
</svg>
