<svg width="24" height="24" viewBox="0 0 24 24" fill="none" xmlns="http://www.w3.org/2000/svg">
<path d="M11.172 1.2817C12.8199 1.1551 14.4972 1.4083 16.029 2.0311C17.9571 2.8072 19.6458 4.1605 20.8305 5.8675C22.0779 7.6513 22.7574 9.8236 22.7496 12.0004C22.7571 14.1412 22.1004 16.2775 20.8914 18.0439C19.7256 19.7611 18.0531 21.1294 16.1361 21.9259C13.9611 22.8385 11.4828 22.9972 9.20641 22.3837C7.27231 21.868 5.49421 20.7922 4.13251 19.3258C2.60431 17.6932 1.60651 15.5722 1.33411 13.3516C1.15711 11.9377 1.25941 10.4881 1.64161 9.115C2.27431 6.8188 3.70321 4.7554 5.62201 3.346C7.22911 2.1544 9.17671 1.4293 11.172 1.2817ZM11.2323 2.7817C9.51811 2.9188 7.84831 3.5518 6.47251 4.5829C4.97941 5.6938 3.83281 7.2643 3.23791 9.0283C2.79721 10.3249 2.65411 11.7202 2.81251 13.0801C2.95651 14.3314 3.36271 15.5515 3.99601 16.6399C4.98601 18.3514 6.53911 19.7299 8.35801 20.5057C10.4529 21.4102 12.8856 21.493 15.039 20.7394C16.0581 20.3851 17.0136 19.8499 17.8488 19.1671C19.299 17.9854 20.3802 16.3558 20.8926 14.5555C21.2616 13.2709 21.345 11.9062 21.1425 10.5853C20.9727 9.4726 20.5944 8.3929 20.0361 7.4158C19.092 5.7595 17.6238 4.4077 15.8931 3.6073C14.4468 2.9317 12.8223 2.6497 11.2323 2.7817Z" fill="#4B4B4B"/>
<path opacity="0.5" d="M11.9179 7.0048C12.4162 6.9526 12.9085 7.3327 12.9847 7.8277C13.0774 8.296 12.781 8.7973 12.3286 8.9461C11.8792 9.1138 11.3341 8.8981 11.1166 8.4721C10.8919 8.0671 11.0011 7.516 11.3647 7.2289C11.5204 7.0999 11.7163 7.021 11.9179 7.0048Z" fill="#4B4B4B"/>
<path opacity="0.5" d="M11.8014 10.2794C12.2268 10.1477 12.711 10.4762 12.7452 10.9196C12.7569 11.2805 12.747 11.642 12.7503 12.0032C12.75 13.6736 12.7509 15.3443 12.75 17.015C12.7545 17.411 12.3975 17.7635 12.0015 17.7533C11.6037 17.7641 11.2455 17.4107 11.2506 17.0132C11.2497 15.0128 11.2506 13.0127 11.2503 11.0123C11.2404 10.6799 11.4801 10.3631 11.8014 10.2794Z" fill="#4B4B4B"/>
</svg>
