<svg width="24" height="24" viewBox="0 0 24 24" fill="none" xmlns="http://www.w3.org/2000/svg">
<g clip-path="url(#clip0_27038_11337)">
<path d="M9.696 0.578376C11.0844 0.565476 12.4728 0.569676 13.8612 0.574776C15.3945 0.590676 16.9374 0.594576 18.4536 0.849576C19.5219 1.03228 20.5923 1.40848 21.4143 2.13718C21.8724 2.53858 22.2546 3.02728 22.5285 3.57148C23.0379 4.57378 23.2119 5.70328 23.3115 6.81148C23.4342 8.25748 23.4204 9.71008 23.43 11.16C23.4294 12.8103 23.4429 14.4612 23.3799 16.1106C23.3292 17.208 23.2419 18.3156 22.9398 19.3764C22.7016 20.2077 22.2915 21.003 21.6747 21.6171C21.2766 22.0236 20.8044 22.3569 20.2896 22.599C19.3191 23.0508 18.2481 23.2215 17.19 23.3115C15.903 23.418 14.6103 23.4249 13.3197 23.43C11.6691 23.4243 10.0179 23.4474 8.3679 23.3976C7.1193 23.3523 5.856 23.2872 4.647 22.947C4.0521 22.7766 3.4767 22.5249 2.97 22.1673C2.2023 21.6264 1.6068 20.85 1.266 19.9758C0.990301 19.2858 0.845401 18.5514 0.753901 17.8161C0.586201 16.4139 0.584401 14.9991 0.572101 13.5891C0.570601 12.1596 0.563701 10.7298 0.582301 9.30028C0.597901 8.37988 0.622801 7.45828 0.713701 6.54178C0.792001 5.78698 0.912601 5.03098 1.1601 4.31128C1.3269 3.82408 1.5561 3.35668 1.857 2.93788C2.2269 2.42248 2.7039 1.98568 3.2445 1.65448C3.7038 1.37188 4.2111 1.17538 4.7292 1.03168C5.4666 0.829176 6.2286 0.735276 6.9894 0.674676C7.8897 0.605376 8.7933 0.587676 9.696 0.578376ZM9.3699 2.08198C8.3769 2.09818 7.3818 2.12218 6.3948 2.24008C5.7708 2.31718 5.1447 2.43238 4.5591 2.66848C4.1136 2.84548 3.7032 3.11398 3.3708 3.46018C3.0036 3.83428 2.7471 4.30528 2.5788 4.79878C2.3568 5.44708 2.2611 6.13018 2.1945 6.80938C2.0709 8.21608 2.0775 9.62938 2.07 11.0403C2.0712 12.2397 2.0655 13.4391 2.0817 14.6385C2.094 15.4299 2.1135 16.2219 2.1789 17.0112C2.2344 17.6556 2.3154 18.3018 2.4918 18.9258C2.6025 19.3071 2.7459 19.6833 2.9616 20.0187C3.2214 20.4282 3.5694 20.7831 3.9816 21.0393C4.4802 21.3519 5.0514 21.5268 5.625 21.6405C6.3813 21.7896 7.1523 21.8442 7.9209 21.8796C9.3996 21.9444 10.8798 21.927 12.3594 21.93C13.8906 21.9276 15.4245 21.9411 16.9527 21.8262C17.6877 21.7641 18.4284 21.6765 19.1319 21.4452C19.503 21.3234 19.8642 21.1617 20.1804 20.9304C20.5863 20.6379 20.9274 20.2533 21.1599 19.8099C21.4194 19.3233 21.5664 18.7854 21.6648 18.2451C21.786 17.5677 21.8424 16.8807 21.8748 16.1937C21.9378 14.757 21.9276 13.3188 21.9321 11.8809C21.9213 10.3512 21.9441 8.81908 21.8451 7.29148C21.7917 6.58558 21.7197 5.87638 21.54 5.18998C21.4221 4.74628 21.2562 4.31068 21.003 3.92578C20.6904 3.45478 20.2566 3.06268 19.7496 2.81128C19.2225 2.53978 18.6396 2.39908 18.0576 2.30398C16.6599 2.08918 15.2415 2.09008 13.8312 2.07448C12.3441 2.06968 10.857 2.06458 9.3699 2.08198Z" fill="#4B4B4B"/>
<path opacity="0.5" d="M9.6972 2.65018C10.9647 2.63488 12.2325 2.64028 13.5003 2.64268C14.4714 2.65108 15.4437 2.65588 16.4121 2.73568C16.986 2.78308 17.5602 2.85448 18.1185 2.99938C18.5427 3.11098 18.9597 3.26548 19.3344 3.49618C19.7835 3.77188 20.1735 4.14598 20.457 4.59088C20.724 5.00308 20.898 5.46898 21.0168 5.94358C21.1743 6.58078 21.2436 7.23568 21.2874 7.88968C21.375 9.31768 21.3555 10.7493 21.36 12.1791C21.3561 13.6041 21.3732 15.0315 21.2613 16.4535C21.1986 17.2038 21.093 17.9601 20.8266 18.6687C20.5518 19.4244 20.0229 20.0898 19.3326 20.5059C18.8958 20.7696 18.4083 20.9397 17.9124 21.0516C17.3007 21.189 16.6749 21.2499 16.0503 21.2907C15.132 21.3498 14.2113 21.3531 13.2912 21.3579C11.8107 21.3588 10.3299 21.3723 8.8497 21.3318C8.0973 21.3075 7.3431 21.2673 6.5985 21.1497C6.0129 21.0543 5.4282 20.9073 4.8978 20.6346C4.1826 20.2722 3.6033 19.656 3.2793 18.9231C3.0441 18.4047 2.9151 17.8449 2.8326 17.2836C2.7162 16.4874 2.6808 15.6822 2.6604 14.8788C2.6388 13.9596 2.64 13.0404 2.64 12.1212C2.6436 10.7322 2.6271 9.34168 2.7084 7.95448C2.7531 7.25758 2.8245 6.55858 2.9988 5.88058C3.1239 5.39998 3.3105 4.93108 3.5901 4.51828C3.8673 4.11178 4.2306 3.76378 4.65 3.50578C5.4951 2.98918 6.4989 2.83618 7.4688 2.74558C8.2098 2.68048 8.9538 2.66128 9.6972 2.65018ZM11.8575 7.62928C11.7357 7.64968 11.6178 7.69498 11.5152 7.76428C11.1543 7.99528 11.0118 8.50588 11.2161 8.88598C11.3997 9.27298 11.8884 9.47608 12.2904 9.32038C12.6975 9.18868 12.9573 8.72968 12.8565 8.31268C12.7764 7.86448 12.3024 7.54678 11.8575 7.62928ZM11.8329 10.4874C11.5599 10.5552 11.3463 10.8183 11.3442 11.1006C11.3424 12.8604 11.3406 14.6205 11.3424 16.3803C11.3424 16.5171 11.3853 16.6536 11.4654 16.7646C11.6118 16.9746 11.8887 17.0814 12.1383 17.0253C12.3645 16.98 12.5544 16.8024 12.6261 16.5849C12.6693 16.461 12.6537 16.3281 12.6561 16.1997C12.6564 14.5899 12.6591 12.9804 12.6579 11.3706C12.6561 11.1924 12.6771 11.0031 12.5925 10.8387C12.4656 10.56 12.1275 10.4049 11.8329 10.4874Z" fill="#4B4B4B"/>
</g>
<defs>
<clipPath id="clip0_27038_11337">
<rect width="24" height="24" fill="white"/>
</clipPath>
</defs>
</svg>
