<svg width="24" height="24" viewBox="0 0 24 24" fill="none" xmlns="http://www.w3.org/2000/svg">
<g clip-path="url(#clip0_35569_35234)">
<mask id="mask0_35569_35234" style="mask-type:luminance" maskUnits="userSpaceOnUse" x="0" y="0" width="24" height="24">
<path d="M24 0H0V24H24V0Z" fill="white"/>
</mask>
<g mask="url(#mask0_35569_35234)">
<mask id="mask1_35569_35234" style="mask-type:luminance" maskUnits="userSpaceOnUse" x="0" y="0" width="24" height="24">
<path d="M24 0H0V24H24V0Z" fill="white"/>
</mask>
<g mask="url(#mask1_35569_35234)">
<path d="M11.7086 0.253676C13.3145 0.213476 14.9291 0.503276 16.4174 1.10928C18.398 1.90998 20.1476 3.26748 21.4235 4.98018C22.7792 6.78648 23.5862 8.99448 23.7275 11.2478C23.8766 13.5266 23.3438 15.8453 22.2071 17.8265C21.2069 19.5773 19.7486 21.062 18.017 22.0952C16.0736 23.2625 13.7849 23.8367 11.5208 23.7407C9.32206 23.6585 7.15336 22.9358 5.34406 21.6845C3.65926 20.5271 2.28286 18.9239 1.40236 17.0786C0.765162 15.7544 0.380562 14.3087 0.279762 12.8423C0.115962 10.601 0.609462 8.31528 1.69666 6.34788C2.62876 4.64928 3.98836 3.18858 5.61436 2.13558C7.41916 0.959876 9.55546 0.301976 11.7086 0.253676ZM11.7116 1.75398C9.78586 1.80288 7.87696 2.41218 6.28186 3.49278C4.52116 4.67328 3.14206 6.41298 2.40016 8.39898C1.94506 9.60948 1.72606 10.9073 1.75186 12.2C1.77676 13.6715 2.12566 15.1361 2.76916 16.4597C3.22696 17.4092 3.83326 18.2864 4.55956 19.0502C5.99506 20.5703 7.90576 21.6374 9.95716 22.0472C12.2465 22.5128 14.6942 22.175 16.7609 21.0806C18.5264 20.1545 20.0111 18.7028 20.975 16.9571C21.5666 15.8876 21.9629 14.711 22.1417 13.502C22.4786 11.2478 22.037 8.88618 20.9 6.91008C19.8458 5.06838 18.2081 3.56628 16.2782 2.68278C14.855 2.02578 13.2779 1.70928 11.7116 1.75398Z" fill="#4B4B4B"/>
<path opacity="0.5" d="M11.325 2.5734C12.9378 2.4585 14.5803 2.76 16.041 3.4554C17.7516 4.263 19.2063 5.5983 20.1606 7.2312C20.7531 8.2428 21.1521 9.3663 21.3354 10.524C21.5418 11.8404 21.4707 13.2009 21.1182 14.4867C20.6301 16.2999 19.5783 17.9532 18.1518 19.1727C17.3643 19.8495 16.4652 20.3967 15.5004 20.7807C13.2657 21.6777 10.6854 21.6732 8.45548 20.7627C6.62758 20.0262 5.04568 18.699 3.99868 17.0298C3.36808 16.0275 2.92528 14.9064 2.71048 13.7415C2.31178 11.6235 2.66008 9.3696 3.69958 7.4799C4.64908 5.7354 6.16078 4.3017 7.95868 3.456C9.01348 2.9574 10.1607 2.6538 11.325 2.5734ZM11.8017 7.7277C11.3508 7.8219 11.0487 8.3166 11.1633 8.7615C11.2593 9.2283 11.7876 9.5325 12.2409 9.39C12.6837 9.2721 12.9657 8.7585 12.8253 8.322C12.7104 7.8963 12.2295 7.6134 11.8017 7.7277ZM11.8317 10.5183C11.6418 10.5693 11.4789 10.7115 11.4045 10.8939C11.3427 11.0343 11.3562 11.1912 11.355 11.3409C11.3571 13.0002 11.3526 14.6592 11.3571 16.3182C11.3601 16.5762 11.5407 16.8189 11.784 16.9023C12.0132 16.9866 12.288 16.9251 12.4575 16.7484C12.5871 16.6218 12.6513 16.4391 12.645 16.2594C12.645 14.5599 12.645 12.8601 12.645 11.1603C12.6495 10.9611 12.5604 10.7607 12.4023 10.6377C12.246 10.509 12.0264 10.4658 11.8317 10.5183Z" fill="#4B4B4B"/>
</g>
</g>
</g>
<defs>
<clipPath id="clip0_35569_35234">
<rect width="24" height="24" fill="white"/>
</clipPath>
</defs>
</svg>
