<svg width="25" height="25" viewBox="0 0 25 25" fill="none" xmlns="http://www.w3.org/2000/svg">
<path d="M7.64199 1.7791C8.52237 1.74828 9.40342 1.74986 10.2842 1.75008C11.7089 1.75031 13.1337 1.75008 14.5584 1.75008C15.6837 1.75143 16.8099 1.74243 17.9339 1.80541C18.5448 1.84298 19.1573 1.90258 19.7547 2.04159C20.5185 2.21434 21.2622 2.55331 21.8225 3.11113C22.2973 3.56931 22.6306 4.15953 22.8272 4.78663C23.0908 5.6254 23.1615 6.50892 23.2035 7.38255C23.2613 8.78408 23.2366 10.187 23.2422 11.5894C23.2397 12.2269 23.2366 12.8675 23.1489 13.5002C23.0843 13.9536 22.9635 14.4031 22.7528 14.8115C22.5357 15.2461 22.2282 15.6282 21.8967 15.9805C21.3166 16.5869 20.6773 17.1321 20.0574 17.6965C18.6721 18.9426 17.2881 20.1903 15.9019 21.435C15.58 21.7216 15.257 22.0077 14.9135 22.2684C14.5388 22.5507 14.1348 22.8033 13.6895 22.9585C13.0754 23.1791 12.4166 23.218 11.7699 23.2358C11.2002 23.2471 10.6302 23.2403 10.0604 23.2421C9.3022 23.2423 8.54374 23.2417 7.78595 23.218C6.98767 23.1911 6.1858 23.1467 5.40169 22.9861C4.75569 22.853 4.11824 22.6231 3.58269 22.2304C3.24192 21.9818 2.94321 21.6755 2.70388 21.328C2.41687 20.9132 2.22253 20.4408 2.09163 19.9554C1.96499 19.477 1.89256 18.986 1.8478 18.4938C1.74838 17.3654 1.75333 16.2313 1.75018 15.0997C1.75063 13.8016 1.74928 12.5037 1.75108 11.2057C1.74996 10.2992 1.74568 9.39252 1.75873 8.48605C1.77582 7.52448 1.79989 6.55773 1.96522 5.60785C2.05024 5.13977 2.17485 4.67597 2.37594 4.24365C2.70119 3.52523 3.25856 2.91499 3.94527 2.52744C4.62411 2.14483 5.39809 1.97411 6.16533 1.88302C6.65545 1.82431 7.14895 1.79597 7.64199 1.7791ZM7.31337 3.29332C6.85519 3.31717 6.39678 3.35226 5.94422 3.42896C5.58029 3.49059 5.21747 3.57854 4.88075 3.73261C4.55101 3.88174 4.25478 4.10712 4.03007 4.39166C3.67378 4.84017 3.51858 5.40879 3.42546 5.96437C3.26373 7.00601 3.26261 8.06273 3.25271 9.11406C3.24597 10.5613 3.25159 12.0085 3.24979 13.4556C3.25226 14.5875 3.24169 15.7196 3.26463 16.8512C3.28105 17.4985 3.30287 18.1475 3.39037 18.7899C3.4556 19.266 3.55254 19.7463 3.766 20.1806C3.93965 20.5376 4.20619 20.8502 4.53864 21.0682C4.85579 21.2837 5.22445 21.4076 5.59558 21.4931C6.04184 21.5972 6.4989 21.642 6.95483 21.6768C7.89099 21.7398 8.82985 21.7398 9.7678 21.7427C10.4723 21.7389 11.1768 21.7524 11.881 21.7292C12.1975 21.7218 12.5151 21.7047 12.8266 21.6447C13.0279 21.6085 13.2196 21.5353 13.4092 21.4611L13.4033 21.4571C13.945 21.1872 14.3852 20.7638 14.8388 20.3722C16.3897 18.9844 17.9337 17.5887 19.4814 16.1971C19.891 15.8257 20.3044 15.4582 20.6944 15.0659C21.1135 14.6572 21.4889 14.1678 21.6149 13.5843L21.6002 13.5618L21.6146 13.5636C21.6643 13.3592 21.6857 13.1491 21.703 12.9397C21.7372 12.4606 21.7399 11.9799 21.7428 11.4997C21.7419 10.6971 21.7446 9.89456 21.7408 9.09201C21.7311 8.20759 21.726 7.32092 21.6319 6.44054C21.5714 5.92185 21.4871 5.39754 21.2757 4.91619C21.1225 4.56485 20.8863 4.24725 20.5806 4.01445C20.2866 3.7875 19.9398 3.63904 19.5824 3.5448C18.9933 3.3851 18.3822 3.33539 17.7751 3.2985C16.5994 3.23777 15.4214 3.25239 14.2444 3.24969C12.8716 3.24901 11.4986 3.25059 10.1259 3.24969C9.18816 3.24901 8.2502 3.24969 7.31337 3.29332Z" fill="#4B4B4B"/>
<path opacity="0.5" d="M12.141 7.06296C12.5891 7.01573 13.0535 7.06971 13.4638 7.26203C13.8838 7.45052 14.2333 7.78791 14.4369 8.20066C14.633 8.59271 14.6926 9.04347 14.6454 9.47668C14.6033 9.87414 14.4461 10.2597 14.1921 10.5692C13.9557 10.8643 13.6312 11.0834 13.2755 11.2089C12.8812 11.3494 12.4516 11.3778 12.0391 11.3155C11.58 11.2453 11.138 11.0343 10.8144 10.6983C10.5292 10.4005 10.3317 10.0181 10.264 9.61074C10.1846 9.13367 10.2365 8.6251 10.4601 8.19211C10.6205 7.87564 10.8625 7.59965 11.1621 7.40823C11.4554 7.21794 11.7948 7.10503 12.141 7.06296ZM12.2287 8.02724C11.8819 8.07942 11.5697 8.30413 11.3994 8.60936C11.2485 8.88399 11.2231 9.21712 11.2957 9.51897C11.3747 9.84197 11.6106 10.1146 11.9046 10.2635C12.1392 10.3825 12.4129 10.4095 12.6707 10.3674C12.9982 10.3134 13.2926 10.1058 13.4679 9.82578C13.6318 9.56283 13.6669 9.23534 13.6111 8.9346C13.5547 8.63365 13.3671 8.36283 13.1095 8.19841C12.8531 8.02791 12.5297 7.98113 12.2287 8.02724Z" fill="#4B4B4B"/>
<path opacity="0.5" d="M8.60175 7.09766C8.94342 7.09811 9.28531 7.09788 9.62698 7.09788L9.64047 7.11115C9.64092 7.93664 9.64092 8.76214 9.6407 9.58763C9.638 9.997 9.54825 10.4253 9.28846 10.7521C9.03496 11.0767 8.64246 11.2712 8.23849 11.3245C7.79718 11.3799 7.3255 11.3428 6.9321 11.1205C6.56973 10.919 6.31241 10.5474 6.22852 10.1452C6.55984 10.0568 6.89453 9.97901 7.2272 9.89466L7.24227 9.90365C7.28434 10.0521 7.36711 10.1958 7.49937 10.2809C7.67189 10.3922 7.8912 10.4073 8.08823 10.3659C8.2855 10.3261 8.45352 10.1785 8.52527 9.9916C8.57161 9.87824 8.58803 9.7552 8.58915 9.63329C8.59028 8.79295 8.59095 7.95239 8.5923 7.11205L8.60175 7.09766Z" fill="#4B4B4B"/>
<path opacity="0.5" d="M15.2178 7.09848C15.8445 7.09758 16.4714 7.09826 17.0983 7.09803C17.2787 7.09961 17.4608 7.08881 17.6392 7.12435C17.9597 7.18081 18.2695 7.35828 18.444 7.63831C18.5956 7.87899 18.6195 8.1795 18.572 8.45458C18.5252 8.70988 18.3756 8.96113 18.1354 9.07539C18.1057 9.09226 18.0684 9.09856 18.0472 9.1269C18.2584 9.17863 18.4296 9.33361 18.5538 9.50658C18.7438 9.77515 18.7816 10.129 18.7092 10.4443C18.6334 10.766 18.3885 11.0278 18.0947 11.1677C17.9114 11.2574 17.7067 11.2954 17.5038 11.2977C16.8074 11.2977 16.1113 11.2977 15.4149 11.2977C15.3485 11.2952 15.2813 11.3033 15.2158 11.293C15.2192 9.89481 15.2151 8.49665 15.2178 7.09848ZM16.273 7.90711C16.2712 7.91655 16.2676 7.93522 16.2658 7.94444C16.266 8.23055 16.2642 8.51689 16.2667 8.803C16.5371 8.80975 16.8081 8.80345 17.0789 8.80592C17.1835 8.80997 17.2939 8.78613 17.3754 8.71685C17.5702 8.56862 17.5978 8.25845 17.4489 8.06905C17.3724 7.96919 17.2492 7.90778 17.1232 7.9089C16.8398 7.90756 16.5564 7.91093 16.273 7.90711ZM16.2676 9.59093C16.2644 9.88964 16.264 10.1888 16.2678 10.4875C16.6054 10.4906 16.9431 10.4882 17.2807 10.4888C17.376 10.4891 17.4683 10.4499 17.5407 10.389C17.7301 10.2322 17.747 9.91595 17.5855 9.73376C17.5099 9.64581 17.3967 9.59003 17.2802 9.59048C16.9426 9.59025 16.6052 9.58913 16.2676 9.59093Z" fill="#4B4B4B"/>
<path opacity="0.5" d="M14.8717 13.6475C15.5065 13.5733 16.1464 13.5656 16.7848 13.562C17.767 13.5564 18.7493 13.5602 19.7316 13.5591C20.3544 13.5616 20.9777 13.5544 21.6003 13.5629L21.6149 13.5854C21.489 14.1689 21.1135 14.6583 20.6945 15.067C20.5017 15.0502 20.3069 15.0643 20.1135 15.0596C18.8087 15.061 17.5039 15.0517 16.1991 15.069C15.6595 15.0823 15.1144 15.0963 14.5863 15.218C14.3207 15.2825 14.0544 15.3938 13.8661 15.5985C13.656 15.8239 13.5588 16.1276 13.5033 16.4247C13.4113 16.9364 13.3967 17.458 13.3863 17.9767C13.3735 19.1252 13.3823 20.2739 13.3782 21.4224C13.3845 21.4312 13.3971 21.4492 13.4034 21.4582L13.4093 21.4622C13.2196 21.5365 13.028 21.6096 12.8267 21.6458C12.5152 21.7058 12.1976 21.7229 11.8811 21.7303C11.8777 21.1323 11.8806 20.5339 11.8795 19.9356C11.8831 19.0204 11.8665 18.1045 11.913 17.1899C11.945 16.6449 12.0016 16.0943 12.1796 15.5749C12.3941 14.9226 12.8627 14.3538 13.4754 14.0395C13.9075 13.8128 14.3908 13.7062 14.8717 13.6475Z" fill="#4B4B4B"/>
</svg>
