<svg width="25" height="25" viewBox="0 0 25 25" fill="none" xmlns="http://www.w3.org/2000/svg">
<path d="M8.72186 1.77962C10.2019 1.73913 11.6828 1.75668 13.1633 1.75195C14.4085 1.7578 15.6551 1.74003 16.8992 1.80796C17.7919 1.86329 18.7 1.95551 19.5381 2.28841C20.2464 2.56305 20.871 3.0525 21.299 3.68095C21.6783 4.2336 21.8917 4.8823 22.0145 5.53662C22.1664 6.35267 22.2046 7.18446 22.2262 8.01265C22.2491 8.93486 22.2437 9.85752 22.2444 10.7797C22.2444 12.1518 22.2442 13.5241 22.2449 14.8962C22.2419 16.0134 22.248 17.1322 22.1679 18.2472C22.1 19.103 21.9788 19.9733 21.6157 20.7596C21.2995 21.4515 20.7702 22.0444 20.1143 22.4304C19.42 22.8434 18.6154 23.0197 17.8214 23.1149C16.8351 23.2282 15.8407 23.2363 14.8492 23.2451C13.4998 23.2498 12.1505 23.2519 10.8011 23.2469C10.0591 23.2462 9.31657 23.2431 8.57475 23.2159C7.84576 23.1864 7.11383 23.1387 6.39788 22.9907C5.80632 22.8684 5.22397 22.6657 4.71856 22.3296C4.12452 21.9365 3.64947 21.3701 3.36021 20.7196C2.99672 19.9085 2.88246 19.014 2.81835 18.1354C2.74412 16.9975 2.75177 15.8566 2.74952 14.7169C2.74952 13.3293 2.74952 11.9417 2.74952 10.5541C2.74975 9.63192 2.7466 8.70948 2.77427 7.78749C2.80306 6.92241 2.85232 6.05126 3.05048 5.20597C3.15665 4.76084 3.31162 4.32425 3.54128 3.92725C3.93535 3.23671 4.55796 2.68181 5.28448 2.36061C6.0164 2.03379 6.81873 1.91075 7.61138 1.84237C7.98094 1.81111 8.3514 1.79199 8.72186 1.77962ZM10.1128 3.25673C9.38225 3.26236 8.65078 3.27023 7.92156 3.32174C7.48362 3.35458 7.04546 3.40249 6.61629 3.49786C6.26068 3.57771 5.90956 3.6958 5.59848 3.88879C5.2332 4.11731 4.93651 4.45336 4.75365 4.84339C4.58697 5.19878 4.4889 5.58228 4.4266 5.96871C4.3472 6.46648 4.30671 6.96987 4.28624 7.47349C4.24711 8.44766 4.25003 9.42296 4.24913 10.3978C4.25205 12.2872 4.24598 14.1766 4.25408 16.066C4.26667 17.0155 4.27297 17.9692 4.40748 18.9109C4.46686 19.3102 4.55548 19.7083 4.71721 20.0797C4.88838 20.4758 5.17067 20.8251 5.52875 21.0673C5.83623 21.2745 6.19027 21.4011 6.54859 21.4875C7.26409 21.6531 8.00096 21.6938 8.73265 21.7205C9.6994 21.7502 10.6666 21.7475 11.6338 21.7489C12.9757 21.7448 14.3179 21.7572 15.6598 21.7352C16.5355 21.7167 17.4172 21.6949 18.2789 21.5246C18.6541 21.447 19.0268 21.3321 19.3581 21.1357C19.7387 20.9101 20.045 20.5662 20.2365 20.1681C20.3869 19.8523 20.4801 19.512 20.5439 19.1689C20.6366 18.6626 20.6762 18.1484 20.7023 17.6351C20.7538 16.4833 20.7416 15.3298 20.7448 14.1771C20.7405 12.4818 20.7509 10.7865 20.7419 9.09119C20.7309 8.13883 20.7288 7.18288 20.6074 6.2366C20.5455 5.76133 20.447 5.2847 20.2432 4.84834C20.0862 4.51207 19.8451 4.21561 19.5482 3.99315C19.2499 3.77002 18.8979 3.63079 18.5398 3.537C18.1122 3.427 17.6725 3.37212 17.2332 3.33433C16.1416 3.24774 15.0455 3.25988 13.9512 3.25246C12.6718 3.25403 11.3924 3.24886 10.1128 3.25673Z" fill="#4B4B4B"/>
<path d="M11.8265 9.49458C12.7269 9.41158 13.6491 9.48738 14.5099 9.77237C14.9701 9.92599 15.4151 10.1392 15.797 10.4411C16.1821 10.7443 16.5051 11.1525 16.6236 11.6352C16.6913 11.8921 16.6751 12.1598 16.6706 12.4225C16.6589 12.7711 16.5998 13.1279 16.4279 13.4358C16.2489 13.764 15.9511 14.0154 15.617 14.1765C15.2423 14.3614 14.8311 14.4579 14.4204 14.5222C13.8489 14.6102 13.2699 14.6367 12.6923 14.6425C12.152 14.6466 11.6113 14.6347 11.0732 14.5847C10.6193 14.5398 10.1645 14.4698 9.73085 14.3238C9.37366 14.2017 9.02727 14.0161 8.774 13.7305C8.58214 13.5159 8.45213 13.2498 8.38937 12.9695C8.31605 12.6508 8.31515 12.3213 8.32009 11.996C8.33022 11.5581 8.52388 11.1395 8.80797 10.8115C9.23871 10.314 9.83657 9.99235 10.4527 9.78226C10.8969 9.63156 11.3598 9.53911 11.8265 9.49458ZM12.1196 10.5747C11.4642 10.617 10.8053 10.7627 10.2241 11.0765C9.93082 11.2412 9.64201 11.4524 9.48883 11.7607C9.38469 11.9648 9.42405 12.2005 9.4254 12.4202C9.4344 12.6458 9.46611 12.9043 9.6537 13.0559C9.94251 13.2853 10.3168 13.3571 10.6704 13.4234C11.1765 13.5084 11.6902 13.5323 12.2024 13.5411C12.8005 13.548 13.4004 13.539 13.9953 13.47C14.3754 13.4223 14.7612 13.3616 15.1116 13.1994C15.2711 13.1249 15.4288 13.0132 15.4942 12.8431C15.5867 12.6011 15.5662 12.3375 15.5754 12.0837C15.5811 11.907 15.5097 11.7369 15.4056 11.5972C15.1894 11.3098 14.873 11.1172 14.5515 10.967C13.7922 10.6296 12.9444 10.5248 12.1196 10.5747Z" fill="#4B4B4B"/>
<path d="M9.40781 16.3361C9.95169 16.3361 10.4956 16.3355 11.0394 16.3366C11.4603 17.7363 11.8823 19.1356 12.3042 20.5351C11.9439 20.5363 11.5838 20.5351 11.2234 20.5356C11.1557 20.3131 11.0887 20.0902 11.0212 19.8678C10.489 19.8671 9.95709 19.8673 9.42513 19.8675C9.35855 20.0902 9.29287 20.3131 9.22539 20.5356C8.86438 20.5354 8.50337 20.5356 8.14258 20.5354C8.5641 19.1356 8.98539 17.7357 9.40781 16.3361ZM9.67143 19.0357C10.0394 19.0362 10.4072 19.0362 10.7752 19.0357C10.5914 18.4221 10.4085 17.8081 10.2245 17.1945C10.0401 17.8081 9.85519 18.4219 9.67143 19.0357Z" fill="#4B4B4B"/>
<path d="M12.7759 16.3361C13.3925 16.3359 14.009 16.3359 14.6255 16.3361C15.0911 16.3379 15.5612 16.4758 15.9351 16.7576C16.2653 17.0026 16.5014 17.3622 16.6209 17.7538C16.7203 18.0831 16.7385 18.434 16.6989 18.7748C16.6258 19.3691 16.2758 19.9278 15.7583 20.2337C15.4265 20.4364 15.0363 20.5346 14.6487 20.5355C14.0245 20.5355 13.4003 20.5355 12.7762 20.5353C12.7757 19.1356 12.7759 17.7358 12.7759 16.3361ZM13.8237 17.1674C13.8239 18.0127 13.8237 18.858 13.8237 19.7031C14.0389 19.7033 14.2542 19.7031 14.4697 19.7033C14.6397 19.7033 14.8109 19.6696 14.9654 19.5978C15.3179 19.4343 15.5822 19.0928 15.6458 18.7087C15.7029 18.3611 15.6616 17.9808 15.4598 17.6841C15.2592 17.3863 14.9182 17.1886 14.5587 17.1708C14.3138 17.1629 14.0686 17.169 13.8237 17.1674Z" fill="#4B4B4B"/>
<path opacity="0.5" d="M12.1332 4.48808C12.6325 4.43814 13.1478 4.55151 13.5781 4.81085C14.1557 5.15387 14.5752 5.75398 14.6915 6.4164C14.7894 6.95218 14.6965 7.52148 14.4286 7.99608C14.104 8.57865 13.5223 9.01321 12.8689 9.15087C12.3444 9.26581 11.7807 9.19563 11.3016 8.95248C10.6585 8.63196 10.1792 8.0026 10.0454 7.2961C9.94056 6.76369 10.0247 6.19552 10.284 5.71844C10.6466 5.03713 11.3635 4.55691 12.1332 4.48808ZM12.1392 5.59653C11.7677 5.66221 11.4327 5.90536 11.2544 6.23758C11.0902 6.53606 11.0569 6.90225 11.1612 7.22615C11.2582 7.53385 11.48 7.79904 11.7634 7.95267C12.043 8.1054 12.3817 8.14476 12.6896 8.06289C13.0257 7.97494 13.3204 7.74079 13.4823 7.43331C13.649 7.12335 13.6751 6.74232 13.555 6.4119C13.4578 6.13929 13.2621 5.90446 13.0142 5.75556C12.7547 5.59878 12.4375 5.54277 12.1392 5.59653Z" fill="#4B4B4B"/>
</svg>
