<svg width="24" height="24" viewBox="0 0 24 24" fill="none" xmlns="http://www.w3.org/2000/svg">
<path d="M9.04036 1.2704C9.92746 1.2515 10.8149 1.2518 11.702 1.25C12.9116 1.2515 14.1212 1.2467 15.3305 1.2797C16.49 1.3193 17.6618 1.3775 18.7889 1.6748C19.3274 1.82 19.8509 2.0318 20.3216 2.3333C20.8427 2.6696 21.2951 3.1127 21.6365 3.6311C22.2383 4.5368 22.4747 5.6264 22.5965 6.6917C22.7573 8.1758 22.7411 9.671 22.7531 11.1614C22.7498 12.641 22.7636 14.1212 22.7144 15.6005C22.6817 16.4549 22.6277 17.3117 22.4717 18.1535C22.2956 19.1153 21.9482 20.0744 21.2969 20.8196C20.696 21.5306 19.8614 22.0181 18.9722 22.2749C17.8019 22.6187 16.5731 22.6781 15.3611 22.7222C13.6814 22.7651 12.0011 22.7513 10.3211 22.7492C9.48226 22.7423 8.64286 22.7333 7.80496 22.6868C6.65596 22.6175 5.48326 22.5026 4.41166 22.0526C3.54526 21.6926 2.79076 21.0638 2.29786 20.2637C1.94716 19.7042 1.72906 19.0715 1.58746 18.4292C1.44556 17.7797 1.37596 17.1167 1.33156 16.454C1.28236 15.6911 1.26646 14.9261 1.25806 14.1617C1.25026 13.1219 1.24876 12.0821 1.25086 11.042C1.26196 9.5915 1.24966 8.1365 1.40716 6.6923C1.51996 5.7026 1.73056 4.6979 2.24206 3.8309C2.70736 3.0359 3.42586 2.3951 4.26436 2.015C4.90606 1.7183 5.60176 1.5581 6.29896 1.4567C7.20706 1.3289 8.12476 1.292 9.04036 1.2704ZM8.89126 2.7743C8.12836 2.7944 7.36456 2.8286 6.60736 2.9285C6.08326 2.9999 5.56006 3.1055 5.06716 3.3017C4.66336 3.4628 4.28536 3.698 3.98236 4.0121C3.65386 4.3382 3.41716 4.7474 3.25846 5.18C3.04906 5.7509 2.95306 6.3557 2.88706 6.9581C2.81146 7.6772 2.78506 8.4002 2.76916 9.1229C2.74696 10.3322 2.75176 11.5415 2.75026 12.7508C2.75746 13.8659 2.75266 14.9819 2.81236 16.0958C2.84806 16.7258 2.90266 17.3567 3.02476 17.9765C3.11986 18.4412 3.25456 18.9032 3.48376 19.3208C3.72916 19.7738 4.09576 20.1605 4.53346 20.432C4.98796 20.7158 5.50816 20.8721 6.02986 20.9786C6.67336 21.1049 7.32826 21.1595 7.98256 21.1943C9.53086 21.2675 11.0819 21.2471 12.6314 21.2525C14.0027 21.2429 15.3764 21.2585 16.7441 21.1451C17.4404 21.0821 18.1424 20.9894 18.8036 20.7515C19.2572 20.5889 19.6853 20.339 20.0213 19.9904C20.3492 19.6643 20.5862 19.2554 20.7446 18.8231C20.9687 18.2129 21.0632 17.5649 21.1292 16.9211C21.2591 15.5252 21.2423 14.1212 21.2528 12.7208C21.2468 11.1218 21.2702 9.5213 21.1916 7.9232C21.1556 7.2788 21.1004 6.6332 20.9729 5.9993C20.8634 5.4728 20.7005 4.9481 20.4077 4.4924C20.1284 4.061 19.7381 3.7004 19.2821 3.4628C18.7919 3.2024 18.2471 3.0665 17.7032 2.975C16.9589 2.8535 16.2044 2.8109 15.4517 2.7845C14.5421 2.753 13.6319 2.756 12.722 2.7503C11.4452 2.7518 10.1681 2.7452 8.89126 2.7743Z" fill="#4B4B4B"/>
<path opacity="0.5" d="M6.73175 5.70944C7.25465 5.62424 7.80485 5.93594 8.00735 6.42374C8.13035 6.71384 8.13665 7.05224 8.01695 7.34444C7.88255 7.68074 7.58915 7.95194 7.23905 8.04914C6.96785 8.12894 6.66845 8.10884 6.41105 7.99154C6.08855 7.84724 5.83355 7.55444 5.74535 7.21124C5.64935 6.86744 5.71955 6.48254 5.93045 6.19484C6.11765 5.93324 6.41285 5.75264 6.73175 5.70944Z" fill="#4B4B4B"/>
<path opacity="0.5" d="M11.8343 5.70914C12.3569 5.62454 12.9062 5.93624 13.1087 6.42374C13.2314 6.71384 13.238 7.05254 13.118 7.34474C12.9836 7.68104 12.6902 7.95224 12.3401 8.04914C12.077 8.12654 11.7872 8.11004 11.5352 8.00144C11.2091 7.86344 10.9478 7.57514 10.8527 7.23284C10.7573 6.91184 10.8056 6.55214 10.9829 6.26804C11.1662 5.96804 11.4851 5.75564 11.8343 5.70914Z" fill="#4B4B4B"/>
<path opacity="0.5" d="M16.9363 5.70912C17.4664 5.62332 18.0238 5.94582 18.2191 6.44502C18.3334 6.73002 18.3367 7.05882 18.2203 7.34382C18.0859 7.68012 17.7925 7.95192 17.4421 8.04912C17.1712 8.12892 16.8721 8.10882 16.615 7.99182C16.2985 7.85022 16.0462 7.56612 15.9538 7.23072C15.8611 6.91692 15.9055 6.56652 16.0738 6.28602C16.2553 5.97672 16.5799 5.75622 16.9363 5.70912Z" fill="#4B4B4B"/>
<path opacity="0.5" d="M6.73259 10.8109C7.27829 10.7218 7.85219 11.0671 8.03159 11.5891C8.13389 11.8714 8.12699 12.1924 8.00759 12.4687C7.86929 12.7945 7.58129 13.0561 7.23899 13.1509C6.97529 13.2286 6.68489 13.2118 6.43229 13.1026C6.10649 12.964 5.84519 12.6754 5.75069 12.3328C5.65139 11.9977 5.70959 11.6206 5.90639 11.3314C6.09209 11.0515 6.39899 10.8559 6.73259 10.8109Z" fill="#4B4B4B"/>
<path opacity="0.5" d="M11.8338 10.8113C12.414 10.7147 13.0227 11.1152 13.1628 11.6864C13.3122 12.2 13.0623 12.7883 12.5952 13.0448C12.3303 13.1948 12.0072 13.238 11.7123 13.1633C11.4048 13.0874 11.1327 12.8831 10.9713 12.611C10.7742 12.2816 10.7496 11.8556 10.9104 11.5067C11.0739 11.138 11.433 10.8641 11.8338 10.8113Z" fill="#4B4B4B"/>
<path opacity="0.5" d="M16.9351 10.8112C17.4988 10.7179 18.0916 11.0911 18.2512 11.6392C18.3439 11.9311 18.319 12.2581 18.1816 12.532C18.0343 12.8287 17.7604 13.0633 17.4397 13.1515C17.1763 13.2286 16.8868 13.2112 16.6351 13.1023C16.3093 12.964 16.0486 12.6754 15.9541 12.3334C15.8545 11.9986 15.9124 11.6215 16.1086 11.3326C16.2943 11.0521 16.6012 10.8559 16.9351 10.8112Z" fill="#4B4B4B"/>
<path opacity="0.5" d="M6.73255 15.9129C7.32055 15.8148 7.93585 16.2276 8.06695 16.809C8.20975 17.3325 7.93885 17.9244 7.45584 18.1671C7.14985 18.3258 6.77485 18.3453 6.45565 18.2145C6.11905 18.0798 5.84725 17.7855 5.75065 17.4348C5.65795 17.1207 5.70234 16.7697 5.87094 16.4889C6.05244 16.1805 6.37674 15.9603 6.73255 15.9129Z" fill="#4B4B4B"/>
<path opacity="0.5" d="M11.8362 15.9121C12.366 15.8269 12.9228 16.1497 13.1175 16.6486C13.2321 16.9339 13.2351 17.2627 13.1184 17.5477C12.9837 17.8843 12.69 18.1558 12.3396 18.2527C12.0762 18.3301 11.7864 18.313 11.5344 18.2044C11.2083 18.0658 10.947 17.7772 10.8522 17.4346C10.7592 17.1202 10.8042 16.7683 10.9731 16.4875C11.1552 16.1788 11.4798 15.9589 11.8362 15.9121Z" fill="#4B4B4B"/>
<path opacity="0.5" d="M16.936 15.9126C17.5 15.8199 18.0925 16.1937 18.2515 16.7421C18.3364 17.0112 18.3226 17.3106 18.2107 17.5698C18.0727 17.8962 17.7844 18.1575 17.4418 18.2526C17.1781 18.3303 16.8877 18.3132 16.6354 18.2043C16.3093 18.0657 16.048 17.7768 15.9538 17.4339C15.8524 17.0922 15.9154 16.707 16.1212 16.416C16.3078 16.1448 16.6093 15.9567 16.936 15.9126Z" fill="#4B4B4B"/>
</svg>
