<svg width="24" height="24" viewBox="0 0 24 24" fill="none" xmlns="http://www.w3.org/2000/svg">
<path opacity="0.5" d="M7.92309 1.3046C8.14929 1.2545 8.38179 1.2515 8.61249 1.25C10.8418 1.25 13.0711 1.2503 15.3001 1.25C15.5308 1.2515 15.763 1.2479 15.991 1.2878C16.6216 1.3898 17.2141 1.7201 17.6284 2.2067C18.031 2.6657 18.2605 3.2642 18.2959 3.8717C18.8365 4.0358 19.3273 4.3607 19.6858 4.7975C20.101 5.2979 20.3413 5.942 20.3467 6.5927C19.9147 6.4628 19.4671 6.3953 19.0195 6.3467C18.9604 6.3413 18.9007 6.3446 18.8422 6.3494C18.8245 6.317 18.8089 6.2837 18.7924 6.2513C18.637 5.6828 18.0832 5.2511 17.4919 5.2523C13.8421 5.2505 10.1923 5.2517 6.54279 5.2514C6.19479 5.2493 5.84739 5.384 5.59569 5.6249C5.39379 5.813 5.25399 6.0617 5.18919 6.3293C4.67469 6.3716 4.16079 6.4454 3.66429 6.5894C3.65559 5.954 3.89739 5.3252 4.29129 4.8311C4.65399 4.3727 5.16099 4.0409 5.71569 3.8639C5.73519 3.2996 5.94819 2.7476 6.29589 2.3045C6.69459 1.7903 7.28379 1.4273 7.92309 1.3046ZM7.23189 3.7487C10.4119 3.7538 13.5916 3.752 16.7716 3.7496C16.7128 3.4736 16.5613 3.2195 16.3435 3.0401C16.1074 2.8367 15.7912 2.741 15.4819 2.7512C13.1422 2.7503 10.8025 2.7488 8.46279 2.7521C7.88259 2.7383 7.34499 3.1829 7.23189 3.7487Z" fill="#4B4B4B"/>
<path d="M6.9618 6.25618C8.3415 6.24538 9.7212 6.25408 11.1009 6.25138C12.9204 6.25138 14.7399 6.25108 16.5594 6.25138C17.2908 6.26008 18.024 6.26248 18.7533 6.32548C18.7659 6.30028 18.7782 6.27508 18.7899 6.24988C18.8064 6.28228 18.822 6.31558 18.8397 6.34798C18.8982 6.34318 18.9579 6.33988 19.017 6.34528C19.4646 6.39388 19.9122 6.46138 20.3442 6.59128C20.8899 6.75298 21.4131 7.02598 21.8118 7.43758C22.1964 7.81468 22.4622 8.30398 22.5984 8.82358C22.7535 9.40918 22.7661 10.0209 22.7385 10.6227C22.6989 11.415 22.5921 12.2019 22.4868 12.9873C22.2894 14.3994 22.0887 15.8109 21.8904 17.223C21.8004 17.8485 21.7134 18.4749 21.5925 19.0953C21.4947 19.5906 21.3747 20.085 21.1782 20.5515C20.9745 21.0441 20.6634 21.4983 20.2485 21.8364C19.8843 22.1394 19.4493 22.3497 18.9945 22.4772C18.423 22.6368 17.8287 22.6896 17.238 22.719C16.5924 22.7493 15.9459 22.7475 15.3 22.7511C13.4403 22.7511 11.5803 22.7511 9.7206 22.7511C8.9406 22.7511 8.1606 22.7535 7.3806 22.7394C6.6774 22.7217 5.9688 22.6953 5.2791 22.5459C4.713 22.4229 4.161 22.191 3.7197 21.8094C3.2943 21.4557 2.988 20.9766 2.7858 20.4654C2.5173 19.7814 2.3919 19.053 2.2737 18.3312C2.0547 16.8924 1.8639 15.4494 1.6563 14.0091C1.5003 12.8619 1.3149 11.7159 1.2588 10.5579C1.224 9.73948 1.2756 8.87968 1.6653 8.14168C1.8648 7.76278 2.1519 7.43308 2.4888 7.16998C2.8365 6.90028 3.2421 6.71458 3.6618 6.58798C4.1583 6.44398 4.6722 6.37018 5.1867 6.32788C5.7771 6.27898 6.3696 6.26458 6.9618 6.25618ZM6.9723 7.75648C6.1758 7.77088 5.3748 7.78108 4.5873 7.91218C4.146 7.99138 3.6888 8.11288 3.3402 8.41018C3.0537 8.64868 2.8815 8.99938 2.8155 9.36238C2.7111 9.92578 2.7507 10.5027 2.7951 11.0703C2.8839 12.036 3.0312 12.9948 3.1635 13.9551C3.2739 14.7351 3.3837 15.5151 3.4935 16.2951C3.6153 17.1357 3.7203 17.9793 3.8811 18.8136C3.9882 19.335 4.1037 19.8726 4.3929 20.3283C4.647 20.7297 5.0901 20.9688 5.5446 21.0681C6.3141 21.2382 7.1076 21.2313 7.8915 21.2475C10.4013 21.2562 12.9114 21.2487 15.4212 21.2514C16.2324 21.2418 17.0463 21.2556 17.8542 21.1683C18.3519 21.1086 18.8787 21.0168 19.2786 20.6916C19.6164 20.4255 19.8006 20.0193 19.9233 19.6176C20.1069 19.0101 20.2008 18.3804 20.2977 17.7546C20.4255 16.8873 20.544 16.0185 20.6679 15.1506C20.8437 13.8597 21.0483 12.5724 21.1857 11.2767C21.2436 10.6104 21.3081 9.92848 21.1638 9.26848C21.072 8.83018 20.7885 8.43688 20.3925 8.22478C19.8816 7.94938 19.2921 7.88278 18.7236 7.82548C17.8041 7.75018 16.8804 7.75348 15.9588 7.75108C12.9633 7.75438 9.9675 7.74448 6.9723 7.75648Z" fill="#4B4B4B"/>
<path d="M8.88453 17.2601C9.29283 17.24 9.70263 17.2568 10.1115 17.2514C11.7513 17.2523 13.3914 17.2499 15.0312 17.2526C15.4317 17.2586 15.777 17.6312 15.7497 18.0314C15.7419 18.4214 15.39 18.7634 14.9985 18.7514C12.999 18.7517 10.9998 18.7514 9.00033 18.7514C8.81043 18.7529 8.62383 18.6755 8.48493 18.5474C8.28153 18.3599 8.19993 18.0548 8.28033 17.7905C8.35863 17.5169 8.60133 17.2994 8.88453 17.2601Z" fill="#4B4B4B"/>
</svg>
