<svg width="24" height="24" viewBox="0 0 24 24" fill="none" xmlns="http://www.w3.org/2000/svg">
<path opacity="0.5" d="M7.92309 1.3046C8.14929 1.2545 8.38179 1.2515 8.61249 1.25C10.8418 1.25 13.0711 1.2503 15.3001 1.25C15.5308 1.2515 15.763 1.2479 15.991 1.2878C16.6216 1.3898 17.2141 1.7201 17.6284 2.2067C18.031 2.6657 18.2605 3.2642 18.2959 3.8717C18.8365 4.0358 19.3273 4.3607 19.6858 4.7975C20.101 5.2979 20.3413 5.942 20.3467 6.5927C19.9147 6.4628 19.4671 6.3953 19.0195 6.3467C18.9604 6.3413 18.9007 6.3446 18.8422 6.3494C18.8245 6.317 18.8089 6.2837 18.7924 6.2513C18.637 5.6828 18.0832 5.2511 17.4919 5.2523C13.8421 5.2505 10.1923 5.2517 6.54279 5.2514C6.19479 5.2493 5.84739 5.384 5.59569 5.6249C5.39379 5.813 5.25399 6.0617 5.18919 6.3293C4.67469 6.3716 4.16079 6.4454 3.66429 6.5894C3.65559 5.954 3.89739 5.3252 4.29129 4.8311C4.65399 4.3727 5.16099 4.0409 5.71569 3.8639C5.73519 3.2996 5.94819 2.7476 6.29589 2.3045C6.69459 1.7903 7.28379 1.4273 7.92309 1.3046ZM7.23189 3.7487C10.4119 3.7538 13.5916 3.752 16.7716 3.7496C16.7128 3.4736 16.5613 3.2195 16.3435 3.0401C16.1074 2.8367 15.7912 2.741 15.4819 2.7512C13.1422 2.7503 10.8025 2.7488 8.46279 2.7521C7.88259 2.7383 7.34499 3.1829 7.23189 3.7487Z" fill="#4B4B4B"/>
<path d="M6.96204 6.2563C8.34174 6.2455 9.72144 6.2542 11.1011 6.2515C12.9206 6.2515 14.7401 6.2512 16.5596 6.2515C17.291 6.2602 18.0242 6.2626 18.7535 6.3256C18.7661 6.3004 18.7784 6.2752 18.7901 6.25C18.8066 6.2824 18.8222 6.3157 18.8399 6.3481C18.8984 6.3433 18.9581 6.34 19.0172 6.3454C19.4648 6.394 19.9124 6.4615 20.3444 6.5914C20.8901 6.7531 21.4133 7.0261 21.812 7.4377C22.1966 7.8148 22.4624 8.3041 22.5986 8.8237C22.7537 9.4093 22.7663 10.021 22.7387 10.6228C22.6991 11.4151 22.5923 12.202 22.487 12.9874C22.2896 14.3995 22.0889 15.811 21.8906 17.2231C21.8006 17.8486 21.7136 18.475 21.5927 19.0954C21.4949 19.5907 21.3749 20.0851 21.1784 20.5516C20.9747 21.0442 20.6636 21.4984 20.2487 21.8365C19.8845 22.1395 19.4495 22.3498 18.9947 22.4773C18.4232 22.6369 17.8289 22.6897 17.2382 22.7191C16.5926 22.7494 15.9461 22.7476 15.3002 22.7512C13.4405 22.7512 11.5805 22.7512 9.72084 22.7512C8.94084 22.7512 8.16084 22.7536 7.38084 22.7395C6.67764 22.7218 5.96904 22.6954 5.27934 22.546C4.71324 22.423 4.16124 22.1911 3.71994 21.8095C3.29454 21.4558 2.98824 20.9767 2.78604 20.4655C2.51754 19.7815 2.39214 19.0531 2.27394 18.3313C2.05494 16.8925 1.86414 15.4495 1.65654 14.0092C1.50054 12.862 1.31514 11.716 1.25904 10.558C1.22424 9.7396 1.27584 8.8798 1.66554 8.1418C1.86504 7.7629 2.15214 7.4332 2.48904 7.1701C2.83674 6.9004 3.24234 6.7147 3.66204 6.5881C4.15854 6.4441 4.67244 6.3703 5.18694 6.328C5.77734 6.2791 6.36984 6.2647 6.96204 6.2563ZM6.97254 7.7566C6.17604 7.771 5.37504 7.7812 4.58754 7.9123C4.14624 7.9915 3.68904 8.113 3.34044 8.4103C3.05394 8.6488 2.88174 8.9995 2.81574 9.3625C2.71134 9.9259 2.75094 10.5028 2.79534 11.0704C2.88414 12.0361 3.03144 12.9949 3.16374 13.9552C3.27414 14.7352 3.38394 15.5152 3.49374 16.2952C3.61554 17.1358 3.72054 17.9794 3.88134 18.8137C3.98844 19.3351 4.10394 19.8727 4.39314 20.3284C4.64724 20.7298 5.09034 20.9689 5.54484 21.0682C6.31434 21.2383 7.10784 21.2314 7.89174 21.2476C10.4015 21.2563 12.9116 21.2488 15.4214 21.2515C16.2326 21.2419 17.0465 21.2557 17.8544 21.1684C18.3521 21.1087 18.8789 21.0169 19.2788 20.6917C19.6166 20.4256 19.8008 20.0194 19.9235 19.6177C20.1071 19.0102 20.201 18.3805 20.2979 17.7547C20.4257 16.8874 20.5442 16.0186 20.6681 15.1507C20.8439 13.8598 21.0485 12.5725 21.1859 11.2768C21.2438 10.6105 21.3083 9.9286 21.164 9.2686C21.0722 8.8303 20.7887 8.437 20.3927 8.2249C19.8818 7.9495 19.2923 7.8829 18.7238 7.8256C17.8043 7.7503 16.8806 7.7536 15.959 7.7512C12.9635 7.7545 9.96774 7.7446 6.97254 7.7566Z" fill="#4B4B4B"/>
<path d="M8.88477 17.2602C9.29307 17.2401 9.70287 17.2569 10.1117 17.2515C11.7515 17.2524 13.3916 17.25 15.0314 17.2527C15.4319 17.2587 15.7772 17.6313 15.7499 18.0315C15.7421 18.4215 15.3902 18.7635 14.9987 18.7515C12.9992 18.7518 11 18.7515 9.00057 18.7515C8.81067 18.753 8.62407 18.6756 8.48517 18.5475C8.28177 18.36 8.20017 18.0549 8.28057 17.7906C8.35887 17.517 8.60157 17.2995 8.88477 17.2602Z" fill="#4B4B4B"/>
</svg>
