<svg width="24" height="24" viewBox="0 0 24 24" fill="none" xmlns="http://www.w3.org/2000/svg">
<path d="M8.79118 1.548C9.50578 1.4442 10.2297 1.446 10.9503 1.4403C12.9396 1.44 14.9292 1.44 16.9188 1.4403C17.6703 1.4469 18.4266 1.443 19.1709 1.5627C19.7361 1.6545 20.3007 1.8582 20.7315 2.2467C21.06 2.5368 21.306 2.9145 21.4512 3.3273C21.6537 3.8955 21.7014 4.5036 21.7287 5.1021C21.7602 5.901 21.747 6.7005 21.75 7.4997C21.7431 8.2719 21.7491 9.0495 21.6219 9.8136C21.5229 10.4022 21.2961 10.9893 20.8701 11.4195C20.5194 11.79 20.0502 12.0309 19.5591 12.1548C18.864 12.3315 18.1416 12.3399 17.4291 12.3567C15.5799 12.3639 13.7304 12.3582 11.8812 12.36C11.9658 11.8608 12.0558 11.3625 12.1362 10.8627C13.6839 10.8564 15.2316 10.8618 16.7796 10.86C17.2941 10.857 17.8089 10.8573 18.3228 10.8243C18.7209 10.7922 19.1328 10.7601 19.4997 10.5885C19.7595 10.467 19.9524 10.2297 20.0415 9.9597C20.1393 9.6813 20.175 9.3861 20.202 9.0939C20.2482 8.5368 20.2461 7.977 20.2497 7.4181C20.2503 7.0821 20.2497 6.7461 20.25 6.4101C20.247 5.8965 20.2476 5.3823 20.2143 4.8693C20.1825 4.4706 20.1504 4.0581 19.9785 3.6906C19.8546 3.4242 19.608 3.2295 19.3308 3.1416C19.0053 3.033 18.6606 3.0006 18.3204 2.9757C17.8146 2.9454 17.3073 2.9379 16.8012 2.9439C14.8977 2.9349 12.9945 2.9424 11.091 2.94C10.5771 2.9427 10.0626 2.9427 9.54928 2.9757C9.17848 3.0039 8.79958 3.0372 8.45068 3.1752C8.19418 3.2751 7.97968 3.4776 7.87198 3.7317C7.71808 4.0902 7.68568 4.485 7.65568 4.8696C7.62238 5.3832 7.62268 5.8977 7.62028 6.4122C7.61998 6.7476 7.61998 7.083 7.61998 7.4184C7.62388 7.9782 7.62238 8.5392 7.66768 9.0978C7.70398 9.465 7.74838 9.8436 7.92328 10.1748C7.88788 10.2858 7.86688 10.4046 7.80328 10.5042C7.57498 10.8477 7.33468 11.1837 7.11478 11.5326C6.66868 11.1333 6.40018 10.5711 6.28288 9.9906C6.15418 9.3801 6.14038 8.7537 6.12418 8.1324C6.11848 7.4919 6.11938 6.8511 6.12058 6.2106C6.12838 5.4378 6.12388 4.6584 6.26488 3.8958C6.37348 3.3108 6.62158 2.7336 7.06018 2.3202C7.52098 1.8621 8.15968 1.6386 8.79118 1.548Z" fill="#4B4B4B"/>
<path d="M9.85589 7.2522C10.2135 7.1838 10.5795 7.2759 10.9032 7.4277C11.3319 7.6344 11.6682 8.0283 11.793 8.4888C11.9307 8.9997 11.9622 9.5391 11.8872 10.0632C11.7294 11.0415 11.5671 12.0195 11.4081 12.9975C11.3904 13.0518 11.4315 13.1046 11.49 13.0887C12.5994 13.0905 13.7088 13.089 14.8185 13.0893C15.0486 13.0914 15.2817 13.0758 15.5082 13.1283C15.9384 13.2189 16.3254 13.4868 16.569 13.8519C16.809 14.2068 16.9077 14.6535 16.8387 15.0765C16.7094 15.8295 16.5789 16.5822 16.449 17.3352C16.3638 17.805 16.3056 18.2823 16.1532 18.7368C15.834 19.7292 15.2124 20.6175 14.4015 21.2706C13.3626 22.1154 12.0171 22.5627 10.68 22.53C9.76018 22.53 8.84008 22.53 7.91998 22.53C7.60678 22.5279 7.28428 22.5525 6.98338 22.4466C6.35398 22.2492 5.87308 21.6594 5.80798 21.0027C5.61268 18.7629 5.42128 16.5225 5.22688 14.2824C5.18578 13.8483 5.31868 13.4013 5.58988 13.0599C5.71438 12.8955 5.87998 12.7704 6.03358 12.6354C6.35038 12.3609 6.66928 12.0891 6.98458 11.8128C7.37248 11.4675 7.74478 11.0868 7.97938 10.6176C8.17528 10.2399 8.31359 9.8349 8.41168 9.4215C8.51249 9.0372 8.60909 8.6514 8.71169 8.2674C8.85568 7.7454 9.32429 7.3404 9.85589 7.2522ZM9.97049 8.3223C9.85379 8.3625 9.75868 8.4612 9.73019 8.5824C9.62848 8.9736 9.52739 9.3651 9.42599 9.7566C9.28289 10.3392 9.06418 10.9071 8.74948 11.4198C8.47288 11.8596 8.10958 12.2376 7.72378 12.5829C7.31938 12.9393 6.90718 13.2873 6.50128 13.6419C6.34918 13.7766 6.26848 13.9854 6.28888 14.1876C6.48178 16.4178 6.67288 18.6483 6.86728 20.8782C6.89188 21.1965 7.18228 21.4641 7.50178 21.4623C8.60098 21.4644 9.70019 21.4626 10.7994 21.4632C11.5551 21.4653 12.3123 21.2862 12.981 20.9331C13.9182 20.4468 14.6793 19.6191 15.0591 18.6312C15.2544 18.1518 15.3111 17.634 15.4029 17.1285C15.5289 16.3983 15.6549 15.6684 15.7812 14.9388C15.8229 14.7318 15.7599 14.5068 15.6111 14.3565C15.4863 14.2224 15.3027 14.1519 15.1206 14.1564C13.8906 14.1558 12.6606 14.1567 11.4309 14.1558C10.9233 14.1543 10.4589 13.7589 10.3614 13.2633C10.2984 13.0014 10.3761 12.7374 10.413 12.4779C10.5486 11.6496 10.6839 10.821 10.8195 9.9927C10.8876 9.5943 10.8723 9.1812 10.77 8.7903C10.7241 8.6034 10.5834 8.4459 10.4058 8.3739C10.2696 8.3187 10.1151 8.265 9.97049 8.3223Z" fill="#4B4B4B"/>
<path opacity="0.5" d="M9.5493 2.9757C10.0626 2.9427 10.5771 2.9427 11.091 2.94C10.9536 3.78 10.5396 4.5672 9.9492 5.1777C9.3273 5.8179 8.5023 6.2646 7.6203 6.4122C7.6227 5.8977 7.6224 5.3832 7.6557 4.8696C8.5533 4.6101 9.2901 3.8736 9.5493 2.9757Z" fill="#4B4B4B"/>
<path opacity="0.5" d="M16.8012 2.94391C17.3073 2.93791 17.8146 2.94541 18.3204 2.97571C18.4485 3.40081 18.6744 3.79651 18.9825 4.11721C19.3179 4.47061 19.7484 4.72951 20.2143 4.86931C20.2476 5.38231 20.247 5.89651 20.25 6.41011C18.8715 6.18781 17.6502 5.22091 17.0856 3.94771C16.9503 3.63361 16.8279 3.30451 16.791 2.96341L16.8012 2.94391Z" fill="#4B4B4B"/>
<path opacity="0.5" d="M13.6335 4.9986C14.0412 4.9413 14.4675 5.016 14.829 5.2143C15.2562 5.4453 15.5901 5.8428 15.7416 6.3042C15.8928 6.756 15.8691 7.2636 15.6747 7.6986C15.5004 8.0937 15.1899 8.4267 14.8071 8.6274C14.4285 8.8287 13.9818 8.8962 13.56 8.8194C13.0905 8.7369 12.6573 8.4705 12.3684 8.0916C12.0828 7.722 11.94 7.2459 11.9748 6.7803C12.0003 6.3894 12.1497 6.0084 12.396 5.7039C12.699 5.3229 13.1511 5.0649 13.6335 4.9986ZM13.8078 6.4905C13.5984 6.534 13.4448 6.7488 13.4724 6.9609C13.4901 7.1931 13.7211 7.3791 13.9518 7.3476C14.1945 7.3287 14.3829 7.0776 14.3334 6.8391C14.2983 6.6009 14.0409 6.4305 13.8078 6.4905Z" fill="#4B4B4B"/>
<path opacity="0.5" d="M7.62003 7.4184C7.98123 7.4736 8.33103 7.59 8.66403 7.7385C8.51673 8.2233 8.37153 8.7084 8.22123 9.192C8.04123 9.0996 7.85553 9.018 7.66113 8.9616C7.66323 9.0069 7.66533 9.0522 7.66773 9.0978C7.62243 8.5392 7.62393 7.9782 7.62003 7.4184Z" fill="#4B4B4B"/>
<path opacity="0.5" d="M18.1806 8.39911C18.7647 7.89391 19.4865 7.54351 20.2497 7.41811C20.2461 7.97701 20.2482 8.53681 20.202 9.09391C20.2047 9.04951 20.2074 9.00511 20.2098 8.96071C19.3209 9.21511 18.5868 9.93751 18.3228 10.8243C17.8089 10.8573 17.2941 10.857 16.7796 10.86C16.9386 9.90901 17.4531 9.02821 18.1806 8.39911Z" fill="#4B4B4B"/>
<path opacity="0.5" d="M3.39991 13.0956C3.61771 13.0368 3.86191 13.14 3.97621 13.3329C4.06051 13.4619 4.05631 13.6215 4.07071 13.7691C4.28101 16.2384 4.49221 18.7074 4.70281 21.1764C4.71391 21.3474 4.74121 21.5175 4.73851 21.6894C4.72921 22.0551 4.46431 22.3977 4.11091 22.4955C3.78601 22.5957 3.41101 22.4757 3.19951 22.2108C3.06661 22.0485 2.99521 21.8388 2.99971 21.6294C3.00061 18.9594 2.99941 16.2894 3.00031 13.6197C2.99341 13.3803 3.16681 13.1508 3.39991 13.0956Z" fill="#4B4B4B"/>
</svg>
