<svg width="24" height="24" viewBox="0 0 24 24" fill="none" xmlns="http://www.w3.org/2000/svg">
<path d="M8.79112 1.54787C9.50573 1.44407 10.2296 1.44587 10.9502 1.44017C12.9395 1.43987 14.9291 1.43987 16.9187 1.44017C17.6702 1.44677 18.4265 1.44287 19.1708 1.56257C19.736 1.65437 20.3006 1.85807 20.7314 2.24657C21.0599 2.53667 21.3059 2.91437 21.4511 3.32717C21.6536 3.89537 21.7013 4.50347 21.7286 5.10197C21.7601 5.90087 21.7469 6.70037 21.7499 7.49957C21.743 8.27177 21.749 9.04937 21.6218 9.81347C21.5228 10.4021 21.296 10.9892 20.87 11.4194C20.5193 11.7899 20.0501 12.0308 19.559 12.1547C18.8639 12.3314 18.1415 12.3398 17.429 12.3566C15.5798 12.3638 13.7303 12.3581 11.8811 12.3599C11.9657 11.8607 12.0557 11.3624 12.1361 10.8626C13.6838 10.8563 15.2315 10.8617 16.7795 10.8599C17.294 10.8569 17.8088 10.8572 18.3227 10.8242C18.7208 10.7921 19.1327 10.76 19.4996 10.5884C19.7594 10.4669 19.9523 10.2296 20.0414 9.95957C20.1392 9.68117 20.1749 9.38597 20.2019 9.09377C20.2481 8.53667 20.246 7.97687 20.2496 7.41797C20.2502 7.08197 20.2496 6.74597 20.2499 6.40997C20.2469 5.89637 20.2475 5.38217 20.2142 4.86917C20.1824 4.47047 20.1503 4.05797 19.9784 3.69047C19.8545 3.42407 19.6079 3.22937 19.3307 3.14147C19.0052 3.03287 18.6605 3.00047 18.3203 2.97557C17.8145 2.94527 17.3072 2.93777 16.8011 2.94377C14.8976 2.93477 12.9944 2.94227 11.0909 2.93987C10.577 2.94257 10.0625 2.94257 9.54922 2.97557C9.17842 3.00377 8.79952 3.03707 8.45062 3.17507C8.19412 3.27497 7.97962 3.47747 7.87192 3.73157C7.71802 4.09007 7.68562 4.48487 7.65562 4.86947C7.62232 5.38307 7.62262 5.89757 7.62022 6.41207C7.61992 6.74747 7.61992 7.08287 7.61992 7.41827C7.62382 7.97807 7.62232 8.53907 7.66762 9.09767C7.70392 9.46487 7.74832 9.84347 7.92322 10.1747C7.88782 10.2857 7.86682 10.4045 7.80322 10.5041C7.57492 10.8476 7.33462 11.1836 7.11472 11.5325C6.66862 11.1332 6.40012 10.571 6.28282 9.99047C6.15412 9.37997 6.14032 8.75357 6.12412 8.13227C6.11842 7.49177 6.11932 6.85097 6.12052 6.21047C6.12832 5.43767 6.12382 4.65827 6.26482 3.89567C6.37342 3.31067 6.62152 2.73347 7.06012 2.32007C7.52092 1.86197 8.15962 1.63847 8.79112 1.54787Z" fill="#4B4B4B"/>
<path d="M9.85607 7.25244C10.2136 7.18404 10.5796 7.27614 10.9033 7.42794C11.332 7.63464 11.6683 8.02854 11.7931 8.48904C11.9308 8.99994 11.9623 9.53934 11.8873 10.0634C11.7295 11.0417 11.5672 12.0197 11.4082 12.9977C11.3905 13.052 11.4316 13.1048 11.4901 13.0889C12.5995 13.0907 13.7089 13.0892 14.8186 13.0895C15.0487 13.0916 15.2818 13.076 15.5083 13.1285C15.9385 13.2191 16.3255 13.487 16.5691 13.8521C16.8091 14.207 16.9078 14.6537 16.8388 15.0767C16.7095 15.8297 16.579 16.5824 16.4491 17.3354C16.3639 17.8052 16.3057 18.2825 16.1533 18.737C15.8341 19.7294 15.2125 20.6177 14.4016 21.2708C13.3627 22.1156 12.0172 22.5629 10.6801 22.5302C9.76037 22.5302 8.84027 22.5302 7.92017 22.5302C7.60697 22.5281 7.28447 22.5527 6.98357 22.4468C6.35417 22.2494 5.87327 21.6596 5.80817 21.0029C5.61287 18.7631 5.42147 16.5227 5.22707 14.2826C5.18597 13.8485 5.31887 13.4015 5.59007 13.0601C5.71457 12.8957 5.88017 12.7706 6.03377 12.6356C6.35057 12.3611 6.66947 12.0893 6.98477 11.813C7.37267 11.4677 7.74497 11.087 7.97957 10.6178C8.17547 10.2401 8.31377 9.83514 8.41187 9.42174C8.51267 9.03744 8.60927 8.65164 8.71187 8.26764C8.85587 7.74564 9.32447 7.34064 9.85607 7.25244ZM9.97067 8.32254C9.85397 8.36274 9.75887 8.46144 9.73037 8.58264C9.62867 8.97384 9.52757 9.36534 9.42617 9.75684C9.28307 10.3394 9.06437 10.9073 8.74967 11.42C8.47307 11.8598 8.10977 12.2378 7.72397 12.5831C7.31957 12.9395 6.90737 13.2875 6.50147 13.6421C6.34937 13.7768 6.26867 13.9856 6.28907 14.1878C6.48197 16.418 6.67307 18.6485 6.86747 20.8784C6.89207 21.1967 7.18247 21.4643 7.50197 21.4625C8.60117 21.4646 9.70037 21.4628 10.7995 21.4634C11.5552 21.4655 12.3124 21.2864 12.9811 20.9333C13.9183 20.447 14.6794 19.6193 15.0592 18.6314C15.2545 18.152 15.3112 17.6342 15.403 17.1287C15.529 16.3985 15.655 15.6686 15.7813 14.939C15.823 14.732 15.76 14.507 15.6112 14.3567C15.4864 14.2226 15.3028 14.1521 15.1207 14.1566C13.8907 14.156 12.6607 14.1569 11.431 14.156C10.9234 14.1545 10.459 13.7591 10.3615 13.2635C10.2985 13.0016 10.3762 12.7376 10.4131 12.4781C10.5487 11.6498 10.684 10.8212 10.8196 9.99294C10.8877 9.59454 10.8724 9.18144 10.7701 8.79054C10.7242 8.60364 10.5835 8.44614 10.4059 8.37414C10.2697 8.31894 10.1152 8.26524 9.97067 8.32254Z" fill="#4B4B4B"/>
<path opacity="0.5" d="M9.54912 2.97564C10.0625 2.94264 10.577 2.94264 11.0909 2.93994C10.9535 3.77994 10.5395 4.56714 9.94902 5.17764C9.32712 5.81784 8.50212 6.26454 7.62012 6.41214C7.62252 5.89764 7.62222 5.38314 7.65552 4.86954C8.55312 4.61004 9.28992 3.87354 9.54912 2.97564Z" fill="#4B4B4B"/>
<path opacity="0.5" d="M16.8012 2.9438C17.3073 2.9378 17.8146 2.9453 18.3204 2.9756C18.4485 3.4007 18.6744 3.79641 18.9825 4.11711C19.3179 4.47051 19.7484 4.7294 20.2143 4.86921C20.2476 5.38221 20.247 5.89641 20.25 6.41001C18.8715 6.18771 17.6502 5.2208 17.0856 3.9476C16.9503 3.6335 16.8279 3.3044 16.791 2.9633L16.8012 2.9438Z" fill="#4B4B4B"/>
<path opacity="0.5" d="M13.6336 4.99872C14.0413 4.94142 14.4676 5.01612 14.8291 5.21442C15.2563 5.44542 15.5902 5.84292 15.7417 6.30432C15.8929 6.75612 15.8692 7.26372 15.6748 7.69872C15.5005 8.09382 15.19 8.42682 14.8072 8.62752C14.4286 8.82882 13.9819 8.89632 13.5601 8.81952C13.0906 8.73702 12.6574 8.47062 12.3685 8.09172C12.0829 7.72212 11.9401 7.24602 11.9749 6.78042C12.0004 6.38952 12.1498 6.00852 12.3961 5.70402C12.6991 5.32302 13.1512 5.06502 13.6336 4.99872ZM13.8079 6.49062C13.5985 6.53412 13.4449 6.74892 13.4725 6.96102C13.4902 7.19322 13.7212 7.37922 13.9519 7.34772C14.1946 7.32882 14.383 7.07772 14.3335 6.83922C14.2984 6.60102 14.041 6.43062 13.8079 6.49062Z" fill="#4B4B4B"/>
<path opacity="0.5" d="M7.62012 7.41846C7.98132 7.47366 8.33111 7.59006 8.66411 7.73856C8.51681 8.22336 8.37162 8.70846 8.22132 9.19206C8.04132 9.09966 7.85561 9.01806 7.66121 8.96166C7.66331 9.00696 7.66542 9.05226 7.66782 9.09786C7.62252 8.53926 7.62402 7.97826 7.62012 7.41846Z" fill="#4B4B4B"/>
<path opacity="0.5" d="M18.1808 8.39897C18.7649 7.89377 19.4867 7.54337 20.2499 7.41797C20.2463 7.97687 20.2484 8.53667 20.2022 9.09377C20.2049 9.04937 20.2076 9.00497 20.21 8.96057C19.3211 9.21497 18.587 9.93737 18.323 10.8242C17.8091 10.8572 17.2943 10.8569 16.7798 10.8599C16.9388 9.90887 17.4533 9.02807 18.1808 8.39897Z" fill="#4B4B4B"/>
<path opacity="0.5" d="M3.39991 13.0956C3.61771 13.0368 3.86191 13.14 3.97621 13.3329C4.06051 13.4619 4.05631 13.6215 4.07071 13.7691C4.28101 16.2384 4.49221 18.7074 4.70281 21.1764C4.71391 21.3474 4.74121 21.5175 4.73851 21.6894C4.72921 22.0551 4.46431 22.3977 4.11091 22.4955C3.78601 22.5957 3.41101 22.4757 3.19951 22.2108C3.06661 22.0485 2.99521 21.8388 2.99971 21.6294C3.00061 18.9594 2.99941 16.2894 3.00031 13.6197C2.99341 13.3803 3.16681 13.1508 3.39991 13.0956Z" fill="#4B4B4B"/>
</svg>
