<svg width="24" height="24" viewBox="0 0 24 24" fill="none" xmlns="http://www.w3.org/2000/svg">
<g opacity="0.5">
<path d="M18.9956 7.73177C19.4249 7.46985 19.5641 6.90618 19.2606 6.50519C18.2323 5.14631 16.8389 4.09806 15.2345 3.48839C13.3453 2.77048 11.271 2.70148 9.33828 3.29226C7.40557 3.88303 5.72433 5.10001 4.5594 6.75147C3.39448 8.40293 2.81207 10.395 2.90394 12.4139C2.99581 14.4328 3.75673 16.3638 5.06683 17.9026C6.37693 19.4414 8.16175 20.5007 10.1401 20.9135C12.1185 21.3263 14.178 21.0692 15.9942 20.1827C17.5365 19.4298 18.829 18.2593 19.7297 16.8127C19.9955 16.3858 19.8057 15.8371 19.3544 15.6152V15.6152C18.9031 15.3934 18.362 15.5834 18.0856 16.0035C17.3706 17.0903 16.3742 17.9707 15.1953 18.5461C13.7424 19.2554 12.0948 19.461 10.5121 19.1308C8.9294 18.8006 7.50155 17.9532 6.45347 16.7221C5.40539 15.491 4.79665 13.9462 4.72315 12.3311C4.64966 10.716 5.11558 9.12234 6.04752 7.80117C6.97946 6.48 8.32446 5.50642 9.87063 5.0338C11.4168 4.56118 13.0763 4.61638 14.5876 5.19071C15.8139 5.65672 16.8861 6.44302 17.6968 7.46033C18.0102 7.85361 18.5664 7.99369 18.9956 7.73177V7.73177Z" fill="#4B4B4B"/>
</g>
</svg>
