<svg width="24" height="24" viewBox="0 0 24 24" fill="none" xmlns="http://www.w3.org/2000/svg">
<path opacity="0.5" d="M11.0409 1.3176C12.1818 1.155 13.3647 1.2855 14.4393 1.7043C15.42 2.0835 16.3083 2.6976 17.0118 3.4785C17.742 4.2858 18.2733 5.2719 18.5406 6.3273C18.5982 6.5553 18.5346 6.8058 18.384 6.9849C18.1983 7.2096 17.8746 7.3053 17.5965 7.2189C17.3436 7.1451 17.139 6.93 17.0805 6.6726C16.8231 5.6727 16.257 4.7568 15.4842 4.0725C14.9775 3.6225 14.3835 3.2706 13.7436 3.0465C12.7467 2.6943 11.6427 2.6553 10.6224 2.9325C9.7281 3.1743 8.9013 3.6597 8.2539 4.3224C7.3362 5.2482 6.7881 6.5277 6.7527 7.8309C6.7461 8.3052 6.7524 8.7792 6.7494 9.2535C6.2496 9.25861 5.7495 9.2682 5.2509 9.303C5.2488 8.862 5.2506 8.421 5.25 7.9803C5.2512 6.8898 5.5218 5.8008 6.0348 4.8384C6.5175 3.9273 7.2129 3.1308 8.0484 2.5269C8.928 1.8891 9.9645 1.4691 11.0409 1.3176Z" fill="#4B4B4B"/>
<path opacity="0.5" d="M11.8272 13.2727C12.258 13.1557 12.7317 13.5037 12.7476 13.9495C12.7536 15.2707 12.7476 16.5919 12.7506 17.9131C12.7878 18.2671 12.5568 18.6298 12.2094 18.7234C11.9667 18.796 11.6889 18.7339 11.5017 18.5629C11.3427 18.424 11.2485 18.2149 11.2503 18.0037C11.2503 16.6627 11.2491 15.3217 11.2506 13.981C11.2533 13.6498 11.5047 13.3444 11.8272 13.2727Z" fill="#4B4B4B"/>
<path d="M5.25074 9.30422C5.74934 9.26942 6.24944 9.25982 6.74924 9.25472C9.64934 9.24542 12.5497 9.25322 15.4498 9.25052C16.2691 9.25202 17.0887 9.24632 17.908 9.26582C18.5554 9.28472 19.2064 9.31502 19.8427 9.44342C20.341 9.54482 20.8321 9.71852 21.2503 10.0131C21.6928 10.3212 22.0474 10.7523 22.2688 11.2437C22.5232 11.8011 22.6234 12.4137 22.6786 13.0197C22.7446 13.7883 22.7464 14.5608 22.7491 15.3318C22.7431 16.4916 22.7722 17.6529 22.6927 18.8109C22.6468 19.41 22.5646 20.0142 22.3459 20.5776C22.1725 21.0246 21.901 21.4356 21.5428 21.7563C21.2446 22.0281 20.8891 22.2339 20.5105 22.3719C20.0056 22.5585 19.4689 22.6377 18.9349 22.6842C18.2545 22.7406 17.5714 22.7457 16.8892 22.7505C13.6297 22.7505 10.3702 22.7505 7.11044 22.7505C6.38864 22.7451 5.66564 22.7406 4.94624 22.6734C4.33934 22.614 3.72524 22.5057 3.17264 22.2372C2.67464 21.9987 2.24504 21.6207 1.94714 21.156C1.67624 20.7372 1.51994 20.2551 1.42694 19.7685C1.32374 19.2231 1.29044 18.6675 1.27034 18.1137C1.24004 17.1564 1.25354 16.1988 1.25024 15.2415C1.25624 14.3901 1.25504 13.536 1.35614 12.6894C1.43504 12.0498 1.59044 11.4027 1.94234 10.8543C2.30834 10.2744 2.88314 9.83912 3.52934 9.61592C4.08194 9.41972 4.66874 9.34562 5.25074 9.30422ZM6.73244 10.755C5.94944 10.7694 5.15774 10.7673 4.38764 10.9278C3.95024 11.0175 3.51164 11.2197 3.25064 11.5965C3.04004 11.8926 2.94584 12.252 2.88404 12.6054C2.79224 13.1586 2.77364 13.7205 2.76044 14.28C2.74424 15.1401 2.75234 16.0002 2.75054 16.8606C2.75984 17.6703 2.75264 18.4845 2.86664 19.2885C2.93744 19.7556 3.06224 20.2497 3.40874 20.5929C3.74444 20.9319 4.22564 21.0585 4.68254 21.1299C5.48594 21.2478 6.30014 21.2409 7.11014 21.2502C10.3594 21.2508 13.6087 21.2505 16.858 21.2505C17.629 21.2427 18.4027 21.2466 19.1689 21.1512C19.6417 21.0858 20.1418 20.9856 20.5135 20.6646C20.8318 20.3958 20.9947 19.9923 21.0775 19.5936C21.211 18.9522 21.2248 18.294 21.241 17.6415C21.2548 16.8015 21.2476 15.9612 21.2491 15.1209C21.2395 14.3055 21.2467 13.4853 21.1276 12.6765C21.055 12.2244 20.9311 11.7471 20.5951 11.4153C20.2687 11.079 19.7965 10.9503 19.3477 10.8774C18.5746 10.7598 17.7898 10.7622 17.0098 10.7529C15.2893 10.7481 13.5688 10.7517 11.8486 10.7505C10.1431 10.7526 8.43764 10.746 6.73244 10.755Z" fill="#4B4B4B"/>
</svg>
