<svg width="24" height="24" viewBox="0 0 24 24" fill="none" xmlns="http://www.w3.org/2000/svg">
<path opacity="0.5" d="M11.041 1.31727C12.1819 1.15467 13.3648 1.28517 14.4394 1.70397C15.4201 2.08317 16.3084 2.69727 17.0119 3.47817C17.7421 4.28547 18.2734 5.27157 18.5407 6.32697C18.5983 6.55497 18.5347 6.80547 18.3841 6.98457C18.1984 7.20927 17.8747 7.30497 17.5966 7.21857C17.3437 7.14477 17.1391 6.92967 17.0806 6.67227C16.8232 5.67237 16.2571 4.75647 15.4843 4.07217C14.9776 3.62217 14.3836 3.27027 13.7437 3.04617C12.7468 2.69397 11.6428 2.65497 10.6225 2.93217C9.72825 3.17397 8.90145 3.65937 8.25405 4.32207C7.33635 5.24787 6.78825 6.52737 6.75285 7.83057C6.74625 8.30487 6.75255 8.77887 6.74955 9.25317C6.24975 9.25828 5.74965 9.26787 5.25105 9.30267C5.24895 8.86167 5.25075 8.42067 5.25015 7.97997C5.25135 6.88947 5.52195 5.80047 6.03495 4.83807C6.51765 3.92697 7.21305 3.13047 8.04855 2.52657C8.92815 1.88877 9.96465 1.46877 11.041 1.31727Z" fill="#4B4B4B"/>
<path opacity="0.5" d="M11.8274 13.2724C12.2582 13.1554 12.7319 13.5034 12.7478 13.9492C12.7538 15.2704 12.7478 16.5916 12.7508 17.9128C12.788 18.2668 12.557 18.6295 12.2096 18.7231C11.9669 18.7957 11.6891 18.7336 11.5019 18.5626C11.3429 18.4237 11.2487 18.2146 11.2505 18.0034C11.2505 16.6624 11.2493 15.3214 11.2508 13.9807C11.2535 13.6495 11.5049 13.3441 11.8274 13.2724Z" fill="#4B4B4B"/>
<path d="M5.25074 9.30422C5.74934 9.26942 6.24944 9.25982 6.74924 9.25472C9.64934 9.24542 12.5497 9.25322 15.4498 9.25052C16.2691 9.25202 17.0887 9.24632 17.908 9.26582C18.5554 9.28472 19.2064 9.31502 19.8427 9.44342C20.341 9.54482 20.8321 9.71852 21.2503 10.0131C21.6928 10.3212 22.0474 10.7523 22.2688 11.2437C22.5232 11.8011 22.6234 12.4137 22.6786 13.0197C22.7446 13.7883 22.7464 14.5608 22.7491 15.3318C22.7431 16.4916 22.7722 17.6529 22.6927 18.8109C22.6468 19.41 22.5646 20.0142 22.3459 20.5776C22.1725 21.0246 21.901 21.4356 21.5428 21.7563C21.2446 22.0281 20.8891 22.2339 20.5105 22.3719C20.0056 22.5585 19.4689 22.6377 18.9349 22.6842C18.2545 22.7406 17.5714 22.7457 16.8892 22.7505C13.6297 22.7505 10.3702 22.7505 7.11044 22.7505C6.38864 22.7451 5.66564 22.7406 4.94624 22.6734C4.33934 22.614 3.72524 22.5057 3.17264 22.2372C2.67464 21.9987 2.24504 21.6207 1.94714 21.156C1.67624 20.7372 1.51994 20.2551 1.42694 19.7685C1.32374 19.2231 1.29044 18.6675 1.27034 18.1137C1.24004 17.1564 1.25354 16.1988 1.25024 15.2415C1.25624 14.3901 1.25504 13.536 1.35614 12.6894C1.43504 12.0498 1.59044 11.4027 1.94234 10.8543C2.30834 10.2744 2.88314 9.83912 3.52934 9.61592C4.08194 9.41972 4.66874 9.34562 5.25074 9.30422ZM6.73244 10.755C5.94944 10.7694 5.15774 10.7673 4.38764 10.9278C3.95024 11.0175 3.51164 11.2197 3.25064 11.5965C3.04004 11.8926 2.94584 12.252 2.88404 12.6054C2.79224 13.1586 2.77364 13.7205 2.76044 14.28C2.74424 15.1401 2.75234 16.0002 2.75054 16.8606C2.75984 17.6703 2.75264 18.4845 2.86664 19.2885C2.93744 19.7556 3.06224 20.2497 3.40874 20.5929C3.74444 20.9319 4.22564 21.0585 4.68254 21.1299C5.48594 21.2478 6.30014 21.2409 7.11014 21.2502C10.3594 21.2508 13.6087 21.2505 16.858 21.2505C17.629 21.2427 18.4027 21.2466 19.1689 21.1512C19.6417 21.0858 20.1418 20.9856 20.5135 20.6646C20.8318 20.3958 20.9947 19.9923 21.0775 19.5936C21.211 18.9522 21.2248 18.294 21.241 17.6415C21.2548 16.8015 21.2476 15.9612 21.2491 15.1209C21.2395 14.3055 21.2467 13.4853 21.1276 12.6765C21.055 12.2244 20.9311 11.7471 20.5951 11.4153C20.2687 11.079 19.7965 10.9503 19.3477 10.8774C18.5746 10.7598 17.7898 10.7622 17.0098 10.7529C15.2893 10.7481 13.5688 10.7517 11.8486 10.7505C10.1431 10.7526 8.43764 10.746 6.73244 10.755Z" fill="#4B4B4B"/>
</svg>
