<svg width="24" height="24" viewBox="0 0 24 24" fill="none" xmlns="http://www.w3.org/2000/svg">
<path opacity="0.5" d="M12.8741 1.27069C14.0332 1.23673 15.1929 1.25405 16.3524 1.24955C17.0351 1.2518 17.718 1.25 18.4002 1.28239C19.1834 1.32377 19.9857 1.39553 20.7125 1.71313C21.381 2.00171 21.9368 2.53997 22.2433 3.20081C22.5747 3.90664 22.6581 4.69569 22.704 5.46495C22.7438 6.20677 22.7418 6.94972 22.7434 7.69221C22.7431 10.4437 22.7431 13.1951 22.7431 15.9466C22.7386 16.989 22.7584 18.0338 22.6628 19.0729C22.5884 19.8348 22.4249 20.6196 21.9743 21.2548C21.7305 21.6 21.4129 21.8929 21.0487 22.1075C20.3515 22.5175 19.5311 22.6336 18.7374 22.6909C17.6213 22.762 16.502 22.7379 15.3843 22.7433C14.2986 22.7382 13.2108 22.7613 12.1271 22.6815C11.4296 22.6246 10.7179 22.5146 10.0899 22.1893C9.47208 21.8726 8.97499 21.333 8.70327 20.6947C8.3949 19.9794 8.32292 19.1919 8.28108 18.4224C8.25836 17.9355 8.25027 17.4478 8.25049 16.9606C8.25859 16.6052 8.5546 16.2872 8.90751 16.2505C9.23478 16.2046 9.57443 16.405 9.69409 16.7128C9.76562 16.8756 9.74672 17.0564 9.75077 17.2296C9.7573 17.7992 9.76607 18.3696 9.8214 18.9369C9.86459 19.3442 9.92487 19.7581 10.0953 20.1344C10.2375 20.4511 10.4905 20.7163 10.8023 20.8695C11.157 21.0447 11.5527 21.1108 11.9418 21.1576C12.7041 21.2404 13.472 21.237 14.2376 21.2428C15.385 21.2424 16.5324 21.2507 17.6798 21.2338C18.2605 21.2203 18.844 21.2028 19.4178 21.1047C19.7887 21.0379 20.1688 20.9322 20.4669 20.6909C20.7037 20.503 20.8706 20.2387 20.9684 19.9549C21.1045 19.5633 21.1527 19.1481 21.1875 18.7369C21.2345 18.1237 21.2384 17.5083 21.2422 16.8936C21.2458 13.864 21.2429 10.8342 21.2438 7.80467C21.2406 6.98615 21.2489 6.16651 21.1945 5.34934C21.159 4.89183 21.1117 4.42758 20.9523 3.99391C20.8389 3.68216 20.6331 3.401 20.3535 3.21903C20.0451 3.01682 19.6787 2.93 19.3193 2.87196C18.7322 2.78244 18.1373 2.76827 17.5448 2.7568C16.3749 2.74398 15.2048 2.7496 14.035 2.75095C13.3818 2.75613 12.7275 2.75995 12.0765 2.82113C11.662 2.86477 11.24 2.9237 10.8572 3.09712C10.5515 3.23433 10.2935 3.47433 10.1383 3.77146C9.96985 4.09401 9.89878 4.45614 9.84952 4.81356C9.75347 5.5592 9.75954 6.31249 9.74582 7.06263C9.72288 7.44771 9.36074 7.76936 8.97566 7.74754C8.59891 7.74439 8.26264 7.4169 8.25094 7.04014C8.24937 6.58286 8.25791 6.12535 8.27658 5.66852C8.29975 5.16332 8.33844 4.65701 8.43876 4.16081C8.53008 3.71028 8.67988 3.26649 8.92528 2.87556C9.27752 2.30739 9.82837 1.87193 10.4541 1.64115C11.2256 1.35279 12.059 1.30375 12.8741 1.27069Z" fill="#4B4B4B"/>
<path d="M11.7248 15.7099C11.4353 15.8061 11.0948 15.7011 10.909 15.4591C10.718 15.2238 10.6953 14.8704 10.8532 14.612C10.9247 14.484 11.0453 14.3972 11.1533 14.3029C11.7588 13.7838 12.3643 13.2649 12.9698 12.746C9.31064 12.7455 5.65148 12.7462 1.99255 12.7455C1.63109 12.7498 1.29931 12.4554 1.25793 12.0971C1.20597 11.7619 1.41448 11.4117 1.73253 11.2959C1.82228 11.2608 1.91877 11.2452 2.01459 11.2461C5.66633 11.2464 9.31806 11.2461 12.9698 11.2464C12.3141 10.6836 11.6573 10.1217 11.0017 9.55869C10.8226 9.40372 10.7275 9.15967 10.7515 8.92439C10.7756 8.64323 10.9742 8.38681 11.2401 8.29279C11.4875 8.19967 11.7817 8.2514 11.9819 8.42415C13.1048 9.3864 14.2274 10.3489 15.3502 11.3112C15.4721 11.4139 15.6028 11.5167 15.6701 11.6661C15.821 11.9607 15.7423 12.3488 15.4888 12.5615C14.3583 13.5312 13.2271 14.5002 12.0964 15.4697C11.9859 15.5679 11.8703 15.6687 11.7248 15.7099Z" fill="#4B4B4B"/>
</svg>
