<svg width="24" height="24" viewBox="0 0 24 24" fill="none" xmlns="http://www.w3.org/2000/svg">
<path opacity="0.5" d="M12.8742 1.27069C14.0332 1.23673 15.193 1.25405 16.3525 1.24955C17.0352 1.2518 17.718 1.25 18.4003 1.28239C19.1835 1.32377 19.9858 1.39553 20.7125 1.71313C21.381 2.00171 21.9368 2.53997 22.2434 3.20081C22.5747 3.90664 22.6582 4.69569 22.7041 5.46495C22.7439 6.20677 22.7419 6.94972 22.7434 7.69221C22.7432 10.4437 22.7432 13.1951 22.7432 15.9466C22.7387 16.989 22.7585 18.0338 22.6629 19.0729C22.5885 19.8348 22.4249 20.6196 21.9744 21.2548C21.7306 21.6 21.413 21.8929 21.0488 22.1075C20.3515 22.5175 19.5312 22.6336 18.7374 22.6909C17.6213 22.762 16.5021 22.7379 15.3844 22.7433C14.2987 22.7382 13.2109 22.7613 12.1272 22.6815C11.4297 22.6246 10.718 22.5146 10.09 22.1893C9.47208 21.8726 8.97499 21.333 8.70328 20.6947C8.3949 19.9794 8.32292 19.1919 8.28108 18.4224C8.25836 17.9355 8.25027 17.4478 8.25049 16.9606C8.25859 16.6052 8.5546 16.2872 8.90751 16.2505C9.23478 16.2046 9.57443 16.405 9.69409 16.7128C9.76562 16.8756 9.74672 17.0564 9.75077 17.2296C9.7573 17.7992 9.76607 18.3696 9.8214 18.9369C9.86459 19.3442 9.92487 19.7581 10.0954 20.1344C10.2376 20.4511 10.4906 20.7163 10.8024 20.8695C11.1571 21.0447 11.5527 21.1108 11.9419 21.1576C12.7041 21.2404 13.4721 21.237 14.2377 21.2428C15.3851 21.2424 16.5324 21.2507 17.6798 21.2338C18.2606 21.2203 18.844 21.2028 19.4178 21.1047C19.7888 21.0379 20.1689 20.9322 20.4669 20.6909C20.7038 20.503 20.8707 20.2387 20.9685 19.9549C21.1046 19.5633 21.1527 19.1481 21.1876 18.7369C21.2346 18.1237 21.2384 17.5083 21.2422 16.8936C21.2458 13.864 21.2429 10.8342 21.2438 7.80467C21.2407 6.98615 21.249 6.16651 21.1946 5.34934C21.159 4.89183 21.1118 4.42758 20.9523 3.99391C20.8389 3.68216 20.6331 3.401 20.3535 3.21903C20.0452 3.01682 19.6788 2.93 19.3193 2.87196C18.7323 2.78244 18.1373 2.76827 17.5449 2.7568C16.375 2.74398 15.2049 2.7496 14.035 2.75095C13.3819 2.75613 12.7275 2.75995 12.0766 2.82113C11.662 2.86477 11.2401 2.9237 10.8572 3.09712C10.5516 3.23433 10.2936 3.47433 10.1384 3.77146C9.96985 4.09401 9.89878 4.45614 9.84952 4.81356C9.75347 5.5592 9.75955 6.31249 9.74582 7.06263C9.72288 7.44771 9.36075 7.76936 8.97567 7.74754C8.59891 7.74439 8.26264 7.4169 8.25094 7.04014C8.24937 6.58286 8.25791 6.12535 8.27658 5.66852C8.29975 5.16332 8.33844 4.65701 8.43876 4.16081C8.53008 3.71028 8.67988 3.26649 8.92528 2.87556C9.27752 2.30739 9.82837 1.87193 10.4542 1.64115C11.2257 1.35279 12.059 1.30375 12.8742 1.27069Z" fill="#4B4B4B"/>
<path d="M5.27125 8.28253C5.56073 8.18626 5.90127 8.2913 6.08707 8.53333C6.27803 8.7686 6.30075 9.12197 6.14285 9.38041C6.07132 9.5084 5.95076 9.59522 5.84279 9.68947C5.23728 10.2086 4.63177 10.7275 4.02626 11.2464C7.68542 11.2469 11.3446 11.2462 15.0035 11.2469C15.3649 11.2426 15.6967 11.537 15.7381 11.8953C15.7901 12.2305 15.5816 12.5807 15.2635 12.6965C15.1738 12.7316 15.0773 12.7471 14.9814 12.7462C11.3297 12.746 7.67799 12.7462 4.02626 12.746C4.68193 13.3088 5.33873 13.8707 5.9944 14.4337C6.17344 14.5886 6.26858 14.8327 6.24452 15.068C6.22045 15.3491 6.02184 15.6055 5.75597 15.6996C5.50855 15.7927 5.21434 15.741 5.01415 15.5682C3.8913 14.606 2.76868 13.6435 1.64583 12.6812C1.52392 12.5784 1.39323 12.4757 1.32598 12.3263C1.17505 12.0316 1.25378 11.6436 1.50727 11.4309C2.63777 10.4612 3.76894 9.4922 4.89966 8.52276C5.0101 8.42446 5.12572 8.32369 5.27125 8.28253Z" fill="#4B4B4B"/>
</svg>
