<svg width="24" height="24" viewBox="0 0 24 24" fill="none" xmlns="http://www.w3.org/2000/svg">
<path d="M5.41012 1.41718C6.26092 1.29718 7.12132 1.27378 7.97902 1.25908C9.46972 1.24258 10.9604 1.25428 12.4514 1.25098C13.4603 1.25218 14.4695 1.24828 15.4787 1.25308C16.2992 1.26058 17.1203 1.27198 17.9381 1.34278C18.6326 1.40518 19.3313 1.51198 19.9853 1.76218C20.7506 2.04838 21.4256 2.57818 21.8645 3.26968C22.1681 3.74308 22.358 4.28068 22.4777 4.82758C22.6133 5.45008 22.6685 6.08638 22.7024 6.72148C22.7411 7.48078 22.7456 8.24158 22.7492 9.00178C22.7489 9.96088 22.7492 10.9203 22.7489 11.8794C22.7432 12.6396 22.7396 13.4013 22.6613 14.1582C22.598 14.7423 22.484 15.3315 22.2194 15.8607C22.0034 16.2978 21.6788 16.6803 21.2831 16.9653C20.9045 17.2383 20.4635 17.4138 20.0111 17.5206C19.4414 17.6556 18.8549 17.6982 18.2714 17.7237C17.5112 17.754 16.7504 17.7489 15.9899 17.751C14.9096 17.751 13.8293 17.751 12.749 17.751C12.2495 17.751 11.75 17.751 11.2502 17.751C9.80002 17.7495 8.34952 17.7537 6.89932 17.748C6.13942 17.7405 5.37712 17.7321 4.62232 17.6358C4.00762 17.5542 3.38722 17.3994 2.85952 17.0622C2.29462 16.707 1.86352 16.1547 1.63552 15.5292C1.35442 14.7669 1.30402 13.9458 1.27132 13.1415C1.24282 12.3021 1.25182 11.4621 1.25032 10.6224C1.25152 9.73168 1.24552 8.84068 1.25902 7.94998C1.27192 7.18798 1.29382 6.42478 1.38292 5.66728C1.45972 5.03038 1.58782 4.39198 1.84912 3.80278C2.17222 3.06208 2.73652 2.42818 3.44152 2.03158C4.04452 1.68838 4.72792 1.51588 5.41012 1.41718ZM5.85172 2.87188C5.38492 2.92918 4.91572 3.01228 4.47862 3.19168C4.13752 3.33028 3.82582 3.54538 3.58642 3.82588C3.23662 4.22998 3.06322 4.75168 2.96212 5.26798C2.82622 5.97358 2.79352 6.69388 2.77102 7.41028C2.74342 8.42038 2.75152 9.43078 2.75032 10.4409C2.75122 11.0808 2.74732 11.7207 2.75452 12.3606C2.76082 12.8607 2.77162 13.3617 2.81542 13.8603C2.85712 14.2806 2.91322 14.7075 3.07912 15.0996C3.21412 15.4206 3.45922 15.6951 3.76882 15.8568C4.16152 16.0623 4.60792 16.1268 5.04292 16.1748C5.91952 16.2588 6.80122 16.2441 7.68052 16.251C10.8005 16.2492 13.9208 16.2543 17.0408 16.248C17.8532 16.2372 18.6719 16.2432 19.4747 16.1019C19.9286 16.0209 20.3987 15.8511 20.6933 15.4776C21.0542 15.0216 21.1241 14.4192 21.1838 13.8603C21.2276 13.3617 21.2384 12.8607 21.2447 12.3606C21.2516 11.0001 21.2516 9.63958 21.2444 8.27908C21.2336 7.46428 21.2207 6.64768 21.1262 5.83738C21.0614 5.31898 20.9654 4.79458 20.7368 4.32058C20.5259 3.88348 20.1728 3.51568 19.7402 3.29458C19.229 3.03028 18.653 2.93248 18.0872 2.86498C17.3414 2.78278 16.5905 2.76748 15.8408 2.75698C14.8007 2.74588 13.7603 2.75278 12.7199 2.75098C11.2787 2.75278 9.83782 2.74678 8.39662 2.75458C7.54762 2.76418 6.69622 2.77468 5.85172 2.87188Z" fill="#4B4B4B"/>
<path opacity="0.5" d="M15.8989 4.82563C15.8929 4.52863 16.1398 4.25503 16.4359 4.23103C16.7419 4.19083 17.0503 4.42693 17.0908 4.73293C17.1082 4.91383 17.0941 5.09623 17.0986 5.27773C17.5489 5.27803 17.9989 5.27713 18.4492 5.27803C18.6493 5.27563 18.844 5.38363 18.9523 5.55133C19.0756 5.73793 19.081 5.99473 18.9637 6.18553C18.8584 6.36493 18.6553 6.48073 18.4471 6.47743C17.9977 6.47833 17.548 6.47743 17.0986 6.47773C17.0917 6.67333 17.1148 6.87103 17.083 7.06483C17.0209 7.35193 16.7263 7.56313 16.4341 7.52413C16.1386 7.49893 15.8917 7.22593 15.8989 6.92863C15.8983 6.22783 15.8983 5.52673 15.8989 4.82563Z" fill="#4B4B4B"/>
<path opacity="0.5" d="M5.53387 5.29775C5.58817 5.28545 5.64397 5.28245 5.69917 5.28185C8.43997 5.28275 11.1808 5.28185 13.9216 5.28215C14.0746 5.28365 14.2372 5.26625 14.3794 5.33585C14.5999 5.43335 14.7466 5.67245 14.7304 5.91365C14.7211 6.22235 14.4406 6.49025 14.131 6.48185C11.3704 6.48275 8.60977 6.48185 5.84917 6.48215C5.70637 6.48215 5.55517 6.49355 5.42287 6.42845C5.20207 6.33095 5.05507 6.09155 5.07157 5.85035C5.08147 5.59055 5.28007 5.35295 5.53387 5.29775Z" fill="#4B4B4B"/>
<path opacity="0.5" d="M6.91067 8.06797C6.95117 7.77397 7.23707 7.54177 7.53347 7.56397C7.84217 7.57267 8.11067 7.85287 8.10257 8.16247C8.10317 8.86237 8.10317 9.56257 8.10257 10.2625C8.10467 10.4353 8.02577 10.6054 7.89467 10.7176C7.73417 10.8604 7.49357 10.9021 7.29347 10.8259C7.07387 10.7458 6.91097 10.5289 6.90437 10.294C6.89957 10.114 6.90467 9.93367 6.90287 9.75337C6.45257 9.75277 6.00227 9.75397 5.55197 9.75307C5.35247 9.75547 5.15897 9.64807 5.05037 9.48187C4.92197 9.28957 4.92017 9.02197 5.04827 8.82907C5.15537 8.65957 5.35127 8.55127 5.55197 8.55367C6.00227 8.55277 6.45257 8.55397 6.90287 8.55337C6.90677 8.39167 6.89387 8.22907 6.91067 8.06797Z" fill="#4B4B4B"/>
<path opacity="0.5" d="M9.72933 8.53934C9.78453 8.52674 9.84183 8.52404 9.89853 8.52344C12.7083 8.52434 15.5181 8.52314 18.3279 8.52404C18.6135 8.51804 18.8802 8.74544 18.9195 9.02864C18.9678 9.29564 18.807 9.57974 18.555 9.67904C18.4266 9.73514 18.2838 9.72314 18.1473 9.72374C15.3867 9.72344 12.6264 9.72434 9.86583 9.72344C9.57993 9.72944 9.31323 9.50144 9.27453 9.21824C9.21873 8.91854 9.43173 8.60294 9.72933 8.53934Z" fill="#4B4B4B"/>
<path opacity="0.75" d="M2.75781 12.3596C8.92131 12.3593 15.0845 12.3593 21.248 12.3596C21.2417 12.8597 21.2309 13.3607 21.1871 13.8593C15.0644 13.8593 8.94171 13.8593 2.81871 13.8593C2.77491 13.3607 2.76411 12.8597 2.75781 12.3596Z" fill="#4B4B4B"/>
<path d="M11.2509 17.75C11.7507 17.75 12.2502 17.75 12.7497 17.75C12.7512 18.9158 12.7497 20.0819 12.7506 21.248C13.8303 21.2495 14.9103 21.2477 15.99 21.2486C16.2078 21.2453 16.4241 21.3416 16.566 21.5072C16.7553 21.7178 16.8036 22.04 16.6884 22.298C16.5771 22.5611 16.305 22.7474 16.0182 22.7483C13.3485 22.7495 10.6791 22.748 8.00936 22.7492C7.78136 22.7537 7.55546 22.6463 7.41416 22.4678C7.27286 22.2929 7.21766 22.0529 7.26866 21.8342C7.32116 21.59 7.50596 21.3806 7.74026 21.2957C7.89326 21.2345 8.06096 21.2498 8.22176 21.2486C9.23126 21.2483 10.2405 21.2492 11.25 21.248C11.2512 20.0819 11.2491 18.9158 11.2509 17.75Z" fill="#4B4B4B"/>
</svg>
