<svg width="24" height="24" viewBox="0 0 24 24" fill="none" xmlns="http://www.w3.org/2000/svg">
<path d="M10.5201 5.03303C11.5673 4.9815 12.6163 5.00037 13.6644 4.99618C14.4875 5.00247 15.313 4.99768 16.1321 5.08757C16.6391 5.14749 17.1539 5.24697 17.6048 5.49596C18.0351 5.73146 18.3802 6.11348 18.5786 6.56142C18.7922 7.04082 18.8698 7.56667 18.918 8.08532C18.9846 8.87393 18.9825 9.66584 18.9849 10.4566C18.9819 11.4262 18.9971 12.3963 18.9537 13.3653C18.9231 13.9403 18.8773 14.5219 18.7086 15.0756C18.575 15.5187 18.3305 15.9355 17.9721 16.2337C17.6365 16.5228 17.2144 16.6894 16.7871 16.788C16.6733 17.3042 16.4422 17.8106 16.0446 18.1695C15.7019 18.4913 15.256 18.6792 14.8024 18.7823C14.2028 18.9183 13.5862 18.948 12.9738 18.9686C12.0452 18.9938 11.1161 18.9821 10.1873 18.9851C9.42172 18.9791 8.65408 18.9794 7.89183 18.8988C7.38756 18.8422 6.8755 18.7475 6.42187 18.5099C5.98651 18.284 5.63145 17.9101 5.42471 17.4657C5.1958 16.9794 5.1149 16.4401 5.06486 15.9095C4.99805 15.1421 5.00074 14.3712 4.99625 13.6017C4.99745 12.8131 4.99145 12.0245 5.00733 11.2359C5.02321 10.6037 5.04539 9.96757 5.16404 9.34464C5.26082 8.83378 5.45048 8.32352 5.81093 7.9382C6.17048 7.5394 6.67775 7.30929 7.1946 7.19363C7.30696 6.68277 7.53438 6.1821 7.92449 5.82345C8.21453 5.54899 8.58067 5.36562 8.96239 5.25596C9.46846 5.11034 9.9964 5.0633 10.5201 5.03303ZM10.3979 6.54195C10.0497 6.56861 9.69857 6.60217 9.36209 6.70075C9.17033 6.75648 8.98187 6.85146 8.86022 7.01506C9.77198 6.98779 10.684 6.99588 11.5958 6.99438C12.406 7.00008 13.218 6.99528 14.0249 7.07408C14.5465 7.12951 15.0768 7.2203 15.5476 7.463C16.0036 7.69551 16.3724 8.09011 16.5792 8.55813C16.8075 9.06989 16.8821 9.63318 16.9282 10.1869C16.9852 10.9348 16.9837 11.6856 16.987 12.435C16.9855 13.3309 16.9936 14.2268 16.9663 15.1223C17.1979 14.9492 17.2824 14.6576 17.339 14.3877C17.4544 13.7944 17.464 13.1874 17.4783 12.5851C17.4906 11.6973 17.4876 10.8095 17.4843 9.92172C17.4762 9.24187 17.4762 8.55903 17.3876 7.88367C17.3432 7.59423 17.2965 7.29251 17.1368 7.04112C17.0091 6.84637 16.7874 6.74539 16.5702 6.68667C16.1738 6.5812 15.7621 6.55214 15.354 6.52787C14.5714 6.49011 13.7873 6.4973 13.0037 6.49431C12.1351 6.4988 11.2653 6.48562 10.3979 6.54195ZM8.52464 8.53236C8.0773 8.56562 7.61767 8.59288 7.1961 8.75978C6.97078 8.84697 6.80389 9.04442 6.73108 9.27184C6.57707 9.72906 6.5531 10.2163 6.52464 10.6942C6.49198 11.4139 6.49737 12.1342 6.49438 12.8545C6.49737 13.6725 6.48868 14.491 6.52584 15.3087C6.55131 15.7543 6.57947 16.2058 6.70621 16.6363C6.77063 16.8608 6.90426 17.0774 7.11969 17.1838C7.41872 17.3327 7.7567 17.3725 8.08449 17.4124C8.86262 17.49 9.64584 17.4801 10.427 17.487C11.336 17.4846 12.2457 17.4951 13.1545 17.463C13.6219 17.4411 14.0935 17.4166 14.5486 17.3009C14.7889 17.2401 15.0379 17.1259 15.164 16.9C15.3121 16.6352 15.3561 16.3283 15.398 16.0317C15.4804 15.3453 15.4789 14.6528 15.4867 13.9625C15.4879 12.9938 15.4957 12.0251 15.4721 11.057C15.4547 10.5465 15.4349 10.0317 15.327 9.53071C15.2689 9.27483 15.1754 8.99768 14.945 8.84607C14.6876 8.68008 14.3757 8.63483 14.0788 8.58959C13.3145 8.49371 12.5426 8.5021 11.7738 8.49431C10.6906 8.5 9.60659 8.47543 8.52464 8.53236Z" fill="#4B4B4B"/>
</svg>
