<svg width="24" height="24" viewBox="0 0 24 24" fill="none" xmlns="http://www.w3.org/2000/svg">
<path d="M9.00476 1.2693C10.3818 1.24141 11.7592 1.25108 13.1367 1.25018C14.2991 1.25536 15.4629 1.25851 16.6231 1.34195C17.519 1.41033 18.4216 1.52527 19.2725 1.82645C19.93 2.05768 20.5454 2.42072 21.0403 2.91421C21.5216 3.38634 21.8853 3.97138 22.1222 4.60119C22.4342 5.4242 22.5603 6.30323 22.6352 7.17573C22.7518 8.63418 22.7374 10.0987 22.7434 11.5607C22.7412 12.7907 22.7493 14.0208 22.7167 15.2505C22.6881 16.1893 22.6418 17.1316 22.4791 18.0583C22.3446 18.8161 22.1193 19.5691 21.7142 20.2289C21.2915 20.9214 20.6763 21.4939 19.957 21.8684C19.2361 22.2465 18.4329 22.435 17.6312 22.5463C16.6559 22.6788 15.6705 22.7103 14.6876 22.7292C14.1257 22.7388 13.5636 22.7411 13.0015 22.7424C12.8051 22.7449 12.6101 22.6655 12.4707 22.5276C12.2633 22.329 12.1902 22.0065 12.2907 21.7377C12.3879 21.4583 12.6641 21.2534 12.9601 21.2437C14.0992 21.2374 15.2391 21.239 16.3764 21.165C16.8863 21.1301 17.3962 21.0793 17.8989 20.9835C18.3517 20.8962 18.8022 20.7725 19.215 20.5633C19.8259 20.2612 20.3236 19.7435 20.608 19.1247C20.9283 18.4319 21.0432 17.6674 21.1208 16.9147C21.2319 15.7339 21.2339 14.5467 21.2418 13.3617C21.2425 11.9467 21.2513 10.5315 21.2256 9.11665C21.2027 8.158 21.1701 7.19553 21.0117 6.2479C20.895 5.57536 20.7038 4.89382 20.294 4.33667C20.056 4.01345 19.7528 3.73836 19.4071 3.53412C19.0562 3.32606 18.6679 3.18863 18.2734 3.09078C17.4688 2.89532 16.6391 2.83639 15.8145 2.79635C14.5254 2.74192 13.2348 2.75181 11.945 2.74889C10.5194 2.75361 9.09226 2.73742 7.66868 2.82402C7.12795 2.86001 6.58722 2.91264 6.05503 3.01656C5.61012 3.1045 5.16791 3.22889 4.76304 3.43673C4.22905 3.70529 3.77942 4.13783 3.49061 4.66124C3.22969 5.13135 3.08799 5.65678 2.99239 6.18289C2.85046 6.98589 2.80795 7.80216 2.77983 8.61573C2.75486 9.41671 2.75217 10.2186 2.74924 11.02C2.74632 11.3781 2.45031 11.7024 2.0947 11.7405C1.7645 11.7886 1.42148 11.585 1.30317 11.274C1.26515 11.1799 1.24874 11.078 1.25008 10.977C1.25256 10.0845 1.25616 9.19155 1.29057 8.29971C1.32341 7.49581 1.37717 6.69011 1.52023 5.89723C1.62864 5.30319 1.79127 4.71433 2.05668 4.17C2.45211 3.3436 3.10553 2.64362 3.90471 2.19556C4.61481 1.79361 5.41713 1.5878 6.21878 1.46679C7.14077 1.33026 8.074 1.29202 9.00476 1.2693Z" fill="#4B4B4B"/>
<path d="M12.9793 6.29691C13.065 6.26362 13.157 6.2481 13.2488 6.24833C14.5086 6.24923 15.7682 6.2472 17.0281 6.24923C17.4066 6.25575 17.7397 6.59225 17.7438 6.97058C17.7447 8.23896 17.7449 9.50734 17.7436 10.7757C17.7393 11.1619 17.3918 11.5002 17.0058 11.4964C16.6187 11.5117 16.2617 11.1813 16.2466 10.7944C16.2419 10.1329 16.2464 9.47112 16.2446 8.8096C15.0014 10.0512 13.7603 11.2946 12.5169 12.536C12.2521 12.803 11.7845 12.8158 11.5058 12.5632C11.204 12.3145 11.1594 11.8232 11.4134 11.5252C11.5706 11.3529 11.742 11.1939 11.9051 11.0267C12.9978 9.9338 14.0909 8.84132 15.1834 7.74794C14.5313 7.74726 13.8793 7.74884 13.2274 7.74726C12.8734 7.74614 12.5499 7.45935 12.5045 7.10869C12.4471 6.77039 12.657 6.4132 12.9793 6.29691Z" fill="#4B4B4B"/>
<path opacity="0.5" d="M4.44162 13.2652C5.03813 13.2407 5.6351 13.247 6.23206 13.2454C6.80181 13.2479 7.37268 13.2443 7.9413 13.2886C8.37632 13.3241 8.8156 13.3921 9.21935 13.5653C9.55292 13.707 9.8532 13.9276 10.084 14.2077C10.2921 14.4571 10.4392 14.7534 10.533 15.0633C10.6549 15.4662 10.6974 15.8879 10.7208 16.3065C10.7471 16.8013 10.7455 17.2969 10.7469 17.7922C10.746 18.3243 10.75 18.8567 10.7336 19.3887C10.7192 19.7956 10.6947 20.2041 10.6139 20.604C10.5465 20.9349 10.4349 21.2603 10.2536 21.5469C10.0336 21.8971 9.7142 22.1837 9.34329 22.3663C8.97755 22.5474 8.5729 22.6324 8.16983 22.6781C7.42869 22.7561 6.68215 22.739 5.93808 22.7433C5.40634 22.742 4.87416 22.7453 4.34288 22.7188C3.94273 22.6974 3.54055 22.6599 3.15277 22.5539C2.84304 22.4693 2.54411 22.336 2.28792 22.1409C1.99056 21.9165 1.75146 21.6166 1.59671 21.2779C1.43656 20.9315 1.35896 20.5534 1.31555 20.1762C1.25999 19.6759 1.25459 19.1721 1.25054 18.6692C1.24874 18.0992 1.24717 17.5292 1.25437 16.9592C1.26269 16.5017 1.27596 16.0422 1.34569 15.5892C1.40574 15.2007 1.51596 14.8139 1.72132 14.476C1.94378 14.1074 2.27487 13.8062 2.66198 13.6179C3.21373 13.3493 3.83723 13.2938 4.44162 13.2652ZM4.35142 14.7709C4.00143 14.7972 3.63772 14.817 3.31495 14.9682C3.08552 15.0755 2.94246 15.306 2.88443 15.5456C2.77422 15.9779 2.76882 16.4275 2.75577 16.8708C2.74565 17.5355 2.7479 18.2002 2.75195 18.8648C2.75937 19.3179 2.7623 19.7738 2.83607 20.2221C2.87588 20.4427 2.93279 20.674 3.08552 20.846C3.22025 21.0015 3.41954 21.0791 3.615 21.1247C3.94138 21.1994 4.27742 21.2165 4.61099 21.2298C5.1353 21.2466 5.66007 21.2423 6.18438 21.2437C6.67382 21.2412 7.16372 21.245 7.65272 21.2174C7.97527 21.1944 8.30546 21.1713 8.60979 21.053C8.81695 20.9747 8.98408 20.8044 9.06055 20.5966C9.18134 20.2763 9.20226 19.9297 9.2243 19.5911C9.25354 18.9845 9.24522 18.3767 9.24747 17.7697C9.24297 17.1914 9.25264 16.6117 9.19663 16.0357C9.16604 15.7736 9.1305 15.5026 9.00117 15.2684C8.89928 15.0842 8.71438 14.9605 8.516 14.9014C8.23708 14.8148 7.94378 14.7909 7.65407 14.7713C7.10546 14.741 6.55573 14.7473 6.00668 14.745C5.45493 14.7473 4.90273 14.741 4.35142 14.7709Z" fill="#4B4B4B"/>
</svg>
