<svg width="24" height="25" viewBox="0 0 24 25" fill="none" xmlns="http://www.w3.org/2000/svg">
<path d="M9.00462 1.76927C10.3816 1.74138 11.7591 1.75105 13.1366 1.75015C14.299 1.75533 15.4628 1.75848 16.623 1.84192C17.5189 1.9103 18.4215 2.02524 19.2724 2.32642C19.9299 2.55765 20.5453 2.92069 21.0402 3.41418C21.5215 3.88631 21.8852 4.47135 22.1221 5.10116C22.434 5.92417 22.5602 6.8032 22.6351 7.6757C22.7516 9.13415 22.7373 10.5987 22.7433 12.0607C22.7411 13.2906 22.7492 14.5208 22.7166 15.7505C22.688 16.6893 22.6417 17.6315 22.479 18.5583C22.3445 19.316 22.1191 20.0691 21.714 20.7288C21.2914 21.4214 20.6762 21.9938 19.9569 22.3683C19.236 22.7464 18.4328 22.9349 17.6311 23.0463C16.6558 23.1788 15.6704 23.2102 14.6875 23.2291C14.1256 23.2388 13.5635 23.2411 13.0014 23.2424C12.805 23.2449 12.61 23.1655 12.4706 23.0276C12.2632 22.829 12.1901 22.5064 12.2906 22.2377C12.3878 21.9583 12.664 21.7534 12.96 21.7437C14.0991 21.7374 15.239 21.739 16.3762 21.665C16.8862 21.6301 17.3961 21.5793 17.8988 21.4835C18.3516 21.3962 18.8021 21.2725 19.2149 21.0633C19.8258 20.7612 20.3235 20.2434 20.6078 19.6246C20.9281 18.9319 21.0431 18.1673 21.1207 17.4147C21.2318 16.2338 21.2338 15.0466 21.2417 13.8617C21.2424 12.4467 21.2511 11.0314 21.2255 9.61662C21.2026 8.65797 21.1699 7.6955 21.0116 6.74787C20.8949 6.07533 20.7037 5.39379 20.2938 4.83664C20.0559 4.51341 19.7527 4.23833 19.4069 4.03409C19.0561 3.82603 18.6678 3.6886 18.2733 3.59075C17.4687 3.39529 16.639 3.33636 15.8144 3.29632C14.5253 3.24189 13.2346 3.25178 11.9449 3.24886C10.5193 3.25358 9.09211 3.23739 7.66853 3.32399C7.1278 3.35998 6.58707 3.41261 6.05489 3.51653C5.60998 3.60447 5.16777 3.72886 4.76289 3.93669C4.22891 4.20526 3.77927 4.6378 3.49046 5.16121C3.22955 5.63132 3.08784 6.15675 2.99225 6.68286C2.85031 7.48586 2.8078 8.30213 2.77969 9.1157C2.75472 9.91668 2.75202 10.7186 2.7491 11.52C2.74617 11.8781 2.45016 12.2024 2.09455 12.2404C1.76435 12.2886 1.42134 12.085 1.30302 11.7739C1.26501 11.6799 1.24859 11.578 1.24994 11.477C1.25241 10.5845 1.25601 9.69152 1.29043 8.79968C1.32327 7.99578 1.37702 7.19008 1.52008 6.3972C1.6285 5.80316 1.79112 5.2143 2.05654 4.66997C2.45196 3.84357 3.10538 3.14359 3.90456 2.69553C4.61466 2.29358 5.41699 2.08777 6.21864 1.96676C7.14062 1.83023 8.07386 1.79199 9.00462 1.76927Z" fill="#4B4B4B"/>
<path d="M12.9791 6.79691C13.0648 6.76362 13.1568 6.7481 13.2486 6.74833C14.5084 6.74923 15.768 6.7472 17.0279 6.74923C17.4064 6.75575 17.7395 7.09225 17.7436 7.47058C17.7445 8.73896 17.7447 10.0073 17.7434 11.2757C17.7391 11.6619 17.3916 12.0002 17.0056 11.9964C16.6185 12.0117 16.2615 11.6813 16.2464 11.2944C16.2417 10.6329 16.2462 9.97112 16.2444 9.3096C15.0012 10.5512 13.7601 11.7946 12.5167 13.036C12.2519 13.303 11.7843 13.3158 11.5056 13.0632C11.2038 12.8145 11.1592 12.3232 11.4132 12.0252C11.5704 11.8529 11.7418 11.6939 11.9049 11.5267C12.9976 10.4338 14.0907 9.34132 15.1832 8.24794C14.5311 8.24726 13.8791 8.24884 13.2272 8.24726C12.8732 8.24614 12.5497 7.95935 12.5043 7.60869C12.4469 7.27039 12.6568 6.9132 12.9791 6.79691Z" fill="#4B4B4B"/>
<path opacity="0.5" d="M4.44168 13.7652C5.03819 13.7407 5.63516 13.747 6.23212 13.7454C6.80187 13.7479 7.37274 13.7443 7.94136 13.7886C8.37637 13.8241 8.81566 13.8921 9.21941 14.0653C9.55298 14.207 9.85326 14.4276 10.084 14.7077C10.2921 14.9571 10.4392 15.2534 10.533 15.5633C10.6549 15.9662 10.6974 16.3879 10.7208 16.8065C10.7471 17.3013 10.7456 17.7969 10.7469 18.2922C10.746 18.8243 10.7501 19.3567 10.7336 19.8887C10.7192 20.2956 10.6947 20.7041 10.614 21.104C10.5465 21.4349 10.4349 21.7603 10.2536 22.0469C10.0337 22.3971 9.71426 22.6837 9.34335 22.8663C8.97761 23.0474 8.57296 23.1324 8.16989 23.1781C7.42875 23.2561 6.6822 23.239 5.93814 23.2433C5.4064 23.242 4.87422 23.2453 4.34294 23.2188C3.94279 23.1974 3.54061 23.1599 3.15283 23.0539C2.8431 22.9693 2.54417 22.836 2.28798 22.6409C1.99062 22.4165 1.75152 22.1166 1.59677 21.7779C1.43662 21.4315 1.35902 21.0534 1.31561 20.6762C1.26005 20.1759 1.25465 19.6721 1.2506 19.1692C1.2488 18.5992 1.24723 18.0292 1.25443 17.4592C1.26275 17.0017 1.27602 16.5422 1.34575 16.0892C1.4058 15.7007 1.51602 15.3139 1.72138 14.976C1.94383 14.6074 2.27493 14.3062 2.66204 14.1179C3.21379 13.8493 3.83729 13.7938 4.44168 13.7652ZM4.35148 15.2709C4.00149 15.2972 3.63778 15.317 3.31501 15.4682C3.08558 15.5755 2.94252 15.806 2.88449 16.0456C2.77428 16.4779 2.76888 16.9275 2.75583 17.3708C2.74571 18.0355 2.74796 18.7002 2.75201 19.3648C2.75943 19.8179 2.76235 20.2738 2.83613 20.7221C2.87594 20.9427 2.93285 21.174 3.08558 21.346C3.22031 21.5015 3.4196 21.5791 3.61506 21.6247C3.94144 21.6994 4.27748 21.7165 4.61105 21.7298C5.13536 21.7466 5.66012 21.7423 6.18444 21.7437C6.67388 21.7412 7.16378 21.745 7.65278 21.7174C7.97533 21.6944 8.30552 21.6713 8.60985 21.553C8.81701 21.4747 8.98413 21.3044 9.06061 21.0966C9.1814 20.7763 9.20232 20.4297 9.22436 20.0911C9.2536 19.4845 9.24528 18.8767 9.24753 18.2697C9.24303 17.6914 9.2527 17.1117 9.19669 16.5357C9.1661 16.2736 9.13056 16.0026 9.00123 15.7684C8.89934 15.5842 8.71444 15.4605 8.51606 15.4014C8.23714 15.3148 7.94383 15.2909 7.65413 15.2713C7.10552 15.241 6.55579 15.2473 6.00674 15.245C5.45499 15.2473 4.90279 15.241 4.35148 15.2709Z" fill="#4B4B4B"/>
</svg>
