<svg width="24" height="24" viewBox="0 0 24 24" fill="none" xmlns="http://www.w3.org/2000/svg">
<path d="M12.0028 5.03066C12.0234 4.31344 12.85 3.78862 13.5054 4.08379C14.6435 4.63964 15.7727 5.21411 16.9046 5.78237C17.355 6.00512 17.5985 6.56235 17.4623 7.04579C17.3186 7.66371 16.58 8.0375 15.9989 7.78854C15.3938 7.50234 14.8024 7.18579 14.2 6.89476C14.1986 9.72367 14.1993 12.5526 14.1993 15.3808C14.1958 15.9373 14.2275 16.5021 14.0892 17.0463C13.8334 18.1366 13.0749 19.0959 12.073 19.5917C11.2519 20.0097 10.2788 20.109 9.38826 19.8793C8.42619 19.6317 7.57003 18.9966 7.05771 18.1421C6.57014 17.3463 6.3941 16.3684 6.56189 15.4504C6.74963 14.3739 7.42424 13.3974 8.36017 12.8381C9.43983 12.1691 10.8544 12.1009 11.998 12.6498C12.0021 10.1099 11.9925 7.57061 12.0028 5.03066ZM9.96453 14.5318C9.47628 14.647 9.04992 14.9987 8.84568 15.458C8.64212 15.9008 8.65038 16.4339 8.86699 16.8697C9.09393 17.3387 9.55399 17.6863 10.067 17.7711C10.5374 17.8545 11.0421 17.7207 11.4066 17.4097C11.7958 17.087 12.0214 16.5759 11.9959 16.0697C11.9787 15.5953 11.7429 15.1353 11.3708 14.8429C10.9823 14.5298 10.448 14.4146 9.96453 14.5318Z" fill="#4B4B4B"/>
</svg>
