<svg width="24" height="24" viewBox="0 0 24 24" fill="none" xmlns="http://www.w3.org/2000/svg">
<g clip-path="url(#clip0_35569_36340)">
<mask id="mask0_35569_36340" style="mask-type:luminance" maskUnits="userSpaceOnUse" x="0" y="0" width="24" height="24">
<path d="M24 0H0V24H24V0Z" fill="white"/>
</mask>
<g mask="url(#mask0_35569_36340)">
<mask id="mask1_35569_36340" style="mask-type:luminance" maskUnits="userSpaceOnUse" x="0" y="0" width="24" height="24">
<path d="M24 0H0V24H24V0Z" fill="white"/>
</mask>
<g mask="url(#mask1_35569_36340)">
<path d="M6.44233 0.783786C9.71373 0.76227 12.9861 0.780512 16.258 0.774431C16.859 0.782383 17.4633 0.745898 18.0606 0.831497C19.3764 1.00644 20.6234 1.64352 21.5425 2.60054C22.4284 3.51218 23.0117 4.7129 23.1736 5.97396C23.2428 6.46697 23.2236 6.96559 23.2264 7.46188C23.225 10.7525 23.2292 14.0432 23.2241 17.3338C23.21 19.1183 22.3354 20.8658 20.9251 21.9561C19.8848 22.777 18.5644 23.2289 17.2398 23.2261C13.9501 23.227 10.66 23.2261 7.37033 23.2265C6.93252 23.2247 6.49284 23.2387 6.05738 23.184C5.07558 23.0694 4.12419 22.7045 3.31639 22.1343C2.28642 21.4107 1.49313 20.3555 1.09134 19.1618C0.875704 18.5303 0.772333 17.8619 0.774671 17.1949C0.775139 15.4619 0.773736 13.7288 0.775139 11.9953C0.76672 11.5987 1.12314 11.2432 1.51979 11.2526C1.91971 11.2399 2.27894 11.6001 2.27052 11.9986C2.27286 13.7611 2.26958 15.5231 2.27239 17.2856C2.27847 18.3474 2.68073 19.4003 3.38375 20.196C4.02596 20.9322 4.91468 21.4505 5.87355 21.6399C6.39649 21.7554 6.93439 21.726 7.46528 21.7297C10.7231 21.7293 13.981 21.7302 17.2383 21.7293C18.1041 21.7302 18.969 21.4762 19.6926 20.9996C20.7048 20.3433 21.4326 19.2633 21.6506 18.0752C21.754 17.5695 21.7259 17.0513 21.7296 16.5386C21.7296 13.327 21.7296 10.1159 21.7296 6.90432C21.7778 5.51322 21.1393 4.12073 20.0467 3.25726C19.4068 2.74273 18.6229 2.40735 17.8076 2.30726C17.4633 2.26095 17.1153 2.27264 16.7692 2.27124C13.7303 2.27124 10.6909 2.27124 7.65145 2.27124C6.99567 2.27825 6.32773 2.22867 5.68739 2.40268C4.52598 2.68099 3.49648 3.45231 2.89309 4.48183C2.50205 5.14136 2.28642 5.90333 2.27333 6.66997C2.26724 7.21631 2.2766 7.76264 2.26865 8.30851C2.25274 8.65511 1.96181 8.96149 1.61848 9.00031C1.28826 9.04943 0.947269 8.84128 0.827059 8.53303C0.7438 8.32722 0.784026 8.10036 0.774671 7.88472C0.785429 7.15082 0.731639 6.40897 0.87243 5.68349C1.12127 4.28678 1.89398 2.99345 2.99973 2.10565C3.96983 1.31656 5.19345 0.846933 6.44233 0.783786Z" fill="#4B4B4B"/>
<path d="M12.0015 7.27024C12.0156 6.78351 12.578 6.42736 13.0239 6.62766C13.7983 7.00488 14.5666 7.39473 15.3368 7.78036C15.6433 7.93153 15.8089 8.30968 15.7163 8.63775C15.6185 9.05709 15.1159 9.31075 14.7206 9.1418C14.3088 8.94757 13.9064 8.73276 13.4965 8.53526C13.4956 10.4551 13.496 12.3748 13.496 14.2941C13.4937 14.6718 13.5152 15.0551 13.4212 15.4244C13.2471 16.1643 12.731 16.8153 12.0492 17.1518C11.4906 17.4354 10.8285 17.5028 10.2225 17.3469C9.56795 17.1789 8.98539 16.7479 8.6368 16.168C8.30505 15.6279 8.18526 14.9643 8.29943 14.3414C8.42717 13.6108 8.88619 12.9481 9.52302 12.5686C10.2576 12.1146 11.2201 12.0683 11.9982 12.4408C12.0011 10.7171 11.9945 8.99391 12.0015 7.27024ZM10.6146 13.718C10.2824 13.7962 9.99234 14.0348 9.85337 14.3465C9.71486 14.647 9.72049 15.0088 9.86788 15.3045C10.0223 15.6228 10.3353 15.8587 10.6843 15.9162C11.0044 15.9729 11.3478 15.8821 11.5958 15.671C11.8607 15.452 12.0142 15.1052 11.9968 14.7617C11.9851 14.4397 11.8246 14.1275 11.5715 13.9291C11.3071 13.7166 10.9436 13.6384 10.6146 13.718Z" fill="#4B4B4B"/>
</g>
</g>
</g>
<defs>
<clipPath id="clip0_35569_36340">
<rect width="24" height="24" fill="white"/>
</clipPath>
</defs>
</svg>
