<svg width="24" height="24" viewBox="0 0 24 24" fill="none" xmlns="http://www.w3.org/2000/svg">
<path d="M11.9999 20.4002C13.1597 20.4002 14.0999 19.4599 14.0999 18.3001C14.0999 17.1404 13.1597 16.2002 11.9999 16.2002C10.8401 16.2002 9.8999 17.1404 9.8999 18.3001C9.8999 19.4599 10.8401 20.4002 11.9999 20.4002Z" fill="#4B4B4B"/>
<path opacity="0.5" d="M11.9999 14.0999C13.1597 14.0999 14.0999 13.1597 14.0999 11.9999C14.0999 10.8401 13.1597 9.8999 11.9999 9.8999C10.8401 9.8999 9.8999 10.8401 9.8999 11.9999C9.8999 13.1597 10.8401 14.0999 11.9999 14.0999Z" fill="#4B4B4B"/>
<path d="M11.9999 7.8001C13.1597 7.8001 14.0999 6.8599 14.0999 5.7001C14.0999 4.5403 13.1597 3.6001 11.9999 3.6001C10.8401 3.6001 9.8999 4.5403 9.8999 5.7001C9.8999 6.8599 10.8401 7.8001 11.9999 7.8001Z" fill="#4B4B4B"/>
</svg>
