<svg width="24" height="24" viewBox="0 0 24 24" fill="none" xmlns="http://www.w3.org/2000/svg">
<path d="M18.75 5.52734H5.25C4.55964 5.52734 4 6.08698 4 6.77734C4 7.4677 4.55964 8.02734 5.25 8.02734H18.75C19.4404 8.02734 20 7.4677 20 6.77734C20 6.08698 19.4404 5.52734 18.75 5.52734Z" fill="#4B4B4B"/>
<path opacity="0.5" d="M14.75 10.75H5.25C4.55964 10.75 4 11.3096 4 12C4 12.6904 4.55964 13.25 5.25 13.25H14.75C15.4404 13.25 16 12.6904 16 12C16 11.3096 15.4404 10.75 14.75 10.75Z" fill="#4B4B4B"/>
<path d="M18.75 15.9727H5.25C4.55964 15.9727 4 16.5323 4 17.2227C4 17.9131 4.55964 18.4727 5.25 18.4727H18.75C19.4404 18.4727 20 17.9131 20 17.2227C20 16.5323 19.4404 15.9727 18.75 15.9727Z" fill="#4B4B4B"/>
</svg>
