<svg width="24" height="24" viewBox="0 0 24 24" fill="none" xmlns="http://www.w3.org/2000/svg">
<path d="M4.3375 2.36749C5.465 2.15999 6.6275 2.24999 7.77 2.25749C9.2575 2.19499 10.6875 3.46999 10.7275 4.96999C10.7775 5.98999 10.78 7.01499 10.7275 8.03499C10.6725 9.42999 9.4275 10.6875 8.0275 10.7275C7.01 10.7775 5.99 10.78 4.9725 10.7275C3.5725 10.675 2.3075 9.42749 2.2725 8.01999C2.2225 7.00249 2.22 5.97999 2.275 4.96249C2.315 3.77499 3.225 2.71749 4.3375 2.36749ZM4.795 3.81249C4.285 3.97499 3.78 4.42499 3.7825 4.99999C3.725 6.06249 3.6875 7.13499 3.81 8.19499C3.97 8.70499 4.4125 9.21749 4.985 9.21749C6.055 9.27249 7.135 9.31499 8.2025 9.18749C8.71 9.02749 9.22 8.57999 9.2175 8.00749C9.275 6.93999 9.3125 5.85999 9.19 4.79749C9.025 4.29749 8.59 3.78999 8.025 3.78499C6.95 3.72499 5.865 3.68499 4.795 3.81249Z" fill="#4B4B4B"/>
<path d="M15.3375 13.3675C16.4625 13.16 17.6225 13.25 18.76 13.2575C20.2525 13.19 21.685 14.465 21.7275 15.97C21.7775 16.985 21.78 18.005 21.7275 19.02C21.68 20.4175 20.435 21.685 19.0325 21.7275C18.015 21.7775 16.9975 21.78 15.9825 21.7275C14.58 21.68 13.31 20.4325 13.2725 19.025C13.2225 18.015 13.22 17.0025 13.2725 15.9925C13.3025 14.7925 14.215 13.72 15.3375 13.3675ZM15.805 14.81C15.295 14.97 14.785 15.4175 14.785 15.99C14.725 17.055 14.6875 18.1325 14.81 19.195C14.9675 19.7075 15.4175 20.22 15.995 20.2175C17.0625 20.275 18.14 20.3125 19.205 20.1875C19.7075 20.0275 20.215 19.5875 20.215 19.02C20.275 17.9525 20.3125 16.8725 20.19 15.81C20.0325 15.2975 19.585 14.785 19.0125 14.7825C17.945 14.725 16.8675 14.6875 15.805 14.81Z" fill="#4B4B4B"/>
<path opacity="0.5" d="M15.345 2.3575C16.475 2.145 17.6375 2.25 18.7825 2.2475C20.275 2.185 21.7025 3.47 21.74 4.9725C21.785 5.9925 21.785 7.015 21.7375 8.035C21.6875 9.2175 20.7875 10.2675 19.6775 10.62C18.5475 10.835 17.3825 10.73 16.24 10.7325C15.215 10.7675 14.23 10.1975 13.6975 9.335C12.9825 8.185 13.3375 6.75 13.2575 5.4725C13.135 4.1075 14.035 2.7575 15.345 2.3575ZM15.83 3.7925C14.955 3.9975 14.645 4.925 14.755 5.7325C14.845 6.87 14.36 8.45 15.5875 9.1275C16.6375 9.3375 17.73 9.235 18.7975 9.23C19.47 9.2475 20.205 8.715 20.2275 8.01C20.275 6.9425 20.3225 5.8625 20.205 4.7975C20.04 4.29 19.6 3.77 19.0225 3.77C17.96 3.7225 16.89 3.68 15.83 3.7925Z" fill="#4B4B4B"/>
<path opacity="0.5" d="M4.335 13.3675C5.465 13.155 6.6275 13.26 7.7725 13.2575C9.265 13.195 10.6925 14.48 10.73 15.9825C10.775 17.0025 10.775 18.025 10.7275 19.045C10.6775 20.2275 9.7775 21.2775 8.6675 21.63C7.5375 21.845 6.3725 21.74 5.23 21.7425C4.205 21.7775 3.22 21.2075 2.6875 20.345C1.9725 19.195 2.3275 17.76 2.2475 16.4825C2.125 15.1175 3.025 13.7675 4.335 13.3675ZM4.82 14.8025C3.945 15.0075 3.635 15.935 3.745 16.7425C3.835 17.88 3.35 19.46 4.5775 20.1375C5.6275 20.3475 6.72 20.245 7.7875 20.24C8.46 20.2575 9.195 19.725 9.2175 19.02C9.265 17.9525 9.3125 16.8725 9.195 15.8075C9.03 15.3 8.59 14.78 8.0125 14.78C6.95 14.7325 5.88 14.69 4.82 14.8025Z" fill="#4B4B4B"/>
</svg>
