<svg width="24" height="24" viewBox="0 0 24 24" fill="none" xmlns="http://www.w3.org/2000/svg">
<path d="M14.7295 18.96C14.7295 20.4677 13.5073 21.69 11.9995 21.69C10.4918 21.69 9.26953 20.4677 9.26953 18.96C9.26953 17.4522 10.4918 16.23 11.9995 16.23C13.5073 16.23 14.7295 17.4522 14.7295 18.96ZM10.7656 18.96C10.7656 19.6415 11.318 20.1939 11.9995 20.1939C12.681 20.1939 13.2335 19.6415 13.2335 18.96C13.2335 18.2785 12.681 17.726 11.9995 17.726C11.318 17.726 10.7656 18.2785 10.7656 18.96Z" fill="#4B4B4B"/>
<path opacity="0.5" d="M14.7295 12C14.7295 13.5078 13.5073 14.73 11.9995 14.73C10.4918 14.73 9.26953 13.5078 9.26953 12C9.26953 10.4923 10.4918 9.27002 11.9995 9.27002C13.5073 9.27002 14.7295 10.4923 14.7295 12ZM10.7656 12C10.7656 12.6815 11.318 13.234 11.9995 13.234C12.681 13.234 13.2335 12.6815 13.2335 12C13.2335 11.3185 12.681 10.7661 11.9995 10.7661C11.318 10.7661 10.7656 11.3185 10.7656 12Z" fill="#4B4B4B"/>
<path d="M14.7295 5.04006C14.7295 6.5478 13.5073 7.77006 11.9995 7.77006C10.4918 7.77006 9.26953 6.5478 9.26953 5.04006C9.26953 3.53232 10.4918 2.31006 11.9995 2.31006C13.5073 2.31006 14.7295 3.53232 14.7295 5.04006ZM10.7656 5.04006C10.7656 5.72156 11.318 6.27402 11.9995 6.27402C12.681 6.27402 13.2335 5.72156 13.2335 5.04006C13.2335 4.35856 12.681 3.80609 11.9995 3.80609C11.318 3.80609 10.7656 4.35856 10.7656 5.04006Z" fill="#4B4B4B"/>
</svg>
