<svg width="24" height="24" viewBox="0 0 24 24" fill="none" xmlns="http://www.w3.org/2000/svg">
<path d="M7.77006 12C7.77006 13.5078 6.5478 14.73 5.04006 14.73C3.53232 14.73 2.31006 13.5078 2.31006 12C2.31006 10.4923 3.53232 9.27002 5.04006 9.27002C6.5478 9.27002 7.77006 10.4923 7.77006 12ZM3.80609 12C3.80609 12.6815 4.35856 13.234 5.04006 13.234C5.72156 13.234 6.27402 12.6815 6.27402 12C6.27402 11.3185 5.72156 10.7661 5.04006 10.7661C4.35856 10.7661 3.80609 11.3185 3.80609 12Z" fill="#4B4B4B"/>
<path opacity="0.5" d="M14.73 12C14.73 13.5078 13.5078 14.73 12 14.73C10.4923 14.73 9.27002 13.5078 9.27002 12C9.27002 10.4923 10.4923 9.27002 12 9.27002C13.5078 9.27002 14.73 10.4923 14.73 12ZM10.7661 12C10.7661 12.6815 11.3185 13.234 12 13.234C12.6815 13.234 13.234 12.6815 13.234 12C13.234 11.3185 12.6815 10.7661 12 10.7661C11.3185 10.7661 10.7661 11.3185 10.7661 12Z" fill="#4B4B4B"/>
<path d="M21.69 12C21.69 13.5078 20.4677 14.73 18.96 14.73C17.4522 14.73 16.23 13.5078 16.23 12C16.23 10.4923 17.4522 9.27002 18.96 9.27002C20.4677 9.27002 21.69 10.4923 21.69 12ZM17.726 12C17.726 12.6815 18.2785 13.234 18.96 13.234C19.6415 13.234 20.1939 12.6815 20.1939 12C20.1939 11.3185 19.6415 10.7661 18.96 10.7661C18.2785 10.7661 17.726 11.3185 17.726 12Z" fill="#4B4B4B"/>
</svg>
