<svg width="24" height="24" viewBox="0 0 24 24" fill="none" xmlns="http://www.w3.org/2000/svg">
<path d="M7.77 12C7.77 13.5077 6.54773 14.73 5.04 14.73C3.53226 14.73 2.31 13.5077 2.31 12C2.31 10.4923 3.53226 9.27 5.04 9.27C6.54773 9.27 7.77 10.4923 7.77 12ZM3.80603 12C3.80603 12.6815 4.3585 13.234 5.04 13.234C5.7215 13.234 6.27396 12.6815 6.27396 12C6.27396 11.3185 5.7215 10.766 5.04 10.766C4.3585 10.766 3.80603 11.3185 3.80603 12Z" fill="#4B4B4B"/>
<path opacity="0.5" d="M14.73 12C14.73 13.5077 13.5077 14.73 12 14.73C10.4923 14.73 9.26999 13.5077 9.26999 12C9.26999 10.4923 10.4923 9.27 12 9.27C13.5077 9.27 14.73 10.4923 14.73 12ZM10.766 12C10.766 12.6815 11.3185 13.234 12 13.234C12.6815 13.234 13.234 12.6815 13.234 12C13.234 11.3185 12.6815 10.766 12 10.766C11.3185 10.766 10.766 11.3185 10.766 12Z" fill="#4B4B4B"/>
<path d="M21.69 12C21.69 13.5077 20.4677 14.73 18.96 14.73C17.4523 14.73 16.23 13.5077 16.23 12C16.23 10.4923 17.4523 9.27 18.96 9.27C20.4677 9.27 21.69 10.4923 21.69 12ZM17.726 12C17.726 12.6815 18.2785 13.234 18.96 13.234C19.6415 13.234 20.194 12.6815 20.194 12C20.194 11.3185 19.6415 10.766 18.96 10.766C18.2785 10.766 17.726 11.3185 17.726 12Z" fill="#4B4B4B"/>
</svg>
