<svg width="24" height="24" viewBox="0 0 24 24" fill="none" xmlns="http://www.w3.org/2000/svg">
<path fill-rule="evenodd" clip-rule="evenodd" d="M20.3303 11.6736C20.3302 16.274 16.6008 20.0032 12.0004 20.0032C7.39975 20.0032 3.67024 16.2736 3.67041 11.673L3.67044 10.7478C3.67046 10.2366 4.08486 9.82225 4.59602 9.82227C5.10718 9.82229 5.52154 10.2367 5.52152 10.7479L5.52149 11.673C5.52136 15.2513 8.4221 18.1521 12.0004 18.1521C15.5785 18.1521 18.4791 15.2516 18.4793 11.6735V10.7478C18.4793 10.2366 18.8937 9.82225 19.4049 9.82227C19.916 9.82229 20.3304 10.2367 20.3304 10.7479L20.3303 11.6736Z" fill="#4B4B4B"/>
<path opacity="0.5" fill-rule="evenodd" clip-rule="evenodd" d="M16.628 11.6745C16.628 14.2303 14.5561 16.3022 12.0003 16.3022C9.44445 16.3022 7.37256 14.2303 7.37256 11.6745V5.50319C7.37256 2.94738 9.44445 0.875488 12.0003 0.875488C14.5561 0.875488 16.628 2.94738 16.628 5.50319V11.6745ZM12.0003 2.72657C10.4668 2.72657 9.22364 3.96971 9.22364 5.50319V11.6745C9.22364 13.208 10.4668 14.4511 12.0003 14.4511C13.5337 14.4511 14.7769 13.208 14.7769 11.6745V5.50319C14.7769 3.96971 13.5337 2.72657 12.0003 2.72657Z" fill="#4B4B4B"/>
<path fill-rule="evenodd" clip-rule="evenodd" d="M12.0002 18.1885C12.5114 18.1885 12.9258 18.5001 12.9258 18.8846V22.4285C12.9258 22.8129 12.5114 23.1246 12.0002 23.1246C11.4891 23.1246 11.0747 22.8129 11.0747 22.4285V18.8846C11.0747 18.5001 11.4891 18.1885 12.0002 18.1885Z" fill="#4B4B4B"/>
</svg>
