<svg width="24" height="24" viewBox="0 0 24 24" fill="none" xmlns="http://www.w3.org/2000/svg">
<path opacity="0.5" fill-rule="evenodd" clip-rule="evenodd" d="M16.5365 4.61814C16.1205 2.49283 14.248 0.88916 12.0008 0.88916C9.44822 0.88916 7.37891 2.95847 7.37891 5.51109V11.6747C7.37891 12.2963 7.50162 12.8892 7.72413 13.4306L9.23809 11.9166C9.2312 11.8369 9.22769 11.7562 9.22769 11.6747V5.51109C9.22769 3.97951 10.4692 2.73793 12.0008 2.73793C13.5324 2.73793 14.774 3.97951 14.774 5.51108V6.38073L16.5365 4.61814ZM11.2234 14.3374C11.4701 14.4093 11.7309 14.4478 12.0008 14.4478C13.5324 14.4478 14.774 13.2062 14.774 11.6747V10.7868L16.6227 8.93809V11.6747C16.6227 14.2273 14.5534 16.2966 12.0008 16.2966C11.2095 16.2966 10.4647 16.0977 9.81355 15.7473L11.2234 14.3374Z" fill="#4B4B4B"/>
<path fill-rule="evenodd" clip-rule="evenodd" d="M11.9996 18.1802C12.5101 18.1802 12.924 18.4915 12.924 18.8755V22.4149C12.924 22.7989 12.5101 23.1102 11.9996 23.1102C11.4891 23.1102 11.0752 22.7989 11.0752 22.4149V18.8755C11.0752 18.4915 11.4891 18.1802 11.9996 18.1802Z" fill="#4B4B4B"/>
<path fill-rule="evenodd" clip-rule="evenodd" d="M21.4399 1.91723C21.8009 2.27823 21.8009 2.86352 21.4399 3.22451L3.86856 20.7958C3.50756 21.1568 2.92227 21.1568 2.56128 20.7958C2.20028 20.4348 2.20028 19.8496 2.56128 19.4886L20.1326 1.91723C20.4936 1.55624 21.0789 1.55624 21.4399 1.91723Z" fill="#4B4B4B"/>
<path fill-rule="evenodd" clip-rule="evenodd" d="M6.33943 14.8141C5.8221 13.884 5.52744 12.813 5.52748 11.6732L5.52752 10.7492C5.52754 10.2386 5.11369 9.82473 4.60317 9.82471C4.09264 9.82469 3.67876 10.2386 3.67875 10.7491L3.67871 11.6731C3.67865 13.3262 4.16071 14.8666 4.99195 16.1616L6.33943 14.8141ZM7.13523 18.4244C8.503 19.4114 10.1827 19.993 11.9983 19.993C16.593 19.993 20.3177 16.2684 20.3179 11.6737V10.7492C20.3179 10.2386 19.9041 9.82473 19.3936 9.82471C18.883 9.82469 18.4692 10.2386 18.4691 10.7491V11.6737C18.469 15.2473 15.5719 18.1442 11.9983 18.1442C10.6944 18.1442 9.48052 17.7585 8.46461 17.095L7.13523 18.4244Z" fill="#4B4B4B"/>
</svg>
