<svg width="24" height="24" viewBox="0 0 24 24" fill="none" xmlns="http://www.w3.org/2000/svg">
<path opacity="0.5" d="M8.67099 1.27803C10.0986 1.23957 11.5267 1.25104 12.9545 1.25036C14.0508 1.25284 15.1478 1.25576 16.2428 1.31694C17.1535 1.37183 18.0703 1.4627 18.9489 1.72092C19.6399 1.92335 20.3014 2.2513 20.8428 2.7304C21.3579 3.17959 21.7634 3.74956 22.0313 4.37734C22.3431 5.09959 22.4929 5.87964 22.584 6.65767C22.6836 7.5313 22.7124 8.41123 22.7288 9.29003C22.7491 10.5643 22.7419 11.8389 22.7426 13.1132C22.7367 14.3215 22.7349 15.5314 22.6418 16.7368C22.57 17.6151 22.4493 18.4998 22.1449 19.3311C21.8881 20.0408 21.4704 20.6958 20.9089 21.203C20.3455 21.7223 19.6437 22.0737 18.9102 22.2829C18.049 22.531 17.1522 22.62 16.2605 22.6745C15.198 22.7354 14.1332 22.7379 13.0692 22.7426C12.8783 22.7532 12.6812 22.7028 12.5314 22.5811C12.2858 22.3929 12.1823 22.0447 12.2854 21.7529C12.3796 21.4607 12.6693 21.2457 12.9768 21.2432C14.0427 21.2385 15.1096 21.2378 16.1742 21.1776C16.754 21.1432 17.3341 21.0912 17.9052 20.9823C18.5762 20.8543 19.2537 20.635 19.7865 20.1921C20.0632 19.9636 20.2989 19.6854 20.4778 19.3741C20.7151 18.9627 20.857 18.5038 20.9551 18.0414C21.1262 17.2125 21.175 16.3645 21.2079 15.5206C21.2504 14.2612 21.2409 13.0009 21.2439 11.7409C21.2418 10.916 21.2439 10.091 21.2286 9.26618C21.2117 8.4164 21.1847 7.56527 21.0812 6.72111C20.9892 6.0083 20.8482 5.28358 20.4953 4.64905C20.1673 4.05704 19.6302 3.59031 19.0065 3.33164C18.517 3.12313 17.9925 3.01336 17.468 2.93756C16.5617 2.81115 15.6456 2.78281 14.7319 2.76392C13.473 2.74345 12.2141 2.74997 10.9551 2.74975C10.1312 2.75222 9.30686 2.75559 8.48339 2.78416C7.65453 2.81588 6.82207 2.86379 6.00693 3.02596C5.5195 3.12515 5.03546 3.27181 4.60359 3.5235C4.09075 3.82041 3.67283 4.27499 3.41371 4.80763C3.17056 5.30382 3.04348 5.84725 2.95755 6.39023C2.83227 7.20785 2.79605 8.03559 2.77288 8.86131C2.75466 9.57389 2.75128 10.2865 2.74993 10.999C2.75061 11.2006 2.66446 11.3994 2.51871 11.5382C2.31537 11.7373 1.99507 11.8014 1.73055 11.6966C1.44759 11.5911 1.24628 11.3016 1.25055 10.9988C1.25213 10.0989 1.25618 9.19871 1.29082 8.29921C1.3304 7.35383 1.39496 6.40328 1.60662 5.47859C1.78882 4.67987 2.10866 3.89824 2.63477 3.26259C2.98049 2.84084 3.40314 2.4823 3.87638 2.21149C4.62427 1.78142 5.47564 1.57179 6.32363 1.45145C7.10144 1.34259 7.88666 1.3021 8.67099 1.27803Z" fill="#4B4B4B"/>
<path d="M16.4707 6.4611C16.7222 6.2058 17.1606 6.17678 17.4431 6.39699C17.7006 6.58368 17.8115 6.9429 17.7036 7.24205C17.662 7.36756 17.5823 7.47665 17.487 7.56663C16.26 8.79294 15.0336 10.0197 13.8071 11.2463C14.4608 11.2474 15.1144 11.2454 15.768 11.2472C16.1169 11.2501 16.4352 11.5303 16.4849 11.8752C16.5456 12.2067 16.3495 12.5603 16.0377 12.6867C15.9388 12.7294 15.8306 12.7479 15.7233 12.7463C14.4706 12.7452 13.2182 12.7474 11.9658 12.7452C11.5817 12.74 11.2447 12.3954 11.2467 12.0115C11.2461 10.7516 11.2458 9.49202 11.2467 8.23219C11.2461 7.8885 11.5148 7.5709 11.8529 7.51152C12.1795 7.44134 12.536 7.62286 12.6739 7.92674C12.7225 8.02863 12.7468 8.14155 12.7459 8.25446C12.7459 8.89798 12.7457 9.54151 12.7459 10.185C13.9882 8.9441 15.2287 7.70181 16.4707 6.4611Z" fill="#4B4B4B"/>
<path d="M4.39817 13.267C5.00863 13.24 5.61976 13.2472 6.23067 13.2454C6.80177 13.2479 7.37399 13.2441 7.94396 13.2888C8.3783 13.3246 8.81669 13.3925 9.21976 13.5655C9.82347 13.8156 10.2976 14.3408 10.4994 14.9605C10.6337 15.3514 10.6847 15.7649 10.7129 16.1754C10.7482 16.721 10.745 17.2681 10.7468 17.8146C10.7459 18.339 10.7498 18.8635 10.7336 19.3876C10.7196 19.7864 10.6958 20.1868 10.6188 20.5793C10.5529 20.9135 10.443 21.2426 10.2623 21.533C10.045 21.8847 9.72788 22.1736 9.35809 22.3589C9.0072 22.5359 8.61875 22.6232 8.23075 22.6709C7.58925 22.7462 6.94212 22.7393 6.29748 22.7433C5.75022 22.7422 5.20274 22.7465 4.65571 22.7314C4.25309 22.7186 3.84889 22.6965 3.45211 22.6227C3.10977 22.5586 2.77215 22.4498 2.4739 22.2676C2.12525 22.0557 1.83712 21.7464 1.64908 21.3845C1.45406 21.0113 1.36342 20.5939 1.31573 20.1784C1.25905 19.6699 1.25433 19.1575 1.2505 18.6464C1.24893 18.0769 1.2469 17.5072 1.25455 16.9376C1.26377 16.4633 1.27817 15.9869 1.35734 15.5181C1.421 15.1434 1.53504 14.772 1.73838 14.4483C1.96331 14.0871 2.29373 13.7936 2.67768 13.6103C3.21256 13.3545 3.81358 13.2965 4.39817 13.267ZM4.30797 14.7736C4.16177 14.783 4.01579 14.7956 3.87071 14.8166C3.61969 14.8555 3.35247 14.9059 3.15341 15.0755C2.97706 15.2248 2.89924 15.4533 2.85403 15.6729C2.77823 16.0516 2.76698 16.4394 2.75663 16.8247C2.74539 17.4469 2.74853 18.0693 2.75056 18.6916C2.75618 19.1728 2.75573 19.6561 2.82186 20.1337C2.85718 20.3586 2.90284 20.5925 3.0351 20.7833C3.15071 20.9508 3.33898 21.0509 3.53174 21.1031C3.86104 21.1926 4.20405 21.2111 4.54325 21.2273C5.12042 21.248 5.69826 21.2423 6.27566 21.2435C6.88387 21.2379 7.49523 21.2516 8.10006 21.1758C8.35738 21.1371 8.63202 21.0889 8.83783 20.9173C9.0279 20.759 9.10482 20.5113 9.15003 20.2772C9.22696 19.8579 9.23348 19.4303 9.24226 19.0054C9.24945 18.3383 9.24923 17.6711 9.24271 17.0042C9.23416 16.5769 9.22786 16.1468 9.15251 15.725C9.11112 15.5116 9.04972 15.2887 8.89631 15.127C8.7744 14.9947 8.60346 14.9218 8.43273 14.8771C8.16912 14.8089 7.8965 14.7864 7.62569 14.7698C7.07843 14.7412 6.53028 14.7473 5.9828 14.745C5.42452 14.7475 4.86557 14.7408 4.30797 14.7736Z" fill="#4B4B4B"/>
</svg>
