<svg width="24" height="25" viewBox="0 0 24 25" fill="none" xmlns="http://www.w3.org/2000/svg">
<path opacity="0.5" d="M8.67082 1.77806C10.0984 1.7396 11.5265 1.75107 12.9544 1.7504C14.0507 1.75287 15.1477 1.75579 16.2426 1.81697C17.1534 1.87186 18.0702 1.96273 18.9488 2.22095C19.6397 2.42339 20.3013 2.75133 20.8427 3.23043C21.3578 3.67962 21.7633 4.24959 22.0312 4.87737C22.3429 5.59962 22.4928 6.37967 22.5838 7.15771C22.6835 8.03133 22.7123 8.91126 22.7287 9.79006C22.7489 11.0643 22.7417 12.339 22.7424 13.6132C22.7366 14.8215 22.7348 16.0314 22.6417 17.2368C22.5699 18.1152 22.4491 18.9998 22.1448 19.8311C21.8879 20.5408 21.4702 21.1958 20.9088 21.703C20.3453 22.2224 19.6436 22.5737 18.9101 22.7829C18.0488 23.031 17.152 23.1201 16.2604 23.1745C15.1978 23.2355 14.133 23.2379 13.0691 23.2427C12.8781 23.2532 12.6811 23.2028 12.5313 23.0812C12.2857 22.8929 12.1822 22.5447 12.2852 22.253C12.3795 21.9608 12.6692 21.7457 12.9766 21.7433C14.0426 21.7386 15.1094 21.7379 16.174 21.6776C16.7539 21.6432 17.334 21.5912 17.9051 21.4824C18.576 21.3544 19.2535 21.1351 19.7864 20.6922C20.0631 20.4636 20.2988 20.1854 20.4776 19.8741C20.7149 19.4627 20.8568 19.0039 20.9549 18.5414C21.1261 17.7125 21.1749 16.8645 21.2077 16.0206C21.2502 14.7612 21.2408 13.5009 21.2437 12.2409C21.2417 11.4161 21.2437 10.591 21.2284 9.76622C21.2116 8.91643 21.1846 8.0653 21.0811 7.22114C20.9891 6.50833 20.8481 5.78361 20.4951 5.14908C20.1672 4.55707 19.6301 4.09034 19.0063 3.83167C18.5169 3.62316 17.9924 3.51339 17.4678 3.43759C16.5616 3.31118 15.6454 3.28284 14.7318 3.26395C13.4728 3.24348 12.2139 3.25 10.955 3.24978C10.1311 3.25225 9.30669 3.25563 8.48323 3.28419C7.65436 3.31591 6.8219 3.36382 6.00675 3.52599C5.51933 3.62518 5.03528 3.77184 4.60341 4.02354C4.09057 4.32044 3.67266 4.77503 3.41354 5.30766C3.17039 5.80385 3.0433 6.34728 2.95738 6.89026C2.83209 7.70788 2.79588 8.53562 2.77271 9.36134C2.75449 10.0739 2.75112 10.7865 2.74977 11.4991C2.75044 11.7006 2.6643 11.8994 2.51854 12.0382C2.3152 12.2373 1.9949 12.3014 1.73039 12.1966C1.44743 12.0911 1.24611 11.8016 1.25039 11.4988C1.25196 10.5989 1.25601 9.69874 1.29065 8.79924C1.33024 7.85386 1.39479 6.90331 1.60645 5.97862C1.78864 5.1799 2.10849 4.39827 2.6346 3.76262C2.98032 3.34087 3.40296 2.98234 3.87622 2.71152C4.62411 2.28145 5.47547 2.07182 6.32345 1.95148C7.10126 1.84262 7.88649 1.80213 8.67082 1.77806Z" fill="#4B4B4B"/>
<path d="M16.4709 6.9611C16.7224 6.7058 17.1608 6.67678 17.4433 6.89699C17.7008 7.08368 17.8117 7.4429 17.7038 7.74205C17.6622 7.86756 17.5825 7.97665 17.4872 8.06663C16.2602 9.29294 15.0338 10.5197 13.8073 11.7463C14.461 11.7474 15.1146 11.7454 15.7682 11.7472C16.1171 11.7501 16.4354 12.0303 16.4851 12.3752C16.5458 12.7067 16.3497 13.0603 16.0379 13.1867C15.939 13.2294 15.8308 13.2479 15.7235 13.2463C14.4708 13.2452 13.2184 13.2474 11.966 13.2452C11.5819 13.24 11.2449 12.8954 11.2469 12.5115C11.2463 11.2516 11.246 9.99202 11.2469 8.73219C11.2463 8.3885 11.515 8.0709 11.8531 8.01152C12.1797 7.94134 12.5362 8.12286 12.6741 8.42674C12.7227 8.52863 12.747 8.64155 12.7461 8.75446C12.7461 9.39798 12.7459 10.0415 12.7461 10.685C13.9884 9.4441 15.2289 8.20181 16.4709 6.9611Z" fill="#4B4B4B"/>
<path d="M4.39827 13.767C5.00873 13.74 5.61987 13.7472 6.23078 13.7454C6.80187 13.7479 7.37409 13.7441 7.94407 13.7888C8.37841 13.8246 8.81679 13.8925 9.21987 14.0655C9.82358 14.3156 10.2977 14.8408 10.4995 15.4605C10.6338 15.8514 10.6848 16.2649 10.713 16.6754C10.7483 17.221 10.7451 17.7681 10.7469 18.3146C10.746 18.839 10.7498 19.3635 10.7336 19.8876C10.7197 20.2864 10.6959 20.6868 10.6189 21.0793C10.553 21.4135 10.443 21.7426 10.2624 22.033C10.0451 22.3847 9.72798 22.6736 9.3582 22.8589C9.00731 23.0359 8.61886 23.1232 8.23085 23.1709C7.58935 23.2462 6.94223 23.2393 6.29758 23.2433C5.75033 23.2422 5.20285 23.2465 4.65582 23.2314C4.25319 23.2186 3.849 23.1965 3.45222 23.1227C3.10988 23.0586 2.77226 22.9498 2.474 22.7676C2.12536 22.5557 1.83722 22.2464 1.64918 21.8845C1.45417 21.5113 1.36352 21.0939 1.31584 20.6784C1.25916 20.1699 1.25443 19.6575 1.25061 19.1464C1.24903 18.5769 1.24701 18.0072 1.25466 17.4376C1.26388 16.9633 1.27827 16.4869 1.35745 16.0181C1.4211 15.6434 1.53514 15.272 1.73848 14.9483C1.96341 14.5871 2.29383 14.2936 2.67779 14.1103C3.21267 13.8545 3.81368 13.7965 4.39827 13.767ZM4.30808 15.2736C4.16187 15.283 4.01589 15.2956 3.87081 15.3166C3.61979 15.3555 3.35258 15.4059 3.15351 15.5755C2.97717 15.7248 2.89934 15.9533 2.85413 16.1729C2.77833 16.5516 2.76708 16.9394 2.75674 17.3247C2.74549 17.9469 2.74864 18.5693 2.75066 19.1916C2.75629 19.6728 2.75584 20.1561 2.82197 20.6337C2.85728 20.8586 2.90294 21.0925 3.0352 21.2833C3.15081 21.4508 3.33908 21.5509 3.53184 21.6031C3.86114 21.6926 4.20416 21.7111 4.54335 21.7273C5.12052 21.748 5.69837 21.7423 6.27576 21.7435C6.88397 21.7379 7.49533 21.7516 8.10017 21.6758C8.35749 21.6371 8.63213 21.5889 8.83794 21.4173C9.028 21.259 9.10493 21.0113 9.15014 20.7772C9.22707 20.3579 9.23359 19.9303 9.24236 19.5054C9.24956 18.8383 9.24933 18.1711 9.24281 17.5042C9.23426 17.0769 9.22797 16.6468 9.15261 16.225C9.11123 16.0116 9.04982 15.7887 8.89642 15.627C8.77451 15.4947 8.60356 15.4218 8.43284 15.3771C8.16922 15.3089 7.89661 15.2864 7.62579 15.2698C7.07854 15.2412 6.53038 15.2473 5.9829 15.245C5.42463 15.2475 4.86568 15.2408 4.30808 15.2736Z" fill="#4B4B4B"/>
</svg>
