<svg width="24" height="24" viewBox="0 0 24 24" fill="none" xmlns="http://www.w3.org/2000/svg">
<path d="M2.67749 7.45283C2.67149 6.95003 3.13469 6.51322 3.63149 6.51682C5.90969 6.51502 8.18789 6.51563 10.4661 6.51623C10.8855 6.51083 11.2875 6.80483 11.3997 7.21043C11.5329 7.63283 11.3349 8.13923 10.9317 8.33483C10.6857 8.48903 10.3869 8.45723 10.1103 8.45843C8.75369 8.45903 7.39709 8.45962 6.04049 8.45182C5.56529 8.47102 5.08949 8.43863 4.61489 8.46743C4.60709 8.89643 4.61729 9.32482 4.60889 9.75382C4.61249 11.2676 4.61369 12.782 4.61009 14.2958C4.61249 14.7446 4.26209 15.1568 3.82109 15.2324C3.29849 15.3512 2.73149 14.9342 2.68169 14.4026C2.67209 12.0866 2.67989 9.76943 2.67749 7.45283Z" fill="#4B4B4B"/>
<path opacity="0.5" d="M4.61538 8.46726C5.08998 8.43846 5.56578 8.47086 6.04098 8.45166C7.99938 10.4161 9.96377 12.3757 11.9246 14.3377C12.272 14.6923 12.6374 15.0331 13.0466 15.3157C13.2734 15.4603 13.5434 15.6193 13.823 15.5395C14.1326 15.4489 14.3894 15.2395 14.627 15.0289C16.2932 13.3963 17.8808 11.6869 19.4726 9.98286C19.6514 9.77826 19.8518 9.56406 20.1296 9.50886C20.5142 9.40206 20.9474 9.57366 21.1628 9.90666C21.4004 10.2475 21.371 10.7431 21.0992 11.0569C19.4342 12.8329 17.7794 14.6197 16.0478 16.3327C15.344 17.0023 14.4212 17.5903 13.4066 17.4685C12.3314 17.3503 11.4938 16.5859 10.7426 15.8737C8.69298 13.8391 6.66376 11.7835 4.60938 9.75366C4.61777 9.32466 4.60758 8.89626 4.61538 8.46726Z" fill="#4B4B4B"/>
</svg>
