<svg width="24" height="24" viewBox="0 0 24 24" fill="none" xmlns="http://www.w3.org/2000/svg">
<path opacity="0.5" d="M9.14684 1.44104C9.85124 1.25354 10.5872 1.26284 11.3105 1.25114C12.0902 1.25414 12.8708 1.23794 13.6502 1.27364C14.2871 1.30784 14.951 1.38254 15.5093 1.71584C16.0289 2.02004 16.3967 2.54504 16.5521 3.12224C16.7423 3.82214 16.7402 4.55534 16.7459 5.27504C16.2464 5.26004 15.7469 5.25404 15.2471 5.25194C15.2435 4.78154 15.2405 4.30904 15.1745 3.84254C15.1313 3.57224 15.0677 3.27644 14.8529 3.08684C14.6267 2.89184 14.3177 2.84774 14.0321 2.80874C13.3973 2.74004 12.7577 2.75414 12.1202 2.75084C11.54 2.75234 10.9592 2.74424 10.3796 2.77424C10.0685 2.79434 9.75254 2.81684 9.45464 2.91494C9.27494 2.97374 9.10844 3.08564 9.01004 3.25004C8.87984 3.46604 8.84114 3.72134 8.80844 3.96764C8.76014 4.39364 8.75534 4.82354 8.75264 5.25194C8.25284 5.25404 7.75334 5.26004 7.25384 5.27504C7.25114 4.88684 7.26134 4.49804 7.28864 4.11074C7.33274 3.49844 7.44494 2.86124 7.80704 2.34974C8.12264 1.89434 8.61494 1.58084 9.14684 1.44104Z" fill="#4B4B4B"/>
<path opacity="0.5" d="M11.5378 9.40905C11.7748 9.21735 12.1312 9.19695 12.3892 9.35865C12.6169 9.49215 12.7504 9.75105 12.7549 10.0117C13.2733 10.1425 13.7629 10.4092 14.1313 10.7995C14.5084 11.1907 14.7373 11.7226 14.7496 12.2671C14.7637 12.475 14.6953 12.6898 14.5507 12.8422C14.3545 13.0603 14.0239 13.1419 13.7488 13.0399C13.4644 12.9421 13.2547 12.6598 13.2511 12.358C13.2538 12.133 13.1368 11.9236 12.9784 11.7709C12.727 11.5285 12.3721 11.4199 12.0286 11.4169C11.6524 11.4079 11.2567 11.5243 10.9912 11.8012C10.8277 11.9719 10.7098 12.2149 10.7635 12.4555C10.8316 12.7531 11.0695 12.9859 11.3398 13.1119C11.545 13.2091 11.7733 13.2493 11.9992 13.2499C12.667 13.2502 13.3381 13.4698 13.8628 13.8862C14.1916 14.1457 14.4577 14.4892 14.6074 14.8819C14.8351 15.4771 14.7904 16.1722 14.4778 16.729C14.1214 17.3782 13.4548 17.8069 12.7513 17.9941C12.7507 18.1999 12.6667 18.4048 12.5149 18.5446C12.2941 18.7612 11.9335 18.8125 11.6602 18.6685C11.4091 18.5437 11.2456 18.2713 11.248 17.9917C10.6939 17.8453 10.168 17.5546 9.7927 17.116C9.457 16.7323 9.259 16.2307 9.2503 15.7201C9.241 15.5566 9.2824 15.3904 9.3733 15.2536C9.5185 15.031 9.7873 14.896 10.0531 14.9185C10.3474 14.9347 10.6171 15.1432 10.7098 15.4228C10.7695 15.5746 10.7281 15.7459 10.7956 15.8962C10.9288 16.2325 11.2588 16.4566 11.6023 16.5373C11.9746 16.6225 12.3829 16.5943 12.7234 16.4137C12.9721 16.2796 13.1866 16.0495 13.2415 15.7654C13.2823 15.5314 13.1665 15.2986 13.0069 15.1339C12.7501 14.8642 12.3676 14.7478 12.0022 14.7502C11.1358 14.7493 10.2511 14.3767 9.7126 13.6849C9.3874 13.2697 9.2206 12.7348 9.2533 12.2083C9.2752 11.7628 9.4414 11.3275 9.7162 10.9768C10.0951 10.4914 10.6513 10.1602 11.245 10.0123C11.2507 9.78105 11.3515 9.55035 11.5378 9.40905Z" fill="#4B4B4B"/>
<path d="M7.25397 5.27486C7.75347 5.25986 8.25297 5.25386 8.75277 5.25176C10.9176 5.24876 13.0824 5.24876 15.2472 5.25176C15.747 5.25386 16.2465 5.25986 16.746 5.27486C17.4783 5.30066 18.213 5.34116 18.9348 5.47406C19.5108 5.58086 20.0817 5.75336 20.5902 6.04976C21.3246 6.47246 21.9003 7.15436 22.2096 7.94186C22.5033 8.67356 22.611 9.46286 22.6725 10.244C22.7739 11.6768 22.7433 13.1147 22.7493 14.5499C22.749 15.4502 22.7478 16.3511 22.7043 17.2505C22.6482 18.2567 22.5549 19.2887 22.1403 20.2199C21.7752 21.0476 21.1032 21.7337 20.2809 22.112C19.3914 22.526 18.3996 22.6331 17.4315 22.6943C15.963 22.7732 14.4918 22.7426 13.0218 22.7492C11.3817 22.7459 9.74127 22.7564 8.10087 22.7426C7.29957 22.7312 6.49677 22.7114 5.69997 22.6205C5.03607 22.5425 4.36977 22.4096 3.75837 22.1303C2.98887 21.7844 2.34177 21.1739 1.95747 20.4221C1.67757 19.8815 1.52457 19.2851 1.43157 18.686C1.33557 18.062 1.29927 17.4302 1.27707 16.7996C1.24467 15.7991 1.25127 14.798 1.25067 13.7969C1.25277 12.6062 1.24137 11.4134 1.32927 10.2251C1.39017 9.45686 1.49757 8.68106 1.78317 7.96016C2.08377 7.18646 2.63847 6.51116 3.35217 6.08396C3.87567 5.76686 4.46877 5.58386 5.06757 5.47346C5.78877 5.34116 6.52257 5.30036 7.25397 5.27486ZM7.71897 6.76376C7.16457 6.77516 6.60957 6.79496 6.05757 6.84926C5.51007 6.90686 4.95597 6.98936 4.44567 7.20536C4.02717 7.38086 3.65877 7.67786 3.41157 8.05946C3.17337 8.42156 3.04707 8.84396 2.96277 9.26546C2.86227 9.78086 2.82057 10.3058 2.79327 10.8299C2.75757 11.5595 2.75427 12.2903 2.75037 13.0205C2.75247 14.0408 2.74467 15.0608 2.75997 16.0811C2.77257 16.7705 2.79177 17.4614 2.87187 18.1472C2.93457 18.6578 3.02727 19.1735 3.24537 19.6433C3.45417 20.0948 3.81297 20.4767 4.25667 20.7038C4.77717 20.9741 5.36517 21.071 5.94147 21.1382C6.71847 21.2219 7.50087 21.2348 8.28177 21.2447C9.25107 21.2531 10.2207 21.2477 11.1903 21.2492C12.6906 21.2471 14.1909 21.2543 15.6912 21.245C16.5027 21.2345 17.316 21.2222 18.1233 21.131C18.6342 21.0692 19.1502 20.9789 19.6218 20.7644C20.049 20.5718 20.4168 20.2469 20.6508 19.8401C20.9181 19.3784 21.0306 18.8477 21.1053 18.3251C21.1905 17.7002 21.2166 17.0693 21.2328 16.4396C21.2538 15.5501 21.2487 14.6603 21.2493 13.7708C21.2493 12.8705 21.2514 11.9699 21.2175 11.0702C21.1878 10.3958 21.1455 9.71666 20.9919 9.05726C20.8755 8.55686 20.667 8.05916 20.2917 7.69706C19.9236 7.32026 19.4184 7.11626 18.9129 7.00106C18.1908 6.83846 17.448 6.80156 16.7106 6.77486C15.2208 6.73436 13.7301 6.75536 12.2397 6.74996C10.7328 6.75416 9.22557 6.73916 7.71897 6.76376Z" fill="#4B4B4B"/>
</svg>
