<svg width="24" height="24" viewBox="0 0 24 24" fill="none" xmlns="http://www.w3.org/2000/svg">
<path opacity="0.5" d="M9.147 1.4409C9.8514 1.2534 10.5873 1.2627 11.3106 1.251C12.0903 1.254 12.8709 1.2378 13.6503 1.2735C14.2872 1.3077 14.9511 1.3824 15.5094 1.7157C16.029 2.0199 16.3968 2.5449 16.5522 3.1221C16.7424 3.822 16.7403 4.5552 16.746 5.2749C16.2465 5.2599 15.747 5.2539 15.2472 5.2518C15.2436 4.7814 15.2406 4.3089 15.1746 3.8424C15.1314 3.5721 15.0678 3.2763 14.853 3.0867C14.6268 2.8917 14.3178 2.8476 14.0322 2.8086C13.3974 2.7399 12.7578 2.754 12.1203 2.7507C11.5401 2.7522 10.9593 2.7441 10.3797 2.7741C10.0686 2.7942 9.7527 2.8167 9.4548 2.9148C9.2751 2.9736 9.1086 3.0855 9.0102 3.2499C8.88 3.4659 8.8413 3.7212 8.8086 3.9675C8.7603 4.3935 8.7555 4.8234 8.7528 5.2518C8.253 5.2539 7.7535 5.2599 7.254 5.2749C7.2513 4.8867 7.2615 4.4979 7.2888 4.1106C7.3329 3.4983 7.4451 2.8611 7.8072 2.3496C8.1228 1.8942 8.6151 1.5807 9.147 1.4409Z" fill="#4B4B4B"/>
<path opacity="0.5" d="M11.5377 9.40921C11.7747 9.21751 12.1311 9.19711 12.3891 9.35881C12.6168 9.49231 12.7503 9.75121 12.7548 10.0119C13.2732 10.1427 13.7628 10.4094 14.1312 10.7997C14.5083 11.1909 14.7372 11.7228 14.7495 12.2673C14.7636 12.4752 14.6952 12.69 14.5506 12.8424C14.3544 13.0605 14.0238 13.1421 13.7487 13.0401C13.4643 12.9423 13.2546 12.66 13.251 12.3582C13.2537 12.1332 13.1367 11.9238 12.9783 11.7711C12.7269 11.5287 12.372 11.4201 12.0285 11.4171C11.6523 11.4081 11.2566 11.5245 10.9911 11.8014C10.8276 11.9721 10.7097 12.2151 10.7634 12.4557C10.8315 12.7533 11.0694 12.9861 11.3397 13.1121C11.5449 13.2093 11.7732 13.2495 11.9991 13.2501C12.6669 13.2504 13.338 13.47 13.8627 13.8864C14.1915 14.1459 14.4576 14.4894 14.6073 14.8821C14.835 15.4773 14.7903 16.1724 14.4777 16.7292C14.1213 17.3784 13.4547 17.8071 12.7512 17.9943C12.7506 18.2001 12.6666 18.405 12.5148 18.5448C12.294 18.7614 11.9334 18.8127 11.6601 18.6687C11.409 18.5439 11.2455 18.2715 11.2479 17.9919C10.6938 17.8455 10.1679 17.5548 9.7926 17.1162C9.4569 16.7325 9.2589 16.2309 9.2502 15.7203C9.2409 15.5568 9.2823 15.3906 9.3732 15.2538C9.5184 15.0312 9.7872 14.8962 10.053 14.9187C10.3473 14.9349 10.617 15.1434 10.7097 15.423C10.7694 15.5748 10.728 15.7461 10.7955 15.8964C10.9287 16.2327 11.2587 16.4568 11.6022 16.5375C11.9745 16.6227 12.3828 16.5945 12.7233 16.4139C12.972 16.2798 13.1865 16.0497 13.2414 15.7656C13.2822 15.5316 13.1664 15.2988 13.0068 15.1341C12.75 14.8644 12.3675 14.748 12.0021 14.7504C11.1357 14.7495 10.251 14.3769 9.7125 13.6851C9.3873 13.2699 9.2205 12.735 9.2532 12.2085C9.2751 11.763 9.4413 11.3277 9.7161 10.977C10.095 10.4916 10.6512 10.1604 11.2449 10.0125C11.2506 9.78121 11.3514 9.55051 11.5377 9.40921Z" fill="#4B4B4B"/>
<path d="M7.254 5.27489C7.7535 5.25989 8.253 5.25389 8.7528 5.25179C10.9176 5.24879 13.0824 5.24879 15.2472 5.25179C15.747 5.25389 16.2465 5.25989 16.746 5.27489C17.4783 5.30069 18.213 5.34119 18.9348 5.47409C19.5108 5.58089 20.0817 5.75339 20.5902 6.04979C21.3246 6.47249 21.9003 7.15439 22.2096 7.94189C22.5033 8.67359 22.611 9.46289 22.6725 10.2441C22.7739 11.6769 22.7433 13.1148 22.7493 14.55C22.749 15.4503 22.7478 16.3512 22.7043 17.2506C22.6482 18.2568 22.5549 19.2888 22.1403 20.22C21.7752 21.0477 21.1032 21.7338 20.2809 22.1121C19.3914 22.5261 18.3996 22.6332 17.4315 22.6944C15.963 22.7733 14.4918 22.7427 13.0218 22.7493C11.3817 22.746 9.7413 22.7565 8.1009 22.7427C7.2996 22.7313 6.4968 22.7115 5.7 22.6206C5.0361 22.5426 4.3698 22.4097 3.7584 22.1304C2.9889 21.7845 2.3418 21.174 1.9575 20.4222C1.6776 19.8816 1.5246 19.2852 1.4316 18.6861C1.3356 18.0621 1.2993 17.4303 1.2771 16.7997C1.2447 15.7992 1.2513 14.7981 1.2507 13.797C1.2528 12.6063 1.2414 11.4135 1.3293 10.2252C1.3902 9.45689 1.4976 8.68109 1.7832 7.96019C2.0838 7.18649 2.6385 6.51119 3.3522 6.08399C3.8757 5.76689 4.4688 5.58389 5.0676 5.47349C5.7888 5.34119 6.5226 5.30039 7.254 5.27489ZM7.719 6.76379C7.1646 6.77519 6.6096 6.79499 6.0576 6.84929C5.5101 6.90689 4.956 6.98939 4.4457 7.20539C4.0272 7.38089 3.6588 7.67789 3.4116 8.05949C3.1734 8.42159 3.0471 8.84399 2.9628 9.26549C2.8623 9.78089 2.8206 10.3059 2.7933 10.83C2.7576 11.5596 2.7543 12.2904 2.7504 13.0206C2.7525 14.0409 2.7447 15.0609 2.76 16.0812C2.7726 16.7706 2.7918 17.4615 2.8719 18.1473C2.9346 18.6579 3.0273 19.1736 3.2454 19.6434C3.4542 20.0949 3.813 20.4768 4.2567 20.7039C4.7772 20.9742 5.3652 21.0711 5.9415 21.1383C6.7185 21.222 7.5009 21.2349 8.2818 21.2448C9.2511 21.2532 10.2207 21.2478 11.1903 21.2493C12.6906 21.2472 14.1909 21.2544 15.6912 21.2451C16.5027 21.2346 17.316 21.2223 18.1233 21.1311C18.6342 21.0693 19.1502 20.979 19.6218 20.7645C20.049 20.5719 20.4168 20.247 20.6508 19.8402C20.9181 19.3785 21.0306 18.8478 21.1053 18.3252C21.1905 17.7003 21.2166 17.0694 21.2328 16.4397C21.2538 15.5502 21.2487 14.6604 21.2493 13.7709C21.2493 12.8706 21.2514 11.97 21.2175 11.0703C21.1878 10.3959 21.1455 9.71669 20.9919 9.05729C20.8755 8.55689 20.667 8.05919 20.2917 7.69709C19.9236 7.32029 19.4184 7.11629 18.9129 7.00109C18.1908 6.83849 17.448 6.80159 16.7106 6.77489C15.2208 6.73439 13.7301 6.75539 12.2397 6.74999C10.7328 6.75419 9.2256 6.73919 7.719 6.76379Z" fill="#4B4B4B"/>
</svg>
