<svg width="24" height="24" viewBox="0 0 24 24" fill="none" xmlns="http://www.w3.org/2000/svg">
<path d="M5.78035 1.36971C6.84899 1.25702 7.92506 1.2568 8.99842 1.25027C10.4369 1.24802 11.8755 1.2496 13.3142 1.24915C14.5675 1.25275 15.8215 1.23655 17.0741 1.28716C17.9999 1.3317 18.9394 1.40345 19.8227 1.70418C20.471 1.92326 21.07 2.30092 21.5198 2.81961C21.9431 3.29668 22.2236 3.88577 22.3899 4.49826C22.5745 5.17192 22.6449 5.87055 22.687 6.56604C22.7347 7.39018 22.7389 8.21612 22.7421 9.04139C22.7421 10.3905 22.7497 11.7403 22.7293 13.089C22.6982 13.5701 22.6823 14.0533 22.6056 14.5301C22.53 15.0232 22.4007 15.5144 22.1611 15.9546C21.8696 16.4949 21.4071 16.94 20.8574 17.2129C20.4192 17.432 19.9377 17.5491 19.4547 17.6182C18.9487 17.6902 18.4372 17.7147 17.9266 17.7293C17.2516 17.7471 16.5765 17.7437 15.9013 17.7439C14.8495 17.7439 13.7975 17.7442 12.7458 17.7439C12.246 17.7439 11.7464 17.7439 11.2468 17.7439C9.97192 17.7442 8.69702 17.7439 7.42234 17.7439C6.84472 17.743 6.26687 17.7406 5.68971 17.7163C5.20768 17.6949 4.72476 17.6594 4.24971 17.5707C3.82909 17.492 3.41342 17.367 3.03643 17.1611C2.49683 16.8694 2.05192 16.4067 1.77998 15.8568C1.53863 15.3736 1.42189 14.8394 1.35553 14.3066C1.29638 13.8664 1.29053 13.4215 1.25477 12.9795C1.26939 12.7093 1.24959 12.4387 1.25229 12.1684C1.24712 11.3883 1.24982 10.608 1.24914 9.82797C1.25094 8.86099 1.24644 7.89335 1.28693 6.92682C1.31505 6.29814 1.36071 5.66812 1.4761 5.04844C1.61173 4.31224 1.8668 3.58077 2.33398 2.98695C2.62324 2.61582 2.98268 2.29912 3.38845 2.06092C4.11317 1.63378 4.95328 1.46081 5.78035 1.36971ZM5.82264 2.87426C5.34826 2.93387 4.87096 3.02002 4.42987 3.21076C4.11565 3.34594 3.82819 3.54658 3.60281 3.8048C3.37878 4.05672 3.22155 4.3615 3.11426 4.67978C2.97728 5.08712 2.90867 5.51382 2.86054 5.93983C2.79801 6.51475 2.77664 7.09305 2.76359 7.67089C2.74717 8.47277 2.74965 9.27487 2.74875 10.077C2.7492 10.8001 2.74695 11.5235 2.7528 12.2467C2.75797 12.7467 2.76697 13.2471 2.80566 13.7458C2.83782 14.1244 2.88236 14.5054 2.9955 14.8698C3.08344 15.1581 3.23325 15.4337 3.4602 15.6359C3.74541 15.8982 4.12667 16.0196 4.49983 16.0921C5.07767 16.2 5.66744 16.2189 6.25383 16.2338C7.33327 16.2529 8.41271 16.2414 9.49214 16.2446C11.8841 16.2446 14.276 16.2446 16.6676 16.2446C17.3654 16.2405 18.0642 16.2412 18.7602 16.1868C19.156 16.1526 19.5553 16.1049 19.9336 15.9769C20.1943 15.8892 20.4406 15.747 20.6266 15.5421C20.8365 15.3183 20.9591 15.0288 21.0358 14.7355C21.1197 14.4116 21.1593 14.0783 21.1865 13.7456C21.2256 13.2469 21.2342 12.7465 21.2396 12.2464C21.2463 11.0433 21.2445 9.84034 21.2407 8.63719C21.2335 7.78156 21.2267 6.92435 21.1455 6.07187C21.1003 5.62448 21.0353 5.17642 20.8999 4.74635C20.7929 4.40694 20.6318 4.07989 20.3952 3.81132C20.1739 3.55648 19.8929 3.35606 19.5845 3.22043C19.1675 3.03576 18.7156 2.94737 18.266 2.88641C17.6389 2.80476 17.0062 2.78024 16.3746 2.76495C15.2875 2.74268 14.1999 2.75055 13.1126 2.74875C11.6432 2.74965 10.1735 2.74628 8.70399 2.75123C7.74286 2.76 6.77859 2.76247 5.82264 2.87426Z" fill="#4B4B4B"/>
<path opacity="0.5" d="M2.75293 12.2468C8.9151 12.2464 15.0775 12.2468 21.2397 12.2466C21.2343 12.7466 21.2257 13.2471 21.1866 13.7457C15.0597 13.7464 8.93265 13.746 2.80579 13.746C2.7671 13.2473 2.7581 12.7468 2.75293 12.2468Z" fill="#4B4B4B"/>
<path opacity="0.5" d="M11.2467 17.7441C11.7463 17.7441 12.2459 17.7441 12.7457 17.7441C12.7461 18.9106 12.7452 20.0773 12.7461 21.2438C13.7981 21.2438 14.8501 21.244 15.9021 21.2436C16.0254 21.24 16.152 21.2465 16.2676 21.2944C16.5886 21.4139 16.7955 21.7722 16.7355 22.11C16.6869 22.4659 16.3517 22.7513 15.9928 22.7432C13.3235 22.7432 10.6543 22.7439 7.98499 22.7428C7.59091 22.7468 7.24069 22.3932 7.24744 21.9996C7.2344 21.6109 7.56999 21.2535 7.95934 21.2449C9.05475 21.2425 10.1507 21.2445 11.2463 21.2438C11.2467 20.0773 11.2456 18.9109 11.2467 17.7441Z" fill="#4B4B4B"/>
</svg>
