<svg width="24" height="24" viewBox="0 0 24 24" fill="none" xmlns="http://www.w3.org/2000/svg">
<path d="M19.6147 15.1387C19.4869 14.923 19.1274 14.5875 18.2327 14.7473C17.7375 14.8351 17.2342 14.8751 16.731 14.8511C14.8697 14.7712 13.1842 13.9165 12.01 12.5985C10.9715 11.4402 10.3325 9.93041 10.3245 8.30084C10.3245 7.3902 10.5002 6.51151 10.8597 5.68074C11.2112 4.87394 10.9636 4.45057 10.7878 4.27484C10.6041 4.09111 10.1727 3.83549 9.32599 4.18697C6.05885 5.56092 4.03786 8.83604 4.27751 12.3428C4.51715 15.6419 6.8337 18.4617 9.90113 19.5241C10.636 19.7798 11.4109 19.9315 12.2097 19.9635C12.3375 19.9715 12.4653 19.9795 12.5931 19.9795C15.2691 19.9795 17.7774 18.7173 19.359 16.5685C19.8943 15.8257 19.7505 15.3544 19.6147 15.1387Z" fill="#4B4B4B"/>
</svg>
