<svg width="24" height="24" viewBox="0 0 24 24" fill="none" xmlns="http://www.w3.org/2000/svg">
<path d="M12.7648 3.12308C13.1636 3.05898 13.5795 3.0853 13.9607 3.22205C14.2945 3.34037 14.6108 3.51289 14.8818 3.74142C15.176 3.99176 15.3989 4.31791 15.5528 4.67038C15.7446 5.10719 15.8452 5.57774 15.916 6.04762C16.0418 6.92012 16.0798 7.80185 16.125 8.6811C16.158 9.37118 16.1904 10.0612 16.2156 10.7518C16.2354 11.3213 16.2545 11.8915 16.239 12.4615C16.2129 13.5229 16.1598 14.5835 16.1086 15.6438C16.0629 16.4812 16.0213 17.3215 15.8832 18.1499C15.7779 18.7559 15.6081 19.372 15.2356 19.8722C15.0415 20.1345 14.7898 20.3516 14.508 20.5151C14.1586 20.72 13.7684 20.868 13.3619 20.8959C12.9265 20.9292 12.491 20.837 12.083 20.6899C11.4998 20.4775 10.9586 20.1676 10.4282 19.8488C9.55254 19.3158 8.70523 18.7384 7.84644 18.1792C7.70226 18.0876 7.55876 17.9929 7.40086 17.9264C7.14534 17.817 6.86935 17.7534 6.59089 17.7496C5.99865 17.7361 5.40596 17.7536 4.81372 17.7349C4.32494 17.7188 3.83032 17.6801 3.36202 17.5298C2.75831 17.3339 2.22995 16.947 1.80461 16.4814C1.52592 16.1746 1.29244 15.8233 1.14084 15.4364C0.963369 14.9904 0.894316 14.5108 0.851804 14.0353C0.810417 13.5263 0.779152 13.0161 0.758908 12.506C0.727868 11.7408 0.779377 10.976 0.831111 10.2133C0.869124 9.70565 0.920183 9.19236 1.08528 8.70764C1.28007 8.1226 1.65818 7.61201 2.11456 7.20286C2.46725 6.88886 2.87302 6.62659 3.32266 6.47566C3.72956 6.33845 4.15985 6.28919 4.58699 6.26693C5.1718 6.23881 5.75752 6.25051 6.34279 6.24713C6.56097 6.24443 6.7814 6.24623 6.99509 6.19607C7.26253 6.13939 7.51692 6.02895 7.74455 5.87802C8.69285 5.26666 9.62181 4.62472 10.5906 4.04597C11.2705 3.64919 11.9782 3.25332 12.7648 3.12308ZM12.9895 4.6056C12.7778 4.64046 12.5747 4.71379 12.3781 4.79746C12.0358 4.94524 11.7096 5.12676 11.3889 5.31592C10.6473 5.75746 9.93087 6.23904 9.20952 6.71206C8.90856 6.90798 8.6139 7.11424 8.30148 7.29148C7.93552 7.49594 7.53199 7.63023 7.11902 7.6986C6.75104 7.75686 6.3772 7.74539 6.00607 7.74696C5.52562 7.74989 5.04449 7.74449 4.56449 7.77103C4.27299 7.78948 3.9754 7.81827 3.70369 7.93321C3.47876 8.02903 3.27722 8.17321 3.0966 8.33651C2.86627 8.54816 2.66316 8.79739 2.54215 9.08822C2.42946 9.35904 2.39235 9.65302 2.36131 9.9425C2.31407 10.4436 2.28393 10.9463 2.26076 11.4491C2.2313 12.0867 2.26301 12.7249 2.30665 13.3607C2.33904 13.7897 2.35613 14.2231 2.45623 14.6431C2.53788 14.9899 2.73694 15.2983 2.98594 15.5489C3.27092 15.8383 3.62339 16.0819 4.02871 16.1584C4.47992 16.2432 4.9417 16.2349 5.39898 16.2432C5.89428 16.2518 6.3907 16.2293 6.88532 16.2653C7.47104 16.3181 8.04123 16.5197 8.53428 16.8395C9.56198 17.4985 10.5625 18.2012 11.621 18.811C11.9827 19.0137 12.3522 19.2103 12.7504 19.3315C12.9852 19.401 13.2448 19.4399 13.4796 19.3499C13.6924 19.2687 13.9049 19.1543 14.0406 18.9658C14.1816 18.7699 14.2576 18.5368 14.3188 18.306C14.4171 17.9169 14.4661 17.5174 14.5057 17.1186C14.5642 16.5046 14.5948 15.8883 14.6256 15.2722C14.6744 14.2083 14.7311 13.1444 14.745 12.0791C14.7453 11.389 14.7129 10.6994 14.6852 10.01C14.6386 9.02771 14.6038 8.04432 14.523 7.06385C14.4765 6.55664 14.4243 6.0456 14.2821 5.55457C14.2032 5.29726 14.0954 5.02914 13.8779 4.85729C13.6265 4.6697 13.3075 4.53879 12.9895 4.6056Z" fill="#4B4B4B"/>
<path opacity="0.5" d="M17.4586 9.47276C17.6295 9.29394 17.8927 9.21229 18.1352 9.25998C18.2791 9.28742 18.4148 9.35782 18.5189 9.46129C19.0104 9.95231 19.5007 10.4447 19.9933 10.9348C20.4909 10.4402 20.9844 9.94152 21.4828 9.4478C21.7575 9.17968 22.2379 9.18238 22.5098 9.45297C22.8004 9.71591 22.8214 10.2106 22.5524 10.496C22.0546 10.9976 21.5528 11.4954 21.0543 11.9963C21.5507 12.4947 22.0499 12.9907 22.5461 13.4894C22.8142 13.7671 22.8052 14.2514 22.529 14.5204C22.2617 14.8063 21.768 14.82 21.4866 14.5479C20.9866 14.0535 20.4922 13.553 19.9931 13.0573C19.4998 13.549 19.0081 14.0422 18.5153 14.5344C18.3462 14.7022 18.0931 14.7771 17.8596 14.7332C17.5895 14.6867 17.356 14.479 17.278 14.2166C17.1966 13.9608 17.2672 13.6652 17.4557 13.4743C17.9465 12.9803 18.4409 12.4895 18.9321 11.9958C18.4712 11.5343 18.0097 11.0732 17.5483 10.6118C17.4471 10.5151 17.3484 10.4096 17.2984 10.276C17.1873 10.0077 17.2523 9.67767 17.4586 9.47276Z" fill="#4B4B4B"/>
</svg>
