<svg width="25" height="25" viewBox="0 0 25 25" fill="none" xmlns="http://www.w3.org/2000/svg">
<path d="M8.72292 1.77962C10.1877 1.73936 11.6533 1.75668 13.1185 1.75195C14.3567 1.75758 15.5961 1.74048 16.8332 1.80436C17.7478 1.85834 18.679 1.94764 19.5375 2.28841C20.2409 2.5608 20.8615 3.0453 21.2893 3.667C21.6649 4.20954 21.8806 4.84631 22.0052 5.49006C22.1454 6.21771 22.1917 6.95975 22.2169 7.69932C22.2434 8.51559 22.2446 9.33231 22.2441 10.1488C22.2441 11.6639 22.2441 13.1791 22.2441 14.694C22.243 15.8301 22.2497 16.9675 22.178 18.1021C22.1141 18.9955 22.001 19.9065 21.6287 20.7306C21.3134 21.4347 20.7792 22.0397 20.1134 22.4306C19.3994 22.8553 18.5703 23.0294 17.7541 23.1227C16.7306 23.2339 15.6998 23.2386 14.6716 23.246C13.3295 23.2496 11.9873 23.2519 10.6452 23.2465C9.83542 23.2456 9.025 23.2402 8.21593 23.1997C7.42305 23.1565 6.62388 23.0836 5.86002 22.8544C5.21807 22.6637 4.60963 22.3335 4.13795 21.8532C3.63591 21.3584 3.30122 20.7144 3.11407 20.0392C2.86778 19.1572 2.81222 18.2368 2.7778 17.3261C2.73664 16.0444 2.75261 14.7617 2.74924 13.4793C2.75194 11.9048 2.74294 10.3301 2.75509 8.75537C2.77061 7.70472 2.785 6.64777 2.96585 5.60972C3.1008 4.84541 3.36037 4.0829 3.85027 3.47019C4.14628 3.09703 4.51359 2.78078 4.92611 2.54281C5.59797 2.15728 6.36723 1.98543 7.12929 1.89163C7.6581 1.82753 8.19051 1.79806 8.72292 1.77962ZM10.1139 3.25673C9.85589 3.25853 9.5979 3.26078 9.34013 3.26528C8.47527 3.2844 7.6048 3.30554 6.75276 3.46884C6.39197 3.54082 6.03366 3.64564 5.71021 3.82378C5.34763 4.02082 5.04375 4.32245 4.83839 4.68009C4.4767 5.33283 4.3928 6.09062 4.32465 6.82119C4.27269 7.49463 4.26167 8.17032 4.25447 8.84534C4.24187 10.7572 4.25334 12.6689 4.24974 14.5808C4.25177 15.6294 4.24457 16.6787 4.29653 17.7262C4.32667 18.2629 4.37076 18.801 4.4821 19.3277C4.55093 19.6451 4.6472 19.9598 4.79835 20.2484C4.99921 20.6278 5.30691 20.952 5.6821 21.1623C6.00555 21.3447 6.36498 21.4529 6.72734 21.5271C7.18823 21.6195 7.6572 21.6641 8.12596 21.6933C9.0394 21.7448 9.95464 21.7435 10.8692 21.7484C12.3011 21.7457 13.733 21.7543 15.1649 21.7421C16.1445 21.7271 17.1303 21.7226 18.0989 21.5586C18.5092 21.4864 18.9192 21.3775 19.2865 21.1762C19.6451 20.9814 19.9447 20.6834 20.1494 20.3311C20.3282 20.0223 20.435 19.6775 20.5113 19.3304C20.6177 18.8268 20.6629 18.3126 20.6932 17.7993C20.7528 16.6679 20.7409 15.5345 20.7445 14.4022C20.74 12.6176 20.751 10.833 20.7414 9.04845C20.7303 8.10149 20.7267 7.15094 20.6035 6.21006C20.5416 5.74356 20.4427 5.27593 20.2425 4.84744C20.085 4.51094 19.8437 4.21448 19.5463 3.99203C19.2483 3.76957 18.8965 3.63057 18.5389 3.53677C18.1122 3.42723 17.6738 3.37235 17.2356 3.33456C16.1508 3.24819 15.0614 3.26011 13.9739 3.25268C12.6873 3.25381 11.4005 3.24909 10.1139 3.25673Z" fill="#4B4B4B"/>
<path d="M12.0281 9.40371C12.9283 9.34702 13.8469 9.44712 14.6949 9.76359C15.1286 9.92554 15.5449 10.1466 15.8967 10.4501C16.1671 10.682 16.3972 10.9676 16.5357 11.2978C16.6288 11.5171 16.6752 11.7553 16.6745 11.9935C16.6767 12.4108 16.6657 12.8438 16.4921 13.2311C16.3454 13.5694 16.076 13.8447 15.7584 14.0267C15.4151 14.224 15.0298 14.3355 14.6429 14.4095C14.1179 14.508 13.5835 14.5456 13.0502 14.5618C12.5221 14.5755 11.9933 14.571 11.4658 14.5407C10.9885 14.5116 10.5107 14.4579 10.046 14.3425C9.68323 14.2507 9.32492 14.1144 9.02441 13.887C8.7626 13.6915 8.55926 13.418 8.45107 13.1096C8.35232 12.8316 8.32353 12.5347 8.31903 12.2416C8.31746 12.0401 8.30936 11.8361 8.35165 11.6375C8.4288 11.252 8.63866 10.902 8.91195 10.6228C9.37238 10.1498 9.98216 9.85154 10.6063 9.6581C11.0679 9.51662 11.5468 9.43587 12.0281 9.40371ZM12.0513 10.505C11.6262 10.5371 11.2029 10.6134 10.7991 10.7517C10.4669 10.8666 10.1437 11.0185 9.86678 11.2376C9.69493 11.3745 9.54198 11.545 9.45988 11.7515C9.39082 11.945 9.42434 12.1535 9.42501 12.3539C9.43469 12.5631 9.4619 12.7961 9.61845 12.9511C9.80267 13.118 10.0431 13.2048 10.28 13.2664C10.8837 13.4194 11.5099 13.4509 12.13 13.4655C12.7382 13.4747 13.3482 13.4675 13.9535 13.4003C14.3456 13.353 14.7439 13.293 15.1063 13.1276C15.2662 13.0532 15.4248 12.9423 15.4923 12.7727C15.5852 12.5318 15.5658 12.2691 15.5746 12.0163C15.5834 11.8118 15.4889 11.6184 15.36 11.4652C15.1256 11.1901 14.8053 11.003 14.4774 10.8604C13.7149 10.541 12.8716 10.4458 12.0513 10.505Z" fill="#4B4B4B"/>
<path d="M9.44009 16.3708C11.3709 16.3645 13.3019 16.3699 15.2327 16.3681C15.4203 16.3715 15.6176 16.3468 15.793 16.43C16.0955 16.5542 16.287 16.8916 16.2393 17.2152C16.2001 17.5675 15.8803 17.8612 15.5253 17.8671C13.5907 17.8684 11.6563 17.8673 9.7217 17.8675C9.54558 17.8669 9.36092 17.8833 9.19694 17.8045C8.90791 17.6838 8.71942 17.368 8.74978 17.0562C8.77295 16.7006 9.08223 16.3877 9.44009 16.3708Z" fill="#4B4B4B"/>
<path opacity="0.5" d="M12.0048 4.42945C12.4897 4.35522 12.9974 4.43417 13.4346 4.6573C14.0343 4.95871 14.492 5.52778 14.6562 6.1785C14.7867 6.68684 14.7419 7.23792 14.5305 7.71837C14.2685 8.31983 13.7437 8.79893 13.122 9.00744C12.6114 9.17974 12.0425 9.17052 11.538 8.98158C10.8605 8.73281 10.3173 8.15474 10.1066 7.4651C9.94125 6.93269 9.97297 6.34225 10.1938 5.83054C10.5047 5.09457 11.2146 4.54574 12.0048 4.42945ZM12.092 5.53183C11.7537 5.60561 11.4508 5.82626 11.2762 6.1252C11.0954 6.4275 11.0533 6.80741 11.1588 7.143C11.2598 7.47185 11.5029 7.75369 11.8127 7.90326C12.1033 8.04632 12.4499 8.06926 12.7576 7.96872C13.0752 7.8657 13.3478 7.63132 13.496 7.33217C13.6488 7.03189 13.671 6.6693 13.5601 6.35147C13.4403 6.00126 13.1568 5.71132 12.81 5.58266C12.5822 5.49719 12.3296 5.47965 12.092 5.53183Z" fill="#4B4B4B"/>
<path opacity="0.5" d="M9.52755 19.0868C10.057 19.0757 10.5865 19.0881 11.116 19.0834C12.5335 19.0834 13.951 19.0834 15.3685 19.0834C15.5017 19.0807 15.6389 19.0807 15.7642 19.132C15.9693 19.208 16.1362 19.3778 16.2093 19.5841C16.2853 19.8016 16.2601 20.0549 16.1317 20.2478C15.9925 20.4651 15.739 20.601 15.4805 20.5927C13.4787 20.5931 11.4768 20.5942 9.47492 20.592C9.08557 20.5886 8.7367 20.2341 8.74772 19.8432C8.72905 19.4302 9.11458 19.055 9.52755 19.0868Z" fill="#4B4B4B"/>
</svg>
