<svg width="24" height="24" viewBox="0 0 24 24" fill="none" xmlns="http://www.w3.org/2000/svg">
<path d="M19.3946 0.500707C19.5813 0.285675 19.8962 0.197052 20.1679 0.280951C20.2891 0.316715 20.4 0.384644 20.4893 0.474166C21.0964 1.08125 21.7035 1.68856 22.3108 2.29565C22.4248 2.41486 22.5602 2.52148 22.6295 2.67555C22.7665 2.95199 22.7067 3.30918 22.4869 3.52579C21.8119 4.20058 21.138 4.87694 20.4614 5.55015C20.1845 5.8176 19.7012 5.81152 19.4319 5.53621C19.1465 5.27327 19.1283 4.78562 19.3923 4.50153C19.6384 4.24826 19.8923 4.00241 20.1398 3.75027C19.2517 3.74802 18.3639 3.74734 17.4762 3.75072C17.2422 3.75926 17.0015 3.74892 16.7759 3.81999C16.7402 3.92189 16.7289 4.02963 16.7208 4.1367C16.6986 4.44395 16.7096 4.75233 16.7022 5.06003C16.6801 5.44016 16.3286 5.76136 15.9478 5.74809C15.5654 5.75372 15.2183 5.42329 15.2068 5.04091C15.2059 4.6122 15.196 4.18056 15.2552 3.75477C15.3076 3.37261 15.4635 2.99338 15.7516 2.72864C16.031 2.46074 16.4131 2.33096 16.7917 2.28822C17.273 2.23424 17.7584 2.25358 18.2418 2.24931C18.8752 2.24909 19.5084 2.24954 20.1418 2.24909C19.9531 2.05947 19.7637 1.87075 19.5745 1.68136C19.467 1.57092 19.3431 1.46925 19.2783 1.32552C19.1467 1.06033 19.1937 0.718664 19.3946 0.500707Z" fill="#4B4B4B"/>
<path d="M8.907 2.24391C9.64881 2.20297 10.3922 2.21107 11.1347 2.20904C12.0117 2.20972 12.8887 2.20747 13.7657 2.21039C13.8863 2.21377 14.0091 2.20095 14.1278 2.23064C14.3699 2.2853 14.5746 2.47379 14.6531 2.70906C14.7453 2.97178 14.6744 3.28173 14.4774 3.47855C14.3022 3.66614 14.0358 3.73249 13.7866 3.70977C13.0149 3.7073 12.2429 3.70888 11.471 3.70843C10.8643 3.7091 10.2575 3.70618 9.65106 3.71697C9.23382 3.72597 8.8159 3.73992 8.40203 3.79525C8.14179 3.83191 7.87929 3.8832 7.64042 3.99634C7.43078 4.0953 7.25174 4.25838 7.1377 4.46059C7.02478 4.65988 6.96653 4.88458 6.92514 5.10839C6.85024 5.53013 6.83247 5.95952 6.81987 6.38689C6.79648 7.52008 6.81425 8.65351 6.80638 9.7867C6.79648 9.98014 6.70583 10.1671 6.5621 10.2966C6.36057 10.4844 6.05196 10.5427 5.79532 10.4442C5.56656 10.3598 5.38527 10.1574 5.32971 9.91963C5.30407 9.82404 5.30812 9.72417 5.30835 9.62633C5.30835 9.05883 5.30835 8.49133 5.30835 7.92383C5.3079 7.41617 5.30812 6.90873 5.31959 6.40128C5.33241 5.91521 5.35446 5.42756 5.43138 4.94666C5.49616 4.54741 5.6039 4.15041 5.79442 3.79165C5.98403 3.43221 6.25822 3.11776 6.5891 2.88158C6.88623 2.6688 7.2279 2.5235 7.58014 2.43037C8.01335 2.31589 8.46096 2.27045 8.907 2.24391Z" fill="#4B4B4B"/>
<path d="M17.3466 6.41322C17.4505 6.11812 17.7467 5.90038 18.0619 5.90421C18.3664 5.89813 18.6627 6.10215 18.7585 6.39253C18.7866 6.478 18.7981 6.56843 18.7981 6.6584C18.8039 7.08014 18.8046 7.50211 18.8041 7.92385C18.8037 8.53679 18.8048 9.14949 18.8035 9.7622C18.8021 10.1212 18.5057 10.4476 18.1491 10.4856C17.8232 10.5333 17.4845 10.3353 17.3621 10.0305C17.3239 9.93877 17.3041 9.83935 17.3048 9.73993C17.3034 8.8103 17.3075 7.88044 17.3018 6.95081C17.3039 6.77131 17.278 6.5844 17.3466 6.41322Z" fill="#4B4B4B"/>
<path opacity="0.5" d="M9.90682 6.2193C9.98487 6.20108 10.0658 6.20918 10.1455 6.20805C11.4424 6.20783 12.7396 6.2085 14.0365 6.2076C14.3046 6.19253 14.5698 6.34503 14.7041 6.57536C14.8227 6.77307 14.8398 7.02747 14.7532 7.24048C14.645 7.52029 14.3566 7.71148 14.0579 7.71238C12.828 7.71283 11.5981 7.71238 10.3682 7.71261C10.1754 7.70743 9.97452 7.73465 9.79053 7.66222C9.53029 7.56685 9.33437 7.31628 9.30918 7.03962C9.30243 6.9348 9.30446 6.82706 9.34045 6.72719C9.41917 6.47189 9.64523 6.27171 9.90682 6.2193Z" fill="#4B4B4B"/>
<path opacity="0.5" d="M18.7585 6.39251C19.523 6.51284 20.2907 6.7371 20.9275 7.19078C21.4504 7.55989 21.8742 8.06621 22.1491 8.64383C22.4412 9.25181 22.5818 9.91985 22.6644 10.5856C22.7964 11.708 22.7942 12.8403 22.8014 13.9688C22.7996 15.1987 22.8128 16.4291 22.7782 17.6588C22.7595 18.2602 22.7271 18.8622 22.6471 19.4591C22.5748 19.9861 22.4631 20.5113 22.264 21.0064C21.9747 21.7417 21.4567 22.3875 20.7894 22.813C20.0471 23.2915 19.1636 23.482 18.2974 23.5794C17.0906 23.7071 15.8753 23.6957 14.6636 23.702C13.4425 23.702 12.2216 23.702 11.0004 23.702C9.69447 23.6979 8.38808 23.7155 7.08259 23.6691C6.4132 23.6403 5.74178 23.5956 5.08229 23.4703C4.53414 23.3657 3.99161 23.1999 3.50463 22.9228C2.9016 22.5825 2.39685 22.071 2.06463 21.4635C1.64784 20.7043 1.49376 19.8359 1.41099 18.9832C1.30325 17.7872 1.31539 16.585 1.31022 15.3854C1.31292 14.2453 1.30145 13.1046 1.34373 11.9649C1.37252 11.3029 1.41751 10.6392 1.54077 9.98688C1.63682 9.48147 1.7846 8.9819 2.02325 8.52439C2.35727 7.87929 2.88248 7.33519 3.51678 6.98092C4.07146 6.67007 4.69361 6.49597 5.31959 6.40128C5.30812 6.90872 5.30789 7.41616 5.30834 7.92383C4.93361 7.99738 4.56135 8.10872 4.22868 8.29991C3.87982 8.49965 3.58673 8.79543 3.39037 9.14632C3.1182 9.63419 3.01069 10.192 2.93871 10.7399C2.85594 11.4082 2.83412 12.0821 2.82085 12.7546C2.80128 13.969 2.80825 15.1837 2.8105 16.3983C2.82759 17.4638 2.82175 18.5371 3.00259 19.5909C3.07524 19.9866 3.18118 20.3818 3.3753 20.7369C3.56199 21.0809 3.84023 21.3746 4.17447 21.5786C4.52019 21.7903 4.91404 21.9084 5.30902 21.9882C6.01282 22.1257 6.73125 22.1583 7.4463 22.1826C8.92274 22.2172 10.4001 22.2003 11.877 22.2044C13.189 22.2021 14.5012 22.2105 15.8135 22.1976C16.4095 22.1916 17.006 22.1787 17.601 22.1383C18.0517 22.1047 18.5029 22.0575 18.9443 21.9581C19.301 21.8769 19.6539 21.7584 19.9648 21.562C20.301 21.3503 20.5781 21.0469 20.7603 20.6938C20.9662 20.2988 21.0685 19.8595 21.1382 19.4222C21.2345 18.801 21.2631 18.1721 21.2833 17.5445C21.3112 16.3679 21.304 15.1906 21.3038 14.0138C21.2995 13.2639 21.2966 12.5135 21.2599 11.7645C21.2277 11.1835 21.1812 10.6 21.0503 10.0316C20.9657 9.67311 20.8427 9.31817 20.6382 9.00911C20.4315 8.69421 20.1429 8.43464 19.8102 8.25897C19.496 8.09297 19.1516 7.99176 18.8041 7.92383C18.8046 7.50208 18.8039 7.08012 18.7981 6.65837C18.7981 6.5684 18.7866 6.47798 18.7585 6.39251Z" fill="#4B4B4B"/>
<path opacity="0.5" d="M9.29455 9.20839C9.59933 9.19399 9.90524 9.20614 10.2107 9.20209C11.7263 9.20276 13.2416 9.20074 14.7572 9.20321C15.08 9.20951 15.3791 9.44411 15.4617 9.75632C15.5287 10.0035 15.465 10.2858 15.2844 10.4702C15.1607 10.6054 14.985 10.6918 14.8024 10.7064C13.0318 10.7069 11.2611 10.7066 9.49024 10.7066C9.39262 10.7048 9.29298 10.7161 9.19783 10.688C8.98168 10.6367 8.79431 10.4819 8.69826 10.2824C8.59727 10.073 8.60042 9.8157 8.70906 9.60989C8.8213 9.38946 9.04848 9.23381 9.29455 9.20839Z" fill="#4B4B4B"/>
<path opacity="0.5" d="M4.4642 10.3612C4.69812 10.2932 4.96332 10.3495 5.14888 10.5076C5.89722 11.1311 6.64556 11.7548 7.39391 12.3783C8.02034 12.8988 8.64249 13.4247 9.27904 13.9331C9.66592 14.2396 10.058 14.5417 10.4745 14.8076C10.8284 15.0314 11.2042 15.2354 11.6163 15.3274C11.9939 15.4126 12.3934 15.3816 12.7578 15.2534C13.2079 15.0953 13.6125 14.835 14.0012 14.5633C14.6364 14.1114 15.2345 13.6103 15.8353 13.1141C16.883 12.2425 17.9292 11.3691 18.9764 10.4973C19.1332 10.3695 19.3433 10.3119 19.5435 10.3396C19.8449 10.3758 20.1076 10.614 20.1735 10.91C20.2426 11.1882 20.1326 11.4984 19.9058 11.673C18.7677 12.6197 17.6325 13.5696 16.4934 14.5145C15.8697 15.0264 15.2451 15.54 14.5725 15.9871C13.9918 16.3711 13.357 16.701 12.6647 16.8209C12.0949 16.9215 11.5016 16.8765 10.9518 16.6979C10.2154 16.4608 9.56448 16.0256 8.9475 15.5694C8.24661 15.0456 7.57812 14.4803 6.90536 13.9214C5.99394 13.1613 5.08163 12.4024 4.17089 11.6419C3.91964 11.4271 3.84564 11.0384 3.99859 10.746C4.09126 10.5602 4.26401 10.4165 4.4642 10.3612Z" fill="#4B4B4B"/>
</svg>
