<svg width="24" height="24" viewBox="0 0 24 24" fill="none" xmlns="http://www.w3.org/2000/svg">
<path d="M19.3946 0.500566C19.5813 0.285533 19.8962 0.196911 20.1679 0.28081C20.2891 0.316574 20.4 0.384503 20.4893 0.474025C21.0964 1.08111 21.7035 1.68842 22.3108 2.29551C22.4248 2.41472 22.5603 2.52134 22.6295 2.67541C22.7665 2.95185 22.7067 3.30904 22.4869 3.52565C21.8119 4.20044 21.138 4.8768 20.4614 5.55002C20.1845 5.81746 19.7012 5.81138 19.4319 5.53607C19.1465 5.27313 19.1283 4.78548 19.3923 4.50139C19.6384 4.24812 19.8924 4.00227 20.1398 3.75013C19.2518 3.74788 18.364 3.7472 17.4762 3.75058C17.2422 3.75912 17.0016 3.74878 16.776 3.81986C16.7402 3.92175 16.7289 4.02949 16.7209 4.13656C16.6986 4.44381 16.7096 4.75219 16.7022 5.05989C16.6801 5.44003 16.3286 5.76122 15.9478 5.74795C15.5654 5.75358 15.2183 5.42315 15.2068 5.04077C15.2059 4.61206 15.1961 4.18042 15.2552 3.75463C15.3076 3.37247 15.4635 2.99324 15.7516 2.7285C16.031 2.46061 16.4131 2.33082 16.7917 2.28808C17.2731 2.2341 17.7585 2.25345 18.2418 2.24917C18.8752 2.24895 19.5084 2.2494 20.1418 2.24895C19.9531 2.05933 19.7637 1.87062 19.5745 1.68122C19.467 1.57078 19.3431 1.46912 19.2783 1.32539C19.1467 1.06019 19.1937 0.718523 19.3946 0.500566Z" fill="#4B4B4B"/>
<path d="M8.907 2.24405C9.64881 2.20312 10.3922 2.2112 11.1347 2.20918C12.0117 2.20985 12.8887 2.20761 13.7657 2.21054C13.8863 2.21391 14.0091 2.20108 14.1278 2.23077C14.3699 2.28543 14.5746 2.47392 14.6531 2.7092C14.7453 2.97192 14.6744 3.28188 14.4774 3.47869C14.3022 3.66628 14.0358 3.73264 13.7866 3.70992C13.0149 3.70745 12.2429 3.70902 11.471 3.70857C10.8643 3.70925 10.2575 3.70632 9.65106 3.71712C9.23382 3.72612 8.8159 3.74006 8.40203 3.79539C8.14179 3.83206 7.87929 3.88334 7.64042 3.99648C7.43078 4.09545 7.25174 4.25851 7.1377 4.46073C7.02478 4.66001 6.96653 4.88472 6.92514 5.10852C6.85024 5.53027 6.83247 5.95966 6.81987 6.38702C6.79648 7.52022 6.81425 8.65365 6.80638 9.78685C6.79648 9.98029 6.70583 10.1672 6.5621 10.2967C6.36057 10.4845 6.05196 10.5428 5.79532 10.4443C5.56656 10.3599 5.38527 10.1575 5.32971 9.91978C5.30407 9.82419 5.30812 9.72431 5.30835 9.62646C5.30835 9.05896 5.30835 8.49147 5.30835 7.92397C5.3079 7.41631 5.30812 6.90886 5.31959 6.40142C5.33241 5.91535 5.35446 5.4277 5.43138 4.94681C5.49616 4.54755 5.6039 4.15056 5.79442 3.79179C5.98403 3.43236 6.25822 3.1179 6.5891 2.88172C6.88623 2.66894 7.2279 2.52363 7.58014 2.43051C8.01335 2.31602 8.46096 2.2706 8.907 2.24405Z" fill="#4B4B4B"/>
<path d="M17.3466 6.41296C17.4505 6.11785 17.7468 5.90012 18.0619 5.90394C18.3664 5.89787 18.6627 6.10188 18.7585 6.39227C18.7866 6.47774 18.7981 6.56816 18.7981 6.65813C18.8039 7.07988 18.8046 7.50185 18.8042 7.92359C18.8037 8.53652 18.8048 9.14923 18.8035 9.76194C18.8021 10.121 18.5057 10.4473 18.1492 10.4854C17.8232 10.533 17.4845 10.3351 17.3621 10.0303C17.3239 9.93851 17.3041 9.83909 17.3048 9.73967C17.3034 8.81004 17.3075 7.88018 17.3019 6.95054C17.3039 6.77105 17.278 6.58413 17.3466 6.41296Z" fill="#4B4B4B"/>
<path opacity="0.5" d="M9.90684 6.21926C9.98489 6.20105 10.0659 6.20914 10.1455 6.20802C11.4424 6.20779 12.7396 6.20847 14.0366 6.20757C14.3047 6.1925 14.5699 6.345 14.7041 6.57533C14.8227 6.77304 14.8398 7.02744 14.7532 7.24045C14.645 7.52026 14.3566 7.71145 14.0579 7.71235C12.828 7.7128 11.5981 7.71235 10.3682 7.71257C10.1754 7.7074 9.97455 7.73462 9.79055 7.66219C9.53031 7.56682 9.3344 7.31625 9.30921 7.03958C9.30246 6.93477 9.30448 6.82702 9.34047 6.72716C9.4192 6.47186 9.64525 6.27167 9.90684 6.21926Z" fill="#4B4B4B"/>
<path opacity="0.5" d="M18.7584 6.39258C19.523 6.51291 20.2906 6.73717 20.9274 7.19085C21.4504 7.55996 21.8742 8.06628 22.149 8.6439C22.4412 9.25188 22.5818 9.91992 22.6643 10.5858C22.7964 11.7082 22.7941 12.8405 22.8013 13.9689C22.7995 15.1988 22.8128 16.4292 22.7781 17.6589C22.7595 18.2604 22.7271 18.8623 22.647 19.4592C22.5748 19.9862 22.463 20.5115 22.264 21.0065C21.9747 21.7418 21.4567 22.3876 20.7893 22.8132C20.0471 23.2916 19.1635 23.4821 18.2973 23.5795C17.0906 23.7073 15.8753 23.6958 14.6636 23.7021C13.4424 23.7021 12.2215 23.7021 11.0004 23.7021C9.69444 23.698 8.38804 23.7156 7.08255 23.6692C6.41316 23.6405 5.74175 23.5957 5.08225 23.4704C4.5341 23.3658 3.99157 23.2 3.50459 22.9229C2.90156 22.5826 2.39682 22.0711 2.06459 21.4636C1.6478 20.7044 1.49372 19.836 1.41095 18.9833C1.30321 17.7873 1.31535 16.5851 1.31018 15.3855C1.31288 14.2454 1.30141 13.1047 1.3437 11.965C1.37249 11.3031 1.41747 10.6393 1.54073 9.98695C1.63678 9.48154 1.78456 8.98197 2.02321 8.52446C2.35723 7.87936 2.88244 7.33526 3.51674 6.98099C4.07142 6.67014 4.69357 6.49604 5.31955 6.40135C5.30808 6.90879 5.30786 7.41623 5.30831 7.9239C4.93357 7.99745 4.56131 8.10879 4.22864 8.29998C3.87978 8.49972 3.58669 8.7955 3.39033 9.14639C3.11817 9.63426 3.01065 10.1921 2.93867 10.7401C2.8559 11.4083 2.83408 12.0822 2.82081 12.7548C2.80124 13.9691 2.80821 15.1838 2.81046 16.3984C2.82756 17.4639 2.82171 18.5372 3.00255 19.591C3.0752 19.9867 3.18115 20.3819 3.37526 20.7371C3.56195 21.081 3.84019 21.3747 4.17444 21.5787C4.52015 21.7904 4.914 21.9085 5.30898 21.9883C6.01279 22.1258 6.73121 22.1584 7.44626 22.1827C8.9227 22.2173 10.4 22.2005 11.8769 22.2045C13.1889 22.2023 14.5012 22.2106 15.8134 22.1978C16.4095 22.1917 17.006 22.1789 17.6009 22.1384C18.0517 22.1049 18.5029 22.0576 18.9442 21.9582C19.301 21.877 19.6539 21.7585 19.9647 21.5621C20.301 21.3504 20.5781 21.047 20.7603 20.6939C20.9661 20.2989 21.0685 19.8596 21.1382 19.4223C21.2345 18.8011 21.263 18.1722 21.2833 17.5446C21.3112 16.368 21.304 15.1907 21.3037 14.0139C21.2995 13.264 21.2965 12.5136 21.2599 11.7646C21.2277 11.1836 21.1811 10.6002 21.0502 10.0318C20.9657 9.67318 20.8426 9.31824 20.6382 9.00918C20.4315 8.69428 20.1429 8.43471 19.8102 8.25904C19.496 8.09305 19.1516 7.99183 18.8041 7.9239C18.8045 7.50216 18.8039 7.08019 18.798 6.65844C18.798 6.56847 18.7865 6.47805 18.7584 6.39258Z" fill="#4B4B4B"/>
<path opacity="0.5" d="M9.29459 9.20844C9.59937 9.19405 9.90527 9.20619 10.2107 9.20214C11.7263 9.20282 13.2417 9.20079 14.7572 9.20327C15.08 9.20957 15.3792 9.44417 15.4617 9.75637C15.5287 10.0036 15.4651 10.2859 15.2845 10.4703C15.1608 10.6055 14.9851 10.6919 14.8024 10.7065C13.0318 10.707 11.2612 10.7067 9.49028 10.7067C9.39266 10.7049 9.29302 10.7162 9.19787 10.6881C8.98171 10.6368 8.79435 10.482 8.6983 10.2825C8.59731 10.0731 8.60046 9.81575 8.7091 9.60994C8.82134 9.38951 9.04852 9.23386 9.29459 9.20844Z" fill="#4B4B4B"/>
<path opacity="0.5" d="M4.46424 10.3614C4.69817 10.2934 4.96336 10.3497 5.14893 10.5078C5.89727 11.1313 6.64561 11.755 7.39395 12.3785C8.02038 12.899 8.64254 13.4249 9.27909 13.9332C9.66597 14.2398 10.058 14.5419 10.4746 14.8078C10.8284 15.0316 11.2043 15.2356 11.6163 15.3276C11.994 15.4128 12.3935 15.3818 12.7579 15.2536C13.2079 15.0955 13.6126 14.8352 14.0013 14.5635C14.6365 14.1116 15.2346 13.6105 15.8353 13.1143C16.8831 12.2427 17.9292 11.3693 18.9765 10.4974C19.1333 10.3697 19.3433 10.3121 19.5435 10.3398C19.8449 10.376 20.1077 10.6142 20.1736 10.9102C20.2426 11.1884 20.1326 11.4986 19.9059 11.6731C18.7677 12.6199 17.6325 13.5698 16.4935 14.5147C15.8698 15.0266 15.2451 15.5401 14.5726 15.9873C13.9918 16.3713 13.3571 16.7012 12.6647 16.8211C12.095 16.9217 11.5016 16.8767 10.9519 16.6981C10.2155 16.461 9.56452 16.0258 8.94754 15.5696C8.24666 15.0457 7.57817 14.4805 6.9054 13.9215C5.99399 13.1615 5.08167 12.4026 4.17093 11.6421C3.91969 11.4273 3.84568 11.0386 3.99864 10.7462C4.09131 10.5604 4.26405 10.4167 4.46424 10.3614Z" fill="#4B4B4B"/>
</svg>
