<svg width="25" height="25" viewBox="0 0 25 25" fill="none" xmlns="http://www.w3.org/2000/svg">
<path d="M12.0042 1.64024C12.4408 1.56421 12.9033 1.63889 13.2906 1.85549C13.6109 2.03184 13.8777 2.3013 14.0545 2.62093C14.4317 3.28537 14.3572 4.17002 13.8754 4.76271C13.6064 5.10123 13.2236 5.34955 12.802 5.44852C12.3641 5.55446 11.8897 5.50363 11.4853 5.30434C11.1214 5.12845 10.8179 4.83379 10.6254 4.47885C10.4288 4.11941 10.3544 3.69632 10.411 3.29122C10.4626 2.90771 10.6328 2.54108 10.8935 2.25497C11.1832 1.93624 11.5791 1.71356 12.0042 1.64024ZM12.1176 2.54085C11.7384 2.6216 11.4187 2.93066 11.3303 3.30899C11.2534 3.61669 11.3267 3.95836 11.5274 4.20466C11.7188 4.44713 12.0222 4.59581 12.3313 4.59694C12.6534 4.60391 12.9723 4.44893 13.1687 4.19386C13.3527 3.96061 13.4262 3.64593 13.3673 3.3551C13.3171 3.09216 13.1581 2.85373 12.9384 2.70213C12.7033 2.53658 12.3979 2.47922 12.1176 2.54085Z" fill="#4B4B4B"/>
<path d="M11.9715 11.004C11.9935 10.7381 12.2448 10.5197 12.5111 10.5339C12.774 10.5352 13.0107 10.7617 13.0219 11.0249C13.026 11.21 13.0219 11.3953 13.0237 11.5807C14.9372 11.5805 16.8507 11.5809 18.7641 11.5805C18.8811 11.5782 18.9999 11.5829 19.1123 11.6185C19.4715 11.7213 19.7439 12.0679 19.7527 12.4424C19.755 12.8922 19.7527 13.3421 19.7538 13.7922C19.7583 13.9672 19.6681 14.1404 19.5228 14.2375C19.3665 14.3466 19.1501 14.3586 18.9821 14.2693C18.8154 14.1838 18.7016 14.0043 18.6989 13.8167C18.6971 13.4235 18.6991 13.0301 18.698 12.6369C14.6007 12.6367 10.5034 12.6369 6.40605 12.6369C6.40582 12.9926 6.4056 13.348 6.40605 13.7036C6.4056 13.7778 6.40965 13.8536 6.39075 13.9262C6.35364 14.083 6.23982 14.2191 6.09205 14.2834C5.93527 14.3545 5.74385 14.3412 5.59855 14.2488C5.44335 14.1543 5.34618 13.9751 5.34978 13.7935C5.34955 13.3583 5.34955 12.9231 5.34978 12.4878C5.3473 12.2489 5.44425 12.0112 5.61475 11.8436C5.78209 11.6736 6.02029 11.578 6.25849 11.5807C8.16162 11.5807 10.065 11.5805 11.9681 11.5807C11.9706 11.3884 11.9636 11.196 11.9715 11.004Z" fill="#4B4B4B"/>
<path d="M18.6628 18.8488C19.5171 18.7761 20.3984 18.8737 21.1904 19.214C21.5777 19.3821 21.9445 19.6153 22.223 19.9365C22.4592 20.2089 22.6205 20.5564 22.6281 20.9206C22.634 21.3066 22.6277 21.7126 22.4473 22.0641C22.2864 22.3878 21.9875 22.6231 21.6593 22.7619C21.2639 22.933 20.8341 23.0021 20.4087 23.048C19.8846 23.1004 19.357 23.108 18.8308 23.0981C18.2577 23.084 17.6797 23.0486 17.1223 22.9056C16.7498 22.808 16.3769 22.646 16.1144 22.3554C15.8627 22.083 15.7558 21.7099 15.7392 21.3464C15.7309 21.0825 15.7115 20.8115 15.7914 20.556C15.9027 20.1774 16.1645 19.8609 16.4716 19.6214C17.0989 19.1427 17.8866 18.9216 18.6628 18.8488ZM18.9948 19.737C18.3949 19.762 17.7865 19.8852 17.2599 20.1835C17.0348 20.3151 16.817 20.484 16.6983 20.7222C16.6166 20.881 16.6421 21.0648 16.6448 21.2364C16.6508 21.4042 16.6636 21.5862 16.7689 21.7249C16.8605 21.8356 16.9941 21.9015 17.1248 21.9553C17.4041 22.059 17.7006 22.1053 17.9955 22.1397C18.5047 22.1941 19.018 22.1989 19.5297 22.1903C20.0043 22.1782 20.4823 22.1496 20.9465 22.0434C21.1539 21.989 21.3705 21.9263 21.5361 21.7834C21.6922 21.6494 21.7097 21.4278 21.7169 21.2362C21.7144 21.0866 21.7421 20.9312 21.6895 20.787C21.6267 20.612 21.4965 20.4701 21.3539 20.3551C21.0846 20.1405 20.7632 20.002 20.435 19.905C19.9688 19.7692 19.4795 19.7192 18.9948 19.737Z" fill="#4B4B4B"/>
<path d="M5.58902 19.1073C6.40934 19.0788 7.24832 19.2077 7.99037 19.57C8.39906 19.7729 8.78257 20.0579 9.02662 20.4497C9.18699 20.7034 9.27067 21.004 9.2601 21.3042C9.26437 21.7003 9.23243 22.1207 9.00952 22.4613C8.83543 22.7323 8.56281 22.9264 8.26838 23.0486C7.90939 23.2004 7.52229 23.269 7.13721 23.3149C6.67385 23.3677 6.2069 23.3806 5.74062 23.3794C5.25635 23.3756 4.77072 23.3587 4.29072 23.2897C3.93578 23.2362 3.57882 23.1604 3.25357 23.0034C2.95689 22.8628 2.6926 22.6381 2.54414 22.3414C2.3669 21.9952 2.35813 21.596 2.3633 21.2158C2.36668 20.8643 2.51265 20.5251 2.73399 20.2561C2.98433 19.9497 3.31768 19.7212 3.67194 19.5505C4.26936 19.2664 4.93042 19.1334 5.58902 19.1073ZM5.28086 20.0401C4.81683 20.0907 4.3555 20.21 3.94253 20.4317C3.70073 20.5662 3.46276 20.7388 3.33342 20.9907C3.26212 21.1214 3.26707 21.2748 3.27247 21.4192C3.27832 21.593 3.27652 21.7764 3.35682 21.9356C3.40473 22.0341 3.4965 22.1005 3.58894 22.154C3.81342 22.2793 4.06939 22.3306 4.31996 22.3754C4.74396 22.4449 5.17425 22.4637 5.60341 22.47C6.15247 22.4745 6.70399 22.4655 7.2481 22.3839C7.55198 22.334 7.86981 22.2735 8.12713 22.0942C8.30842 21.9698 8.34148 21.7341 8.34711 21.5312C8.34441 21.3688 8.37635 21.199 8.31269 21.0442C8.22789 20.8332 8.05335 20.674 7.86981 20.5476C7.55715 20.3346 7.19502 20.2059 6.82838 20.1213C6.32206 20.0068 5.79663 19.9846 5.28086 20.0401Z" fill="#4B4B4B"/>
<path opacity="0.5" d="M11.9821 5.73343C12.8051 5.67 13.651 5.7647 14.4171 6.08252C14.7939 6.23975 15.152 6.45703 15.4341 6.75506C15.6414 6.97459 15.8032 7.24384 15.8675 7.54097C15.9147 7.74768 15.9003 7.96114 15.8965 8.17145C15.885 8.4913 15.8178 8.82037 15.6333 9.08781C15.4433 9.36987 15.1461 9.56106 14.8321 9.6796C14.4153 9.83817 13.9695 9.89891 13.5278 9.93849C13.003 9.98101 12.4758 9.9855 11.9499 9.97021C11.4004 9.95131 10.8459 9.90925 10.3144 9.76035C9.95836 9.65846 9.60522 9.49156 9.36095 9.205C9.1286 8.93981 9.02963 8.58532 9.01163 8.23915C8.99971 7.94584 8.98149 7.64151 9.08856 7.36192C9.25996 6.88642 9.65336 6.52721 10.083 6.28114C10.6617 5.95229 11.3221 5.78809 11.9821 5.73343ZM12.0729 6.63428C11.5603 6.67431 11.0472 6.79263 10.5909 7.0351C10.3983 7.14104 10.2121 7.26813 10.0744 7.44155C9.99592 7.54254 9.928 7.65861 9.91675 7.78862C9.90348 7.92245 9.91608 8.05696 9.91945 8.19079C9.92912 8.35161 9.95679 8.52863 10.0776 8.64627C10.202 8.76076 10.3614 8.82847 10.5216 8.8775C10.8464 8.97422 11.1847 9.01538 11.5216 9.04215C11.9933 9.07611 12.4666 9.07814 12.9389 9.06554C13.3831 9.0489 13.8303 9.01763 14.2633 8.91169C14.4637 8.85478 14.6754 8.79135 14.8292 8.64335C14.9653 8.50884 14.9804 8.3046 14.9885 8.12399C14.986 7.96923 15.0155 7.80728 14.9572 7.65906C14.8834 7.46607 14.7314 7.31581 14.5683 7.19525C14.2712 6.97797 13.9218 6.84346 13.5676 6.75259C13.0804 6.63045 12.5729 6.59604 12.0729 6.63428Z" fill="#4B4B4B"/>
<path opacity="0.5" d="M18.7975 14.7322C19.2444 14.6684 19.7132 14.7637 20.0967 15.0024C20.6149 15.3186 20.9701 15.8882 21.0176 16.4943C21.0742 17.1034 20.8239 17.7315 20.3596 18.1309C19.9145 18.5282 19.2807 18.6975 18.6963 18.5785C18.0735 18.4622 17.5287 18.0173 17.2808 17.4357C17.0781 16.9701 17.0705 16.4253 17.2558 15.9529C17.5015 15.3087 18.1144 14.8238 18.7975 14.7322ZM18.9318 15.6302C18.5125 15.6821 18.1472 16.015 18.057 16.4278C17.9846 16.7341 18.0597 17.0715 18.259 17.316C18.4444 17.5502 18.7341 17.6973 19.0328 17.7065C19.3301 17.7207 19.6288 17.5972 19.8322 17.3806C20.0389 17.1644 20.1433 16.856 20.1115 16.5589C20.0836 16.2552 19.9116 15.9714 19.6597 15.8009C19.4493 15.656 19.1844 15.5957 18.9318 15.6302Z" fill="#4B4B4B"/>
<path opacity="0.5" d="M5.48244 15.0008C5.90215 14.9526 6.33739 15.0444 6.70021 15.2617C7.06842 15.4794 7.36015 15.8227 7.51827 16.2199C7.78279 16.8713 7.65661 17.6617 7.19775 18.1952C6.92356 18.5205 6.54185 18.7558 6.12528 18.8453C5.67632 18.9449 5.19228 18.8801 4.78695 18.6624C4.17559 18.3426 3.76195 17.6779 3.75363 16.9869C3.74125 16.5312 3.89421 16.0728 4.18144 15.7185C4.50017 15.3231 4.97612 15.0548 5.48244 15.0008ZM5.48109 15.9198C5.08319 16.0031 4.75231 16.3389 4.68011 16.7395C4.61938 17.0413 4.70125 17.3686 4.90009 17.6043C5.10163 17.8522 5.42215 17.9959 5.74133 17.9822C6.08097 17.9739 6.40757 17.7836 6.58706 17.4957C6.74946 17.2418 6.79063 16.9156 6.69998 16.6284C6.62373 16.3791 6.44783 16.1632 6.222 16.0337C6.00045 15.9057 5.73098 15.8659 5.48109 15.9198Z" fill="#4B4B4B"/>
</svg>
