<svg width="24" height="24" viewBox="0 0 24 24" fill="none" xmlns="http://www.w3.org/2000/svg">
<path d="M11.4362 4.99927C11.3054 4.44367 11.786 3.83827 12.3584 3.84727C14.6402 3.84847 16.922 3.84727 19.2032 3.84787C19.7036 3.83827 20.1596 4.30087 20.1464 4.80067C20.1428 7.10107 20.1464 9.40087 20.1446 11.7013C20.1296 12.1879 19.6886 12.618 19.1984 12.6091C18.674 12.6348 18.2012 12.1651 18.2108 11.6437C18.2114 10.1467 18.2066 8.65027 18.2156 7.15387C18.2018 6.69787 18.2204 6.24247 18.203 5.78707C17.7524 5.77567 17.3024 5.78887 16.8524 5.77807C15.374 5.78647 13.8956 5.78047 12.4178 5.78227C11.9564 5.80627 11.5166 5.45287 11.4362 4.99927Z" fill="#4B4B4B"/>
<path opacity="0.5" d="M16.8524 5.77783C17.3024 5.78863 17.7524 5.77542 18.203 5.78682C18.2204 6.24222 18.2018 6.69763 18.2156 7.15363C13.9952 11.3812 9.76759 15.6016 5.54479 19.8274C5.32039 20.0638 4.98079 20.197 4.65619 20.1364C4.28179 20.0794 3.96259 19.7776 3.87499 19.411C3.78859 19.0828 3.90199 18.7198 4.14259 18.4852C8.37979 14.2504 12.6134 10.0114 16.8524 5.77783Z" fill="#4B4B4B"/>
</svg>
