<svg width="24" height="24" viewBox="0 0 24 24" fill="none" xmlns="http://www.w3.org/2000/svg">
<path d="M7.17622 1.86211C8.48689 1.79013 9.7998 1.79126 11.1118 1.78923C11.2781 1.79126 11.4513 1.77394 11.6089 1.83917C11.9007 1.94736 12.1042 2.25169 12.0894 2.56322C12.084 2.86035 11.8824 3.14016 11.6035 3.2416C11.4756 3.29356 11.3359 3.29086 11.2002 3.28884C10.323 3.28974 9.44577 3.28974 8.56854 3.30976C7.62901 3.33338 6.6879 3.37139 5.75534 3.49465C5.30863 3.55696 4.8608 3.63478 4.43388 3.78391C4.25214 3.85026 4.06882 3.92719 3.92149 4.05585C3.73592 4.2142 3.56475 4.39122 3.4208 4.58848C3.19317 4.90361 3.06383 5.27767 2.98106 5.65443C2.87399 6.1504 2.83418 6.65761 2.80764 7.16325C2.76513 8.07377 2.77053 8.98563 2.7694 9.89682C2.77075 10.8597 2.76625 11.8224 2.77255 12.7854C2.77817 13.2856 2.7865 13.7865 2.82563 14.2856C2.86455 14.7319 2.9165 15.1856 3.08565 15.6042C3.21454 15.9267 3.45161 16.207 3.75707 16.375C4.09109 16.5597 4.47212 16.633 4.8464 16.6845C5.49937 16.7668 6.15887 16.7736 6.81589 16.7817C7.91017 16.7878 9.00423 16.783 10.0983 16.7846C12.3031 16.7844 14.5081 16.7848 16.7128 16.7844C17.4416 16.7799 18.1717 16.7815 18.8982 16.7167C19.2725 16.6796 19.6502 16.6281 20.0053 16.4985C20.2624 16.4051 20.5022 16.2544 20.6801 16.0446C20.8659 15.8314 20.9782 15.5648 21.0506 15.294C21.1385 14.9647 21.1783 14.6246 21.2065 14.2856C21.2456 13.7867 21.2541 13.2863 21.2595 12.786C21.2661 12.0327 21.2618 11.2794 21.2636 10.5262C21.2645 10.3185 21.3585 10.1145 21.5139 9.97713C21.7341 9.77514 22.079 9.72903 22.3451 9.86444C22.5932 9.98432 22.7625 10.2502 22.7625 10.5264C22.7621 11.3136 22.7657 12.1007 22.7583 12.8879C22.7574 13.1057 22.7466 13.3234 22.7542 13.5411C22.7225 14.0067 22.7108 14.4748 22.6449 14.9377C22.5754 15.4476 22.4564 15.9582 22.2207 16.4189C21.9422 16.9722 21.4874 17.4342 20.9386 17.7212C20.5506 17.9263 20.1234 18.0478 19.6927 18.1236C19.1987 18.2098 18.6976 18.2419 18.1971 18.2613C17.537 18.2851 16.8761 18.284 16.2157 18.284C15.0657 18.284 13.9158 18.2842 12.766 18.284C12.2662 18.284 11.7664 18.284 11.2668 18.284C10.1278 18.2842 8.98893 18.284 7.84989 18.284C7.1823 18.284 6.51471 18.2853 5.84756 18.2619C5.34282 18.2426 4.83718 18.2107 4.33919 18.1236C3.92779 18.0512 3.52067 17.9374 3.14661 17.7489C2.59755 17.474 2.136 17.0278 1.84651 16.4861C1.65015 16.1229 1.52824 15.7238 1.44974 15.3199C1.3465 14.7886 1.31501 14.2469 1.29049 13.7073C1.2626 13.5557 1.28734 13.4021 1.27969 13.2492C1.26507 12.5141 1.27114 11.7788 1.26979 11.0435C1.27092 10.2189 1.26687 9.39411 1.27317 8.56952C1.27902 7.93994 1.29004 7.30991 1.3348 6.68168C1.398 5.83977 1.51767 4.97919 1.90027 4.21577C2.11193 3.78526 2.41716 3.40625 2.76558 3.07831C2.92145 2.93323 3.08363 2.79264 3.2665 2.68198C3.6545 2.4449 4.09154 2.30207 4.53105 2.19501C5.39815 1.99054 6.2891 1.91452 7.17622 1.86211Z" fill="#4B4B4B"/>
<path d="M13.882 3.98642C14.0203 3.90252 14.205 3.90297 14.3429 3.98777C14.4734 4.06514 14.56 4.2118 14.5609 4.36385C14.5627 4.50578 14.5606 4.64771 14.5615 4.78964C14.6837 4.72014 14.8049 4.64838 14.9275 4.57911C15.0622 4.50128 15.2374 4.50331 15.3715 4.58181C15.4954 4.65198 15.5811 4.78447 15.5944 4.9264C15.6119 5.08745 15.5346 5.25502 15.3985 5.34387C15.2721 5.42372 15.1373 5.49007 15.0123 5.5724C15.1322 5.63718 15.2489 5.7078 15.3672 5.77528C15.4925 5.84434 15.58 5.97637 15.594 6.11898C15.6131 6.2753 15.5406 6.4377 15.4133 6.52992C15.2786 6.63114 15.0856 6.64621 14.9376 6.56524C14.8112 6.49483 14.6873 6.42038 14.5615 6.34908C14.5606 6.48898 14.5624 6.62889 14.5611 6.76902C14.5618 6.92152 14.4772 7.06998 14.3469 7.14893C14.2032 7.23913 14.0082 7.23688 13.8669 7.14308C13.7426 7.06346 13.6618 6.91972 13.662 6.7715C13.6607 6.63047 13.6623 6.48966 13.6616 6.34863C13.5365 6.41971 13.4128 6.49326 13.2875 6.56366C13.1546 6.63721 12.9843 6.63451 12.8532 6.55849C12.72 6.48471 12.631 6.33896 12.626 6.1869C12.6184 6.03643 12.6921 5.88415 12.8172 5.79935C12.9443 5.71613 13.0837 5.6527 13.2081 5.56542C13.0851 5.49817 12.9643 5.42687 12.8431 5.35646C12.709 5.27819 12.6242 5.12569 12.6258 4.97093C12.6242 4.82181 12.7041 4.67538 12.8296 4.59463C12.9627 4.50645 13.1442 4.49678 13.2848 4.57393C13.4115 4.64389 13.5354 4.71924 13.6616 4.79009C13.6623 4.64749 13.6605 4.50465 13.662 4.36205C13.6634 4.20955 13.7509 4.06289 13.882 3.98642Z" fill="#4B4B4B"/>
<path d="M17.6382 3.9835C17.7684 3.90725 17.9378 3.90365 18.0707 3.97517C18.2133 4.04805 18.3103 4.20213 18.3114 4.36273C18.3132 4.50511 18.3112 4.64749 18.3121 4.79009C18.4358 4.71924 18.5583 4.64659 18.6825 4.57664C18.7983 4.51163 18.9434 4.50421 19.066 4.55459C19.2176 4.6142 19.3294 4.76243 19.3449 4.9246C19.3645 5.09555 19.2761 5.27324 19.1265 5.35849C19.0057 5.42777 18.8865 5.5002 18.7635 5.5652C18.8921 5.65405 19.0354 5.7195 19.1652 5.80633C19.3384 5.92846 19.3982 6.17994 19.3006 6.36775C19.2028 6.57626 18.9313 6.67748 18.7214 6.58098C18.5808 6.51126 18.4504 6.42263 18.3109 6.35088C18.3125 6.49056 18.3125 6.63002 18.3116 6.7697C18.3127 6.93233 18.2153 7.08933 18.0714 7.16355C17.9324 7.23845 17.7538 7.23103 17.6213 7.14556C17.4947 7.06638 17.4123 6.92063 17.4126 6.77083C17.411 6.63024 17.413 6.48944 17.4121 6.34886C17.2884 6.41926 17.166 6.49146 17.0423 6.56164C16.9051 6.63947 16.7267 6.63497 16.5929 6.55219C16.4591 6.47234 16.3729 6.31917 16.3761 6.16329C16.3761 6.00741 16.4643 5.85581 16.5997 5.77866C16.7198 5.70893 16.8403 5.63965 16.9611 5.5706C16.8406 5.49705 16.7166 5.42934 16.5952 5.35737C16.4613 5.27909 16.375 5.12726 16.3763 4.97206C16.3745 4.81596 16.4616 4.66323 16.5965 4.58473C16.7292 4.50466 16.9044 4.50016 17.0401 4.57596C17.1647 4.64546 17.2866 4.72037 17.4121 4.78897C17.4132 4.64726 17.4108 4.50533 17.4128 4.36363C17.4132 4.20843 17.5037 4.05952 17.6382 3.9835Z" fill="#4B4B4B"/>
<path d="M21.1649 4.34167C21.175 4.11247 21.3862 3.91701 21.6156 3.92375C21.843 3.91948 22.0513 4.11382 22.0612 4.34122C22.0655 4.49013 22.0614 4.63948 22.0628 4.78861C22.193 4.71866 22.3178 4.63948 22.4479 4.56953C22.6298 4.47326 22.8732 4.52724 22.9992 4.68964C23.1575 4.87633 23.1197 5.18763 22.92 5.33001C22.7884 5.41661 22.6474 5.48791 22.5129 5.56979C22.6336 5.63997 22.7553 5.70902 22.8759 5.77965C23.0181 5.8604 23.1067 6.02392 23.0981 6.187C23.093 6.34017 23.0023 6.48615 22.8685 6.55993C22.7362 6.63551 22.565 6.63686 22.4326 6.56173C22.3088 6.492 22.1867 6.41935 22.063 6.3494C22.0621 6.48998 22.0639 6.63056 22.0626 6.77114C22.0635 6.93714 21.9616 7.09706 21.8124 7.16881C21.6709 7.24034 21.4915 7.22842 21.361 7.13822C21.2402 7.05725 21.1631 6.91509 21.1635 6.76956C21.1619 6.62943 21.1637 6.4893 21.1633 6.34917C21.0405 6.41822 20.9197 6.49043 20.7971 6.55948C20.6606 6.63866 20.4824 6.63596 20.3477 6.55453C20.2046 6.47198 20.1165 6.30531 20.1279 6.14066C20.1356 5.99221 20.2226 5.85095 20.3524 5.77807C20.4716 5.70925 20.5899 5.63862 20.7112 5.57294C20.5818 5.48522 20.439 5.41931 20.309 5.33249C20.1403 5.21283 20.0787 4.96923 20.1689 4.78299C20.2424 4.61766 20.4233 4.5097 20.6037 4.52252C20.6876 4.52544 20.7665 4.55896 20.8374 4.60192C20.9458 4.66512 21.0542 4.72765 21.1631 4.79041C21.1646 4.64083 21.1601 4.49125 21.1649 4.34167Z" fill="#4B4B4B"/>
<path opacity="0.5" d="M2.77295 12.7854C8.93512 12.7879 15.0975 12.7863 21.2599 12.7861C21.2545 13.2863 21.2459 13.7868 21.2068 14.2857C15.0799 14.2861 8.95289 14.2863 2.82603 14.2857C2.78689 13.7865 2.77857 13.2856 2.77295 12.7854Z" fill="#4B4B4B"/>
<path opacity="0.5" d="M11.2669 18.2839C11.7665 18.2839 12.2663 18.2839 12.7661 18.2839C12.7654 19.4504 12.7649 20.6169 12.7663 21.7832C13.7742 21.7841 14.7819 21.7834 15.7898 21.7836C15.9398 21.787 16.0946 21.7683 16.2396 21.8176C16.5015 21.8972 16.7079 22.1314 16.7532 22.4015C16.8188 22.7328 16.6263 23.0896 16.3157 23.2202C16.1375 23.3044 15.9369 23.2796 15.7464 23.283C13.1745 23.2832 10.6029 23.283 8.03128 23.2832C7.81782 23.2873 7.60527 23.1962 7.46266 23.0376C7.27529 22.8361 7.21636 22.5284 7.31443 22.2717C7.41408 21.9953 7.68939 21.7924 7.98382 21.7845C9.07811 21.7805 10.1728 21.7879 11.2671 21.7809C11.2653 20.6153 11.2658 19.4497 11.2669 18.2839Z" fill="#4B4B4B"/>
</svg>
