<svg width="24" height="24" viewBox="0 0 24 24" fill="none" xmlns="http://www.w3.org/2000/svg">
<path opacity="0.5" d="M6.24886 9.42776C6.44896 9.25466 6.74416 9.20216 6.99166 9.29606C7.26826 9.39326 7.47076 9.66776 7.48186 9.96086C7.48726 10.2075 7.48216 10.4541 7.48396 10.7004C7.70296 10.5759 7.91836 10.4451 8.13946 10.3245C8.47186 10.1544 8.91526 10.2858 9.10366 10.6071C9.31426 10.9314 9.21406 11.4084 8.88886 11.6181C8.67376 11.7507 8.45116 11.871 8.23366 12C8.43856 12.1203 8.64556 12.237 8.85076 12.3573C9.00856 12.4497 9.12736 12.603 9.18136 12.7776C9.27196 13.0563 9.17746 13.3827 8.95216 13.5702C8.72806 13.767 8.38156 13.8072 8.11906 13.665C7.90606 13.5456 7.69606 13.4208 7.48366 13.2999C7.48336 13.5357 7.48516 13.7715 7.48336 14.0076C7.48246 14.2431 7.36246 14.4744 7.16986 14.61C6.98386 14.7447 6.73426 14.7861 6.51526 14.7177C6.22066 14.6319 5.99446 14.3487 5.98546 14.0406C5.98156 13.7934 5.98546 13.5459 5.98396 13.2987C5.77906 13.4157 5.57536 13.5351 5.37046 13.6524C5.15656 13.7763 4.88056 13.7823 4.66096 13.6686C4.42786 13.5534 4.26616 13.3083 4.25206 13.0485C4.23226 12.7803 4.36996 12.5082 4.59916 12.3672C4.80136 12.2451 5.00986 12.1332 5.21146 12.0105C5.21266 12.0054 5.21446 11.9955 5.21566 11.9907C5.01076 11.8692 4.80166 11.7543 4.59736 11.6316C4.35076 11.4795 4.21306 11.175 4.25866 10.8891C4.29736 10.6137 4.50226 10.3701 4.76806 10.287C4.96606 10.221 5.19106 10.2441 5.37196 10.3485C5.57626 10.4652 5.77906 10.5843 5.98366 10.701C5.98486 10.4631 5.98276 10.2252 5.98426 9.98726C5.98456 9.77366 6.08566 9.56456 6.24886 9.42776Z" fill="#4B4B4B"/>
<path opacity="0.5" d="M11.5906 9.37008C11.8186 9.21828 12.1315 9.20988 12.3679 9.34788C12.5965 9.47418 12.7468 9.72828 12.7477 9.98958C12.7492 10.2266 12.7471 10.4633 12.7483 10.7003C12.9556 10.5818 13.1614 10.4603 13.3693 10.3427C13.5847 10.2203 13.8613 10.22 14.0791 10.3367C14.3155 10.4579 14.4751 10.7144 14.4787 10.9802C14.4892 11.2481 14.341 11.5148 14.1079 11.6474C13.9051 11.7656 13.7005 11.8817 13.4977 11.9999C13.7062 12.1211 13.9159 12.2402 14.1238 12.3626C14.3953 12.5225 14.5363 12.8675 14.4598 13.1726C14.3992 13.4399 14.1808 13.6625 13.9144 13.7273C13.7248 13.7753 13.5172 13.7465 13.3489 13.6463C13.1488 13.5308 12.9484 13.4147 12.748 13.2992C12.7471 13.5365 12.7492 13.7738 12.7474 14.0108C12.7471 14.2577 12.613 14.4971 12.4057 14.6297C12.1831 14.7776 11.8798 14.7899 11.6458 14.6621C11.4076 14.5388 11.2492 14.2784 11.2483 14.0105C11.2468 13.7732 11.2489 13.5362 11.2477 13.2992C11.0404 13.4174 10.8346 13.5386 10.6273 13.6562C10.291 13.8542 9.81673 13.7264 9.62353 13.3883C9.41443 13.0607 9.52003 12.5825 9.85003 12.3761C10.0633 12.2465 10.2823 12.1268 10.4971 11.9996C10.345 11.9114 10.1923 11.8241 10.0402 11.7359C9.92233 11.6675 9.79633 11.6051 9.70603 11.4998C9.50083 11.2745 9.45433 10.9199 9.60163 10.6517C9.77653 10.2947 10.2577 10.1414 10.6069 10.3322C10.822 10.4525 11.0335 10.5791 11.248 10.7009C11.2486 10.4636 11.2468 10.2263 11.2483 9.98928C11.2489 9.74238 11.3827 9.50238 11.5906 9.37008Z" fill="#4B4B4B"/>
<path opacity="0.5" d="M16.87 9.36759C17.0512 9.25029 17.2843 9.21849 17.4904 9.28239C17.7865 9.36879 18.0115 9.65379 18.0214 9.96279C18.0256 10.2085 18.0214 10.4542 18.0232 10.6999C18.2269 10.5832 18.43 10.465 18.6337 10.3477C18.8416 10.2274 19.1074 10.2184 19.324 10.3216C19.5574 10.429 19.7248 10.6654 19.7497 10.9213C19.7821 11.1985 19.6432 11.4874 19.405 11.6332C19.1953 11.7577 18.9826 11.8768 18.7726 12.0001C18.9766 12.1192 19.1821 12.2359 19.3861 12.3553C19.582 12.4693 19.7194 12.6766 19.7476 12.9016C19.7839 13.1572 19.6756 13.4263 19.4728 13.5859C19.2466 13.7707 18.9094 13.8037 18.6532 13.6624C18.442 13.5439 18.2338 13.42 18.0235 13.3003C18.0193 13.5595 18.0295 13.8193 18.0184 14.0785C17.9875 14.4565 17.6323 14.7685 17.2534 14.7499C16.8841 14.749 16.5496 14.4361 16.5259 14.0674C16.5184 13.8112 16.5256 13.555 16.5226 13.2988C16.3228 13.4137 16.1233 13.5295 15.9238 13.6447C15.7747 13.7329 15.5953 13.7689 15.424 13.741C15.1486 13.702 14.9083 13.4947 14.8255 13.2295C14.7193 12.9166 14.8522 12.5425 15.1345 12.3697C15.3451 12.2437 15.5593 12.124 15.7711 12.0004C15.6163 11.9095 15.4606 11.8207 15.3052 11.7307C15.205 11.6728 15.0997 11.62 15.0169 11.5378C14.8525 11.38 14.7679 11.1445 14.7943 10.9183C14.8195 10.6645 14.986 10.4314 15.2167 10.3231C15.4324 10.2193 15.6982 10.2262 15.9064 10.3462C16.1125 10.4635 16.3171 10.5838 16.5232 10.7014C16.5232 10.4641 16.5226 10.2268 16.5229 9.98919C16.5232 9.74079 16.6594 9.49869 16.87 9.36759Z" fill="#4B4B4B"/>
<path d="M8.83145 1.27379C10.3171 1.23809 11.803 1.25429 13.2886 1.25039C14.7199 1.26239 16.1566 1.25669 17.5789 1.43849C18.6313 1.57769 19.7035 1.85729 20.5663 2.50259C21.3451 3.07319 21.9097 3.90659 22.2076 4.82039C22.603 6.02159 22.6696 7.29719 22.7182 8.55119C22.7653 10.1205 22.7449 11.6907 22.7497 13.2603C22.7395 14.6307 22.7422 16.0053 22.5877 17.3691C22.4695 18.3669 22.2481 19.3809 21.7144 20.2461C21.2368 21.0252 20.5135 21.6471 19.6771 22.0137C18.6886 22.4508 17.6011 22.5861 16.5328 22.6644C14.9248 22.7691 13.3123 22.7448 11.7016 22.7493C10.1854 22.7457 8.66645 22.7616 7.15385 22.6404C6.10295 22.548 5.03195 22.3812 4.08125 21.8985C3.18695 21.4467 2.45435 20.6874 2.03315 19.7784C1.56575 18.7821 1.42205 17.6736 1.33925 16.5873C1.27655 15.6996 1.26185 14.8098 1.25465 13.9203C1.24775 12.7299 1.24985 11.5398 1.25255 10.3494C1.25765 9.56579 1.26665 8.78159 1.30415 7.99859C1.34285 7.23689 1.40405 6.47399 1.55405 5.72549C1.68425 5.07899 1.88615 4.43999 2.21795 3.86729C2.63165 3.14789 3.24935 2.54789 3.98015 2.15519C4.58555 1.82639 5.25575 1.63559 5.93105 1.51469C6.88805 1.34639 7.86155 1.30139 8.83145 1.27379ZM8.86055 2.77379C8.12495 2.79389 7.38785 2.82659 6.65735 2.92049C6.10265 2.99399 5.54705 3.10229 5.02745 3.31559C4.59845 3.49199 4.20275 3.75599 3.89255 4.10249C3.57065 4.45349 3.34805 4.88519 3.20225 5.33639C3.00935 5.92889 2.92325 6.54989 2.86445 7.16819C2.74985 8.47559 2.75675 9.78929 2.75075 11.1003C2.75255 12.3003 2.74445 13.5003 2.76425 14.7003C2.77865 15.4509 2.80175 16.2024 2.87555 16.95C2.93705 17.5452 3.02615 18.1425 3.21815 18.7113C3.35885 19.131 3.56825 19.5315 3.86255 19.8642C4.14275 20.1846 4.49345 20.4408 4.87955 20.6187C5.41025 20.8644 5.98865 20.9853 6.56495 21.0669C7.32575 21.1707 8.09405 21.2049 8.86115 21.2262C10.3075 21.2607 11.7544 21.2457 13.201 21.2493C14.5336 21.2388 15.8704 21.2463 17.1964 21.0975C17.8234 21.0216 18.4543 20.9079 19.0372 20.6565C19.4998 20.4573 19.9174 20.1495 20.2303 19.7535C20.5537 19.3503 20.755 18.8637 20.8858 18.3672C21.0451 17.757 21.1156 17.1279 21.1633 16.5003C21.2575 15.1317 21.2461 13.7589 21.2494 12.3879C21.2455 10.878 21.2659 9.36719 21.1864 7.85879C21.1477 7.20269 21.0895 6.54509 20.9503 5.90159C20.8438 5.41559 20.686 4.93319 20.4181 4.51079C20.1394 4.06769 19.741 3.70259 19.2781 3.45929C18.8071 3.21089 18.286 3.07589 17.7643 2.98409C17.1091 2.87189 16.4446 2.82539 15.7813 2.79539C14.8912 2.75789 14.0005 2.75399 13.1098 2.75069C11.6935 2.75399 10.2769 2.73959 8.86055 2.77379Z" fill="#4B4B4B"/>
</svg>
