<svg width="24" height="24" viewBox="0 0 24 24" fill="none" xmlns="http://www.w3.org/2000/svg">
<g clip-path="url(#clip0_35569_36347)">
<mask id="mask0_35569_36347" style="mask-type:luminance" maskUnits="userSpaceOnUse" x="0" y="0" width="24" height="24">
<path d="M24 0H0V24H24V0Z" fill="white"/>
</mask>
<g mask="url(#mask0_35569_36347)">
<mask id="mask1_35569_36347" style="mask-type:luminance" maskUnits="userSpaceOnUse" x="0" y="0" width="24" height="24">
<path d="M24 0H0V24H24V0Z" fill="white"/>
</mask>
<g mask="url(#mask1_35569_36347)">
<path d="M6.40798 0.796784C9.86598 0.771229 13.3243 0.793886 16.7823 0.785455C17.247 0.781504 17.7146 0.784402 18.1746 0.860011C19.2155 1.02124 20.2079 1.47095 21.0222 2.13773C22.1105 3.02502 22.8708 4.3059 23.1197 5.68847C23.1985 6.1055 23.2206 6.53071 23.2185 6.95433C23.2151 10.195 23.2222 13.4357 23.2164 16.6761C23.2133 17.0984 23.2309 17.5223 23.1785 17.9424C23.0468 19.08 22.5741 20.1733 21.8465 21.0567C21.234 21.8006 20.4376 22.3923 19.5482 22.7638C18.8327 23.0636 18.0587 23.2243 17.2826 23.229C13.8931 23.2296 10.5035 23.2288 7.11402 23.2296C6.61057 23.2364 6.10396 23.2188 5.60947 23.1173C4.59599 22.92 3.63626 22.4537 2.85487 21.7788C1.76842 20.8464 1.03156 19.515 0.835822 18.0952C0.754944 17.5734 0.778127 17.0444 0.775229 16.5185C0.775492 14.9982 0.771804 13.4778 0.776283 11.9575C0.786294 11.7209 0.928028 11.5006 1.12561 11.3742C1.36666 11.2153 1.70388 11.2206 1.93913 11.3884C2.12697 11.5175 2.25975 11.7325 2.26897 11.9622C2.27424 13.4986 2.26792 15.0353 2.27134 16.5717C2.27556 17.0649 2.24631 17.5631 2.34326 18.0502C2.50186 18.9217 2.9239 19.7442 3.54537 20.3759C4.17 21.0192 4.99196 21.4692 5.87187 21.6441C6.42669 21.7648 6.9981 21.7277 7.56135 21.7332C10.7839 21.7332 14.0063 21.7332 17.2291 21.7332C18.1019 21.7342 18.9749 21.4768 19.7021 20.9926C20.7008 20.3393 21.4195 19.2705 21.64 18.0966C21.7024 17.7944 21.7195 17.4851 21.7222 17.1771C21.7235 13.6725 21.7211 10.1681 21.7232 6.66348C21.7 5.69663 21.3507 4.74269 20.7524 3.98344C19.9297 2.9336 18.6177 2.28605 17.2826 2.28315C14.0946 2.28052 10.9064 2.28289 7.71837 2.2821C7.33242 2.28684 6.94594 2.27209 6.56025 2.28895C5.62159 2.32188 4.70058 2.67226 3.96767 3.25738C2.95525 4.05167 2.31876 5.30015 2.27529 6.58656C2.2637 7.15718 2.2774 7.72781 2.26844 8.29817C2.2637 8.64539 1.97707 8.95942 1.63512 9.00658C1.34901 9.05558 1.04816 8.90989 0.892463 8.66858C0.79288 8.52157 0.767853 8.33953 0.773121 8.16566C0.78603 7.58713 0.757578 7.00781 0.786557 6.42954C0.845306 5.22954 1.29132 4.05641 2.02686 3.10827C2.76557 2.14985 3.80276 1.42616 4.95744 1.06392C5.42743 0.915335 5.91586 0.824446 6.40798 0.796784Z" fill="#4B4B4B"/>
<path d="M9.18008 7.94661C9.51623 7.82858 9.89059 8.0462 10.0202 8.36286C10.0916 8.51566 10.0782 8.68742 10.0782 8.85102C10.0797 11.029 10.0797 13.2072 10.0776 15.3851C10.0713 15.7262 9.80286 16.0487 9.46065 16.094C9.12291 16.1385 8.79386 15.8859 8.70403 15.5661C8.66925 15.4567 8.67821 15.3411 8.67742 15.2281C8.67584 13.0325 8.67584 10.8367 8.67768 8.64079C8.67795 8.33572 8.88633 8.03723 9.18008 7.94661Z" fill="#4B4B4B"/>
<path d="M14.3945 7.94341C14.8176 7.80352 15.2699 8.18631 15.2778 8.61362C15.2812 10.7918 15.2802 12.9705 15.2789 15.1489C15.2754 15.2894 15.2928 15.434 15.2499 15.5707C15.1722 15.841 14.9322 16.0702 14.6458 16.0955C14.3428 16.1313 14.0454 15.9269 13.9353 15.649C13.8639 15.483 13.8781 15.2981 13.8781 15.1218C13.8781 12.9702 13.8784 10.8184 13.8781 8.66683C13.8713 8.34833 14.0833 8.03087 14.3945 7.94341Z" fill="#4B4B4B"/>
<path opacity="0.08" d="M6.81221 2.91938C6.96448 2.90279 7.11754 2.89304 7.27087 2.89251C10.2662 2.89251 13.2616 2.89251 16.257 2.89251C16.5726 2.89436 16.8895 2.88197 17.2036 2.92228C18.1088 3.02529 18.9763 3.42072 19.6507 4.03245C20.4532 4.75218 20.9772 5.77436 21.0862 6.84764C21.1205 7.1456 21.1092 7.44592 21.111 7.7452C21.111 10.45 21.111 13.1548 21.111 15.8596C21.1073 16.2282 21.1194 16.597 21.1031 16.9656C21.0483 17.9374 20.6571 18.885 20.013 19.6148C19.2376 20.5063 18.0924 21.0643 16.9111 21.1169C16.5086 21.1299 16.1058 21.1198 15.7032 21.123C12.9009 21.1227 10.0987 21.1233 7.29668 21.1227C6.32694 21.1238 5.3614 20.7932 4.59688 20.1965C3.87319 19.6374 3.32891 18.8495 3.06731 17.9724C2.93269 17.528 2.87289 17.062 2.88053 16.598C2.88053 13.6211 2.88053 10.6439 2.88053 7.66696C2.88158 7.41141 2.87394 7.15508 2.90002 6.90033C2.98248 5.99433 3.35657 5.1189 3.95144 4.4313C4.66959 3.59144 5.71258 3.03688 6.81221 2.91938ZM9.18007 7.947C8.88632 8.03763 8.67794 8.33611 8.67767 8.64118C8.67583 10.837 8.67583 13.0328 8.67741 15.2284C8.6782 15.3414 8.66924 15.4571 8.70402 15.5664C8.79385 15.8862 9.1229 16.1389 9.46064 16.0943C9.80285 16.049 10.0713 15.7266 10.0776 15.3854C10.0797 13.2075 10.0797 11.0293 10.0781 8.85141C10.0781 8.68781 10.0916 8.51605 10.0202 8.36325C9.89058 8.04658 9.51622 7.82898 9.18007 7.947ZM14.3947 7.94358C14.0836 8.03104 13.8715 8.34849 13.8783 8.667C13.8786 10.8186 13.8783 12.9704 13.8783 15.122C13.8783 15.2982 13.8641 15.4831 13.9355 15.6491C14.0456 15.927 14.3431 16.1315 14.646 16.0957C14.9324 16.0704 15.1724 15.8412 15.2501 15.5709C15.293 15.4341 15.2757 15.2895 15.2791 15.1491C15.2804 12.9706 15.2815 10.7919 15.278 8.61378C15.2701 8.18647 14.8178 7.80369 14.3947 7.94358Z" fill="#4B4B4B"/>
</g>
</g>
</g>
<defs>
<clipPath id="clip0_35569_36347">
<rect width="24" height="24" fill="white"/>
</clipPath>
</defs>
</svg>
