<svg width="24" height="24" viewBox="0 0 24 24" fill="none" xmlns="http://www.w3.org/2000/svg">
<path d="M5.54669 3.39972C6.84119 3.23952 8.14859 3.26052 9.45029 3.25062C11.5902 3.25422 13.7298 3.24312 15.8697 3.25812C16.6512 3.26892 17.4342 3.28782 18.2121 3.37092C18.8625 3.44292 19.515 3.56292 20.1207 3.81762C20.8818 4.13172 21.5379 4.69572 21.9495 5.40972C22.248 5.92332 22.4226 6.49902 22.5288 7.08072C22.6458 7.72452 22.6899 8.37852 22.7169 9.03132C22.7556 10.0303 22.7493 11.0302 22.749 12.0295C22.7457 12.4132 22.4031 12.7501 22.02 12.7513C21.6342 12.7711 21.2727 12.4465 21.2523 12.0604C21.2442 11.623 21.2535 11.1856 21.2475 10.7482C21.2442 10.1644 21.2403 9.58002 21.2145 8.99682C21.1818 8.31552 21.1365 7.62912 20.9688 6.96552C20.8515 6.50292 20.6478 6.04902 20.304 5.70972C20.0073 5.40432 19.6182 5.20452 19.2135 5.08302C18.6648 4.91772 18.0915 4.85712 17.5221 4.81542C16.7022 4.76082 15.8799 4.75662 15.0585 4.75242C14.0091 4.74942 12.96 4.75122 11.9106 4.75062C10.4811 4.75422 9.05129 4.74102 7.62179 4.76712C6.79829 4.78992 5.96849 4.81692 5.15969 4.98612C4.60289 5.10312 4.04399 5.32692 3.65219 5.75442C3.19559 6.23472 3.01499 6.89952 2.91509 7.53762C2.84009 8.02062 2.80739 8.50902 2.78579 8.99682C2.75999 9.58032 2.75549 10.1644 2.75249 10.7485C2.75099 11.9461 2.74259 13.144 2.76509 14.3416C2.78399 15.1036 2.81069 15.8692 2.94119 16.6216C3.03359 17.1328 3.18299 17.6518 3.50219 18.0712C3.77369 18.4321 4.15919 18.6979 4.58249 18.8506C5.18939 19.0726 5.83889 19.1389 6.47939 19.1872C7.26899 19.2403 8.06069 19.2451 8.85149 19.2502C10.5804 19.2544 12.3093 19.2496 14.0379 19.2529C14.4387 19.2613 14.7801 19.6399 14.7492 20.0395C14.7387 20.422 14.3949 20.7547 14.0121 20.7511C12.2715 20.752 10.5309 20.7532 8.79059 20.7502C8.10059 20.746 7.41059 20.7394 6.72149 20.7043C6.09629 20.6707 5.46959 20.6167 4.85639 20.4856C4.35509 20.3782 3.86219 20.2132 3.41699 19.9555C2.97179 19.699 2.58089 19.3492 2.27549 18.9355C1.97579 18.5308 1.76579 18.0649 1.62569 17.5825C1.46729 17.0356 1.38869 16.4692 1.33919 15.9031C1.26989 15.0745 1.25939 14.2429 1.25249 13.4119C1.24949 12.2521 1.24739 11.0923 1.25729 9.93252C1.27679 9.12042 1.29629 8.30592 1.40489 7.49982C1.48649 6.89952 1.62029 6.29982 1.87529 5.74752C2.20199 5.02722 2.76089 4.41402 3.45149 4.02732C4.09259 3.66462 4.82189 3.49482 5.54669 3.39972Z" fill="#4B4B4B"/>
<path opacity="0.5" d="M2.75 9.74389C2.753 9.15979 2.7575 8.57569 2.7833 7.99219C2.7803 8.07619 2.78 8.16049 2.7803 8.24449C8.9249 8.24689 15.0695 8.24719 21.2141 8.24449C21.2141 8.16019 21.2141 8.07619 21.212 7.99219C21.2378 8.57539 21.2417 9.15979 21.245 9.74359C17.8922 9.74929 14.5394 9.74449 11.1866 9.74599C8.3744 9.74449 5.5622 9.74899 2.75 9.74389Z" fill="#4B4B4B"/>
<path opacity="0.5" d="M6.87632 11.0095C7.36952 10.9366 7.87472 11.293 7.97402 11.7811C8.08442 12.2263 7.83902 12.7225 7.42082 12.9088C7.00772 13.1107 6.46862 12.9751 6.19922 12.6028C5.90552 12.2281 5.94092 11.6467 6.27662 11.3095C6.43472 11.1454 6.64952 11.0359 6.87632 11.0095Z" fill="#4B4B4B"/>
<path d="M11.8032 11.0215C12.3027 10.9096 12.8454 11.2477 12.966 11.7445C13.1067 12.2269 12.8181 12.7786 12.3441 12.9418C11.9031 13.1134 11.3607 12.9157 11.1324 12.5014C10.8933 12.1027 10.9866 11.5459 11.3436 11.248C11.4735 11.134 11.634 11.056 11.8032 11.0215Z" fill="#4B4B4B"/>
<path opacity="0.5" d="M16.7847 11.0246C17.2272 10.9193 17.7177 11.1617 17.904 11.5763C18.1143 12.0014 17.9637 12.5606 17.5689 12.8231C17.1828 13.1033 16.6008 13.0457 16.278 12.6944C15.9324 12.3512 15.9051 11.7506 16.218 11.3771C16.359 11.1992 16.5627 11.0726 16.7847 11.0246Z" fill="#4B4B4B"/>
<path opacity="0.5" d="M6.85471 15.0126C7.36081 14.9262 7.88671 15.2955 7.97851 15.7998C8.08651 16.2678 7.79971 16.7805 7.34851 16.9398C6.92941 17.1036 6.41491 16.9392 6.17011 16.5618C5.91001 16.1907 5.95261 15.6462 6.26761 15.3204C6.42091 15.1554 6.63121 15.0441 6.85471 15.0126Z" fill="#4B4B4B"/>
<path opacity="0.5" d="M11.7669 15.0276C12.0861 14.9487 12.4401 15.0423 12.6804 15.2667C13.0095 15.5625 13.098 16.0854 12.882 16.4724C12.6777 16.8678 12.1911 17.0865 11.76 16.9716C11.3277 16.8717 10.9965 16.455 11.0004 16.0104C10.9869 15.5568 11.3244 15.126 11.7669 15.0276Z" fill="#4B4B4B"/>
<path d="M19.7718 13.2878C19.9995 13.214 20.2611 13.2584 20.4513 13.4042C20.6319 13.5386 20.7453 13.7576 20.7486 13.9829C20.7489 15.3857 20.7486 16.7885 20.7486 18.1913C20.9517 17.9948 21.1485 17.7923 21.3495 17.5934C21.4356 17.5094 21.5145 17.4149 21.621 17.3552C21.8295 17.2307 22.1001 17.2193 22.3191 17.3243C22.5213 17.4191 22.6782 17.6087 22.7283 17.8271C22.7907 18.0755 22.7133 18.3542 22.5288 18.5327C21.8535 19.2074 21.1794 19.8836 20.5029 20.5574C20.2239 20.8259 19.7373 20.8136 19.47 20.5343C18.8001 19.8641 18.1296 19.1945 17.4603 18.524C17.2494 18.3122 17.1897 17.9699 17.3133 17.6981C17.4261 17.4389 17.6946 17.2574 17.9778 17.2529C18.1767 17.2469 18.3768 17.3228 18.519 17.4623C18.7623 17.7041 19.0026 17.9492 19.2477 18.1889C19.2498 16.8566 19.248 15.524 19.2486 14.1914C19.2501 14.072 19.2405 13.9511 19.2684 13.8341C19.3242 13.5803 19.5237 13.3649 19.7718 13.2878Z" fill="#4B4B4B"/>
</svg>
