<svg width="24" height="24" viewBox="0 0 24 24" fill="none" xmlns="http://www.w3.org/2000/svg">
<path d="M4.6804 2.74774C4.95577 2.68643 5.24132 2.66866 5.52211 2.69769C5.59426 2.70723 5.6651 2.68253 5.73747 2.68426C9.26202 2.68448 12.7866 2.68426 16.3113 2.68426C16.7947 2.68513 17.2785 2.68426 17.7614 2.70983C18.2181 2.73539 18.68 2.78717 19.1123 2.94533C19.98 3.27616 20.698 3.97271 21.0719 4.82092C21.2587 5.25596 21.3247 5.73065 21.3559 6.19949C21.3967 6.86333 21.3861 7.52889 21.3882 8.19359C21.3882 11.3642 21.3882 14.5345 21.3882 17.705C21.3841 18.1968 21.4019 18.6899 21.3607 19.1807C21.331 19.5254 21.2357 19.8787 21.0071 20.1469C20.7311 20.4871 20.3171 20.7105 19.8814 20.7553C19.5384 20.7932 19.2004 20.6816 18.8952 20.5348C18.5069 20.3469 18.138 20.1229 17.7625 19.9114C17.6277 19.8369 17.4975 19.7535 17.3567 19.6911C17.2605 19.6545 17.1719 19.7214 17.0906 19.7632C16.3308 20.194 15.5747 20.6307 14.8149 21.0614C14.5514 21.2112 14.2566 21.3162 13.9502 21.3147C13.6291 21.3253 13.3163 21.2216 13.0401 21.0634C12.4321 20.7187 11.8261 20.3701 11.2188 20.0239C11.0236 19.9153 10.8338 19.7964 10.6337 19.6978C10.5596 19.6601 10.4766 19.6909 10.4107 19.7307C9.91068 20.0026 9.42863 20.309 8.91451 20.5545C8.65321 20.6758 8.37071 20.7692 8.0793 20.762C7.62671 20.7482 7.18624 20.5365 6.88726 20.1974C6.6758 19.9682 6.55729 19.6677 6.51331 19.3618C6.45351 18.9497 6.46629 18.5318 6.46348 18.1167C6.46348 16.0218 6.4637 13.9268 6.46326 11.8317C5.41227 11.8311 4.36105 11.8326 3.30984 11.8311C2.94348 11.8289 2.61806 11.5056 2.61221 11.1395C2.61048 9.2045 2.61199 7.26934 2.61134 5.33439C2.60939 4.79383 2.77882 4.25436 3.09059 3.8126C3.46432 3.27703 4.04214 2.8877 4.6804 2.74774ZM4.80866 4.2093C4.48086 4.34124 4.20961 4.62268 4.11298 4.96542C4.03325 5.1953 4.06055 5.4412 4.05601 5.67974C4.05449 7.24962 4.0586 8.81972 4.05384 10.3896C4.85698 10.3964 5.66055 10.3914 6.46369 10.392C6.46283 8.6984 6.46434 7.00459 6.46304 5.31099C6.46088 4.86533 6.18486 4.43787 5.78275 4.24786C5.4816 4.10465 5.11913 4.0819 4.80866 4.2093ZM7.61868 4.12848C7.80262 4.48705 7.90164 4.88851 7.90727 5.29149C7.90879 9.67486 7.90705 14.0585 7.90814 18.4419C7.91248 18.6876 7.90619 18.9356 7.94735 19.1787C7.95363 19.2615 8.04637 19.3141 8.12134 19.3141C8.27624 19.2704 8.41771 19.1902 8.55962 19.1163C8.91277 18.9241 9.25898 18.7203 9.60866 18.5222C9.86345 18.3751 10.1423 18.2551 10.44 18.2408C10.7829 18.2118 11.125 18.3084 11.4214 18.4778C12.1544 18.8923 12.8838 19.313 13.6157 19.7297C13.6991 19.7756 13.7808 19.8265 13.8694 19.8625C13.9751 19.8967 14.0676 19.8181 14.1569 19.7741C14.6303 19.5054 15.1024 19.2342 15.5754 18.9644C15.8904 18.7876 16.1995 18.6005 16.5189 18.4315C16.819 18.272 17.1667 18.2053 17.5042 18.2499C17.7473 18.2763 17.9759 18.3741 18.1878 18.4919C18.5814 18.712 18.9686 18.9441 19.3668 19.156C19.4862 19.2164 19.6058 19.2816 19.736 19.3156C19.7969 19.3124 19.8562 19.2769 19.8913 19.2272C19.9345 19.063 19.9325 18.891 19.9397 18.7224C19.9481 18.1812 19.942 17.6398 19.944 17.0984C19.944 14.4623 19.944 11.8261 19.944 9.18999C19.942 8.42454 19.949 7.6591 19.9379 6.89387C19.9271 6.48721 19.9204 6.07665 19.8348 5.67735C19.7637 5.33634 19.5687 5.03324 19.3304 4.78473C19.0689 4.51976 18.7413 4.30419 18.3713 4.23248C17.9291 4.14322 17.4752 4.14148 17.0259 4.13217C16.3973 4.12567 15.7686 4.12957 15.1401 4.12848C12.633 4.12848 10.1258 4.12848 7.61868 4.12848Z" fill="#4B4B4B"/>
<path d="M11.6695 12.1907C11.7424 12.0639 11.8916 11.9856 12.0377 12.0022C12.1834 12.0144 12.3147 12.1197 12.3613 12.2579C12.3862 12.3236 12.382 12.3948 12.3825 12.4638C12.7607 12.5449 13.1218 12.7416 13.3651 13.0466C13.5532 13.2794 13.6601 13.5777 13.655 13.8775C13.6532 14.003 13.5837 14.1243 13.4774 14.1905C13.3672 14.2619 13.2192 14.2692 13.1023 14.209C12.9785 14.1485 12.8936 14.0164 12.892 13.8783C12.8919 13.7755 12.8615 13.6741 12.8073 13.5871C12.6831 13.3833 12.4603 13.2555 12.23 13.2107C11.9909 13.165 11.7346 13.1879 11.5154 13.2974C11.3351 13.3883 11.1791 13.5454 11.1256 13.7438C11.0838 13.8903 11.1246 14.0496 11.209 14.1731C11.34 14.3683 11.5618 14.4884 11.79 14.5283C11.9231 14.5549 12.0596 14.5404 12.1939 14.5568C12.5924 14.5988 12.9828 14.769 13.2654 15.0564C13.4663 15.2582 13.6053 15.5239 13.6425 15.8073C13.689 16.1287 13.6099 16.4663 13.4233 16.7323C13.1827 17.0808 12.7922 17.3062 12.3823 17.3934C12.3877 17.4998 12.377 17.6142 12.3083 17.7007C12.2301 17.8082 12.0938 17.8699 11.9615 17.8548C11.8219 17.8424 11.6951 17.7452 11.6448 17.6148C11.6148 17.5451 11.6175 17.4677 11.6181 17.3934C11.2478 17.314 10.8943 17.1242 10.651 16.8301C10.4574 16.5986 10.3445 16.3001 10.3451 15.9978C10.3348 15.7862 10.5279 15.5949 10.7393 15.6077C10.8873 15.6107 11.0272 15.7089 11.0811 15.8468C11.1199 15.9308 11.0998 16.0263 11.1254 16.1136C11.1728 16.2887 11.3011 16.4332 11.4544 16.5257C11.676 16.6599 11.9477 16.6933 12.2005 16.6519C12.4202 16.6152 12.6344 16.5062 12.7696 16.3257C12.8579 16.2087 12.9111 16.0582 12.8848 15.9111C12.85 15.7162 12.7116 15.5535 12.5454 15.453C12.3825 15.3541 12.1904 15.3104 12.001 15.3105C11.6284 15.3107 11.2549 15.1981 10.9497 14.9832C10.7259 14.8255 10.5403 14.6084 10.4381 14.3528C10.2939 13.9969 10.3182 13.5769 10.5051 13.241C10.7322 12.8285 11.1645 12.5596 11.6181 12.4638C11.615 12.3706 11.6185 12.2721 11.6695 12.1907Z" fill="#4B4B4B"/>
<path opacity="0.5" d="M4.80854 4.20947C5.11901 4.08207 5.48147 4.10482 5.78262 4.24803C6.18474 4.43804 6.46075 4.8655 6.46292 5.31116C6.46422 7.00476 6.4627 8.69857 6.46357 10.3921C5.66043 10.3915 4.85685 10.3965 4.05371 10.3897C4.05848 8.81989 4.05436 7.24979 4.05588 5.67991C4.06043 5.44137 4.03313 5.19547 4.11286 4.9656C4.20949 4.62285 4.48074 4.34141 4.80854 4.20947Z" fill="#4B4B4B"/>
<path opacity="0.5" d="M10.4227 6.14013C11.4752 6.13125 12.5282 6.13905 13.5807 6.13645C14.8306 6.13645 16.0804 6.13601 17.3303 6.13666C17.5327 6.13645 17.7329 6.22679 17.8666 6.37888C18.0514 6.58211 18.1016 6.89431 17.99 7.14519C17.8813 7.40345 17.6115 7.5837 17.3308 7.58067C15.0921 7.58089 12.8534 7.58067 10.6147 7.58089C10.476 7.58522 10.3326 7.5798 10.205 7.51979C9.92353 7.39998 9.74132 7.08756 9.77816 6.78338C9.80675 6.45233 10.0914 6.16786 10.4227 6.14013Z" fill="#4B4B4B"/>
<path opacity="0.5" d="M10.3399 10.0048C10.4366 9.98254 10.5364 9.98861 10.635 9.98839C12.8373 9.98818 15.0394 9.98861 17.2417 9.98817C17.3639 9.98406 17.4891 9.99338 17.6027 10.0428C17.9027 10.161 18.0947 10.4975 18.0414 10.8164C17.9974 11.16 17.6761 11.4384 17.3295 11.4324C15.0544 11.433 12.7793 11.4326 10.5039 11.4326C10.2921 11.4356 10.0817 11.3401 9.94564 11.1774C9.76214 10.9668 9.72162 10.6461 9.84598 10.3961C9.93979 10.1996 10.127 10.0508 10.3399 10.0048Z" fill="#4B4B4B"/>
<path opacity="0.5" d="M16.2511 13.855C16.6029 13.8422 16.9558 13.8533 17.3081 13.8494C17.523 13.844 17.7382 13.9389 17.8766 14.104C18.0608 14.3152 18.1015 14.6367 17.9765 14.8874C17.8818 15.0839 17.6936 15.233 17.4797 15.2778C17.3876 15.2988 17.2925 15.2936 17.1987 15.2941C16.9171 15.2941 16.6352 15.2938 16.3533 15.2943C15.9835 15.3099 15.6399 14.9988 15.6197 14.6291C15.5805 14.2563 15.8786 13.8921 16.2511 13.855Z" fill="#4B4B4B"/>
</svg>
