<svg width="24" height="24" viewBox="0 0 24 24" fill="none" xmlns="http://www.w3.org/2000/svg">
<path d="M4.68043 2.74799C4.9558 2.68667 5.24135 2.66891 5.52214 2.69794C5.59429 2.70747 5.66513 2.68277 5.7375 2.68451C9.26205 2.68472 12.7866 2.68451 16.3114 2.68451C16.7947 2.68537 17.2785 2.68451 17.7614 2.71007C18.2181 2.73564 18.6801 2.78742 19.1123 2.94558C19.98 3.27641 20.698 3.97296 21.0719 4.82116C21.2587 5.25621 21.3248 5.7309 21.356 6.19974C21.3967 6.86357 21.3861 7.52914 21.3882 8.19384C21.3882 11.3644 21.3882 14.5347 21.3882 17.7052C21.3841 18.197 21.4019 18.6901 21.3607 19.1809C21.3311 19.5256 21.2357 19.8789 21.0072 20.1471C20.7311 20.4873 20.3171 20.7107 19.8814 20.7555C19.5384 20.7934 19.2005 20.6819 18.8952 20.535C18.5069 20.3471 18.138 20.1231 17.7625 19.9116C17.6278 19.8371 17.4976 19.7537 17.3567 19.6913C17.2605 19.6547 17.1719 19.7216 17.0907 19.7635C16.3309 20.1942 15.5747 20.6309 14.8149 21.0617C14.5515 21.2114 14.2566 21.3164 13.9503 21.3149C13.6292 21.3255 13.3163 21.2218 13.0401 21.0636C12.4321 20.7189 11.8262 20.3703 11.2189 20.0241C11.0237 19.9155 10.8339 19.7966 10.6337 19.698C10.5596 19.6603 10.4766 19.6911 10.4108 19.731C9.91071 20.0029 9.42865 20.3092 8.91453 20.5547C8.65324 20.676 8.37073 20.7694 8.07932 20.7622C7.62673 20.7484 7.18627 20.5367 6.88729 20.1976C6.67583 19.9684 6.55732 19.6679 6.51334 19.362C6.45354 18.9499 6.46632 18.532 6.46351 18.1169C6.46351 16.022 6.46372 13.927 6.46329 11.8319C5.4123 11.8313 4.36108 11.8328 3.30987 11.8313C2.94351 11.8291 2.61809 11.5058 2.61224 11.1397C2.61051 9.20475 2.61203 7.26959 2.61138 5.33464C2.60943 4.79408 2.77885 4.25461 3.09062 3.81285C3.46435 3.27728 4.04217 2.88795 4.68043 2.74799ZM4.80869 4.20955C4.48089 4.34149 4.20964 4.62292 4.11301 4.96567C4.03328 5.19554 4.06058 5.44145 4.05603 5.67999C4.05452 7.24987 4.05863 8.81997 4.05387 10.3899C4.85701 10.3966 5.66058 10.3916 6.46372 10.3922C6.46286 8.69864 6.46437 7.00483 6.46307 5.31124C6.46091 4.86558 6.18489 4.43812 5.78278 4.24811C5.48163 4.1049 5.11916 4.08215 4.80869 4.20955ZM7.61871 4.12873C7.80266 4.4873 7.90167 4.88876 7.9073 5.29174C7.90882 9.67511 7.90708 14.0587 7.90817 18.4421C7.9125 18.6878 7.90622 18.9358 7.94738 19.1789C7.95366 19.2617 8.04639 19.3143 8.12136 19.3143C8.27626 19.2706 8.41774 19.1904 8.55965 19.1165C8.9128 18.9243 9.25901 18.7205 9.60869 18.5225C9.86348 18.3753 10.1423 18.2553 10.44 18.241C10.783 18.212 11.1251 18.3086 11.4214 18.478C12.1544 18.8925 12.8839 19.3132 13.6157 19.7299C13.6991 19.7758 13.7808 19.8267 13.8694 19.8627C13.9752 19.8969 14.0677 19.8183 14.1569 19.7743C14.6303 19.5056 15.1024 19.2344 15.5754 18.9646C15.8904 18.7879 16.1996 18.6007 16.5189 18.4317C16.819 18.2722 17.1667 18.2055 17.5043 18.2501C17.7474 18.2765 17.9759 18.3743 18.1878 18.4921C18.5815 18.7122 18.9686 18.9443 19.3669 19.1562C19.4862 19.2166 19.6058 19.2818 19.736 19.3158C19.7969 19.3126 19.8563 19.2771 19.8914 19.2274C19.9345 19.0632 19.9325 18.8912 19.9397 18.7226C19.9481 18.1814 19.9421 17.64 19.944 17.0986C19.944 14.4625 19.944 11.8263 19.944 9.19024C19.9421 8.42479 19.949 7.65935 19.938 6.89412C19.9271 6.48746 19.9204 6.0769 19.8348 5.6776C19.7638 5.33659 19.5688 5.03349 19.3305 4.78498C19.069 4.52001 18.7414 4.30444 18.3713 4.23273C17.9291 4.14346 17.4752 4.14173 17.0259 4.13242C16.3974 4.12592 15.7686 4.12982 15.1401 4.12873C12.633 4.12873 10.1259 4.12873 7.61871 4.12873Z" fill="#4B4B4B"/>
<path d="M11.6693 12.1907C11.7423 12.0639 11.8914 11.9856 12.0375 12.0022C12.1832 12.0144 12.3146 12.1197 12.3612 12.2579C12.3861 12.3236 12.3819 12.3948 12.3824 12.4638C12.7605 12.5449 13.1217 12.7416 13.365 13.0466C13.5531 13.2794 13.66 13.5777 13.6548 13.8775C13.6531 14.003 13.5836 14.1243 13.4772 14.1905C13.3671 14.2619 13.2191 14.2692 13.1022 14.209C12.9784 14.1485 12.8935 14.0164 12.8919 13.8783C12.8917 13.7755 12.8614 13.6741 12.8071 13.5871C12.683 13.3833 12.4601 13.2555 12.2298 13.2107C11.9907 13.165 11.7345 13.1879 11.5152 13.2974C11.335 13.3883 11.1789 13.5454 11.1255 13.7438C11.0836 13.8903 11.1245 14.0496 11.2089 14.1731C11.3399 14.3683 11.5616 14.4884 11.7898 14.5283C11.923 14.5549 12.0595 14.5404 12.1937 14.5568C12.5923 14.5988 12.9826 14.769 13.2653 15.0564C13.4662 15.2582 13.6052 15.5239 13.6424 15.8073C13.6888 16.1287 13.6098 16.4663 13.4232 16.7323C13.1826 17.0808 12.7921 17.3062 12.3822 17.3934C12.3876 17.4998 12.3769 17.6142 12.3081 17.7007C12.23 17.8082 12.0937 17.8699 11.9613 17.8548C11.8217 17.8424 11.6949 17.7452 11.6447 17.6148C11.6147 17.5451 11.6174 17.4677 11.618 17.3934C11.2477 17.314 10.8942 17.1242 10.6509 16.8301C10.4573 16.5986 10.3444 16.3001 10.345 15.9978C10.3347 15.7862 10.5277 15.5949 10.7391 15.6077C10.8871 15.6107 11.0271 15.7089 11.081 15.8468C11.1197 15.9308 11.0997 16.0263 11.1253 16.1136C11.1726 16.2887 11.301 16.4332 11.4543 16.5257C11.6758 16.6599 11.9476 16.6933 12.2004 16.6519C12.42 16.6152 12.6343 16.5062 12.7695 16.3257C12.8577 16.2087 12.911 16.0582 12.8847 15.9111C12.8499 15.7162 12.7115 15.5535 12.5453 15.453C12.3824 15.3541 12.1903 15.3104 12.0009 15.3105C11.6283 15.3107 11.2548 15.1981 10.9496 14.9832C10.7258 14.8255 10.5402 14.6084 10.438 14.3528C10.2938 13.9969 10.3181 13.5769 10.505 13.241C10.7321 12.8285 11.1644 12.5596 11.618 12.4638C11.6149 12.3706 11.6184 12.2721 11.6693 12.1907Z" fill="#4B4B4B"/>
<path opacity="0.5" d="M4.80868 4.20954C5.11914 4.08214 5.48161 4.10489 5.78276 4.2481C6.18487 4.43811 6.46089 4.86557 6.46306 5.31123C6.46436 7.00482 6.46284 8.69863 6.46371 10.3922C5.66056 10.3916 4.85699 10.3966 4.05385 10.3898C4.05861 8.81996 4.0545 7.24986 4.05601 5.67998C4.06056 5.44144 4.03327 5.19553 4.113 4.96566C4.20962 4.62291 4.48088 4.34148 4.80868 4.20954Z" fill="#4B4B4B"/>
<path opacity="0.5" d="M10.4227 6.14016C11.4752 6.13128 12.5281 6.13908 13.5806 6.13648C14.8305 6.13648 16.0804 6.13604 17.3303 6.13669C17.5326 6.13648 17.7328 6.22682 17.8665 6.37891C18.0513 6.58214 18.1016 6.89434 17.99 7.14522C17.8812 7.40348 17.6115 7.58374 17.3307 7.5807C15.092 7.58092 12.8533 7.5807 10.6146 7.58092C10.476 7.58525 10.3325 7.57984 10.2049 7.51982C9.92349 7.40001 9.74128 7.08759 9.77811 6.78341C9.80671 6.45236 10.0914 6.16789 10.4227 6.14016Z" fill="#4B4B4B"/>
<path opacity="0.5" d="M10.3399 10.0051C10.4365 9.98275 10.5364 9.98882 10.635 9.9886C12.8373 9.98839 15.0394 9.98882 17.2417 9.98839C17.3639 9.98427 17.4891 9.99359 17.6026 10.043C17.9027 10.1613 18.0946 10.4977 18.0413 10.8167C17.9974 11.1603 17.6761 11.4387 17.3294 11.4326C15.0543 11.4333 12.7792 11.4328 10.5039 11.4328C10.292 11.4359 10.0816 11.3403 9.94557 11.1776C9.76206 10.967 9.72155 10.6464 9.84591 10.3963C9.93972 10.1998 10.1269 10.051 10.3399 10.0051Z" fill="#4B4B4B"/>
<path opacity="0.5" d="M16.2513 13.8548C16.6032 13.842 16.9561 13.8531 17.3084 13.8492C17.5233 13.8438 17.7384 13.9387 17.8769 14.1038C18.061 14.315 18.1018 14.6365 17.9768 14.8872C17.8821 15.0837 17.6938 15.2327 17.48 15.2776C17.3879 15.2986 17.2928 15.2934 17.199 15.2938C16.9173 15.2938 16.6355 15.2936 16.3536 15.2941C15.9838 15.3097 15.6401 14.9985 15.62 14.6289C15.5808 14.2561 15.8789 13.8919 16.2513 13.8548Z" fill="#4B4B4B"/>
</svg>
