<svg width="24" height="24" viewBox="0 0 24 24" fill="none" xmlns="http://www.w3.org/2000/svg">
<path opacity="0.5" d="M15.7286 3.03042C16.3343 2.95368 16.955 3.06057 17.5154 3.29765C18.1502 3.56282 18.7103 3.98044 19.2091 4.4498C19.6972 4.91607 20.1439 5.43373 20.4765 6.02368C20.7595 6.52695 20.9527 7.08778 20.9873 7.66677C21.0277 8.28104 20.8873 8.90011 20.6201 9.45272C20.3412 10.0317 19.9397 10.5432 19.4951 11.0036C16.6751 13.8246 13.8545 16.6448 11.0342 19.4657C10.6844 19.8368 10.2367 20.1019 9.77015 20.2989C9.51323 20.4048 9.24398 20.4833 8.96788 20.5168C7.92204 20.6659 6.8762 20.8156 5.83037 20.9649C5.32543 21.0365 4.79618 20.9793 4.33235 20.7611C3.87674 20.5511 3.49547 20.1842 3.27007 19.7357C3.04227 19.2921 2.96793 18.7785 3.02343 18.2852C3.18169 17.1488 3.34509 16.0127 3.50986 14.877C3.64278 14.2059 3.96615 13.568 4.43409 13.0681C7.05913 10.4408 9.68622 7.81511 12.3119 5.18843C12.7371 4.76875 13.1444 4.32715 13.6205 3.96297C14.2317 3.48676 14.9507 3.11881 15.7286 3.03042ZM14.9473 5.11889C14.3848 5.48409 13.9405 5.9925 13.465 6.45741C13.0279 6.89353 12.5915 7.33034 12.1551 7.76715C10.036 9.8861 7.91724 12.0057 5.79816 14.1247C5.44636 14.4474 5.21273 14.9027 5.16683 15.3786C5.03014 16.3361 4.89346 17.294 4.75644 18.2516C4.73383 18.4116 4.70231 18.574 4.72801 18.736C4.75061 18.9094 4.83934 19.0824 4.99315 19.1742C5.17745 19.2883 5.40559 19.2972 5.61489 19.2657C6.65011 19.1177 7.68533 18.969 8.72055 18.822C9.01892 18.7864 9.29399 18.6487 9.54475 18.49C9.70507 18.3917 9.82736 18.2471 9.96096 18.1173C12.0523 16.0257 14.1436 13.9345 16.2346 11.843C16.6703 11.4069 17.1068 10.9714 17.5418 10.535C17.9615 10.104 18.4188 9.70418 18.772 9.21393C19.0477 8.83193 19.2735 8.38656 19.28 7.9059C19.2861 7.4201 19.0727 6.96205 18.8 6.5708C18.4815 6.11995 18.0906 5.72254 17.6631 5.37446C17.2582 5.05379 16.7882 4.77629 16.2641 4.72764C15.7937 4.68208 15.334 4.86434 14.9473 5.11889Z" fill="#4B4B4B"/>
<path d="M12.1499 7.76751C12.5864 7.3307 13.0228 6.89389 13.4599 6.45776C13.7518 7.26115 14.194 8.01006 14.762 8.64935C15.5105 9.49693 16.4751 10.1482 17.5367 10.5353C17.1017 10.9718 16.6652 11.4072 16.2295 11.8434C14.4506 11.0136 12.9824 9.54489 12.1499 7.76751Z" fill="#4B4B4B"/>
</svg>
