<svg width="24" height="24" viewBox="0 0 24 24" fill="none" xmlns="http://www.w3.org/2000/svg">
<path d="M8.83441 2.2116C9.25381 2.1594 9.67951 2.2065 10.0893 2.3013C11.1084 2.5413 12.0474 3.0192 13.0206 3.3915C13.4466 3.549 13.8819 3.7101 14.3397 3.7356C14.9814 3.7407 15.6225 3.6261 16.2294 3.4194C16.4583 3.3426 16.7157 3.3624 16.932 3.4686C17.3928 3.6747 17.6256 4.2768 17.3922 4.7322C16.9344 5.7651 16.4769 6.7986 16.0197 7.8318C15.975 7.929 15.984 8.0484 16.0461 8.1363C16.7325 9.2166 17.4363 10.2873 18.0531 11.4099C18.6282 12.4629 19.1517 13.5636 19.401 14.7441C19.653 15.9138 19.4682 17.1573 18.9561 18.2325C18.4758 19.2471 17.6778 20.1009 16.7169 20.6769C15.5991 21.354 14.2983 21.6723 13.0047 21.7728C11.7153 21.8646 10.4025 21.7959 9.15091 21.4557C8.02051 21.1488 6.94111 20.5875 6.12031 19.7415C4.88491 18.4902 4.27951 16.6302 4.59961 14.8947C4.75021 14.0235 5.03761 13.182 5.37661 12.3672C5.98561 10.9125 6.76951 9.5409 7.53661 8.1654C7.59571 8.07 7.59661 7.9461 7.54411 7.8474C7.09081 6.861 6.63781 5.8743 6.18391 4.8879C6.07951 4.6659 6.06601 4.4019 6.15361 4.1718C6.22591 3.9897 6.34771 3.8322 6.46201 3.6744C7.03501 2.9199 7.87681 2.3241 8.83441 2.2116ZM8.85421 3.7311C8.37901 3.8478 7.98211 4.1709 7.67971 4.5453C8.10031 5.4768 8.53621 6.4014 8.95561 7.3332L8.96941 7.3368C8.97451 7.3899 8.99341 7.4403 9.00901 7.4913C9.14431 7.9434 9.09121 8.448 8.86501 8.8623C8.63671 9.2745 8.40511 9.6846 8.17771 10.0971C7.44901 11.4288 6.73381 12.7836 6.29251 14.2419C6.12571 14.8275 5.98111 15.4335 6.02041 16.047C6.05911 16.6824 6.24691 17.3079 6.56311 17.8605C7.01011 18.6519 7.73401 19.2645 8.55331 19.6455C9.67171 20.1687 10.9257 20.3199 12.1494 20.3094C12.9468 20.2995 13.7481 20.2152 14.5176 19.9983C15.4725 19.7334 16.3863 19.2366 17.0307 18.471C17.8239 17.5308 18.195 16.2204 17.9247 15.0114C17.8008 14.4336 17.5893 13.8789 17.3478 13.341C16.6302 11.7651 15.6555 10.3275 14.7339 8.8674C14.4684 8.412 14.4204 7.8426 14.5965 7.3467C14.9172 6.6063 15.2499 5.871 15.5739 5.1321C14.9709 5.2269 14.3493 5.2905 13.7451 5.172C12.9741 5.0217 12.2514 4.7019 11.5293 4.4031C10.9845 4.1766 10.44 3.9426 9.86851 3.7908C9.53911 3.7083 9.18961 3.6459 8.85421 3.7311Z" fill="#4B4B4B"/>
<path opacity="0.5" d="M8.96939 7.33679C10.1172 7.65869 11.3187 7.78799 12.5085 7.71929C13.2165 7.67909 13.9185 7.55339 14.5965 7.34669C14.4204 7.84259 14.4684 8.41199 14.7339 8.86739C13.3581 9.24899 11.9073 9.31709 10.4922 9.15779C9.94379 9.09569 9.40049 8.99579 8.86499 8.86229C9.09119 8.44799 9.14429 7.94339 9.00899 7.49129C8.99339 7.44029 8.97449 7.38989 8.96939 7.33679Z" fill="#4B4B4B"/>
<path opacity="0.5" d="M11.5158 11.3376C11.7297 11.1423 12.0867 11.1417 12.3018 11.3358C12.4371 11.4429 12.4917 11.6112 12.5214 11.7741C12.9639 11.8881 13.3743 12.1425 13.6563 12.5043C13.8951 12.8109 14.0256 13.2027 14.0079 13.5918C13.9929 13.8102 13.8432 14.0103 13.6419 14.0934C13.4415 14.1801 13.1943 14.1441 13.0278 14.0022C12.897 13.8939 12.8133 13.7292 12.8109 13.5588C12.8124 13.3644 12.6903 13.1916 12.5397 13.0791C12.3099 12.9093 12.0087 12.8649 11.7306 12.9021C11.4858 12.9354 11.2416 13.0545 11.1027 13.2651C11.0139 13.392 10.9788 13.5624 11.0451 13.707C11.1813 14.0289 11.5461 14.1891 11.8797 14.1894C12.4794 14.184 13.089 14.409 13.5126 14.8395C13.8003 15.1284 13.9842 15.5211 14.0067 15.9291C14.0337 16.3158 13.9221 16.7103 13.6944 17.0244C13.4127 17.4144 12.9825 17.6865 12.5193 17.8068C12.4944 17.97 12.435 18.1353 12.303 18.2433C12.0888 18.438 11.7315 18.438 11.5173 18.2433C11.3829 18.1362 11.3274 17.9688 11.2992 17.8059C10.8567 17.6919 10.446 17.4381 10.1643 17.0763C9.92459 16.7691 9.79379 16.377 9.81209 15.9873C9.82709 15.777 9.96629 15.5832 10.1571 15.4959C10.3281 15.4143 10.5384 15.4224 10.7028 15.5163C10.8819 15.6162 11.0055 15.8121 11.0088 16.0185C11.007 16.2123 11.127 16.386 11.2776 16.4985C11.508 16.671 11.8119 16.7151 12.0915 16.6776C12.3417 16.6431 12.5919 16.518 12.7278 16.2984C12.8151 16.1673 12.8379 15.9933 12.7653 15.8502C12.6201 15.543 12.2673 15.3912 11.9412 15.3906C11.3415 15.396 10.7325 15.1719 10.3086 14.7417C10.0278 14.46 9.84479 14.0799 9.81539 13.6818C9.78239 13.3002 9.88289 12.9081 10.0998 12.5922C10.3791 12.1833 10.8204 11.9007 11.295 11.7732L11.307 11.76C11.3226 11.5998 11.3913 11.4429 11.5158 11.3376Z" fill="#4B4B4B"/>
</svg>
