<svg width="24" height="24" viewBox="0 0 24 24" fill="none" xmlns="http://www.w3.org/2000/svg">
<path d="M8.83457 2.21157C9.25397 2.15937 9.67967 2.20647 10.0894 2.30127C11.1085 2.54127 12.0475 3.01917 13.0207 3.39147C13.4467 3.54897 13.882 3.71007 14.3398 3.73557C14.9815 3.74067 15.6226 3.62607 16.2295 3.41937C16.4584 3.34257 16.7158 3.36237 16.9321 3.46857C17.3929 3.67467 17.6257 4.27677 17.3923 4.73217C16.9345 5.76507 16.477 6.79857 16.0198 7.83177C15.9751 7.92897 15.9841 8.04837 16.0462 8.13627C16.7326 9.21657 17.4364 10.2873 18.0532 11.4099C18.6283 12.4629 19.1518 13.5636 19.4011 14.7441C19.6531 15.9138 19.4683 17.1573 18.9562 18.2325C18.4759 19.2471 17.6779 20.1009 16.717 20.6769C15.5992 21.354 14.2984 21.6723 13.0048 21.7728C11.7154 21.8646 10.4026 21.7959 9.15107 21.4557C8.02067 21.1488 6.94127 20.5875 6.12047 19.7415C4.88507 18.4902 4.27967 16.6302 4.59977 14.8947C4.75037 14.0235 5.03777 13.182 5.37677 12.3672C5.98577 10.9125 6.76967 9.54087 7.53677 8.16537C7.59587 8.06997 7.59677 7.94607 7.54427 7.84737C7.09097 6.86097 6.63797 5.87427 6.18407 4.88787C6.07967 4.66587 6.06617 4.40187 6.15377 4.17177C6.22607 3.98967 6.34787 3.83217 6.46217 3.67437C7.03517 2.91987 7.87697 2.32407 8.83457 2.21157ZM8.85437 3.73107C8.37917 3.84777 7.98227 4.17087 7.67987 4.54527C8.10047 5.47677 8.53637 6.40137 8.95577 7.33317L8.96957 7.33677C8.97467 7.38987 8.99357 7.44027 9.00917 7.49127C9.14447 7.94337 9.09137 8.44797 8.86517 8.86227C8.63687 9.27447 8.40527 9.68457 8.17787 10.0971C7.44917 11.4288 6.73397 12.7836 6.29267 14.2419C6.12587 14.8275 5.98127 15.4335 6.02057 16.047C6.05927 16.6824 6.24707 17.3079 6.56327 17.8605C7.01027 18.6519 7.73417 19.2645 8.55347 19.6455C9.67187 20.1687 10.9258 20.3199 12.1495 20.3094C12.9469 20.2995 13.7482 20.2152 14.5177 19.9983C15.4726 19.7334 16.3864 19.2366 17.0308 18.471C17.824 17.5308 18.1951 16.2204 17.9248 15.0114C17.8009 14.4336 17.5894 13.8789 17.3479 13.341C16.6303 11.7651 15.6556 10.3275 14.734 8.86737C14.4685 8.41197 14.4205 7.84257 14.5966 7.34667C14.9173 6.60627 15.25 5.87097 15.574 5.13207C14.971 5.22687 14.3494 5.29047 13.7452 5.17197C12.9742 5.02167 12.2515 4.70187 11.5294 4.40307C10.9846 4.17657 10.4401 3.94257 9.86867 3.79077C9.53927 3.70827 9.18977 3.64587 8.85437 3.73107Z" fill="#4B4B4B"/>
<path opacity="0.5" d="M8.96964 7.33691C10.1174 7.65881 11.3189 7.78811 12.5087 7.71941C13.2167 7.67921 13.9187 7.55351 14.5967 7.34681C14.4206 7.84271 14.4686 8.41211 14.7341 8.86751C13.3583 9.24911 11.9075 9.31721 10.4924 9.15791C9.94403 9.09581 9.40073 8.99591 8.86523 8.86241C9.09143 8.44811 9.14453 7.94351 9.00923 7.49141C8.99363 7.44041 8.97474 7.39001 8.96964 7.33691Z" fill="#4B4B4B"/>
<path opacity="0.5" d="M11.5157 11.3374C11.7296 11.1421 12.0866 11.1415 12.3017 11.3356C12.437 11.4427 12.4916 11.611 12.5213 11.7739C12.9638 11.8879 13.3742 12.1423 13.6562 12.5041C13.895 12.8107 14.0255 13.2025 14.0078 13.5916C13.9928 13.81 13.8431 14.0101 13.6418 14.0932C13.4414 14.1799 13.1942 14.1439 13.0277 14.002C12.8969 13.8937 12.8132 13.729 12.8108 13.5586C12.8123 13.3642 12.6902 13.1914 12.5396 13.0789C12.3098 12.9091 12.0086 12.8647 11.7305 12.9019C11.4857 12.9352 11.2415 13.0543 11.1026 13.2649C11.0138 13.3918 10.9787 13.5622 11.045 13.7068C11.1812 14.0287 11.546 14.1889 11.8796 14.1892C12.4793 14.1838 13.0889 14.4088 13.5125 14.8393C13.8002 15.1282 13.9841 15.5209 14.0066 15.9289C14.0336 16.3156 13.922 16.7101 13.6943 17.0242C13.4126 17.4142 12.9824 17.6863 12.5192 17.8066C12.4943 17.9698 12.4349 18.1351 12.3029 18.2431C12.0887 18.4378 11.7314 18.4378 11.5172 18.2431C11.3828 18.136 11.3273 17.9686 11.2991 17.8057C10.8566 17.6917 10.4459 17.4379 10.1642 17.0761C9.92443 16.7689 9.79364 16.3768 9.81194 15.9871C9.82694 15.7768 9.96614 15.583 10.157 15.4957C10.328 15.4141 10.5383 15.4222 10.7027 15.5161C10.8818 15.616 11.0054 15.8119 11.0087 16.0183C11.0069 16.2121 11.1269 16.3858 11.2775 16.4983C11.5079 16.6708 11.8118 16.7149 12.0914 16.6774C12.3416 16.6429 12.5918 16.5178 12.7277 16.2982C12.815 16.1671 12.8378 15.9931 12.7652 15.85C12.62 15.5428 12.2672 15.391 11.9411 15.3904C11.3414 15.3958 10.7324 15.1717 10.3085 14.7415C10.0277 14.4598 9.84463 14.0797 9.81523 13.6816C9.78223 13.3 9.88274 12.9079 10.0997 12.592C10.379 12.1831 10.8203 11.9005 11.2949 11.773L11.3069 11.7598C11.3225 11.5996 11.3912 11.4427 11.5157 11.3374Z" fill="#4B4B4B"/>
</svg>
