<svg width="24" height="24" viewBox="0 0 24 24" fill="none" xmlns="http://www.w3.org/2000/svg">
<path d="M9.92769 1.27015C11.1698 1.26115 12.4118 1.26295 13.6539 1.267C14.7711 1.27533 15.8904 1.28635 17.0035 1.38869C17.9269 1.47754 18.8596 1.63229 19.7101 2.01804C20.4033 2.33025 21.0178 2.81654 21.474 3.42543C21.8796 3.96189 22.1497 4.58989 22.3218 5.23724C22.5408 6.06026 22.6241 6.91161 22.6749 7.75937C22.7491 9.09996 22.7397 10.443 22.7428 11.7852C22.7408 13.0679 22.7498 14.3512 22.7044 15.6335C22.6679 16.553 22.6088 17.4766 22.4189 18.3792C22.2635 19.117 22.0035 19.844 21.5687 20.4654C21.1168 21.1162 20.4886 21.6409 19.7711 21.9756C18.9953 22.3407 18.1437 22.506 17.2971 22.6029C16.2217 22.7215 15.1384 22.7399 14.0574 22.7518C12.8279 22.7606 11.5982 22.7588 10.3686 22.755C9.54283 22.75 8.71667 22.7406 7.89185 22.6981C7.13789 22.6574 6.38235 22.5921 5.6421 22.4369C5.00465 22.3029 4.37665 22.0946 3.81522 21.7599C3.11277 21.344 2.52863 20.7317 2.1449 20.0111C1.76117 19.2962 1.56795 18.4966 1.45324 17.6983C1.3167 16.7237 1.28409 15.7385 1.26407 14.7558C1.24338 13.4811 1.25013 12.2062 1.2499 10.9316C1.2526 10.0388 1.25687 9.14562 1.29286 8.25332C1.3284 7.4213 1.38688 6.58704 1.54703 5.76852C1.66242 5.1873 1.83382 4.61306 2.10621 4.08492C2.49826 3.31364 3.11862 2.66067 3.86943 2.23015C4.66343 1.77197 5.57237 1.56301 6.47389 1.44582C7.61901 1.30187 8.77515 1.28365 9.92769 1.27015ZM9.25357 2.77876C8.19168 2.80305 7.12304 2.83139 6.07622 3.02685C5.58407 3.12245 5.0944 3.26348 4.65421 3.50888C4.13147 3.79859 3.70141 4.24957 3.43307 4.7831C3.19982 5.24309 3.07048 5.7476 2.98231 6.25347C2.8424 7.07761 2.80214 7.91458 2.77605 8.74907C2.75468 9.49898 2.75131 10.2491 2.74951 10.9993C2.74973 12.2964 2.74231 13.5936 2.7666 14.8903C2.78752 15.7927 2.81924 16.6979 2.95352 17.5917C3.03292 18.1028 3.14786 18.6134 3.36042 19.0871C3.60244 19.6352 4.00596 20.1123 4.51498 20.4301C4.92368 20.6879 5.38793 20.8431 5.85669 20.9493C6.57016 21.1072 7.30118 21.1656 8.02951 21.2039C8.89841 21.2464 9.76866 21.2525 10.6385 21.2565C11.9959 21.2579 13.3536 21.2646 14.711 21.2437C15.6877 21.223 16.6682 21.1947 17.6351 21.0444C18.121 20.9659 18.6059 20.8537 19.0574 20.6532C19.6829 20.3822 20.2142 19.8977 20.5307 19.2929C20.88 18.6284 21.0113 17.8772 21.0986 17.1394C21.2241 15.9821 21.2302 14.8163 21.2403 13.6537C21.2441 12.2962 21.2482 10.9385 21.2331 9.58108C21.2192 8.68046 21.1976 7.77804 21.0984 6.88215C21.0133 6.16102 20.886 5.42798 20.554 4.77456C20.2529 4.17467 19.7423 3.68567 19.1336 3.40361C18.7035 3.20095 18.2391 3.08286 17.7726 3.00054C17.2584 2.91079 16.7379 2.864 16.2174 2.83206C15.1836 2.77178 14.1478 2.76886 13.1129 2.76459C11.8263 2.76459 10.5399 2.75784 9.25357 2.77876Z" fill="#4B4B4B"/>
<path opacity="0.25" d="M17.1662 6.54469C17.5042 6.4984 17.8563 6.56062 18.1571 6.72166C18.435 6.87511 18.6694 7.11089 18.8092 7.39712C18.9612 7.69796 19.0148 8.0466 18.9625 8.37949C18.9001 8.77042 18.682 9.13329 18.3699 9.37589C18.1415 9.55837 17.8595 9.67028 17.5697 9.7029C17.1666 9.74729 16.7459 9.63405 16.4268 9.38196C15.9374 9.01663 15.7051 8.35255 15.8449 7.75998C15.9856 7.13896 16.5304 6.62416 17.1662 6.54469Z" fill="#4B4B4B"/>
<path d="M9.99363 9.36485C10.0784 9.29618 10.2015 9.27722 10.3003 9.32634C10.4179 9.38628 10.4984 9.49554 10.5775 9.5974C10.789 9.88818 10.9868 10.1885 11.1924 10.4834C12.0593 11.7452 12.924 13.0087 13.7882 14.2723C13.005 15.2549 12.2122 16.2298 11.4382 17.2196C11.3709 17.2951 11.3908 17.4275 11.4855 17.4706C9.58827 17.4639 7.69088 17.4685 5.79367 17.4671C5.55676 17.4656 5.31833 17.4734 5.08293 17.441C4.97159 17.4224 4.84583 17.3918 4.77754 17.2934C4.714 17.2052 4.72196 17.0866 4.75914 16.9895C4.82193 16.8239 4.92436 16.6775 5.01958 16.5295C6.56966 14.2663 8.12392 12.006 9.6742 9.74289C9.77132 9.60992 9.86236 9.46747 9.99363 9.36485Z" fill="#4B4B4B"/>
<path opacity="0.6" d="M15.0655 12.6763C15.1759 12.5532 15.302 12.3924 15.4869 12.4095C15.6719 12.4366 15.7853 12.6045 15.9003 12.7348C16.7571 13.8129 17.6156 14.8896 18.4769 15.9641C18.6664 16.2044 18.8625 16.4396 19.0437 16.6864C19.1347 16.8162 19.2347 16.952 19.2565 17.1132C19.274 17.2485 19.1717 17.3733 19.0443 17.4072C18.7952 17.481 18.5312 17.4636 18.2745 17.4675C17.4777 17.4685 16.681 17.4649 15.8841 17.4704C15.0433 17.4818 14.2022 17.4909 13.3614 17.4842C12.7984 17.4844 12.2354 17.4837 11.6724 17.4844C11.6102 17.4835 11.5442 17.4969 11.4854 17.4709C11.3907 17.4279 11.3708 17.2955 11.4382 17.22C12.2121 16.2302 13.0049 15.2553 13.7881 14.2727C14.2155 13.742 14.6368 13.2061 15.0655 12.6763Z" fill="#4B4B4B"/>
</svg>
