<svg width="24" height="24" viewBox="0 0 24 24" fill="none" xmlns="http://www.w3.org/2000/svg">
<g clip-path="url(#clip0_35569_36373)">
<mask id="mask0_35569_36373" style="mask-type:luminance" maskUnits="userSpaceOnUse" x="0" y="0" width="24" height="24">
<path d="M24 0H0V24H24V0Z" fill="white"/>
</mask>
<g mask="url(#mask0_35569_36373)">
<mask id="mask1_35569_36373" style="mask-type:luminance" maskUnits="userSpaceOnUse" x="0" y="0" width="24" height="24">
<path d="M24 0H0V24H24V0Z" fill="white"/>
</mask>
<g mask="url(#mask1_35569_36373)">
<path d="M5.03853 1.03834C5.49109 0.903155 5.95962 0.817907 6.43175 0.796539C9.55917 0.773596 12.6864 0.790241 15.8138 0.787092C16.3836 0.790915 16.9535 0.774271 17.5231 0.795189C19.051 0.857495 20.5369 1.55028 21.5812 2.66503C22.5282 3.66934 23.1195 5.0079 23.1967 6.38829C23.2203 6.77764 23.2079 7.1679 23.2097 7.5577C23.2097 10.8117 23.2131 14.066 23.2086 17.3201C23.1996 18.9927 22.4317 20.638 21.1739 21.7366C20.0913 22.6934 18.6517 23.2321 17.207 23.2222C13.8178 23.222 10.4283 23.2222 7.03883 23.2222C6.68569 23.2256 6.3312 23.2202 5.98076 23.1712C4.65278 23.0007 3.39047 22.3671 2.46219 21.4021C1.58069 20.4997 1.00014 19.3109 0.830995 18.0608C0.768015 17.644 0.772513 17.2218 0.774987 16.8016C0.774762 15.1967 0.772288 13.5921 0.775212 11.9872C0.770264 11.5925 1.13713 11.2405 1.53053 11.2555C1.91786 11.2512 2.27212 11.5999 2.26807 11.9886C2.27302 13.4864 2.2674 14.9842 2.2701 16.4822C2.27685 16.9568 2.24648 17.4348 2.31823 17.9062C2.34995 18.1033 2.39133 18.299 2.44712 18.4908C2.6599 19.2183 3.05645 19.8926 3.59786 20.4239C4.4229 21.2496 5.58106 21.73 6.7489 21.726C10.2598 21.7269 13.7708 21.7262 17.2817 21.7262C17.8631 21.7215 18.4399 21.5937 18.9779 21.376C19.654 21.0807 20.264 20.6288 20.7238 20.0501C20.9143 19.8136 21.0792 19.5572 21.2202 19.2887C21.5068 18.729 21.6777 18.1094 21.7065 17.4807C21.7243 16.955 21.7106 16.4289 21.7151 15.903C21.7162 12.8959 21.7139 9.88887 21.7166 6.88179C21.7389 6.04482 21.5131 5.20583 21.0889 4.48493C20.5229 3.51099 19.569 2.77592 18.4889 2.46102C18.0735 2.33843 17.64 2.28107 17.2073 2.28175C13.7732 2.27837 10.3392 2.28535 6.905 2.2804C6.4936 2.28242 6.07816 2.30559 5.67913 2.41311C4.85117 2.61419 4.0882 3.06428 3.50159 3.68104C2.75235 4.46492 2.30474 5.52928 2.27347 6.61367C2.26335 7.17644 2.2764 7.73967 2.26695 8.30244C2.2593 8.65153 1.96689 8.96396 1.6223 9.00625C1.2939 9.05573 0.950658 8.85172 0.828296 8.54492C0.780836 8.42413 0.769139 8.29254 0.772513 8.16388C0.786009 7.56467 0.755194 6.96501 0.789383 6.36625C0.859111 5.21011 1.2867 4.08119 1.98624 3.15942C2.74447 2.15264 3.83021 1.39732 5.03853 1.03834Z" fill="#4B4B4B"/>
<path opacity="0.5" d="M16.2942 4.04138C17.0821 3.95928 17.8968 4.16891 18.5444 4.62619C19.1954 5.0792 19.6763 5.77109 19.8688 6.5408C20.0715 7.33367 19.9707 8.20055 19.5849 8.92303C19.2318 9.59309 18.6436 10.1363 17.9466 10.4334C17.1996 10.7555 16.334 10.789 15.5641 10.5274C14.8468 10.2874 14.219 9.79328 13.8141 9.1547C13.369 8.46215 13.1996 7.60089 13.3425 6.79047C13.4621 6.08621 13.8189 5.42604 14.3389 4.93682C14.8682 4.43365 15.567 4.11223 16.2942 4.04138ZM16.3406 5.54683C15.9971 5.60126 15.6705 5.75647 15.4109 5.98792C15.1385 6.22859 14.9406 6.55204 14.8506 6.90428C14.7597 7.25832 14.7759 7.63958 14.9006 7.9835C15.0535 8.41783 15.3788 8.78762 15.7884 8.9977C16.399 9.32183 17.1906 9.25525 17.738 8.83283C18.104 8.55909 18.362 8.14409 18.4416 7.69379C18.5114 7.315 18.4583 6.91463 18.2909 6.56756C18.1159 6.20183 17.8163 5.89727 17.4528 5.7171C17.1121 5.54526 16.7169 5.48678 16.3406 5.54683Z" fill="#4B4B4B"/>
<path opacity="0.5" d="M7.63152 11.6126C8.06384 11.4025 8.53731 11.2675 9.01979 11.2569C9.50924 11.2432 9.99846 11.3636 10.4339 11.5851C11.1069 11.9243 11.6532 12.4664 12.1161 13.0526C12.8903 13.9975 13.663 14.944 14.439 15.8873C14.9172 15.5009 15.3999 15.1136 15.9393 14.8147C16.3543 14.5841 16.8043 14.4055 17.2774 14.3443C17.7387 14.2816 18.2153 14.3378 18.6497 14.5056C19.225 14.7245 19.7199 15.1129 20.1423 15.554C20.4289 15.8484 20.6731 16.1795 20.9298 16.4994C21.1882 16.8266 21.4485 17.1526 21.7062 17.4805C21.6774 18.1092 21.5065 18.7289 21.2199 19.2885C20.9806 18.9675 20.7237 18.6596 20.4779 18.3436C20.1499 17.9295 19.8218 17.5156 19.4938 17.1017C19.2104 16.7374 18.9016 16.3833 18.5185 16.1204C18.2583 15.9427 17.9519 15.8147 17.6323 15.8199C17.2828 15.8246 16.9514 15.9643 16.6514 16.1334C16.1997 16.393 15.7935 16.7223 15.3895 17.0491C16.5526 18.4711 17.7173 19.8915 18.8809 21.3131C18.8867 21.3255 18.8984 21.3504 18.9043 21.3628C18.9284 21.3671 18.9529 21.3716 18.9776 21.3759C18.4396 21.5936 17.8629 21.7213 17.2814 21.7261C15.1572 19.1326 13.0325 16.5396 10.9096 13.9453C10.6415 13.609 10.343 13.2894 9.98204 13.0519C9.7047 12.8688 9.37765 12.7451 9.04161 12.7568C8.67002 12.7691 8.31981 12.9234 8.00671 13.114C7.42391 13.4723 6.93739 13.9597 6.44884 14.4329C5.19148 15.6572 3.9564 16.9042 2.72558 18.1553C2.63156 18.2543 2.53169 18.3476 2.44037 18.4493C2.44194 18.4596 2.44532 18.4803 2.44689 18.4907C2.39111 18.2988 2.34972 18.1031 2.31801 17.9061C2.24625 17.4346 2.27662 16.9567 2.26987 16.4821C3.4539 15.2827 4.64221 14.0872 5.85773 12.9201C6.39104 12.4135 6.96618 11.9358 7.63152 11.6126Z" fill="#4B4B4B"/>
</g>
</g>
</g>
<defs>
<clipPath id="clip0_35569_36373">
<rect width="24" height="24" fill="white"/>
</clipPath>
</defs>
</svg>
