<svg width="24" height="24" viewBox="0 0 24 24" fill="none" xmlns="http://www.w3.org/2000/svg">
<g opacity="0.25">
<path d="M19.2931 5.02182C19.7881 4.95404 20.3037 5.04515 20.7443 5.28099C21.1512 5.50571 21.4945 5.85099 21.6993 6.27015C21.9218 6.71071 22.0004 7.22127 21.9237 7.70878C21.8323 8.28128 21.5129 8.81266 21.0559 9.16794C20.7215 9.43516 20.3084 9.59904 19.884 9.64682C19.2937 9.71182 18.6776 9.54599 18.2104 9.17682C17.4937 8.64182 17.1534 7.66933 17.3581 6.80155C17.5643 5.89211 18.362 5.13821 19.2931 5.02182Z" fill="#4B4B4B"/>
</g>
<path d="M8.79006 9.15186C8.91423 9.05131 9.09451 9.02353 9.23923 9.09547C9.41145 9.18325 9.52923 9.34325 9.64506 9.49242C9.95479 9.91825 10.2445 10.3579 10.5457 10.7899C11.8151 12.6377 13.0815 14.4879 14.347 16.3385C13.2001 17.7774 12.039 19.2052 10.9057 20.6546C10.807 20.7652 10.8362 20.959 10.9748 21.0221C8.19645 21.0124 5.41784 21.019 2.63951 21.0171C2.29256 21.0149 1.9434 21.0263 1.59867 20.9788C1.43562 20.9515 1.25145 20.9068 1.15145 20.7627C1.0584 20.6335 1.07006 20.4599 1.12451 20.3177C1.21645 20.0752 1.36645 19.8607 1.5059 19.644C3.7759 16.3296 6.05201 13.0196 8.32229 9.70547C8.46451 9.51075 8.59784 9.30214 8.79006 9.15186Z" fill="#4B4B4B"/>
<g opacity="0.6">
<path d="M16.2173 14.001C16.3789 13.8207 16.5637 13.5852 16.8345 13.6102C17.1053 13.6499 17.2714 13.8957 17.4398 14.0866C18.6945 15.6655 19.9517 17.2421 21.2131 18.8157C21.4906 19.1677 21.7778 19.5121 22.0431 19.8735C22.1764 20.0635 22.3228 20.2624 22.3548 20.4985C22.3803 20.6966 22.2306 20.8794 22.0439 20.9291C21.6792 21.0371 21.2926 21.0116 20.9167 21.0174C19.7498 21.0188 18.5831 21.0135 17.4162 21.0216C16.1848 21.0382 14.9531 21.0516 13.7217 21.0419C12.8973 21.0421 12.0728 21.041 11.2484 21.0421C11.1573 21.0407 11.0606 21.0605 10.9745 21.0224C10.8359 20.9594 10.8067 20.7655 10.9053 20.6549C12.0387 19.2055 13.1998 17.7777 14.3467 16.3388C14.9725 15.5616 15.5895 14.7769 16.2173 14.001Z" fill="#4B4B4B"/>
</g>
</svg>
