<svg width="24" height="24" viewBox="0 0 24 24" fill="none" xmlns="http://www.w3.org/2000/svg">
<g opacity="0.25">
<path d="M19.2933 5.02166C19.7883 4.95389 20.3039 5.045 20.7445 5.28083C21.1514 5.50555 21.4947 5.85083 21.6995 6.27C21.922 6.71055 22.0006 7.22111 21.9239 7.70861C21.8325 8.28111 21.5131 8.8125 21.0561 9.16777C20.7217 9.435 20.3086 9.59889 19.8842 9.64666C19.2939 9.71166 18.6778 9.54583 18.2106 9.17666C17.4939 8.64166 17.1536 7.66916 17.3583 6.80139C17.5645 5.89194 18.3622 5.13805 19.2933 5.02166Z" fill="#4B4B4B"/>
</g>
<path d="M8.79 9.15194C8.91417 9.05139 9.09445 9.02361 9.23917 9.09556C9.41139 9.18333 9.52917 9.34333 9.645 9.4925C9.95473 9.91833 10.2444 10.3581 10.5456 10.79C11.815 12.6378 13.0814 14.4881 14.3469 16.3386C13.2 17.7775 12.0389 19.2053 10.9056 20.6547C10.8069 20.7653 10.8361 20.9592 10.9747 21.0222C8.19639 21.0125 5.41778 21.0192 2.63945 21.0172C2.2925 21.015 1.94334 21.0264 1.59861 20.9789C1.43556 20.9517 1.25139 20.9069 1.15139 20.7628C1.05834 20.6336 1.07 20.46 1.12445 20.3178C1.21639 20.0753 1.36639 19.8608 1.50584 19.6442C3.77584 16.3297 6.05195 13.0197 8.32223 9.70555C8.46445 9.51083 8.59778 9.30222 8.79 9.15194Z" fill="#4B4B4B"/>
<g opacity="0.6">
<path d="M16.2175 14.0008C16.3792 13.8206 16.5639 13.585 16.8347 13.61C17.1056 13.6497 17.2717 13.8956 17.44 14.0864C18.6947 15.6653 19.9519 17.2419 21.2133 18.8156C21.4908 19.1675 21.7781 19.5119 22.0433 19.8733C22.1767 20.0633 22.3231 20.2622 22.355 20.4983C22.3806 20.6964 22.2308 20.8792 22.0442 20.9289C21.6794 21.0369 21.2928 21.0114 20.9169 21.0172C19.75 21.0186 18.5833 21.0133 17.4164 21.0214C16.185 21.0381 14.9533 21.0514 13.7219 21.0417C12.8975 21.0419 12.0731 21.0408 11.2486 21.0419C11.1575 21.0406 11.0608 21.0603 10.9747 21.0222C10.8361 20.9592 10.8069 20.7653 10.9056 20.6547C12.0389 19.2053 13.2 17.7775 14.3469 16.3386C14.9728 15.5614 15.5897 14.7767 16.2175 14.0008Z" fill="#4B4B4B"/>
</g>
</svg>
