<svg width="24" height="24" viewBox="0 0 24 24" fill="none" xmlns="http://www.w3.org/2000/svg">
<path d="M15.1478 6.06695L17.9527 8.87468L18.9183 7.90998L16.1135 5.10224L15.1478 6.06695ZM9.51508 18.2779L5.76889 14.528L4.8032 15.4927L8.54939 19.2427L9.51508 18.2779ZM16.8262 14.0858L15.0816 14.7413L15.5617 16.0191L17.3063 15.3636L16.8262 14.0858ZM9.30345 8.94212L9.93541 7.2173L8.65373 6.7477L8.02177 8.47253L9.30345 8.94212ZM6.5807 11.4507C7.22812 11.2722 7.72075 11.1468 8.1236 10.8568L7.32607 9.74899C7.16869 9.8623 6.96438 9.92901 6.21791 10.1348L6.5807 11.4507ZM8.02177 8.47253C7.75519 9.20014 7.67179 9.39871 7.54586 9.54647L8.58477 10.4318C8.90668 10.0541 9.0722 9.57328 9.30345 8.94212L8.02177 8.47253ZM8.1236 10.8568C8.29385 10.7342 8.44869 10.5915 8.58477 10.4318L7.54586 9.54647C7.48098 9.62261 7.40719 9.6906 7.32607 9.74899L8.1236 10.8568ZM15.0816 14.7413C14.4545 14.9769 13.9765 15.1459 13.6019 15.4702L14.4956 16.5021C14.6419 16.3754 14.8388 16.2908 15.5617 16.0191L15.0816 14.7413ZM13.9147 17.824C14.1197 17.0789 14.1863 16.8747 14.2992 16.7172L13.1902 15.9215C12.9014 16.324 12.7765 16.8155 12.5986 17.4619L13.9147 17.824ZM13.6019 15.4702C13.4475 15.604 13.3093 15.7554 13.1902 15.9215L14.2992 16.7172C14.3561 16.638 14.4219 16.5658 14.4956 16.5021L13.6019 15.4702ZM5.76889 14.528C5.18091 13.9394 4.78218 13.5387 4.52345 13.2137C4.26381 12.8874 4.237 12.7462 4.2366 12.6829L2.87162 12.6915C2.87497 13.2213 3.13807 13.6649 3.45544 14.0637C3.7737 14.4636 4.23906 14.9279 4.8032 15.4927L5.76889 14.528ZM6.21791 10.1348C5.44876 10.3469 4.81491 10.5205 4.34081 10.7109C3.86802 10.9006 3.42007 11.1565 3.1556 11.6157L4.33845 12.2969C4.36996 12.2423 4.46272 12.1328 4.84935 11.9776C5.23468 11.8229 5.77899 11.6718 6.5807 11.4507L6.21791 10.1348ZM4.2366 12.6829C4.23574 12.5474 4.27091 12.4142 4.33845 12.2969L3.1556 11.6157C2.96724 11.9428 2.86924 12.314 2.87162 12.6915L4.2366 12.6829ZM8.54939 19.2427C9.11711 19.811 9.58394 20.2797 9.986 20.6C10.3869 20.9193 10.8336 21.1838 11.3671 21.1846L11.3691 19.8196C11.3059 19.8196 11.1644 19.7935 10.8365 19.5323C10.5096 19.2719 10.1068 18.8703 9.51508 18.2779L8.54939 19.2427ZM12.5986 17.4619C12.3764 18.2695 12.2244 18.818 12.0687 19.206C11.9123 19.5954 11.8021 19.6882 11.7469 19.7197L12.4235 20.9053C12.8867 20.6409 13.1444 20.1903 13.3354 19.7144C13.527 19.2373 13.7015 18.5989 13.9147 17.824L12.5986 17.4619ZM11.3671 21.1846C11.7375 21.1852 12.1017 21.0889 12.4235 20.9053L11.7469 19.7197C11.6318 19.7854 11.5016 19.8198 11.3691 19.8196L11.3671 21.1846ZM17.9527 8.87468C18.9204 9.84342 19.5899 10.5162 20.0008 11.0706C20.4044 11.6154 20.4509 11.9052 20.4016 12.1331L21.7357 12.4216C21.9085 11.6226 21.5901 10.9227 21.0975 10.2579C20.6121 9.6029 19.8541 8.84664 18.9183 7.90998L17.9527 8.87468ZM17.3063 15.3636C18.5452 14.8982 19.5479 14.5233 20.2604 14.1279C20.9837 13.7265 21.5629 13.2208 21.7357 12.4216L20.4016 12.1331C20.3522 12.361 20.1904 12.6055 19.598 12.9343C18.995 13.269 18.1075 13.6044 16.8262 14.0858L17.3063 15.3636ZM16.1135 5.10224C15.1708 4.15863 14.41 3.39453 13.7516 2.90572C13.084 2.41002 12.3802 2.08921 11.5777 2.26625L11.8718 3.5992C12.0991 3.54906 12.3895 3.59452 12.938 4.0017C13.4957 4.41578 14.1731 5.0912 15.1478 6.06695L16.1135 5.10224ZM9.93541 7.2173C10.4101 5.9218 10.741 5.02388 11.0732 4.41338C11.3999 3.81299 11.6445 3.64936 11.8718 3.5992L11.5777 2.26625C10.7755 2.44327 10.2718 3.03034 9.87422 3.76094C9.48215 4.48143 9.11277 5.49482 8.65373 6.7477L9.93541 7.2173Z" fill="#4B4B4B"/>
<path opacity="0.5" d="M2.41742 20.6173C2.15103 20.884 2.15125 21.3161 2.41791 21.5826C2.68458 21.8489 3.11672 21.8488 3.38311 21.582L2.41742 20.6173ZM7.61755 17.3433C7.88395 17.0766 7.88373 16.6445 7.61706 16.3781C7.35039 16.1118 6.91826 16.1119 6.65186 16.3786L7.61755 17.3433ZM3.38311 21.582L7.61755 17.3433L6.65186 16.3786L2.41742 20.6173L3.38311 21.582Z" fill="#4B4B4B"/>
</svg>
