<svg width="24" height="24" viewBox="0 0 24 24" fill="none" xmlns="http://www.w3.org/2000/svg">
<path opacity="0.5" d="M11.4094 1.26523C13.1911 1.16693 14.997 1.51692 16.608 2.28663C18.0957 2.99314 19.4155 4.04851 20.4351 5.34163C21.2924 6.42601 21.9381 7.6773 22.3212 9.00551C22.9006 11.0047 22.8828 13.1728 22.269 15.1618C21.7829 16.7469 20.9194 18.2135 19.7741 19.4121C18.644 20.5988 17.2398 21.5233 15.7011 22.0872C13.7786 22.7959 11.6525 22.932 9.65359 22.4869C8.30086 22.1868 7.00842 21.6191 5.87117 20.8276C4.5704 19.9249 3.47252 18.7319 2.68189 17.3601C1.86652 15.9509 1.38135 14.3532 1.27428 12.7288C1.17981 11.3342 1.35571 9.92075 1.79927 8.59456C2.29636 7.099 3.1313 5.71816 4.21974 4.57912C5.30592 3.43895 6.64493 2.54058 8.1135 1.97241C9.16549 1.56393 10.2827 1.32573 11.4094 1.26523ZM11.6804 2.75449C9.84838 2.81094 8.03972 3.43265 6.56036 4.51479C5.25217 5.46489 4.19927 6.76296 3.54337 8.24097C2.6684 10.1952 2.51185 12.4568 3.09666 14.5156C3.52223 16.0298 4.34705 17.4285 5.46113 18.538C6.52954 19.6085 7.86472 20.4108 9.31282 20.8481C10.7315 21.2783 12.254 21.3577 13.7109 21.0847C15.365 20.7777 16.9269 20.0014 18.1762 18.8752C19.3971 17.78 20.3204 16.3555 20.8137 14.7907C21.2125 13.5345 21.334 12.1925 21.1772 10.8846C21.0215 9.57301 20.5775 8.29675 19.8863 7.17121C19.0644 5.82725 17.8934 4.69945 16.5196 3.92907C15.0551 3.10245 13.3607 2.6942 11.6804 2.75449Z" fill="#4B4B4B"/>
<path d="M11.4121 6.2159C11.6429 5.97883 11.949 5.81508 12.277 5.76605C12.5921 5.71409 12.9187 5.77459 13.2055 5.91067C13.5211 6.0571 13.7946 6.27686 14.0535 6.50606C14.3979 6.81309 14.72 7.14374 15.0466 7.46921C15.6386 8.06168 16.2306 8.65437 16.823 9.24661C17.1242 9.55274 17.4288 9.85729 17.6985 10.1922C17.9173 10.4657 18.1117 10.7698 18.1978 11.1133C18.2943 11.4856 18.2397 11.8931 18.0514 12.2281C17.8991 12.5004 17.662 12.7155 17.4013 12.8819C17.0792 13.0875 16.725 13.2346 16.3723 13.3777C15.6845 13.6485 14.9883 13.8975 14.2993 14.1647C14.2015 14.2061 14.0767 14.2387 14.0409 14.3527C13.9226 14.7081 13.8396 15.0743 13.7287 15.4322C13.6221 15.7783 13.5033 16.134 13.2676 16.4162C12.9923 16.7503 12.5519 16.9228 12.1243 16.916C11.8296 16.912 11.5478 16.7943 11.3091 16.6275C11.0295 16.432 10.7891 16.1877 10.5457 15.9502C10.3041 15.71 10.0641 15.4682 9.82348 15.227C9.22607 15.8256 8.62888 16.4243 8.03102 17.0224C7.86772 17.1887 7.62502 17.2712 7.39446 17.2375C7.13737 17.2044 6.90614 17.0265 6.8074 16.7874C6.70843 16.5588 6.73452 16.2811 6.876 16.0759C6.92594 15.9997 6.99387 15.938 7.05775 15.8739C7.62659 15.3049 8.19611 14.7362 8.76429 14.1663C8.46041 13.8599 8.15158 13.5585 7.85175 13.2483C7.61984 13.0027 7.38479 12.7497 7.23904 12.4411C6.9482 11.8439 7.15649 11.0514 7.70419 10.6751C8.02314 10.4518 8.40328 10.3452 8.77194 10.2358C9.06367 10.1499 9.35968 10.0791 9.64849 9.98393C9.73711 9.96031 9.79154 9.87933 9.81898 9.79679C10.1379 8.97692 10.4128 8.1404 10.747 7.32638C10.9162 6.92916 11.1058 6.52743 11.4121 6.2159ZM12.3517 7.44559C12.201 7.70764 12.0935 7.99127 11.9839 8.27221C11.7734 8.82756 11.573 9.38674 11.3674 9.94411C11.25 10.2658 11.1375 10.6005 10.9146 10.8672C10.7124 11.1126 10.4409 11.2971 10.1406 11.3999C9.64421 11.5735 9.11968 11.6612 8.63338 11.8641C8.76069 12.0387 8.91589 12.1903 9.06547 12.3457C9.94292 13.2234 10.8172 14.1042 11.6973 14.9792C11.8451 15.1202 11.9868 15.2709 12.1562 15.3865C12.2941 15.0554 12.3746 14.7045 12.4734 14.3606C12.5712 13.9922 12.678 13.6078 12.9363 13.3154C13.145 13.0596 13.4363 12.8889 13.7408 12.7717C14.2289 12.5841 14.7195 12.4035 15.2085 12.2184C15.5956 12.0704 15.9868 11.9293 16.3601 11.7487C16.4974 11.6776 16.6404 11.6072 16.7477 11.493C16.7027 11.3421 16.5972 11.2199 16.5027 11.0978C16.207 10.7426 15.8732 10.4221 15.549 10.0935C14.926 9.47131 14.3054 8.84691 13.6824 8.22475C13.4133 7.96181 13.1495 7.69189 12.8557 7.45617C12.7469 7.37339 12.6367 7.28477 12.5039 7.24496C12.4421 7.30254 12.394 7.37294 12.3517 7.44559Z" fill="#4B4B4B"/>
</svg>
