<svg width="24" height="24" viewBox="0 0 24 24" fill="none" xmlns="http://www.w3.org/2000/svg">
<path d="M7.71818 3.67334C8.13024 3.30217 8.6603 3.07377 9.2046 2.98234C9.68217 2.90108 10.175 2.98502 10.6226 3.16074C11.1283 3.35783 11.5914 3.6473 12.0424 3.94633C12.8576 4.49654 13.6431 5.08926 14.4397 5.66592C15.1205 6.16829 15.8122 6.65976 16.4412 7.22703C16.8211 7.5753 17.178 7.96502 17.4018 8.43439C17.6462 8.93893 17.6923 9.52101 17.6066 10.0699C17.5527 10.4207 17.4291 10.7616 17.2343 11.059C16.9569 11.4877 16.5675 11.8287 16.1605 12.1307C15.1753 12.8448 14.0974 13.4151 13.0648 14.0547C12.9495 14.129 12.8324 14.2033 12.7356 14.3014C12.5515 14.4918 12.4195 14.7361 12.3795 14.9995C12.2976 15.4775 12.2549 15.9611 12.1874 16.4412C12.1275 16.8587 12.0698 17.2853 11.8947 17.6732C11.5818 18.3761 10.7819 18.7999 10.0254 18.7321C9.52717 18.6809 9.09556 18.3996 8.69238 18.1233C8.02058 17.6492 7.36178 17.1567 6.69588 16.6745C6.24267 16.3433 5.78929 16.0127 5.3359 15.682C4.90295 15.3658 4.46974 15.0497 4.03683 14.7338C3.69713 14.4839 3.35272 14.2399 3.03051 13.9675C2.75248 13.7308 2.49198 13.4555 2.35098 13.1131C2.14594 12.6032 2.18044 12.0067 2.4291 11.5183C2.61535 11.143 2.95707 10.8752 3.31511 10.6742C3.86201 10.3684 4.44418 10.1329 5.00635 9.85782C5.17317 9.77419 5.3466 9.69362 5.48302 9.56279C5.63459 9.41757 5.76099 9.24071 5.82551 9.03949C5.88548 8.85664 5.9275 8.66866 5.97222 8.48153C6.11259 7.87646 6.24582 7.26994 6.39229 6.66622C6.53437 6.08851 6.68166 5.50973 6.89821 4.95494C7.08463 4.48084 7.33812 4.02006 7.71818 3.67334ZM9.20644 4.71716C9.05258 4.77727 8.89899 4.85551 8.79062 4.984C8.66847 5.12591 8.58448 5.29588 8.51005 5.46641C8.34382 5.86008 8.23192 6.27391 8.12422 6.68684C7.96298 7.3205 7.82119 7.95906 7.67563 8.59642C7.59232 8.95743 7.51704 9.3223 7.38851 9.67067C7.22284 10.1236 6.93294 10.5266 6.57496 10.8476C6.23223 11.1532 5.80973 11.3461 5.39757 11.5382C5.00998 11.7187 4.61729 11.8896 4.23881 12.0892C4.13377 12.1473 4.02629 12.2045 3.93529 12.2838C3.89874 12.3381 3.89246 12.4158 3.91553 12.4767C4.00398 12.5908 4.11932 12.6805 4.2294 12.7726C4.53245 13.0139 4.84846 13.2383 5.16085 13.4674C6.40213 14.3732 7.6434 15.2791 8.88468 16.1849C9.22389 16.43 9.55705 16.684 9.90997 16.9088C10.0033 16.9625 10.0947 17.0271 10.2002 17.0533C10.2679 17.0415 10.3533 17.0151 10.375 16.941C10.4249 16.7984 10.4499 16.6487 10.4751 16.5004C10.5742 15.8931 10.6149 15.2775 10.7265 14.672C10.8605 13.918 11.3032 13.2237 11.9318 12.7857C12.3005 12.5265 12.6972 12.3112 13.0829 12.0788C13.6207 11.7596 14.1609 11.4437 14.6854 11.1025C14.9915 10.9001 15.297 10.692 15.5652 10.4395C15.7072 10.3019 15.8469 10.1483 15.908 9.9561C15.9666 9.75299 15.9767 9.53572 15.938 9.32783C15.8936 9.12393 15.7626 8.95351 15.6294 8.79853C15.3571 8.49359 15.0388 8.23473 14.7197 7.9811C14.2462 7.6096 13.7588 7.25663 13.2728 6.90192C12.5044 6.3467 11.7496 5.77221 10.9582 5.25001C10.6021 5.02418 10.2404 4.79077 9.83176 4.67269C9.62589 4.60787 9.40431 4.6407 9.20644 4.71716Z" fill="#4B4B4B"/>
<path opacity="0.5" d="M2.83634 18.5903C3.64982 17.4785 4.45852 16.3634 5.27243 15.2524C5.81358 15.6468 6.35473 16.0412 6.89567 16.4363C6.15342 17.4585 5.40605 18.4773 4.66172 19.4981C4.52774 19.6747 4.41393 19.8768 4.22035 19.9965C3.85652 20.2445 3.33196 20.2104 3.00481 19.9151C2.62554 19.5988 2.5465 18.9912 2.83634 18.5903Z" fill="#4B4B4B"/>
<path opacity="0.5" d="M18.4567 10.4255C18.708 10.41 18.9606 10.4226 19.2123 10.4185C20.3367 10.4192 21.4611 10.4172 22.5855 10.4196C22.9465 10.4239 23.2711 10.7269 23.3035 11.0861C23.3442 11.4048 23.1524 11.7334 22.8561 11.8569C22.7572 11.9003 22.6487 11.9201 22.541 11.9183C21.236 11.9179 19.9309 11.9179 18.6259 11.9183C18.4965 11.9233 18.3647 11.9064 18.2473 11.8504C17.9522 11.7202 17.7666 11.3846 17.8168 11.0652C17.8564 10.7408 18.1324 10.4653 18.4567 10.4255Z" fill="#4B4B4B"/>
<path opacity="0.5" d="M17.4846 13.7701C19.1772 13.7614 20.8702 13.7683 22.5628 13.7668C22.9187 13.7611 23.248 14.0445 23.2984 14.3963C23.3564 14.7198 23.1717 15.0648 22.8717 15.1975C22.7614 15.2497 22.6384 15.27 22.5172 15.2661C20.8601 15.2652 19.2031 15.2664 17.546 15.2657C17.3323 15.2643 17.1229 15.1631 16.9861 14.9996C16.799 14.7823 16.7563 14.4553 16.8809 14.197C16.9895 13.9624 17.2268 13.7935 17.4846 13.7701Z" fill="#4B4B4B"/>
<path opacity="0.5" d="M13.4634 17.1202C13.7974 17.1051 14.1323 17.1177 14.4666 17.1137C17.1361 17.1134 19.8053 17.1139 22.4745 17.1134C22.5987 17.1101 22.7258 17.1193 22.8414 17.1685C23.1003 17.2713 23.2892 17.5284 23.307 17.8069C23.3326 18.0944 23.1732 18.3863 22.9188 18.522C22.8043 18.5852 22.6731 18.616 22.5429 18.6135C19.5432 18.6126 16.5436 18.6139 13.5441 18.6128C13.1611 18.6142 12.8199 18.2772 12.8129 17.8951C12.7882 17.5192 13.0896 17.1616 13.4634 17.1202Z" fill="#4B4B4B"/>
</svg>
