<svg width="24" height="24" viewBox="0 0 24 24" fill="none" xmlns="http://www.w3.org/2000/svg">
<g clip-path="url(#clip0_35569_36378)">
<mask id="mask0_35569_36378" style="mask-type:luminance" maskUnits="userSpaceOnUse" x="0" y="0" width="24" height="24">
<path d="M24 0H0V24H24V0Z" fill="white"/>
</mask>
<g mask="url(#mask0_35569_36378)">
<mask id="mask1_35569_36378" style="mask-type:luminance" maskUnits="userSpaceOnUse" x="0" y="0" width="24" height="24">
<path d="M24 0H0V24H24V0Z" fill="white"/>
</mask>
<g mask="url(#mask1_35569_36378)">
<path d="M6.40719 0.796843C9.6987 0.772079 12.9904 0.792364 16.2819 0.786305C16.9129 0.791838 17.5489 0.756272 18.1743 0.86007C19.2215 1.02236 20.2199 1.47654 21.0372 2.15017C22.1381 3.05379 22.8997 4.36102 23.1331 5.7665C23.2203 6.25388 23.2222 6.75022 23.2177 7.24339C23.2167 10.5196 23.2211 13.7956 23.2164 17.0718C23.2198 17.4011 23.2106 17.7315 23.164 18.0582C23.0106 19.1797 22.5275 20.2524 21.7967 21.1165C21.1607 21.8681 20.3353 22.459 19.4178 22.8168C18.7223 23.0889 17.9759 23.2312 17.2288 23.2294C13.7431 23.2291 10.2574 23.2299 6.7718 23.2291C5.74699 23.232 4.72324 22.9656 3.83016 22.4627C2.99766 21.9964 2.28188 21.3262 1.75736 20.5296C1.11349 19.558 0.770751 18.3938 0.774966 17.2291C0.776547 15.4724 0.771541 13.7155 0.77602 11.9588C0.7913 11.5774 1.1459 11.246 1.52842 11.2594C1.90699 11.2531 2.2529 11.5834 2.26897 11.9607C2.2745 13.4887 2.26792 15.0167 2.27134 16.5449C2.27661 17.0407 2.24526 17.5418 2.3401 18.0318C2.49606 18.9099 2.91916 19.7389 3.54458 20.3752C4.16895 21.0185 4.99064 21.4687 5.87029 21.6437C6.38164 21.7562 6.90853 21.7314 7.42831 21.7332C10.6956 21.7332 13.9631 21.7332 17.2304 21.7332C18.1029 21.734 18.9757 21.4764 19.7025 20.9924C20.7015 20.3386 21.4202 19.2692 21.6405 18.095C21.7024 17.7937 21.7195 17.4849 21.7221 17.178C21.7232 13.7526 21.7216 10.3271 21.7229 6.9017C21.7659 5.53757 21.1468 4.16712 20.0866 3.30565C19.4399 2.77217 18.6416 2.42284 17.8091 2.31904C17.4775 2.27373 17.1418 2.28295 16.8083 2.28216C13.6559 2.28216 10.5035 2.28163 7.35112 2.28242C6.79578 2.279 6.23042 2.26661 5.6893 2.41204C4.92926 2.59461 4.22348 2.9874 3.65839 3.52668C2.98528 4.16554 2.52056 5.01937 2.34985 5.93169C2.29136 6.23386 2.26871 6.54183 2.27134 6.84927C2.26792 7.33243 2.27529 7.81559 2.26818 8.29849C2.26344 8.64466 1.97865 8.9579 1.63775 9.00637C1.3506 9.05669 1.04816 8.91048 0.891936 8.66784C0.79288 8.52137 0.767853 8.34012 0.773122 8.16677C0.785767 7.59641 0.758632 7.02552 0.78524 6.45542C0.837666 5.2844 1.25813 4.13682 1.95837 3.19869C2.66809 2.24106 3.6713 1.50525 4.79806 1.11667C5.31652 0.936997 5.85949 0.827666 6.40719 0.796843Z" fill="#4B4B4B"/>
<path d="M9.91797 7.95039C10.2159 7.88479 10.5323 7.91167 10.8166 8.02126C11.0948 8.12427 11.3185 8.32607 11.5627 8.48809C11.6794 8.58056 11.8195 8.64958 11.9102 8.77103C12.0379 8.94965 12.0466 9.2094 11.9178 9.3896C11.7845 9.59246 11.5023 9.67544 11.2792 9.58376C11.0985 9.49077 10.9423 9.3572 10.7752 9.24313C10.6583 9.16541 10.5505 9.06925 10.4188 9.01735C10.1682 8.92673 9.86344 9.05845 9.75859 9.30319C9.70932 9.4091 9.70748 9.52817 9.71117 9.64277C9.71169 11.1877 9.71117 12.7328 9.71143 14.2779C9.71301 14.3746 9.70616 14.4718 9.71644 14.5682C9.74463 14.7769 9.90981 14.9586 10.114 15.0087C10.2691 15.0508 10.4399 15.0119 10.5684 14.9175C11.7355 14.0901 12.9026 13.2631 14.0686 12.434C14.2994 12.2704 14.3441 11.9121 14.1766 11.6882C14.1334 11.6276 14.0715 11.5849 14.0127 11.5412C13.7854 11.3729 13.5483 11.2182 13.3228 11.0475C13.1294 10.8981 13.0756 10.6065 13.185 10.3915C13.2888 10.1773 13.5456 10.0596 13.7767 10.1117C13.8892 10.1315 13.9798 10.205 14.0707 10.2693C14.287 10.421 14.5033 10.5728 14.7161 10.7293C15.1371 11.0388 15.3769 11.5702 15.3479 12.09C15.3265 12.57 15.0747 13.0328 14.6832 13.3113C13.538 14.1254 12.3915 14.9373 11.2457 15.7506C10.8435 16.0672 10.2894 16.1863 9.79758 16.033C9.37501 15.9084 9.00566 15.6075 8.80913 15.2121C8.69769 14.9889 8.64131 14.7395 8.64105 14.4902C8.64078 12.9617 8.64105 11.4329 8.64105 9.90438C8.64368 9.61379 8.61944 9.31505 8.7156 9.03527C8.87973 8.48967 9.36368 8.06631 9.91797 7.95039Z" fill="#4B4B4B"/>
<path opacity="0.08" d="M6.81179 2.91897C6.96432 2.90237 7.11765 2.89262 7.27124 2.89209C10.2653 2.89209 13.2596 2.89209 16.254 2.89209C16.5793 2.89367 16.906 2.88129 17.2292 2.92476C18.1566 3.03594 19.0423 3.45429 19.7199 4.09631C20.5892 4.90772 21.1059 6.08164 21.1106 7.27163C21.1111 10.4238 21.1109 13.5762 21.1109 16.7284C21.1072 17.5867 20.8453 18.4413 20.3666 19.1536C19.9006 19.8526 19.2317 20.4148 18.4616 20.7512C17.9013 20.998 17.289 21.1237 16.6771 21.1224C13.8321 21.1229 10.9869 21.1227 8.14166 21.1227C7.62241 21.1142 7.09868 21.1529 6.58417 21.0636C5.66526 20.9153 4.79984 20.4635 4.14966 19.798C3.34904 18.9911 2.88248 17.8654 2.88063 16.7284C2.88037 13.5846 2.88037 10.4409 2.88037 7.29719C2.88169 6.39093 3.172 5.48863 3.69942 4.75203C4.41547 3.73723 5.57569 3.04963 6.81179 2.91897ZM9.91809 7.95027C9.36379 8.06619 8.87984 8.48955 8.71571 9.03515C8.61956 9.31493 8.64379 9.61367 8.64116 9.90426C8.64116 11.4328 8.6409 12.9616 8.64116 14.4901C8.64142 14.7393 8.6978 14.9888 8.80924 15.212C9.00577 15.6074 9.37512 15.9082 9.79769 16.0329C10.2895 16.1862 10.8436 16.0671 11.2458 15.7504C12.3916 14.9372 13.5381 14.1252 14.6833 13.3112C15.0748 13.0327 15.3266 12.5699 15.348 12.0899C15.3769 11.5701 15.1372 11.0387 14.7162 10.7291C14.5034 10.5727 14.2871 10.4209 14.0708 10.2692C13.9799 10.2049 13.8893 10.1314 13.7768 10.1116C13.5457 10.0595 13.2889 10.1772 13.1851 10.3914C13.0757 10.6064 13.1295 10.898 13.3229 11.0474C13.5484 11.2181 13.7855 11.3727 14.0128 11.5411C14.0716 11.5848 14.1335 11.6275 14.1767 11.6881C14.3442 11.912 14.2995 12.2703 14.0687 12.4339C12.9027 13.263 11.7356 14.0899 10.5685 14.9174C10.44 15.0117 10.2692 15.0507 10.1141 15.0086C9.90992 14.9585 9.74474 14.7767 9.71655 14.5681C9.70628 14.4717 9.71313 14.3745 9.71154 14.2778C9.71128 12.7327 9.71181 11.1875 9.71128 9.64265C9.70759 9.52805 9.70944 9.40898 9.7587 9.30307C9.86355 9.05833 10.1683 8.92661 10.4189 9.01723C10.5506 9.06913 10.6584 9.16529 10.7753 9.243C10.9423 9.35708 11.0986 9.49065 11.2793 9.58364C11.5024 9.67532 11.7846 9.59234 11.9179 9.38948C12.0467 9.20928 12.038 8.94953 11.9103 8.77091C11.8196 8.64946 11.6795 8.58044 11.5628 8.48797C11.3185 8.32595 11.0949 8.12415 10.8167 8.02114C10.5324 7.91155 10.216 7.88467 9.91809 7.95027Z" fill="#4B4B4B"/>
</g>
</g>
</g>
<defs>
<clipPath id="clip0_35569_36378">
<rect width="24" height="24" fill="white"/>
</clipPath>
</defs>
</svg>
