<svg width="24" height="24" viewBox="0 0 24 24" fill="none" xmlns="http://www.w3.org/2000/svg">
<path d="M8.62669 1.27851C10.0244 1.2378 11.4231 1.25489 12.8212 1.24927C14.0214 1.25084 15.2226 1.25444 16.4208 1.32777C17.3653 1.3912 18.3181 1.49871 19.2178 1.80687C19.9016 2.039 20.5426 2.41193 21.0527 2.92634C21.5501 3.41624 21.9181 4.02782 22.1533 4.68304C22.387 5.32499 22.5074 6.00136 22.5856 6.67817C22.686 7.54438 22.7132 8.41733 22.728 9.28871C22.748 10.5555 22.7435 11.8228 22.742 13.0898C22.7366 14.2749 22.7361 15.4617 22.6491 16.6446C22.5823 17.5126 22.4698 18.3858 22.1871 19.2128C21.9262 19.9866 21.4801 20.7043 20.8631 21.2437C20.3166 21.7327 19.6469 22.0681 18.9456 22.2723C18.061 22.5317 17.1376 22.6216 16.2206 22.6765C15.762 22.7028 15.3029 22.7148 14.844 22.7269C14.5919 22.7451 14.3157 22.7795 14.0892 22.6403C13.8078 22.4829 13.6593 22.1308 13.7376 21.8189C13.7943 21.5665 13.9938 21.356 14.2392 21.2777C14.3687 21.2323 14.5071 21.2455 14.6418 21.243C14.9567 21.2392 15.2727 21.2532 15.5863 21.2165C16.5458 21.1511 17.518 21.1146 18.4499 20.8548C18.808 20.754 19.1579 20.6157 19.4735 20.4173C19.8316 20.194 20.1395 19.8923 20.3739 19.5419C20.826 18.8554 20.9857 18.0281 21.0869 17.2258C21.2062 16.2197 21.2219 15.205 21.2365 14.1931C21.2453 13.4429 21.2417 12.6928 21.2426 11.9427C21.2435 11.1482 21.2446 10.3537 21.2336 9.5593C21.2203 8.7338 21.2012 7.90719 21.1218 7.08484C21.0444 6.3374 20.9322 5.57782 20.6175 4.88841C20.3552 4.30831 19.9083 3.81212 19.3516 3.50126C18.9254 3.26081 18.4512 3.11978 17.9739 3.02351C17.1441 2.85841 16.2968 2.81455 15.4536 2.78239C14.2392 2.74033 13.0241 2.75202 11.8095 2.74977C11.0369 2.75022 10.2642 2.74752 9.49155 2.75922C8.70429 2.77317 7.91636 2.79431 7.13181 2.86606C6.65608 2.91082 6.18126 2.97695 5.71678 3.09099C5.31865 3.18974 4.9275 3.32919 4.57436 3.54063C4.22077 3.75139 3.91194 4.03682 3.67307 4.37197C3.27539 4.93024 3.09027 5.60661 2.97691 6.2742C2.81923 7.23307 2.78639 8.20679 2.76862 9.17692C2.74725 10.5935 2.75108 12.0106 2.74995 13.4274C2.75288 13.6465 2.65638 13.8642 2.48904 14.0062C2.2839 14.1868 1.97665 14.2387 1.72337 14.1357C1.50722 14.052 1.3374 13.8615 1.27689 13.6382C1.23685 13.5037 1.25237 13.3622 1.25035 13.2243C1.25192 11.9055 1.24855 10.5866 1.27217 9.26801C1.29218 8.29744 1.31265 7.32417 1.44649 6.36147C1.5585 5.5425 1.75644 4.72286 2.14759 3.98914C2.58328 3.17894 3.27089 2.50483 4.09481 2.09365C4.92525 1.67349 5.85263 1.49557 6.7708 1.39592C7.38755 1.33047 8.00724 1.29898 8.62669 1.27851Z" fill="#4B4B4B"/>
<path opacity="0.5" d="M12.3159 6.89388C12.4207 6.81245 12.5534 6.76814 12.6864 6.76972C14.0434 6.76949 15.4001 6.76949 16.7571 6.76949C16.886 6.76994 17.0205 6.75892 17.1424 6.81065C17.3707 6.89725 17.53 7.13365 17.523 7.37815C17.5221 8.79521 17.5242 10.2125 17.5221 11.6298C17.5201 11.9017 17.3066 12.1503 17.0401 12.1993C16.812 12.247 16.563 12.1469 16.4317 11.9546C16.3599 11.8531 16.3224 11.7292 16.3233 11.6053C16.3235 10.6761 16.3235 9.74689 16.3233 8.8177C14.8131 10.3272 13.3036 11.8374 11.7936 13.3471C11.7255 13.4137 11.6625 13.4875 11.5802 13.537C11.4229 13.6337 11.2203 13.6514 11.0489 13.5828C10.8669 13.5129 10.7254 13.3487 10.6834 13.1586C10.6361 12.9607 10.6993 12.7418 10.8449 12.5997C12.3879 11.056 13.9318 9.51296 15.4748 7.96904C14.5378 7.96837 13.6009 7.96994 12.6639 7.96837C12.3895 7.96657 12.1382 7.74974 12.0921 7.48004C12.0494 7.26276 12.1391 7.02704 12.3159 6.89388Z" fill="#4B4B4B"/>
<path opacity="0.5" d="M3.51808 15.9623C3.61188 15.9499 3.70635 15.9441 3.80082 15.9438C6.11782 15.9436 8.43504 15.9438 10.752 15.9436C11.0921 15.9414 11.4329 16.0219 11.7348 16.1796C12.1072 16.3732 12.4194 16.6807 12.6174 17.0509C12.7805 17.3532 12.8664 17.6963 12.8662 18.0397C12.8659 18.6093 12.8659 19.1788 12.8659 19.7483C12.8664 20.1131 12.7683 20.4773 12.5852 20.7929C12.2197 21.4373 11.4939 21.8554 10.7523 21.8426C8.43527 21.8424 6.11849 21.8426 3.80149 21.8424C3.44025 21.8431 3.07879 21.7495 2.76479 21.5705C2.11047 21.2074 1.6849 20.4739 1.69907 19.7254C1.69952 19.1558 1.69862 18.5863 1.69952 18.0168C1.70335 17.5753 1.8527 17.1369 2.11857 16.7844C2.45056 16.3381 2.9661 16.0336 3.51808 15.9623ZM3.71737 17.1472C3.39572 17.1729 3.09926 17.3879 2.9733 17.6848C2.92089 17.8031 2.8975 17.9329 2.89862 18.0622C2.89952 18.6317 2.89727 19.2013 2.89975 19.7706C2.90492 20.1336 3.15594 20.4746 3.49874 20.5916C3.68183 20.6611 3.87999 20.6397 4.07118 20.6428C6.30563 20.6426 8.54009 20.6433 10.7745 20.6424C11.0296 20.6424 11.2809 20.5254 11.4469 20.3322C11.5865 20.1721 11.6664 19.9613 11.6664 19.7487C11.6664 19.179 11.6664 18.6093 11.6664 18.0395C11.6675 17.7997 11.5656 17.5624 11.3924 17.3967C11.2237 17.2313 10.9878 17.1389 10.7518 17.1432C9.49964 17.1434 8.24745 17.1432 6.99527 17.1434C5.90279 17.1459 4.80985 17.1382 3.71737 17.1472Z" fill="#4B4B4B"/>
</svg>
