<svg width="24" height="24" viewBox="0 0 24 24" fill="none" xmlns="http://www.w3.org/2000/svg">
<path d="M8.62696 1.2785C10.0247 1.23779 11.4233 1.25488 12.8215 1.24926C14.0217 1.25083 15.2228 1.25443 16.421 1.32776C17.3655 1.39119 18.3183 1.49871 19.218 1.80686C19.9018 2.03899 20.5428 2.41192 21.053 2.92634C21.5503 3.41623 21.9183 4.02782 22.1536 4.68304C22.3873 5.32499 22.5076 6.00135 22.5859 6.67816C22.6862 7.54437 22.7134 8.41732 22.7283 9.2887C22.7483 10.5555 22.7438 11.8228 22.7422 13.0898C22.7368 14.2749 22.7364 15.4617 22.6493 16.6446C22.5825 17.5126 22.47 18.3858 22.1873 19.2128C21.9264 19.9866 21.4803 20.7043 20.8634 21.2437C20.3168 21.7327 19.6472 22.0681 18.9458 22.2723C18.0612 22.5317 17.1379 22.6216 16.2208 22.6765C15.7622 22.7028 15.3031 22.7148 14.8442 22.7269C14.5921 22.7451 14.3159 22.7795 14.0894 22.6403C13.808 22.4829 13.6595 22.1308 13.7378 21.8189C13.7945 21.5665 13.994 21.356 14.2394 21.2777C14.369 21.2322 14.5073 21.2455 14.642 21.243C14.9569 21.2392 15.273 21.2532 15.5865 21.2165C16.5461 21.151 17.5182 21.1146 18.4501 20.8548C18.8082 20.754 19.1582 20.6157 19.4738 20.4173C19.8318 20.194 20.1398 19.8923 20.3741 19.5419C20.8263 18.8554 20.986 18.0281 21.0872 17.2258C21.2064 16.2197 21.2221 15.205 21.2367 14.1931C21.2455 13.4429 21.2419 12.6928 21.2428 11.9426C21.2437 11.1482 21.2448 10.3537 21.2338 9.55929C21.2206 8.7338 21.2014 7.90718 21.122 7.08484C21.0447 6.3374 20.9324 5.57781 20.6177 4.8884C20.3555 4.3083 19.9085 3.81211 19.3518 3.50126C18.9256 3.26081 18.4514 3.11978 17.9741 3.02351C17.1444 2.85841 16.2971 2.81455 15.4538 2.78238C14.2394 2.74032 13.0243 2.75202 11.8097 2.74977C11.0371 2.75022 10.2645 2.74752 9.49182 2.75921C8.70456 2.77316 7.91664 2.7943 7.13208 2.86605C6.65635 2.91082 6.18153 2.97695 5.71705 3.09098C5.31892 3.18973 4.92777 3.32919 4.57463 3.54062C4.22104 3.75138 3.91221 4.03681 3.67334 4.37196C3.27566 4.93023 3.09054 5.6066 2.97718 6.27419C2.8195 7.23307 2.78666 8.20679 2.76889 9.17691C2.74753 10.5935 2.75135 12.0106 2.75022 13.4274C2.75315 13.6465 2.65665 13.8642 2.48931 14.0062C2.28417 14.1868 1.97692 14.2387 1.72365 14.1357C1.50749 14.052 1.33767 13.8615 1.27716 13.6382C1.23712 13.5037 1.25264 13.3622 1.25062 13.2243C1.25219 11.9055 1.24882 10.5865 1.27244 9.268C1.29245 8.29743 1.31292 7.32416 1.44676 6.36146C1.55877 5.54249 1.75671 4.72285 2.14786 3.98913C2.58355 3.17893 3.27116 2.50482 4.09508 2.09365C4.92552 1.67348 5.85291 1.49556 6.77107 1.39591C7.38783 1.33046 8.00751 1.29897 8.62696 1.2785Z" fill="#4B4B4B"/>
<path opacity="0.5" d="M12.3158 6.89387C12.4206 6.81245 12.5533 6.76813 12.6863 6.76971C14.0433 6.76948 15.4 6.76948 16.757 6.76948C16.8859 6.76993 17.0204 6.75891 17.1423 6.81065C17.3706 6.89724 17.5299 7.13364 17.5229 7.37814C17.522 8.7952 17.524 10.2125 17.522 11.6298C17.52 11.9017 17.3065 12.1503 17.04 12.1993C16.8119 12.247 16.5629 12.1469 16.4316 11.9546C16.3598 11.8531 16.3222 11.7292 16.3231 11.6052C16.3234 10.6761 16.3234 9.74688 16.3231 8.81769C14.813 10.3272 13.3035 11.8374 11.7935 13.3471C11.7254 13.4137 11.6624 13.4875 11.5801 13.5369C11.4228 13.6337 11.2202 13.6514 11.0488 13.5828C10.8668 13.5129 10.7253 13.3487 10.6833 13.1586C10.636 12.9607 10.6992 12.7418 10.8448 12.5997C12.3878 11.056 13.9317 9.51295 15.4747 7.96903C14.5377 7.96836 13.6008 7.96993 12.6638 7.96836C12.3893 7.96656 12.1381 7.74973 12.092 7.48004C12.0493 7.26275 12.139 7.02703 12.3158 6.89387Z" fill="#4B4B4B"/>
<path opacity="0.5" d="M3.51811 15.9624C3.61191 15.95 3.70638 15.9441 3.80085 15.9439C6.11785 15.9437 8.43507 15.9439 10.7521 15.9437C11.0922 15.9414 11.4329 16.022 11.7348 16.1796C12.1073 16.3733 12.4195 16.6808 12.6174 17.051C12.7805 17.3533 12.8664 17.6963 12.8662 18.0398C12.866 18.6093 12.866 19.1789 12.866 19.7484C12.8664 20.1132 12.7683 20.4774 12.5853 20.793C12.2197 21.4374 11.4939 21.8555 10.7523 21.8427C8.4353 21.8425 6.11852 21.8427 3.80152 21.8425C3.44029 21.8432 3.07882 21.7496 2.76482 21.5705C2.1105 21.2075 1.68493 20.474 1.6991 19.7254C1.69955 19.1559 1.69865 18.5864 1.69955 18.0169C1.70338 17.5753 1.85273 17.1369 2.1186 16.7845C2.45059 16.3382 2.96613 16.0337 3.51811 15.9624ZM3.7174 17.1473C3.39575 17.1729 3.09929 17.388 2.97333 17.6849C2.92092 17.8032 2.89753 17.933 2.89865 18.0623C2.89955 18.6318 2.89731 19.2014 2.89978 19.7706C2.90495 20.1337 3.15597 20.4747 3.49877 20.5916C3.68186 20.6611 3.88002 20.6398 4.07121 20.6429C6.30567 20.6427 8.54012 20.6434 10.7746 20.6425C11.0296 20.6425 11.2809 20.5255 11.4469 20.3323C11.5866 20.1721 11.6664 19.9614 11.6664 19.7488C11.6664 19.1791 11.6664 18.6093 11.6664 18.0396C11.6675 17.7998 11.5656 17.5625 11.3925 17.3967C11.2238 17.2314 10.9878 17.139 10.7519 17.1432C9.49967 17.1435 8.24748 17.1432 6.9953 17.1435C5.90282 17.1459 4.80988 17.1383 3.7174 17.1473Z" fill="#4B4B4B"/>
</svg>
