<svg width="24" height="24" viewBox="0 0 24 24" fill="none" xmlns="http://www.w3.org/2000/svg">
<path d="M11.8533 8.55091C12.1738 8.49085 12.5247 8.64605 12.6914 8.92721C12.7427 9.01111 12.7636 9.10851 12.8012 9.19848C13.0771 9.87484 13.4274 10.5294 13.9078 11.0838C14.3077 11.5479 14.81 11.9298 15.3829 12.1529C15.6825 12.3183 16.0125 12.4217 16.3069 12.5972C16.4819 12.7018 16.6461 12.8435 16.726 13.0358C16.8279 13.281 16.7993 13.5857 16.6236 13.7904C16.4468 13.998 16.1888 14.1069 15.9443 14.2119C15.7504 14.2898 15.5601 14.3761 15.378 14.4785C14.7407 14.7387 14.1941 15.1895 13.7711 15.7282C13.3203 16.3022 12.9854 16.9615 12.74 17.6468C12.589 17.9566 12.2276 18.1361 11.8895 18.1003C11.7026 18.0821 11.5206 17.9845 11.4158 17.8268C10.995 17.1216 10.7525 16.3103 10.2181 15.6744C10.1047 15.5329 9.96457 15.4176 9.84198 15.2849C9.62785 15.0658 9.37593 14.887 9.11164 14.7338C8.59385 14.4337 8.02972 14.2245 7.50969 13.9292C7.1579 13.6811 7.12326 13.1172 7.40442 12.8032C7.48697 12.7054 7.60866 12.659 7.71977 12.6023C8.37274 12.2679 9.07385 12.0052 9.64899 11.5382C9.80667 11.4127 9.94613 11.2667 10.0788 11.1156C10.2669 10.939 10.4228 10.7307 10.5519 10.508C10.8904 9.92995 11.0766 9.26393 11.5071 8.74075C11.5915 8.63436 11.7235 8.57812 11.8533 8.55091ZM10.086 13.3356C10.8292 13.8545 11.4833 14.4992 12.0164 15.2322C12.5463 14.498 13.1867 13.8428 13.9152 13.3048C13.1748 12.7827 12.5225 12.1358 11.9939 11.3999C11.4741 12.1473 10.8252 12.8041 10.086 13.3356Z" fill="#4B4B4B"/>
<path opacity="0.5" d="M16.1065 5.90365C16.3222 5.86323 16.5583 5.96768 16.6705 6.15688C16.705 6.21334 16.7191 6.27889 16.7443 6.33943C16.9301 6.79459 17.1657 7.23507 17.4891 7.60819C17.7582 7.92046 18.0962 8.17748 18.4817 8.32764C18.6833 8.43889 18.9054 8.50852 19.1035 8.62659C19.2213 8.69697 19.3318 8.79233 19.3855 8.92175C19.4541 9.08674 19.4349 9.29185 19.3167 9.42959C19.1977 9.5693 19.0241 9.64256 18.8595 9.71325C18.7291 9.76562 18.601 9.82375 18.4784 9.89262C18.0496 10.0678 17.6818 10.3711 17.397 10.7336C17.0937 11.1199 16.8683 11.5636 16.7032 12.0248C16.6016 12.2332 16.3584 12.354 16.1308 12.3299C16.0051 12.3177 15.8826 12.252 15.8121 12.1459C15.5289 11.6713 15.3657 11.1254 15.006 10.6974C14.9297 10.6022 14.8354 10.5246 14.753 10.4353C14.6089 10.2878 14.4393 10.1675 14.2615 10.0644C13.913 9.8625 13.5334 9.72173 13.1834 9.52298C12.9467 9.35602 12.9234 8.97655 13.1126 8.76524C13.1681 8.6994 13.25 8.66821 13.3248 8.63007C13.7642 8.40499 14.236 8.22819 14.6231 7.91395C14.7292 7.82949 14.823 7.73125 14.9123 7.62953C15.0389 7.51071 15.1438 7.37054 15.2307 7.22069C15.4585 6.83168 15.5838 6.38348 15.8735 6.0314C15.9303 5.9598 16.0191 5.92196 16.1065 5.90365ZM14.9172 9.12353C15.4173 9.47273 15.8575 9.90655 16.2162 10.3999C16.5728 9.90579 17.0038 9.46486 17.4941 9.10279C16.9958 8.75147 16.5568 8.31613 16.2011 7.82086C15.8513 8.32385 15.4146 8.76585 14.9172 9.12353Z" fill="#4B4B4B"/>
<path opacity="0.5" d="M7.69437 5.90365C7.91007 5.86323 8.1462 5.96768 8.25836 6.15688C8.29287 6.21334 8.30695 6.27889 8.33223 6.33943C8.51796 6.79459 8.75363 7.23507 9.07695 7.60819C9.34608 7.92046 9.68409 8.17748 10.0696 8.32764C10.2712 8.43889 10.4933 8.50852 10.6914 8.62659C10.8092 8.69697 10.9197 8.79233 10.9734 8.92175C11.042 9.08674 11.0228 9.29185 10.9046 9.42959C10.7856 9.5693 10.612 9.64256 10.4474 9.71325C10.317 9.76562 10.1889 9.82375 10.0663 9.89262C9.63747 10.0678 9.26964 10.3711 8.98492 10.7336C8.68158 11.1199 8.4562 11.5636 8.29106 12.0248C8.18949 12.2332 7.94624 12.354 7.71874 12.3299C7.59295 12.3177 7.4705 12.252 7.39996 12.1459C7.11675 11.6713 6.95358 11.1254 6.59393 10.6974C6.51764 10.6022 6.42334 10.5246 6.34084 10.4353C6.19674 10.2878 6.02721 10.1675 5.84936 10.0644C5.50091 9.8625 5.12128 9.72173 4.77132 9.52298C4.53458 9.35602 4.51127 8.97655 4.70048 8.76524C4.75603 8.6994 4.83792 8.66821 4.9127 8.63007C5.35211 8.40499 5.82393 8.22819 6.21097 7.91395C6.31708 7.82949 6.41093 7.73125 6.50023 7.62953C6.62678 7.51071 6.73167 7.37054 6.81856 7.22069C7.04637 6.83168 7.1717 6.38348 7.46141 6.0314C7.51818 5.9598 7.60703 5.92196 7.69437 5.90365ZM6.50508 9.12353C7.00519 9.47273 7.44537 9.90655 7.80411 10.3999C8.16073 9.90579 8.59167 9.46486 9.08195 9.10279C8.58365 8.75147 8.14468 8.31613 7.78897 7.82086C7.43916 8.32385 7.00247 8.76585 6.50508 9.12353Z" fill="#4B4B4B"/>
</svg>
