<svg width="24" height="24" viewBox="0 0 24 24" fill="none" xmlns="http://www.w3.org/2000/svg">
<path d="M3.60112 0.496907C3.76847 0.32911 4.01814 0.249709 4.25162 0.290197C4.51883 0.331584 4.75253 0.530647 4.83801 0.786841C4.9291 1.04461 4.8632 1.34939 4.67291 1.54575C4.42931 1.79137 4.18414 2.03497 3.93964 2.27947C4.84093 2.28082 5.74245 2.27677 6.64397 2.28172C7.11407 2.29117 7.61004 2.30714 8.03156 2.54061C8.39415 2.73788 8.65866 3.09304 8.76461 3.48982C8.89709 3.97949 8.87077 4.4921 8.87752 4.99437C8.88719 5.222 8.78935 5.45166 8.61458 5.59853C8.40269 5.78455 8.08284 5.83089 7.8262 5.7155C7.56933 5.60528 7.38646 5.34144 7.37881 5.06163C7.37499 4.76854 7.38196 4.47524 7.36284 4.18283C7.3543 4.07036 7.34395 3.95632 7.30594 3.84926C7.07516 3.77863 6.82999 3.78897 6.59133 3.78088C5.70759 3.77683 4.82384 3.7802 3.94009 3.77908C4.18616 4.02628 4.43448 4.27145 4.67943 4.52C4.92595 4.77597 4.94485 5.21053 4.72194 5.48719C4.53075 5.74181 4.16974 5.84663 3.87193 5.73327C3.76937 5.69638 3.67602 5.63587 3.59864 5.55917C2.93443 4.8954 2.27043 4.23119 1.60622 3.56719C1.48071 3.44416 1.39906 3.27703 1.38309 3.10159C1.36014 2.88183 1.44179 2.65533 1.59834 2.49968C2.26571 1.83186 2.9333 1.16404 3.60112 0.496907Z" fill="#4B4B4B"/>
<path d="M9.85056 2.29343C9.943 2.25519 10.0438 2.23989 10.1436 2.24079C11.3434 2.23787 12.5432 2.23854 13.743 2.24012C14.3282 2.24349 14.9144 2.24777 15.4979 2.29725C15.9603 2.33774 16.425 2.40949 16.8607 2.57571C17.4251 2.7849 17.9179 3.1864 18.2233 3.70666C18.4433 4.07554 18.5677 4.49369 18.6406 4.91476C18.7258 5.41298 18.7488 5.91907 18.7627 6.42359C18.7749 6.93103 18.774 7.43869 18.7742 7.94636C18.7735 8.56582 18.7753 9.18505 18.7733 9.8045C18.7656 10.1629 18.4654 10.4838 18.1089 10.5169C17.7928 10.5581 17.4667 10.3707 17.34 10.079C17.2953 9.98017 17.2737 9.87153 17.2746 9.76334C17.2746 9.14051 17.2746 8.51768 17.2746 7.89485C17.2735 7.27967 17.2771 6.66426 17.2492 6.04953C17.2233 5.59809 17.1956 5.13766 17.0445 4.7076C16.9462 4.42396 16.7431 4.17474 16.4718 4.04136C16.1475 3.88008 15.7815 3.83352 15.4254 3.79596C14.8658 3.74512 14.3033 3.74377 13.7418 3.73972C12.5351 3.73725 11.3283 3.73837 10.1218 3.7395C9.76306 3.73118 9.43714 3.43742 9.39598 3.08023C9.34627 2.75453 9.54285 2.41219 9.85056 2.29343Z" fill="#4B4B4B"/>
<path d="M5.32096 6.4291C5.41251 6.14838 5.68895 5.9437 5.98361 5.93515C6.22585 5.92165 6.46833 6.03659 6.61588 6.22801C6.7216 6.36162 6.78166 6.53076 6.78346 6.70126C6.77333 7.72132 6.77963 8.7416 6.77806 9.76188C6.78121 9.95959 6.70248 10.1569 6.5628 10.297C6.35924 10.5109 6.02387 10.5806 5.7508 10.4689C5.47549 10.362 5.27868 10.0806 5.27868 9.78437C5.278 9.17594 5.27868 8.56728 5.27845 7.95884C5.278 7.53305 5.27845 7.10726 5.28407 6.68147C5.28452 6.59599 5.29465 6.51052 5.32096 6.4291Z" fill="#4B4B4B"/>
<path opacity="0.5" d="M9.95154 6.24515C10.2775 6.22873 10.6047 6.24245 10.9313 6.23795C11.9581 6.23773 12.9849 6.2384 14.012 6.23773C14.1382 6.23368 14.2664 6.25572 14.3804 6.31173C14.6449 6.43566 14.8204 6.72492 14.8048 7.01733C14.7988 7.39746 14.4623 7.73328 14.0817 7.73688C12.7843 7.73868 11.4869 7.73711 10.1895 7.73756C10.0847 7.73756 9.97785 7.74273 9.87574 7.71574C9.64428 7.65951 9.44612 7.48586 9.35952 7.26408C9.25223 7.00091 9.31274 6.67994 9.51 6.4748C9.62539 6.35109 9.78374 6.26832 9.95154 6.24515Z" fill="#4B4B4B"/>
<path opacity="0.5" d="M9.20867 9.25619C9.2937 9.2355 9.38164 9.2364 9.46847 9.23707C11.2306 9.23775 12.9927 9.23662 14.7548 9.23775C15.1486 9.23707 15.4955 9.59426 15.4851 9.98767C15.4948 10.3809 15.1482 10.7369 14.7545 10.7363C13.0606 10.7374 11.3664 10.7365 9.67225 10.7367C9.5247 10.7322 9.37535 10.7486 9.22914 10.7223C9.00061 10.6776 8.7984 10.519 8.69966 10.3082C8.60114 10.1031 8.60384 9.85293 8.7073 9.65005C8.8056 9.45346 8.99386 9.30433 9.20867 9.25619Z" fill="#4B4B4B"/>
<path opacity="0.5" d="M3.53634 6.99916C4.08651 6.69371 4.70237 6.52591 5.32093 6.42874C5.29461 6.51017 5.28449 6.59564 5.28404 6.68111C5.27842 7.1069 5.27797 7.5327 5.27842 7.95849C4.91111 8.03654 4.5456 8.14541 4.21967 8.3357C3.8906 8.52644 3.61146 8.80265 3.4178 9.13015C3.23268 9.44168 3.12157 9.79077 3.04464 10.1432C2.92115 10.7197 2.87752 11.3095 2.8485 11.8972C2.80172 12.9767 2.81139 14.0572 2.80869 15.1373C2.81206 16.1873 2.80329 17.2382 2.85952 18.2872C2.88696 18.7596 2.92858 19.2322 3.01765 19.6973C3.09098 20.0707 3.19647 20.4423 3.38136 20.7768C3.57795 21.1342 3.87373 21.4363 4.22755 21.6391C4.56022 21.8315 4.93315 21.9412 5.30766 22.017C6.10031 22.1704 6.91028 22.1972 7.71531 22.2179C9.05701 22.2424 10.3992 22.2298 11.7411 22.2332C13.0158 22.2318 14.2902 22.2363 15.5649 22.2294C16.1558 22.2244 16.7469 22.2159 17.3371 22.1837C17.8045 22.1569 18.2724 22.1169 18.733 22.031C19.1159 21.9581 19.4978 21.8526 19.8413 21.6639C20.1901 21.4734 20.4868 21.1884 20.6906 20.8472C20.8802 20.5302 20.9929 20.174 21.0707 19.8147C21.1699 19.3491 21.2154 18.8741 21.2462 18.3997C21.3065 17.3882 21.2997 16.3742 21.3038 15.3614C21.3035 14.6418 21.3042 13.9223 21.2972 13.2027C21.2889 12.5308 21.2754 11.8585 21.2176 11.1889C21.1794 10.7649 21.1249 10.3405 21.0161 9.92797C20.9313 9.6088 20.8112 9.29525 20.6251 9.02061C20.4274 8.72662 20.1589 8.48145 19.8487 8.31073C19.516 8.12516 19.1453 8.02214 18.7742 7.94612C18.774 7.43845 18.7749 6.93078 18.7627 6.42334C19.5297 6.54211 20.2992 6.76996 20.9364 7.22612C21.4866 7.61615 21.9241 8.15868 22.197 8.77476C22.531 9.52332 22.6518 10.345 22.7195 11.1558C22.8058 12.2632 22.7986 13.3748 22.8031 14.4846C22.8 15.6841 22.8139 16.8844 22.7642 18.083C22.7186 19.021 22.6443 19.9738 22.3294 20.8656C22.0937 21.5404 21.6794 22.1556 21.1204 22.6043C20.5435 23.0764 19.8271 23.3434 19.1024 23.4867C18.1979 23.6644 17.2732 23.6968 16.3542 23.7186C15.1693 23.7402 13.9839 23.7303 12.7989 23.7326C11.4491 23.7317 10.0996 23.735 8.74976 23.7303C7.93101 23.7249 7.11159 23.7161 6.29487 23.6543C5.57375 23.5974 4.84745 23.5002 4.16367 23.2544C3.53589 23.0324 2.95939 22.6574 2.52325 22.1518C2.0653 21.6319 1.77896 20.9821 1.61814 20.3132C1.41233 19.4587 1.36419 18.5767 1.33405 17.7013C1.29941 16.4721 1.31156 15.2421 1.31021 14.0125C1.31673 12.9258 1.31628 11.8363 1.43122 10.7543C1.52029 9.95901 1.68449 9.15264 2.08014 8.44794C2.41799 7.84197 2.9288 7.33408 3.53634 6.99916Z" fill="#4B4B4B"/>
<path opacity="0.5" d="M4.5281 10.3756C4.7438 10.3337 4.97638 10.3922 5.14485 10.5337C6.01196 11.2559 6.87884 11.9786 7.74594 12.7011C8.33143 13.1881 8.91423 13.6787 9.51434 14.1476C9.8767 14.4284 10.2454 14.7028 10.639 14.9385C10.9539 15.1254 11.2886 15.2898 11.6496 15.3638C12.0007 15.4367 12.3696 15.4108 12.7097 15.2988C13.1296 15.1616 13.5093 14.9281 13.873 14.6816C14.4583 14.2783 15.0071 13.8253 15.556 13.3748C16.6995 12.4265 17.8388 11.4728 18.981 10.5231C19.2587 10.2941 19.7007 10.3142 19.9576 10.5661C20.2068 10.7915 20.2669 11.1903 20.098 11.4802C20.0165 11.6345 19.8674 11.7317 19.739 11.8428C18.5599 12.8228 17.386 13.8093 16.2026 14.7844C15.6372 15.2439 15.0672 15.701 14.4536 16.0955C13.9074 16.4446 13.3121 16.7391 12.6683 16.8511C12.1168 16.9487 11.5428 16.9111 11.0074 16.7463C10.3504 16.5461 9.75884 16.1812 9.20236 15.7863C8.55164 15.32 7.93578 14.8076 7.31947 14.2974C6.2722 13.4249 5.22515 12.5524 4.17811 11.6795C3.92933 11.4721 3.84701 11.0956 3.98512 10.8029C4.08296 10.5836 4.2917 10.4185 4.5281 10.3756Z" fill="#4B4B4B"/>
</svg>
