<svg width="24" height="24" viewBox="0 0 24 24" fill="none" xmlns="http://www.w3.org/2000/svg">
<path d="M3.60113 0.496659C3.76848 0.328862 4.01815 0.249462 4.25162 0.289949C4.51884 0.331336 4.75254 0.530399 4.83802 0.786594C4.92911 1.04436 4.86321 1.34914 4.67292 1.54551C4.42932 1.79113 4.18415 2.03473 3.93965 2.27923C4.84094 2.28058 5.74246 2.27653 6.64398 2.28148C7.11408 2.29092 7.61005 2.30689 8.03157 2.54037C8.39416 2.73763 8.65867 3.0928 8.76461 3.48957C8.8971 3.97925 8.87078 4.49186 8.87753 4.99413C8.8872 5.22176 8.78936 5.45141 8.61459 5.59829C8.4027 5.78431 8.08285 5.83064 7.82621 5.71525C7.56934 5.60504 7.38647 5.3412 7.37882 5.06138C7.375 4.7683 7.38197 4.47499 7.36285 4.18258C7.35431 4.07012 7.34396 3.95608 7.30595 3.84901C7.07517 3.77838 6.82999 3.78873 6.59134 3.78063C5.70759 3.77658 4.82385 3.77996 3.9401 3.77883C4.18617 4.02603 4.43449 4.2712 4.67944 4.51975C4.92596 4.77572 4.94486 5.21029 4.72195 5.48695C4.53076 5.74157 4.16975 5.84639 3.87194 5.73302C3.76938 5.69613 3.67603 5.63563 3.59865 5.55893C2.93444 4.89516 2.27044 4.23094 1.60623 3.56695C1.48072 3.44391 1.39907 3.27679 1.3831 3.10135C1.36015 2.88159 1.4418 2.65508 1.59835 2.49943C2.26572 1.83162 2.93331 1.1638 3.60113 0.496659Z" fill="#4B4B4B"/>
<path d="M9.85057 2.29339C9.94302 2.25515 10.0438 2.23986 10.1437 2.24076C11.3434 2.23783 12.5432 2.23851 13.743 2.24008C14.3282 2.24345 14.9144 2.24773 15.4979 2.29721C15.9603 2.3377 16.425 2.40945 16.8607 2.57568C17.4251 2.78486 17.9179 3.18636 18.2234 3.70662C18.4433 4.07551 18.5677 4.49365 18.6406 4.91472C18.7258 5.41294 18.7488 5.91903 18.7627 6.42355C18.7749 6.93099 18.774 7.43866 18.7742 7.94632C18.7735 8.56578 18.7753 9.18501 18.7733 9.80447C18.7657 10.1628 18.4654 10.4838 18.1089 10.5168C17.7928 10.558 17.4667 10.3706 17.3401 10.0789C17.2953 9.98014 17.2737 9.8715 17.2746 9.76331C17.2746 9.14047 17.2746 8.51764 17.2746 7.89481C17.2735 7.27963 17.2771 6.66422 17.2492 6.04949C17.2233 5.59806 17.1957 5.13763 17.0445 4.70756C16.9462 4.42392 16.7431 4.1747 16.4718 4.04132C16.1475 3.88004 15.7815 3.83348 15.4255 3.79592C14.8658 3.74509 14.3033 3.74374 13.7419 3.73969C12.5351 3.73721 11.3284 3.73834 10.1218 3.73946C9.76307 3.73114 9.43715 3.43738 9.39599 3.08019C9.34628 2.7545 9.54287 2.41215 9.85057 2.29339Z" fill="#4B4B4B"/>
<path d="M5.32094 6.42894C5.41249 6.14823 5.68892 5.94354 5.98358 5.935C6.22583 5.9215 6.46831 6.03644 6.61586 6.22786C6.72158 6.36146 6.78163 6.53061 6.78343 6.70111C6.77331 7.72116 6.77961 8.74144 6.77803 9.76173C6.78118 9.95944 6.70246 10.1567 6.56278 10.2968C6.35922 10.5107 6.02385 10.5805 5.75078 10.4687C5.47547 10.3618 5.27865 10.0805 5.27865 9.78422C5.27798 9.17578 5.27865 8.56712 5.27843 7.95869C5.27798 7.5329 5.27843 7.10711 5.28405 6.68131C5.2845 6.59584 5.29462 6.51037 5.32094 6.42894Z" fill="#4B4B4B"/>
<path opacity="0.5" d="M9.95156 6.24519C10.2775 6.22877 10.6048 6.24249 10.9314 6.23799C11.9582 6.23777 12.985 6.23844 14.012 6.23777C14.1382 6.23372 14.2664 6.25576 14.3804 6.31177C14.6449 6.43571 14.8204 6.72497 14.8049 7.01737C14.7988 7.39751 14.4623 7.73333 14.0817 7.73692C12.7843 7.73872 11.4869 7.73715 10.1895 7.7376C10.0847 7.7376 9.97788 7.74277 9.87576 7.71578C9.64431 7.65955 9.44615 7.4859 9.35955 7.26412C9.25226 7.00095 9.31276 6.67998 9.51003 6.47484C9.62541 6.35113 9.78376 6.26836 9.95156 6.24519Z" fill="#4B4B4B"/>
<path opacity="0.5" d="M9.20862 9.25611C9.29364 9.23542 9.38159 9.23632 9.46841 9.237C11.2305 9.23767 12.9926 9.23655 14.7547 9.23767C15.1486 9.237 15.4954 9.59418 15.4851 9.98759C15.4947 10.3808 15.1481 10.7368 14.7545 10.7362C13.0605 10.7373 11.3664 10.7364 9.6722 10.7366C9.52464 10.7321 9.37529 10.7485 9.22909 10.7222C9.00056 10.6774 8.79835 10.5189 8.6996 10.3081C8.60108 10.103 8.60378 9.85285 8.70725 9.64997C8.80554 9.45338 8.99381 9.30425 9.20862 9.25611Z" fill="#4B4B4B"/>
<path opacity="0.5" d="M3.53635 6.99937C4.08653 6.69391 4.70238 6.52611 5.32094 6.42894C5.29462 6.51037 5.2845 6.59584 5.28405 6.68132C5.27843 7.10711 5.27798 7.5329 5.27843 7.95869C4.91112 8.03674 4.54561 8.14561 4.21969 8.3359C3.89061 8.52664 3.61147 8.80285 3.41781 9.13035C3.23269 9.44188 3.12158 9.79097 3.04465 10.1434C2.92117 10.7199 2.87753 11.3097 2.84851 11.8974C2.80173 12.9769 2.8114 14.0574 2.8087 15.1375C2.81208 16.1875 2.8033 17.2384 2.85954 18.2875C2.88698 18.7598 2.92859 19.2324 3.01766 19.6975C3.09099 20.0709 3.19648 20.4425 3.38137 20.777C3.57796 21.1344 3.87374 21.4365 4.22756 21.6394C4.56023 21.8317 4.93316 21.9414 5.30767 22.0172C6.10032 22.1707 6.9103 22.1974 7.71532 22.2181C9.05702 22.2426 10.3992 22.23 11.7411 22.2334C13.0158 22.2321 14.2902 22.2366 15.5649 22.2296C16.1558 22.2246 16.7469 22.2161 17.3371 22.1839C17.8045 22.1572 18.2724 22.1171 18.733 22.0312C19.1159 21.9583 19.4978 21.8528 19.8413 21.6641C20.1901 21.4736 20.4868 21.1886 20.6906 20.8474C20.8802 20.5305 20.9929 20.1742 21.0707 19.815C21.1699 19.3494 21.2154 18.8743 21.2462 18.3999C21.3065 17.3884 21.2997 16.3744 21.3038 15.3616C21.3035 14.642 21.3042 13.9225 21.2972 13.2029C21.2889 12.5311 21.2754 11.8587 21.2176 11.1891C21.1794 10.7651 21.125 10.3407 21.0161 9.92818C20.9313 9.609 20.8112 9.29545 20.6252 9.02081C20.4274 8.72683 20.1589 8.48165 19.8487 8.31093C19.516 8.12536 19.1453 8.02235 18.7742 7.94632C18.774 7.43865 18.7749 6.93099 18.7627 6.42355C19.5298 6.54231 20.2992 6.77016 20.9365 7.22632C21.4866 7.61635 21.9241 8.15888 22.197 8.77496C22.531 9.52353 22.6518 10.3452 22.7195 11.1561C22.8059 12.2634 22.7987 13.375 22.8032 14.4848C22.8 15.6844 22.814 16.8846 22.7642 18.0832C22.7186 19.0212 22.6444 19.974 22.3295 20.8658C22.0937 21.5406 21.6794 22.1558 21.1205 22.6045C20.5435 23.0767 19.8271 23.3437 19.1024 23.4869C18.1979 23.6646 17.2733 23.697 16.3542 23.7188C15.1693 23.7404 13.9839 23.7305 12.799 23.7328C11.4492 23.7319 10.0996 23.7353 8.74977 23.7305C7.93103 23.7251 7.11161 23.7164 6.29489 23.6545C5.57376 23.5976 4.84746 23.5004 4.16368 23.2546C3.5359 23.0326 2.9594 22.6576 2.52327 22.152C2.06531 21.6322 1.77897 20.9823 1.61815 20.3134C1.41234 19.4589 1.3642 18.5769 1.33406 17.7015C1.29942 16.4723 1.31157 15.2424 1.31022 14.0127C1.31674 12.926 1.31629 11.8365 1.43123 10.7546C1.5203 9.95922 1.6845 9.15284 2.08015 8.44814C2.418 7.84218 2.92881 7.33429 3.53635 6.99937Z" fill="#4B4B4B"/>
<path opacity="0.5" d="M4.52806 10.3753C4.74377 10.3335 4.97635 10.392 5.14482 10.5335C6.01192 11.2557 6.8788 11.9784 7.74591 12.7009C8.3314 13.1879 8.91419 13.6784 9.5143 14.1474C9.87667 14.4281 10.2453 14.7025 10.639 14.9383C10.9539 15.1252 11.2885 15.2896 11.6496 15.3636C12.0007 15.4365 12.3696 15.4106 12.7097 15.2986C13.1296 15.1614 13.5093 14.9279 13.873 14.6814C14.4583 14.2781 15.0071 13.8251 15.5559 13.3746C16.6995 12.4263 17.8387 11.4726 18.9809 10.5229C19.2587 10.2939 19.7007 10.3139 19.9576 10.5659C20.2068 10.7912 20.2668 11.19 20.0979 11.48C20.0165 11.6343 19.8674 11.7314 19.7389 11.8426C18.5599 12.8226 17.3859 13.8091 16.2026 14.7842C15.6371 15.2437 15.0671 15.7008 14.4535 16.0953C13.9074 16.4444 13.312 16.7388 12.6683 16.8508C12.1167 16.9485 11.5427 16.9109 11.0074 16.746C10.3504 16.5458 9.7588 16.181 9.20233 15.786C8.55161 15.3198 7.93575 14.8074 7.31944 14.2972C6.27217 13.4247 5.22512 12.5522 4.17807 11.6793C3.9293 11.4719 3.84698 11.0953 3.98508 10.8027C4.08293 10.5834 4.29166 10.4183 4.52806 10.3753Z" fill="#4B4B4B"/>
</svg>
