<svg width="24" height="24" viewBox="0 0 24 24" fill="none" xmlns="http://www.w3.org/2000/svg">
<g opacity="0.5">
<path d="M6.80125 2.49527C7.14685 2.24837 7.55305 2.07617 7.97575 2.02757C9.75625 2.02547 11.5365 2.02787 13.3167 2.02637C13.3593 2.02787 13.4286 2.02157 13.4397 2.07767C13.4376 2.84027 13.4757 3.60257 13.4853 4.36517C13.5045 4.82387 13.5015 5.28317 13.5237 5.74157C14.7447 5.74937 15.9657 5.74277 17.1867 5.74487C17.3754 5.74037 17.5659 5.76107 17.7525 5.72567C17.7555 5.72537 17.7615 5.72417 17.7648 5.72387C17.7924 5.76677 17.8443 5.80277 17.8347 5.86067C17.8335 6.25127 17.8341 6.64187 17.8341 7.03277C16.4394 6.95687 15.0417 6.97997 13.6455 6.97517C12.4758 6.97517 11.3064 6.97517 10.137 6.97517C8.75185 6.97997 7.36525 6.95657 5.98225 7.04447C5.98195 6.19097 5.98225 5.33777 5.98225 4.48427C5.98495 4.20467 5.96515 3.92147 6.03085 3.64697C6.12895 3.18257 6.41695 2.76947 6.80125 2.49527Z" fill="#4B4B4B"/>
<path d="M6.073 15.7262C6.1174 15.7217 6.1621 15.7175 6.2068 15.7166C9.6268 15.7163 13.0468 15.7163 16.4668 15.7163C16.9237 15.7226 17.3812 15.7037 17.8375 15.7262C17.8294 16.8626 17.8357 17.9996 17.8342 19.1363C17.8345 19.5362 17.8345 19.9361 17.8342 20.336C17.8234 20.5004 17.866 20.6759 17.7898 20.8301C17.6398 21.2174 17.3353 21.5348 16.9666 21.7214C16.6465 21.8858 16.2874 21.9728 15.9277 21.9734C13.477 21.9734 11.0266 21.9734 8.5759 21.9734C8.1757 21.9686 7.7653 22.0028 7.3771 21.8822C6.9694 21.767 6.6091 21.4961 6.388 21.1346C6.2362 20.8928 6.1399 20.6177 6.0961 20.336C6.0511 19.9382 6.0844 19.5362 6.0739 19.1366C6.0742 17.9999 6.0757 16.8629 6.073 15.7262ZM9.5515 17.0105C9.382 17.0357 9.259 17.2184 9.3007 17.3852C9.3295 17.5331 9.4759 17.6411 9.6256 17.6327C11.2054 17.633 12.7855 17.6324 14.3656 17.633C14.5186 17.6447 14.6707 17.5364 14.6992 17.3837C14.7454 17.2004 14.5903 17.0024 14.401 17.0054C13.1902 17.003 11.9791 17.0051 10.7683 17.0045C10.3627 17.0087 9.9565 16.9964 9.5515 17.0105ZM9.5161 18.866C9.3619 18.9098 9.2608 19.0832 9.3022 19.2389C9.3337 19.3844 9.4792 19.4909 9.6271 19.4798C11.2177 19.4789 12.808 19.4807 14.3983 19.4789C14.5681 19.4822 14.7172 19.3235 14.7061 19.1546C14.7031 18.9944 14.5603 18.8495 14.3983 18.854C12.8074 18.8522 11.2162 18.8543 9.6253 18.8531C9.5884 18.8525 9.5518 18.857 9.5161 18.866Z" fill="#4B4B4B"/>
</g>
<path d="M5.98266 7.04489C7.36566 6.95699 8.75226 6.98039 10.1374 6.97559C11.3068 6.97559 12.4762 6.97559 13.6459 6.97559C15.0421 6.98039 16.4398 6.95729 17.8345 7.03319C18.394 7.06709 18.9544 7.11989 19.5037 7.23719C19.9897 7.34249 20.4709 7.50239 20.8927 7.77059C21.3718 8.07209 21.7657 8.50649 22.0207 9.01169C22.2625 9.48419 22.393 10.0047 22.4779 10.5264C22.5886 11.2266 22.6234 11.9358 22.6447 12.6435C22.6687 13.5231 22.6666 14.4033 22.6663 15.2832C22.6651 15.9744 22.6732 16.6659 22.645 17.3565C22.6174 17.9031 22.5817 18.462 22.3846 18.9783C22.2295 19.3923 21.9226 19.7496 21.5284 19.9533C21.0979 20.1786 20.6074 20.2458 20.1292 20.2872C19.3657 20.3451 18.5995 20.3325 17.8345 20.3361C17.8348 19.9362 17.8348 19.5363 17.8345 19.1364C18.4798 19.1328 19.1254 19.1412 19.7698 19.1088C20.0797 19.0908 20.3917 19.0674 20.6938 18.9927C20.8723 18.948 21.0577 18.8757 21.1696 18.7215C21.2986 18.5427 21.3385 18.3186 21.3757 18.1059C21.4684 17.4702 21.4588 16.8258 21.4666 16.185C21.4627 14.8653 21.4813 13.5447 21.4294 12.2253C21.3976 11.5563 21.3529 10.8825 21.1945 10.2297C21.0847 9.77999 20.8927 9.33269 20.5468 9.01349C20.1736 8.65709 19.6663 8.49269 19.1707 8.39369C18.4288 8.24969 17.671 8.21909 16.9174 8.19599C15.5272 8.16389 14.1367 8.17889 12.7462 8.17529C11.7463 8.17529 10.7464 8.17529 9.74646 8.17529C8.56746 8.17859 7.38726 8.16599 6.20976 8.23229C5.55546 8.27639 4.89306 8.33399 4.26726 8.54189C3.86586 8.67449 3.49296 8.91179 3.23826 9.25349C2.98506 9.58769 2.85366 9.99509 2.76636 10.4007C2.64936 10.9605 2.60586 11.5329 2.57676 12.1032C2.53296 13.0629 2.53476 14.0241 2.53446 14.9847C2.53536 15.6939 2.52816 16.4034 2.54736 17.1123C2.56236 17.5218 2.57796 17.9352 2.67006 18.3363C2.71746 18.5373 2.79936 18.7527 2.98506 18.8649C3.22536 19.0074 3.51096 19.0383 3.78276 19.0737C4.54386 19.1499 5.31036 19.1289 6.07416 19.1367C6.08466 19.5363 6.05136 19.9383 6.09636 20.3361C5.29206 20.3307 4.48566 20.3484 3.68406 20.2698C3.17046 20.2146 2.63406 20.1105 2.21466 19.7892C1.86366 19.5258 1.63446 19.1274 1.52646 18.7065C1.37016 18.1092 1.35726 17.4867 1.34106 16.8729C1.32816 15.9924 1.33746 15.1119 1.33446 14.2317C1.34196 13.1964 1.34376 12.159 1.44486 11.1279C1.51566 10.4553 1.62906 9.77519 1.91016 9.15509C2.21886 8.46089 2.78406 7.88609 3.47526 7.56989C4.25886 7.20719 5.13096 7.10849 5.98266 7.04489Z" fill="#4B4B4B"/>
<path d="M13.4209 11.8242C13.633 11.7726 13.8661 11.8197 14.0413 11.9502C14.2909 12.132 14.4154 12.4632 14.3548 12.7653C14.2936 13.1256 13.9594 13.4271 13.5877 13.4145C13.21 13.4187 12.8791 13.1007 12.8326 12.7323C12.7642 12.3393 13.0273 11.9139 13.4209 11.8242ZM13.5058 12.2616C13.2172 12.3477 13.1851 12.7962 13.4494 12.9324C13.6429 13.0485 13.897 12.8889 13.9201 12.6759C13.9756 12.4434 13.747 12.1803 13.5058 12.2616Z" fill="#4B4B4B"/>
<path d="M15.8822 11.8219C16.1354 11.7625 16.415 11.8474 16.5923 12.0379C16.8416 12.2896 16.892 12.7069 16.7159 13.0132C16.5632 13.3018 16.2149 13.4722 15.8939 13.3987C15.5453 13.3303 15.2846 12.9961 15.2759 12.6454C15.2525 12.2746 15.5141 11.9005 15.8822 11.8219ZM15.9389 12.2683C15.6533 12.3721 15.647 12.832 15.9281 12.9454C16.1435 13.0462 16.3883 12.8386 16.3766 12.6148C16.3949 12.3916 16.1576 12.1765 15.9389 12.2683Z" fill="#4B4B4B"/>
<path d="M18.2216 11.8211C18.434 11.7731 18.6659 11.8232 18.8384 11.9564C19.0904 12.1445 19.2089 12.4865 19.1378 12.7916C19.0697 13.115 18.7856 13.3883 18.4511 13.4111C18.1319 13.4459 17.8139 13.2467 17.6873 12.9551C17.5382 12.6422 17.6153 12.2411 17.8706 12.0065C17.9684 11.915 18.0908 11.8502 18.2216 11.8211ZM18.278 12.2675C17.9888 12.3692 17.9828 12.8354 18.2678 12.9461C18.4844 13.0457 18.7262 12.8351 18.7139 12.6116C18.7289 12.3908 18.4958 12.1772 18.278 12.2675Z" fill="#4B4B4B"/>
<path d="M3.90994 15.1071C3.96994 14.91 4.16824 14.7675 4.37464 14.7753C9.45604 14.7753 14.5374 14.7759 19.6185 14.7753C19.7886 14.7681 19.9572 14.8587 20.0436 15.0054C20.1486 15.1719 20.1336 15.4023 20.0088 15.5544C19.9101 15.6822 19.7454 15.744 19.5867 15.7356C19.0038 15.729 18.42 15.7476 17.8377 15.7263C17.3814 15.7038 16.9239 15.7227 16.467 15.7164C13.047 15.7164 9.62704 15.7164 6.20704 15.7167C6.16234 15.7176 6.11764 15.7218 6.07324 15.7263C5.58904 15.747 5.10304 15.7293 4.61824 15.7353C4.45054 15.7311 4.26574 15.7608 4.11664 15.6642C3.93034 15.5553 3.83974 15.3114 3.90994 15.1071Z" fill="#4B4B4B"/>
<path opacity="0.1" d="M6.2091 8.23226C7.3866 8.16596 8.5668 8.17856 9.7458 8.17526C10.7457 8.17526 11.7456 8.17526 12.7455 8.17526C14.136 8.17886 15.5265 8.16386 16.9167 8.19596C17.6703 8.21906 18.4281 8.24966 19.17 8.39366C19.6656 8.49266 20.1729 8.65706 20.5461 9.01346C20.892 9.33266 21.084 9.77996 21.1938 10.2297C21.3522 10.8825 21.3969 11.5563 21.4287 12.2253C21.4806 13.5447 21.462 14.8653 21.4659 16.185C21.4581 16.8258 21.4677 17.4702 21.375 18.1059C21.3378 18.3186 21.2979 18.5427 21.1689 18.7215C21.057 18.8757 20.8716 18.948 20.6931 18.9927C20.391 19.0674 20.079 19.0908 19.7691 19.1088C19.1247 19.1412 18.4791 19.1328 17.8338 19.1364C17.8353 17.9997 17.829 16.8627 17.8371 15.7263C18.4194 15.7476 19.0032 15.729 19.5861 15.7356C19.7448 15.744 19.9095 15.6822 20.0082 15.5544C20.133 15.4023 20.148 15.1719 20.043 15.0054C19.9566 14.8587 19.788 14.7681 19.6179 14.7753C14.5368 14.7759 9.4554 14.7753 4.374 14.7753C4.1676 14.7675 3.9693 14.91 3.9093 15.1071C3.8391 15.3114 3.9297 15.5553 4.116 15.6642C4.2651 15.7608 4.4499 15.7311 4.6176 15.7353C5.1024 15.7293 5.5884 15.747 6.0726 15.7263C6.0753 16.863 6.0738 18 6.0735 19.1367C5.3097 19.1289 4.5432 19.1499 3.7821 19.0737C3.5103 19.0383 3.2247 19.0074 2.9844 18.8649C2.7987 18.7527 2.7168 18.5373 2.6694 18.3363C2.5773 17.9352 2.5617 17.5218 2.5467 17.1123C2.5275 16.4034 2.5347 15.6939 2.5338 14.9847C2.5341 14.0241 2.5323 13.0629 2.5761 12.1032C2.6052 11.5329 2.6487 10.9605 2.7657 10.4007C2.853 9.99506 2.9844 9.58766 3.2376 9.25346C3.4923 8.91176 3.8652 8.67446 4.2666 8.54186C4.8924 8.33396 5.5548 8.27636 6.2091 8.23226ZM13.4202 11.8239C13.0266 11.9136 12.7635 12.339 12.8319 12.732C12.8784 13.1004 13.2093 13.4184 13.587 13.4142C13.9587 13.4268 14.2929 13.1253 14.3541 12.765C14.4147 12.4629 14.2902 12.1317 14.0406 11.9499C13.8654 11.8194 13.6323 11.7723 13.4202 11.8239ZM15.8814 11.8218C15.5133 11.9004 15.2517 12.2745 15.2751 12.6453C15.2838 12.996 15.5445 13.3302 15.8931 13.3986C16.2141 13.4721 16.5624 13.3017 16.7151 13.0131C16.8912 12.7068 16.8408 12.2895 16.5915 12.0378C16.4142 11.8473 16.1346 11.7624 15.8814 11.8218ZM18.2208 11.8212C18.09 11.8503 17.9676 11.9151 17.8698 12.0066C17.6145 12.2412 17.5374 12.6423 17.6865 12.9552C17.8131 13.2468 18.1311 13.446 18.4503 13.4112C18.7848 13.3884 19.0689 13.1151 19.137 12.7917C19.2081 12.4866 19.0896 12.1446 18.8376 11.9565C18.6651 11.8233 18.4332 11.7732 18.2208 11.8212Z" fill="#4B4B4B"/>
<path d="M13.3984 5.76953V2.02637L17.8142 5.76953H13.3984Z" fill="#4B4B4B"/>
</svg>
