<svg width="24" height="24" viewBox="0 0 24 24" fill="none" xmlns="http://www.w3.org/2000/svg">
<path opacity="0.5" d="M8.02099 1.4778C8.35074 1.27222 8.74639 1.17505 9.13395 1.20451C9.54872 1.23353 9.94999 1.40965 10.2557 1.69148C10.3843 1.81565 10.6059 1.81767 10.7357 1.69351C11.0243 1.42764 11.3974 1.254 11.7879 1.21126C12.2922 1.15165 12.8174 1.31293 13.2014 1.64515C13.261 1.69801 13.323 1.75469 13.4031 1.77381C13.5217 1.80867 13.6544 1.77111 13.7432 1.68631C14.055 1.40043 14.4664 1.22543 14.8892 1.20249C15.2842 1.17887 15.6853 1.28684 16.015 1.50547C16.1927 1.61996 16.3389 1.77381 16.4957 1.91349C16.7017 1.75469 16.9478 1.64312 17.2085 1.61928C17.5861 1.58014 17.9732 1.71375 18.2575 1.96297C18.5601 2.22299 18.7434 2.61595 18.7438 3.01542C18.7438 3.78221 18.745 4.54922 18.7434 5.316C18.2447 5.28159 17.7447 5.27169 17.2449 5.26674C17.244 4.5897 17.2451 3.91267 17.2445 3.2354C16.8421 3.4952 16.304 3.52849 15.8771 3.30828C15.6569 3.20391 15.4907 3.02194 15.3119 2.86202C15.2239 2.77227 15.1119 2.6877 14.9787 2.69962C14.8676 2.70007 14.7761 2.76957 14.6987 2.842C14.3847 3.11237 13.9769 3.27094 13.563 3.28466C13.1046 3.30288 12.6417 3.14228 12.2942 2.8429C12.2301 2.78644 12.1633 2.72571 12.0769 2.70839C11.9561 2.67758 11.8275 2.72189 11.7398 2.80714C11.4222 3.09617 11.0013 3.26847 10.5724 3.28444C10.1284 3.30401 9.67985 3.156 9.33481 2.87619C9.28105 2.83323 9.23269 2.78307 9.17398 2.74663C9.05387 2.67465 8.89035 2.68545 8.78148 2.77385C8.55543 2.96144 8.36266 3.19874 8.08915 3.32155C7.66606 3.52759 7.14242 3.48912 6.74789 3.23518C6.74789 3.91244 6.74789 4.5897 6.74789 5.26674C6.24787 5.27169 5.74763 5.28159 5.24874 5.316C5.24806 4.55619 5.24806 3.7966 5.24874 3.03679C5.24649 2.71964 5.35445 2.40316 5.55217 2.15506C5.79194 1.85028 6.1597 1.6474 6.54748 1.61703C6.84664 1.59162 7.15254 1.67529 7.39951 1.84534C7.43258 1.86895 7.46587 1.89257 7.50141 1.91259C7.66628 1.75851 7.82711 1.59589 8.02099 1.4778Z" fill="#4B4B4B"/>
<path opacity="0.5" d="M5.24806 12.6615C5.74808 12.6615 6.24787 12.6615 6.74789 12.6615C6.74789 15.7035 6.74789 18.7452 6.74789 21.7869C7.14422 21.5301 7.67303 21.4941 8.09724 21.7041C8.36941 21.8283 8.56015 22.0665 8.78733 22.2521C8.92026 22.3573 9.12495 22.3405 9.24461 22.2224C9.53477 21.957 9.9104 21.786 10.302 21.746C10.8166 21.6886 11.3506 21.862 11.7344 22.2096C11.8237 22.298 11.9559 22.3459 12.0801 22.3124C12.1898 22.2892 12.2636 22.199 12.3486 22.1335C12.6959 21.8584 13.1438 21.7145 13.5862 21.7379C14.0109 21.7572 14.4259 21.9295 14.7403 22.2156C14.8262 22.2986 14.9513 22.3425 15.0696 22.3146C15.187 22.2926 15.2673 22.1979 15.3519 22.1223C15.4954 21.9948 15.6286 21.8519 15.7973 21.7563C16.2352 21.4929 16.8164 21.5085 17.2442 21.7865C17.2456 18.7447 17.244 15.7032 17.2449 12.6617C17.7445 12.6615 18.2443 12.6615 18.7438 12.6617C18.7459 14.187 18.7409 15.7125 18.7463 17.2377C18.85 17.2382 18.9535 17.2393 19.0572 17.2384C18.9542 17.2431 18.8511 17.2445 18.7483 17.2487C18.7459 17.7463 18.7504 18.2438 18.7461 18.7411C18.74 19.8492 18.7481 20.9574 18.7423 22.0652C18.724 22.4957 18.4919 22.9075 18.1383 23.152C17.7958 23.3958 17.3383 23.4786 16.9368 23.3452C16.7775 23.2942 16.6295 23.2109 16.4984 23.1077C16.3445 23.2402 16.2048 23.3904 16.0346 23.5029C15.6522 23.7645 15.169 23.8729 14.7118 23.8003C14.3501 23.7452 14.0077 23.5787 13.7387 23.3315C13.6449 23.2431 13.5021 23.2103 13.3804 23.2548C13.2758 23.2897 13.2072 23.3821 13.119 23.4433C12.6775 23.7836 12.0778 23.9058 11.5384 23.7645C11.237 23.6887 10.9579 23.5331 10.7296 23.323C10.6007 23.2047 10.385 23.2074 10.2586 23.3279C10.0184 23.5483 9.72101 23.7071 9.40206 23.7773C8.93826 23.8833 8.43531 23.7991 8.03022 23.5497C7.8298 23.4309 7.66875 23.2609 7.49578 23.1075C7.283 23.2757 7.02253 23.3868 6.75036 23.4053C6.34527 23.4366 5.93522 23.2708 5.65316 22.9811C5.39674 22.7229 5.24873 22.3623 5.24873 21.9984C5.24761 21.3537 5.24873 20.7091 5.24828 20.0644C5.25188 19.6242 5.24109 19.1834 5.25391 18.7436C5.26493 18.2459 5.25571 17.7474 5.25841 17.2494C5.15359 17.2458 5.04877 17.2431 4.94395 17.2384C5.04517 17.2395 5.14639 17.2384 5.24738 17.2346C5.24918 15.7102 5.24806 14.1859 5.24806 12.6615Z" fill="#4B4B4B"/>
<path opacity="0.5" d="M8.44229 14.9018C8.73897 14.8845 9.03723 14.8987 9.33459 14.8942C11.3662 14.8939 13.3977 14.8942 15.4293 14.8939C15.6405 14.8897 15.851 14.9796 15.9936 15.1357C16.1938 15.3481 16.2489 15.6808 16.1284 15.9464C16.015 16.2105 15.7388 16.3942 15.4509 16.3933C13.1422 16.3936 10.8333 16.3945 8.52462 16.3929C8.14583 16.3895 7.81024 16.0564 7.80192 15.6781C7.77605 15.3049 8.07161 14.9482 8.44229 14.9018Z" fill="#4B4B4B"/>
<path opacity="0.5" d="M8.39123 17.5052C8.45736 17.4906 8.52551 17.4874 8.59299 17.4879C9.73946 17.4894 10.8857 17.4865 12.0322 17.4894C12.4217 17.4975 12.7587 17.8538 12.7461 18.2432C12.7535 18.6289 12.4179 18.9787 12.0319 18.9868C10.9455 18.9893 9.8589 18.987 8.77249 18.9879C8.60671 18.9859 8.43419 19.0034 8.27764 18.9366C7.97489 18.823 7.7711 18.4973 7.80371 18.1752C7.82508 17.8547 8.077 17.5693 8.39123 17.5052Z" fill="#4B4B4B"/>
<path d="M9.03498 4.17649C9.20098 4.10699 9.38204 4.0845 9.56086 4.089C11.1579 4.089 12.7549 4.08922 14.3519 4.089C14.5473 4.08495 14.748 4.09214 14.932 4.1666C15.3816 4.33012 15.7028 4.78448 15.7073 5.26313C16.2197 5.26358 16.7323 5.26223 17.2449 5.26673C17.7447 5.27168 18.2447 5.28157 18.7434 5.31599C19.2427 5.35198 19.7437 5.41158 20.2259 5.55104C20.5957 5.65766 20.9531 5.81623 21.2669 6.04094C21.755 6.38688 22.1293 6.8842 22.3411 7.4427C22.5692 8.03134 22.6477 8.66407 22.692 9.28982C22.7469 10.1281 22.7406 10.9689 22.7431 11.8088C22.7386 12.8507 22.7584 13.8946 22.6767 14.9342C22.6349 15.4252 22.5645 15.9176 22.4104 16.3875C22.2928 16.7462 22.1212 17.0893 21.8877 17.3868C21.7408 17.5762 21.5665 17.7411 21.3949 17.9076C21.1303 18.1633 20.8283 18.3882 20.4817 18.5185C19.9292 18.7265 19.3291 18.7382 18.7461 18.7411C18.7504 18.2438 18.7459 17.7463 18.7483 17.2487C18.8511 17.2445 18.9542 17.2431 19.0572 17.2384C19.3401 17.2269 19.6287 17.219 19.9011 17.134C20.1121 17.069 20.2698 16.9071 20.4252 16.7588C20.537 16.6459 20.6573 16.5393 20.7477 16.4073C20.9266 16.1547 21.0192 15.8533 21.0818 15.5534C21.1657 15.1355 21.1956 14.7093 21.2156 14.2842C21.2469 13.5417 21.2417 12.7983 21.2437 12.0551C21.2417 11.2906 21.2475 10.5258 21.2165 9.76172C21.1947 9.29499 21.1634 8.82579 21.0597 8.36896C20.9817 8.02639 20.8467 7.68315 20.5937 7.431C20.353 7.18043 20.0226 7.04007 19.6899 6.9591C19.209 6.84326 18.713 6.81132 18.2207 6.7886C17.148 6.74969 16.0744 6.76701 15.0015 6.76296C12.4676 6.76296 9.93402 6.76251 7.40019 6.76318C6.84956 6.76498 6.29893 6.76656 5.74875 6.78973C5.30137 6.81019 4.85219 6.84079 4.41312 6.93346C4.06403 7.00836 3.71089 7.13432 3.44705 7.38399C3.24889 7.56528 3.10988 7.80348 3.02261 8.05586C2.898 8.41642 2.84806 8.79745 2.8132 9.17578C2.76169 9.77432 2.75607 10.3756 2.75112 10.9761C2.74797 11.6734 2.74797 12.3709 2.75134 13.0682C2.75607 13.6415 2.76214 14.2153 2.80802 14.7869C2.83906 15.1495 2.88383 15.5136 2.98864 15.8632C3.07029 16.1329 3.19985 16.3945 3.40206 16.5944C3.54579 16.7359 3.68435 16.8841 3.8436 17.0087C3.96371 17.1034 4.11239 17.1522 4.26129 17.1797C4.48645 17.2208 4.71565 17.2314 4.94396 17.2384C5.04877 17.2431 5.15359 17.2458 5.25841 17.2494C5.25571 17.7474 5.26493 18.2458 5.25391 18.7436C4.69811 18.7355 4.12926 18.7301 3.5964 18.5529C3.23224 18.4339 2.91172 18.2101 2.63708 17.9467C2.4153 17.7321 2.18834 17.5184 2.0129 17.2627C1.75445 16.8958 1.58733 16.4716 1.48274 16.0373C1.35903 15.5217 1.31224 14.9918 1.28457 14.4637C1.23532 13.3921 1.25263 12.3192 1.25016 11.2469C1.25578 10.4136 1.25556 9.57796 1.3498 8.74886C1.41526 8.20094 1.53087 7.65031 1.7792 7.15366C2.07678 6.54725 2.58647 6.04993 3.19805 5.76427C3.83798 5.46242 4.5501 5.36705 5.24874 5.31599C5.74763 5.28157 6.24787 5.27168 6.74789 5.26673C7.26028 5.26223 7.77267 5.26335 8.28506 5.26335C8.29001 4.79415 8.59771 4.34721 9.03498 4.17649Z" fill="#4B4B4B"/>
<path d="M16.5886 8.1139C16.9608 8.0372 17.3596 8.29205 17.448 8.66093C17.5501 9.01587 17.3432 9.42142 16.9977 9.54963C16.6808 9.68121 16.286 9.55728 16.1 9.26937C15.9001 8.98326 15.9423 8.56129 16.194 8.31994C16.3011 8.21377 16.4401 8.14045 16.5886 8.1139Z" fill="#4B4B4B"/>
<path d="M18.9746 8.11434C19.272 8.05496 19.5941 8.19959 19.75 8.45916C19.9032 8.70299 19.8966 9.03566 19.732 9.27206C19.5527 9.5467 19.182 9.67221 18.8727 9.56289C18.5621 9.4637 18.341 9.14362 18.3619 8.81748C18.3712 8.47828 18.6402 8.17035 18.9746 8.11434Z" fill="#4B4B4B"/>
<path d="M3.95201 11.3985C4.09619 11.2427 4.30874 11.1552 4.52063 11.1619C9.49203 11.1624 14.4634 11.1624 19.4348 11.1619C19.5772 11.1561 19.7239 11.17 19.853 11.235C20.1478 11.3707 20.3276 11.7125 20.2695 12.0324C20.2207 12.3709 19.913 12.6485 19.5707 12.66C19.2951 12.6642 19.0194 12.6604 18.7438 12.6618C18.2443 12.6615 17.7445 12.6615 17.2449 12.6618C13.7459 12.6618 10.2469 12.6617 6.74788 12.6615C6.24786 12.6615 5.74807 12.6615 5.24805 12.6615C5.01322 12.662 4.7784 12.6613 4.54357 12.662C4.23452 12.6809 3.92614 12.4926 3.8085 12.2054C3.69154 11.9391 3.75002 11.6077 3.95201 11.3985Z" fill="#4B4B4B"/>
</svg>
