<svg width="24" height="24" viewBox="0 0 24 24" fill="none" xmlns="http://www.w3.org/2000/svg">
<path opacity="0.5" d="M8.02082 1.47795C8.35056 1.27236 8.74621 1.17519 9.13377 1.20466C9.54854 1.23367 9.94981 1.40979 10.2555 1.69163C10.3842 1.81579 10.6057 1.81782 10.7355 1.69366C11.0241 1.42779 11.3973 1.25414 11.7878 1.21141C12.292 1.1518 12.8173 1.31307 13.2012 1.6453C13.2608 1.69815 13.3229 1.75484 13.403 1.77396C13.5215 1.80882 13.6542 1.77126 13.7431 1.68646C14.0548 1.40057 14.4662 1.22558 14.8891 1.20263C15.2841 1.17902 15.6851 1.28698 16.0149 1.50561C16.1926 1.6201 16.3388 1.77396 16.4955 1.91364C16.7016 1.75484 16.9476 1.64327 17.2083 1.61943C17.586 1.58029 17.9731 1.7139 18.2574 1.96312C18.5599 2.22314 18.7433 2.61609 18.7437 3.01557C18.7437 3.78235 18.7448 4.54936 18.7433 5.31615C18.2446 5.28173 17.7446 5.27184 17.2448 5.26689C17.2439 4.58985 17.245 3.91281 17.2443 3.23555C16.8419 3.49534 16.3039 3.52863 15.877 3.30843C15.6568 3.20406 15.4905 3.02209 15.3117 2.86217C15.2238 2.77242 15.1118 2.68784 14.9786 2.69977C14.8675 2.70022 14.7759 2.76972 14.6986 2.84215C14.3846 3.11251 13.9768 3.27109 13.5629 3.28481C13.1045 3.30303 12.6416 3.14243 12.2941 2.84305C12.23 2.78659 12.1632 2.72586 12.0768 2.70854C11.956 2.67772 11.8273 2.72203 11.7396 2.80728C11.422 3.09632 11.0012 3.26861 10.5722 3.28458C10.1282 3.30415 9.67967 3.15615 9.33463 2.87634C9.28087 2.83337 9.23251 2.78322 9.17381 2.74678C9.05369 2.6748 8.89017 2.6856 8.7813 2.77399C8.55525 2.96158 8.36248 3.19889 8.08897 3.3217C7.66588 3.52773 7.14224 3.48927 6.74771 3.23532C6.74771 3.91259 6.74771 4.58985 6.74771 5.26689C6.24769 5.27184 5.74745 5.28173 5.24856 5.31615C5.24788 4.55634 5.24788 3.79675 5.24856 3.03694C5.24631 2.71978 5.35427 2.40331 5.55199 2.15521C5.79176 1.85043 6.15952 1.64754 6.5473 1.61718C6.84646 1.59176 7.15236 1.67544 7.39933 1.84548C7.4324 1.8691 7.46569 1.89272 7.50123 1.91274C7.6661 1.75866 7.82693 1.59604 8.02082 1.47795Z" fill="#4B4B4B"/>
<path opacity="0.5" d="M5.24795 12.6616C5.74797 12.6616 6.24777 12.6616 6.74779 12.6616C6.74779 15.7035 6.74779 18.7453 6.74779 21.787C7.14411 21.5301 7.67292 21.4941 8.09714 21.7042C8.3693 21.8284 8.56004 22.0666 8.78722 22.2522C8.92016 22.3574 9.12484 22.3405 9.24451 22.2225C9.53467 21.957 9.9103 21.7861 10.3019 21.7461C10.8166 21.6887 11.3505 21.8621 11.7343 22.2096C11.8236 22.298 11.9558 22.3459 12.08 22.3124C12.1898 22.2893 12.2635 22.1991 12.3486 22.1336C12.6958 21.8585 13.1437 21.7146 13.5861 21.738C14.0108 21.7573 14.4258 21.9296 14.7402 22.2157C14.8262 22.2987 14.9512 22.3426 15.0695 22.3147C15.1869 22.2926 15.2672 22.1979 15.3518 22.1224C15.4953 21.9948 15.6285 21.852 15.7972 21.7564C16.2351 21.493 16.8163 21.5085 17.2442 21.7865C17.2455 18.7448 17.2439 15.7033 17.2448 12.6618C17.7444 12.6616 18.2442 12.6616 18.7438 12.6618C18.7458 14.1871 18.7408 15.7125 18.7462 17.2378C18.8499 17.2382 18.9534 17.2394 19.0571 17.2385C18.9541 17.2432 18.851 17.2445 18.7483 17.2488C18.7458 17.7464 18.7503 18.2439 18.746 18.7412C18.7399 19.8492 18.748 20.9575 18.7422 22.0652C18.724 22.4958 18.4918 22.9076 18.1382 23.1521C17.7957 23.3959 17.3382 23.4787 16.9367 23.3453C16.7774 23.2943 16.6294 23.211 16.4983 23.1078C16.3444 23.2403 16.2048 23.3905 16.0345 23.503C15.6521 23.7646 15.169 23.873 14.7117 23.8003C14.35 23.7452 14.0076 23.5788 13.7386 23.3316C13.6448 23.2432 13.502 23.2104 13.3803 23.2549C13.2757 23.2898 13.2071 23.3822 13.1189 23.4434C12.6774 23.7837 12.0777 23.9058 11.5384 23.7646C11.237 23.6888 10.9578 23.5331 10.7295 23.323C10.6006 23.2047 10.3849 23.2074 10.2585 23.328C10.0183 23.5484 9.72091 23.7072 9.40196 23.7774C8.93815 23.8833 8.43521 23.7992 8.03011 23.5498C7.8297 23.431 7.66865 23.261 7.49568 23.1076C7.28289 23.2758 7.02242 23.3869 6.75026 23.4054C6.34516 23.4366 5.93511 23.2709 5.65305 22.9812C5.39663 22.7229 5.24863 22.3624 5.24863 21.9984C5.2475 21.3538 5.24863 20.7091 5.24818 20.0645C5.25178 19.6243 5.24098 19.1834 5.2538 18.7437C5.26482 18.2459 5.2556 17.7475 5.2583 17.2495C5.15348 17.2459 5.04867 17.2432 4.94385 17.2385C5.04507 17.2396 5.14629 17.2385 5.24728 17.2346C5.24908 15.7103 5.24795 14.1859 5.24795 12.6616Z" fill="#4B4B4B"/>
<path opacity="0.5" d="M8.44225 14.9019C8.73893 14.8846 9.03718 14.8988 9.33454 14.8943C11.3661 14.8941 13.3977 14.8943 15.4292 14.8941C15.6404 14.8898 15.851 14.9797 15.9936 15.1359C16.1938 15.3482 16.2489 15.6809 16.1283 15.9465C16.015 16.2106 15.7387 16.3943 15.4508 16.3934C13.1422 16.3937 10.8332 16.3946 8.52457 16.393C8.14579 16.3896 7.81019 16.0565 7.80187 15.6782C7.776 15.305 8.07156 14.9483 8.44225 14.9019Z" fill="#4B4B4B"/>
<path opacity="0.5" d="M8.39123 17.5052C8.45736 17.4905 8.52551 17.4874 8.59299 17.4878C9.73946 17.4894 10.8857 17.4865 12.0322 17.4894C12.4217 17.4975 12.7587 17.8538 12.7461 18.2431C12.7535 18.6289 12.4179 18.9787 12.0319 18.9868C10.9455 18.9892 9.8589 18.987 8.77249 18.9879C8.60671 18.9859 8.43419 19.0034 8.27764 18.9366C7.97489 18.823 7.7711 18.4973 7.80371 18.1752C7.82508 17.8547 8.077 17.5693 8.39123 17.5052Z" fill="#4B4B4B"/>
<path d="M9.03486 4.17628C9.20086 4.10678 9.38192 4.08428 9.56074 4.08878C11.1578 4.08878 12.7548 4.08901 14.3518 4.08878C14.5472 4.08473 14.7479 4.09193 14.9319 4.16638C15.3815 4.32991 15.7027 4.78426 15.7072 5.26292C16.2196 5.26337 16.7322 5.26202 17.2448 5.26651C17.7446 5.27146 18.2446 5.28136 18.7433 5.31577C19.2426 5.35176 19.7436 5.41137 20.2258 5.55083C20.5956 5.65744 20.953 5.81602 21.2668 6.04072C21.7549 6.38666 22.1292 6.88398 22.341 7.44248C22.5691 8.03113 22.6476 8.66385 22.6919 9.28961C22.7468 10.128 22.7405 10.9687 22.743 11.8086C22.7385 12.8505 22.7583 13.8944 22.6766 14.934C22.6348 15.4251 22.5644 15.9174 22.4103 16.3873C22.2927 16.7461 22.1211 17.0891 21.8876 17.3867C21.7407 17.5761 21.5664 17.7409 21.3948 17.9074C21.1302 18.1631 20.8282 18.3881 20.4816 18.5183C19.9291 18.7263 19.329 18.738 18.746 18.741C18.7503 18.2437 18.7458 17.7461 18.7482 17.2486C18.851 17.2443 18.9541 17.2429 19.0571 17.2382C19.34 17.2267 19.6286 17.2189 19.901 17.1338C20.112 17.0688 20.2697 16.9069 20.4251 16.7587C20.5369 16.6457 20.6572 16.5391 20.7476 16.4071C20.9265 16.1545 21.0191 15.8531 21.0817 15.5533C21.1656 15.1353 21.1955 14.7091 21.2155 14.284C21.2468 13.5415 21.2416 12.7981 21.2436 12.0549C21.2416 11.2904 21.2474 10.5256 21.2164 9.76151C21.1946 9.29478 21.1633 8.82558 21.0596 8.36874C20.9816 8.02618 20.8466 7.68293 20.5936 7.43079C20.3529 7.18022 20.0225 7.03986 19.6898 6.95889C19.2089 6.84305 18.7129 6.81111 18.2206 6.78839C17.1479 6.74948 16.0743 6.7668 15.0014 6.76275C12.4675 6.76275 9.9339 6.7623 7.40007 6.76297C6.84944 6.76477 6.29881 6.76635 5.74863 6.78951C5.30125 6.80998 4.85207 6.84057 4.413 6.93324C4.06391 7.00814 3.71077 7.13411 3.44693 7.38378C3.24877 7.56507 3.10976 7.80327 3.02249 8.05564C2.89788 8.4162 2.84794 8.79724 2.81308 9.17557C2.76157 9.77411 2.75595 10.3754 2.751 10.9759C2.74785 11.6732 2.74785 12.3707 2.75122 13.068C2.75595 13.6414 2.76202 14.2152 2.8079 14.7867C2.83894 15.1493 2.88371 15.5135 2.98852 15.863C3.07017 16.1327 3.19973 16.3943 3.40194 16.5942C3.54567 16.7357 3.68423 16.8839 3.84348 17.0086C3.96359 17.1033 4.11227 17.1521 4.26117 17.1795C4.48633 17.2207 4.71553 17.2312 4.94384 17.2382C5.04865 17.2429 5.15347 17.2456 5.25829 17.2492C5.25559 17.7472 5.26481 18.2457 5.25379 18.7434C4.69799 18.7353 4.12914 18.7299 3.59628 18.5527C3.23212 18.4337 2.9116 18.2099 2.63696 17.9465C2.41518 17.7319 2.18822 17.5183 2.01278 17.2625C1.75433 16.8956 1.58721 16.4714 1.48262 16.0371C1.35891 15.5216 1.31212 14.9916 1.28445 14.4635C1.2352 13.3919 1.25251 12.319 1.25004 11.2468C1.25566 10.4134 1.25544 9.57774 1.34968 8.74865C1.41514 8.20072 1.53075 7.65009 1.77908 7.15345C2.07666 6.54704 2.58635 6.04972 3.19793 5.76406C3.83786 5.4622 4.54998 5.36683 5.24862 5.31577C5.74751 5.28136 6.24775 5.27146 6.74777 5.26651C7.26016 5.26202 7.77255 5.26314 8.28494 5.26314C8.28989 4.79394 8.59759 4.347 9.03486 4.17628Z" fill="#4B4B4B"/>
<path d="M16.5884 8.11425C16.9607 8.03754 17.3595 8.29239 17.4479 8.66127C17.55 9.01621 17.3431 9.42176 16.9976 9.54997C16.6806 9.68156 16.2859 9.55762 16.0999 9.26971C15.8999 8.9836 15.9422 8.56163 16.1939 8.32028C16.301 8.21411 16.44 8.14079 16.5884 8.11425Z" fill="#4B4B4B"/>
<path d="M18.9749 8.11433C19.2722 8.05494 19.5943 8.19957 19.7502 8.45914C19.9034 8.70297 19.8969 9.03564 19.7322 9.27204C19.5529 9.54668 19.1823 9.67219 18.873 9.56287C18.5624 9.46368 18.3412 9.1436 18.3622 8.81746C18.3714 8.47826 18.6404 8.17033 18.9749 8.11433Z" fill="#4B4B4B"/>
<path d="M3.95225 11.3984C4.09643 11.2426 4.30898 11.1551 4.52087 11.1618C9.49227 11.1623 14.4636 11.1623 19.435 11.1618C19.5774 11.156 19.7241 11.1699 19.8532 11.2349C20.148 11.3705 20.3278 11.7124 20.2697 12.0323C20.2209 12.3708 19.9132 12.6484 19.5709 12.6598C19.2953 12.6641 19.0196 12.6603 18.744 12.6616C18.2445 12.6614 17.7447 12.6614 17.2451 12.6616C13.7461 12.6616 10.2471 12.6616 6.74812 12.6614C6.2481 12.6614 5.74831 12.6614 5.24829 12.6614C5.01346 12.6619 4.77864 12.6612 4.54381 12.6619C4.23476 12.6808 3.92638 12.4925 3.80874 12.2053C3.69178 11.9389 3.75026 11.6076 3.95225 11.3984Z" fill="#4B4B4B"/>
</svg>
