<svg width="24" height="24" viewBox="0 0 24 24" fill="none" xmlns="http://www.w3.org/2000/svg">
<path opacity="0.5" d="M11.2692 1.27427C12.911 1.16267 14.5786 1.42907 16.0994 2.05927C17.3618 2.57987 18.5226 3.34507 19.4998 4.29887C20.8256 5.58627 21.8114 7.22147 22.3248 8.99727C22.8014 10.6355 22.8774 12.3873 22.5522 14.0619C22.2742 15.4995 21.6948 16.8775 20.864 18.0831C20.0796 19.2253 19.0726 20.2139 17.916 20.9767C16.6934 21.7857 15.3028 22.3393 13.8582 22.5897C12.197 22.8793 10.4676 22.7763 8.8546 22.2825C7.0658 21.7385 5.4284 20.7127 4.1524 19.3469C3.1792 18.3091 2.414 17.0767 1.9192 15.7425C1.0086 13.3057 1.0278 10.5367 1.9738 8.11347C2.5 6.75487 3.308 5.50667 4.3296 4.46827C5.2916 3.48687 6.4436 2.69227 7.7034 2.14287C8.8302 1.65027 10.0426 1.35587 11.2692 1.27427ZM11.3292 2.77387C9.67 2.88927 8.0468 3.46787 6.6878 4.42627C5.5818 5.20267 4.6484 6.22327 3.9756 7.39527C3.465 8.28207 3.1038 9.25507 2.9132 10.2607C2.7414 11.1619 2.7056 12.0885 2.8032 13.0007C2.9534 14.4107 3.4364 15.7837 4.2018 16.9773C4.8614 18.0093 5.7276 18.9085 6.7344 19.6061C7.5774 20.1913 8.5188 20.6347 9.5074 20.9101C10.3628 21.1493 11.2528 21.2625 12.1408 21.2489C13.5822 21.2295 15.018 20.8669 16.2936 20.1951C17.5268 19.5485 18.6098 18.6191 19.4376 17.4999C20.2884 16.3541 20.8676 15.0079 21.1118 13.6015C21.4006 11.9487 21.2356 10.2173 20.6258 8.65327C20.2312 7.63487 19.6524 6.68887 18.9284 5.87127C18.0428 4.86987 16.9388 4.06227 15.7142 3.52587C14.343 2.92167 12.823 2.66507 11.3292 2.77387Z" fill="#4B4B4B"/>
<path d="M11.6305 6.2757C12.3133 6.1763 13.0319 6.3601 13.5805 6.7789C14.1545 7.2091 14.5393 7.8827 14.6103 8.5973C14.6855 9.2763 14.4807 9.9803 14.0519 10.5121C13.8527 10.7607 13.6089 10.9737 13.3345 11.1357C13.1589 11.2407 12.9885 11.3613 12.8567 11.5197C12.8019 11.5887 12.7483 11.6683 12.7499 11.7601C12.7495 12.1805 12.7507 12.6009 12.7493 13.0211C12.7463 13.3409 12.5127 13.6387 12.2047 13.7217C12.0181 13.7749 11.8109 13.7523 11.6409 13.6587C11.4471 13.5541 11.3041 13.3599 11.2637 13.1433C11.2459 13.0565 11.2499 12.9679 11.2499 12.8801C11.2497 12.5133 11.2501 12.1465 11.2497 11.7795C11.2455 11.5161 11.3033 11.2525 11.4151 11.0139C11.6157 10.5815 11.9705 10.2409 12.3607 9.9771C12.4929 9.8837 12.6437 9.8161 12.7613 9.7029C12.9705 9.5127 13.1023 9.2409 13.1219 8.9589C13.1449 8.6661 13.0471 8.3661 12.8551 8.1441C12.6801 7.9381 12.4285 7.7985 12.1607 7.7613C11.8753 7.7191 11.5749 7.7925 11.3417 7.9625C11.1017 8.1347 10.9341 8.4047 10.8887 8.6969C10.8677 8.8105 10.8843 8.9279 10.8565 9.0405C10.8127 9.2409 10.6809 9.4193 10.5037 9.5221C10.3303 9.6255 10.1141 9.6519 9.92024 9.5967C9.71824 9.5409 9.54464 9.3949 9.45224 9.2073C9.38164 9.0703 9.36624 8.9129 9.37724 8.7613C9.40244 8.0991 9.69264 7.4525 10.1703 6.9933C10.5643 6.6069 11.0839 6.3515 11.6305 6.2757Z" fill="#4B4B4B"/>
<path d="M11.8299 15.0144C12.1067 14.9656 12.4029 15.04 12.6219 15.217C12.8749 15.4146 13.0205 15.7404 12.9983 16.0608C12.9831 16.3402 12.8427 16.6094 12.6227 16.7824C12.4215 16.9442 12.1555 17.0224 11.8987 16.9948C11.6155 16.9682 11.3487 16.8118 11.1849 16.5796C11.0021 16.326 10.9505 15.9848 11.0495 15.6884C11.1593 15.3426 11.4719 15.0728 11.8299 15.0144Z" fill="#4B4B4B"/>
</svg>
