<svg width="24" height="24" viewBox="0 0 24 24" fill="none" xmlns="http://www.w3.org/2000/svg">
<path d="M5.53381 1.27981C5.77771 1.24681 6.02431 1.25011 6.27001 1.25041C10.0101 1.25071 13.7502 1.25041 17.4906 1.25041C17.8308 1.25401 18.1734 1.23571 18.5115 1.28611C19.3932 1.40791 20.217 1.87141 20.7933 2.54731C21.4137 3.26431 21.7563 4.21111 21.7494 5.15851C21.7509 10.1892 21.7494 15.2199 21.75 20.2506C21.7536 20.6145 21.6402 20.9799 21.4197 21.2706C21.1158 21.6798 20.6103 21.9306 20.1 21.9189C19.6458 21.915 19.2 21.6981 18.9144 21.3453C18.873 21.2961 18.8376 21.2412 18.7881 21.2001C18.7515 21.18 18.7023 21.1929 18.6804 21.2286C18.4059 21.5739 18.1977 21.9792 17.8503 22.2615C17.4222 22.6212 16.8465 22.7976 16.2903 22.7394C15.711 22.6848 15.1623 22.3749 14.8134 21.9096C14.7414 21.8121 14.6646 21.7122 14.556 21.6531C14.3652 21.5382 14.1117 21.5427 13.9254 21.6642C13.8132 21.7311 13.7394 21.8412 13.6614 21.9426C13.2936 22.4139 12.7179 22.716 12.12 22.7466C11.4774 22.788 10.827 22.5111 10.4064 22.0245C10.2972 21.9039 10.2189 21.7509 10.0758 21.6648C9.88261 21.5388 9.61801 21.5382 9.42481 21.6645C9.30601 21.7359 9.23071 21.8553 9.14641 21.9612C8.75341 22.4541 8.13091 22.7544 7.50001 22.7499C6.87511 22.7544 6.25891 22.4595 5.86501 21.9756C5.72251 21.7971 5.59681 21.606 5.46181 21.4218C5.40481 21.3471 5.36071 21.2601 5.28721 21.1995C5.21191 21.1617 5.16511 21.249 5.12431 21.2967C4.86901 21.6366 4.47091 21.8661 4.04731 21.9096C3.53971 21.969 3.01411 21.7635 2.67391 21.3843C2.39371 21.0789 2.24521 20.6637 2.25001 20.2509C2.25061 15.2202 2.24911 10.1895 2.25061 5.15911C2.24341 4.19761 2.59651 3.23671 3.23401 2.51581C3.81841 1.84501 4.64911 1.39081 5.53381 1.27981ZM5.65291 2.77861C5.13751 2.86381 4.66141 3.14581 4.32631 3.54511C3.97471 3.96001 3.77251 4.49641 3.75331 5.03941C3.74821 5.18941 3.75031 5.33971 3.75001 5.49001C3.75001 10.3296 3.75001 15.1695 3.75001 20.0091C3.75091 20.1105 3.74311 20.2128 3.75661 20.3139C3.76291 20.3796 3.84271 20.442 3.90601 20.4102C3.98671 20.3292 4.04731 20.2302 4.13161 20.1522C4.47361 19.8072 4.98061 19.6374 5.46151 19.7052C5.87341 19.758 6.25771 19.9827 6.51001 20.3118C6.68611 20.547 6.84811 20.7924 7.02691 21.0258C7.20481 21.2478 7.54471 21.3183 7.79221 21.1737C7.96981 21.0843 8.05501 20.8953 8.18881 20.7588C8.59621 20.3091 9.20341 20.049 9.81061 20.0706C10.4343 20.0841 11.0409 20.3946 11.4207 20.889C11.5089 21.0102 11.6055 21.1353 11.7486 21.1947C12.0072 21.3204 12.3381 21.222 12.5019 20.9904C12.7251 20.6745 13.0287 20.4135 13.383 20.256C13.8903 20.0241 14.4906 20.0082 15.0099 20.211C15.4092 20.3622 15.753 20.643 15.9984 20.9904C16.1616 21.2232 16.494 21.3204 16.7523 21.1938C16.9575 21.1071 17.061 20.8992 17.1885 20.7306C17.3511 20.514 17.4882 20.2737 17.694 20.0934C18.0108 19.8078 18.4464 19.6614 18.8712 19.6956C19.3215 19.7274 19.7514 19.9638 20.0202 20.3265C20.0556 20.3631 20.0862 20.4351 20.1489 20.4168C20.238 20.3982 20.2554 20.2965 20.2506 20.2203C20.2488 15.1998 20.2512 10.1796 20.2494 5.15911C20.2575 4.44901 19.9503 3.73561 19.4055 3.27571C19.017 2.94301 18.5103 2.74651 17.9973 2.75101C14.0085 2.75041 10.0194 2.75101 6.03061 2.75071C5.90431 2.75071 5.77771 2.75731 5.65291 2.77861Z" fill="#4B4B4B"/>
<path opacity="0.5" d="M13.6577 6.39837C14.1068 6.35547 14.5691 6.49227 14.9222 6.77307C15.2867 7.05777 15.5315 7.48947 15.5867 7.94877C15.6419 8.38197 15.5315 8.83437 15.2792 9.19077C15.1868 9.32577 15.0698 9.44067 14.954 9.55557C14.0036 10.5048 13.055 11.4561 12.1037 12.4044C11.8139 12.7038 11.4527 12.9327 11.0561 13.0608C10.6142 13.2111 10.1708 13.356 9.72858 13.5051C9.49068 13.6008 9.21708 13.6269 8.97648 13.5255C8.54958 13.3638 8.29878 12.8559 8.43618 12.4191C8.61108 11.889 8.78448 11.358 8.96808 10.8309C9.09858 10.4733 9.31698 10.1511 9.58878 9.88587C10.5569 8.91447 11.528 7.94637 12.497 6.97587C12.7976 6.65127 13.2152 6.43587 13.6577 6.39837ZM13.3646 7.80447C13.5077 8.17857 13.8122 8.48457 14.1869 8.62677C14.3336 8.49477 14.4254 8.29707 14.3957 8.09787C14.3666 7.82007 14.1107 7.59057 13.8314 7.59117C13.652 7.58397 13.4834 7.67457 13.3646 7.80447ZM10.3763 10.7979C10.0727 11.1012 10.0097 11.5431 9.86328 11.9289C9.92988 11.9952 9.99618 12.0615 10.0628 12.1281C10.3214 12.0378 10.5863 11.964 10.8392 11.8581C11.0858 11.7525 11.2625 11.5449 11.4494 11.3613C12.0644 10.7463 12.6797 10.1313 13.2947 9.51597C12.9659 9.30687 12.6845 9.02547 12.4754 8.69667C11.7758 9.39747 11.0738 10.0956 10.3763 10.7979Z" fill="#4B4B4B"/>
<path opacity="0.5" d="M7.30253 14.7765C7.42613 14.742 7.55543 14.7513 7.68233 14.7507C10.6322 14.7516 13.5821 14.7498 16.532 14.7516C16.9259 14.7555 17.2667 15.1179 17.2514 15.5103C17.2562 15.9075 16.8989 16.2609 16.5014 16.2504C13.5011 16.2513 10.5008 16.2513 7.50053 16.2504C7.12643 16.2579 6.78443 15.9468 6.75473 15.5745C6.71243 15.2211 6.95873 14.865 7.30253 14.7765Z" fill="#4B4B4B"/>
</svg>
