<svg width="24" height="24" viewBox="0 0 24 24" fill="none" xmlns="http://www.w3.org/2000/svg">
<path d="M5.53391 1.27981C5.77781 1.24681 6.02441 1.25011 6.27011 1.25041C10.0102 1.25071 13.7503 1.25041 17.4907 1.25041C17.8309 1.25401 18.1735 1.23571 18.5116 1.28611C19.3933 1.40791 20.2171 1.87141 20.7934 2.54731C21.4138 3.26431 21.7564 4.21111 21.7495 5.15851C21.751 10.1892 21.7495 15.2199 21.7501 20.2506C21.7537 20.6145 21.6403 20.9799 21.4198 21.2706C21.1159 21.6798 20.6104 21.9306 20.1001 21.9189C19.6459 21.915 19.2001 21.6981 18.9145 21.3453C18.8731 21.2961 18.8377 21.2412 18.7882 21.2001C18.7516 21.18 18.7024 21.1929 18.6805 21.2286C18.406 21.5739 18.1978 21.9792 17.8504 22.2615C17.4223 22.6212 16.8466 22.7976 16.2904 22.7394C15.7111 22.6848 15.1624 22.3749 14.8135 21.9096C14.7415 21.8121 14.6647 21.7122 14.5561 21.6531C14.3653 21.5382 14.1118 21.5427 13.9255 21.6642C13.8133 21.7311 13.7395 21.8412 13.6615 21.9426C13.2937 22.4139 12.718 22.716 12.1201 22.7466C11.4775 22.788 10.8271 22.5111 10.4065 22.0245C10.2973 21.9039 10.219 21.7509 10.0759 21.6648C9.88271 21.5388 9.61811 21.5382 9.42491 21.6645C9.30611 21.7359 9.23081 21.8553 9.14651 21.9612C8.75351 22.4541 8.13101 22.7544 7.50011 22.7499C6.87521 22.7544 6.25901 22.4595 5.86511 21.9756C5.72261 21.7971 5.59691 21.606 5.46191 21.4218C5.40491 21.3471 5.36081 21.2601 5.28731 21.1995C5.21201 21.1617 5.16521 21.249 5.12441 21.2967C4.86911 21.6366 4.47101 21.8661 4.04741 21.9096C3.53981 21.969 3.01421 21.7635 2.67401 21.3843C2.39381 21.0789 2.24531 20.6637 2.25011 20.2509C2.25071 15.2202 2.24921 10.1895 2.25071 5.15911C2.24351 4.19761 2.59661 3.23671 3.23411 2.51581C3.81851 1.84501 4.64921 1.39081 5.53391 1.27981ZM5.65301 2.77861C5.13761 2.86381 4.66151 3.14581 4.32641 3.54511C3.97481 3.96001 3.77261 4.49641 3.75341 5.03941C3.74831 5.18941 3.75041 5.33971 3.75011 5.49001C3.75011 10.3296 3.75011 15.1695 3.75011 20.0091C3.75101 20.1105 3.74321 20.2128 3.75671 20.3139C3.76301 20.3796 3.84281 20.442 3.90611 20.4102C3.98681 20.3292 4.04741 20.2302 4.13171 20.1522C4.47371 19.8072 4.98071 19.6374 5.46161 19.7052C5.87351 19.758 6.25781 19.9827 6.51011 20.3118C6.68621 20.547 6.84821 20.7924 7.02701 21.0258C7.20491 21.2478 7.54481 21.3183 7.79231 21.1737C7.96991 21.0843 8.05511 20.8953 8.18891 20.7588C8.59631 20.3091 9.20351 20.049 9.81071 20.0706C10.4344 20.0841 11.041 20.3946 11.4208 20.889C11.509 21.0102 11.6056 21.1353 11.7487 21.1947C12.0073 21.3204 12.3382 21.222 12.502 20.9904C12.7252 20.6745 13.0288 20.4135 13.3831 20.256C13.8904 20.0241 14.4907 20.0082 15.01 20.211C15.4093 20.3622 15.7531 20.643 15.9985 20.9904C16.1617 21.2232 16.4941 21.3204 16.7524 21.1938C16.9576 21.1071 17.0611 20.8992 17.1886 20.7306C17.3512 20.514 17.4883 20.2737 17.6941 20.0934C18.0109 19.8078 18.4465 19.6614 18.8713 19.6956C19.3216 19.7274 19.7515 19.9638 20.0203 20.3265C20.0557 20.3631 20.0863 20.4351 20.149 20.4168C20.2381 20.3982 20.2555 20.2965 20.2507 20.2203C20.2489 15.1998 20.2513 10.1796 20.2495 5.15911C20.2576 4.44901 19.9504 3.73561 19.4056 3.27571C19.0171 2.94301 18.5104 2.74651 17.9974 2.75101C14.0086 2.75041 10.0195 2.75101 6.03071 2.75071C5.90441 2.75071 5.77781 2.75731 5.65301 2.77861Z" fill="#4B4B4B"/>
<path opacity="0.5" d="M13.6577 6.39837C14.1068 6.35547 14.5691 6.49227 14.9222 6.77307C15.2867 7.05777 15.5315 7.48947 15.5867 7.94877C15.6419 8.38197 15.5315 8.83437 15.2792 9.19077C15.1868 9.32577 15.0698 9.44067 14.954 9.55557C14.0036 10.5048 13.055 11.4561 12.1037 12.4044C11.8139 12.7038 11.4527 12.9327 11.0561 13.0608C10.6142 13.2111 10.1708 13.356 9.72858 13.5051C9.49068 13.6008 9.21708 13.6269 8.97648 13.5255C8.54958 13.3638 8.29878 12.8559 8.43618 12.4191C8.61108 11.889 8.78448 11.358 8.96808 10.8309C9.09858 10.4733 9.31698 10.1511 9.58878 9.88587C10.5569 8.91447 11.528 7.94637 12.497 6.97587C12.7976 6.65127 13.2152 6.43587 13.6577 6.39837ZM13.3646 7.80447C13.5077 8.17857 13.8122 8.48457 14.1869 8.62677C14.3336 8.49477 14.4254 8.29707 14.3957 8.09787C14.3666 7.82007 14.1107 7.59057 13.8314 7.59117C13.652 7.58397 13.4834 7.67457 13.3646 7.80447ZM10.3763 10.7979C10.0727 11.1012 10.0097 11.5431 9.86328 11.9289C9.92988 11.9952 9.99618 12.0615 10.0628 12.1281C10.3214 12.0378 10.5863 11.964 10.8392 11.8581C11.0858 11.7525 11.2625 11.5449 11.4494 11.3613C12.0644 10.7463 12.6797 10.1313 13.2947 9.51597C12.9659 9.30687 12.6845 9.02547 12.4754 8.69667C11.7758 9.39747 11.0738 10.0956 10.3763 10.7979Z" fill="#4B4B4B"/>
<path opacity="0.5" d="M7.30253 14.7765C7.42613 14.742 7.55543 14.7513 7.68233 14.7507C10.6322 14.7516 13.5821 14.7498 16.532 14.7516C16.9259 14.7555 17.2667 15.1179 17.2514 15.5103C17.2562 15.9075 16.8989 16.2609 16.5014 16.2504C13.5011 16.2513 10.5008 16.2513 7.50053 16.2504C7.12643 16.2579 6.78443 15.9468 6.75473 15.5745C6.71243 15.2211 6.95873 14.865 7.30253 14.7765Z" fill="#4B4B4B"/>
</svg>
