<svg width="24" height="24" viewBox="0 0 24 24" fill="none" xmlns="http://www.w3.org/2000/svg">
<path d="M5.5338 1.27981C5.7777 1.24681 6.0243 1.25011 6.27 1.25041C10.0101 1.25071 13.7502 1.25041 17.4906 1.25041C17.8308 1.25401 18.1734 1.23571 18.5115 1.28611C19.3932 1.40791 20.217 1.87141 20.7933 2.54731C21.4137 3.26431 21.7563 4.21111 21.7494 5.15851C21.7509 10.1892 21.7494 15.2199 21.75 20.2506C21.7536 20.6145 21.6402 20.9799 21.4197 21.2706C21.1158 21.6798 20.6103 21.9306 20.1 21.9189C19.6458 21.915 19.2 21.6981 18.9144 21.3453C18.873 21.2961 18.8376 21.2412 18.7881 21.2001C18.7515 21.18 18.7023 21.1929 18.6804 21.2286C18.4059 21.5739 18.1977 21.9792 17.8503 22.2615C17.4222 22.6212 16.8465 22.7976 16.2903 22.7394C15.711 22.6848 15.1623 22.3749 14.8134 21.9096C14.7414 21.8121 14.6646 21.7122 14.556 21.6531C14.3652 21.5382 14.1117 21.5427 13.9254 21.6642C13.8132 21.7311 13.7394 21.8412 13.6614 21.9426C13.2936 22.4139 12.7179 22.716 12.12 22.7466C11.4774 22.788 10.827 22.5111 10.4064 22.0245C10.2972 21.9039 10.2189 21.7509 10.0758 21.6648C9.8826 21.5388 9.618 21.5382 9.4248 21.6645C9.306 21.7359 9.2307 21.8553 9.1464 21.9612C8.7534 22.4541 8.1309 22.7544 7.5 22.7499C6.8751 22.7544 6.2589 22.4595 5.865 21.9756C5.7225 21.7971 5.5968 21.606 5.4618 21.4218C5.4048 21.3471 5.3607 21.2601 5.2872 21.1995C5.2119 21.1617 5.1651 21.249 5.1243 21.2967C4.869 21.6366 4.4709 21.8661 4.0473 21.9096C3.5397 21.969 3.0141 21.7635 2.6739 21.3843C2.3937 21.0789 2.2452 20.6637 2.25 20.2509C2.2506 15.2202 2.2491 10.1895 2.2506 5.15911C2.2434 4.19761 2.5965 3.23671 3.234 2.51581C3.8184 1.84501 4.6491 1.39081 5.5338 1.27981ZM5.6529 2.77861C5.1375 2.86381 4.6614 3.14581 4.3263 3.54511C3.9747 3.96001 3.7725 4.49641 3.7533 5.03941C3.7482 5.18941 3.7503 5.33971 3.75 5.49001C3.75 10.3296 3.75 15.1695 3.75 20.0091C3.7509 20.1105 3.7431 20.2128 3.7566 20.3139C3.7629 20.3796 3.8427 20.442 3.906 20.4102C3.9867 20.3292 4.0473 20.2302 4.1316 20.1522C4.4736 19.8072 4.9806 19.6374 5.4615 19.7052C5.8734 19.758 6.2577 19.9827 6.51 20.3118C6.6861 20.547 6.8481 20.7924 7.0269 21.0258C7.2048 21.2478 7.5447 21.3183 7.7922 21.1737C7.9698 21.0843 8.055 20.8953 8.1888 20.7588C8.5962 20.3091 9.2034 20.049 9.8106 20.0706C10.4343 20.0841 11.0409 20.3946 11.4207 20.889C11.5089 21.0102 11.6055 21.1353 11.7486 21.1947C12.0072 21.3204 12.3381 21.222 12.5019 20.9904C12.7251 20.6745 13.0287 20.4135 13.383 20.256C13.8903 20.0241 14.4906 20.0082 15.0099 20.211C15.4092 20.3622 15.753 20.643 15.9984 20.9904C16.1616 21.2232 16.494 21.3204 16.7523 21.1938C16.9575 21.1071 17.061 20.8992 17.1885 20.7306C17.3511 20.514 17.4882 20.2737 17.694 20.0934C18.0108 19.8078 18.4464 19.6614 18.8712 19.6956C19.3215 19.7274 19.7514 19.9638 20.0202 20.3265C20.0556 20.3631 20.0862 20.4351 20.1489 20.4168C20.238 20.3982 20.2554 20.2965 20.2506 20.2203C20.2488 15.1998 20.2512 10.1796 20.2494 5.15911C20.2575 4.44901 19.9503 3.73561 19.4055 3.27571C19.017 2.94301 18.5103 2.74651 17.9973 2.75101C14.0085 2.75041 10.0194 2.75101 6.0306 2.75071C5.9043 2.75071 5.7777 2.75731 5.6529 2.77861Z" fill="#4B4B4B"/>
<path opacity="0.5" d="M7.6714 8.0059C9.3472 7.9942 11.0236 8.0041 12.6994 8.0008C14.0587 8.0017 15.418 7.999 16.777 8.0023C17.1325 8.0071 17.4523 8.299 17.494 8.6515C17.5411 8.9656 17.362 9.2962 17.0734 9.4282C16.9183 9.5092 16.7395 9.5041 16.5697 9.5011C13.6297 9.5011 10.6894 9.5008 7.7494 9.5011C7.543 9.5032 7.3402 9.4132 7.2007 9.2623C7.0195 9.0709 6.9535 8.7808 7.0336 8.53C7.1167 8.2489 7.3792 8.0317 7.6714 8.0059Z" fill="#4B4B4B"/>
<path opacity="0.5" d="M7.63717 11.5092C7.73497 11.4969 7.83337 11.5005 7.93177 11.5005C10.8712 11.5011 13.8106 11.5002 16.75 11.5011C16.9978 11.4978 17.2393 11.6298 17.3752 11.8359C17.533 12.0678 17.542 12.39 17.3971 12.6303C17.2666 12.8559 17.0128 13.0035 16.7515 13.0005C13.7608 13.0014 10.7704 13.0002 7.77997 13.0011C7.56667 13.0083 7.35187 12.9237 7.20667 12.7668C7.02397 12.5799 6.95497 12.2925 7.02967 12.0426C7.10587 11.7672 7.35367 11.5488 7.63717 11.5092Z" fill="#4B4B4B"/>
<path opacity="0.5" d="M7.55058 15.0272C7.68438 14.9897 7.82448 15.0023 7.96188 15.0011C10.892 15.0008 13.8218 15.0011 16.7519 15.0008C17.0165 14.9969 17.2739 15.1487 17.4029 15.3788C17.5283 15.5954 17.5334 15.8753 17.4167 16.0967C17.2922 16.3403 17.0264 16.5035 16.7522 16.5005C13.8119 16.502 10.8719 16.5002 7.93158 16.5011C7.77318 16.5026 7.60848 16.5083 7.46058 16.442C7.20048 16.3355 7.01478 16.0727 7.00188 15.7922C6.97608 15.4496 7.21878 15.1139 7.55058 15.0272Z" fill="#4B4B4B"/>
</svg>
