<svg width="24" height="24" viewBox="0 0 24 24" fill="none" xmlns="http://www.w3.org/2000/svg">
<path d="M5.53391 1.27981C5.77781 1.24681 6.02441 1.25011 6.27011 1.25041C10.0102 1.25071 13.7503 1.25041 17.4907 1.25041C17.8309 1.25401 18.1735 1.23571 18.5116 1.28611C19.3933 1.40791 20.2171 1.87141 20.7934 2.54731C21.4138 3.26431 21.7564 4.21111 21.7495 5.15851C21.751 10.1892 21.7495 15.2199 21.7501 20.2506C21.7537 20.6145 21.6403 20.9799 21.4198 21.2706C21.1159 21.6798 20.6104 21.9306 20.1001 21.9189C19.6459 21.915 19.2001 21.6981 18.9145 21.3453C18.8731 21.2961 18.8377 21.2412 18.7882 21.2001C18.7516 21.18 18.7024 21.1929 18.6805 21.2286C18.406 21.5739 18.1978 21.9792 17.8504 22.2615C17.4223 22.6212 16.8466 22.7976 16.2904 22.7394C15.7111 22.6848 15.1624 22.3749 14.8135 21.9096C14.7415 21.8121 14.6647 21.7122 14.5561 21.6531C14.3653 21.5382 14.1118 21.5427 13.9255 21.6642C13.8133 21.7311 13.7395 21.8412 13.6615 21.9426C13.2937 22.4139 12.718 22.716 12.1201 22.7466C11.4775 22.788 10.8271 22.5111 10.4065 22.0245C10.2973 21.9039 10.219 21.7509 10.0759 21.6648C9.88271 21.5388 9.61811 21.5382 9.42491 21.6645C9.30611 21.7359 9.23081 21.8553 9.14651 21.9612C8.75351 22.4541 8.13101 22.7544 7.50011 22.7499C6.87521 22.7544 6.25901 22.4595 5.86511 21.9756C5.72261 21.7971 5.59691 21.606 5.46191 21.4218C5.40491 21.3471 5.36081 21.2601 5.28731 21.1995C5.21201 21.1617 5.16521 21.249 5.12441 21.2967C4.86911 21.6366 4.47101 21.8661 4.04741 21.9096C3.53981 21.969 3.01421 21.7635 2.67401 21.3843C2.39381 21.0789 2.24531 20.6637 2.25011 20.2509C2.25071 15.2202 2.24921 10.1895 2.25071 5.15911C2.24351 4.19761 2.59661 3.23671 3.23411 2.51581C3.81851 1.84501 4.64921 1.39081 5.53391 1.27981ZM5.65301 2.77861C5.13761 2.86381 4.66151 3.14581 4.32641 3.54511C3.97481 3.96001 3.77261 4.49641 3.75341 5.03941C3.74831 5.18941 3.75041 5.33971 3.75011 5.49001C3.75011 10.3296 3.75011 15.1695 3.75011 20.0091C3.75101 20.1105 3.74321 20.2128 3.75671 20.3139C3.76301 20.3796 3.84281 20.442 3.90611 20.4102C3.98681 20.3292 4.04741 20.2302 4.13171 20.1522C4.47371 19.8072 4.98071 19.6374 5.46161 19.7052C5.87351 19.758 6.25781 19.9827 6.51011 20.3118C6.68621 20.547 6.84821 20.7924 7.02701 21.0258C7.20491 21.2478 7.54481 21.3183 7.79231 21.1737C7.96991 21.0843 8.05511 20.8953 8.18891 20.7588C8.59631 20.3091 9.20351 20.049 9.81071 20.0706C10.4344 20.0841 11.041 20.3946 11.4208 20.889C11.509 21.0102 11.6056 21.1353 11.7487 21.1947C12.0073 21.3204 12.3382 21.222 12.502 20.9904C12.7252 20.6745 13.0288 20.4135 13.3831 20.256C13.8904 20.0241 14.4907 20.0082 15.01 20.211C15.4093 20.3622 15.7531 20.643 15.9985 20.9904C16.1617 21.2232 16.4941 21.3204 16.7524 21.1938C16.9576 21.1071 17.0611 20.8992 17.1886 20.7306C17.3512 20.514 17.4883 20.2737 17.6941 20.0934C18.0109 19.8078 18.4465 19.6614 18.8713 19.6956C19.3216 19.7274 19.7515 19.9638 20.0203 20.3265C20.0557 20.3631 20.0863 20.4351 20.149 20.4168C20.2381 20.3982 20.2555 20.2965 20.2507 20.2203C20.2489 15.1998 20.2513 10.1796 20.2495 5.15911C20.2576 4.44901 19.9504 3.73561 19.4056 3.27571C19.0171 2.94301 18.5104 2.74651 17.9974 2.75101C14.0086 2.75041 10.0195 2.75101 6.03071 2.75071C5.90441 2.75071 5.77781 2.75731 5.65301 2.77861Z" fill="#4B4B4B"/>
<path opacity="0.5" d="M7.6714 8.0059C9.3472 7.9942 11.0236 8.0041 12.6994 8.0008C14.0587 8.0017 15.418 7.999 16.777 8.0023C17.1325 8.0071 17.4523 8.299 17.494 8.6515C17.5411 8.9656 17.362 9.2962 17.0734 9.4282C16.9183 9.5092 16.7395 9.5041 16.5697 9.5011C13.6297 9.5011 10.6894 9.5008 7.7494 9.5011C7.543 9.5032 7.3402 9.4132 7.2007 9.2623C7.0195 9.0709 6.9535 8.7808 7.0336 8.53C7.1167 8.2489 7.3792 8.0317 7.6714 8.0059Z" fill="#4B4B4B"/>
<path opacity="0.5" d="M7.63717 11.5092C7.73497 11.4969 7.83337 11.5005 7.93177 11.5005C10.8712 11.5011 13.8106 11.5002 16.75 11.5011C16.9978 11.4978 17.2393 11.6298 17.3752 11.8359C17.533 12.0678 17.542 12.39 17.3971 12.6303C17.2666 12.8559 17.0128 13.0035 16.7515 13.0005C13.7608 13.0014 10.7704 13.0002 7.77997 13.0011C7.56667 13.0083 7.35187 12.9237 7.20667 12.7668C7.02397 12.5799 6.95497 12.2925 7.02967 12.0426C7.10587 11.7672 7.35367 11.5488 7.63717 11.5092Z" fill="#4B4B4B"/>
<path opacity="0.5" d="M7.55058 15.0272C7.68438 14.9897 7.82448 15.0023 7.96188 15.0011C10.892 15.0008 13.8218 15.0011 16.7519 15.0008C17.0165 14.9969 17.2739 15.1487 17.4029 15.3788C17.5283 15.5954 17.5334 15.8753 17.4167 16.0967C17.2922 16.3403 17.0264 16.5035 16.7522 16.5005C13.8119 16.502 10.8719 16.5002 7.93158 16.5011C7.77318 16.5026 7.60848 16.5083 7.46058 16.442C7.20048 16.3355 7.01478 16.0727 7.00188 15.7922C6.97608 15.4496 7.21878 15.1139 7.55058 15.0272Z" fill="#4B4B4B"/>
</svg>
