<svg width="24" height="24" viewBox="0 0 24 24" fill="none" xmlns="http://www.w3.org/2000/svg">
<path opacity="0.5" d="M4.36072 14.1042C4.53305 14.0002 4.74746 13.973 4.94053 14.0273C5.24809 14.109 5.48245 14.4078 5.48703 14.7291C5.48763 15.4918 5.48703 16.2547 5.48723 17.0174C6.23538 17.0178 6.98354 17.0172 7.73189 17.0178C7.95587 17.0164 8.17727 17.1237 8.31589 17.3013C8.4571 17.4763 8.51115 17.7172 8.46189 17.9371C8.39427 18.2658 8.08632 18.5237 7.75283 18.5262C6.9977 18.5272 6.24256 18.5262 5.48743 18.5266C5.48683 19.2861 5.48743 20.0456 5.48723 20.8053C5.48683 21.0958 5.29915 21.3726 5.03407 21.4843C4.77299 21.6 4.44888 21.5462 4.23925 21.3507C4.08148 21.2094 3.98973 20.9984 3.99173 20.7859C3.99073 20.0329 3.99173 19.2798 3.99113 18.5268C3.2368 18.5262 2.48246 18.5272 1.72813 18.5262C1.49477 18.5229 1.26879 18.3984 1.13575 18.2059C1.01209 18.0312 0.970404 17.8017 1.02106 17.5936C1.09446 17.2699 1.40062 17.0198 1.73032 17.0182C2.48406 17.0168 3.23759 17.018 3.99133 17.0176C3.99133 16.308 3.99133 15.5984 3.99133 14.8888C3.99173 14.7951 3.98714 14.7003 4.00609 14.608C4.04578 14.3991 4.17882 14.211 4.36072 14.1042Z" fill="#4B4B4B"/>
<path d="M13.6228 21.2901C13.1023 21.32 12.5807 21.319 12.0598 21.3193C11.1004 21.321 12.6694 21.321 11.7101 21.3215C11.3203 21.3289 10.9615 20.9541 10.9584 20.5283C10.9411 20.1628 11.1867 19.8164 11.5056 19.7172C11.63 19.6746 11.7618 19.6917 11.8901 19.6885C13.0071 19.6854 11.596 19.6948 12.713 19.6843C13.1037 19.6787 13.495 19.6726 13.8844 19.6338C14.1694 19.604 14.4571 19.5437 14.7142 19.4014C15.1838 19.1353 15.5756 18.6885 15.7581 18.1432C15.9036 17.6483 15.9065 17.1229 15.92 16.6087C15.9306 15.7187 15.9285 14.8285 15.9294 13.9382C15.9294 12.5257 15.9292 11.1132 15.9265 9.70065C15.9245 9.23349 15.9196 8.76534 15.8786 8.30014C15.8491 7.98388 15.7981 7.66125 15.6557 7.37978C15.4101 6.89375 15.012 6.49494 14.5358 6.29259C14.1251 6.13556 13.6835 6.12723 13.2532 6.10567C12.6531 6.08436 12.0528 6.09783 11.4524 6.09122C9.56305 6.09097 7.67386 6.09048 5.78445 6.09269C5.29073 6.09661 4.79634 6.09612 4.30419 6.14266C3.98389 6.17427 3.65617 6.23649 3.37388 6.41311C2.93459 6.68062 2.57111 7.10908 2.39386 7.62524C2.24429 8.12009 2.24451 8.64702 2.22831 9.16196C2.21572 10.1901 2.21999 10.6527 2.21887 11.6808C2.21639 11.9062 2.1235 12.1281 1.9665 12.2754C1.73369 12.5059 1.36706 12.551 1.09287 12.3822C0.849043 12.2447 0.69879 11.9525 0.696316 11.6561C0.693617 11.061 0.697216 12.3192 0.697216 11.7242C0.700816 11.1929 0.695643 9.37361 0.713412 8.84251C0.727581 8.38637 0.755473 7.92778 0.849944 7.48193C0.984902 6.81561 1.31915 6.21028 1.75191 5.72254C2.23416 5.17992 2.85677 4.77498 3.53831 4.61942C4.04755 4.50184 4.57006 4.47783 5.08897 4.4695C5.85306 4.4575 6.61714 4.46313 7.38123 4.45995C8.96384 4.4575 10.5462 4.45627 12.1288 4.46313C12.7665 4.46705 13.4057 4.45676 14.0412 4.52315C14.4796 4.5719 14.92 4.66768 15.3188 4.87812C16.2707 5.37664 17.0415 6.32198 17.2945 7.44959C17.3892 7.91504 17.4216 8.39274 17.4378 8.86823C17.4549 9.45568 17.4479 10.0437 17.4513 10.6313C17.4533 12.1747 17.4547 13.7182 17.4495 15.2616C17.4457 15.8586 17.4545 16.4558 17.4315 17.0523C17.4068 17.6868 17.3497 18.336 17.1106 18.9227C16.6931 19.9161 15.895 20.7186 14.9411 21.065C14.5164 21.2196 14.0668 21.2597 13.6228 21.2901Z" fill="#4B4B4B"/>
<path d="M21.322 7.44188C21.992 7.35677 22.6952 7.72307 23.0485 8.36184C23.2282 8.6826 23.3153 9.06308 23.3047 9.43958C23.3058 11.6376 23.3038 13.8359 23.3056 16.0339C23.3022 16.325 23.3211 16.6187 23.2766 16.9076C23.2105 17.3749 22.9669 17.8024 22.6268 18.0861C22.1407 18.5027 21.4544 18.6343 20.8815 18.3703C20.5509 18.2147 20.2535 17.9883 19.9391 17.7987C19.4863 17.5115 19.0333 17.2244 18.581 16.9362C18.0605 16.6042 17.7145 15.9545 17.7206 15.2876C17.7177 13.7361 17.7188 12.1846 17.7199 10.633C17.7208 9.97384 18.0621 9.33407 18.5758 9.00336C19.2519 8.57261 19.929 8.14361 20.6053 7.71311C20.8251 7.57252 21.0689 7.47373 21.322 7.44188ZM21.4538 9.10563C21.3757 9.13624 21.3062 9.18676 21.2345 9.23155C20.6254 9.62024 20.016 10.0084 19.4047 10.3926C19.3176 10.4449 19.2405 10.5412 19.2423 10.6564C19.2432 12.1497 19.2427 13.6428 19.2427 15.1361C19.245 15.2306 19.229 15.3351 19.2794 15.4188C19.3241 15.5041 19.4094 15.5439 19.4838 15.5907C20.135 15.9976 20.7754 16.4251 21.4333 16.8182C21.58 16.9093 21.7774 16.7627 21.7806 16.5836C21.7817 14.1765 21.7808 11.7695 21.7804 9.36244C21.7824 9.18725 21.6038 9.04019 21.4538 9.10563Z" fill="#4B4B4B"/>
</svg>
