<svg width="25" height="25" viewBox="0 0 25 25" fill="none" xmlns="http://www.w3.org/2000/svg">
<path d="M7.85512 1.90933C8.67972 1.77122 9.51848 1.7683 10.3521 1.75683C11.6492 1.74783 12.9464 1.75413 14.2436 1.75368C14.7987 1.75548 15.3541 1.76155 15.909 1.78652C16.4387 1.81441 16.9706 1.8567 17.4882 1.97883C17.898 2.076 18.3009 2.22153 18.6547 2.45344C19.1772 2.78656 19.5821 3.2895 19.8155 3.86195C20.0301 4.38918 20.123 4.95645 20.1738 5.52058C20.2247 6.09505 20.2362 6.67199 20.2416 7.24849C20.2515 8.32838 20.2449 9.40849 20.247 10.4884C20.2449 12.8049 20.2506 15.1215 20.244 17.4378C20.2393 18.1191 20.2341 18.8013 20.1738 19.4806C20.1237 20.0438 20.0301 20.61 19.8164 21.1368C19.5463 21.808 19.0314 22.3795 18.3825 22.7032C17.6814 23.0592 16.8854 23.1535 16.1109 23.203C15.4362 23.2428 14.76 23.2435 14.0843 23.2477C12.7127 23.2471 11.3411 23.2538 9.96946 23.2401C9.25599 23.2277 8.53936 23.2073 7.83443 23.0885C7.21722 22.9834 6.60182 22.7747 6.10697 22.3806C5.69782 22.0556 5.37617 21.6224 5.18049 21.1381C4.97512 20.6356 4.882 20.0956 4.82892 19.5578C4.77089 18.9424 4.75897 18.3238 4.75379 17.7061C4.7448 16.6047 4.75109 15.5034 4.74929 14.4019C4.74929 12.0478 4.74615 9.6937 4.75267 7.33958C4.75964 6.70618 4.76864 6.07166 4.82937 5.44073C4.88155 4.90292 4.97737 4.36444 5.18049 3.8615C5.44883 3.1957 5.95874 2.62641 6.60204 2.30431C6.99229 2.0994 7.42258 1.98333 7.85512 1.90933ZM10.5165 3.25554C9.90626 3.26228 9.29535 3.26296 8.68691 3.31492C8.269 3.35405 7.845 3.40556 7.45228 3.56166C7.17764 3.66536 6.93426 3.84868 6.76084 4.08553C6.56515 4.34554 6.47451 4.66562 6.40703 4.97917C6.30963 5.48189 6.28601 5.99518 6.26712 6.50577C6.24418 7.41246 6.2498 8.3196 6.24868 9.22652C6.2498 11.7988 6.24553 14.3711 6.2507 16.9434C6.25295 17.6036 6.25048 18.2642 6.28444 18.9237C6.31098 19.3578 6.34652 19.7944 6.45201 20.2175C6.53096 20.5315 6.6639 20.8421 6.8958 21.0742C7.15244 21.3448 7.51211 21.487 7.86952 21.5671C8.33715 21.6692 8.81625 21.7027 9.29333 21.7227C10.0579 21.7495 10.8231 21.7445 11.5881 21.7497C12.3234 21.7508 13.0584 21.7495 13.7937 21.747C14.4386 21.7459 15.0835 21.7466 15.7279 21.722C16.1584 21.7034 16.5898 21.6717 17.0136 21.5911C17.405 21.5133 17.8076 21.3781 18.091 21.0837C18.3924 20.7859 18.526 20.3662 18.6 19.9593C18.6967 19.4086 18.721 18.8483 18.7345 18.2905C18.7442 17.6317 18.7496 16.9729 18.7464 16.3138C18.7471 14.3718 18.748 12.4295 18.7482 10.4873C18.7444 9.33269 18.7514 8.17812 18.739 7.02378C18.73 6.41107 18.7168 5.79634 18.6248 5.18948C18.5737 4.86086 18.4972 4.52931 18.3335 4.23668C18.1621 3.9283 17.8751 3.69167 17.5482 3.56301C17.1411 3.40084 16.7007 3.35136 16.2675 3.31244C15.5945 3.25599 14.9186 3.26003 14.2436 3.25419C13.0013 3.25374 11.7588 3.24699 10.5165 3.25554Z" fill="#4B4B4B"/>
<path d="M12.247 9.39269C13.1339 9.36389 14.035 9.48806 14.8582 9.82815C15.282 10.0029 15.685 10.2404 16.0166 10.5594C16.3848 10.9098 16.6549 11.3885 16.6723 11.9047C16.6797 12.3456 16.6777 12.8042 16.4991 13.216C16.3558 13.5561 16.0886 13.8346 15.7721 14.0193C15.4298 14.2188 15.0444 14.3319 14.6573 14.407C14.1285 14.5076 13.5898 14.5454 13.0522 14.562C12.5237 14.5757 11.9942 14.5712 11.4663 14.5409C10.9887 14.5119 10.5105 14.4581 10.0456 14.3425C9.68235 14.2507 9.32359 14.114 9.02286 13.8859C8.74732 13.6801 8.53746 13.3872 8.43399 13.0588C8.3186 12.7021 8.31478 12.3228 8.31883 11.9517C8.32152 11.5759 8.45896 11.2092 8.67624 10.9053C8.90387 10.5866 9.20887 10.3293 9.54199 10.1264C10.3544 9.63876 11.3075 9.42845 12.247 9.39269ZM12.0522 10.5052C11.3639 10.5585 10.668 10.7236 10.076 11.09C9.82383 11.249 9.58518 11.4564 9.46619 11.7362C9.38904 11.933 9.42458 12.1481 9.42525 12.3537C9.43493 12.5631 9.46214 12.7968 9.61914 12.9517C9.81641 13.1294 10.0753 13.2163 10.3283 13.2788C10.9465 13.4275 11.5857 13.4551 12.2189 13.4673C12.81 13.4736 13.4027 13.4644 13.9904 13.3964C14.376 13.3483 14.7671 13.2867 15.1218 13.1204C15.2757 13.0464 15.4271 12.9374 15.4923 12.7736C15.5856 12.5325 15.5661 12.2695 15.5748 12.0163C15.5838 11.8062 15.484 11.6085 15.3497 11.4528C15.1194 11.1887 14.8101 11.0066 14.4922 10.8666C13.7264 10.5423 12.8775 10.4458 12.0522 10.5052Z" fill="#4B4B4B"/>
<path d="M9.43898 16.3704C11.4609 16.3641 13.483 16.3693 15.5049 16.3679C15.8551 16.3663 16.1828 16.6414 16.2343 16.9892C16.2993 17.3241 16.1009 17.6831 15.7851 17.8095C15.6758 17.8576 15.555 17.8713 15.4367 17.8673C13.5093 17.8668 11.5819 17.8673 9.65469 17.8671C9.50578 17.8695 9.35171 17.8729 9.21293 17.8108C8.91557 17.6946 8.71875 17.3738 8.74979 17.056C8.77274 16.7006 9.08157 16.3879 9.43898 16.3704Z" fill="#4B4B4B"/>
<path opacity="0.5" d="M3.18693 4.55929C3.76252 4.13079 4.47802 3.9441 5.18048 3.86133C4.97737 4.36427 4.88155 4.90275 4.82936 5.44056C4.59004 5.50062 4.35116 5.57957 4.14445 5.71745C3.87071 5.89627 3.66355 6.16798 3.54974 6.47321C3.38734 6.90013 3.33965 7.35921 3.30232 7.81109C3.24248 8.66493 3.25418 9.52146 3.24878 10.3769C3.24856 11.6657 3.24878 12.9546 3.24878 14.2434C3.24833 14.8658 3.24946 15.4882 3.25845 16.1103C3.27285 16.6776 3.28252 17.2473 3.37137 17.809C3.4267 18.1615 3.5079 18.5193 3.70067 18.8248C3.85497 19.0787 4.09092 19.2782 4.36128 19.3999C4.51086 19.469 4.66944 19.5169 4.82891 19.5576C4.882 20.0954 4.97512 20.6355 5.18048 21.138C4.46858 21.052 3.74363 20.8617 3.16421 20.4216C2.84751 20.1825 2.57804 19.8808 2.37898 19.5376C2.20083 19.2337 2.0787 18.8997 1.99367 18.5587C1.85962 18.0234 1.81328 17.4709 1.78494 16.9212C1.73658 15.7894 1.75457 14.6562 1.7503 13.5236C1.75435 12.1216 1.74333 10.7197 1.75525 9.3179C1.76132 8.72363 1.76964 8.12869 1.82093 7.53623C1.86749 7.03081 1.94194 6.52292 2.11176 6.04247C2.31307 5.4563 2.68556 4.92682 3.18693 4.55929Z" fill="#4B4B4B"/>
<path opacity="0.5" d="M19.8154 3.86133C20.2979 3.91981 20.7799 4.0235 21.2255 4.22234C21.8562 4.49855 22.3873 4.99632 22.6977 5.61151C22.995 6.19407 23.11 6.84884 23.1694 7.49439C23.2359 8.24251 23.2384 8.99422 23.2427 9.74459C23.2474 11.1468 23.2434 12.5488 23.2438 13.9508C23.2411 15.0001 23.2564 16.0503 23.1999 17.0984C23.1703 17.6057 23.1149 18.1138 22.9894 18.6073C22.8859 19.0092 22.7235 19.3992 22.486 19.7411C22.1302 20.256 21.6074 20.6494 21.0195 20.8611C20.6328 21.0052 20.2259 21.0907 19.8163 21.1362C20.03 20.6094 20.1236 20.0432 20.1737 19.48C20.1724 19.4991 20.1697 19.5374 20.1683 19.5565C20.4963 19.4802 20.8222 19.3473 21.0663 19.1086C21.3337 18.8545 21.481 18.5007 21.56 18.1462C21.6828 17.589 21.712 17.017 21.7276 16.4484C21.7438 15.916 21.742 15.3831 21.7453 14.8505C21.7489 13.4181 21.7426 11.986 21.7465 10.5537C21.7424 9.69128 21.7505 8.82845 21.7037 7.96697C21.6783 7.545 21.632 7.12213 21.5247 6.71254C21.4349 6.38212 21.2694 6.06294 21.008 5.83644C20.7705 5.63085 20.47 5.51569 20.1683 5.44213C20.1697 5.46148 20.1724 5.50039 20.1737 5.51996C20.1229 4.95584 20.03 4.38856 19.8154 3.86133Z" fill="#4B4B4B"/>
<path opacity="0.5" d="M12.0051 4.42932C12.5011 4.35352 13.0209 4.43831 13.4649 4.67314C14.0598 4.98354 14.5099 5.55869 14.664 6.21189C14.7926 6.74362 14.7294 7.31921 14.4879 7.80979C14.1831 8.43307 13.5917 8.90924 12.9154 9.06602C12.4343 9.18186 11.9171 9.1407 11.4601 8.95108C10.7729 8.67059 10.2389 8.04709 10.0675 7.32484C9.93281 6.77106 10.0055 6.1687 10.2731 5.66486C10.6128 5.01121 11.2761 4.53728 12.0051 4.42932ZM12.0933 5.53147C11.7545 5.60503 11.4511 5.82568 11.2761 6.12484C11.0925 6.43142 11.0518 6.81762 11.1627 7.15659C11.2662 7.48004 11.5071 7.75603 11.8125 7.90358C12.1032 8.04641 12.4496 8.06935 12.757 7.96881C13.0746 7.86602 13.3475 7.63164 13.4957 7.33226C13.6509 7.02726 13.6711 6.65792 13.5544 6.3365C13.4318 5.99258 13.1511 5.70917 12.8088 5.58253C12.5816 5.49728 12.3301 5.47996 12.0933 5.53147Z" fill="#4B4B4B"/>
<path opacity="0.5" d="M9.52615 19.0887C10.0862 19.0779 10.6465 19.0898 11.2066 19.0853C12.6392 19.0855 14.0718 19.0851 15.5043 19.0855C15.7128 19.086 15.9189 19.1791 16.0581 19.3343C16.2644 19.5567 16.3107 19.9079 16.1728 20.1775C16.0739 20.3732 15.8876 20.5251 15.673 20.5745C15.543 20.6009 15.4096 20.5952 15.2778 20.5952C13.3585 20.5948 11.4394 20.5957 9.52008 20.5943C9.17908 20.611 8.85338 20.3595 8.76926 20.0313C8.7263 19.8469 8.74182 19.6442 8.83786 19.4785C8.97147 19.234 9.24521 19.07 9.52615 19.0887Z" fill="#4B4B4B"/>
</svg>
