<svg width="24" height="24" viewBox="0 0 24 24" fill="none" xmlns="http://www.w3.org/2000/svg">
<path d="M5.5326 1.28039C5.7072 1.25639 5.8839 1.25129 6.06 1.25069C9.9 1.25069 13.74 1.25069 17.58 1.25069C17.919 1.25159 18.2607 1.23929 18.5964 1.29899C19.4742 1.44209 20.2863 1.92419 20.8479 2.61179C21.2424 3.09089 21.5208 3.66449 21.6537 4.27079C21.777 4.77809 21.7464 5.30279 21.75 5.81999C21.75 10.6401 21.7503 15.4602 21.7497 20.2803C21.7488 20.6412 21.6285 21.0012 21.4074 21.2871C21.1023 21.6861 20.6037 21.9303 20.1006 21.9186C19.653 21.9159 19.2144 21.7044 18.9282 21.3615C18.8811 21.3081 18.843 21.246 18.7878 21.201C18.7326 21.1665 18.6816 21.2196 18.6528 21.2619C18.4914 21.4818 18.339 21.708 18.1749 21.9261C17.8122 22.3974 17.2452 22.7064 16.6506 22.7442C15.9768 22.7988 15.2901 22.5003 14.865 21.9756C14.772 21.8601 14.6904 21.7278 14.5572 21.6537C14.3604 21.5334 14.0952 21.5436 13.9071 21.6765C13.764 21.7737 13.6836 21.9327 13.566 22.0554C13.1718 22.4931 12.5892 22.7535 11.9997 22.7496C11.3535 22.755 10.7169 22.4391 10.3257 21.9258C10.2414 21.8115 10.1502 21.6942 10.0185 21.6327C9.8205 21.5307 9.567 21.5544 9.3897 21.6888C9.2907 21.7608 9.2232 21.8649 9.1479 21.9594C8.7978 22.3974 8.268 22.6872 7.7088 22.7394C7.11 22.8027 6.4896 22.5915 6.0537 22.1763C5.7537 21.897 5.5644 21.5256 5.3043 21.2136C5.2425 21.1512 5.1735 21.228 5.1387 21.279C4.8951 21.6081 4.5222 21.8406 4.116 21.9006C3.66 21.9735 3.1776 21.8331 2.8278 21.5328C2.4621 21.2274 2.2497 20.7552 2.2503 20.2803C2.2497 15.3702 2.25 10.4601 2.25 5.54999C2.2509 5.3493 2.247 5.14889 2.2557 4.94849C2.3016 3.90209 2.778 2.87819 3.5643 2.18369C4.1106 1.69499 4.8048 1.37249 5.5326 1.28039ZM5.7396 2.76599C5.1693 2.83529 4.6398 3.14729 4.2846 3.59579C3.9381 4.02659 3.7524 4.5786 3.7506 5.1297C3.7488 10.1607 3.7512 15.1914 3.7494 20.2221C3.7452 20.2983 3.7605 20.3967 3.849 20.4162C3.9177 20.4357 3.9522 20.3508 3.9924 20.3112C4.2615 19.9563 4.6872 19.7262 5.1318 19.6959C5.5554 19.662 5.9901 19.8087 6.3057 20.0937C6.5118 20.2731 6.6483 20.5134 6.8106 20.7297C6.9384 20.8989 7.0419 21.1074 7.2474 21.1947C7.506 21.3201 7.8375 21.2238 8.0013 20.991C8.2131 20.6934 8.4939 20.442 8.8248 20.2839C9.3573 20.0187 10.0032 19.9998 10.5522 20.2278C10.9338 20.3826 11.2617 20.6556 11.4987 20.991C11.6538 21.2109 11.9592 21.3117 12.2118 21.2112C12.3648 21.159 12.4758 21.0354 12.5661 20.9064C13.014 20.3067 13.7961 19.9791 14.5377 20.0892C15.1017 20.1642 15.6261 20.4804 15.9597 20.9403C16.0419 21.0579 16.1499 21.1632 16.2879 21.2115C16.5195 21.3024 16.7985 21.2274 16.9605 21.0408C17.1954 20.7534 17.3748 20.4213 17.6322 20.1522C17.9592 19.8225 18.4368 19.6524 18.8988 19.6983C19.3323 19.7364 19.7439 19.9647 20.0076 20.3106C20.0505 20.3535 20.0844 20.4405 20.1594 20.4141C20.2422 20.3904 20.253 20.2944 20.2506 20.2221C20.2491 15.2013 20.2509 10.1808 20.2497 5.16C20.2536 4.5987 20.0682 4.03409 19.7151 3.59609C19.3878 3.18269 18.9135 2.88419 18.3936 2.78699C18.1752 2.74229 17.9514 2.75129 17.73 2.75039C13.9101 2.75069 10.0902 2.75039 6.27 2.75039C6.0933 2.75129 5.9154 2.74469 5.7396 2.76599Z" fill="#4B4B4B"/>
<path opacity="0.5" d="M5.6613 3.29189C5.985 3.15329 6.3384 3.08849 6.69 3.08999C10.26 3.09029 13.83 3.08969 17.3997 3.09029C17.9379 3.08969 18.4803 3.25949 18.9042 3.59519C19.5816 4.13369 19.9029 5.03039 19.8618 5.87999C19.8582 10.2801 19.8606 14.6799 19.8603 19.08C19.8534 19.2621 19.8861 19.4499 19.8303 19.6269C19.6224 19.4622 19.4943 19.2189 19.2888 19.0518C19.1238 18.9306 18.9048 18.9189 18.7095 18.9528C18.4752 18.9999 18.249 19.1094 18.084 19.2846C17.8635 19.524 17.6166 19.737 17.3874 19.9677C17.2797 20.0802 17.184 20.2068 17.0532 20.2947C16.8618 20.4321 16.6173 20.4897 16.3848 20.4531C16.0728 20.4075 15.8037 20.2119 15.6075 19.9728C15.4557 19.7811 15.2139 19.6977 14.9871 19.6335C14.4858 19.5111 13.9476 19.5324 13.4586 19.6983C13.2054 19.7871 12.9588 19.9257 12.7953 20.1441C12.6318 20.3577 12.4497 20.5806 12.1902 20.6784C11.9907 20.754 11.7651 20.6886 11.607 20.5542C11.4075 20.4024 11.2986 20.1594 11.0832 20.0259C10.6989 19.7769 10.2312 19.695 9.7803 19.6827C9.3969 19.6848 8.994 19.7358 8.6631 19.9437C8.4954 20.0439 8.403 20.2239 8.2554 20.3469C8.0487 20.5239 7.7706 20.6079 7.5003 20.5905C7.1223 20.5716 6.7653 20.3748 6.5253 20.0859C6.3666 19.8915 6.2295 19.6809 6.0753 19.4832C5.9094 19.2747 5.6154 19.2555 5.3694 19.2714C5.0538 19.3026 4.7343 19.404 4.4835 19.6029C4.3443 19.7067 4.2822 19.9005 4.1112 19.9605C4.0437 19.692 4.1322 19.4145 4.1334 19.1424C4.1481 18.492 4.1361 17.8407 4.14 17.19C4.1388 13.4199 4.1421 9.64979 4.1385 5.87969C4.1124 5.35619 4.2333 4.82609 4.4853 4.36649C4.7457 3.89279 5.1615 3.50189 5.6613 3.29189ZM9.5715 7.38329C9.3783 7.51649 9.2526 7.74449 9.2487 7.97969C9.2427 8.18369 9.3264 8.38649 9.4695 8.53139C9.9534 9.02159 10.4472 9.50219 10.9275 9.99539C10.8624 10.08 10.7853 10.1547 10.7082 10.2285C10.3629 10.5732 10.0188 10.9188 9.6732 11.2632C9.5793 11.3592 9.4791 11.4495 9.3969 11.556C9.2706 11.7186 9.2244 11.9361 9.2595 12.1374C9.3162 12.438 9.5715 12.6924 9.8748 12.7401C10.1013 12.7797 10.3434 12.7086 10.5102 12.5496C11.0112 12.0612 11.4951 11.5548 12 11.0703C12.4782 11.5314 12.9414 12.0084 13.413 12.477C13.5522 12.6264 13.7397 12.7401 13.9482 12.7488C14.3199 12.7818 14.6913 12.492 14.7387 12.12C14.7726 11.8956 14.7117 11.6535 14.5479 11.4915C14.1588 11.1009 13.7679 10.7118 13.3785 10.3218C13.2741 10.215 13.1598 10.1169 13.0725 9.99509C13.5483 9.50699 14.0361 9.03059 14.5158 8.54669C14.6328 8.43119 14.715 8.28029 14.742 8.11769C14.7897 7.84619 14.6658 7.55639 14.4438 7.39559C14.235 7.23839 13.9398 7.20569 13.7013 7.31159C13.515 7.39229 13.3866 7.55639 13.2432 7.69319C12.8265 8.10569 12.4182 8.52749 11.9961 8.93429C11.5665 8.51729 11.1489 8.08799 10.7232 7.66679C10.6005 7.54979 10.4937 7.40939 10.3398 7.33169C10.1004 7.20509 9.7923 7.22849 9.5715 7.38329ZM7.3296 14.7702C7.1289 14.8164 6.9495 14.949 6.8475 15.1284C6.7272 15.3372 6.7164 15.6063 6.8238 15.8229C6.9444 16.077 7.2147 16.2555 7.4982 16.2504C10.3989 16.2501 13.2996 16.2504 16.2 16.2504C16.3359 16.2489 16.4724 16.2579 16.608 16.2429C16.9506 16.1994 17.2362 15.8871 17.2491 15.5418C17.2656 15.3045 17.1579 15.0645 16.9719 14.9172C16.8327 14.8002 16.6497 14.7474 16.4697 14.7501C13.4898 14.7504 10.5099 14.7507 7.5303 14.7501C7.4628 14.7516 7.3953 14.7555 7.3296 14.7702Z" fill="#4B4B4B"/>
</svg>
