<svg width="24" height="24" viewBox="0 0 24 24" fill="none" xmlns="http://www.w3.org/2000/svg">
<path d="M8.8296 1.27378C10.3158 1.23778 11.8029 1.25428 13.2894 1.25068C14.7315 1.26238 16.1796 1.25638 17.6124 1.44298C18.654 1.58368 19.7136 1.86448 20.5674 2.50348C21.333 3.06538 21.8931 3.88108 22.1931 4.77808C22.5957 5.97178 22.6659 7.24288 22.7157 8.49178C22.767 10.2012 22.7457 11.9118 22.7475 13.6218C22.7355 14.9424 22.7301 16.2678 22.5612 17.5797C22.4259 18.597 22.1622 19.6305 21.5607 20.4789C21.0225 21.2481 20.2341 21.8274 19.3536 22.1454C18.231 22.5558 17.025 22.6452 15.8406 22.7031C14.1615 22.7703 12.4806 22.7436 10.8003 22.7496C9.3849 22.7391 7.9644 22.7445 6.5565 22.5789C5.5347 22.4526 4.4949 22.2105 3.6267 21.633C2.8542 21.1239 2.2551 20.3676 1.9146 19.5093C1.6386 18.8268 1.4991 18.0981 1.4124 17.3697C1.2558 15.9858 1.26 14.5908 1.2504 13.2C1.2555 11.6301 1.2342 10.0599 1.284 8.49058C1.3116 7.70338 1.3584 6.91498 1.4799 6.13618C1.5891 5.44978 1.7625 4.76638 2.0712 4.14058C2.4345 3.39958 3.0033 2.76028 3.7011 2.31898C4.272 1.95508 4.9194 1.72828 5.5782 1.58488C6.6456 1.35538 7.7412 1.30618 8.8296 1.27378ZM8.8593 2.77378C7.9425 2.80078 7.0215 2.83948 6.1179 3.00568C5.6073 3.10258 5.0982 3.24538 4.6434 3.50248C4.1946 3.75478 3.8121 4.12468 3.5475 4.56658C3.2979 4.97938 3.1491 5.44468 3.0468 5.91388C2.8986 6.60898 2.8413 7.31938 2.8047 8.02798C2.7399 9.40108 2.7531 10.7763 2.7507 12.1503C2.7507 13.1613 2.7486 14.1723 2.775 15.183C2.796 15.9225 2.8299 16.6629 2.9277 17.3967C3.0069 17.9712 3.1242 18.5475 3.3621 19.0794C3.5583 19.5192 3.8544 19.9158 4.2309 20.2176C4.5993 20.5179 5.0409 20.715 5.4948 20.8473C6.0987 21.0216 6.7254 21.099 7.3503 21.1515C8.6967 21.2547 10.0488 21.2451 11.3982 21.2493C12.9294 21.2451 14.4615 21.2664 15.9915 21.1941C16.7004 21.1566 17.4114 21.0993 18.1062 20.9484C18.5823 20.8434 19.0545 20.6892 19.4703 20.4297C19.914 20.1549 20.2821 19.7607 20.5281 19.3005C20.7534 18.882 20.8875 18.4209 20.9799 17.9562C21.1104 17.2887 21.1632 16.6092 21.1974 15.9309C21.2634 14.4717 21.246 13.0107 21.2493 11.5506C21.2466 10.2393 21.2547 8.92678 21.1713 7.61758C21.1293 7.00978 21.0663 6.40108 20.9289 5.80648C20.8194 5.33998 20.6592 4.87888 20.3952 4.47568C20.1189 4.04908 19.7298 3.69718 19.2804 3.46048C18.8082 3.21088 18.2853 3.07558 17.7621 2.98408C17.1078 2.87158 16.4442 2.82538 15.7815 2.79568C14.8911 2.75788 13.9995 2.75398 13.1082 2.75068C11.6919 2.75398 10.2753 2.73958 8.8593 2.77378Z" fill="#4B4B4B"/>
<path opacity="0.5" d="M8.88764 11.2597C9.36434 11.2405 9.84254 11.2567 10.3195 11.2513C11.8804 11.2516 13.4413 11.251 15.0022 11.2516C15.2119 11.2504 15.4192 11.3437 15.5581 11.5006C15.748 11.7058 15.8023 12.0214 15.697 12.2797C15.5881 12.5581 15.3016 12.7552 15.0019 12.751C13.0615 12.7516 11.1208 12.751 9.18044 12.7513C9.04124 12.751 8.89754 12.7606 8.76374 12.7135C8.46374 12.6175 8.24444 12.3166 8.25014 12.0007C8.24264 11.641 8.53124 11.3065 8.88764 11.2597Z" fill="#4B4B4B"/>
</svg>
