<svg width="24" height="24" viewBox="0 0 24 24" fill="none" xmlns="http://www.w3.org/2000/svg">
<g clip-path="url(#clip0_27038_11315)">
<path d="M11.7108 0.253516C13.3158 0.213916 14.9292 0.503416 16.4166 1.10882C18.4434 1.92812 20.2278 3.33062 21.5112 5.09942C22.8567 6.93992 23.6379 9.18302 23.739 11.46C23.8434 13.6563 23.3151 15.8781 22.2282 17.7897C21.309 19.4118 19.9977 20.8086 18.4386 21.831C16.6179 23.0319 14.4549 23.7021 12.2745 23.7471C10.0116 23.8059 7.7358 23.1909 5.8149 21.9921C4.0443 20.8962 2.5716 19.3224 1.6035 17.4783C1.0164 16.3656 0.607497 15.1581 0.404997 13.9161C0.0389974 11.6889 0.322197 9.35672 1.2327 7.29032C1.9311 5.69132 2.994 4.25522 4.3131 3.11372C5.4135 2.16032 6.6918 1.41182 8.0649 0.926416C9.2343 0.510316 10.47 0.282316 11.7108 0.253516ZM11.7096 1.75412C9.9657 1.79912 8.2359 2.30282 6.7404 3.20042C5.6835 3.83402 4.7415 4.65872 3.975 5.62352C2.6853 7.23572 1.905 9.24752 1.773 11.3079C1.6527 13.0659 1.9908 14.8539 2.7597 16.4403C3.1764 17.3076 3.7155 18.1164 4.3587 18.8319C5.7204 20.3598 7.5492 21.4668 9.5379 21.9534C10.9194 22.2942 12.3714 22.3413 13.773 22.0977C15.7506 21.7593 17.6151 20.8113 19.0653 19.4262C20.5647 18.0075 21.6165 16.1244 22.0347 14.1027C22.3272 12.702 22.3239 11.2398 22.0221 9.84122C21.7959 8.79272 21.4068 7.77902 20.8665 6.85202C19.8117 5.03702 18.1884 3.55742 16.2789 2.68352C14.8551 2.02562 13.2768 1.70912 11.7096 1.75412Z" fill="#4B4B4B"/>
<path opacity="0.5" d="M11.3232 2.57342C12.9591 2.45642 14.6256 2.76872 16.1019 3.48452C17.8191 4.31012 19.2723 5.66942 20.2146 7.32452C20.8239 8.39252 21.2187 9.58142 21.3747 10.8009C21.6621 13.011 21.1362 15.3177 19.9062 17.1777C18.822 18.8361 17.2038 20.1402 15.3492 20.8392C13.0716 21.7089 10.455 21.6477 8.223 20.6652C6.5076 19.9176 5.0241 18.6486 4.0227 17.0676C3.3144 15.9534 2.8392 14.6898 2.6511 13.3824C2.3394 11.2914 2.7507 9.09662 3.8178 7.26962C4.7823 5.60102 6.2676 4.23722 8.0175 3.42812C9.0555 2.94572 10.1814 2.65292 11.3232 2.57342ZM9.2469 11.3793C9.0279 11.4408 8.8476 11.6262 8.7966 11.8485C8.7453 12.0549 8.8053 12.2847 8.9517 12.4392C9.0705 12.5691 9.2448 12.6441 9.4206 12.6444C11.1105 12.6459 12.8001 12.6438 14.49 12.6453C14.6163 12.6486 14.7471 12.6384 14.8608 12.5787C15.0957 12.4656 15.2481 12.2016 15.2181 11.9412C15.2001 11.6973 15.0273 11.4765 14.7978 11.3946C14.6616 11.3415 14.5134 11.3595 14.3709 11.3571C12.7704 11.3547 11.1699 11.3547 9.5694 11.3562C9.4617 11.3601 9.3522 11.3523 9.2469 11.3793Z" fill="#4B4B4B"/>
</g>
<defs>
<clipPath id="clip0_27038_11315">
<rect width="24" height="24" fill="white"/>
</clipPath>
</defs>
</svg>
