<svg width="24" height="24" viewBox="0 0 24 24" fill="none" xmlns="http://www.w3.org/2000/svg">
<g clip-path="url(#clip0_35569_35218)">
<mask id="mask0_35569_35218" style="mask-type:luminance" maskUnits="userSpaceOnUse" x="0" y="0" width="24" height="24">
<path d="M24 0H0V24H24V0Z" fill="white"/>
</mask>
<g mask="url(#mask0_35569_35218)">
<mask id="mask1_35569_35218" style="mask-type:luminance" maskUnits="userSpaceOnUse" x="0" y="0" width="24" height="24">
<path d="M24 0H0V24H24V0Z" fill="white"/>
</mask>
<g mask="url(#mask1_35569_35218)">
<path d="M9.69853 0.57847C11.0557 0.56557 12.4126 0.57037 13.7698 0.57427C15.2515 0.58837 16.7404 0.59197 18.2095 0.80947C19.1812 0.95647 20.1562 1.23487 20.9749 1.79587C21.7498 2.32567 22.3567 3.09127 22.7074 3.96127C23.1673 5.08147 23.284 6.30277 23.3608 7.50037C23.4469 9.17887 23.4235 10.8607 23.4316 12.5407C23.4217 14.0602 23.4376 15.5821 23.32 17.098C23.2249 18.1858 23.0674 19.2928 22.597 20.2894C22.2256 21.0907 21.6247 21.7813 20.8861 22.2649C20.1295 22.7626 19.2418 23.0194 18.3562 23.1697C17.2069 23.356 16.0402 23.3914 14.878 23.4166C13.3087 23.4397 11.7388 23.4283 10.1692 23.4283C8.77663 23.4142 7.37833 23.4052 5.99503 23.2225C4.89133 23.0725 3.77023 22.7713 2.86663 22.0927C2.08423 21.5098 1.49953 20.6785 1.18363 19.7578C0.767224 18.5695 0.677224 17.2999 0.618124 16.0516C0.572224 14.9218 0.572524 13.7905 0.569824 12.6598C0.571624 11.2999 0.562024 9.93967 0.597124 8.58007C0.622024 7.70767 0.661924 6.83407 0.782224 5.96887C0.888124 5.21677 1.05643 4.46557 1.37503 3.77257C1.73713 2.96647 2.32603 2.26477 3.06073 1.77307C3.61903 1.39177 4.25893 1.14757 4.91173 0.98347C5.61133 0.80977 6.32983 0.72547 7.04773 0.67027C7.92973 0.60487 8.81443 0.58747 9.69853 0.57847ZM9.36733 2.08207C8.25133 2.10157 7.13083 2.12587 6.02473 2.29087C5.46433 2.37727 4.90543 2.50687 4.38763 2.74207C3.87913 2.97487 3.42763 3.33427 3.09553 3.78487C2.81233 4.16947 2.62273 4.61587 2.49193 5.07337C2.34463 5.59147 2.26573 6.12637 2.20903 6.66127C2.12563 7.48807 2.10103 8.31967 2.08483 9.15007C2.06203 10.6198 2.07103 12.0898 2.07163 13.5598C2.08423 14.9095 2.08273 16.2637 2.23933 17.6065C2.31583 18.2287 2.43163 18.8518 2.66533 19.4359C2.86483 19.9435 3.18643 20.404 3.60043 20.7598C4.31023 21.3691 5.25073 21.6001 6.15553 21.7306C7.00843 21.8494 7.87003 21.8836 8.72983 21.9079C10.2697 21.9433 11.8099 21.9256 13.3498 21.9301C14.6596 21.9232 15.9721 21.9202 17.2771 21.7969C17.959 21.7297 18.6442 21.6262 19.2904 21.3904C20.0806 21.1195 20.7721 20.5534 21.1597 19.8097C21.4102 19.3408 21.5554 18.823 21.6541 18.3028C21.7951 17.5393 21.8521 16.7635 21.8833 15.9889C21.9421 14.3908 21.9295 12.7912 21.9298 11.1922C21.9217 9.85087 21.9322 8.50777 21.8359 7.16917C21.7777 6.45427 21.6991 5.73547 21.4996 5.04427C21.3661 4.59037 21.1777 4.14607 20.8906 3.76687C20.5891 3.36637 20.197 3.03247 19.747 2.81017C19.1839 2.52067 18.5584 2.38057 17.9365 2.28517C16.5577 2.08837 15.1615 2.08837 13.7719 2.07427C12.3037 2.06977 10.8355 2.06467 9.36733 2.08207Z" fill="#4B4B4B"/>
<path opacity="0.5" d="M9.45986 2.65392C10.7868 2.63352 12.114 2.64102 13.4409 2.64222C14.3706 2.65092 15.3012 2.65362 16.2288 2.72172C17.2002 2.79732 18.1977 2.91432 19.0806 3.35442C19.5867 3.61002 20.0313 3.98802 20.3616 4.44912C20.6553 4.85952 20.8524 5.33142 20.9838 5.81682C21.1323 6.36552 21.2079 6.93132 21.2577 7.49682C21.3705 8.89512 21.3564 10.2994 21.36 11.701C21.3555 13.2013 21.3786 14.7031 21.2811 16.2013C21.2055 17.2042 21.084 18.2365 20.6148 19.1422C20.3769 19.5919 20.04 19.9888 19.6365 20.2987C19.2054 20.6302 18.6957 20.8447 18.1737 20.9869C17.5782 21.1468 16.9635 21.2215 16.35 21.2695C15.0021 21.3715 13.6491 21.3541 12.2985 21.3601C10.7493 21.3553 9.19766 21.3808 7.65116 21.2701C6.99176 21.2203 6.33116 21.1348 5.69516 20.9488C5.26646 20.824 4.85186 20.6419 4.48466 20.3866C4.05116 20.0836 3.68666 19.6822 3.42866 19.2205C3.18506 18.7858 3.03176 18.3058 2.92826 17.8201C2.81726 17.2963 2.75936 16.7632 2.72096 16.2298C2.66036 15.331 2.64596 14.4301 2.64176 13.5295C2.64266 12.2998 2.63486 11.0701 2.64716 9.84072C2.65556 9.17892 2.67206 8.51742 2.71466 7.85712C2.75996 7.19922 2.83046 6.53982 2.99456 5.89962C3.11306 5.43312 3.29096 4.97802 3.55406 4.57302C3.85826 4.10712 4.27526 3.71562 4.75916 3.44082C5.24096 3.16662 5.77856 3.00612 6.32036 2.90052C7.35446 2.70582 8.41046 2.67672 9.45986 2.65392ZM9.22436 11.3593C8.95406 11.4184 8.73656 11.6638 8.71586 11.9407C8.68616 12.2194 8.85776 12.5011 9.11636 12.6067C9.27806 12.6781 9.45806 12.6544 9.62966 12.6583C11.2998 12.658 12.9699 12.6589 14.6403 12.6577C14.9751 12.6607 15.2802 12.3646 15.2865 12.0295C15.3123 11.6749 14.997 11.3371 14.6403 11.344C13.2606 11.3437 11.8809 11.344 10.5012 11.344C10.0758 11.3521 9.64856 11.3233 9.22436 11.3593Z" fill="#4B4B4B"/>
</g>
</g>
</g>
<defs>
<clipPath id="clip0_35569_35218">
<rect width="24" height="24" fill="white"/>
</clipPath>
</defs>
</svg>
