<svg width="24" height="24" viewBox="0 0 24 24" fill="none" xmlns="http://www.w3.org/2000/svg">
<g clip-path="url(#clip0_27038_11313)">
<path d="M9.6987 0.578409C11.0559 0.565509 12.4128 0.570309 13.77 0.574209C15.2517 0.588309 16.7406 0.591909 18.2097 0.809409C19.1814 0.956409 20.1564 1.23481 20.9751 1.79581C21.75 2.32561 22.3569 3.09121 22.7076 3.96121C23.1675 5.08141 23.2842 6.30271 23.361 7.50031C23.4471 9.17881 23.4237 10.8606 23.4318 12.5406C23.4219 14.0601 23.4378 15.582 23.3202 17.0979C23.2251 18.1857 23.0676 19.2927 22.5972 20.2893C22.2258 21.0906 21.6249 21.7812 20.8863 22.2648C20.1297 22.7625 19.242 23.0193 18.3564 23.1696C17.2071 23.3559 16.0404 23.3913 14.8782 23.4165C13.3089 23.4396 11.739 23.4282 10.1694 23.4282C8.7768 23.4141 7.3785 23.4051 5.9952 23.2224C4.8915 23.0724 3.7704 22.7712 2.8668 22.0926C2.0844 21.5097 1.4997 20.6784 1.1838 19.7577C0.7674 18.5694 0.6774 17.2998 0.6183 16.0515C0.5724 14.9217 0.5727 13.7904 0.57 12.6597C0.5718 11.2998 0.5622 9.93961 0.5973 8.58001C0.6222 7.70761 0.6621 6.83401 0.7824 5.96881C0.8883 5.21671 1.0566 4.46551 1.3752 3.77251C1.7373 2.96641 2.3262 2.26471 3.0609 1.77301C3.6192 1.39171 4.2591 1.14751 4.9119 0.983409C5.6115 0.809709 6.33 0.725409 7.0479 0.670209C7.9299 0.604809 8.8146 0.587409 9.6987 0.578409ZM9.3675 2.08201C8.2515 2.10151 7.131 2.12581 6.0249 2.29081C5.4645 2.37721 4.9056 2.50681 4.3878 2.74201C3.8793 2.97481 3.4278 3.33421 3.0957 3.78481C2.8125 4.16941 2.6229 4.61581 2.4921 5.07331C2.3448 5.59141 2.2659 6.12631 2.2092 6.66121C2.1258 7.48801 2.1012 8.31961 2.085 9.15001C2.0622 10.6197 2.0712 12.0897 2.0718 13.5597C2.0844 14.9094 2.0829 16.2636 2.2395 17.6064C2.316 18.2286 2.4318 18.8517 2.6655 19.4358C2.865 19.9434 3.1866 20.4039 3.6006 20.7597C4.3104 21.369 5.2509 21.6 6.1557 21.7305C7.0086 21.8493 7.8702 21.8835 8.73 21.9078C10.2699 21.9432 11.8101 21.9255 13.35 21.93C14.6598 21.9231 15.9723 21.9201 17.2773 21.7968C17.9592 21.7296 18.6444 21.6261 19.2906 21.3903C20.0808 21.1194 20.7723 20.5533 21.1599 19.8096C21.4104 19.3407 21.5556 18.8229 21.6543 18.3027C21.7953 17.5392 21.8523 16.7634 21.8835 15.9888C21.9423 14.3907 21.9297 12.7911 21.93 11.1921C21.9219 9.85081 21.9324 8.50771 21.8361 7.16911C21.7779 6.45421 21.6993 5.73541 21.4998 5.04421C21.3663 4.59031 21.1779 4.14601 20.8908 3.76681C20.5893 3.36631 20.1972 3.03241 19.7472 2.81011C19.1841 2.52061 18.5586 2.38051 17.9367 2.28511C16.5579 2.08831 15.1617 2.08831 13.7721 2.07421C12.3039 2.06971 10.8357 2.06461 9.3675 2.08201Z" fill="#4B4B4B"/>
<path opacity="0.5" d="M9.4599 2.6538C10.7868 2.6334 12.114 2.6409 13.4409 2.6421C14.3706 2.6508 15.3012 2.6535 16.2288 2.7216C17.2002 2.7972 18.1977 2.9142 19.0806 3.3543C19.5867 3.6099 20.0313 3.9879 20.3616 4.449C20.6553 4.8594 20.8524 5.3313 20.9838 5.8167C21.1323 6.3654 21.2079 6.9312 21.2577 7.4967C21.3705 8.895 21.3564 10.2993 21.36 11.7009C21.3555 13.2012 21.3786 14.703 21.2811 16.2012C21.2055 17.2041 21.084 18.2364 20.6148 19.1421C20.3769 19.5918 20.04 19.9887 19.6365 20.2986C19.2054 20.6301 18.6957 20.8446 18.1737 20.9868C17.5782 21.1467 16.9635 21.2214 16.35 21.2694C15.0021 21.3714 13.6491 21.354 12.2985 21.36C10.7493 21.3552 9.1977 21.3807 7.6512 21.27C6.9918 21.2202 6.3312 21.1347 5.6952 20.9487C5.2665 20.8239 4.8519 20.6418 4.4847 20.3865C4.0512 20.0835 3.6867 19.6821 3.4287 19.2204C3.1851 18.7857 3.0318 18.3057 2.9283 17.82C2.8173 17.2962 2.7594 16.7631 2.721 16.2297C2.6604 15.3309 2.646 14.43 2.6418 13.5294C2.6427 12.2997 2.6349 11.07 2.6472 9.8406C2.6556 9.1788 2.6721 8.5173 2.7147 7.857C2.76 7.1991 2.8305 6.5397 2.9946 5.8995C3.1131 5.433 3.291 4.9779 3.5541 4.5729C3.8583 4.107 4.2753 3.7155 4.7592 3.4407C5.241 3.1665 5.7786 3.006 6.3204 2.9004C7.3545 2.7057 8.4105 2.6766 9.4599 2.6538ZM9.2244 11.3592C8.9541 11.4183 8.7366 11.6637 8.7159 11.9406C8.6862 12.2193 8.8578 12.501 9.1164 12.6066C9.2781 12.678 9.4581 12.6543 9.6297 12.6582C11.2998 12.6579 12.9699 12.6588 14.6403 12.6576C14.9751 12.6606 15.2802 12.3645 15.2865 12.0294C15.3123 11.6748 14.997 11.337 14.6403 11.3439C13.2606 11.3436 11.8809 11.3439 10.5012 11.3439C10.0758 11.352 9.6486 11.3232 9.2244 11.3592Z" fill="#4B4B4B"/>
</g>
<defs>
<clipPath id="clip0_27038_11313">
<rect width="24" height="24" fill="white"/>
</clipPath>
</defs>
</svg>
