<svg width="24" height="24" viewBox="0 0 24 24" fill="none" xmlns="http://www.w3.org/2000/svg">
<path d="M11.1742 1.28145C12.8215 1.15545 14.4982 1.40865 16.0294 2.03115C17.9446 2.80245 19.6237 4.14285 20.8072 5.83425C22.069 7.62375 22.7572 9.80835 22.7497 11.998C22.7572 14.1025 22.1239 16.2037 20.953 17.9527C19.789 19.7056 18.0997 21.1051 16.1578 21.9166C13.9777 22.8373 11.4907 22.9993 9.2071 22.384C7.2799 21.8698 5.5075 20.8003 4.1479 19.3423C2.5552 17.6488 1.5373 15.4255 1.3066 13.1116C1.1764 11.8381 1.2706 10.5409 1.5916 9.30135C1.8847 8.16645 2.3671 7.08075 3.0118 6.10155C4.3432 4.06665 6.3838 2.50605 8.7013 1.76595C9.5026 1.50765 10.3348 1.34505 11.1742 1.28145ZM11.2345 2.78175C9.8215 2.89545 8.4373 3.34275 7.2244 4.07685C5.6542 5.02215 4.3762 6.44475 3.6064 8.10825C3.058 9.28635 2.7658 10.582 2.7511 11.881C2.7295 13.3726 3.0745 14.8684 3.7549 16.1965C4.6939 18.0499 6.2785 19.5658 8.1712 20.4229C10.2718 21.3868 12.7378 21.5122 14.9281 20.7775C15.94 20.4397 16.8922 19.9249 17.7286 19.2634C19.1992 18.1054 20.3074 16.4929 20.8498 14.7004C21.2548 13.3741 21.3526 11.9563 21.1426 10.5862C20.9719 9.46635 20.59 8.37975 20.0257 7.39785C19.0774 5.74275 17.6053 4.39335 15.8713 3.59715C14.431 2.92905 12.8158 2.65065 11.2345 2.78175Z" fill="#4B4B4B"/>
<path opacity="0.5" d="M8.88608 11.2601C9.36278 11.2403 9.84068 11.2568 10.318 11.2514C11.8792 11.2517 13.4407 11.2511 15.0019 11.2517C15.22 11.2499 15.4345 11.3513 15.574 11.5187C15.7666 11.741 15.8053 12.0806 15.6688 12.341C15.5458 12.5879 15.2779 12.7547 15.0013 12.7511C13.0006 12.7514 10.9996 12.7517 8.99888 12.7511C8.78798 12.7526 8.58008 12.6587 8.44088 12.5006C8.26958 12.314 8.20778 12.0365 8.27918 11.7938C8.35568 11.5184 8.60258 11.3 8.88608 11.2601Z" fill="#4B4B4B"/>
</svg>
