<svg width="24" height="24" viewBox="0 0 24 24" fill="none" xmlns="http://www.w3.org/2000/svg">
<path d="M5.532 1.28011C5.7069 1.25671 5.8836 1.25041 6.06 1.25041C9.8898 1.25071 13.7199 1.25041 17.5497 1.25071C17.901 1.25221 18.2556 1.23721 18.603 1.30021C19.4853 1.44511 20.3001 1.93351 20.8608 2.62741C21.2532 3.10891 21.5277 3.68461 21.6585 4.29151C21.7806 4.81201 21.7443 5.34991 21.75 5.87971C21.75 10.59 21.75 15.3 21.75 20.01C21.7503 20.2215 21.7584 20.4363 21.7083 20.6436C21.5943 21.1791 21.1896 21.6402 20.6733 21.8229C20.1513 22.0182 19.5282 21.9117 19.1079 21.543C18.99 21.45 18.9042 21.3261 18.8052 21.2151C18.7641 21.1674 18.6927 21.1962 18.6666 21.2445C18.4989 21.4689 18.3438 21.7029 18.1746 21.9264C17.8248 22.3815 17.2842 22.6848 16.7121 22.7394C16.0551 22.8108 15.3753 22.5468 14.934 22.0557C14.811 21.9282 14.73 21.7581 14.5746 21.6639C14.3811 21.5388 14.1168 21.5385 13.9242 21.6648C13.7943 21.7431 13.7175 21.8775 13.6224 21.9909C13.2285 22.4661 12.6186 22.7538 12.0006 22.7499C11.3967 22.7541 10.8003 22.4799 10.4058 22.0239C10.2969 21.903 10.2183 21.7503 10.0749 21.6645C9.888 21.543 9.6336 21.5379 9.4428 21.6537C9.3285 21.7167 9.2508 21.8238 9.1743 21.9258C8.8257 22.3821 8.2836 22.6845 7.7118 22.7394C7.1409 22.8 6.5508 22.6119 6.1182 22.2351C5.7819 21.9498 5.5812 21.5472 5.3034 21.2124C5.2416 21.153 5.1735 21.2262 5.139 21.2781C4.8885 21.6189 4.4982 21.855 4.0773 21.9057C3.5823 21.9738 3.0648 21.7881 2.7177 21.4308C2.4177 21.1281 2.2509 20.7042 2.2503 20.2794C2.2497 15.2895 2.2503 10.2996 2.25 5.30941C2.2491 5.05051 2.2545 4.79041 2.2965 4.53421C2.4345 3.61531 2.9046 2.74681 3.6117 2.14201C4.1502 1.67641 4.8255 1.37011 5.532 1.28011ZM5.6547 2.77831C5.1168 2.86651 4.6224 3.16951 4.2849 3.59551C3.9324 4.03441 3.7458 4.59811 3.7506 5.16001C3.7488 10.1796 3.7512 15.1992 3.7494 20.2188C3.7539 20.2737 3.7464 20.3415 3.7914 20.3829C3.8244 20.415 3.8886 20.4399 3.9222 20.3943C4.0023 20.304 4.071 20.2035 4.1619 20.1231C4.5096 19.7904 5.0145 19.6335 5.4897 19.7094C5.8974 19.7691 6.2751 19.9977 6.5217 20.3271C6.6876 20.5518 6.8445 20.7834 7.0116 21.0075C7.1817 21.2358 7.5186 21.3198 7.7721 21.1845C7.9608 21.0984 8.0505 20.9019 8.1882 20.7594C8.5953 20.3097 9.2025 20.049 9.8097 20.0706C10.434 20.0838 11.0418 20.3949 11.4216 20.8899C11.5095 21.0111 11.6061 21.1356 11.7486 21.1947C12.0066 21.3198 12.3366 21.2229 12.5004 20.9919C12.7242 20.6757 13.0275 20.4141 13.3824 20.256C13.8897 20.0244 14.4894 20.0082 15.009 20.2107C15.4083 20.3619 15.7524 20.6424 15.9984 20.9901C16.1613 21.2232 16.4934 21.3204 16.7517 21.1941C16.9575 21.1071 17.061 20.8992 17.1888 20.7303C17.3511 20.514 17.4882 20.274 17.6934 20.094C18.0027 19.815 18.4257 19.668 18.8415 19.6938C19.2882 19.7172 19.7202 19.941 19.9947 20.2944C20.0319 20.3361 20.0601 20.3907 20.1108 20.418C20.1744 20.4285 20.2371 20.3739 20.244 20.3112C20.2563 20.2107 20.2491 20.1096 20.25 20.0088C20.2497 15.069 20.2503 10.1292 20.2497 5.18941C20.2587 4.64641 20.0928 4.09891 19.767 3.66271C19.4607 3.24751 19.0116 2.93551 18.5091 2.81221C18.1473 2.71801 17.7705 2.76031 17.4012 2.75071C13.6104 2.75071 9.8199 2.75101 6.0291 2.75071C5.904 2.75071 5.7783 2.75761 5.6547 2.77831Z" fill="#4B4B4B"/>
<path opacity="0.5" d="M9.52405 7.42044C9.74095 7.23714 10.0653 7.19814 10.3203 7.32144C10.419 7.36584 10.5015 7.43754 10.5759 7.51464C11.0499 7.99044 11.5254 8.46474 12.0003 8.93964C12.4506 8.48964 12.9006 8.03964 13.3506 7.58964C13.4259 7.51524 13.4964 7.43394 13.5852 7.37454C13.7841 7.24044 14.0493 7.21254 14.2725 7.30104C14.4705 7.37634 14.6316 7.54164 14.7039 7.74054C14.7846 7.95354 14.7588 8.20314 14.6376 8.39574C14.5773 8.49324 14.4906 8.56974 14.4108 8.65014C13.9608 9.10014 13.5105 9.55014 13.0608 10.0001C13.5522 10.4918 14.0439 10.9832 14.5353 11.4749C14.73 11.6669 14.8002 11.9699 14.7147 12.2291C14.6376 12.4745 14.4261 12.6707 14.1756 12.7292C13.9212 12.7934 13.6401 12.7082 13.4586 12.5204C12.9717 12.0347 12.486 11.5475 11.9994 11.0618C11.5578 11.5025 11.1171 11.9438 10.6761 12.3848C10.6005 12.4589 10.5297 12.5387 10.4454 12.6032C10.251 12.7502 9.98215 12.7898 9.75295 12.7079C9.51715 12.6281 9.32905 12.4217 9.27175 12.1793C9.21115 11.9393 9.27925 11.6705 9.44995 11.4908C9.94525 10.9934 10.443 10.4981 10.9389 10.001C10.4541 9.51594 9.96895 9.03144 9.48445 8.54634C9.34045 8.40684 9.25105 8.21154 9.25045 8.01024C9.24505 7.78494 9.34975 7.56234 9.52405 7.42044Z" fill="#4B4B4B"/>
<path opacity="0.5" d="M7.30086 14.777C7.43376 14.7401 7.57296 14.7524 7.70946 14.7509C10.5706 14.7512 13.4314 14.7512 16.2925 14.7509C16.4218 14.7521 16.5532 14.7413 16.6801 14.7716C16.9153 14.8277 17.1175 15.0059 17.2021 15.2327C17.2954 15.4718 17.254 15.7577 17.0947 15.9593C16.9501 16.1501 16.7104 16.2596 16.4716 16.2512C13.4809 16.2506 10.4902 16.2518 7.49916 16.2506C7.12476 16.2578 6.78306 15.9455 6.75456 15.5726C6.71316 15.2207 6.95856 14.8661 7.30086 14.777Z" fill="#4B4B4B"/>
</svg>
