<svg width="24" height="24" viewBox="0 0 24 24" fill="none" xmlns="http://www.w3.org/2000/svg">
<path d="M8.82952 1.27384C10.3157 1.23784 11.8028 1.25434 13.2893 1.25074C14.7314 1.26244 16.1795 1.25644 17.6123 1.44304C18.6539 1.58374 19.7135 1.86454 20.5673 2.50354C21.3329 3.06544 21.893 3.88114 22.193 4.77814C22.5956 5.97184 22.6658 7.24294 22.7156 8.49184C22.7669 10.2013 22.7456 11.9119 22.7474 13.6219C22.7354 14.9425 22.73 16.2679 22.5611 17.5798C22.4258 18.5971 22.1621 19.6306 21.5606 20.479C21.0224 21.2482 20.234 21.8275 19.3535 22.1455C18.2309 22.5559 17.0249 22.6453 15.8405 22.7032C14.1614 22.7704 12.4805 22.7437 10.8002 22.7497C9.38482 22.7392 7.96432 22.7446 6.55642 22.579C5.53462 22.4527 4.49482 22.2106 3.62662 21.6331C2.85412 21.124 2.25502 20.3677 1.91452 19.5094C1.63852 18.8269 1.49902 18.0982 1.41232 17.3698C1.25572 15.9859 1.25992 14.5909 1.25032 13.2001C1.25542 11.6302 1.23412 10.06 1.28392 8.49064C1.31152 7.70344 1.35832 6.91504 1.47982 6.13624C1.58902 5.44984 1.76242 4.76644 2.07112 4.14064C2.43442 3.39964 3.00322 2.76034 3.70102 2.31904C4.27192 1.95514 4.91932 1.72834 5.57812 1.58494C6.64552 1.35544 7.74112 1.30624 8.82952 1.27384ZM8.85922 2.77384C7.94242 2.80084 7.02142 2.83954 6.11782 3.00574C5.60722 3.10264 5.09812 3.24544 4.64332 3.50254C4.19452 3.75484 3.81202 4.12474 3.54742 4.56664C3.29782 4.97944 3.14902 5.44474 3.04672 5.91394C2.89852 6.60904 2.84122 7.31944 2.80462 8.02804C2.73982 9.40114 2.75302 10.7764 2.75062 12.1504C2.75062 13.1614 2.74852 14.1724 2.77492 15.1831C2.79592 15.9226 2.82982 16.663 2.92762 17.3968C3.00682 17.9713 3.12412 18.5476 3.36202 19.0795C3.55822 19.5193 3.85432 19.9159 4.23082 20.2177C4.59922 20.518 5.04082 20.7151 5.49472 20.8474C6.09862 21.0217 6.72532 21.0991 7.35022 21.1516C8.69662 21.2548 10.0487 21.2452 11.3981 21.2494C12.9293 21.2452 14.4614 21.2665 15.9914 21.1942C16.7003 21.1567 17.4113 21.0994 18.1061 20.9485C18.5822 20.8435 19.0544 20.6893 19.4702 20.4298C19.9139 20.155 20.282 19.7608 20.528 19.3006C20.7533 18.8821 20.8874 18.421 20.9798 17.9563C21.1103 17.2888 21.1631 16.6093 21.1973 15.931C21.2633 14.4718 21.2459 13.0108 21.2492 11.5507C21.2465 10.2394 21.2546 8.92684 21.1712 7.61764C21.1292 7.00984 21.0662 6.40114 20.9288 5.80654C20.8193 5.34004 20.6591 4.87894 20.3951 4.47574C20.1188 4.04914 19.7297 3.69724 19.2803 3.46054C18.8081 3.21094 18.2852 3.07564 17.762 2.98414C17.1077 2.87164 16.4441 2.82544 15.7814 2.79574C14.891 2.75794 13.9994 2.75404 13.1081 2.75074C11.6918 2.75404 10.2752 2.73964 8.85922 2.77384Z" fill="#4B4B4B"/>
<path opacity="0.5" d="M8.88764 11.2597C9.36434 11.2405 9.84254 11.2567 10.3195 11.2513C11.8804 11.2516 13.4413 11.251 15.0022 11.2516C15.2119 11.2504 15.4192 11.3437 15.5581 11.5006C15.748 11.7058 15.8023 12.0214 15.697 12.2797C15.5881 12.5581 15.3016 12.7552 15.0019 12.751C13.0615 12.7516 11.1208 12.751 9.18044 12.7513C9.04124 12.751 8.89754 12.7606 8.76374 12.7135C8.46374 12.6175 8.24444 12.3166 8.25014 12.0007C8.24264 11.641 8.53124 11.3065 8.88764 11.2597Z" fill="#4B4B4B"/>
</svg>
