<svg width="24" height="24" viewBox="0 0 24 24" fill="none" xmlns="http://www.w3.org/2000/svg">
<path d="M5.53209 1.27995C5.70699 1.25655 5.88369 1.25025 6.06009 1.25025C9.88989 1.25055 13.72 1.25025 17.5498 1.25055C17.9011 1.25205 18.2557 1.23705 18.6031 1.30005C19.4854 1.44495 20.3002 1.93335 20.8609 2.62725C21.2533 3.10875 21.5278 3.68445 21.6586 4.29135C21.7807 4.81185 21.7444 5.34975 21.7501 5.87955C21.7501 10.5899 21.7501 15.2999 21.7501 20.0099C21.7504 20.2214 21.7585 20.4362 21.7084 20.6435C21.5944 21.179 21.1897 21.6401 20.6734 21.8228C20.1514 22.0181 19.5283 21.9116 19.108 21.5429C18.9901 21.4499 18.9043 21.326 18.8053 21.215C18.7642 21.1673 18.6928 21.1961 18.6667 21.2444C18.499 21.4688 18.3439 21.7028 18.1747 21.9263C17.8249 22.3814 17.2843 22.6847 16.7122 22.7393C16.0552 22.8107 15.3754 22.5467 14.9341 22.0556C14.8111 21.9281 14.7301 21.758 14.5747 21.6638C14.3812 21.5387 14.1169 21.5384 13.9243 21.6647C13.7944 21.743 13.7176 21.8774 13.6225 21.9908C13.2286 22.466 12.6187 22.7537 12.0007 22.7498C11.3968 22.754 10.8004 22.4798 10.4059 22.0238C10.297 21.9029 10.2184 21.7502 10.075 21.6644C9.88809 21.5429 9.63369 21.5378 9.44289 21.6536C9.32859 21.7166 9.25089 21.8237 9.17439 21.9257C8.82579 22.382 8.28369 22.6844 7.71189 22.7393C7.14099 22.7999 6.55089 22.6118 6.11829 22.235C5.78199 21.9497 5.58129 21.5471 5.30349 21.2123C5.24169 21.1529 5.17359 21.2261 5.13909 21.278C4.88859 21.6188 4.49829 21.8549 4.07739 21.9056C3.58239 21.9737 3.06489 21.788 2.71779 21.4307C2.41779 21.128 2.25099 20.7041 2.25039 20.2793C2.24979 15.2894 2.25039 10.2995 2.25009 5.30925C2.24919 5.05035 2.25459 4.79025 2.29659 4.53405C2.43459 3.61515 2.90469 2.74665 3.61179 2.14185C4.15029 1.67625 4.82559 1.36995 5.53209 1.27995ZM5.65479 2.77815C5.11689 2.86635 4.62249 3.16935 4.28499 3.59535C3.93249 4.03425 3.74589 4.59795 3.75069 5.15985C3.74889 10.1795 3.75129 15.1991 3.74949 20.2187C3.75399 20.2736 3.74649 20.3414 3.79149 20.3828C3.82449 20.4149 3.88869 20.4398 3.92229 20.3942C4.00239 20.3039 4.07109 20.2034 4.16199 20.123C4.50969 19.7903 5.01459 19.6334 5.48979 19.7093C5.89749 19.769 6.27519 19.9976 6.52179 20.327C6.68769 20.5517 6.84459 20.7833 7.01169 21.0074C7.18179 21.2357 7.51869 21.3197 7.77219 21.1844C7.96089 21.0983 8.05059 20.9018 8.18829 20.7593C8.59539 20.3096 9.20259 20.0489 9.80979 20.0705C10.4341 20.0837 11.0419 20.3948 11.4217 20.8898C11.5096 21.011 11.6062 21.1355 11.7487 21.1946C12.0067 21.3197 12.3367 21.2228 12.5005 20.9918C12.7243 20.6756 13.0276 20.414 13.3825 20.2559C13.8898 20.0243 14.4895 20.0081 15.0091 20.2106C15.4084 20.3618 15.7525 20.6423 15.9985 20.99C16.1614 21.2231 16.4935 21.3203 16.7518 21.194C16.9576 21.107 17.0611 20.8991 17.1889 20.7302C17.3512 20.5139 17.4883 20.2739 17.6935 20.0939C18.0028 19.8149 18.4258 19.6679 18.8416 19.6937C19.2883 19.7171 19.7203 19.9409 19.9948 20.2943C20.032 20.336 20.0602 20.3906 20.1109 20.4179C20.1745 20.4284 20.2372 20.3738 20.2441 20.3111C20.2564 20.2106 20.2492 20.1095 20.2501 20.0087C20.2498 15.0689 20.2504 10.1291 20.2498 5.18925C20.2588 4.64625 20.0929 4.09875 19.7671 3.66255C19.4608 3.24735 19.0117 2.93535 18.5092 2.81205C18.1474 2.71785 17.7706 2.76015 17.4013 2.75055C13.6105 2.75055 9.81999 2.75085 6.02919 2.75055C5.90409 2.75055 5.77839 2.75745 5.65479 2.77815Z" fill="#4B4B4B"/>
<path opacity="0.5" d="M9.52405 7.42044C9.74095 7.23714 10.0653 7.19814 10.3203 7.32144C10.419 7.36584 10.5015 7.43754 10.5759 7.51464C11.0499 7.99044 11.5254 8.46474 12.0003 8.93964C12.4506 8.48964 12.9006 8.03964 13.3506 7.58964C13.4259 7.51524 13.4964 7.43394 13.5852 7.37454C13.7841 7.24044 14.0493 7.21254 14.2725 7.30104C14.4705 7.37634 14.6316 7.54164 14.7039 7.74054C14.7846 7.95354 14.7588 8.20314 14.6376 8.39574C14.5773 8.49324 14.4906 8.56974 14.4108 8.65014C13.9608 9.10014 13.5105 9.55014 13.0608 10.0001C13.5522 10.4918 14.0439 10.9832 14.5353 11.4749C14.73 11.6669 14.8002 11.9699 14.7147 12.2291C14.6376 12.4745 14.4261 12.6707 14.1756 12.7292C13.9212 12.7934 13.6401 12.7082 13.4586 12.5204C12.9717 12.0347 12.486 11.5475 11.9994 11.0618C11.5578 11.5025 11.1171 11.9438 10.6761 12.3848C10.6005 12.4589 10.5297 12.5387 10.4454 12.6032C10.251 12.7502 9.98215 12.7898 9.75295 12.7079C9.51715 12.6281 9.32905 12.4217 9.27175 12.1793C9.21115 11.9393 9.27925 11.6705 9.44995 11.4908C9.94525 10.9934 10.443 10.4981 10.9389 10.001C10.4541 9.51594 9.96895 9.03144 9.48445 8.54634C9.34045 8.40684 9.25105 8.21154 9.25045 8.01024C9.24505 7.78494 9.34975 7.56234 9.52405 7.42044Z" fill="#4B4B4B"/>
<path opacity="0.5" d="M7.30086 14.777C7.43376 14.7401 7.57296 14.7524 7.70946 14.7509C10.5706 14.7512 13.4314 14.7512 16.2925 14.7509C16.4218 14.7521 16.5532 14.7413 16.6801 14.7716C16.9153 14.8277 17.1175 15.0059 17.2021 15.2327C17.2954 15.4718 17.254 15.7577 17.0947 15.9593C16.9501 16.1501 16.7104 16.2596 16.4716 16.2512C13.4809 16.2506 10.4902 16.2518 7.49916 16.2506C7.12476 16.2578 6.78306 15.9455 6.75456 15.5726C6.71316 15.2207 6.95856 14.8661 7.30086 14.777Z" fill="#4B4B4B"/>
</svg>
