<svg width="24" height="24" viewBox="0 0 24 24" fill="none" xmlns="http://www.w3.org/2000/svg">
<path d="M5.53272 1.28067C5.70732 1.25667 5.88402 1.25157 6.06012 1.25097C9.90012 1.25097 13.7401 1.25097 17.5801 1.25097C17.9191 1.25187 18.2608 1.23957 18.5965 1.29927C19.4743 1.44237 20.2864 1.92446 20.848 2.61206C21.2425 3.09116 21.5209 3.66477 21.6538 4.27107C21.7771 4.77837 21.7465 5.30306 21.7501 5.82026C21.7501 10.6403 21.7504 15.4604 21.7498 20.2805C21.7489 20.6414 21.6286 21.0014 21.4075 21.2873C21.1024 21.6863 20.6038 21.9305 20.1007 21.9188C19.6531 21.9161 19.2145 21.7046 18.9283 21.3617C18.8812 21.3083 18.8431 21.2462 18.7879 21.2012C18.7327 21.1667 18.6817 21.2198 18.6529 21.2621C18.4915 21.482 18.3391 21.7082 18.175 21.9263C17.8123 22.3976 17.2453 22.7066 16.6507 22.7444C15.9769 22.799 15.2902 22.5005 14.8651 21.9758C14.7721 21.8603 14.6905 21.728 14.5573 21.6539C14.3605 21.5336 14.0953 21.5438 13.9072 21.6767C13.7641 21.7739 13.6837 21.9329 13.5661 22.0556C13.1719 22.4933 12.5893 22.7537 11.9998 22.7498C11.3536 22.7552 10.717 22.4393 10.3258 21.926C10.2415 21.8117 10.1503 21.6944 10.0186 21.6329C9.82062 21.5309 9.56712 21.5546 9.38982 21.689C9.29082 21.761 9.22332 21.8651 9.14802 21.9596C8.79792 22.3976 8.26812 22.6874 7.70892 22.7396C7.11012 22.8029 6.48972 22.5917 6.05382 22.1765C5.75382 21.8972 5.56452 21.5258 5.30442 21.2138C5.24262 21.1514 5.17362 21.2282 5.13882 21.2792C4.89522 21.6083 4.52232 21.8408 4.11612 21.9008C3.66012 21.9737 3.17772 21.8333 2.82792 21.533C2.46222 21.2276 2.24982 20.7554 2.25042 20.2805C2.24982 15.3704 2.25012 10.4603 2.25012 5.55026C2.25102 5.34958 2.24712 5.14917 2.25582 4.94877C2.30172 3.90237 2.77812 2.87847 3.56442 2.18397C4.11072 1.69527 4.80492 1.37277 5.53272 1.28067ZM5.73972 2.76627C5.16942 2.83557 4.63992 3.14756 4.28472 3.59606C3.93822 4.02686 3.75252 4.57888 3.75072 5.12998C3.74892 10.1609 3.75132 15.1916 3.74952 20.2223C3.74532 20.2985 3.76062 20.3969 3.84912 20.4164C3.91782 20.4359 3.95232 20.351 3.99252 20.3114C4.26162 19.9565 4.68732 19.7264 5.13192 19.6961C5.55552 19.6622 5.99022 19.8089 6.30582 20.0939C6.51192 20.2733 6.64842 20.5136 6.81072 20.7299C6.93852 20.8991 7.04202 21.1076 7.24752 21.1949C7.50612 21.3203 7.83762 21.224 8.00142 20.9912C8.21322 20.6936 8.49402 20.4422 8.82492 20.2841C9.35742 20.0189 10.0033 20 10.5523 20.228C10.9339 20.3828 11.2618 20.6558 11.4988 20.9912C11.6539 21.2111 11.9593 21.3119 12.2119 21.2114C12.3649 21.1592 12.4759 21.0356 12.5662 20.9066C13.0141 20.3069 13.7962 19.9793 14.5378 20.0894C15.1018 20.1644 15.6262 20.4806 15.9598 20.9405C16.042 21.0581 16.15 21.1634 16.288 21.2117C16.5196 21.3026 16.7986 21.2276 16.9606 21.041C17.1955 20.7536 17.3749 20.4215 17.6323 20.1524C17.9593 19.8227 18.4369 19.6526 18.8989 19.6985C19.3324 19.7366 19.744 19.9649 20.0077 20.3108C20.0506 20.3537 20.0845 20.4407 20.1595 20.4143C20.2423 20.3906 20.2531 20.2946 20.2507 20.2223C20.2492 15.2015 20.251 10.181 20.2498 5.16027C20.2537 4.59897 20.0683 4.03437 19.7152 3.59637C19.3879 3.18297 18.9136 2.88447 18.3937 2.78726C18.1753 2.74256 17.9515 2.75157 17.7301 2.75067C13.9102 2.75097 10.0903 2.75067 6.27012 2.75067C6.09342 2.75157 5.91552 2.74497 5.73972 2.76627Z" fill="#4B4B4B"/>
<path opacity="0.5" d="M5.66139 3.29177C5.98509 3.15317 6.33849 3.08837 6.69009 3.08987C10.2601 3.09017 13.8301 3.08957 17.3998 3.09017C17.938 3.08957 18.4804 3.25937 18.9043 3.59507C19.5817 4.13357 19.903 5.03027 19.8619 5.87987C19.8583 10.28 19.8607 14.6798 19.8604 19.0799C19.8535 19.262 19.8862 19.4498 19.8304 19.6268C19.6225 19.4621 19.4944 19.2188 19.2889 19.0517C19.1239 18.9305 18.9049 18.9188 18.7096 18.9527C18.4753 18.9998 18.2491 19.1093 18.0841 19.2845C17.8636 19.5239 17.6167 19.7369 17.3875 19.9676C17.2798 20.0801 17.1841 20.2067 17.0533 20.2946C16.8619 20.432 16.6174 20.4896 16.3849 20.453C16.0729 20.4074 15.8038 20.2118 15.6076 19.9727C15.4558 19.781 15.214 19.6976 14.9872 19.6334C14.4859 19.511 13.9477 19.5323 13.4587 19.6982C13.2055 19.787 12.9589 19.9256 12.7954 20.144C12.6319 20.3576 12.4498 20.5805 12.1903 20.6783C11.9908 20.7539 11.7652 20.6885 11.6071 20.5541C11.4076 20.4023 11.2987 20.1593 11.0833 20.0258C10.699 19.7768 10.2313 19.6949 9.78039 19.6826C9.39699 19.6847 8.99409 19.7357 8.66319 19.9436C8.49549 20.0438 8.40309 20.2238 8.25549 20.3468C8.04879 20.5238 7.77069 20.6078 7.50039 20.5904C7.12239 20.5715 6.76539 20.3747 6.52539 20.0858C6.36669 19.8914 6.22959 19.6808 6.07539 19.4831C5.90949 19.2746 5.61549 19.2554 5.36949 19.2713C5.05389 19.3025 4.73439 19.4039 4.48359 19.6028C4.34439 19.7066 4.28229 19.9004 4.11129 19.9604C4.04379 19.6919 4.13229 19.4144 4.13349 19.1423C4.14819 18.4919 4.13619 17.8406 4.14009 17.1899C4.13889 13.4198 4.14219 9.64967 4.13859 5.87957C4.11249 5.35607 4.23339 4.82597 4.48539 4.36637C4.74579 3.89267 5.16159 3.50177 5.66139 3.29177ZM9.57159 7.38317C9.37839 7.51637 9.25269 7.74437 9.24879 7.97957C9.24279 8.18357 9.32649 8.38637 9.46959 8.53127C9.95349 9.02147 10.4473 9.50207 10.9276 9.99527C10.8625 10.0799 10.7854 10.1546 10.7083 10.2284C10.363 10.5731 10.0189 10.9187 9.67329 11.2631C9.57939 11.3591 9.47919 11.4494 9.39699 11.5559C9.27069 11.7185 9.22449 11.936 9.25959 12.1373C9.31629 12.4379 9.57159 12.6923 9.87489 12.74C10.1014 12.7796 10.3435 12.7085 10.5103 12.5495C11.0113 12.0611 11.4952 11.5547 12.0001 11.0702C12.4783 11.5313 12.9415 12.0083 13.4131 12.4769C13.5523 12.6263 13.7398 12.74 13.9483 12.7487C14.32 12.7817 14.6914 12.4919 14.7388 12.1199C14.7727 11.8955 14.7118 11.6534 14.548 11.4914C14.1589 11.1008 13.768 10.7117 13.3786 10.3217C13.2742 10.2149 13.1599 10.1168 13.0726 9.99497C13.5484 9.50687 14.0362 9.03047 14.5159 8.54657C14.6329 8.43107 14.7151 8.28017 14.7421 8.11757C14.7898 7.84607 14.6659 7.55627 14.4439 7.39547C14.2351 7.23827 13.9399 7.20557 13.7014 7.31147C13.5151 7.39217 13.3867 7.55627 13.2433 7.69307C12.8266 8.10557 12.4183 8.52737 11.9962 8.93417C11.5666 8.51717 11.149 8.08787 10.7233 7.66667C10.6006 7.54967 10.4938 7.40927 10.3399 7.33157C10.1005 7.20497 9.79239 7.22837 9.57159 7.38317ZM7.32969 14.7701C7.12899 14.8163 6.94959 14.9489 6.84759 15.1283C6.72729 15.3371 6.71649 15.6062 6.82389 15.8228C6.94449 16.0769 7.21479 16.2554 7.49829 16.2503C10.399 16.25 13.2997 16.2503 16.2001 16.2503C16.336 16.2488 16.4725 16.2578 16.6081 16.2428C16.9507 16.1993 17.2363 15.887 17.2492 15.5417C17.2657 15.3044 17.158 15.0644 16.972 14.9171C16.8328 14.8001 16.6498 14.7473 16.4698 14.75C13.4899 14.7503 10.51 14.7506 7.53039 14.75C7.46289 14.7515 7.39539 14.7554 7.32969 14.7701Z" fill="#4B4B4B"/>
</svg>
