<svg width="24" height="24" viewBox="0 0 24 24" fill="none" xmlns="http://www.w3.org/2000/svg">
<path d="M5.53484 1.27947C5.76794 1.24767 6.00404 1.24947 6.23894 1.25037C10.1497 1.25037 14.0602 1.25007 17.9707 1.25037C18.5446 1.24467 19.1194 1.37787 19.6318 1.63677C20.3737 2.00697 20.9791 2.63367 21.3415 3.37797C21.6181 3.93837 21.7567 4.56477 21.7501 5.18967C21.751 10.1592 21.7501 15.129 21.7504 20.0988C21.7519 20.2704 21.7525 20.4438 21.715 20.6121C21.6238 21.0816 21.3121 21.5016 20.8897 21.7257C20.479 21.9501 19.9678 21.9822 19.5343 21.8034C19.2526 21.69 19.0114 21.4887 18.8338 21.2439C18.8038 21.1869 18.7171 21.1677 18.6802 21.228C18.502 21.462 18.3412 21.7092 18.1621 21.9426C17.8123 22.3887 17.2777 22.6851 16.7128 22.7391C15.9763 22.821 15.2161 22.4757 14.7865 21.8736C14.6794 21.7128 14.5075 21.5901 14.3119 21.5724C14.0905 21.5466 13.8676 21.6588 13.7407 21.8391C13.4944 22.1874 13.1461 22.4649 12.7453 22.614C12.2347 22.8087 11.6485 22.7931 11.1496 22.5705C10.7926 22.4142 10.4839 22.1559 10.2598 21.8382C10.1158 21.6315 9.84254 21.5199 9.59684 21.5892C9.43724 21.6288 9.30584 21.7404 9.21434 21.8739C8.89394 22.317 8.39744 22.6293 7.85774 22.7193C7.25774 22.8261 6.61754 22.6533 6.15074 22.2621C5.79734 21.9753 5.58944 21.5601 5.30594 21.2127C5.25284 21.1599 5.18264 21.2091 5.15294 21.2613C4.90754 21.6003 4.52684 21.8421 4.11044 21.9009C3.61334 21.9798 3.08864 21.8016 2.73404 21.4467C2.41724 21.1359 2.24444 20.6922 2.25014 20.25C2.25104 15.2199 2.24954 10.1895 2.25104 5.15907C2.24384 4.19697 2.59724 3.23547 3.23534 2.51457C3.81974 1.84407 4.65074 1.38987 5.53484 1.27947ZM5.65574 2.77767C5.00234 2.88387 4.41974 3.30867 4.09034 3.87867C3.85814 4.27347 3.74354 4.73337 3.75074 5.19057C3.74984 10.1508 3.75074 15.1107 3.75044 20.0709C3.75224 20.1597 3.74144 20.2506 3.76274 20.3379C3.78404 20.406 3.89234 20.4561 3.93614 20.3805C4.17614 20.0442 4.53944 19.7943 4.94834 19.7199C5.42594 19.6242 5.94374 19.7655 6.30524 20.0922C6.51164 20.2725 6.64874 20.5131 6.81164 20.73C6.94034 20.8989 7.04294 21.1086 7.24994 21.195C7.50824 21.3198 7.83824 21.2217 8.00204 20.9907C8.21234 20.6931 8.49344 20.4432 8.82254 20.2845C9.33584 20.0292 9.95504 20.0001 10.4908 20.2035C10.8982 20.3532 11.2498 20.6367 11.4991 20.9904C11.6494 21.2025 11.9401 21.3057 12.1882 21.2193C12.3274 21.174 12.445 21.0771 12.5275 20.9571C12.7825 20.6019 13.1482 20.3262 13.5622 20.1843C14.0344 20.0199 14.5648 20.0325 15.0289 20.2179C15.4204 20.3709 15.7576 20.6481 15.9991 20.9904C16.1662 21.2295 16.5112 21.3234 16.7713 21.1848C16.9534 21.1011 17.05 20.9181 17.1646 20.7645C17.2876 20.5974 17.4013 20.4228 17.5315 20.2608C17.8402 19.8873 18.3262 19.6698 18.8107 19.692C19.2832 19.7067 19.7416 19.9479 20.0221 20.3283C20.0563 20.3652 20.0869 20.4348 20.149 20.4165C20.2381 20.3982 20.257 20.2959 20.251 20.2191C20.2492 15.1992 20.2516 10.179 20.2498 5.15877C20.2579 4.44897 19.951 3.73557 19.4062 3.27567C19.018 2.94327 18.5122 2.74647 17.9998 2.75067C14.0206 2.75007 10.0414 2.75067 6.06254 2.75037C5.92634 2.74977 5.78984 2.75487 5.65574 2.77767Z" fill="#4B4B4B"/>
<path opacity="0.5" d="M10.4119 9.44849C11.1553 9.13919 11.9896 9.05399 12.7801 9.20699C13.1653 9.27779 13.5331 9.41759 13.8943 9.56519C14.302 9.73019 14.6971 9.96209 14.9635 10.3209C15.3688 10.2477 15.8017 10.353 16.1281 10.6044C16.4551 10.8489 16.6711 11.2338 16.7122 11.6397C16.7623 12.0768 16.6039 12.5304 16.2961 12.8439C15.9751 13.1802 15.4906 13.3482 15.0301 13.2867C14.5696 13.2309 14.1451 12.9462 13.9174 12.5421C13.6345 12.0573 13.6597 11.4156 13.9798 10.9545C13.7608 10.6962 13.4188 10.6104 13.1155 10.4931C12.5644 10.2783 11.9506 10.221 11.3716 10.3476C10.627 10.5042 9.94812 10.9566 9.52512 11.5899C9.67572 11.5287 9.82182 11.433 9.99072 11.4384C10.2115 11.4366 10.4248 11.5752 10.5127 11.7777C10.6024 11.9718 10.57 12.2145 10.432 12.3783C10.3681 12.459 10.2784 12.5142 10.1848 12.5544C9.66582 12.783 9.14922 13.0164 8.63022 13.2441C8.35152 13.3662 7.99602 13.2171 7.88652 12.9339C7.68792 12.4416 7.49202 11.9481 7.29432 11.4555C7.22892 11.3007 7.23612 11.1189 7.31442 10.9701C7.40562 10.7901 7.59852 10.6671 7.80042 10.6608C8.00712 10.6509 8.21472 10.7622 8.31852 10.9413C8.36142 11.0187 8.39052 11.1024 8.42292 11.1843C8.86992 10.4067 9.58212 9.78839 10.4119 9.44849ZM15.1051 11.2095C14.8936 11.2488 14.7118 11.4111 14.6482 11.6166C14.5822 11.8212 14.6359 12.0603 14.7877 12.2139C14.9449 12.3819 15.2035 12.444 15.4198 12.3645C15.6193 12.2964 15.7741 12.1152 15.811 11.9076C15.8479 11.7132 15.781 11.5023 15.637 11.3664C15.4993 11.2314 15.2941 11.1708 15.1051 11.2095Z" fill="#4B4B4B"/>
<path opacity="0.5" d="M7.30203 14.7765C7.41543 14.7441 7.53453 14.7504 7.65153 14.7507C10.6107 14.7513 13.5699 14.7501 16.5294 14.7516C16.9233 14.7543 17.2653 15.1158 17.2509 15.5088C17.2566 15.906 16.8999 16.2603 16.5024 16.2501C13.5519 16.2519 10.6014 16.2501 7.65093 16.251C7.50993 16.2528 7.36413 16.2549 7.23123 16.2003C6.96063 16.0989 6.76443 15.8301 6.75183 15.5412C6.72633 15.1983 6.96963 14.8626 7.30203 14.7765Z" fill="#4B4B4B"/>
</svg>
