<svg width="24" height="24" viewBox="0 0 24 24" fill="none" xmlns="http://www.w3.org/2000/svg">
<g clip-path="url(#clip0_35569_35220)">
<mask id="mask0_35569_35220" style="mask-type:luminance" maskUnits="userSpaceOnUse" x="0" y="0" width="24" height="24">
<path d="M24 0H0V24H24V0Z" fill="white"/>
</mask>
<g mask="url(#mask0_35569_35220)">
<mask id="mask1_35569_35220" style="mask-type:luminance" maskUnits="userSpaceOnUse" x="0" y="0" width="24" height="24">
<path d="M24 0H0V24H24V0Z" fill="white"/>
</mask>
<g mask="url(#mask1_35569_35220)">
<path d="M11.711 0.253577C13.316 0.213977 14.9294 0.503477 16.4168 1.10888C18.4436 1.92818 20.228 3.33068 21.5114 5.09948C22.8569 6.93998 23.6381 9.18308 23.7392 11.4601C23.8436 13.6564 23.3153 15.8782 22.2284 17.7898C21.3092 19.4119 19.9979 20.8087 18.4388 21.8311C16.6181 23.032 14.4551 23.7022 12.2747 23.7472C10.0118 23.806 7.73605 23.191 5.81515 21.9922C4.04455 20.8963 2.57185 19.3225 1.60375 17.4784C1.01665 16.3657 0.607749 15.1582 0.405249 13.9162C0.0392491 11.689 0.322449 9.35678 1.23295 7.29038C1.93135 5.69138 2.99425 4.25528 4.31335 3.11378C5.41375 2.16038 6.69204 1.41188 8.06514 0.926477C9.23454 0.510377 10.4702 0.282377 11.711 0.253577ZM11.7098 1.75418C9.96594 1.79918 8.23615 2.30288 6.74065 3.20048C5.68375 3.83408 4.74175 4.65878 3.97525 5.62358C2.68555 7.23578 1.90525 9.24758 1.77325 11.308C1.65295 13.066 1.99105 14.854 2.75995 16.4404C3.17665 17.3077 3.71574 18.1165 4.35895 18.832C5.72065 20.3599 7.54944 21.4669 9.53814 21.9535C10.9196 22.2943 12.3716 22.3414 13.7732 22.0978C15.7508 21.7594 17.6153 20.8114 19.0655 19.4263C20.5649 18.0076 21.6167 16.1245 22.0349 14.1028C22.3274 12.7021 22.3241 11.2399 22.0223 9.84128C21.7961 8.79278 21.407 7.77908 20.8667 6.85208C19.8119 5.03708 18.1886 3.55748 16.2791 2.68358C14.8553 2.02568 13.277 1.70918 11.7098 1.75418Z" fill="#4B4B4B"/>
<path opacity="0.5" d="M11.3234 2.57354C12.9593 2.45654 14.6258 2.76884 16.1021 3.48464C17.8193 4.31024 19.2725 5.66954 20.2148 7.32464C20.8241 8.39264 21.2189 9.58154 21.3749 10.801C21.6623 13.0111 21.1364 15.3178 19.9063 17.1778C18.8222 18.8362 17.204 20.1403 15.3494 20.8393C13.0718 21.709 10.4552 21.6478 8.22317 20.6653C6.50777 19.9177 5.02427 18.6487 4.02287 17.0677C3.31457 15.9535 2.83937 14.6899 2.65127 13.3825C2.33957 11.2915 2.75087 9.09674 3.81797 7.26974C4.78247 5.60114 6.26777 4.23734 8.01767 3.42824C9.05567 2.94584 10.1816 2.65304 11.3234 2.57354ZM9.24707 11.3794C9.02807 11.4409 8.84777 11.6263 8.79677 11.8486C8.74547 12.055 8.80547 12.2848 8.95187 12.4393C9.07067 12.5692 9.24497 12.6442 9.42077 12.6445C11.1107 12.646 12.8003 12.6439 14.4902 12.6454C14.6165 12.6487 14.7473 12.6385 14.861 12.5788C15.0959 12.4657 15.2483 12.2017 15.2183 11.9413C15.2003 11.6974 15.0275 11.4766 14.798 11.3947C14.6618 11.3416 14.5136 11.3596 14.3711 11.3572C12.7706 11.3548 11.1701 11.3548 9.56957 11.3563C9.46187 11.3602 9.35237 11.3524 9.24707 11.3794Z" fill="#4B4B4B"/>
</g>
</g>
</g>
<defs>
<clipPath id="clip0_35569_35220">
<rect width="24" height="24" fill="white"/>
</clipPath>
</defs>
</svg>
