<svg width="24" height="24" viewBox="0 0 24 24" fill="none" xmlns="http://www.w3.org/2000/svg">
<path d="M8.88737 11.2598C9.28457 11.2403 9.68327 11.2568 10.0811 11.2514C11.7209 11.2517 13.3607 11.2511 15.0005 11.2517C15.2048 11.2502 15.4073 11.3378 15.5462 11.4878C15.7196 11.6672 15.7895 11.9378 15.7289 12.1793C15.6689 12.4355 15.4625 12.6509 15.2093 12.7217C15.083 12.7607 14.9495 12.7505 14.8196 12.7514C12.9491 12.7511 11.0789 12.7514 9.20837 12.7514C9.05987 12.7499 8.90687 12.7637 8.76437 12.7136C8.46437 12.6182 8.24507 12.3176 8.25017 12.002C8.24207 11.642 8.53067 11.3066 8.88737 11.2598Z" fill="#4B4B4B"/>
</svg>
