<svg width="24" height="24" viewBox="0 0 24 24" fill="none" xmlns="http://www.w3.org/2000/svg">
<path opacity="0.5" d="M11.5869 1.26816C12.5211 1.18566 13.479 1.38546 14.2986 1.84236C15.2478 2.36556 16.0071 3.22356 16.4091 4.23006C16.8516 5.32326 16.8633 6.58266 16.4427 7.68456C16.0653 8.68746 15.3348 9.55116 14.4111 10.0936C13.4178 10.6855 12.204 10.8871 11.0712 10.6594C10.212 10.4911 9.40377 10.0753 8.76417 9.47736C8.06217 8.82666 7.56387 7.95906 7.36047 7.02336C7.16337 6.12696 7.23057 5.17326 7.55757 4.31496C7.90467 3.39546 8.54727 2.59116 9.36597 2.04726C10.0248 1.60566 10.7964 1.33476 11.5869 1.26816ZM11.5356 2.78316C10.9455 2.86686 10.3803 3.11856 9.92277 3.50076C9.36867 3.95916 8.97357 4.60686 8.82327 5.31066C8.66817 6.02376 8.76027 6.78906 9.08667 7.44216C9.41577 8.10996 9.98157 8.65656 10.6602 8.96196C11.2911 9.24966 12.0156 9.32406 12.6927 9.17616C13.3734 9.03006 14.0019 8.65536 14.4564 8.12826C14.7858 7.74906 15.0261 7.29246 15.1494 6.80556C15.3195 6.14046 15.2733 5.42196 15.0153 4.78566C14.7084 4.01706 14.0949 3.37806 13.3404 3.03876C12.7797 2.78316 12.1452 2.69586 11.5356 2.78316Z" fill="#4B4B4B"/>
<path opacity="0.5" fill-rule="evenodd" clip-rule="evenodd" d="M14.5 12.4619C13.5415 12.2946 12.5649 12.2301 11.5927 12.2553C9.87459 12.3054 8.14629 12.6309 6.57999 13.3548C5.56689 13.8297 4.60659 14.4879 3.94929 15.4077C3.52809 15.9951 3.26259 16.7034 3.25119 17.43L3.25115 17.4367C3.24666 18.2389 3.24205 19.0632 3.51399 19.8288C3.70659 20.3862 4.05909 20.8851 4.51749 21.2559C5.23629 21.8403 6.13689 22.14 7.02939 22.3398C8.39589 22.6344 9.79779 22.713 11.1922 22.743C12.6838 22.7646 14.1802 22.74 15.6628 22.56C16.6588 22.4319 17.6629 22.2414 18.5797 21.8163C19.0813 21.5808 19.552 21.2622 19.9117 20.8368C20.2459 20.4474 20.4721 19.9719 20.5933 19.4748C20.616 19.3836 20.6355 19.292 20.6522 19.2H19.1143C19.0842 19.3051 19.0467 19.4083 18.9997 19.5087C18.8167 19.9056 18.4621 20.193 18.0808 20.3898C17.4856 20.6952 16.8277 20.8506 16.1734 20.9685C14.9146 21.1824 13.6351 21.2349 12.3607 21.2487C11.0104 21.2553 9.65559 21.2241 8.31549 21.0444C7.62099 20.9454 6.92439 20.8119 6.27039 20.5506C5.84949 20.3784 5.43279 20.1441 5.15769 19.7718C4.91379 19.4433 4.82379 19.0311 4.78659 18.6312C4.75552 18.3077 4.75316 17.9826 4.7508 17.658C4.75055 17.6222 4.75029 17.5864 4.74999 17.5506C4.74669 17.3301 4.78059 17.1093 4.85169 16.9005C5.01879 16.4052 5.35899 15.9885 5.74599 15.6456C6.43569 15.0453 7.27419 14.6412 8.13429 14.3475C9.20109 13.9905 10.3219 13.8078 11.4445 13.7616C12.4665 13.7211 13.4959 13.7895 14.5 13.9879V12.4619Z" fill="#4B4B4B"/>
<path d="M16.4493 11.4804C16.7187 11.1948 17.2167 11.187 17.4939 11.4654C18.156 12.1257 18.8163 12.7878 19.4781 13.4487C20.0967 12.8307 20.7147 12.2124 21.333 11.5941C21.408 11.5194 21.4803 11.4399 21.5697 11.3814C21.753 11.2608 21.9909 11.2269 22.2003 11.2932C22.4481 11.3664 22.6482 11.5785 22.7082 11.8296C22.7706 12.0768 22.6965 12.3537 22.5156 12.534C21.8565 13.191 21.2013 13.8516 20.5404 14.5065C21.1455 15.1227 21.7611 15.7287 22.3701 16.341C22.4622 16.437 22.5693 16.5228 22.6335 16.6419C22.7442 16.836 22.7601 17.0802 22.6767 17.2872C22.5915 17.5053 22.398 17.6778 22.1706 17.7348C21.93 17.8005 21.657 17.7354 21.4752 17.5638C20.8077 16.9011 20.1471 16.2312 19.4775 15.5709C18.8208 16.2303 18.1614 16.8873 17.5038 17.5458C17.3313 17.7189 17.0697 17.7957 16.8309 17.7447C16.5567 17.6931 16.3248 17.4738 16.2552 17.2038C16.2018 17.0088 16.2324 16.7925 16.3389 16.6203C16.4013 16.5156 16.4937 16.4343 16.5786 16.3485C17.1918 15.735 17.8056 15.1221 18.4185 14.508C17.7579 13.8471 17.0967 13.1868 16.4364 12.5256C16.1568 12.249 16.164 11.7504 16.4493 11.4804Z" fill="#4B4B4B"/>
</svg>
