<svg width="24" height="24" viewBox="0 0 24 24" fill="none" xmlns="http://www.w3.org/2000/svg">
<path d="M16.8015 0.288962C17.0606 0.205963 17.3654 0.32765 17.4956 0.566526C17.6042 0.752093 17.5997 0.996142 17.4855 1.17789C17.4308 1.27056 17.344 1.33669 17.2664 1.40866C16.9326 1.71299 16.5972 2.01575 16.2641 2.32098C17.8906 2.3221 19.517 2.3212 21.1435 2.32143C21.2573 2.32233 21.3752 2.31221 21.4845 2.3518C21.704 2.4222 21.8714 2.62913 21.8923 2.85901C21.922 3.10756 21.7762 3.36285 21.5484 3.46542C21.4436 3.51693 21.325 3.52503 21.2105 3.5212C19.5618 3.5212 17.9131 3.52008 16.2643 3.52165C16.6146 3.8415 16.9661 4.16001 17.317 4.47918C17.4077 4.55566 17.4916 4.64563 17.5327 4.75899C17.6335 5.00259 17.5469 5.30445 17.3339 5.4592C17.1141 5.62992 16.7767 5.61463 16.5734 5.42456C15.812 4.73155 15.049 4.04034 14.2886 3.34621C14.0551 3.12668 14.0542 2.71956 14.2859 2.49822C14.9793 1.86505 15.6757 1.23457 16.3703 0.60229C16.5052 0.487575 16.6233 0.337547 16.8015 0.288962Z" fill="#4B4B4B"/>
<path d="M18.6833 4.49056C18.901 4.32951 19.2278 4.34525 19.4278 4.52857C20.1626 5.19549 20.8964 5.86375 21.631 6.53089C21.7122 6.60062 21.7911 6.67732 21.8361 6.77652C21.9493 7.0037 21.8953 7.29903 21.7084 7.4711C20.951 8.16051 20.1926 8.84924 19.4348 9.53843C19.2688 9.69251 19.013 9.73704 18.8045 9.64932C18.6021 9.56834 18.4534 9.36928 18.4347 9.15177C18.417 8.9752 18.4822 8.79144 18.6102 8.66795C18.9849 8.32268 19.3662 7.98461 19.7389 7.63755C18.1005 7.63485 16.4619 7.6371 14.8233 7.63642C14.6951 7.64047 14.5612 7.63552 14.4454 7.57434C14.2101 7.46233 14.0697 7.18566 14.1208 6.92947C14.1656 6.65123 14.4296 6.4299 14.7119 6.43687C16.3888 6.43642 18.0658 6.43755 19.7427 6.4362C19.3826 6.10758 19.0216 5.78008 18.6608 5.45213C18.5681 5.37475 18.4946 5.27376 18.4593 5.1577C18.3801 4.91702 18.4757 4.63496 18.6833 4.49056Z" fill="#4B4B4B"/>
<path opacity="0.5" d="M2.77295 12.7861C8.93535 12.7868 15.0975 12.7861 21.2599 12.7866C21.2545 13.2864 21.2459 13.7868 21.2068 14.2855C15.0799 14.286 8.95289 14.286 2.82603 14.2855C2.78689 13.7868 2.77834 13.2862 2.77295 12.7861Z" fill="#4B4B4B"/>
<path opacity="0.5" d="M11.2669 18.2839C11.7663 18.2839 12.2659 18.2839 12.7654 18.2839C12.7663 19.4504 12.7645 20.6169 12.7666 21.7832C13.8039 21.7841 14.8415 21.7834 15.8791 21.7836C16.0287 21.7791 16.1844 21.782 16.3222 21.8488C16.6252 21.9798 16.8137 22.3264 16.7552 22.6521C16.7055 23.0061 16.3726 23.2904 16.015 23.283C13.3536 23.2834 10.6923 23.283 8.03088 23.2832C7.8235 23.287 7.61656 23.2009 7.47418 23.05C7.27827 22.8484 7.21394 22.5333 7.31471 22.271C7.41682 21.9872 7.70473 21.7827 8.00704 21.7838C9.09323 21.7829 10.1796 21.785 11.266 21.7827C11.2667 20.6165 11.2651 19.4502 11.2669 18.2839Z" fill="#4B4B4B"/>
<path d="M8.32336 1.81586C9.26739 1.79045 10.2118 1.79 11.1563 1.7891C11.3084 1.78865 11.4663 1.77942 11.6098 1.83926C11.9235 1.95487 12.1318 2.29856 12.0846 2.63056C12.0486 2.98077 11.7351 3.27566 11.3826 3.28735C10.6401 3.29073 9.89764 3.28803 9.15537 3.29905C8.14814 3.31434 7.13978 3.34246 6.13749 3.44818C5.60913 3.50756 5.0792 3.58269 4.56951 3.73879C4.33108 3.81594 4.08636 3.90479 3.89809 4.07618C3.71342 4.23723 3.5427 4.41583 3.40122 4.61646C3.16774 4.95206 3.04201 5.34883 2.96216 5.74628C2.85644 6.28342 2.8218 6.83112 2.79863 7.37703C2.7631 8.33613 2.77119 9.29613 2.76984 10.2555C2.77097 11.0992 2.76669 11.9426 2.77299 12.7861C2.77839 13.2862 2.78694 13.7868 2.82608 14.2855C2.86499 14.7318 2.91695 15.1855 3.0861 15.6041C3.21296 15.9212 3.44396 16.1976 3.74222 16.3661C4.06926 16.5519 4.44445 16.6273 4.81311 16.6799C5.43234 16.7615 6.05832 16.7712 6.68205 16.7802C7.74664 16.7885 8.81101 16.7827 9.8756 16.7845C12.1473 16.7845 14.4191 16.7845 16.6912 16.7845C17.3446 16.7811 17.9987 16.7804 18.651 16.7366C19.0214 16.7096 19.3932 16.6704 19.7538 16.5773C20.0309 16.5049 20.3044 16.392 20.5226 16.2024C20.7408 16.0175 20.8949 15.7662 20.9878 15.4974C21.1236 15.1079 21.172 14.6947 21.2068 14.2855C21.246 13.7868 21.2545 13.2864 21.2599 12.7866C21.2669 12.0256 21.2615 11.2649 21.2644 10.504C21.2721 10.1457 21.5724 9.82449 21.9291 9.79165C22.2575 9.74823 22.5958 9.95382 22.7118 10.2635C22.7802 10.425 22.7604 10.603 22.7631 10.7737C22.7618 11.6433 22.7683 12.5131 22.751 13.3826C22.7656 13.5556 22.7355 13.727 22.7325 13.8998C22.7094 14.3874 22.6714 14.876 22.5758 15.3553C22.4937 15.7649 22.3655 16.1689 22.1596 16.5341C21.8542 17.0809 21.3719 17.525 20.8042 17.7883C20.367 17.9937 19.891 18.1019 19.4144 18.1667C18.9213 18.2326 18.4238 18.256 17.9269 18.2697C17.2598 18.2868 16.5924 18.2836 15.9253 18.2839C14.8721 18.2839 13.819 18.2841 12.7657 18.2839C12.2661 18.2839 11.7665 18.2839 11.2672 18.2839C10.1282 18.2841 8.98938 18.2839 7.85033 18.2839C7.18274 18.2839 6.5147 18.2852 5.84733 18.2616C5.37318 18.2436 4.89835 18.2141 4.4296 18.1386C3.99886 18.0691 3.57104 17.9568 3.17787 17.7641C2.63039 17.4975 2.16636 17.0618 1.87057 16.529C1.66072 16.1547 1.53161 15.7401 1.45041 15.32C1.34851 14.7941 1.315 14.2581 1.29251 13.7236C1.27788 13.6186 1.27136 13.5127 1.28081 13.4065C1.26169 12.1095 1.27339 10.8122 1.27024 9.51498C1.27384 8.47198 1.26709 7.42651 1.35976 6.38666C1.43691 5.56702 1.59189 4.73095 2.01093 4.01095C2.25498 3.58966 2.58653 3.22347 2.95609 2.9088C3.2422 2.66137 3.58746 2.4929 3.94195 2.36717C4.44332 2.1915 4.96763 2.09185 5.49239 2.01718C6.43035 1.88784 7.37753 1.84285 8.32336 1.81586Z" fill="#4B4B4B"/>
</svg>
