<svg width="24" height="24" viewBox="0 0 24 24" fill="none" xmlns="http://www.w3.org/2000/svg">
<path opacity="0.5" d="M10.5969 1.26816C11.5311 1.18566 12.489 1.38546 13.3086 1.84236C14.2578 2.36556 15.0171 3.22356 15.4191 4.23006C15.8616 5.32326 15.8733 6.58266 15.4527 7.68456C15.0753 8.68746 14.3448 9.55116 13.4211 10.0936C12.4278 10.6855 11.214 10.8871 10.0812 10.6594C9.22201 10.4911 8.41378 10.0753 7.77418 9.47736C7.07218 8.82666 6.57388 7.95906 6.37048 7.02336C6.17338 6.12696 6.24058 5.17326 6.56758 4.31496C6.91468 3.39546 7.55728 2.59116 8.37598 2.04726C9.03481 1.60566 9.80641 1.33476 10.5969 1.26816ZM10.5456 2.78316C9.95551 2.86686 9.39031 3.11856 8.93278 3.50076C8.37868 3.95916 7.98358 4.60686 7.83328 5.31066C7.67818 6.02376 7.77028 6.78906 8.09668 7.44216C8.42578 8.10996 8.99158 8.65656 9.67021 8.96196C10.3011 9.24966 11.0256 9.32406 11.7027 9.17616C12.3834 9.03006 13.0119 8.65536 13.4664 8.12826C13.7958 7.74906 14.0361 7.29246 14.1594 6.80556C14.3295 6.14046 14.2833 5.42196 14.0253 4.78566C13.7184 4.01706 13.1049 3.37806 12.3504 3.03876C11.7897 2.78316 11.1552 2.69586 10.5456 2.78316Z" fill="#4B4B4B"/>
<path opacity="0.5" fill-rule="evenodd" clip-rule="evenodd" d="M13.51 12.4619C12.5515 12.2946 11.5749 12.2301 10.6027 12.2553C8.8846 12.3054 7.1563 12.6309 5.59 13.3548C4.5769 13.8297 3.6166 14.4879 2.9593 15.4077C2.5381 15.9951 2.2726 16.7034 2.2612 17.43L2.26116 17.4367C2.25667 18.2389 2.25206 19.0632 2.524 19.8288C2.7166 20.3862 3.0691 20.8851 3.5275 21.2559C4.2463 21.8403 5.1469 22.14 6.0394 22.3398C7.4059 22.6344 8.8078 22.713 10.2022 22.743C11.6938 22.7646 13.1902 22.74 14.6728 22.56C15.6688 22.4319 16.6729 22.2414 17.5897 21.8163C18.0913 21.5808 18.562 21.2622 18.9217 20.8368C19.2559 20.4474 19.4821 19.9719 19.6033 19.4748C19.626 19.3836 19.6455 19.292 19.6622 19.2H18.1243C18.0942 19.3051 18.0567 19.4083 18.0097 19.5087C17.8267 19.9056 17.4721 20.193 17.0908 20.3898C16.4956 20.6952 15.8377 20.8506 15.1834 20.9685C13.9246 21.1824 12.6451 21.2349 11.3707 21.2487C10.0204 21.2553 8.6656 21.2241 7.3255 21.0444C6.631 20.9454 5.9344 20.8119 5.2804 20.5506C4.8595 20.3784 4.4428 20.1441 4.1677 19.7718C3.9238 19.4433 3.8338 19.0311 3.7966 18.6312C3.76553 18.3077 3.76317 17.9826 3.76081 17.658C3.76056 17.6222 3.7603 17.5864 3.76 17.5506C3.7567 17.3301 3.7906 17.1093 3.8617 16.9005C4.0288 16.4052 4.369 15.9885 4.756 15.6456C5.4457 15.0453 6.2842 14.6412 7.1443 14.3475C8.2111 13.9905 9.33191 13.8078 10.4545 13.7616C11.4765 13.7211 12.5059 13.7895 13.51 13.9879V12.4619Z" fill="#4B4B4B"/>
<path d="M15.4593 11.4804C15.7287 11.1948 16.2267 11.187 16.5039 11.4654C17.166 12.1257 17.8263 12.7878 18.4881 13.4487C19.1067 12.8307 19.7247 12.2124 20.343 11.5941C20.418 11.5194 20.4903 11.4399 20.5797 11.3814C20.763 11.2608 21.0009 11.2269 21.2103 11.2932C21.4581 11.3664 21.6582 11.5785 21.7182 11.8296C21.7806 12.0768 21.7065 12.3537 21.5256 12.534C20.8665 13.191 20.2113 13.8516 19.5504 14.5065C20.1555 15.1227 20.7711 15.7287 21.3801 16.341C21.4722 16.437 21.5793 16.5228 21.6435 16.6419C21.7542 16.836 21.7701 17.0802 21.6867 17.2872C21.6015 17.5053 21.408 17.6778 21.1806 17.7348C20.94 17.8005 20.667 17.7354 20.4852 17.5638C19.8177 16.9011 19.1571 16.2312 18.4875 15.5709C17.8308 16.2303 17.1714 16.8873 16.5138 17.5458C16.3413 17.7189 16.0797 17.7957 15.8409 17.7447C15.5667 17.6931 15.3348 17.4738 15.2652 17.2038C15.2118 17.0088 15.2424 16.7925 15.3489 16.6203C15.4113 16.5156 15.5037 16.4343 15.5886 16.3485C16.2018 15.735 16.8156 15.1221 17.4285 14.508C16.7679 13.8471 16.1067 13.1868 15.4464 12.5256C15.1668 12.249 15.174 11.7504 15.4593 11.4804Z" fill="#4B4B4B"/>
</svg>
