<svg width="24" height="24" viewBox="0 0 24 24" fill="none" xmlns="http://www.w3.org/2000/svg">
<path d="M8.65036 1.2785C9.76984 1.24566 10.89 1.25016 12.0099 1.24971C12.3909 1.24633 12.7333 1.57608 12.745 1.95688C12.7803 2.35816 12.4348 2.74054 12.0326 2.74706C10.5396 2.75583 9.04489 2.73222 7.55428 2.83141C6.98139 2.87235 6.40827 2.93398 5.84729 3.05994C5.44107 3.15216 5.04002 3.28195 4.67406 3.48326C4.14952 3.76914 3.71563 4.2163 3.44414 4.74804C3.19694 5.22781 3.06379 5.75707 2.97494 6.28678C2.83953 7.10778 2.80062 7.94091 2.77588 8.77158C2.73899 10.1358 2.75383 11.5007 2.75046 12.8651C2.75203 13.9531 2.75473 15.0417 2.81276 16.1284C2.84223 16.6583 2.88902 17.1882 2.97606 17.7123C3.06379 18.2297 3.1929 18.7459 3.4302 19.2166C3.70056 19.7565 4.13513 20.2133 4.66529 20.5035C5.1048 20.7466 5.59312 20.8861 6.08414 20.981C6.93708 21.1429 7.8071 21.183 8.67308 21.2136C10.0254 21.2547 11.3783 21.2381 12.731 21.2419C13.931 21.2417 15.1322 21.2406 16.3306 21.1672C16.8817 21.1308 17.4332 21.077 17.9753 20.9679C18.3966 20.8831 18.8143 20.7635 19.1998 20.5709C19.7513 20.2999 20.2165 19.857 20.5102 19.317C20.7615 18.8579 20.9016 18.3475 20.9959 17.8354C21.1463 16.9977 21.1882 16.1457 21.2154 15.2966C21.2469 14.2174 21.2428 13.1377 21.2426 12.058C21.2352 11.8702 21.2853 11.6772 21.4059 11.5303C21.5827 11.3018 21.8983 11.1941 22.1779 11.2688C22.4228 11.3284 22.6291 11.5209 22.7056 11.7611C22.7575 11.9058 22.7413 12.0614 22.7427 12.2121C22.7404 13.5023 22.7503 14.7936 22.6837 16.0827C22.6369 16.9554 22.5607 17.8329 22.3454 18.6824C22.2397 19.0959 22.0973 19.5007 21.9075 19.8833C21.51 20.6773 20.8748 21.3517 20.1018 21.7894C19.373 22.2021 18.5495 22.4131 17.7258 22.5323C16.7944 22.6653 15.8526 22.7024 14.9131 22.7251C13.6985 22.7485 12.4834 22.7384 11.2685 22.7422C10.459 22.7424 9.6495 22.7399 8.84021 22.7181C8.09276 22.6977 7.34487 22.6653 6.60216 22.5769C5.85426 22.4862 5.10547 22.3393 4.40887 22.0445C3.76399 21.7741 3.17805 21.3598 2.72032 20.8301C2.18161 20.2185 1.84084 19.456 1.64493 18.6703C1.43484 17.8282 1.35679 16.9595 1.30843 16.0948C1.2522 14.9371 1.25355 13.7776 1.25018 12.619C1.2486 11.9588 1.24973 11.2987 1.2522 10.6385C1.25693 9.61912 1.263 8.59906 1.328 7.58125C1.37974 6.7949 1.46431 6.00629 1.66562 5.24243C1.8197 4.65717 2.0516 4.08742 2.39327 3.5856C2.88339 2.8593 3.59439 2.28843 4.40167 1.95036C5.24066 1.5943 6.15095 1.45124 7.05291 1.36757C7.5842 1.31921 8.11728 1.29447 8.65036 1.2785Z" fill="#4B4B4B"/>
<path opacity="0.5" d="M7.97198 6.1318C8.14045 6.10503 8.31229 6.12235 8.48212 6.1192C8.77497 6.1237 9.03117 6.38799 9.0269 6.68085C9.02757 10.1668 9.0269 13.6528 9.02735 17.1387C9.02667 17.2285 9.03274 17.3196 9.0116 17.408C8.96752 17.5965 8.82086 17.7564 8.63642 17.8158C8.52125 17.8556 8.39777 17.8425 8.27833 17.8443C8.14652 17.843 8.00841 17.8572 7.88425 17.8032C7.67259 17.7206 7.52437 17.502 7.52774 17.2748C7.52751 13.7954 7.52774 10.3162 7.52774 6.83695C7.52796 6.72471 7.51919 6.60865 7.55878 6.50136C7.62086 6.31782 7.78259 6.17296 7.97198 6.1318Z" fill="#4B4B4B"/>
<path opacity="0.5" d="M11.6847 9.19219C11.8365 9.16317 11.9924 9.18297 12.146 9.17667C12.3239 9.16857 12.5039 9.2455 12.6161 9.38451C12.7036 9.48932 12.7492 9.62608 12.7461 9.76216C12.7457 12.2663 12.7463 14.7707 12.7459 17.2748C12.7492 17.5036 12.599 17.7233 12.3855 17.8047C12.26 17.8576 12.1215 17.8425 11.9888 17.8443C11.8525 17.8443 11.709 17.8558 11.5825 17.7944C11.3821 17.7069 11.2442 17.4957 11.2467 17.2768C11.2465 14.7641 11.246 12.2515 11.2469 9.73899C11.2451 9.4846 11.4368 9.24707 11.6847 9.19219Z" fill="#4B4B4B"/>
<path opacity="0.5" d="M15.3728 12.4993C15.5382 12.4566 15.7109 12.4836 15.8798 12.476C16.1081 12.4674 16.3317 12.6105 16.4192 12.8217C16.4676 12.9269 16.4669 13.045 16.4651 13.1586C16.4644 14.5309 16.4653 15.9032 16.4647 17.2755C16.4674 17.489 16.3369 17.6957 16.1446 17.7872C15.9644 17.8774 15.7577 17.8342 15.5647 17.8448C15.311 17.8599 15.0613 17.6873 14.9905 17.4426C14.9583 17.3448 14.9657 17.2406 14.9653 17.1394C14.9655 15.7748 14.9651 14.4099 14.9655 13.045C14.9615 12.7992 15.1367 12.5659 15.3728 12.4993Z" fill="#4B4B4B"/>
<path opacity="0.5" d="M17.8016 1.27243C18.1221 1.21238 18.473 1.36758 18.6397 1.64874C18.691 1.73264 18.7119 1.83003 18.7495 1.92001C19.0255 2.59637 19.3757 3.25091 19.8561 3.80537C20.256 4.2694 20.7583 4.65133 21.3312 4.87446C21.6308 5.03978 21.9608 5.14325 22.2552 5.31869C22.4302 5.42329 22.5944 5.56499 22.6743 5.75731C22.7762 6.00248 22.7476 6.30726 22.5719 6.51195C22.3951 6.71956 22.1371 6.82842 21.8926 6.93347C21.6987 7.01129 21.5085 7.09766 21.3263 7.20001C20.689 7.46025 20.1425 7.91101 19.7194 8.44972C19.2686 9.02374 18.9337 9.68301 18.6883 10.3684C18.5374 10.6781 18.1759 10.8576 17.8378 10.8218C17.6509 10.8036 17.4689 10.706 17.3641 10.5483C16.9433 9.84316 16.7008 9.03183 16.1664 8.39596C16.053 8.25448 15.9129 8.13909 15.7903 8.00638C15.5762 7.7873 15.3242 7.60848 15.0599 7.4553C14.5422 7.15525 13.978 6.94606 13.458 6.65073C13.1062 6.40263 13.0716 5.83873 13.3527 5.52473C13.4353 5.42689 13.557 5.38055 13.6681 5.32387C14.3211 4.9894 15.0222 4.72668 15.5973 4.25973C15.755 4.13421 15.8944 3.98823 16.0271 3.83708C16.2152 3.66051 16.3711 3.45223 16.5002 3.22955C16.8387 2.65148 17.0249 1.98546 17.4554 1.46227C17.5398 1.35588 17.6718 1.29965 17.8016 1.27243ZM16.0343 6.05714C16.7775 6.57605 17.4316 7.2207 17.9647 7.95375C18.4946 7.21957 19.135 6.56436 19.8635 6.02632C19.1231 5.50426 18.4708 4.85736 17.9422 4.12139C17.4224 4.86883 16.7735 5.52563 16.0343 6.05714Z" fill="#4B4B4B"/>
</svg>
