<svg width="24" height="24" viewBox="0 0 24 24" fill="none" xmlns="http://www.w3.org/2000/svg">
<path d="M8.65042 1.27833C9.7699 1.24549 10.89 1.24999 12.01 1.24954C12.391 1.24617 12.7333 1.57591 12.745 1.95672C12.7803 2.35799 12.4348 2.74037 12.0327 2.7469C10.5396 2.75567 9.04495 2.73205 7.55434 2.83125C6.98145 2.87218 6.40832 2.93381 5.84735 3.05977C5.44113 3.152 5.04008 3.28178 4.67412 3.48309C4.14958 3.76898 3.71569 4.21614 3.4442 4.74787C3.197 5.22765 3.06384 5.75691 2.975 6.28662C2.83959 7.10761 2.80068 7.94075 2.77593 8.77142C2.73905 10.1356 2.75389 11.5005 2.75052 12.8649C2.75209 13.9529 2.75479 15.0415 2.81282 16.1282C2.84229 16.6581 2.88907 17.188 2.97612 17.7121C3.06384 18.2295 3.19295 18.7457 3.43026 19.2165C3.70062 19.7563 4.13519 20.2131 4.66534 20.5033C5.10486 20.7464 5.59318 20.8859 6.0842 20.9808C6.93713 21.1428 7.80716 21.1828 8.67314 21.2134C10.0254 21.2545 11.3784 21.2379 12.7311 21.2417C13.9311 21.2415 15.1322 21.2404 16.3306 21.167C16.8817 21.1306 17.4332 21.0769 17.9753 20.9678C18.3966 20.883 18.8143 20.7633 19.1998 20.5708C19.7514 20.2997 20.2165 19.8568 20.5103 19.3168C20.7615 18.8577 20.9017 18.3473 20.9959 17.8352C21.1464 16.9975 21.1882 16.1455 21.2154 15.2964C21.2469 14.2172 21.2429 13.1375 21.2426 12.0578C21.2352 11.87 21.2854 11.677 21.4059 11.5302C21.5827 11.3016 21.8983 11.1939 22.1779 11.2686C22.4229 11.3282 22.6291 11.5207 22.7056 11.7609C22.7575 11.9056 22.7414 12.0612 22.7427 12.2119C22.7405 13.5021 22.7503 14.7934 22.6838 16.0825C22.637 16.9552 22.5607 17.8327 22.3455 18.6823C22.2398 19.0957 22.0974 19.5005 21.9075 19.8831C21.5101 20.6772 20.8749 21.3515 20.1018 21.7892C19.373 22.202 18.5496 22.4129 17.7259 22.5321C16.7944 22.6651 15.8527 22.7022 14.9131 22.7249C13.6985 22.7483 12.4834 22.7382 11.2686 22.742C10.4591 22.7422 9.64956 22.7398 8.84026 22.7179C8.09282 22.6975 7.34493 22.6651 6.60221 22.5767C5.85432 22.486 5.10553 22.3392 4.40892 22.0443C3.76405 21.7739 3.17811 21.3596 2.72038 20.8299C2.18167 20.2183 1.8409 19.4558 1.64499 18.6701C1.4349 17.828 1.35685 16.9593 1.30849 16.0947C1.25226 14.9369 1.25361 13.7774 1.25024 12.6188C1.24866 11.9586 1.24979 11.2985 1.25226 10.6383C1.25698 9.61895 1.26306 8.59889 1.32806 7.58109C1.3798 6.79473 1.46437 6.00613 1.66568 5.24227C1.81976 4.657 2.05166 4.08725 2.39333 3.58544C2.88345 2.85914 3.59445 2.28827 4.40173 1.9502C5.24071 1.59413 6.15101 1.45108 7.05297 1.3674C7.58426 1.31904 8.11734 1.2943 8.65042 1.27833Z" fill="#4B4B4B"/>
<path opacity="0.5" d="M7.97177 6.13193C8.14025 6.10517 8.31209 6.12249 8.48191 6.11934C8.77477 6.12384 9.03097 6.38813 9.02669 6.68099C9.02737 10.1669 9.02669 13.6529 9.02714 17.1389C9.02647 17.2286 9.03254 17.3197 9.0114 17.4081C8.96731 17.5966 8.82066 17.7565 8.63622 17.8159C8.52105 17.8557 8.39757 17.8427 8.27813 17.8445C8.14632 17.8431 8.00821 17.8573 7.88405 17.8033C7.67239 17.7207 7.52416 17.5021 7.52754 17.2749C7.52731 13.7955 7.52754 10.3163 7.52754 6.83709C7.52776 6.72485 7.51899 6.60879 7.55858 6.50149C7.62066 6.31795 7.78238 6.1731 7.97177 6.13193Z" fill="#4B4B4B"/>
<path opacity="0.5" d="M11.6848 9.19213C11.8366 9.16311 11.9925 9.18291 12.1461 9.17661C12.3241 9.16851 12.504 9.24544 12.6162 9.38445C12.7037 9.48926 12.7494 9.62602 12.7463 9.7621C12.7458 12.2662 12.7465 14.7706 12.746 17.2747C12.7494 17.5035 12.5992 17.7232 12.3857 17.8046C12.2602 17.8575 12.1216 17.8424 11.9889 17.8442C11.8526 17.8442 11.7091 17.8557 11.5827 17.7943C11.3823 17.7068 11.2444 17.4956 11.2469 17.2767C11.2466 14.764 11.2462 12.2514 11.2471 9.73893C11.2453 9.48454 11.4369 9.24701 11.6848 9.19213Z" fill="#4B4B4B"/>
<path opacity="0.5" d="M15.3729 12.4995C15.5382 12.4568 15.7109 12.4838 15.8798 12.4761C16.1082 12.4676 16.3317 12.6106 16.4192 12.8218C16.4676 12.9271 16.4669 13.0452 16.4651 13.1588C16.4644 14.5311 16.4653 15.9034 16.4647 17.2757C16.4674 17.4891 16.3369 17.6958 16.1446 17.7874C15.9644 17.8776 15.7577 17.8344 15.5647 17.845C15.311 17.86 15.0613 17.6875 14.9905 17.4428C14.9583 17.3449 14.9657 17.2408 14.9653 17.1396C14.9655 15.7749 14.9651 14.4101 14.9655 13.0452C14.9615 12.7993 15.1367 12.5661 15.3729 12.4995Z" fill="#4B4B4B"/>
<path opacity="0.5" d="M17.8016 1.27258C18.1221 1.21253 18.473 1.36773 18.6397 1.64889C18.6909 1.73279 18.7119 1.83018 18.7494 1.92016C19.0254 2.59652 19.3756 3.25106 19.8561 3.80552C20.256 4.26955 20.7583 4.65148 21.3312 4.87461C21.6308 5.03993 21.9607 5.1434 22.2552 5.31884C22.4302 5.42344 22.5944 5.56514 22.6742 5.75746C22.7761 6.00263 22.7475 6.30741 22.5719 6.5121C22.3951 6.71971 22.1371 6.82857 21.8926 6.93361C21.6987 7.01144 21.5084 7.09781 21.3262 7.20016C20.689 7.4604 20.1424 7.91116 19.7193 8.44987C19.2686 9.02389 18.9336 9.68315 18.6882 10.3684C18.5373 10.6782 18.1759 10.8577 17.8378 10.8219C17.6509 10.8037 17.4689 10.7061 17.3641 10.5484C16.9432 9.84331 16.7008 9.03198 16.1663 8.39611C16.053 8.25463 15.9128 8.13924 15.7902 8.00653C15.5761 7.78745 15.3242 7.60863 15.0599 7.45545C14.5421 7.1554 13.978 6.94621 13.458 6.65088C13.1062 6.40278 13.0715 5.83888 13.3527 5.52488C13.4352 5.42704 13.5569 5.3807 13.668 5.32402C14.321 4.98955 15.0221 4.72683 15.5973 4.25987C15.7549 4.13436 15.8944 3.98838 16.0271 3.83723C16.2151 3.66066 16.371 3.45238 16.5001 3.2297C16.8386 2.65163 17.0249 1.98561 17.4554 1.46242C17.5398 1.35603 17.6718 1.2998 17.8016 1.27258ZM16.0343 6.05729C16.7775 6.5762 17.4316 7.22085 17.9646 7.9539C18.4946 7.21972 19.135 6.5645 19.8635 6.02647C19.123 5.50441 18.4707 4.85751 17.9421 4.12154C17.4223 4.86898 16.7734 5.52578 16.0343 6.05729Z" fill="#4B4B4B"/>
</svg>
