<svg width="24" height="24" viewBox="0 0 24 24" fill="none" xmlns="http://www.w3.org/2000/svg">
<path d="M9.03981 1.2704C10.3364 1.2446 11.6336 1.2515 12.9305 1.25C14.4809 1.2644 16.0379 1.2437 17.5793 1.4396C18.6125 1.5761 19.6628 1.8482 20.5187 2.468C21.0092 2.8217 21.4274 3.2747 21.7388 3.7934C22.298 4.7201 22.505 5.8067 22.6154 6.8696C22.7624 8.3948 22.7432 9.929 22.7528 11.4593C22.7459 13.1408 22.7735 14.8244 22.6682 16.5038C22.5926 17.5511 22.4639 18.6152 22.0532 19.5908C21.6764 20.498 21.0038 21.2819 20.1509 21.773C19.2542 22.2971 18.2141 22.4987 17.1935 22.6091C15.7178 22.7579 14.2322 22.7417 12.7508 22.7528C11.3012 22.7492 9.85101 22.7627 8.40201 22.7141C7.58211 22.6826 6.76011 22.6316 5.95071 22.4897C5.00931 22.3265 4.06791 22.0112 3.31491 21.4061C2.84511 21.0338 2.45331 20.5652 2.16621 20.039C1.68411 19.1579 1.49571 18.1532 1.39071 17.1644C1.30251 16.2965 1.27701 15.4241 1.26291 14.5523C1.24911 13.4822 1.25001 12.4118 1.25001 11.3414C1.25631 10.1813 1.25151 9.0203 1.31271 7.8614C1.38141 6.6935 1.49301 5.501 1.94991 4.4114C2.34501 3.4571 3.07041 2.642 3.98361 2.1551C4.95081 1.634 6.05721 1.4579 7.13901 1.3625C7.77111 1.3085 8.40561 1.2845 9.03981 1.2704ZM8.89221 2.7743C7.93281 2.8019 6.96801 2.8415 6.02361 3.0251C5.29041 3.1712 4.54671 3.4391 4.01181 3.9821C3.65751 4.3247 3.40521 4.7615 3.24261 5.2238C3.04011 5.7923 2.94771 6.3926 2.88321 6.9905C2.79801 7.8275 2.77521 8.6696 2.76231 9.5105C2.74911 10.5611 2.75061 11.6114 2.75031 12.662C2.75631 13.7018 2.75181 14.7422 2.79711 15.7814C2.82171 16.3526 2.86161 16.9241 2.94201 17.4902C3.02721 18.0773 3.15771 18.6662 3.42081 19.2017C3.65751 19.6841 4.02471 20.1029 4.47621 20.3954C4.85031 20.6417 5.27631 20.7974 5.70891 20.906C6.42291 21.0824 7.15911 21.1466 7.89171 21.1895C9.38961 21.266 10.8905 21.2471 12.3899 21.2525C13.7906 21.2447 15.1937 21.2609 16.5917 21.1577C17.3216 21.0971 18.0584 21.0101 18.7538 20.7689C19.2197 20.6084 19.6613 20.3585 20.0075 20.0042C20.3147 19.7024 20.5439 19.3283 20.7035 18.9302C20.9384 18.3383 21.0422 17.7053 21.1127 17.0756C21.2609 15.6395 21.2405 14.1935 21.2528 12.7517C21.2474 11.2019 21.2672 9.6512 21.2003 8.1023C21.1664 7.4066 21.1127 6.7094 20.978 6.0251C20.8685 5.4902 20.705 4.9562 20.408 4.4933C20.1281 4.061 19.7369 3.6998 19.2797 3.4616C18.7988 3.2066 18.2648 3.071 17.7308 2.9795C17.0366 2.8637 16.3331 2.8193 15.6305 2.7908C14.9309 2.7647 14.2307 2.7563 13.5308 2.7542C11.9846 2.7497 10.4381 2.7419 8.89221 2.7743Z" fill="#4B4B4B"/>
<path opacity="0.5" d="M11.8872 5.25878C12.0711 5.22968 12.2643 5.27378 12.4185 5.37818C12.6258 5.51108 12.7524 5.75408 12.7509 5.99948C12.7515 10.0003 12.7512 14.0014 12.7512 18.0025C12.7524 18.271 12.5964 18.5329 12.3603 18.6601C12.2232 18.7321 12.0648 18.7648 11.9109 18.745C11.6286 18.712 11.3712 18.5068 11.2884 18.2332C11.2383 18.091 11.2527 17.9386 11.2512 17.791C11.2512 13.921 11.2512 10.0507 11.2512 6.18038C11.2485 6.01238 11.2431 5.83538 11.3229 5.68178C11.4249 5.45768 11.6433 5.29388 11.8872 5.25878Z" fill="#4B4B4B"/>
<path opacity="0.5" d="M6.82436 8.27317C7.25336 8.15587 7.72736 8.49997 7.74626 8.94427C7.75616 9.47407 7.74776 10.0045 7.75046 10.5346C7.75076 13.0138 7.75016 15.493 7.75076 17.9722C7.75526 18.1666 7.68746 18.3631 7.55426 18.5062C7.36166 18.7258 7.03346 18.8107 6.75806 18.7135C6.45926 18.6184 6.24326 18.3154 6.25016 18.0019C6.25136 14.9935 6.24986 11.9848 6.25106 8.97637C6.25376 8.64727 6.50516 8.34547 6.82436 8.27317Z" fill="#4B4B4B"/>
<path opacity="0.5" d="M16.8769 12.2624C17.299 12.179 17.7415 12.5279 17.7493 12.9596C17.7514 14.6507 17.7499 16.3415 17.7499 18.0326C17.7475 18.4406 17.3569 18.7895 16.9513 18.7502C16.5688 18.7337 16.2415 18.3839 16.2511 18.0005C16.2499 16.3319 16.2493 14.663 16.2514 12.9944C16.2469 12.6404 16.528 12.3146 16.8769 12.2624Z" fill="#4B4B4B"/>
</svg>
