<svg width="24" height="24" viewBox="0 0 24 24" fill="none" xmlns="http://www.w3.org/2000/svg">
<path d="M11.699 1.34589C12.2206 1.22218 12.7643 1.23072 13.2929 1.30068C13.8561 1.37535 14.4096 1.50716 14.9605 1.64459C15.8629 1.8756 16.7624 2.1192 17.661 2.36504C18.121 2.49438 18.5805 2.62664 19.0315 2.78521C19.52 2.95773 20.0023 3.16265 20.431 3.45708C20.7353 3.66446 21.0023 3.92223 21.2398 4.20295C21.7549 4.81385 22.1141 5.55657 22.2662 6.34158C22.394 7.02491 22.3074 7.72579 22.1731 8.40103C22.0361 9.08617 21.853 9.76073 21.6751 10.436C21.3588 11.6108 21.048 12.7869 20.7277 13.9606C20.5817 14.4856 20.4321 15.0104 20.2481 15.5237C20.0567 16.0531 19.8223 16.5752 19.4744 17.0219C18.9082 17.7322 18.1225 18.2608 17.2597 18.5406C17.1556 18.5762 17.0478 18.6005 16.9437 18.6356C16.3609 18.7739 15.7527 18.7671 15.1636 18.6733C14.4404 18.5672 13.7333 18.3776 13.0265 18.1949C12.2759 17.995 11.5247 17.797 10.7768 17.5876C10.2615 17.4412 9.74684 17.2896 9.24704 17.0961C8.79246 16.9191 8.34823 16.7016 7.9627 16.3993C7.30388 15.8721 6.80273 15.1545 6.51167 14.3641C6.35107 13.928 6.25211 13.4669 6.25031 13.0011C6.24356 12.4145 6.3495 11.8341 6.47456 11.2633C6.68487 10.3318 6.94556 9.41299 7.18939 8.49011C7.27778 8.15946 7.36708 7.82904 7.4548 7.49839C7.60551 6.94191 7.75171 6.38454 7.90736 5.82964C8.14084 5.01269 8.37364 4.18315 8.79314 3.43841C9.09094 2.9042 9.52798 2.45839 10.0231 2.10413C10.5251 1.74536 11.098 1.48624 11.699 1.34589ZM12.3805 2.75575C11.9345 2.79084 11.5051 2.95256 11.1207 3.17682C10.6906 3.43683 10.3006 3.78728 10.0633 4.23601C9.81049 4.70836 9.65282 5.22368 9.49627 5.73404C9.19171 6.77119 8.92584 7.81914 8.64221 8.86214C8.39164 9.81337 8.12015 10.7594 7.90939 11.7205C7.80367 12.2451 7.6993 12.7851 7.77713 13.3211C7.85788 13.7827 8.04794 14.2236 8.31786 14.6059C8.54121 14.917 8.81225 15.2022 9.1465 15.3945C9.5561 15.6336 10.0087 15.7855 10.4583 15.9299C11.3515 16.2056 12.2582 16.4348 13.1604 16.6793C13.8891 16.8692 14.617 17.0712 15.362 17.1884C15.7797 17.2502 16.214 17.2799 16.6254 17.1645C17.2354 17.0046 17.7966 16.6625 18.2163 16.1917C18.3965 15.9857 18.5303 15.7443 18.6437 15.4969C18.7883 15.1768 18.901 14.8437 19.0067 14.5092C19.1977 13.8927 19.3624 13.2685 19.5306 12.6455C19.7495 11.8269 19.9694 11.0086 20.1883 10.1901C20.3806 9.4627 20.5817 8.7364 20.7243 7.99706C20.8062 7.53955 20.8757 7.06675 20.79 6.6043C20.7011 6.16748 20.5187 5.75046 20.2612 5.38675C20.0403 5.07927 19.7735 4.79676 19.4442 4.60489C19.0562 4.37592 18.6277 4.22701 18.2013 4.08823C17.6812 3.92246 17.1544 3.7803 16.6279 3.63725C15.7205 3.3968 14.817 3.14038 13.9013 2.93367C13.4019 2.82817 12.8934 2.72493 12.3805 2.75575Z" fill="#4B4B4B"/>
<path d="M11.6413 9.26148C11.7522 9.24191 11.8676 9.24731 11.9762 9.27812C13.5843 9.70886 15.1923 10.1398 16.8005 10.5706C17.0088 10.6264 17.1885 10.7777 17.2794 10.9732C17.3808 11.1831 17.3748 11.4408 17.2634 11.6457C17.1386 11.8875 16.8718 12.0466 16.6001 12.0434C16.4674 12.0459 16.3426 11.9973 16.2157 11.9663C14.6644 11.5504 13.1126 11.1356 11.5617 10.7188C11.3307 10.6536 11.139 10.4684 11.0635 10.241C10.9874 10.0238 11.0214 9.77207 11.151 9.58178C11.2619 9.4142 11.4438 9.29702 11.6413 9.26148Z" fill="#4B4B4B"/>
<path opacity="0.5" d="M5.17212 6.57849C6.07723 6.30722 6.99247 6.07015 7.90569 5.82812C7.75004 6.38303 7.60383 6.9404 7.45313 7.49688C6.77992 7.68424 6.10198 7.85654 5.43529 8.06685C4.88826 8.24657 4.32368 8.42921 3.86438 8.78865C3.32702 9.23783 2.94981 9.87146 2.79843 10.5543C2.71094 10.9635 2.7548 11.3861 2.81958 11.7951C2.91607 12.3709 3.06273 12.9366 3.20871 13.5014C3.57512 14.8795 3.94243 16.2577 4.31738 17.6338C4.46809 18.1689 4.61901 18.7049 4.82078 19.2236C4.95956 19.5711 5.12218 19.9173 5.3723 20.2C5.83633 20.7146 6.46996 21.0757 7.15105 21.2059C7.63105 21.2869 8.11915 21.2086 8.59217 21.12C9.36976 20.9643 10.1338 20.75 10.9002 20.5475C11.5882 20.3617 12.2783 20.1825 12.9608 19.9762C13.457 19.8219 13.9574 19.662 14.4111 19.404C14.7242 19.2285 14.9833 18.9712 15.199 18.6874C15.1898 18.6835 15.1711 18.6757 15.1619 18.6718C15.751 18.7656 16.3592 18.7724 16.942 18.634L16.9539 18.6608C16.85 18.8502 16.7616 19.0493 16.6431 19.231C16.3606 19.6827 16.0065 20.0932 15.585 20.4204C15.1815 20.7295 14.7177 20.9481 14.2442 21.1267C13.7406 21.3154 13.2239 21.4659 12.7066 21.6114C12.1463 21.7678 11.5837 21.9164 11.0219 22.0674C10.3756 22.2388 9.72964 22.4129 9.07555 22.5519C8.35802 22.7017 7.61328 22.8119 6.88383 22.6814C5.87345 22.4923 4.93212 21.9581 4.24766 21.1917C3.72582 20.6033 3.43386 19.857 3.19386 19.119C2.8938 18.1786 2.6547 17.2206 2.39558 16.2685C2.15356 15.3591 1.90434 14.4515 1.66996 13.5401C1.51364 12.917 1.36046 12.291 1.28601 11.652C1.22235 11.1075 1.23562 10.5478 1.38655 10.0181C1.6126 9.17913 2.07528 8.40559 2.70756 7.80976C2.97725 7.55311 3.28923 7.3437 3.61943 7.17343C4.1136 6.91903 4.64218 6.74134 5.17212 6.57849Z" fill="#4B4B4B"/>
<path opacity="0.5" d="M10.8912 12.1485C10.9949 12.1332 11.1017 12.1404 11.2027 12.1687C12.1659 12.4269 13.129 12.6849 14.0922 12.9432C14.2575 12.9868 14.4062 13.0898 14.5054 13.229C14.6455 13.4207 14.6846 13.68 14.6079 13.9047C14.4966 14.2624 14.0904 14.4916 13.7269 14.3971C12.7559 14.1382 11.7857 13.8768 10.8149 13.6175C10.6325 13.5714 10.469 13.4546 10.3687 13.2954C10.2434 13.1031 10.2153 12.8523 10.294 12.6368C10.3833 12.3804 10.6226 12.1858 10.8912 12.1485Z" fill="#4B4B4B"/>
</svg>
