<svg width="24" height="24" viewBox="0 0 24 24" fill="none" xmlns="http://www.w3.org/2000/svg">
<path d="M7.52548 2.63567C8.8558 2.60373 10.1866 2.61594 11.5169 2.61407C11.9083 2.6042 12.2603 2.96159 12.2392 3.35467C12.2374 3.73412 11.8942 4.06568 11.5164 4.05676C10.5789 4.0577 9.64095 4.05582 8.70345 4.06098C7.76314 4.07413 6.81908 4.07272 5.88626 4.20375C5.43626 4.27137 4.98251 4.36859 4.57611 4.58039C4.18611 4.77998 3.8608 5.10167 3.65595 5.48911C3.45626 5.86435 3.35408 6.28231 3.28611 6.69934C3.18298 7.34977 3.15533 8.00913 3.13751 8.6666C3.1122 10.0431 3.12111 11.42 3.12251 12.7965C3.13798 13.8297 3.12908 14.8699 3.2922 15.8937C3.39017 16.4779 3.56595 17.0823 3.9808 17.5238C4.45517 18.0347 5.13767 18.285 5.80611 18.4161C5.88626 18.1399 5.95939 17.8624 6.02783 17.5834C6.11736 17.2265 6.51345 16.9851 6.87111 17.0706C7.24423 17.142 7.51001 17.5482 7.42423 17.9197C7.26111 18.6725 6.97892 19.399 6.88517 20.1668C6.86173 20.4148 6.83595 20.6825 6.95267 20.9126C7.22689 20.8788 7.48329 20.7698 7.73595 20.6642C8.72455 20.2307 9.67048 19.7075 10.6549 19.2647C11.3374 18.9618 12.047 18.7044 12.7877 18.5879C13.5756 18.4654 14.3758 18.5039 15.1699 18.4964C16.143 18.4823 17.1199 18.4874 18.086 18.3559C18.5833 18.2827 19.0891 18.1756 19.5278 17.9183C19.9188 17.6928 20.2295 17.3378 20.4138 16.9264C20.6322 16.4422 20.718 15.9111 20.7756 15.3865C20.8914 14.2453 20.8661 13.0966 20.8835 11.9517C20.8985 11.6544 21.1183 11.3853 21.4042 11.3064C21.7122 11.2106 22.0703 11.3623 22.2245 11.6445C22.3169 11.792 22.3244 11.9714 22.3202 12.1404C22.3094 13.3126 22.3244 14.4881 22.195 15.6547C22.1003 16.4568 21.9222 17.273 21.4895 17.9657C21.0799 18.6288 20.4461 19.1426 19.7233 19.4267C18.8425 19.7728 17.8881 19.8541 16.9516 19.9015C16.2485 19.9329 15.5439 19.9381 14.8403 19.9395C14.1194 19.9494 13.3886 19.9104 12.6813 20.0781C11.6749 20.3152 10.757 20.8093 9.83642 21.2639C9.2308 21.5588 8.62986 21.865 8.00455 22.1153C7.5747 22.2792 7.10548 22.4102 6.64376 22.3154C6.15673 22.2158 5.76111 21.8307 5.58205 21.3747C5.38517 20.8835 5.4058 20.3382 5.47705 19.8235C4.4622 19.6183 3.45158 19.1665 2.78501 18.348C2.14986 17.5867 1.90892 16.5869 1.80158 15.6218C1.67314 14.4355 1.68908 13.2403 1.68064 12.0489C1.68111 10.9997 1.67501 9.95056 1.69376 8.90142C1.71908 7.80437 1.74673 6.68854 2.05423 5.62672C2.27126 4.85465 2.71892 4.14082 3.35783 3.651C3.93111 3.19969 4.63845 2.96018 5.34814 2.82962C6.06626 2.69813 6.79705 2.65868 7.52548 2.63567Z" fill="#4B4B4B"/>
<g opacity="0.7">
<path d="M16.8579 2.66961C17.2198 3.02361 17.5814 3.37795 17.9429 3.73229C18.4446 4.22395 18.9462 4.7156 19.4488 5.20637C19.6627 5.40494 19.7682 5.70404 19.7182 5.9865C19.684 6.22118 19.5282 6.41409 19.3757 6.59107C18.9418 7.01543 18.5083 7.44018 18.0748 7.86493C17.6696 8.26205 17.2642 8.65917 16.8587 9.056C16.7215 9.1128 16.5674 9.12923 16.4217 9.09813C16.1475 9.04653 15.9156 8.82723 15.846 8.55723C15.7926 8.36223 15.8232 8.14593 15.9297 7.97373C15.9807 7.88823 16.0517 7.81833 16.1222 7.74884C16.1381 7.73324 16.1539 7.71766 16.1694 7.70193C16.3924 7.47887 16.6154 7.25588 16.8385 7.03289C17.2289 6.64258 17.6193 6.25225 18.0093 5.86143C17.7451 5.59706 17.4808 5.33279 17.2164 5.06852C16.8199 4.67213 16.4234 4.27574 16.0272 3.87903C15.7476 3.60243 15.7548 3.10383 16.0401 2.83383C16.2461 2.61552 16.5856 2.55952 16.8579 2.66961Z" fill="#4B4B4B"/>
<path d="M19.4483 2.66814C19.8101 3.02215 20.1717 3.37649 20.5332 3.73083C21.0349 4.22248 21.5365 4.71414 22.0391 5.20491C22.253 5.40348 22.3585 5.70258 22.3085 5.98504C22.2744 6.21972 22.1185 6.41263 21.966 6.58961C21.5322 7.01397 21.0987 7.43872 20.6652 7.86347C20.2599 8.26059 19.8546 8.65771 19.449 9.05453C19.3118 9.11134 19.1577 9.12777 19.0121 9.09667C18.7379 9.04507 18.506 8.82577 18.4364 8.55577C18.383 8.36077 18.4136 8.14447 18.5201 7.97227C18.571 7.88676 18.642 7.81687 18.7125 7.74738C18.7284 7.73178 18.7442 7.7162 18.7598 7.70047C18.9827 7.47741 19.2058 7.25442 19.4288 7.03143C19.8192 6.64112 20.2096 6.25079 20.5997 5.85997C20.3354 5.5956 20.0711 5.33133 19.8067 5.06706C19.4102 4.67067 19.0137 4.27428 18.6176 3.87757C18.338 3.60097 18.3452 3.10237 18.6305 2.83237C18.8364 2.61405 19.1759 2.55806 19.4483 2.66814Z" fill="#4B4B4B"/>
</g>
</svg>
