<svg width="24" height="25" viewBox="0 0 24 25" fill="none" xmlns="http://www.w3.org/2000/svg">
<path d="M17.9006 3.71223C18.1372 3.52531 18.4883 3.50507 18.7448 3.66387C18.9647 3.79433 19.1087 4.04355 19.1078 4.29997C19.1078 5.71748 19.1078 7.13521 19.1078 8.55294C19.1076 8.73423 19.0381 8.91418 18.9164 9.04869C18.7758 9.20681 18.5655 9.30038 18.3538 9.29768C16.9372 9.29746 15.5206 9.29791 14.104 9.29746C13.8775 9.29521 13.6557 9.18252 13.5201 9.00168C13.3732 8.81183 13.328 8.54957 13.402 8.32149C13.4751 8.08351 13.6753 7.89075 13.9151 7.82529C14.0347 7.78908 14.1607 7.79943 14.2839 7.79808C15.0132 7.79808 15.7422 7.79808 16.4714 7.79808C16.8502 7.79695 17.229 7.8001 17.6075 7.7965C17.6091 7.45978 17.6082 7.12306 17.608 6.78634C17.6084 5.9586 17.608 5.13086 17.6084 4.30312C17.6073 4.07459 17.7198 3.85078 17.9006 3.71223Z" fill="#4B4B4B"/>
<path opacity="0.5" d="M11.1819 4.78672C13.0612 4.6079 14.9952 5.05641 16.5983 6.05509C16.9514 6.27463 17.2904 6.51778 17.608 6.78634C17.6082 7.12306 17.6091 7.45978 17.6075 7.7965C17.229 7.8001 16.8502 7.79695 16.4714 7.79808C15.0768 6.68197 13.2504 6.13427 11.4714 6.26743C10.4583 6.33963 9.46078 6.62754 8.56624 7.10934C7.45081 7.7081 6.49846 8.6058 5.83176 9.68164C5.33917 10.4747 5.00425 11.365 4.84972 12.2859C4.6718 13.3374 4.72916 14.4283 5.01707 15.4554C5.43027 16.9505 6.34663 18.2964 7.57587 19.2409C8.73291 20.1379 10.1695 20.6647 11.6316 20.7349C12.9755 20.804 14.3375 20.4911 15.5132 19.8356C16.5443 19.2634 17.4309 18.4348 18.0742 17.4469C18.7324 16.4396 19.1294 15.2646 19.2218 14.0653C19.2877 13.2326 19.207 12.3896 18.9895 11.5834C18.8991 11.2112 19.1463 10.8002 19.5165 10.7042C19.8894 10.5868 20.3233 10.8189 20.4349 11.1925C20.8895 12.8444 20.8395 14.6301 20.2986 16.2554C19.7549 17.9107 18.6941 19.3871 17.3113 20.4447C15.8654 21.5591 14.0613 22.1947 12.2371 22.2401C10.7654 22.2817 9.28399 21.9464 7.97714 21.268C6.5936 20.5536 5.41002 19.4602 4.58228 18.1419C3.59484 16.5769 3.13261 14.6915 3.27296 12.8473C3.36114 11.6457 3.69988 10.4626 4.26535 9.39867C5.00447 8.00321 6.13025 6.81648 7.48207 6.00134C8.60267 5.32385 9.87825 4.90683 11.1819 4.78672Z" fill="#4B4B4B"/>
</svg>
