<svg width="24" height="24" viewBox="0 0 24 24" fill="none" xmlns="http://www.w3.org/2000/svg">
<path d="M17.9003 3.21223C18.137 3.02531 18.4881 3.00507 18.7445 3.16387C18.9645 3.29433 19.1084 3.54355 19.1075 3.79997C19.1075 5.21748 19.1075 6.63521 19.1075 8.05294C19.1073 8.23423 19.0378 8.41418 18.9161 8.54869C18.7755 8.70681 18.5652 8.80038 18.3536 8.79768C16.937 8.79746 15.5204 8.79791 14.1037 8.79746C13.8772 8.79521 13.6555 8.68252 13.5198 8.50168C13.3729 8.31183 13.3277 8.04957 13.4017 7.82149C13.4748 7.58351 13.675 7.39075 13.9148 7.32529C14.0345 7.28908 14.1604 7.29943 14.2837 7.29808C15.0129 7.29808 15.7419 7.29808 16.4711 7.29808C16.8499 7.29695 17.2287 7.3001 17.6073 7.2965C17.6088 6.95978 17.6079 6.62306 17.6077 6.28634C17.6081 5.4586 17.6077 4.63086 17.6082 3.80312C17.607 3.57459 17.7195 3.35078 17.9003 3.21223Z" fill="#4B4B4B"/>
<path opacity="0.5" d="M11.1817 4.28675C13.061 4.10793 14.9949 4.55644 16.598 5.55512C16.9512 5.77466 17.2901 6.0178 17.6077 6.28637C17.608 6.62309 17.6089 6.95981 17.6073 7.29653C17.2287 7.30013 16.8499 7.29698 16.4712 7.2981C15.0766 6.182 13.2502 5.6343 11.4712 5.76746C10.4581 5.83966 9.46051 6.12757 8.56597 6.60937C7.45054 7.20813 6.49819 8.10583 5.83149 9.18167C5.3389 9.97477 5.00398 10.8651 4.84945 11.7859C4.67153 12.8375 4.72889 13.9284 5.0168 14.9554C5.42999 16.4505 6.34636 17.7965 7.5756 18.741C8.73264 19.638 10.1693 20.1648 11.6313 20.235C12.9753 20.304 14.3373 19.9912 15.513 19.3357C16.544 18.7635 17.4307 17.9348 18.074 16.947C18.7322 15.9397 19.1292 14.7647 19.2216 13.5654C19.2875 12.7327 19.2068 11.8896 18.9892 11.0835C18.8988 10.7112 19.146 10.3003 19.5163 10.2042C19.8892 10.0868 20.3231 10.319 20.4346 10.6926C20.8892 12.3444 20.8393 14.1302 20.2983 15.7555C19.7547 17.4108 18.6939 18.8872 17.311 19.9448C15.8652 21.0591 14.061 21.6948 12.2369 21.7402C10.7651 21.7818 9.28372 21.4464 7.97687 20.7681C6.59333 20.0537 5.40975 18.9603 4.58201 17.642C3.59457 16.0769 3.13234 14.1916 3.27269 12.3474C3.36087 11.1458 3.69961 9.96262 4.26508 8.8987C5.0042 7.50324 6.12998 6.31651 7.4818 5.50137C8.6024 4.82388 9.87798 4.40686 11.1817 4.28675Z" fill="#4B4B4B"/>
</svg>
