<svg width="25" height="25" viewBox="0 0 25 25" fill="none" xmlns="http://www.w3.org/2000/svg">
<path d="M6.4156 1.83445C7.37223 1.74088 8.3347 1.76247 9.2947 1.75775C10.7343 1.75145 12.1736 1.7519 13.6131 1.75235C14.7306 1.75415 15.848 1.74717 16.9655 1.75932C17.5348 1.76764 18.105 1.78384 18.6713 1.84367C19.1545 1.8963 19.6379 1.98605 20.0913 2.16554C20.7594 2.42489 21.3343 2.92288 21.6697 3.55786C21.9753 4.12468 22.0955 4.76865 22.1614 5.40318C22.2354 6.17267 22.2381 6.94642 22.2432 7.71883C22.2432 10.5309 22.243 13.3432 22.2432 16.1553C22.2426 16.8827 22.2477 17.6101 22.2304 18.3375C22.2192 18.7874 22.2012 19.2377 22.1517 19.6853C22.1 20.1518 22.0156 20.6186 21.8449 21.0576C21.6004 21.7142 21.1265 22.2839 20.516 22.6299C19.843 23.017 19.0571 23.1312 18.2946 23.1904C17.2304 23.2644 16.1627 23.2401 15.0968 23.248C13.0951 23.2487 11.0937 23.2471 9.09204 23.248C8.37991 23.243 7.66734 23.2469 6.95633 23.2068C6.37871 23.1731 5.7975 23.1159 5.24057 22.9517C4.80668 22.8242 4.39101 22.6211 4.04394 22.3289C3.80574 22.1245 3.59229 21.889 3.42719 21.6213C3.00769 20.9514 2.87521 20.1511 2.81223 19.3763C2.75622 18.6677 2.75442 17.9565 2.74925 17.2462C2.74902 16.7473 2.74947 16.2486 2.74902 15.7497C2.74947 14.9157 2.74925 14.0816 2.74925 13.2476C2.74925 12.7487 2.74925 12.2498 2.74925 11.7509C2.74925 10.9171 2.74925 10.0831 2.74925 9.24925C2.74925 8.75036 2.74925 8.25169 2.74925 7.75302C2.75397 7.12727 2.75577 6.50106 2.79446 5.87621C2.82437 5.39936 2.87296 4.92116 2.98722 4.45623C3.08349 4.06912 3.22632 3.69012 3.44316 3.35385C3.76616 2.84775 4.24548 2.44626 4.79656 2.20918C5.30805 1.98672 5.86363 1.88978 6.4156 1.83445ZM7.74921 3.2641C7.40147 3.27152 7.0535 3.28412 6.70689 3.31313C6.35735 3.3453 6.00601 3.38556 5.66839 3.48566C5.41759 3.56168 5.17017 3.67055 4.97425 3.84847C4.75 4.04528 4.5948 4.3107 4.50685 4.59388C4.37392 4.99966 4.33118 5.42747 4.29856 5.85102C4.25448 6.48352 4.2529 7.11782 4.24975 7.75167C4.24773 8.25079 4.2493 8.75014 4.24885 9.24948C4.24863 10.0831 4.24863 10.9169 4.24885 11.7505C4.24885 12.2498 4.24863 12.7492 4.24885 13.2485C4.24863 14.0823 4.24863 14.9161 4.24885 15.7499C4.24885 16.2304 4.24863 16.7106 4.24908 17.1911C4.24323 17.3416 4.24278 17.4925 4.25245 17.6432C4.25605 18.2183 4.26505 18.7944 4.31656 19.3677C4.36109 19.8183 4.42048 20.28 4.62426 20.6905C4.74797 20.9553 4.95896 21.1737 5.2102 21.3206C5.53388 21.5153 5.91244 21.5831 6.28065 21.6406C6.76694 21.7106 7.25886 21.7207 7.74921 21.7365C8.24856 21.7481 8.74812 21.7466 9.24769 21.7488C10.8152 21.7479 12.383 21.7488 13.9507 21.7495C15.0981 21.7439 16.2457 21.7567 17.3928 21.7322C17.9311 21.7187 18.4716 21.6912 19.002 21.5927C19.3637 21.5228 19.7299 21.4031 20.0128 21.1584C20.2715 20.9357 20.431 20.6201 20.5209 20.2953C20.6386 19.8709 20.6755 19.4296 20.7052 18.9919C20.7385 18.4142 20.7389 17.8353 20.7436 17.257C20.7423 13.9807 20.7463 10.7041 20.7416 7.42777C20.7342 6.79685 20.7326 6.16412 20.6667 5.53566C20.6208 5.1137 20.5576 4.68228 20.3642 4.29923C20.2375 4.04393 20.0369 3.8262 19.7901 3.68359C19.437 3.47711 19.0272 3.39973 18.6264 3.34935C18.1347 3.28907 17.6391 3.26995 17.1443 3.26185C15.922 3.24543 14.6995 3.25375 13.4773 3.25173C12.0674 3.25173 10.6576 3.25195 9.24769 3.25173C8.74812 3.25353 8.24856 3.25375 7.74921 3.2641Z" fill="#4B4B4B"/>
<path d="M14.4565 9.40375C15.363 9.34662 16.2886 9.44828 17.1415 9.77016C17.5743 9.93323 17.9891 10.1561 18.3391 10.4611C18.6801 10.7565 18.9572 11.1438 19.0591 11.5885C19.12 11.8393 19.1031 12.0993 19.0991 12.3551C19.0867 12.7413 19.0107 13.1385 18.7943 13.4655C18.5955 13.7703 18.2934 13.9959 17.963 14.1417C17.6051 14.3029 17.2194 14.3911 16.8327 14.4505C16.3781 14.5198 15.9184 14.549 15.4591 14.5623C14.9377 14.5753 14.4156 14.5706 13.8949 14.5407C13.4129 14.5112 12.9304 14.457 12.4614 14.3389C12.1031 14.2472 11.7493 14.1111 11.4524 13.8861C11.1818 13.6837 10.974 13.3976 10.8689 13.076C10.7792 12.8076 10.7529 12.5228 10.7486 12.2412C10.7457 12.0231 10.7387 11.8015 10.792 11.588C10.8844 11.1845 11.1222 10.8264 11.4204 10.5444C11.9106 10.0808 12.5415 9.79513 13.1848 9.61473C13.5998 9.49979 14.0272 9.43254 14.4565 9.40375ZM14.4802 10.505C13.8132 10.5565 13.1414 10.7142 12.5606 11.0556C12.2999 11.2126 12.05 11.4142 11.9146 11.6931C11.8363 11.8485 11.8431 12.0276 11.8496 12.1967C11.8566 12.407 11.8546 12.6288 11.9524 12.8211C12.0361 12.9846 12.2061 13.0764 12.366 13.1513C12.6119 13.2563 12.8762 13.3117 13.1389 13.3558C13.6326 13.4354 14.1335 13.4586 14.6329 13.4669C15.2231 13.4736 15.8151 13.4649 16.4022 13.3983C16.7927 13.3504 17.1892 13.289 17.5487 13.1214C17.7032 13.0474 17.8561 12.9383 17.9211 12.7732C18.0152 12.5325 17.9949 12.2694 18.0041 12.0163C18.0125 11.8114 17.918 11.6177 17.7887 11.4643C17.5541 11.1897 17.2344 11.0025 16.9067 10.8602C16.144 10.5408 15.3007 10.4458 14.4802 10.505Z" fill="#4B4B4B"/>
<path d="M11.8693 16.3707C13.8001 16.3649 15.7313 16.37 17.6621 16.3682C17.8497 16.3714 18.0472 16.3469 18.2226 16.4303C18.5247 16.5549 18.7159 16.8921 18.668 17.2155C18.6282 17.5754 18.2948 17.8728 17.932 17.8676C15.923 17.8674 13.9137 17.8683 11.9044 17.8672C11.5377 17.864 11.2053 17.5556 11.1796 17.1888C11.1304 16.7868 11.464 16.3883 11.8693 16.3707Z" fill="#4B4B4B"/>
<path opacity="0.5" d="M7.74957 3.26432C8.24891 3.25398 8.74848 3.25375 9.24805 3.25195C9.24805 9.41773 9.2485 15.5833 9.24805 21.749C8.74848 21.7468 8.24891 21.7484 7.74957 21.7367C7.74754 15.5792 7.74754 9.42178 7.74957 3.26432Z" fill="#4B4B4B"/>
<path opacity="0.5" d="M14.4326 4.42954C14.9238 4.35418 15.4382 4.43628 15.8796 4.66526C16.4743 4.97049 16.9271 5.53911 17.0879 6.18826C17.2249 6.73214 17.1614 7.32416 16.9095 7.8253C16.6032 8.44026 16.017 8.90924 15.3474 9.06556C14.8318 9.19017 14.2749 9.13439 13.7949 8.90946C13.1131 8.59523 12.6019 7.93799 12.4703 7.19842C12.3315 6.47235 12.558 5.68667 13.0686 5.15111C13.4274 4.76963 13.9139 4.50714 14.4326 4.42954ZM14.5221 5.53147C14.1672 5.60862 13.8516 5.84772 13.6809 6.16824C13.5207 6.46245 13.4874 6.82166 13.5871 7.14106C13.6894 7.47621 13.9391 7.7621 14.2562 7.91055C14.5441 8.04708 14.8847 8.06777 15.1874 7.96836C15.5046 7.86556 15.7768 7.63119 15.925 7.33248C16.0748 7.03782 16.0993 6.68333 15.9954 6.37001C15.8757 6.0009 15.575 5.69612 15.2077 5.5715C14.9884 5.4957 14.7486 5.48243 14.5221 5.53147Z" fill="#4B4B4B"/>
<path opacity="0.5" d="M2.14839 7.83868C2.33171 7.73791 2.54742 7.74713 2.74963 7.75366C2.74963 8.25233 2.74963 8.751 2.74963 9.24989C2.57688 9.25011 2.39694 9.26923 2.23274 9.20333C1.96462 9.10369 1.76781 8.83804 1.75139 8.55238C1.73002 8.26425 1.89287 7.97274 2.14839 7.83868Z" fill="#4B4B4B"/>
<path opacity="0.5" d="M4.25009 7.75266C4.45905 7.74749 4.68285 7.73849 4.86887 7.8505C5.12439 7.98996 5.27846 8.28889 5.24518 8.57815C5.22246 8.85437 5.02834 9.10426 4.77012 9.20188C4.6048 9.26824 4.42306 9.25092 4.24919 9.25047C4.24964 8.75112 4.24806 8.25178 4.25009 7.75266Z" fill="#4B4B4B"/>
<path opacity="0.5" d="M2.30092 11.7761C2.44712 11.7367 2.59985 11.7502 2.74943 11.7506C2.74943 12.2495 2.74943 12.7484 2.74943 13.2473C2.54047 13.2525 2.31576 13.2649 2.12997 13.1517C1.81642 12.9792 1.66212 12.5678 1.7982 12.2342C1.883 12.0154 2.07217 11.8357 2.30092 11.7761Z" fill="#4B4B4B"/>
<path opacity="0.5" d="M4.24912 11.7502C4.43289 11.7486 4.62611 11.7338 4.7984 11.8107C5.0546 11.9221 5.23994 12.1852 5.24894 12.4657C5.26693 12.7763 5.06697 13.0827 4.77793 13.1954C4.61059 13.2649 4.42592 13.2487 4.24912 13.2482C4.2489 12.7489 4.24912 12.2496 4.24912 11.7502Z" fill="#4B4B4B"/>
<path opacity="0.5" d="M1.82292 16.1724C1.93134 15.9459 2.15964 15.7795 2.41044 15.7545C2.52313 15.7442 2.63649 15.7489 2.74941 15.7507C2.74986 16.2496 2.74941 16.7483 2.74963 17.2472C2.53122 17.2555 2.29595 17.2609 2.10566 17.1356C1.78356 16.9478 1.65602 16.5047 1.82292 16.1724Z" fill="#4B4B4B"/>
<path opacity="0.5" d="M4.24908 15.7508C4.37796 15.7495 4.50775 15.7414 4.63573 15.7612C4.89283 15.8046 5.11461 15.9969 5.2039 16.2405C5.32807 16.5628 5.19063 16.9569 4.8962 17.1355C4.70703 17.2603 4.47108 17.2538 4.2538 17.2491C4.25695 17.3807 4.25695 17.5123 4.25268 17.6441C4.243 17.4934 4.24345 17.3424 4.2493 17.192C4.24885 16.7115 4.24908 16.2313 4.24908 15.7508Z" fill="#4B4B4B"/>
<path opacity="0.5" d="M11.9558 19.087C12.3735 19.0755 12.7914 19.0881 13.2093 19.0836C14.7915 19.0843 16.3736 19.0825 17.9558 19.0845C18.3339 19.0899 18.6713 19.4206 18.6798 19.7998C18.7109 20.1883 18.3886 20.5641 17.999 20.5877C17.7592 20.601 17.5188 20.5898 17.2788 20.5934C15.4872 20.5929 13.6956 20.5947 11.9041 20.5922C11.5147 20.5891 11.1658 20.2344 11.1764 19.8437C11.158 19.4307 11.5428 19.0557 11.9558 19.087Z" fill="#4B4B4B"/>
</svg>
