<svg width="24" height="24" viewBox="0 0 24 24" fill="none" xmlns="http://www.w3.org/2000/svg">
<path d="M13.7127 5.30705C13.9737 5.19545 14.2956 5.25094 14.5041 5.44415C16.5195 7.45925 18.5349 9.47495 20.5503 11.4904C20.811 11.758 20.8149 12.2206 20.5635 12.496C18.5496 14.5111 16.5348 16.5247 14.5206 18.5395C14.3637 18.6931 14.1357 18.7711 13.9176 18.7456C13.6566 18.7192 13.4169 18.544 13.314 18.3025C13.1859 18.0244 13.2552 17.6743 13.4754 17.4628C14.2896 16.6474 15.105 15.8329 15.9198 15.0178C16.6722 14.269 17.4174 13.5124 18.1746 12.7687C18.4191 12.5065 18.6864 12.2647 18.9291 12.0013C18.6897 11.7361 18.4194 11.4952 18.1752 11.2327C16.6128 9.68255 15.0618 8.12075 13.5036 6.56645C13.3476 6.42155 13.2468 6.21485 13.2504 6.00005C13.245 5.70335 13.4379 5.41715 13.7127 5.30705Z" fill="#4B4B4B"/>
<path opacity="0.5" d="M18.1758 11.2344C18.42 11.4969 18.6902 11.7378 18.9296 12.003C18.6869 12.2664 18.4197 12.5082 18.1752 12.7704C18.1626 12.7659 18.1374 12.7563 18.1248 12.7518C13.4124 12.7518 8.69995 12.7521 3.98755 12.7515C3.74155 12.7506 3.50275 12.6162 3.37075 12.4095C3.25765 12.2385 3.22195 12.0198 3.27235 11.8212C3.33265 11.5701 3.53215 11.3586 3.77995 11.2851C3.90565 11.2422 4.04005 11.2524 4.17055 11.2518C8.82265 11.2518 13.4748 11.2521 18.1269 11.2515C18.1392 11.2473 18.1635 11.2386 18.1758 11.2344Z" fill="#4B4B4B"/>
</svg>
