<svg width="24" height="24" viewBox="0 0 24 24" fill="none" xmlns="http://www.w3.org/2000/svg">
<path d="M11.5858 1.26825C12.5275 1.18485 13.4935 1.38855 14.3179 1.85325C15.2713 2.38425 16.0306 3.25455 16.426 4.27215C16.8754 5.41305 16.8565 6.72885 16.3741 7.85655C15.97 8.81235 15.2419 9.62625 14.3383 10.136C13.3498 10.7006 12.1546 10.8845 11.041 10.6535C10.0741 10.4579 9.17589 9.94725 8.50899 9.22095C7.82199 8.48085 7.38159 7.51575 7.27749 6.51105C7.18659 5.67195 7.32189 4.80885 7.67169 4.04055C8.09229 3.10905 8.82309 2.32155 9.72069 1.83225C10.294 1.51695 10.9336 1.32375 11.5858 1.26825ZM11.5354 2.78325C11.0014 2.85945 10.4875 3.07185 10.0561 3.39585C9.53229 3.78525 9.13089 4.33665 8.92179 4.95495C8.66829 5.69805 8.69619 6.53355 9.00219 7.25715C9.30009 7.97265 9.86409 8.57235 10.5595 8.91435C11.2135 9.24075 11.9797 9.33255 12.6934 9.17595C13.3738 9.03015 14.002 8.65545 14.4565 8.12835C14.7574 7.78185 14.9842 7.37085 15.115 6.93075C15.3193 6.24795 15.2917 5.49795 15.034 4.83315C14.7727 4.14945 14.272 3.56175 13.6396 3.19365C13.012 2.82285 12.2563 2.67885 11.5354 2.78325Z" fill="#4B4B4B"/>
<path opacity="0.5" d="M10.0134 12.383C11.5338 12.1796 13.0866 12.2075 14.5968 12.4799C14.4243 12.701 14.2932 12.95 14.1513 13.1909C14.0259 13.4123 13.8894 13.6301 13.8051 13.8716C12.4008 13.6838 10.9659 13.7114 9.57305 13.9742C8.56655 14.168 7.57445 14.4839 6.67955 14.9906C6.14105 15.2981 5.63225 15.6776 5.25035 16.1711C4.95935 16.5476 4.75325 17.0069 4.75055 17.4893C4.75265 17.9378 4.74875 18.3887 4.81025 18.8339C4.85825 19.1729 4.95995 19.514 5.17025 19.7891C5.43095 20.1329 5.81465 20.3573 6.20555 20.5244C6.80465 20.7746 7.44455 20.9099 8.08385 21.011C9.30965 21.1955 10.5516 21.2417 11.7894 21.2498C12.7503 21.2513 13.7112 21.2456 14.6715 21.2099C15.3039 21.1844 15.9369 21.1496 16.5651 21.0674C16.8873 21.023 17.2104 20.9708 17.5221 20.8754C17.6136 20.9453 17.6967 21.0278 17.8011 21.0797C18.0432 21.2183 18.3321 21.2033 18.6015 21.2102C18.9423 21.2069 19.2849 21.224 19.6239 21.1823C19.3725 21.5588 19.0167 21.86 18.6111 22.0595C18.009 22.3565 17.34 22.4783 16.6794 22.5647C15.4758 22.7102 14.2614 22.7306 13.0506 22.7459C11.3778 22.7612 9.69785 22.7528 8.03825 22.5206C7.06355 22.3781 6.08045 22.166 5.20085 21.707C4.71545 21.4496 4.26965 21.1025 3.94595 20.6549C3.64955 20.2523 3.46295 19.7771 3.36605 19.2884C3.24455 18.6875 3.24875 18.0713 3.25055 17.4608C3.25565 16.7465 3.50585 16.0466 3.91145 15.4628C4.47125 14.6513 5.27615 14.0387 6.13775 13.5761C7.33955 12.938 8.66945 12.5678 10.0134 12.383Z" fill="#4B4B4B"/>
<path d="M18.3854 14.5501C18.5857 14.5126 18.805 14.6096 18.9092 14.7853C18.9412 14.8377 18.9543 14.8986 18.9778 14.9548C19.1503 15.3776 19.3692 15.7866 19.6694 16.1332C19.9194 16.4232 20.2333 16.6619 20.5914 16.8014C20.7786 16.9047 20.9849 16.9694 21.1689 17.079C21.2782 17.1444 21.3809 17.2329 21.4308 17.3531C21.4945 17.5064 21.4766 17.6969 21.3668 17.8248C21.2563 17.9545 21.0951 18.0226 20.9423 18.0882C20.8211 18.1369 20.7021 18.1909 20.5883 18.2548C20.19 18.4175 19.8484 18.6992 19.584 19.0359C19.3022 19.3947 19.0929 19.8067 18.9395 20.2351C18.8452 20.4286 18.6193 20.5408 18.408 20.5185C18.2912 20.5071 18.1774 20.4461 18.1119 20.3475C17.8489 19.9068 17.6974 19.3997 17.3633 19.0023C17.2925 18.9139 17.2049 18.8418 17.1283 18.7588C16.9945 18.6219 16.837 18.5101 16.6718 18.4144C16.3482 18.2269 15.9956 18.0961 15.6706 17.9115C15.4507 17.7565 15.4291 17.404 15.6048 17.2078C15.6564 17.1466 15.7325 17.1177 15.8019 17.0822C16.21 16.8732 16.6482 16.709 17.0077 16.4172C17.1062 16.3387 17.1934 16.2475 17.2763 16.153C17.3938 16.0426 17.4913 15.9125 17.572 15.7733C17.7835 15.412 17.8999 14.9957 18.169 14.6687C18.2217 14.6023 18.3043 14.5671 18.3854 14.5501ZM17.2808 17.5405C17.7453 17.8649 18.1541 18.2678 18.4873 18.7259C18.8185 18.2671 19.2187 17.8575 19.6741 17.5213C19.2113 17.195 18.8036 16.7907 18.4732 16.3307C18.1483 16.7978 17.7428 17.2083 17.2808 17.5405Z" fill="#4B4B4B"/>
<path opacity="0.5" d="M21.0436 12.8956C21.1784 12.8703 21.326 12.9356 21.3961 13.0538C21.4177 13.0891 21.4265 13.1301 21.4423 13.1679C21.5583 13.4524 21.7056 13.7277 21.9077 13.9609C22.0759 14.1561 22.2872 14.3167 22.5281 14.4106C22.6541 14.4801 22.7929 14.5236 22.9168 14.5974C22.9904 14.6414 23.0594 14.701 23.093 14.7819C23.1359 14.885 23.1239 15.0132 23.05 15.0993C22.9756 15.1866 22.8671 15.2324 22.7643 15.2766C22.6827 15.3093 22.6027 15.3456 22.526 15.3887C22.258 15.4981 22.0281 15.6877 21.8502 15.9143C21.6606 16.1557 21.5197 16.433 21.4165 16.7213C21.353 16.8515 21.201 16.927 21.0588 16.912C20.9802 16.9043 20.9037 16.8633 20.8596 16.7969C20.6826 16.5004 20.5806 16.1591 20.3558 15.8917C20.3081 15.8322 20.2492 15.7836 20.1976 15.7278C20.1076 15.6357 20.0016 15.5605 19.8905 15.496C19.6727 15.3698 19.4354 15.2819 19.2167 15.1576C19.0687 15.0533 19.0542 14.8161 19.1724 14.6841C19.2071 14.6429 19.2583 14.6234 19.3051 14.5996C19.5797 14.4589 19.8746 14.3484 20.1165 14.152C20.1828 14.0992 20.2414 14.0378 20.2973 13.9742C20.3764 13.9 20.4419 13.8124 20.4962 13.7187C20.6386 13.4756 20.7169 13.1955 20.898 12.9754C20.9335 12.9307 20.989 12.907 21.0436 12.8956ZM20.3003 14.908C20.6129 15.1262 20.888 15.3974 21.1122 15.7057C21.3351 15.3969 21.6044 15.1213 21.9108 14.895C21.5994 14.6754 21.325 14.4034 21.1027 14.0938C20.8841 14.4082 20.6112 14.6844 20.3003 14.908Z" fill="#4B4B4B"/>
<path opacity="0.5" d="M15.786 12.8956C15.9208 12.8703 16.0684 12.9356 16.1385 13.0538C16.1601 13.0891 16.1689 13.1301 16.1847 13.1679C16.3008 13.4524 16.4481 13.7277 16.6501 13.9609C16.8184 14.1561 17.0296 14.3167 17.2706 14.4106C17.3966 14.4801 17.5354 14.5236 17.6592 14.5974C17.7328 14.6414 17.8019 14.701 17.8354 14.7819C17.8783 14.885 17.8663 15.0132 17.7924 15.0993C17.718 15.1866 17.6095 15.2324 17.5067 15.2766C17.4251 15.3093 17.3451 15.3456 17.2685 15.3887C17.0005 15.4981 16.7706 15.6877 16.5926 15.9143C16.403 16.1557 16.2622 16.433 16.159 16.7213C16.0955 16.8515 15.9435 16.927 15.8013 16.912C15.7226 16.9043 15.6461 16.8633 15.602 16.7969C15.425 16.5004 15.323 16.1591 15.0983 15.8917C15.0506 15.8322 14.9916 15.7836 14.9401 15.7278C14.85 15.6357 14.7441 15.5605 14.6329 15.496C14.4151 15.3698 14.1779 15.2819 13.9591 15.1576C13.8112 15.0533 13.7966 14.8161 13.9149 14.6841C13.9496 14.6429 14.0008 14.6234 14.0475 14.5996C14.3221 14.4589 14.617 14.3484 14.8589 14.152C14.9252 14.0992 14.9839 14.0378 15.0397 13.9742C15.1188 13.9 15.1843 13.8124 15.2386 13.7187C15.381 13.4756 15.4594 13.1955 15.6404 12.9754C15.6759 12.9307 15.7314 12.907 15.786 12.8956ZM15.0427 14.908C15.3553 15.1262 15.6304 15.3974 15.8546 15.7057C16.0775 15.3969 16.3468 15.1213 16.6533 14.895C16.3418 14.6754 16.0675 14.4034 15.8452 14.0938C15.6265 14.4082 15.3536 14.6844 15.0427 14.908Z" fill="#4B4B4B"/>
</svg>
