<svg width="24" height="24" viewBox="0 0 24 24" fill="none" xmlns="http://www.w3.org/2000/svg">
<path d="M11.5858 1.26825C12.5275 1.18485 13.4935 1.38855 14.3179 1.85325C15.2713 2.38425 16.0306 3.25455 16.426 4.27215C16.8754 5.41305 16.8565 6.72885 16.3741 7.85655C15.97 8.81235 15.2419 9.62625 14.3383 10.136C13.3498 10.7006 12.1546 10.8845 11.041 10.6535C10.0741 10.4579 9.17589 9.94725 8.50899 9.22095C7.82199 8.48085 7.38159 7.51575 7.27749 6.51105C7.18659 5.67195 7.32189 4.80885 7.67169 4.04055C8.09229 3.10905 8.82309 2.32155 9.72069 1.83225C10.294 1.51695 10.9336 1.32375 11.5858 1.26825ZM11.5354 2.78325C11.0014 2.85945 10.4875 3.07185 10.0561 3.39585C9.53229 3.78525 9.13089 4.33665 8.92179 4.95495C8.66829 5.69805 8.69619 6.53355 9.00219 7.25715C9.30009 7.97265 9.86409 8.57235 10.5595 8.91435C11.2135 9.24075 11.9797 9.33255 12.6934 9.17595C13.3738 9.03015 14.002 8.65545 14.4565 8.12835C14.7574 7.78185 14.9842 7.37085 15.115 6.93075C15.3193 6.24795 15.2917 5.49795 15.034 4.83315C14.7727 4.14945 14.272 3.56175 13.6396 3.19365C13.012 2.82285 12.2563 2.67885 11.5354 2.78325Z" fill="#4B4B4B"/>
<path opacity="0.5" d="M10.0134 12.383C11.5338 12.1796 13.0866 12.2075 14.5968 12.4799C14.4243 12.701 14.2932 12.95 14.1513 13.1909C14.0259 13.4123 13.8894 13.6301 13.8051 13.8716C12.4008 13.6838 10.9659 13.7114 9.57305 13.9742C8.56655 14.168 7.57445 14.4839 6.67955 14.9906C6.14105 15.2981 5.63225 15.6776 5.25035 16.1711C4.95935 16.5476 4.75325 17.0069 4.75055 17.4893C4.75265 17.9378 4.74875 18.3887 4.81025 18.8339C4.85825 19.1729 4.95995 19.514 5.17025 19.7891C5.43095 20.1329 5.81465 20.3573 6.20555 20.5244C6.80465 20.7746 7.44455 20.9099 8.08385 21.011C9.30965 21.1955 10.5516 21.2417 11.7894 21.2498C12.7503 21.2513 13.7112 21.2456 14.6715 21.2099C15.3039 21.1844 15.9369 21.1496 16.5651 21.0674C16.8873 21.023 17.2104 20.9708 17.5221 20.8754C17.6136 20.9453 17.6967 21.0278 17.8011 21.0797C18.0432 21.2183 18.3321 21.2033 18.6015 21.2102C18.9423 21.2069 19.2849 21.224 19.6239 21.1823C19.3725 21.5588 19.0167 21.86 18.6111 22.0595C18.009 22.3565 17.34 22.4783 16.6794 22.5647C15.4758 22.7102 14.2614 22.7306 13.0506 22.7459C11.3778 22.7612 9.69785 22.7528 8.03825 22.5206C7.06355 22.3781 6.08045 22.166 5.20085 21.707C4.71545 21.4496 4.26965 21.1025 3.94595 20.6549C3.64955 20.2523 3.46295 19.7771 3.36605 19.2884C3.24455 18.6875 3.24875 18.0713 3.25055 17.4608C3.25565 16.7465 3.50585 16.0466 3.91145 15.4628C4.47125 14.6513 5.27615 14.0387 6.13775 13.5761C7.33955 12.938 8.66945 12.5678 10.0134 12.383Z" fill="#4B4B4B"/>
<path d="M18.3852 14.55C18.5855 14.5124 18.8048 14.6094 18.909 14.7852C18.941 14.8376 18.9541 14.8985 18.9776 14.9547C19.1501 15.3774 19.369 15.7865 19.6692 16.133C19.9192 16.4231 20.2331 16.6618 20.5912 16.8012C20.7784 16.9046 20.9847 16.9692 21.1687 17.0789C21.278 17.1442 21.3807 17.2328 21.4306 17.353C21.4943 17.5062 21.4764 17.6967 21.3666 17.8247C21.2561 17.9544 21.0949 18.0225 20.9421 18.0881C20.8209 18.1368 20.7019 18.1907 20.5881 18.2547C20.1898 18.4174 19.8482 18.6991 19.5838 19.0358C19.302 19.3945 19.0927 19.8066 18.9393 20.2349C18.845 20.4285 18.6191 20.5407 18.4078 20.5183C18.291 20.5069 18.1772 20.4459 18.1117 20.3474C17.8487 19.9067 17.6972 19.3996 17.3631 19.0022C17.2923 18.9137 17.2047 18.8416 17.1281 18.7587C16.9943 18.6218 16.8368 18.51 16.6716 18.4143C16.348 18.2267 15.9954 18.096 15.6704 17.9114C15.4505 17.7563 15.4289 17.4039 15.6046 17.2077C15.6562 17.1465 15.7323 17.1175 15.8017 17.0821C16.2098 16.8731 16.648 16.7089 17.0075 16.417C17.106 16.3386 17.1932 16.2473 17.2761 16.1529C17.3936 16.0425 17.4911 15.9123 17.5718 15.7732C17.7833 15.4119 17.8997 14.9956 18.1688 14.6686C18.2215 14.6021 18.3041 14.567 18.3852 14.55ZM17.2806 17.5404C17.7451 17.8647 18.1539 18.2676 18.4871 18.7258C18.8183 18.2669 19.2185 17.8574 19.6739 17.5211C19.2111 17.1949 18.8034 16.7905 18.473 16.3306C18.1481 16.7977 17.7426 17.2082 17.2806 17.5404Z" fill="#4B4B4B"/>
<path opacity="0.5" d="M21.0438 12.8955C21.1786 12.8703 21.3262 12.9355 21.3963 13.0538C21.4179 13.0891 21.4267 13.1301 21.4425 13.1679C21.5585 13.4524 21.7058 13.7277 21.9079 13.9609C22.0761 14.156 22.2874 14.3167 22.5283 14.4105C22.6543 14.4801 22.7931 14.5236 22.917 14.5974C22.9906 14.6414 23.0596 14.701 23.0932 14.7818C23.1361 14.885 23.1241 15.0132 23.0502 15.0992C22.9758 15.1866 22.8673 15.2324 22.7645 15.2765C22.6829 15.3093 22.6029 15.3456 22.5262 15.3886C22.2582 15.4981 22.0283 15.6877 21.8504 15.9143C21.6608 16.1557 21.5199 16.433 21.4167 16.7212C21.3532 16.8515 21.2012 16.927 21.059 16.912C20.9804 16.9043 20.9039 16.8632 20.8598 16.7969C20.6828 16.5003 20.5808 16.1591 20.356 15.8916C20.3083 15.8321 20.2494 15.7836 20.1978 15.7278C20.1078 15.6356 20.0018 15.5604 19.8907 15.496C19.6729 15.3698 19.4356 15.2818 19.2169 15.1576C19.0689 15.0533 19.0544 14.8161 19.1726 14.684C19.2073 14.6429 19.2585 14.6234 19.3053 14.5995C19.5799 14.4589 19.8748 14.3484 20.1167 14.152C20.183 14.0992 20.2416 14.0378 20.2975 13.9742C20.3766 13.8999 20.4421 13.8123 20.4964 13.7187C20.6388 13.4755 20.7171 13.1954 20.8982 12.9754C20.9337 12.9306 20.9892 12.907 21.0438 12.8955ZM20.3005 14.908C20.6131 15.1262 20.8882 15.3973 21.1124 15.7057C21.3353 15.3969 21.6046 15.1213 21.911 14.895C21.5996 14.6754 21.3252 14.4033 21.1029 14.0938C20.8843 14.4082 20.6114 14.6844 20.3005 14.908Z" fill="#4B4B4B"/>
<path opacity="0.5" d="M15.786 12.8955C15.9208 12.8703 16.0684 12.9355 16.1385 13.0538C16.1601 13.0891 16.1689 13.1301 16.1847 13.1679C16.3008 13.4524 16.4481 13.7277 16.6501 13.9609C16.8184 14.156 17.0296 14.3167 17.2706 14.4105C17.3966 14.4801 17.5354 14.5236 17.6592 14.5974C17.7328 14.6414 17.8019 14.701 17.8354 14.7818C17.8783 14.885 17.8663 15.0132 17.7924 15.0992C17.718 15.1866 17.6095 15.2324 17.5067 15.2765C17.4251 15.3093 17.3451 15.3456 17.2685 15.3886C17.0005 15.4981 16.7706 15.6877 16.5926 15.9143C16.403 16.1557 16.2622 16.433 16.159 16.7212C16.0955 16.8515 15.9435 16.927 15.8013 16.912C15.7226 16.9043 15.6461 16.8632 15.602 16.7969C15.425 16.5003 15.323 16.1591 15.0983 15.8916C15.0506 15.8321 14.9916 15.7836 14.9401 15.7278C14.85 15.6356 14.7441 15.5604 14.6329 15.496C14.4151 15.3698 14.1779 15.2818 13.9591 15.1576C13.8112 15.0533 13.7966 14.8161 13.9149 14.684C13.9496 14.6429 14.0008 14.6234 14.0475 14.5995C14.3221 14.4589 14.617 14.3484 14.8589 14.152C14.9252 14.0992 14.9839 14.0378 15.0397 13.9742C15.1188 13.8999 15.1843 13.8123 15.2386 13.7187C15.381 13.4755 15.4594 13.1954 15.6404 12.9754C15.6759 12.9306 15.7314 12.907 15.786 12.8955ZM15.0427 14.908C15.3553 15.1262 15.6304 15.3973 15.8546 15.7057C16.0775 15.3969 16.3468 15.1213 16.6533 14.895C16.3418 14.6754 16.0675 14.4033 15.8452 14.0938C15.6265 14.4082 15.3536 14.6844 15.0427 14.908Z" fill="#4B4B4B"/>
</svg>
