<svg width="24" height="24" viewBox="0 0 24 24" fill="none" xmlns="http://www.w3.org/2000/svg">
<path d="M8.17591 1.53811C10.0491 1.48114 11.9231 1.57094 13.7967 1.52981C14.5045 1.48944 15.2334 1.64111 15.8412 2.01311C16.1438 2.18931 16.3947 2.43794 16.6233 2.70015C18.1932 4.37719 19.7439 6.07233 21.2934 7.76861C21.8786 8.46093 22.0683 9.39849 22.057 10.2844C22.0525 12.2338 22.0661 14.184 22.0499 16.1334C22.0219 17.0121 21.9186 17.8972 21.6337 18.7325C21.4496 19.2815 21.1802 19.8021 20.824 20.259C20.1091 21.2939 18.978 22.0006 17.7643 22.2953C16.9859 22.4994 16.1763 22.4511 15.3802 22.4564C13.1169 22.4564 10.8531 22.4564 8.5898 22.4564C7.84466 22.4522 7.09008 22.4911 6.35777 22.3232C5.72318 22.1866 5.10896 21.9455 4.56227 21.5939C4.11707 21.309 3.72922 20.9427 3.38023 20.548C2.93692 20.0281 2.60717 19.4181 2.37363 18.7778C2.18348 18.2292 2.03747 17.6592 2.01031 17.077C1.91863 15.7708 1.92051 14.4613 1.93032 13.1529C1.95296 11.6939 1.93824 10.2346 1.92881 8.77559C1.93108 7.74145 1.96013 6.6941 2.22385 5.68826C2.58982 4.26212 3.52775 2.9767 4.81467 2.24854C5.32929 1.95539 5.89296 1.74411 6.47662 1.63922C7.04179 1.58603 7.60885 1.5566 8.17591 1.53811ZM6.08273 3.41511C5.06783 3.77089 4.26949 4.62356 3.88428 5.61695C3.53379 6.47113 3.46512 7.40906 3.49908 8.32247C3.50436 11.1272 3.46927 13.9323 3.51945 16.7359C3.5485 17.4154 3.71903 18.0912 4.03105 18.6959C4.44267 19.5192 5.13612 20.2123 5.99256 20.5624C6.49699 20.7472 7.035 20.8186 7.56961 20.8393L7.60018 20.8287L7.60659 20.8386C10.46 20.8544 13.3145 20.8525 16.1676 20.8393C16.775 20.857 17.387 20.7657 17.9657 20.579L17.9646 20.5707C18.3355 20.4303 18.6773 20.2175 18.9791 19.9614C19.8933 19.1709 20.4136 17.9753 20.4653 16.7763C20.5332 14.4749 20.4841 12.1708 20.492 9.86859C20.486 9.6724 20.437 9.47998 20.3653 9.29813C20.128 8.73446 19.6692 8.31228 19.2564 7.87727C18.2174 6.72919 17.1561 5.60148 16.1121 4.45793C15.7748 4.10252 15.4715 3.70411 15.0576 3.43209C14.9059 3.3389 14.7452 3.25703 14.5732 3.20873C14.2306 3.11102 13.8707 3.16761 13.5205 3.14233L13.4821 3.15629L13.4673 3.14158C11.5251 3.13441 9.58244 3.14686 7.64017 3.14082C7.11159 3.15063 6.57999 3.23137 6.08273 3.41511Z" fill="#4B4B4B"/>
<path opacity="0.5" d="M6.01388 3.10095C6.51115 2.91721 7.04274 2.83647 7.57132 2.82666C7.56755 3.32166 7.58 3.81704 7.60414 4.31166C7.61961 4.58972 7.73016 4.85985 7.91729 5.06623C8.2195 5.41031 8.67149 5.5982 9.1231 5.63254C9.93954 5.6465 10.7567 5.6514 11.5736 5.63631C11.9192 5.65102 12.2734 5.59481 12.5813 5.43107C12.9944 5.23639 13.3253 4.83835 13.3706 4.37542C13.4049 3.86495 13.4068 3.35335 13.4132 2.84213L13.4517 2.82817C13.8018 2.85345 14.1618 2.79685 14.5043 2.89457C14.6764 2.94286 14.8371 3.02474 14.9888 3.11792C14.9763 3.1632 14.9699 3.20885 14.9703 3.25563C14.9665 3.77138 14.9899 4.29279 14.8914 4.80213C14.8205 5.17715 14.6892 5.54199 14.4904 5.86872C14.1727 6.37692 13.6773 6.76704 13.1197 6.98247C12.5583 7.20242 11.9486 7.27298 11.3487 7.25902C10.6941 7.25826 10.0395 7.25788 9.38493 7.25977C8.67752 7.24808 7.95276 7.10508 7.34721 6.72402C6.95484 6.472 6.61792 6.12716 6.40022 5.71252C6.14518 5.22356 6.0335 4.67046 6.0169 4.12226C6.01087 3.78195 6.00596 3.44164 6.01388 3.10095Z" fill="#4B4B4B"/>
<path opacity="0.5" d="M8.33649 13.443C9.03862 13.2536 9.77093 13.3023 10.49 13.2996C11.5849 13.3083 12.6802 13.2996 13.7754 13.2978C14.2414 13.3027 14.71 13.2774 15.1729 13.343C15.6313 13.4023 16.0833 13.5339 16.4885 13.7599C17.0499 14.0784 17.5083 14.5907 17.7207 15.2046C17.992 15.9086 17.9501 16.6741 17.952 17.414C17.958 18.4662 17.9237 19.5192 17.9818 20.5707L17.9829 20.579C17.4042 20.7658 16.7922 20.8571 16.1848 20.8393C16.2542 20.8318 16.3244 20.8299 16.3942 20.819C16.3987 20.3515 16.3787 19.8829 16.3866 19.4147C16.3851 18.3394 16.4161 17.263 16.3531 16.1889C16.3044 15.6313 15.8437 15.1959 15.3325 15.0284C14.9794 14.8952 14.5983 14.9265 14.2289 14.9197C12.7692 14.9001 11.3091 14.9039 9.84941 14.9175C9.52456 14.9303 9.19368 14.8922 8.87488 14.9737C8.42025 15.0819 7.97882 15.3577 7.77622 15.7924C7.6453 16.0493 7.65813 16.3436 7.64756 16.6235C7.59927 18.0248 7.67473 19.4279 7.61738 20.8288L7.58682 20.8393C7.05221 20.8186 6.5142 20.7473 6.00977 20.5624C6.03957 20.5364 6.05466 20.5043 6.05579 20.4666C6.10899 19.0604 6.04372 17.6528 6.08749 16.2466C6.1222 15.6735 6.27651 15.0978 6.59682 14.6164C7.0009 14.0222 7.64153 13.6113 8.33649 13.443Z" fill="#4B4B4B"/>
</svg>
