<svg width="24" height="24" viewBox="0 0 24 24" fill="none" xmlns="http://www.w3.org/2000/svg">
<path d="M3.2833 1.53561C3.3829 1.30821 3.6175 1.17381 3.8521 1.12401C4.1887 1.05801 4.5331 1.06521 4.8745 1.06161C6.3919 1.06401 7.9099 1.05801 9.4273 1.06521C9.8095 1.08381 10.2577 1.06281 10.5481 1.35741C10.8133 1.63701 10.7953 2.05281 10.8157 2.41101C10.8211 3.49101 10.8187 4.57161 10.8169 5.65161C10.7995 6.02001 10.8223 6.43461 10.5775 6.73941C10.3591 7.00281 9.9907 7.03161 9.6733 7.05081C9.0955 7.07301 8.5165 7.05561 7.9387 7.06161C7.9393 7.70901 7.9375 8.35641 7.9393 9.00321C8.6347 9.01821 9.3343 8.96781 10.0261 9.05181C10.3453 9.08421 10.6435 9.29601 10.7281 9.61401C10.8547 10.0783 10.8067 10.5673 10.8193 11.0431C11.6065 11.0449 12.3943 11.0437 13.1815 11.0437C13.1881 10.6081 13.1635 10.1671 13.2415 9.73641C13.2889 9.45921 13.4731 9.19881 13.7467 9.10941C14.0971 8.99601 14.4715 9.01521 14.8345 9.00381C16.3741 9.00681 17.9131 8.99841 19.4521 9.00861C19.8295 9.02781 20.2663 9.00141 20.5657 9.27441C20.8399 9.52461 20.8369 9.92901 20.8573 10.2715C20.8645 11.4103 20.8615 12.5485 20.8591 13.6873C20.8417 14.0479 20.8471 14.4715 20.5657 14.7409C20.2789 14.9947 19.8703 14.9881 19.5097 15.0025C17.8909 15.0055 16.2721 15.0025 14.6533 15.0037C14.3317 14.9953 13.9987 15.0001 13.6945 14.8819C13.4335 14.7775 13.2775 14.5111 13.2349 14.2429C13.1659 13.8205 13.1881 13.3903 13.1809 12.9637C12.3937 12.9637 11.6059 12.9643 10.8187 12.9631C10.8145 13.3951 10.8367 13.8307 10.7641 14.2585C10.7245 14.4901 10.6027 14.7187 10.3921 14.8363C10.1203 14.9905 9.7969 14.9869 9.4933 15.0019C8.9749 15.0061 8.4571 15.0025 7.9387 15.0031C7.9387 15.6487 7.9387 16.2943 7.9387 16.9399C8.5159 16.9375 9.0931 16.9423 9.6697 16.9531C9.9805 16.9735 10.3363 16.9981 10.5577 17.2471C10.8037 17.5177 10.7977 17.9107 10.8151 18.2539C10.8235 19.1323 10.8163 20.0113 10.8187 20.8903C10.8151 21.3019 10.8337 21.7165 10.7767 22.1263C10.7395 22.3735 10.6357 22.6363 10.4071 22.7653C10.1311 22.9231 9.8017 22.9267 9.4927 22.9381C7.8319 22.9393 6.1711 22.9381 4.5103 22.9387C4.2133 22.9303 3.9037 22.9279 3.6271 22.8067C3.3715 22.6897 3.2209 22.4221 3.1843 22.1521C3.1267 21.7543 3.1411 21.3505 3.1393 20.9497C3.1411 20.0695 3.1351 19.1893 3.1423 18.3085C3.1567 17.9473 3.1483 17.5447 3.3925 17.2507C3.6271 16.9903 4.0033 16.9699 4.3297 16.9513C4.8931 16.9429 5.4559 16.9375 6.0187 16.9387C6.0193 16.2937 6.0193 15.6487 6.0187 15.0043C5.4763 15.0007 4.9333 15.0097 4.3909 14.9995C4.0807 14.9851 3.7423 14.9743 3.4825 14.7817C3.2743 14.6227 3.1981 14.3539 3.1693 14.1049C3.1219 13.6291 3.1441 13.1503 3.1393 12.6727C3.1435 11.8507 3.1303 11.0287 3.1471 10.2073C3.1669 9.89421 3.1753 9.53361 3.4123 9.29721C3.6139 9.07881 3.9289 9.04161 4.2091 9.02241C4.8121 8.99001 5.4163 9.00921 6.0199 9.00381C6.0187 8.35641 6.0199 7.70961 6.0193 7.06221C5.4385 7.05501 4.8577 7.07301 4.2775 7.05081C3.9733 7.03101 3.6241 7.00581 3.4039 6.76521C3.1483 6.48021 3.1591 6.07101 3.1423 5.71221C3.1357 4.65201 3.1405 3.59121 3.1399 2.53041C3.1507 2.19621 3.1411 1.84641 3.2833 1.53561ZM5.0605 2.18901C4.9123 2.20461 4.7419 2.23761 4.6609 2.37801C4.5763 2.53401 4.5769 2.71881 4.5703 2.89161C4.5601 3.67161 4.5607 4.45161 4.5703 5.23161C4.5757 5.41821 4.5781 5.61981 4.6819 5.78241C4.8163 5.93301 5.0389 5.93781 5.2261 5.94381C6.3871 5.94501 7.5487 5.94321 8.7097 5.94441C8.8765 5.94021 9.0583 5.93841 9.2047 5.84661C9.3823 5.72181 9.3763 5.48181 9.3889 5.28801C9.3991 4.50801 9.3925 3.72861 9.3925 2.94861C9.3829 2.74221 9.3913 2.51361 9.2671 2.33721C9.1141 2.16381 8.8555 2.19201 8.6473 2.17941C7.4521 2.18601 6.2557 2.16561 5.0605 2.18901ZM4.8307 10.1815C4.7389 10.2193 4.6549 10.2913 4.6285 10.3909C4.5487 10.6441 4.5763 10.9141 4.5655 11.1757C4.5637 11.8747 4.5583 12.5737 4.5727 13.2721C4.5823 13.4335 4.5871 13.6177 4.7035 13.7437C4.8391 13.8817 5.0479 13.8811 5.2279 13.8877C6.4081 13.8847 7.5883 13.8883 8.7679 13.8859C8.9455 13.8781 9.1567 13.8709 9.2791 13.7215C9.3997 13.5349 9.3829 13.3009 9.3925 13.0885C9.3931 12.3307 9.3973 11.5729 9.3901 10.8151C9.3757 10.6291 9.3907 10.4107 9.2515 10.2667C9.1087 10.1263 8.8945 10.1311 8.7091 10.1227C7.5895 10.1203 6.4699 10.1227 5.3509 10.1215C5.1769 10.1257 4.9969 10.1209 4.8307 10.1815ZM14.9017 10.1719C14.6515 10.2403 14.6245 10.5343 14.6167 10.7503C14.6095 11.5315 14.6179 12.3127 14.6131 13.0939C14.6149 13.2961 14.6137 13.5097 14.7061 13.6951C14.8279 13.8679 15.0613 13.8841 15.2539 13.8871C16.4335 13.8859 17.6137 13.8871 18.7933 13.8865C18.9601 13.8787 19.1461 13.8763 19.2823 13.7659C19.4203 13.6189 19.4215 13.4017 19.4353 13.2127C19.4389 12.4525 19.4347 11.6911 19.4371 10.9303C19.4293 10.7287 19.4383 10.5133 19.3453 10.3285C19.2313 10.1383 18.9829 10.1317 18.7867 10.1233C17.6683 10.1191 16.5499 10.1233 15.4321 10.1215C15.2545 10.1251 15.0727 10.1191 14.9017 10.1719ZM4.8943 18.0985C4.7611 18.1309 4.6435 18.2341 4.6147 18.3715C4.5493 18.6253 4.5763 18.8899 4.5649 19.1491C4.5661 19.8517 4.5547 20.5543 4.5763 21.2563C4.5943 21.4081 4.5985 21.5887 4.7191 21.6997C4.8991 21.8359 5.1391 21.8185 5.3521 21.8281C6.4519 21.8287 7.5511 21.8305 8.6509 21.8275C8.8453 21.8161 9.0655 21.8329 9.2275 21.7045C9.3901 21.5629 9.3775 21.3271 9.3901 21.1309C9.3979 20.3719 9.3931 19.6129 9.3925 18.8539C9.3799 18.6433 9.4039 18.4075 9.2779 18.2251C9.1213 18.0511 8.8657 18.0697 8.6521 18.0577C7.5913 18.0553 6.5299 18.0577 5.4691 18.0565C5.2771 18.0601 5.0827 18.0541 4.8943 18.0985Z" fill="#4B4B4B"/>
<g opacity="0.5">
<path d="M5.05964 2.18835C6.25484 2.16495 7.45124 2.18535 8.64644 2.17875C8.85464 2.19135 9.11324 2.16315 9.26624 2.33655C9.39044 2.51295 9.38204 2.74155 9.39164 2.94795C9.39164 3.72796 9.39824 4.50736 9.38804 5.28736C9.37544 5.48116 9.38144 5.72116 9.20384 5.84596C9.05744 5.93776 8.87564 5.93956 8.70884 5.94376C7.54784 5.94256 6.38624 5.94436 5.22524 5.94316C5.03804 5.93716 4.81544 5.93236 4.68104 5.78176C4.57724 5.61916 4.57484 5.41756 4.56944 5.23096C4.55984 4.45096 4.55924 3.67095 4.56944 2.89095C4.57604 2.71815 4.57544 2.53335 4.66004 2.37735C4.74104 2.23695 4.91144 2.20395 5.05964 2.18835Z" fill="#4B4B4B"/>
<path d="M4.82971 10.1811C4.99591 10.1205 5.17591 10.1253 5.34991 10.1211C6.46891 10.1223 7.58851 10.1199 8.70811 10.1223C8.89351 10.1307 9.10771 10.1259 9.25051 10.2663C9.38971 10.4103 9.37471 10.6287 9.38911 10.8147C9.39631 11.5725 9.39211 12.3303 9.39151 13.0881C9.38191 13.3005 9.39871 13.5345 9.27811 13.7211C9.15571 13.8705 8.94451 13.8777 8.76691 13.8855C7.58731 13.8879 6.40711 13.8843 5.22691 13.8873C5.04691 13.8807 4.83811 13.8813 4.70251 13.7433C4.58611 13.6173 4.58131 13.4331 4.57171 13.2717C4.55731 12.5733 4.56271 11.8743 4.56451 11.1753C4.57531 10.9137 4.54771 10.6437 4.62751 10.3905C4.65391 10.2909 4.73791 10.2189 4.82971 10.1811Z" fill="#4B4B4B"/>
<path d="M14.9009 10.1711C15.0719 10.1183 15.2537 10.1243 15.4313 10.1207C16.5491 10.1225 17.6675 10.1183 18.7859 10.1225C18.9821 10.1309 19.2305 10.1375 19.3445 10.3277C19.4375 10.5125 19.4285 10.7279 19.4363 10.9295C19.4339 11.6903 19.4381 12.4517 19.4345 13.2119C19.4207 13.4009 19.4195 13.6181 19.2815 13.7651C19.1453 13.8755 18.9593 13.8779 18.7925 13.8857C17.6129 13.8863 16.4327 13.8851 15.2531 13.8863C15.0605 13.8833 14.8271 13.8671 14.7053 13.6943C14.6129 13.5089 14.6141 13.2953 14.6123 13.0931C14.6171 12.3119 14.6087 11.5307 14.6159 10.7495C14.6237 10.5335 14.6507 10.2395 14.9009 10.1711Z" fill="#4B4B4B"/>
<path d="M4.89336 18.0982C5.08176 18.0538 5.27616 18.0598 5.46816 18.0562C6.52896 18.0574 7.59036 18.055 8.65116 18.0574C8.86476 18.0694 9.12036 18.0508 9.27696 18.2248C9.40296 18.4072 9.37896 18.643 9.39156 18.8536C9.39216 19.6126 9.39696 20.3716 9.38916 21.1306C9.37656 21.3268 9.38916 21.5626 9.22656 21.7042C9.06456 21.8326 8.84436 21.8158 8.64996 21.8272C7.55016 21.8302 6.45096 21.8284 5.35116 21.8278C5.13816 21.8182 4.89816 21.8356 4.71816 21.6994C4.59756 21.5884 4.59336 21.4078 4.57536 21.256C4.55376 20.554 4.56516 19.8514 4.56396 19.1488C4.57536 18.8896 4.54836 18.625 4.61376 18.3712C4.64256 18.2338 4.76016 18.1306 4.89336 18.0982Z" fill="#4B4B4B"/>
</g>
</svg>
