<svg width="24" height="24" viewBox="0 0 24 24" fill="none" xmlns="http://www.w3.org/2000/svg">
<path d="M3.2833 1.53544C3.3829 1.30804 3.6175 1.17364 3.8521 1.12384C4.1887 1.05784 4.5331 1.06504 4.8745 1.06144C6.3919 1.06384 7.9099 1.05784 9.4273 1.06504C9.8095 1.08364 10.2577 1.06264 10.5481 1.35724C10.8133 1.63684 10.7953 2.05264 10.8157 2.41084C10.8211 3.49084 10.8187 4.57144 10.8169 5.65144C10.7995 6.01984 10.8223 6.43444 10.5775 6.73924C10.3591 7.00264 9.9907 7.03144 9.6733 7.05064C9.0955 7.07284 8.5165 7.05544 7.9387 7.06144C7.9393 7.70884 7.9375 8.35624 7.9393 9.00304C8.6347 9.01804 9.3343 8.96764 10.0261 9.05164C10.3453 9.08404 10.6435 9.29584 10.7281 9.61384C10.8547 10.0782 10.8067 10.5672 10.8193 11.043C11.6065 11.0448 12.3943 11.0436 13.1815 11.0436C13.1881 10.608 13.1635 10.167 13.2415 9.73624C13.2889 9.45904 13.4731 9.19864 13.7467 9.10924C14.0971 8.99584 14.4715 9.01504 14.8345 9.00364C16.3741 9.00664 17.9131 8.99824 19.4521 9.00844C19.8295 9.02764 20.2663 9.00124 20.5657 9.27424C20.8399 9.52444 20.8369 9.92884 20.8573 10.2714C20.8645 11.4102 20.8615 12.5484 20.8591 13.6872C20.8417 14.0478 20.8471 14.4714 20.5657 14.7408C20.2789 14.9946 19.8703 14.988 19.5097 15.0024C17.8909 15.0054 16.2721 15.0024 14.6533 15.0036C14.3317 14.9952 13.9987 15 13.6945 14.8818C13.4335 14.7774 13.2775 14.511 13.2349 14.2428C13.1659 13.8204 13.1881 13.3902 13.1809 12.9636C12.3937 12.9636 11.6059 12.9642 10.8187 12.963C10.8145 13.395 10.8367 13.8306 10.7641 14.2584C10.7245 14.49 10.6027 14.7186 10.3921 14.8362C10.1203 14.9904 9.7969 14.9868 9.4933 15.0018C8.9749 15.006 8.4571 15.0024 7.9387 15.003C7.9387 15.6486 7.9387 16.2942 7.9387 16.9398C8.5159 16.9374 9.0931 16.9422 9.6697 16.953C9.9805 16.9734 10.3363 16.998 10.5577 17.247C10.8037 17.5176 10.7977 17.9106 10.8151 18.2538C10.8235 19.1322 10.8163 20.0112 10.8187 20.8902C10.8151 21.3018 10.8337 21.7164 10.7767 22.1262C10.7395 22.3734 10.6357 22.6362 10.4071 22.7652C10.1311 22.923 9.8017 22.9266 9.4927 22.938C7.8319 22.9392 6.1711 22.938 4.5103 22.9386C4.2133 22.9302 3.9037 22.9278 3.6271 22.8066C3.3715 22.6896 3.2209 22.422 3.1843 22.152C3.1267 21.7542 3.1411 21.3504 3.1393 20.9496C3.1411 20.0694 3.1351 19.1892 3.1423 18.3084C3.1567 17.9472 3.1483 17.5446 3.3925 17.2506C3.6271 16.9902 4.0033 16.9698 4.3297 16.9512C4.8931 16.9428 5.4559 16.9374 6.0187 16.9386C6.0193 16.2936 6.0193 15.6486 6.0187 15.0042C5.4763 15.0006 4.9333 15.0096 4.3909 14.9994C4.0807 14.985 3.7423 14.9742 3.4825 14.7816C3.2743 14.6226 3.1981 14.3538 3.1693 14.1048C3.1219 13.629 3.1441 13.1502 3.1393 12.6726C3.1435 11.8506 3.1303 11.0286 3.1471 10.2072C3.1669 9.89404 3.1753 9.53344 3.4123 9.29704C3.6139 9.07864 3.9289 9.04144 4.2091 9.02224C4.8121 8.98984 5.4163 9.00904 6.0199 9.00364C6.0187 8.35624 6.0199 7.70944 6.0193 7.06204C5.4385 7.05484 4.8577 7.07284 4.2775 7.05064C3.9733 7.03084 3.6241 7.00564 3.4039 6.76504C3.1483 6.48004 3.1591 6.07084 3.1423 5.71204C3.1357 4.65184 3.1405 3.59104 3.1399 2.53024C3.1507 2.19604 3.1411 1.84624 3.2833 1.53544ZM5.0605 2.18884C4.9123 2.20444 4.7419 2.23744 4.6609 2.37784C4.5763 2.53384 4.5769 2.71864 4.5703 2.89144C4.5601 3.67144 4.5607 4.45144 4.5703 5.23144C4.5757 5.41804 4.5781 5.61964 4.6819 5.78224C4.8163 5.93284 5.0389 5.93764 5.2261 5.94364C6.3871 5.94484 7.5487 5.94304 8.7097 5.94424C8.8765 5.94004 9.0583 5.93824 9.2047 5.84644C9.3823 5.72164 9.3763 5.48164 9.3889 5.28784C9.3991 4.50784 9.3925 3.72844 9.3925 2.94844C9.3829 2.74204 9.3913 2.51344 9.2671 2.33704C9.1141 2.16364 8.8555 2.19184 8.6473 2.17924C7.4521 2.18584 6.2557 2.16544 5.0605 2.18884ZM4.8307 10.1814C4.7389 10.2192 4.6549 10.2912 4.6285 10.3908C4.5487 10.644 4.5763 10.914 4.5655 11.1756C4.5637 11.8746 4.5583 12.5736 4.5727 13.272C4.5823 13.4334 4.5871 13.6176 4.7035 13.7436C4.8391 13.8816 5.0479 13.881 5.2279 13.8876C6.4081 13.8846 7.5883 13.8882 8.7679 13.8858C8.9455 13.878 9.1567 13.8708 9.2791 13.7214C9.3997 13.5348 9.3829 13.3008 9.3925 13.0884C9.3931 12.3306 9.3973 11.5728 9.3901 10.815C9.3757 10.629 9.3907 10.4106 9.2515 10.2666C9.1087 10.1262 8.8945 10.131 8.7091 10.1226C7.5895 10.1202 6.4699 10.1226 5.3509 10.1214C5.1769 10.1256 4.9969 10.1208 4.8307 10.1814ZM14.9017 10.1718C14.6515 10.2402 14.6245 10.5342 14.6167 10.7502C14.6095 11.5314 14.6179 12.3126 14.6131 13.0938C14.6149 13.296 14.6137 13.5096 14.7061 13.695C14.8279 13.8678 15.0613 13.884 15.2539 13.887C16.4335 13.8858 17.6137 13.887 18.7933 13.8864C18.9601 13.8786 19.1461 13.8762 19.2823 13.7658C19.4203 13.6188 19.4215 13.4016 19.4353 13.2126C19.4389 12.4524 19.4347 11.691 19.4371 10.9302C19.4293 10.7286 19.4383 10.5132 19.3453 10.3284C19.2313 10.1382 18.9829 10.1316 18.7867 10.1232C17.6683 10.119 16.5499 10.1232 15.4321 10.1214C15.2545 10.125 15.0727 10.119 14.9017 10.1718ZM4.8943 18.0984C4.7611 18.1308 4.6435 18.234 4.6147 18.3714C4.5493 18.6252 4.5763 18.8898 4.5649 19.149C4.5661 19.8516 4.5547 20.5542 4.5763 21.2562C4.5943 21.408 4.5985 21.5886 4.7191 21.6996C4.8991 21.8358 5.1391 21.8184 5.3521 21.828C6.4519 21.8286 7.5511 21.8304 8.6509 21.8274C8.8453 21.816 9.0655 21.8328 9.2275 21.7044C9.3901 21.5628 9.3775 21.327 9.3901 21.1308C9.3979 20.3718 9.3931 19.6128 9.3925 18.8538C9.3799 18.6432 9.4039 18.4074 9.2779 18.225C9.1213 18.051 8.8657 18.0696 8.6521 18.0576C7.5913 18.0552 6.5299 18.0576 5.4691 18.0564C5.2771 18.06 5.0827 18.054 4.8943 18.0984Z" fill="#4B4B4B"/>
<g opacity="0.5">
<path d="M5.05964 2.18867C6.25484 2.16527 7.45124 2.18567 8.64644 2.17907C8.85464 2.19167 9.11324 2.16347 9.26624 2.33687C9.39044 2.51327 9.38204 2.74187 9.39164 2.94827C9.39164 3.72827 9.39824 4.50767 9.38804 5.28767C9.37544 5.48147 9.38144 5.72147 9.20384 5.84627C9.05744 5.93807 8.87564 5.93987 8.70884 5.94407C7.54784 5.94287 6.38624 5.94467 5.22524 5.94347C5.03804 5.93747 4.81544 5.93267 4.68104 5.78207C4.57724 5.61947 4.57484 5.41787 4.56944 5.23127C4.55984 4.45127 4.55924 3.67127 4.56944 2.89127C4.57604 2.71847 4.57544 2.53367 4.66004 2.37767C4.74104 2.23727 4.91144 2.20427 5.05964 2.18867Z" fill="#4B4B4B"/>
<path d="M4.82984 10.1813C4.99604 10.1207 5.17604 10.1255 5.35004 10.1213C6.46904 10.1225 7.58864 10.1201 8.70824 10.1225C8.89364 10.1309 9.10784 10.1261 9.25064 10.2665C9.38984 10.4105 9.37484 10.6289 9.38924 10.8149C9.39644 11.5727 9.39224 12.3305 9.39164 13.0883C9.38204 13.3007 9.39884 13.5347 9.27824 13.7213C9.15584 13.8707 8.94464 13.8779 8.76704 13.8857C7.58744 13.8881 6.40724 13.8845 5.22704 13.8875C5.04704 13.8809 4.83824 13.8815 4.70264 13.7435C4.58624 13.6175 4.58144 13.4333 4.57184 13.2719C4.55744 12.5735 4.56284 11.8745 4.56464 11.1755C4.57544 10.9139 4.54784 10.6439 4.62764 10.3907C4.65404 10.2911 4.73804 10.2191 4.82984 10.1813Z" fill="#4B4B4B"/>
<path d="M14.9008 10.1717C15.0718 10.1189 15.2536 10.1249 15.4312 10.1213C16.549 10.1231 17.6674 10.1189 18.7858 10.1231C18.982 10.1315 19.2304 10.1381 19.3444 10.3283C19.4374 10.5131 19.4284 10.7285 19.4362 10.9301C19.4338 11.6909 19.438 12.4523 19.4344 13.2125C19.4206 13.4015 19.4194 13.6187 19.2814 13.7657C19.1452 13.8761 18.9592 13.8785 18.7924 13.8863C17.6128 13.8869 16.4326 13.8857 15.253 13.8869C15.0604 13.8839 14.827 13.8677 14.7052 13.6949C14.6128 13.5095 14.614 13.2959 14.6122 13.0937C14.617 12.3125 14.6086 11.5313 14.6158 10.7501C14.6236 10.5341 14.6506 10.2401 14.9008 10.1717Z" fill="#4B4B4B"/>
<path d="M4.89344 18.0983C5.08184 18.0539 5.27624 18.0599 5.46824 18.0563C6.52904 18.0575 7.59044 18.0551 8.65124 18.0575C8.86484 18.0695 9.12044 18.0509 9.27704 18.2249C9.40304 18.4073 9.37904 18.6431 9.39164 18.8537C9.39224 19.6127 9.39704 20.3717 9.38924 21.1307C9.37664 21.3269 9.38924 21.5627 9.22664 21.7043C9.06464 21.8327 8.84444 21.8159 8.65004 21.8273C7.55024 21.8303 6.45104 21.8285 5.35124 21.8279C5.13824 21.8183 4.89824 21.8357 4.71824 21.6995C4.59764 21.5885 4.59344 21.4079 4.57544 21.2561C4.55384 20.5541 4.56524 19.8515 4.56404 19.1489C4.57544 18.8897 4.54844 18.6251 4.61384 18.3713C4.64264 18.2339 4.76024 18.1307 4.89344 18.0983Z" fill="#4B4B4B"/>
</g>
</svg>
