<svg width="24" height="24" viewBox="0 0 24 24" fill="none" xmlns="http://www.w3.org/2000/svg">
<path d="M9.54098 1.2778C11.0801 1.15637 12.6505 1.43374 14.049 2.08937C15.6284 2.8227 16.9831 4.02753 17.9 5.50737C18.4245 6.35054 18.8075 7.28196 19.0269 8.25051C19.4815 10.2422 19.2376 12.3879 18.3294 14.2196C17.5494 15.8098 16.2874 17.1585 14.7533 18.0441C14.0084 18.4755 13.2011 18.7995 12.3639 19.0005C10.3557 19.487 8.18074 19.2594 6.32344 18.3507C4.76722 17.5976 3.43858 16.3843 2.54536 14.9042C1.89526 13.8324 1.47433 12.6226 1.31998 11.3785C1.16852 10.1642 1.26282 8.91878 1.60393 7.74345C1.86339 6.8447 2.26614 5.98809 2.79059 5.21367C3.61269 3.99566 4.73771 2.98391 6.03632 2.29588C7.11814 1.72033 8.31955 1.3721 9.54098 1.2778ZM9.59472 2.59511C8.37513 2.69626 7.18268 3.09744 6.14932 3.75227C4.79277 4.6073 3.71437 5.89669 3.11906 7.386C2.66468 8.51103 2.48872 9.7451 2.59883 10.9528C2.71052 12.2019 3.13645 13.421 3.82711 14.4675C4.70769 15.8112 6.0192 16.8669 7.52221 17.4348C8.61879 17.8526 9.81229 18.0098 10.98 17.8987C12.0394 17.8002 13.0767 17.4759 14.0042 16.9549C15.4864 16.127 16.6791 14.7939 17.3345 13.2274C18.1247 11.3643 18.1318 9.18667 17.3534 7.31857C16.7005 5.72837 15.4946 4.37471 13.9926 3.53917C12.665 2.7932 11.1112 2.46394 9.59472 2.59511Z" fill="#4B4B4B"/>
<path opacity="0.5" d="M18.113 17.2946C18.5053 17.1894 18.822 17.4386 19.1078 17.7296C20.1678 18.7905 21.2292 19.8501 22.2883 20.9115C22.7207 21.3481 22.8331 21.9892 22.3894 22.4122C21.9678 22.8563 21.322 22.7446 20.8844 22.3159C19.814 21.2474 18.7446 20.178 17.6765 19.1076C17.2451 18.67 17.135 18.0221 17.5792 17.6001C17.7254 17.4525 17.9117 17.346 18.113 17.2946Z" fill="#4B4B4B"/>
</svg>
