<svg width="24" height="24" viewBox="0 0 24 24" fill="none" xmlns="http://www.w3.org/2000/svg">
<path d="M10.6927 1.28167C12.4456 1.14337 14.2342 1.45927 15.8269 2.20597C17.6257 3.04117 19.1686 4.41337 20.2129 6.09877C20.8102 7.05907 21.2464 8.11987 21.4963 9.22297C22.0141 11.4913 21.7363 13.9351 20.7019 16.0213C19.8136 17.8324 18.3763 19.3684 16.6291 20.377C15.7807 20.8684 14.8612 21.2374 13.9078 21.4663C11.6206 22.0204 9.1435 21.7612 7.0282 20.7262C5.2558 19.8685 3.7426 18.4867 2.7253 16.801C1.9849 15.5803 1.5055 14.2024 1.3297 12.7855C1.1572 11.4025 1.2646 9.98407 1.6531 8.64547C1.9486 7.62187 2.4073 6.64627 3.0046 5.76427C3.9409 4.37707 5.2222 3.22477 6.7012 2.44117C7.9333 1.78567 9.3016 1.38907 10.6927 1.28167ZM10.7539 2.78197C9.3649 2.89717 8.0068 3.35407 6.8299 4.09987C5.2849 5.07367 4.0567 6.54217 3.3787 8.23837C2.8612 9.51967 2.6608 10.9252 2.7862 12.3007C2.9134 13.7233 3.3985 15.1117 4.1851 16.3036C5.188 17.8339 6.6817 19.0363 8.3935 19.6831C9.6424 20.1589 11.0017 20.338 12.3316 20.2114C13.5382 20.0992 14.7196 19.7299 15.7759 19.1365C17.464 18.1936 18.8224 16.6753 19.5688 14.8912C20.4688 12.7693 20.4769 10.2892 19.5904 8.16157C18.8467 6.35047 17.4733 4.80877 15.7627 3.85717C14.2507 3.00757 12.481 2.63257 10.7539 2.78197Z" fill="#4B4B4B"/>
<path opacity="0.5" d="M19.8086 19.2744C20.0582 19.2075 20.3417 19.2801 20.5235 19.4652C21.1979 20.1402 21.8732 20.8143 22.547 21.4896C22.8221 21.7674 22.8116 22.2612 22.5293 22.5303C22.2611 22.8129 21.7685 22.8228 21.4901 22.5501C20.8091 21.8703 20.1287 21.1899 19.4492 20.5089C19.1747 20.2305 19.1864 19.7373 19.469 19.4688C19.562 19.3749 19.6805 19.3071 19.8086 19.2744Z" fill="#4B4B4B"/>
</svg>
