<svg width="24" height="24" viewBox="0 0 24 24" fill="none" xmlns="http://www.w3.org/2000/svg">
<path opacity="0.7" d="M5.16075 2.72773C5.55945 2.45953 6.02805 2.28763 6.51045 2.26753C7.39305 2.22343 8.29275 2.61463 8.84205 3.31123C9.32415 3.93493 9.75255 4.59793 10.2185 5.23333C10.874 6.12703 11.0039 7.39363 10.4837 8.38123C10.3085 8.71873 10.0664 9.01903 9.78795 9.27673C9.71895 9.33343 9.75105 9.43153 9.74775 9.50863C9.78825 10.0888 10.0886 10.6081 10.4012 11.0836C10.7405 11.5927 11.1404 12.0586 11.5583 12.5044C11.9258 12.9076 12.3278 13.2784 12.7478 13.6261C13.1252 13.9312 13.5308 14.2105 13.9826 14.3932C14.1623 14.464 14.3576 14.512 14.5514 14.4832C14.5922 14.4703 14.6222 14.437 14.6549 14.4109C14.8517 14.2294 15.0275 14.0257 15.2267 13.8463C15.6599 13.4647 16.2251 13.243 16.8002 13.2082C17.321 13.1761 17.846 13.3033 18.3023 13.5547C18.8105 13.8322 19.3004 14.1418 19.8095 14.4175C20.321 14.7004 20.8469 15.0133 21.1781 15.5104C21.512 15.9634 21.7043 16.5148 21.7415 17.0749C21.7991 17.8762 21.5345 18.7105 20.9693 19.2904C20.5097 19.7407 20.0945 20.2336 19.6379 20.6863C19.3214 20.9956 19.0013 21.3226 18.5864 21.4975C17.9702 21.7681 17.2814 21.7843 16.6196 21.7591C15.2223 21.7199 13.8477 21.3793 12.5654 20.8296C12.096 20.6283 12.0029 20.0245 12.362 19.6613C12.5933 19.4273 12.9465 19.3647 13.2501 19.4917C14.484 20.0081 15.8184 20.3045 17.1584 20.2612C17.4524 20.2441 17.7659 20.2516 18.0278 20.0959C18.4412 19.8631 18.7136 19.4611 19.0421 19.1314C19.3784 18.7681 19.7549 18.4393 20.0459 18.0367C20.4641 17.3749 20.2196 16.3999 19.5476 16.003C18.9047 15.6244 18.2564 15.2551 17.609 14.8843C17.2856 14.6974 16.8758 14.641 16.5257 14.7859C16.004 14.9914 15.7844 15.586 15.2816 15.8197C14.8694 16.0177 14.3909 16.0318 13.949 15.9403C13.4438 15.8347 12.9773 15.5974 12.5423 15.3268C12.0596 15.0229 11.621 14.6548 11.2058 14.2654C10.3763 13.477 9.59115 12.6271 8.98395 11.6527C8.61525 11.0476 8.30325 10.3804 8.25285 9.66403C8.22825 9.32083 8.27925 8.97103 8.41335 8.65333C8.58825 8.27953 8.96355 8.05243 9.15345 7.68853C9.39615 7.20403 9.33735 6.59143 9.02745 6.15043C8.64945 5.60923 8.26455 5.07313 7.88595 4.53253C7.79055 4.39993 7.70565 4.25803 7.58535 4.14583C7.24425 3.80473 6.69705 3.66073 6.24285 3.84433C5.88525 4.01413 5.62095 4.32013 5.36055 4.60873C5.21535 4.77343 5.05515 4.92373 4.91145 5.08963C4.62825 5.39683 4.30515 5.66863 4.05885 6.00853C3.87255 6.26563 3.74025 6.57643 3.75435 6.89893C3.77595 7.52743 3.88425 8.15083 4.04325 8.75863C4.23062 9.49644 4.49691 10.2117 4.81482 10.9029C4.94944 11.1956 4.89608 11.5426 4.6684 11.7705C4.30661 12.1327 3.69059 12.0487 3.47511 11.5843C2.87631 10.294 2.44935 8.9207 2.29035 7.50493C2.23875 7.08733 2.22915 6.65893 2.31975 6.24583C2.38065 5.95903 2.50245 5.68933 2.64405 5.43373C2.88795 5.01343 3.23085 4.66363 3.56865 4.31893C3.69435 4.18513 3.81855 4.04923 3.94995 3.92113C4.35045 3.52093 4.69455 3.05773 5.16075 2.72773Z" fill="#4B4B4B"/>
<path d="M4.71343 12.7527C5.16853 12.3285 5.76913 12.0687 6.38743 12.0126C7.04983 11.9487 7.73323 12.1302 8.27593 12.516C8.81203 12.8967 9.22033 13.4622 9.38773 14.1C9.52993 14.6328 9.47353 15.1881 9.48373 15.7326C10.1533 15.9753 10.7137 16.5318 10.9201 17.2185C11.0401 17.6379 11.0308 18.0792 11.0326 18.5115C11.0236 19.0533 11.0683 19.6068 10.9276 20.1366C10.7059 20.9097 10.0399 21.5388 9.25243 21.7077C8.81413 21.7962 8.36443 21.7746 7.92013 21.78C6.75013 21.7734 5.58013 21.8007 4.41073 21.7611C3.42193 21.7254 2.51323 20.9529 2.31823 19.983C2.23753 19.557 2.25223 19.1211 2.25433 18.6897C2.25913 18.1878 2.22403 17.6724 2.37343 17.1861C2.58793 16.5126 3.14233 15.9717 3.80233 15.732C3.80953 15.3378 3.78073 14.9427 3.81673 14.5494C3.87913 13.8666 4.21153 13.2168 4.71343 12.7527ZM6.34573 13.5801C5.94523 13.6716 5.59183 13.9647 5.44303 14.3496C5.29243 14.751 5.36653 15.1857 5.35243 15.6033C6.21193 15.6048 7.07113 15.6033 7.93063 15.6039C7.93633 15.3321 7.93843 15.0603 7.93183 14.7888C7.92403 14.388 7.70833 14.0028 7.38073 13.7748C7.08553 13.5642 6.69733 13.4928 6.34573 13.5801ZM4.39513 17.1792C4.08973 17.2293 3.83683 17.5083 3.82093 17.8185C3.79663 18.1983 3.79573 18.5796 3.80263 18.96C3.80773 19.1793 3.79843 19.4004 3.82843 19.6185C3.86623 19.9104 4.11283 20.1636 4.40473 20.2056C4.61473 20.2356 4.82773 20.2299 5.03923 20.2353C6.16003 20.2329 7.28113 20.2398 8.40193 20.2317C8.62663 20.2257 8.86333 20.2428 9.07303 20.1456C9.31423 20.0289 9.46633 19.7655 9.47083 19.5003C9.48493 18.9801 9.49393 18.4596 9.46993 17.9397C9.49933 17.5767 9.22303 17.2095 8.85403 17.1738C8.58403 17.1432 8.31163 17.1495 8.04043 17.1486C7.05043 17.1486 6.06043 17.1489 5.07043 17.1486C4.84543 17.1498 4.61863 17.148 4.39513 17.1792Z" fill="#4B4B4B"/>
</svg>
