<svg width="24" height="24" viewBox="0 0 24 24" fill="none" xmlns="http://www.w3.org/2000/svg">
<path opacity="0.7" d="M17.7721 1.28509C17.9998 1.21129 18.2614 1.25569 18.4516 1.40149C18.6322 1.53589 18.7456 1.75489 18.7489 1.98019C18.7492 3.38299 18.7489 4.78579 18.7489 6.18859C18.952 5.99209 19.1488 5.78959 19.3498 5.59069C19.4359 5.50669 19.5148 5.41219 19.6213 5.35249C19.8298 5.22799 20.1004 5.21659 20.3194 5.32159C20.5216 5.41639 20.6785 5.60599 20.7286 5.82439C20.791 6.07279 20.7136 6.35149 20.5291 6.52999C19.8538 7.20469 19.1797 7.88089 18.5032 8.55469C18.2242 8.82319 17.7376 8.81089 17.4703 8.53159C16.8004 7.86139 16.1299 7.19179 15.4606 6.52129C15.2497 6.30949 15.19 5.96719 15.3136 5.69539C15.4264 5.43619 15.6949 5.25469 15.9781 5.25019C16.177 5.24419 16.3771 5.32009 16.5193 5.45959C16.7626 5.70139 17.0029 5.94649 17.248 6.18619C17.2501 4.85389 17.2483 3.52129 17.2489 2.18869C17.2504 2.06929 17.2408 1.94839 17.2687 1.83139C17.3245 1.57759 17.524 1.36219 17.7721 1.28509Z" fill="#4B4B4B"/>
<path d="M6.84935 2.77052C7.71442 1.97224 8.83104 1.45152 9.99729 1.29721C10.4084 1.24281 10.7455 1.58473 10.7456 1.99947C10.7457 2.41377 10.4067 2.74175 9.99895 2.81503C9.57293 2.89159 9.15857 3.03308 8.77497 3.23365C8.1229 3.5742 7.56147 4.08726 7.1665 4.70807C6.74948 5.36059 6.50948 6.1285 6.49845 6.90406C6.49441 8.53097 6.49733 10.1579 6.49711 11.785C6.49733 11.9425 6.49441 12.1002 6.50475 12.2574C6.55176 13.0379 6.81898 13.8042 7.27131 14.4421C7.75604 15.1288 8.4468 15.6696 9.2336 15.9672C10.0528 16.2812 10.9703 16.3282 11.8189 16.1073C12.5356 15.9217 13.2 15.5425 13.7259 15.0215C14.2592 14.499 14.6515 13.8328 14.8447 13.1112C14.878 12.9875 14.9057 12.8623 14.928 12.7362C14.9998 12.3295 15.3307 11.9965 15.7437 11.9964C16.1581 11.9964 16.4993 12.3329 16.445 12.7438C16.2946 13.8823 15.7989 14.9745 15.0289 15.8281C14.5255 16.3911 13.9094 16.8527 13.2293 17.1802C11.7144 17.9171 9.87218 17.9297 8.34535 17.2191C7.07135 16.6381 6.02903 15.5719 5.47255 14.2876C5.25122 13.7788 5.10479 13.2379 5.03934 12.687C4.98175 12.2466 5.00042 11.8017 4.9975 11.3588C4.99795 9.8972 4.9966 8.43538 4.9984 6.97356C4.99727 6.13165 5.19206 5.29154 5.55285 4.53127C5.86595 3.86773 6.31086 3.26829 6.84935 2.77052Z" fill="#4B4B4B"/>
<path d="M2.00058 10.9546C2.0089 10.576 2.35484 10.2452 2.73205 10.2465C3.1277 10.2285 3.49591 10.5796 3.49546 10.976C3.50401 12.2419 3.57666 13.5183 3.88256 14.7514C4.06903 15.4979 4.34839 16.2294 4.78003 16.87C5.20807 17.5126 5.80189 18.0421 6.4868 18.3984C7.24594 18.8004 8.0892 19.0181 8.93696 19.131C9.80901 19.246 10.6916 19.2633 11.5695 19.2226C12.4011 19.1798 13.2333 19.0606 14.0282 18.8071C14.6205 18.6206 15.1882 18.3453 15.6828 17.9677C16.43 17.4045 16.9654 16.599 17.2992 15.7321C17.4067 15.4379 17.7126 15.2323 18.0257 15.2451C18.2081 15.2521 18.3876 15.3263 18.5201 15.4525C18.7183 15.643 18.8026 15.9467 18.7196 16.2103C18.4285 16.9892 18.0097 17.7252 17.4593 18.3507C16.9519 18.9286 16.3311 19.4041 15.6484 19.757C14.8326 20.1785 13.9392 20.4336 13.0345 20.5764C12.525 20.6574 12.0102 20.703 11.4951 20.7278C11.4942 21.4885 11.4969 22.2494 11.4931 23.0101C11.4949 23.382 11.1732 23.7187 10.803 23.7405C10.401 23.7801 10.0065 23.4391 9.99773 23.0331C9.99098 22.2645 9.9993 21.4957 9.9939 20.7271C9.2044 20.6907 8.41512 20.5991 7.64586 20.414C6.95983 20.2487 6.28976 20.006 5.67075 19.6654C4.99147 19.2894 4.38438 18.7839 3.89066 18.1847C3.41178 17.6055 3.051 16.9357 2.77996 16.2368C2.31165 15.0184 2.12091 13.7131 2.03926 12.4164C2.01025 11.9297 1.99608 11.442 2.00058 10.9546Z" fill="#4B4B4B"/>
</svg>
