<svg width="24" height="24" viewBox="0 0 24 24" fill="none" xmlns="http://www.w3.org/2000/svg">
<path d="M10.6011 0.502416C12.2818 0.45833 13.9717 0.917187 15.3977 1.80836C16.6596 2.59089 17.7183 3.69597 18.4503 4.98752C19.269 6.42414 19.6779 8.08727 19.6289 9.73938C19.6134 10.2414 19.6273 10.7435 19.6201 11.2455C19.6123 11.5987 19.2931 11.905 18.9404 11.9014C18.5796 11.9176 18.2465 11.6063 18.2382 11.2455C18.2359 10.6686 18.2375 10.0914 18.2373 9.51423C18.2476 9.08754 18.1815 8.66354 18.1005 8.24585C17.7968 6.74444 17.0283 5.33908 15.9203 4.28034C14.7956 3.19213 13.3167 2.47235 11.7631 2.27441C10.2912 2.07963 8.76164 2.34752 7.444 3.03243C6.27032 3.64064 5.26803 4.56937 4.56085 5.68502C4.11504 6.38703 3.78597 7.16304 3.59141 7.97143C3.2846 9.21935 3.32307 10.5321 3.57724 11.7854C3.89686 13.3524 4.57278 14.832 5.45652 16.1596C6.28112 17.3956 7.28363 18.5148 8.43212 19.4584C8.561 19.5637 8.69214 19.666 8.8262 19.7645C8.91257 19.8295 9.01266 19.8741 9.09589 19.9438C9.56644 20.3196 10.0379 20.6939 10.5084 21.0698C10.7619 21.2455 10.874 21.5883 10.7867 21.882C10.7125 22.1436 10.4815 22.3485 10.2149 22.3973C10.0019 22.4428 9.7745 22.38 9.60715 22.2432C9.12288 21.8577 8.63861 21.4717 8.15433 21.0864C8.09652 21.0396 8.04884 20.9821 7.99328 20.9335C6.92869 20.0592 5.97071 19.0567 5.1351 17.9617C4.19242 16.7241 3.40247 15.3644 2.84531 13.9103C2.53806 13.1075 2.30616 12.2753 2.164 11.4273C2.01577 10.5521 1.95954 9.65908 2.02747 8.77331C2.14466 7.20083 2.68224 5.66231 3.57251 4.36086C4.44749 3.07674 5.66076 2.02339 7.06252 1.35108C8.164 0.821591 9.37952 0.532557 10.6011 0.502416Z" fill="#4B4B4B"/>
<path d="M10.3591 4.51591C11.3571 4.41761 12.3823 4.64749 13.2472 5.15426C13.8954 5.52899 14.4535 6.05713 14.8673 6.68086C15.3536 7.41413 15.6458 8.27561 15.7014 9.15396C15.7556 9.9691 15.6074 10.7961 15.2756 11.5427C14.9566 12.2636 14.4636 12.9067 13.8486 13.4002C13.2501 13.8813 12.5373 14.2205 11.7847 14.3748C10.9376 14.552 10.0433 14.4911 9.22633 14.2063C8.47304 13.9452 7.78948 13.491 7.24965 12.9051C6.72601 12.3392 6.33463 11.6513 6.12005 10.9106C5.76061 9.69064 5.88253 8.33701 6.45947 7.20292C6.81868 6.49416 7.34614 5.86953 7.99192 5.4055C8.68425 4.90728 9.50929 4.59486 10.3591 4.51591ZM10.4857 5.92037C9.82262 5.98267 9.18045 6.24247 8.65973 6.65701C8.09808 7.10215 7.67657 7.72025 7.46536 8.40472C7.27057 9.03047 7.24875 9.70908 7.4035 10.3458C7.56635 11.0218 7.93096 11.6468 8.43863 12.1217C8.92785 12.5796 9.55001 12.8974 10.2113 13.0113C11.0507 13.1631 11.9435 12.9852 12.6626 12.5272C13.3126 12.1205 13.8196 11.4941 14.09 10.7775C14.3907 9.9934 14.4067 9.1038 14.1327 8.3098C13.8873 7.58372 13.4042 6.93772 12.7678 6.50901C12.1063 6.05623 11.284 5.84119 10.4857 5.92037Z" fill="#4B4B4B"/>
<path opacity="0.7" d="M17.7722 14.2851C17.9999 14.2113 18.2615 14.2557 18.4517 14.4015C18.6323 14.5359 18.7457 14.7549 18.749 14.9802C18.7493 16.383 18.749 17.7858 18.749 19.1886C18.9521 18.9921 19.1489 18.7896 19.3499 18.5907C19.436 18.5067 19.5149 18.4122 19.6214 18.3525C19.8299 18.228 20.1005 18.2166 20.3195 18.3216C20.5217 18.4164 20.6786 18.606 20.7287 18.8244C20.7911 19.0728 20.7137 19.3515 20.5292 19.53C19.8539 20.2047 19.1798 20.8809 18.5033 21.5547C18.2243 21.8232 17.7377 21.8109 17.4704 21.5316C16.8005 20.8614 16.13 20.1918 15.4607 19.5213C15.2498 19.3095 15.1901 18.9672 15.3137 18.6954C15.4265 18.4362 15.695 18.2547 15.9782 18.2502C16.1771 18.2442 16.3772 18.3201 16.5194 18.4596C16.7627 18.7014 17.003 18.9465 17.2481 19.1862C17.2502 17.8539 17.2484 16.5213 17.249 15.1887C17.2505 15.0693 17.2409 14.9484 17.2688 14.8314C17.3246 14.5776 17.5241 14.3622 17.7722 14.2851Z" fill="#4B4B4B"/>
</svg>
