<svg width="24" height="24" viewBox="0 0 24 24" fill="none" xmlns="http://www.w3.org/2000/svg">
<path d="M15.9626 0.906281C16.6131 0.346206 17.5374 0.120151 18.3723 0.324162C19.0478 0.47599 19.6499 0.905606 20.0327 1.48008C20.2345 1.78013 20.3722 2.12248 20.441 2.47697C20.5256 2.93875 20.4808 3.40975 20.4923 3.87603C21.1653 4.11648 21.7188 4.69027 21.9008 5.38576C22.0101 5.83112 21.9845 6.29312 21.9912 6.74748C21.986 7.12131 22.0011 7.4974 21.9478 7.86876C21.8574 8.55637 21.3967 9.16952 20.7867 9.48847C20.459 9.66707 20.0831 9.72623 19.7145 9.73837C19.3463 9.74917 18.9778 9.74579 18.6098 9.74512C17.68 9.74377 16.7499 9.75974 15.8203 9.73545C15.6696 9.7305 15.518 9.73185 15.3688 9.70823C14.5375 9.58317 13.8076 8.9383 13.5887 8.1254C13.4684 7.64607 13.5019 7.14786 13.4949 6.65863C13.5017 6.20697 13.476 5.74429 13.6072 5.30613C13.8085 4.64461 14.3488 4.10995 14.9943 3.8749C14.995 3.5573 14.9907 3.2397 14.9954 2.9221C15.0134 2.15397 15.3749 1.40113 15.9626 0.906281ZM16.9532 2.02958C16.7267 2.21245 16.5657 2.47854 16.5187 2.76667C16.4624 3.09125 16.5067 3.42144 16.4941 3.74849C17.3268 3.74939 18.1595 3.74849 18.9922 3.74894C18.9927 3.5789 18.992 3.40885 18.9933 3.2388C18.9902 3.04311 19.003 2.8427 18.9434 2.65331C18.8228 2.22594 18.4603 1.87978 18.027 1.78058C17.6561 1.69421 17.2495 1.79183 16.9532 2.02958ZM16.0528 5.25057C15.8299 5.26272 15.5908 5.23775 15.385 5.34055C15.1803 5.44626 15.0292 5.65905 15.015 5.8914C14.9833 6.29605 14.9959 6.70227 14.9957 7.10759C15.0008 7.3251 14.9905 7.54666 15.0445 7.75944C15.1281 8.00304 15.3544 8.2012 15.6151 8.22347C15.8706 8.24911 16.128 8.24529 16.3846 8.24754C17.4184 8.24416 18.4522 8.25249 19.4859 8.24349C19.7277 8.23494 20.0008 8.25518 20.2003 8.09166C20.3767 7.96413 20.4718 7.74864 20.4801 7.53451C20.4914 7.02504 20.5037 6.5149 20.4774 6.00589C20.4725 5.91794 20.4716 5.82819 20.4432 5.74384C20.3762 5.53601 20.205 5.36484 19.9979 5.29691C19.8456 5.25867 19.6877 5.25687 19.5318 5.25305C19.075 5.24495 18.6182 5.24967 18.1613 5.24832C17.4584 5.24967 16.7555 5.24562 16.0528 5.25057Z" fill="#4B4B4B"/>
<path opacity="0.7" d="M6.84935 2.77052C7.71442 1.97224 8.83104 1.45152 9.99729 1.29721C10.4084 1.24281 10.7454 1.58473 10.7456 1.99947C10.7457 2.41377 10.4067 2.74175 9.99895 2.81503C9.57293 2.89159 9.15857 3.03308 8.77497 3.23365C8.1229 3.5742 7.56147 4.08726 7.1665 4.70807C6.74948 5.36059 6.50948 6.1285 6.49846 6.90406C6.49441 8.53097 6.49733 10.1579 6.49711 11.785C6.49733 11.9425 6.49441 12.1002 6.50475 12.2574C6.55176 13.0379 6.81898 13.8042 7.27131 14.4421C7.75604 15.1288 8.4468 15.6696 9.2336 15.9672C10.0528 16.2812 10.9702 16.3282 11.8189 16.1073C12.5355 15.9217 13.2 15.5425 13.7259 15.0215C14.2592 14.499 14.6514 13.8328 14.8447 13.1112C14.878 12.9875 14.9057 12.8623 14.928 12.7362C14.9998 12.3295 15.3306 11.9965 15.7436 11.9964C16.1581 11.9964 16.4993 12.3329 16.445 12.7438C16.2945 13.8823 15.7989 14.9745 15.0289 15.8281C14.5255 16.3911 13.9094 16.8527 13.2292 17.1802C11.7143 17.9171 9.87218 17.9297 8.34535 17.2191C7.07135 16.6381 6.02903 15.5719 5.47255 14.2876C5.25122 13.7788 5.10479 13.2379 5.03934 12.687C4.98175 12.2466 5.00042 11.8017 4.9975 11.3588C4.99795 9.8972 4.9966 8.43538 4.9984 6.97356C4.99727 6.13165 5.19206 5.29154 5.55285 4.53127C5.86595 3.86773 6.31086 3.26829 6.84935 2.77052Z" fill="#4B4B4B"/>
<path opacity="0.7" d="M2.0007 10.9546C2.00902 10.576 2.35496 10.2452 2.73217 10.2465C3.12782 10.2285 3.49603 10.5796 3.49558 10.976C3.50413 12.2419 3.57678 13.5183 3.88268 14.7514C4.06915 15.4979 4.34851 16.2294 4.78015 16.87C5.20819 17.5126 5.80201 18.0421 6.48692 18.3984C7.24606 18.8004 8.08932 19.0181 8.93708 19.131C9.80913 19.246 10.6918 19.2633 11.5697 19.2226C12.4013 19.1798 13.2335 19.0606 14.0284 18.8071C14.6206 18.6206 15.1884 18.3453 15.683 17.9677C16.4302 17.4045 16.9655 16.599 17.2993 15.7321C17.4068 15.4379 17.7128 15.2323 18.0259 15.2451C18.2083 15.2521 18.3878 15.3263 18.5202 15.4525C18.7184 15.643 18.8028 15.9467 18.7198 16.2103C18.4287 16.9892 18.0099 17.7252 17.4595 18.3507C16.952 18.9286 16.3312 19.4041 15.6486 19.757C14.8328 20.1785 13.9393 20.4336 13.0347 20.5764C12.5252 20.6574 12.0103 20.703 11.4952 20.7278C11.4943 21.4885 11.497 22.2494 11.4932 23.0101C11.495 23.382 11.1734 23.7187 10.8031 23.7405C10.4012 23.7801 10.0067 23.4391 9.99785 23.0331C9.9911 22.2645 9.99942 21.4957 9.99402 20.7271C9.20452 20.6907 8.41524 20.5991 7.64598 20.414C6.95995 20.2487 6.28988 20.006 5.67088 19.6654C4.99159 19.2894 4.3845 18.7839 3.89078 18.1847C3.41191 17.6055 3.05112 16.9357 2.78008 16.2368C2.31177 15.0184 2.12103 13.7131 2.03938 12.4164C2.01037 11.9297 1.9962 11.442 2.0007 10.9546Z" fill="#4B4B4B"/>
</svg>
