<svg width="24" height="24" viewBox="0 0 24 24" fill="none" xmlns="http://www.w3.org/2000/svg">
<path d="M4.72392 2.05606C5.3292 1.99848 5.93786 2.0095 6.54495 2.00591C6.88999 2.00163 7.23503 2.00546 7.58008 2.00591C8.04703 2.01018 8.51893 2.02862 8.97464 2.13929C9.71826 2.32643 10.3697 2.80441 10.8254 3.41464C11.3857 4.15511 11.7294 5.02491 12.1585 5.84141C13.4067 5.84388 14.6548 5.84231 15.9032 5.84276C16.5107 5.84411 17.1187 5.83758 17.7262 5.8531C18.1542 5.86547 18.5832 5.88234 19.0076 5.94285C19.4006 5.99953 19.792 6.09783 20.1471 6.27912C20.7585 6.59807 21.2695 7.10641 21.5934 7.71507C21.934 8.38784 21.9931 9.15575 22.0224 9.89689C22.0413 10.2468 21.7621 10.5815 21.4164 10.6312C21.0995 10.6877 20.7639 10.4963 20.6415 10.2005C20.5563 9.99878 20.5869 9.77543 20.5646 9.56287C20.5288 9.14653 20.4958 8.71264 20.2933 8.3379C20.0216 7.87747 19.5693 7.49824 19.0315 7.40917C18.4165 7.28636 17.7863 7.29603 17.1621 7.28456C13.7427 7.28006 10.3231 7.28321 6.90371 7.28208C6.54495 7.28163 6.2152 6.97438 6.19451 6.61539C6.15582 6.22716 6.49231 5.84793 6.88324 5.84411C8.10529 5.83871 9.32755 5.84501 10.5496 5.84163C10.3233 5.3992 10.1153 4.94574 9.84579 4.52714C9.72051 4.33483 9.58757 4.14476 9.41888 3.98754C9.19237 3.77363 8.91548 3.60965 8.61295 3.53115C8.4672 3.49134 8.3156 3.48122 8.16557 3.46952C7.70829 3.43713 7.24965 3.44726 6.79192 3.44321C6.14705 3.45063 5.50082 3.43241 4.85775 3.48909C4.60493 3.51293 4.34986 3.54757 4.11143 3.63822C3.93104 3.70502 3.76977 3.81434 3.62064 3.93423C3.36872 4.13981 3.15863 4.40163 3.03402 4.70326C2.94112 4.92482 2.91098 5.16549 2.88242 5.40212C2.83113 5.90124 2.83586 6.40396 2.83248 6.90532C2.82641 8.58487 2.83023 10.2646 2.83226 11.9442C2.84126 13.0249 2.84778 14.108 2.95485 15.1843C3.04234 15.9794 3.17213 16.7968 3.5752 17.5006C3.79496 17.874 4.09974 18.1965 4.45895 18.4381C4.76643 18.6477 5.11687 18.784 5.47181 18.8898C6.28043 19.1221 7.12527 19.1802 7.96156 19.2267C9.22094 19.2906 10.4823 19.2667 11.7428 19.2805C12.0829 19.2838 12.3879 19.5684 12.4287 19.9037C12.4943 20.3046 12.1466 20.7119 11.742 20.7169C10.8195 20.7133 9.89708 20.7205 8.97464 20.7014C8.18244 20.6827 7.38933 20.653 6.60141 20.5648C5.77029 20.4694 4.934 20.3023 4.17689 19.9339C3.4236 19.565 2.7767 18.9773 2.34888 18.2546C1.90802 17.5141 1.69794 16.6627 1.58142 15.8159C1.44197 14.7796 1.41295 13.7326 1.39968 12.6885C1.38596 11.3087 1.39158 9.92883 1.38978 8.54889C1.38956 7.82101 1.39203 7.09337 1.39586 6.36549C1.41385 5.64527 1.41858 4.9039 1.67545 4.22011C2.03736 3.31207 2.80279 2.56711 3.72793 2.24591C4.04845 2.13344 4.38765 2.09003 4.72392 2.05606Z" fill="#4B4B4B"/>
<path opacity="0.7" d="M17.7724 13.2851C18.0001 13.2113 18.2617 13.2557 18.4519 13.4015C18.6325 13.5359 18.7459 13.7549 18.7492 13.9802C18.7495 15.383 18.7492 16.7858 18.7492 18.1886C18.9523 17.9921 19.1491 17.7896 19.3501 17.5907C19.4362 17.5067 19.5151 17.4122 19.6216 17.3525C19.8301 17.228 20.1007 17.2166 20.3197 17.3216C20.5219 17.4164 20.6788 17.606 20.7289 17.8244C20.7913 18.0728 20.7139 18.3515 20.5294 18.53C19.8541 19.2047 19.18 19.8809 18.5035 20.5547C18.2245 20.8232 17.7379 20.8109 17.4706 20.5316C16.8007 19.8614 16.1302 19.1918 15.4609 18.5213C15.25 18.3095 15.1903 17.9672 15.3139 17.6954C15.4267 17.4362 15.6952 17.2547 15.9784 17.2502C16.1773 17.2442 16.3774 17.3201 16.5196 17.4596C16.7629 17.7014 17.0032 17.9465 17.2483 18.1862C17.2504 16.8539 17.2486 15.5213 17.2492 14.1887C17.2507 14.0693 17.2411 13.9484 17.269 13.8314C17.3248 13.5776 17.5243 13.3622 17.7724 13.2851Z" fill="#4B4B4B"/>
</svg>
