<svg width="24" height="24" viewBox="0 0 24 24" fill="none" xmlns="http://www.w3.org/2000/svg">
<path d="M8.86206 1.2724C9.91158 1.24743 10.9616 1.24901 12.0113 1.24946C12.3975 1.24923 12.7423 1.59338 12.7421 1.98026C12.7619 2.37141 12.4267 2.73579 12.0349 2.74659C10.5353 2.75604 9.03368 2.73175 7.53655 2.83229C7.01696 2.87008 6.49715 2.92451 5.98634 3.02888C5.52725 3.1238 5.07177 3.26078 4.66037 3.48908C4.14596 3.77227 3.72039 4.21133 3.45003 4.73227C3.20643 5.19945 3.07327 5.71499 2.9824 6.23143C2.84699 7.0261 2.8065 7.83338 2.77771 8.63795C2.75454 9.37235 2.75342 10.1074 2.74937 10.8423C2.91762 10.6889 3.09149 10.5415 3.26244 10.3908C3.73006 9.98123 4.3268 9.72189 4.94514 9.65891C5.6314 9.58535 6.34082 9.75473 6.91957 10.1308C7.16204 10.2865 7.37528 10.4828 7.57321 10.6913C8.87511 11.9912 10.1763 13.2917 11.4769 14.593C11.6447 14.7554 11.7969 14.9427 12.0113 15.0469C12.4225 15.2673 12.9538 15.225 13.3276 14.947C13.6281 14.7288 13.9372 14.5158 14.282 14.3732C15.1034 14.018 16.054 13.9735 16.9051 14.249C17.3091 14.3784 17.6903 14.5774 18.0277 14.8343C18.1811 14.9497 18.3206 15.0815 18.4636 15.2093C19.1974 15.8699 19.9315 16.5301 20.6652 17.1909C20.7919 17.2984 20.9064 17.4206 21.0409 17.5186C21.1812 16.5292 21.2085 15.5282 21.2246 14.5304C21.2372 13.7657 21.2359 14.7596 21.2372 13.9951C21.2395 13.8136 21.2179 13.6229 21.2982 13.4535C21.4266 13.1422 21.7814 12.9508 22.1122 13.0117C22.4609 13.0644 22.7411 13.3939 22.7357 13.7466C22.7344 15.0143 22.7418 14.5237 22.6905 15.7905C22.6469 16.7334 22.581 17.6821 22.3558 18.6021C22.1828 19.332 21.8848 20.0408 21.4219 20.6357C20.9446 21.2516 20.3022 21.734 19.5845 22.0348C18.8044 22.367 17.9605 22.5123 17.1217 22.5996C15.9399 22.7159 14.7512 22.7251 13.5647 22.7336C12.2893 22.7365 11.0142 22.7399 9.73884 22.728C8.92887 22.7185 8.11844 22.7006 7.3105 22.6392C6.55181 22.58 5.79155 22.4835 5.05917 22.2698C4.44422 22.0903 3.85153 21.8152 3.34588 21.4187C2.71676 20.9306 2.22708 20.2691 1.92815 19.5322C1.59773 18.7294 1.45625 17.8643 1.37438 17.0047C1.27743 15.9504 1.26124 14.891 1.25336 13.8329C1.24819 12.6937 1.24752 11.5544 1.25134 10.4151C1.25966 9.34558 1.26888 8.27469 1.35368 7.20807C1.42386 6.3855 1.53677 5.55889 1.80579 4.77523C1.96302 4.32042 2.1758 3.88249 2.45764 3.49133C2.79346 3.02348 3.21947 2.62063 3.706 2.31248C4.42577 1.85677 5.26026 1.61947 6.0952 1.48541C7.00999 1.34056 7.93738 1.29647 8.86206 1.2724ZM4.2519 11.5175C3.74986 11.9527 3.25411 12.3952 2.7496 12.8275C2.7505 13.4852 2.75095 14.1429 2.76422 14.8003C2.78738 15.7435 2.8155 16.6902 2.96103 17.6239C3.0429 18.1338 3.16212 18.6433 3.38142 19.1132C3.65156 19.7081 4.12167 20.2079 4.69704 20.5169C5.09854 20.7297 5.53738 20.8633 5.98071 20.9556C6.69239 21.0988 7.41824 21.1528 8.14206 21.1881C9.01839 21.2277 9.89606 21.2318 10.7733 21.2351C12.0828 21.2385 13.3926 21.2417 14.7019 21.2216C15.7577 21.2005 16.8196 21.1701 17.8615 20.983C18.3361 20.8944 18.8082 20.7646 19.2387 20.5417C19.8328 20.2403 20.315 19.7331 20.5966 19.1307C20.4477 19.0259 20.3225 18.8929 20.1848 18.7751C19.2887 17.9689 18.393 17.1623 17.4969 16.356C17.3457 16.2217 17.2011 16.0788 17.0338 15.9644C16.614 15.6742 16.0933 15.5352 15.585 15.5759C15.17 15.6067 14.7658 15.7585 14.43 16.0039C14.1722 16.1893 13.9102 16.3762 13.6115 16.4905C12.7765 16.8317 11.7736 16.7224 11.0338 16.2055C10.7578 16.0219 10.5391 15.7702 10.3034 15.5406C9.02491 14.2621 7.74641 12.9834 6.46791 11.7051C6.39638 11.6345 6.32913 11.5596 6.25085 11.4961C5.95147 11.2498 5.55784 11.1182 5.17029 11.1439C4.83424 11.1635 4.50562 11.2959 4.2519 11.5175Z" fill="#4B4B4B"/>
<path opacity="0.7" d="M17.7722 2.28509C17.9999 2.21129 18.2615 2.25569 18.4517 2.40149C18.6323 2.53589 18.7457 2.75489 18.749 2.98019C18.7493 4.38299 18.749 5.78579 18.749 7.18859C18.9521 6.99209 19.1489 6.78959 19.3499 6.59069C19.436 6.50669 19.5149 6.41219 19.6214 6.35249C19.8299 6.22799 20.1005 6.21659 20.3195 6.32159C20.5217 6.41639 20.6786 6.60599 20.7287 6.82439C20.7911 7.07279 20.7137 7.35149 20.5292 7.52999C19.8539 8.20469 19.1798 8.88089 18.5033 9.55469C18.2243 9.82319 17.7377 9.81089 17.4704 9.53159C16.8005 8.86139 16.13 8.19179 15.4607 7.52129C15.2498 7.30949 15.1901 6.96719 15.3137 6.69539C15.4265 6.43619 15.695 6.25469 15.9782 6.25019C16.1771 6.24419 16.3772 6.32009 16.5194 6.45959C16.7627 6.70139 17.003 6.94649 17.2481 7.18619C17.2502 5.85389 17.2484 4.52129 17.249 3.18869C17.2505 3.06929 17.2409 2.94839 17.2688 2.83139C17.3246 2.57759 17.5241 2.36219 17.7722 2.28509Z" fill="#4B4B4B"/>
<path d="M9.75161 4.3575C10.3481 4.30374 10.9613 4.45152 11.466 4.77429C12.0828 5.16297 12.5331 5.8074 12.6822 6.52132C12.8635 7.34591 12.6336 8.24833 12.0799 8.88533C11.5816 9.4724 10.8252 9.82959 10.0555 9.84421C9.25699 9.86715 8.46029 9.51514 7.93373 8.9157C7.48027 8.40578 7.22925 7.72222 7.2459 7.04001C7.25512 6.4381 7.47307 5.84316 7.85051 5.37463C8.31161 4.79656 9.01429 4.41845 9.75161 4.3575ZM9.77321 5.8652C9.46168 5.92054 9.17377 6.09958 8.9873 6.35532C8.80016 6.60747 8.71469 6.93272 8.75337 7.24425C8.79274 7.59041 8.98663 7.91499 9.27139 8.11517C9.52241 8.29444 9.84158 8.37407 10.1473 8.33561C10.475 8.29692 10.7834 8.11967 10.9838 7.85763C11.1819 7.60323 11.2735 7.26944 11.2348 6.94936C11.1966 6.60994 11.0105 6.29144 10.7352 6.08991C10.4633 5.88725 10.1068 5.8047 9.77321 5.8652Z" fill="#4B4B4B"/>
</svg>
