<svg width="24" height="24" viewBox="0 0 24 24" fill="none" xmlns="http://www.w3.org/2000/svg">
<path opacity="0.7" d="M8.86206 1.2724C9.91158 1.24743 10.9616 1.24901 12.0113 1.24946C12.3975 1.24923 12.7423 1.59338 12.7421 1.98026C12.7619 2.37141 12.4267 2.73579 12.0349 2.74659C10.5353 2.75604 9.03368 2.73175 7.53655 2.83229C7.01696 2.87008 6.49715 2.92451 5.98634 3.02888C5.52725 3.1238 5.07177 3.26078 4.66037 3.48908C4.14596 3.77227 3.72039 4.21133 3.45003 4.73227C3.20643 5.19945 3.07327 5.71499 2.9824 6.23143C2.84699 7.0261 2.8065 7.83338 2.77771 8.63795C2.75454 9.37235 2.75342 10.1074 2.74937 10.8423C2.91762 10.6889 3.09149 10.5415 3.26244 10.3908C3.73006 9.98123 4.3268 9.72189 4.94514 9.65891C5.6314 9.58535 6.34082 9.75473 6.91957 10.1308C7.16204 10.2865 7.37528 10.4828 7.57321 10.6913C8.87511 11.9912 10.1763 13.2917 11.4769 14.593C11.6447 14.7554 11.7969 14.9427 12.0113 15.0469C12.4225 15.2673 12.9538 15.225 13.3276 14.947C13.6281 14.7288 13.9372 14.5158 14.282 14.3732C15.1034 14.018 16.054 13.9735 16.9051 14.249C17.3091 14.3784 17.6903 14.5774 18.0277 14.8343C18.1811 14.9497 18.3206 15.0815 18.4636 15.2093C19.1974 15.8699 19.9315 16.5301 20.6652 17.1909C20.7919 17.2984 20.9064 17.4206 21.0409 17.5186C21.1812 16.5292 21.2085 15.5282 21.2246 14.5304C21.2372 13.7657 21.2359 14.7596 21.2372 13.9951C21.2395 13.8136 21.2179 13.6229 21.2982 13.4535C21.4266 13.1422 21.7814 12.9508 22.1122 13.0117C22.4609 13.0644 22.7411 13.3939 22.7357 13.7466C22.7344 15.0143 22.7418 14.5237 22.6905 15.7905C22.6469 16.7334 22.581 17.6821 22.3558 18.6021C22.1828 19.332 21.8848 20.0408 21.4219 20.6357C20.9446 21.2516 20.3022 21.734 19.5845 22.0348C18.8044 22.367 17.9605 22.5123 17.1217 22.5996C15.9399 22.7159 14.7512 22.7251 13.5647 22.7336C12.2893 22.7365 11.0142 22.7399 9.73884 22.728C8.92887 22.7185 8.11844 22.7006 7.3105 22.6392C6.55181 22.58 5.79155 22.4835 5.05917 22.2698C4.44422 22.0903 3.85153 21.8152 3.34588 21.4187C2.71676 20.9306 2.22708 20.2691 1.92815 19.5322C1.59773 18.7294 1.45625 17.8643 1.37438 17.0047C1.27743 15.9504 1.26124 14.891 1.25336 13.8329C1.24819 12.6937 1.24752 11.5544 1.25134 10.4151C1.25966 9.34558 1.26888 8.27469 1.35368 7.20807C1.42386 6.3855 1.53677 5.55889 1.80579 4.77523C1.96302 4.32042 2.1758 3.88249 2.45764 3.49133C2.79346 3.02348 3.21947 2.62063 3.706 2.31248C4.42577 1.85677 5.26026 1.61947 6.0952 1.48541C7.00999 1.34056 7.93738 1.29647 8.86206 1.2724ZM4.2519 11.5175C3.74986 11.9527 3.25411 12.3952 2.7496 12.8275C2.7505 13.4852 2.75095 14.1429 2.76422 14.8003C2.78738 15.7435 2.8155 16.6902 2.96103 17.6239C3.0429 18.1338 3.16212 18.6433 3.38142 19.1132C3.65156 19.7081 4.12167 20.2079 4.69704 20.5169C5.09854 20.7297 5.53738 20.8633 5.98071 20.9556C6.69239 21.0988 7.41824 21.1528 8.14206 21.1881C9.01839 21.2277 9.89606 21.2318 10.7733 21.2351C12.0828 21.2385 13.3926 21.2417 14.7019 21.2216C15.7577 21.2005 16.8196 21.1701 17.8615 20.983C18.3361 20.8944 18.8082 20.7646 19.2387 20.5417C19.8328 20.2403 20.315 19.7331 20.5966 19.1307C20.4477 19.0259 20.3225 18.8929 20.1848 18.7751C19.2887 17.9689 18.393 17.1623 17.4969 16.356C17.3457 16.2217 17.2011 16.0788 17.0338 15.9644C16.614 15.6742 16.0933 15.5352 15.585 15.5759C15.17 15.6067 14.7658 15.7585 14.43 16.0039C14.1722 16.1893 13.9102 16.3762 13.6115 16.4905C12.7765 16.8317 11.7736 16.7224 11.0338 16.2055C10.7578 16.0219 10.5391 15.7702 10.3034 15.5406C9.02491 14.2621 7.74641 12.9834 6.46791 11.7051C6.39638 11.6345 6.32913 11.5596 6.25085 11.4961C5.95147 11.2498 5.55784 11.1182 5.17029 11.1439C4.83424 11.1635 4.50562 11.2959 4.2519 11.5175Z" fill="#4B4B4B"/>
<path d="M16.8956 1.6454C17.5605 1.2529 18.3869 1.14201 19.1296 1.35884C20.1958 1.6526 21.044 2.62767 21.1619 3.73117C21.2105 4.14684 21.1756 4.56566 21.1871 4.98291C21.8113 5.20649 22.3365 5.70358 22.574 6.32484C22.6966 6.64019 22.7218 6.98231 22.7317 7.31723C22.7377 7.69736 22.7344 8.07726 22.733 8.4574C22.7285 8.83303 22.7074 9.21833 22.5677 9.57147C22.3135 10.2197 21.7476 10.74 21.0757 10.9276C20.6283 11.0463 20.1612 11.0222 19.703 11.0288C18.5855 11.0207 17.4681 11.0468 16.3511 11.0175C16.1547 11.013 15.9566 11.0103 15.7642 10.9669C15.0186 10.8079 14.3717 10.2496 14.1067 9.53481C13.981 9.19854 13.9637 8.83483 13.9556 8.47944C13.9531 8.11258 13.9542 7.74572 13.9572 7.37886C13.9617 6.99648 13.9913 6.60397 14.1454 6.24926C14.3958 5.66152 14.9066 5.20064 15.5036 4.98133C15.5179 4.44825 15.4529 3.90392 15.5915 3.38141C15.7746 2.66096 16.2544 2.02171 16.8956 1.6454ZM18.0502 2.82898C17.6285 2.92322 17.2616 3.24375 17.1255 3.6556C17.0011 4.04292 17.0691 4.45365 17.0547 4.852C17.915 4.85222 18.7756 4.85177 19.636 4.85222C19.6342 4.57668 19.6414 4.30092 19.6337 4.02538C19.6216 3.57507 19.3447 3.14815 18.947 2.94054C18.6746 2.79636 18.3494 2.75475 18.0502 2.82898ZM16.608 6.39861C16.4399 6.40109 16.271 6.40356 16.1043 6.42785C15.7978 6.47329 15.5445 6.75085 15.5247 7.05991C15.4968 7.45781 15.5009 7.85706 15.5058 8.25563C15.5096 8.45897 15.5033 8.66343 15.5303 8.86542C15.5598 9.09575 15.719 9.29908 15.9257 9.39985C16.1149 9.48847 16.3308 9.46913 16.5342 9.48173C17.4557 9.48757 18.3773 9.48397 19.2988 9.48555C19.6879 9.48083 20.0777 9.49117 20.4664 9.46958C20.6646 9.46103 20.8621 9.38051 20.9916 9.22666C21.1245 9.08045 21.177 8.87914 21.1763 8.68525C21.1866 8.14407 21.1999 7.60221 21.1644 7.06171C21.1484 6.77132 20.9223 6.51063 20.6434 6.43843C20.4686 6.40199 20.2889 6.40469 20.1112 6.39929C18.9436 6.39524 17.7758 6.39726 16.608 6.39861Z" fill="#4B4B4B"/>
<path opacity="0.7" d="M9.75161 4.3575C10.3481 4.30374 10.9613 4.45152 11.466 4.77429C12.0828 5.16297 12.5331 5.8074 12.6822 6.52132C12.8635 7.34591 12.6336 8.24833 12.0799 8.88533C11.5816 9.4724 10.8252 9.82959 10.0555 9.84421C9.25699 9.86715 8.46029 9.51514 7.93373 8.9157C7.48027 8.40578 7.22925 7.72222 7.2459 7.04001C7.25512 6.4381 7.47307 5.84316 7.85051 5.37463C8.31161 4.79656 9.01429 4.41845 9.75161 4.3575ZM9.77321 5.8652C9.46168 5.92054 9.17377 6.09958 8.9873 6.35532C8.80016 6.60747 8.71469 6.93272 8.75337 7.24425C8.79274 7.59041 8.98663 7.91499 9.27139 8.11517C9.52241 8.29444 9.84158 8.37407 10.1473 8.33561C10.475 8.29692 10.7834 8.11967 10.9838 7.85763C11.1819 7.60323 11.2735 7.26944 11.2348 6.94936C11.1966 6.60994 11.0105 6.29144 10.7352 6.08991C10.4633 5.88725 10.1068 5.8047 9.77321 5.8652Z" fill="#4B4B4B"/>
</svg>
