<svg width="24" height="24" viewBox="0 0 24 24" fill="none" xmlns="http://www.w3.org/2000/svg">
<path opacity="0.7" d="M4.72392 2.05606C5.3292 1.99848 5.93786 2.0095 6.54495 2.00591C6.88999 2.00163 7.23503 2.00546 7.58008 2.00591C8.04703 2.01018 8.51893 2.02862 8.97464 2.13929C9.71826 2.32643 10.3697 2.80441 10.8254 3.41464C11.3857 4.15511 11.7294 5.02491 12.1585 5.84141C13.4067 5.84388 14.6548 5.84231 15.9032 5.84276C16.5107 5.84411 17.1187 5.83758 17.7262 5.8531C18.1542 5.86547 18.5832 5.88234 19.0076 5.94285C19.4006 5.99953 19.792 6.09783 20.1471 6.27912C20.7585 6.59807 21.2695 7.10641 21.5934 7.71507C21.934 8.38784 21.9931 9.15575 22.0224 9.89689C22.0413 10.2468 21.7621 10.5815 21.4164 10.6312C21.0995 10.6877 20.7639 10.4963 20.6415 10.2005C20.5563 9.99878 20.5869 9.77543 20.5646 9.56287C20.5288 9.14653 20.4958 8.71264 20.2933 8.3379C20.0216 7.87747 19.5693 7.49824 19.0315 7.40917C18.4165 7.28636 17.7863 7.29603 17.1621 7.28456C13.7427 7.28006 10.3231 7.28321 6.90371 7.28208C6.54495 7.28163 6.2152 6.97438 6.19451 6.61539C6.15582 6.22716 6.49231 5.84793 6.88324 5.84411C8.10529 5.83871 9.32755 5.84501 10.5496 5.84163C10.3233 5.3992 10.1153 4.94574 9.84579 4.52714C9.72051 4.33483 9.58757 4.14476 9.41888 3.98754C9.19237 3.77363 8.91548 3.60965 8.61295 3.53115C8.4672 3.49134 8.3156 3.48122 8.16557 3.46952C7.70829 3.43713 7.24965 3.44726 6.79192 3.44321C6.14705 3.45063 5.50082 3.43241 4.85775 3.48909C4.60493 3.51293 4.34986 3.54757 4.11143 3.63822C3.93104 3.70502 3.76977 3.81434 3.62064 3.93423C3.36872 4.13981 3.15863 4.40163 3.03402 4.70326C2.94112 4.92482 2.91098 5.16549 2.88242 5.40212C2.83113 5.90124 2.83586 6.40396 2.83248 6.90532C2.82641 8.58487 2.83023 10.2646 2.83226 11.9442C2.84126 13.0249 2.84778 14.108 2.95485 15.1843C3.04234 15.9794 3.17213 16.7968 3.5752 17.5006C3.79496 17.874 4.09974 18.1965 4.45895 18.4381C4.76643 18.6477 5.11687 18.784 5.47181 18.8898C6.28043 19.1221 7.12527 19.1802 7.96156 19.2267C9.22094 19.2906 10.4823 19.2667 11.7428 19.2805C12.0829 19.2838 12.3879 19.5684 12.4287 19.9037C12.4943 20.3046 12.1466 20.7119 11.742 20.7169C10.8195 20.7133 9.89708 20.7205 8.97464 20.7014C8.18244 20.6827 7.38933 20.653 6.60141 20.5648C5.77029 20.4694 4.934 20.3023 4.17689 19.9339C3.4236 19.565 2.7767 18.9773 2.34888 18.2546C1.90802 17.5141 1.69794 16.6627 1.58142 15.8159C1.44197 14.7796 1.41295 13.7326 1.39968 12.6885C1.38596 11.3087 1.39158 9.92883 1.38978 8.54889C1.38956 7.82101 1.39203 7.09337 1.39586 6.36549C1.41385 5.64527 1.41858 4.9039 1.67545 4.22011C2.03736 3.31207 2.80279 2.56711 3.72793 2.24591C4.04845 2.13344 4.38765 2.09003 4.72392 2.05606Z" fill="#4B4B4B"/>
<path d="M16.838 12.4535C17.4977 12.0268 18.3374 11.8846 19.0981 12.0866C20.1186 12.3372 20.9556 13.2086 21.1654 14.2381C21.266 14.7291 21.2163 15.2323 21.2284 15.7291C21.928 15.9802 22.5058 16.5776 22.6889 17.3032C22.7991 17.7726 22.7708 18.2582 22.7768 18.7362C22.7705 19.2241 22.7996 19.7248 22.6527 20.1971C22.3996 20.9794 21.6909 21.6045 20.8733 21.726C20.6353 21.764 20.3935 21.7714 20.153 21.7737C19.6056 21.7773 19.0583 21.7719 18.511 21.7761C17.8214 21.7793 17.1318 21.7827 16.4421 21.7658C16.2249 21.7602 16.0049 21.7606 15.7921 21.7107C14.9677 21.5298 14.2641 20.8578 14.0736 20.0318C13.9828 19.6062 13.9976 19.1683 13.9963 18.736C14.0012 18.3223 13.981 17.9058 14.0451 17.4955C14.1643 16.6858 14.7858 16.0033 15.5451 15.7285C15.557 15.2925 15.5161 14.8539 15.5753 14.42C15.6866 13.6231 16.1628 12.8889 16.838 12.4535ZM18.0621 13.5833C17.637 13.6883 17.2726 14.026 17.1527 14.4495C17.0483 14.8242 17.1102 15.2161 17.0962 15.5989C17.9566 15.5982 18.817 15.6009 19.6773 15.5987C19.6773 15.4453 19.678 15.2919 19.6787 15.1385C19.6746 14.912 19.6946 14.6794 19.6244 14.4603C19.5169 14.1011 19.247 13.7938 18.902 13.6458C18.6397 13.5311 18.3385 13.508 18.0621 13.5833ZM16.2957 17.1583C16.1855 17.1667 16.0726 17.1779 15.972 17.2272C15.7458 17.3324 15.5786 17.5637 15.5656 17.8149C15.5379 18.2191 15.5429 18.6244 15.5476 19.0293C15.551 19.2252 15.5458 19.4223 15.5728 19.6168C15.6072 19.8703 15.7979 20.0912 16.0377 20.1755C16.1976 20.225 16.3679 20.2187 16.5335 20.2277C17.1855 20.236 17.8376 20.2286 18.4899 20.2322C19.1193 20.2304 19.7486 20.2369 20.3777 20.2237C20.5689 20.2199 20.7734 20.196 20.9277 20.0721C21.1065 19.94 21.2075 19.7214 21.2152 19.5017C21.2286 18.9616 21.2406 18.4209 21.2107 17.881C21.2232 17.538 20.9486 17.2114 20.6072 17.1712C20.3744 17.1428 20.1393 17.1464 19.9054 17.1442C19.0432 17.1442 18.1811 17.1442 17.3189 17.1442C16.9779 17.1466 16.6363 17.1363 16.2957 17.1583Z" fill="#4B4B4B"/>
</svg>
