<svg width="24" height="24" viewBox="0 0 24 24" fill="none" xmlns="http://www.w3.org/2000/svg">
<path opacity="0.7" d="M10.6011 0.502416C12.2818 0.45833 13.9717 0.917187 15.3977 1.80836C16.6596 2.59089 17.7183 3.69597 18.4503 4.98752C19.269 6.42414 19.6779 8.08727 19.6289 9.73938C19.6134 10.2414 19.6273 10.7435 19.6201 11.2455C19.6123 11.5987 19.2931 11.905 18.9404 11.9014C18.5796 11.9176 18.2465 11.6063 18.2382 11.2455C18.2359 10.6686 18.2375 10.0914 18.2373 9.51423C18.2476 9.08754 18.1815 8.66354 18.1005 8.24585C17.7968 6.74444 17.0283 5.33908 15.9203 4.28034C14.7956 3.19213 13.3167 2.47235 11.7631 2.27441C10.2912 2.07963 8.76164 2.34752 7.444 3.03243C6.27032 3.64064 5.26803 4.56937 4.56085 5.68502C4.11504 6.38703 3.78597 7.16304 3.59141 7.97143C3.2846 9.21935 3.32307 10.5321 3.57724 11.7854C3.89686 13.3524 4.57278 14.832 5.45652 16.1596C6.28112 17.3956 7.28363 18.5148 8.43212 19.4584C8.561 19.5637 8.69214 19.666 8.8262 19.7645C8.91257 19.8295 9.01266 19.8741 9.09589 19.9438C9.56644 20.3196 10.0379 20.6939 10.5084 21.0698C10.7619 21.2455 10.874 21.5883 10.7867 21.882C10.7125 22.1436 10.4815 22.3485 10.2149 22.3973C10.0019 22.4428 9.7745 22.38 9.60715 22.2432C9.12288 21.8577 8.63861 21.4717 8.15433 21.0864C8.09652 21.0396 8.04884 20.9821 7.99328 20.9335C6.92869 20.0592 5.97071 19.0567 5.1351 17.9617C4.19242 16.7241 3.40247 15.3644 2.84531 13.9103C2.53806 13.1075 2.30616 12.2753 2.164 11.4273C2.01577 10.5521 1.95954 9.65908 2.02747 8.77331C2.14466 7.20083 2.68224 5.66231 3.57251 4.36086C4.44749 3.07674 5.66076 2.02339 7.06252 1.35108C8.164 0.821591 9.37952 0.532557 10.6011 0.502416Z" fill="#4B4B4B"/>
<path opacity="0.7" d="M10.3591 4.51591C11.3571 4.41761 12.3823 4.64749 13.2472 5.15426C13.8954 5.52899 14.4535 6.05713 14.8673 6.68086C15.3536 7.41413 15.6458 8.27561 15.7014 9.15396C15.7556 9.9691 15.6074 10.7961 15.2756 11.5427C14.9566 12.2636 14.4636 12.9067 13.8486 13.4002C13.2501 13.8813 12.5373 14.2205 11.7847 14.3748C10.9376 14.552 10.0433 14.4911 9.22633 14.2063C8.47304 13.9452 7.78948 13.491 7.24965 12.9051C6.72601 12.3392 6.33463 11.6513 6.12005 10.9106C5.76061 9.69064 5.88253 8.33701 6.45947 7.20292C6.81868 6.49416 7.34614 5.86953 7.99192 5.4055C8.68425 4.90728 9.50929 4.59486 10.3591 4.51591ZM10.4857 5.92037C9.82262 5.98267 9.18045 6.24247 8.65973 6.65701C8.09808 7.10215 7.67657 7.72025 7.46536 8.40472C7.27057 9.03047 7.24875 9.70908 7.4035 10.3458C7.56635 11.0218 7.93096 11.6468 8.43863 12.1217C8.92785 12.5796 9.55001 12.8974 10.2113 13.0113C11.0507 13.1631 11.9435 12.9852 12.6626 12.5272C13.3126 12.1205 13.8196 11.4941 14.09 10.7775C14.3907 9.9934 14.4067 9.1038 14.1327 8.3098C13.8873 7.58372 13.4042 6.93772 12.7678 6.50901C12.1063 6.05623 11.284 5.84119 10.4857 5.92037Z" fill="#4B4B4B"/>
<path d="M15.9059 13.9041C16.6099 13.409 17.5434 13.2523 18.3671 13.5094C19.3581 13.8018 20.1422 14.672 20.3546 15.6797C20.4625 16.1941 20.4095 16.7222 20.4227 17.2432C21.1448 17.5079 21.7311 18.1382 21.9079 18.891C22.0155 19.3793 21.9869 19.8827 21.9916 20.3792C21.9878 20.852 22.0103 21.3342 21.885 21.7949C21.6702 22.5563 21.0408 23.1915 20.2738 23.3948C19.8377 23.5052 19.384 23.4841 18.938 23.4895C17.7083 23.4812 16.4779 23.5136 15.2484 23.4692C14.2369 23.4153 13.3316 22.5979 13.1519 21.6052C13.0702 21.1333 13.0941 20.6527 13.0905 20.1763C13.0934 19.7766 13.0806 19.373 13.155 18.9783C13.3046 18.1872 13.9124 17.5201 14.6605 17.2427C14.6724 16.803 14.633 16.3612 14.687 15.9233C14.7876 15.1196 15.2424 14.3686 15.9059 13.9041ZM17.1898 15.0321C16.7516 15.1525 16.3859 15.518 16.2802 15.962C16.1891 16.3378 16.2465 16.7267 16.2339 17.1087C17.1057 17.1089 17.9777 17.1087 18.8498 17.1087C18.8496 16.9391 18.8507 16.7693 18.8516 16.5997C18.8484 16.3698 18.8646 16.1329 18.79 15.9116C18.6761 15.5465 18.4006 15.2328 18.0472 15.0839C17.7785 14.9687 17.4703 14.95 17.1898 15.0321ZM15.2833 18.7313C14.9641 18.7822 14.6969 19.0701 14.6818 19.3951C14.6477 19.8949 14.6623 20.396 14.6657 20.8965C14.6767 21.0814 14.6627 21.2764 14.743 21.4487C14.8424 21.6689 15.0557 21.841 15.2988 21.8682C15.5669 21.8972 15.8371 21.8929 16.1066 21.8952C17.0805 21.8945 18.0544 21.8963 19.0284 21.8938C19.2796 21.8882 19.5325 21.9001 19.7824 21.8684C19.9767 21.8461 20.1555 21.7332 20.2675 21.574C20.3714 21.4303 20.4101 21.2503 20.4119 21.0758C20.4196 20.5213 20.4391 19.9657 20.3991 19.4122C20.3955 19.0635 20.0937 18.7475 19.7457 18.7268C19.3206 18.6922 18.8937 18.7093 18.4676 18.7059C17.7249 18.7059 16.982 18.7059 16.2393 18.7059C15.9205 18.7068 15.6007 18.6989 15.2833 18.7313Z" fill="#4B4B4B"/>
</svg>
