<svg width="24" height="24" viewBox="0 0 24 24" fill="none" xmlns="http://www.w3.org/2000/svg">
<path d="M16.6113 1.63361C17.2711 1.20692 18.1107 1.06476 18.8714 1.26675C19.8919 1.51732 20.7289 2.3887 20.9388 3.4182C21.0393 3.90923 20.9896 4.41239 21.0017 4.90926C21.7013 5.16028 22.2791 5.7577 22.4622 6.48332C22.5724 6.95275 22.5441 7.43837 22.5502 7.91635C22.5439 8.40422 22.5729 8.90491 22.426 9.37727C22.1729 10.1596 21.4642 10.7847 20.6466 10.9061C20.4086 10.9441 20.1668 10.9516 19.9263 10.9538C19.3789 10.9574 18.8316 10.952 18.2844 10.9563C17.5947 10.9594 16.9051 10.9628 16.2155 10.9459C15.9982 10.9403 15.7782 10.9408 15.5654 10.8908C14.741 10.71 14.0375 10.0379 13.8469 9.21194C13.7561 8.78638 13.7709 8.34844 13.7696 7.91612C13.7745 7.50248 13.7543 7.08591 13.8184 6.67564C13.9376 5.86589 14.5591 5.18345 15.3184 4.90859C15.3304 4.47267 15.2894 4.03406 15.3486 3.60017C15.4599 2.80325 15.9361 2.06907 16.6113 1.63361ZM17.8354 2.76343C17.4103 2.86848 17.0459 3.20609 16.926 3.62964C16.8216 4.00437 16.8835 4.3962 16.8696 4.77903C17.7299 4.77835 18.5903 4.78105 19.4506 4.7788C19.4506 4.6254 19.4513 4.472 19.452 4.3186C19.4479 4.09209 19.4679 3.85952 19.3978 3.64043C19.2902 3.28122 19.0203 2.97397 18.6753 2.82596C18.413 2.71125 18.1118 2.68808 17.8354 2.76343ZM16.069 6.33847C15.9588 6.34679 15.8459 6.35804 15.7454 6.4073C15.5191 6.51256 15.352 6.74379 15.3389 6.99504C15.3112 7.39924 15.3162 7.80456 15.3209 8.20943C15.3243 8.40535 15.3191 8.60238 15.3461 8.79695C15.3805 9.05044 15.5713 9.27132 15.811 9.35567C15.971 9.40516 16.1412 9.39886 16.3068 9.40786C16.9589 9.41618 17.6109 9.40876 18.2632 9.41236C18.8926 9.41056 19.5219 9.41708 20.1511 9.40381C20.3422 9.39998 20.5467 9.37614 20.701 9.25221C20.8798 9.12017 20.9808 8.90154 20.9885 8.68178C21.002 8.14173 21.0139 7.601 20.984 7.06116C20.9966 6.71815 20.7219 6.39155 20.3805 6.35129C20.1477 6.32295 19.9126 6.32655 19.6787 6.3243C18.8165 6.3243 17.9544 6.3243 17.0922 6.3243C16.7512 6.32677 16.4096 6.31642 16.069 6.33847Z" fill="#4B4B4B"/>
<path opacity="0.5" d="M7.29501 3.11198C8.62533 3.08005 9.95611 3.09226 11.2864 3.09038C11.6778 3.08052 12.0299 3.4379 12.0088 3.83098C12.0069 4.21044 11.6638 4.542 11.286 4.53307C10.3485 4.53401 9.41048 4.53213 8.47298 4.5373C7.53267 4.55045 6.58861 4.54904 5.6558 4.68007C5.2058 4.74769 4.75205 4.8449 4.34564 5.05671C3.95564 5.2563 3.63033 5.57799 3.42548 5.96543C3.2258 6.34066 3.12361 6.75863 3.05564 7.17566C2.95251 7.82609 2.92486 8.48544 2.90705 9.14292C2.88173 10.5194 2.89064 11.8963 2.89205 13.2728C2.90751 14.306 2.89861 15.3462 3.06173 16.37C3.1597 16.9542 3.33548 17.5586 3.75033 18.0001C4.2247 18.511 4.9072 18.7613 5.57564 18.8924C5.6558 18.6162 5.72892 18.3387 5.79736 18.0597C5.88689 17.7028 6.28298 17.4614 6.64064 17.5469C7.01376 17.6183 7.27955 18.0245 7.19376 18.396C7.03064 19.1488 6.74845 19.8753 6.6547 20.6431C6.63126 20.8911 6.60548 21.1588 6.7222 21.3889C6.99642 21.3551 7.25283 21.2461 7.50548 21.1405C8.49408 20.707 9.44001 20.1838 10.4244 19.741C11.1069 19.4381 11.8166 19.1807 12.5572 19.0642C13.3452 18.9417 14.1453 18.9802 14.9394 18.9727C15.9125 18.9586 16.8894 18.9637 17.8555 18.8322C18.3528 18.759 18.8586 18.6519 19.2974 18.3945C19.6883 18.1691 19.9991 17.8141 20.1833 17.4027C20.4017 16.9185 20.4875 16.3874 20.5452 15.8628C20.661 14.7216 20.6356 13.5729 20.653 12.428C20.668 12.1307 20.8878 11.8616 21.1738 11.7827C21.4817 11.6869 21.8399 11.8386 21.9941 12.1208C22.0864 12.2683 22.0939 12.4477 22.0897 12.6167C22.0789 13.7889 22.0939 14.9644 21.9645 16.131C21.8699 16.9331 21.6917 17.7493 21.2591 18.442C20.8494 19.1051 20.2156 19.6189 19.4928 19.903C18.612 20.2491 17.6577 20.3303 16.7211 20.3778C16.018 20.4092 15.3135 20.4144 14.6099 20.4158C13.8889 20.4257 13.1581 20.3867 12.4508 20.5544C11.4444 20.7915 10.5266 21.2856 9.60595 21.7402C9.00033 22.0351 8.39939 22.3413 7.77408 22.5916C7.34423 22.7555 6.87501 22.8865 6.4133 22.7917C5.92626 22.6921 5.53064 22.307 5.35158 21.851C5.1547 21.3598 5.17533 20.8145 5.24658 20.2998C4.23173 20.0946 3.22111 19.6428 2.55455 18.8243C1.91939 18.063 1.67845 17.0632 1.57111 16.0981C1.44267 14.9118 1.45861 13.7166 1.45017 12.5252C1.45064 11.476 1.44455 10.4269 1.4633 9.37773C1.48861 8.28069 1.51626 7.16486 1.82376 6.10303C2.0408 5.33097 2.48845 4.61714 3.12736 4.12732C3.70064 3.67601 4.40798 3.4365 5.11767 3.30594C5.8358 3.17444 6.56658 3.135 7.29501 3.11198Z" fill="#4B4B4B"/>
</svg>
