<svg width="24" height="24" viewBox="0 0 24 24" fill="none" xmlns="http://www.w3.org/2000/svg">
<path d="M9.96514 3.56082C10.5596 2.92044 11.4668 2.59137 12.3336 2.69731C13.0305 2.77581 13.6891 3.1312 14.1398 3.66766C14.4473 4.03047 14.6632 4.47224 14.7494 4.94031C14.8342 5.40569 14.7894 5.88052 14.8005 6.3504C15.4806 6.59355 16.0434 7.17004 16.2306 7.87272C16.3464 8.33968 16.3183 8.8253 16.3232 9.30215C16.3183 9.77608 16.3453 10.2622 16.2083 10.7219C15.9845 11.4417 15.3706 12.0283 14.6383 12.2109C14.3697 12.2757 14.0919 12.2897 13.8166 12.2942C13.2691 12.2991 12.7217 12.2937 12.1742 12.2973C11.4695 12.3005 10.7648 12.3043 10.0603 12.2863C9.93297 12.2818 9.80499 12.2856 9.67813 12.2708C8.80787 12.1752 8.02354 11.5195 7.78782 10.6742C7.66006 10.1897 7.69402 9.68386 7.6875 9.18811C7.69335 8.71464 7.66568 8.22856 7.81009 7.77083C8.02175 7.11224 8.56563 6.58522 9.21072 6.34927C9.21275 6.03595 9.2078 5.72262 9.21207 5.40929C9.22152 4.72776 9.49976 4.05724 9.96514 3.56082ZM11.7904 4.21649C11.3622 4.28712 10.976 4.59122 10.8228 4.99947C10.6779 5.39107 10.7522 5.81417 10.7364 6.22106C11.5826 6.22331 12.4288 6.22331 13.275 6.22286C13.275 5.98196 13.2779 5.74084 13.2752 5.49971C13.293 5.04131 13.0357 4.58852 12.6369 4.36382C12.3834 4.21851 12.0784 4.16183 11.7904 4.21649ZM9.82433 7.76476C9.52225 7.80749 9.25908 8.06886 9.23367 8.37612C9.1979 8.85679 9.21252 9.33904 9.2159 9.82061C9.21905 9.9396 9.22107 10.0593 9.23884 10.1771C9.27011 10.4039 9.43025 10.6027 9.63562 10.6987C9.79577 10.7748 9.97818 10.7608 10.1507 10.7734C10.6971 10.7844 11.2439 10.7759 11.7904 10.7788C12.4805 10.7786 13.1704 10.7817 13.8605 10.7734C14.0562 10.7685 14.2653 10.7694 14.4392 10.6666C14.6502 10.5438 14.7789 10.3071 14.7876 10.0656C14.8011 9.51089 14.8142 8.95508 14.7793 8.40108C14.7642 8.08078 14.4896 7.79512 14.1706 7.76543C13.9484 7.74114 13.7242 7.74429 13.5008 7.74136C12.7583 7.74114 12.0158 7.74136 11.2733 7.74136C10.7904 7.74676 10.3064 7.72584 9.82433 7.76476Z" fill="#4B4B4B"/>
<path opacity="0.7" d="M4.52564 4.48953C5.04613 4.45964 5.56774 4.46062 6.08868 4.46038C7.048 4.45866 5.47901 4.4586 6.43833 4.45811C6.82813 4.45076 7.1869 4.82557 7.19005 5.25134C7.20737 5.61684 6.96174 5.96323 6.64279 6.06244C6.51841 6.10507 6.3866 6.08792 6.25839 6.0911C5.14139 6.09429 6.55248 6.08479 5.43548 6.09533C5.04478 6.10096 4.6534 6.10709 4.26405 6.14579C3.97906 6.17568 3.69138 6.23594 3.43428 6.37827C2.96463 6.64431 2.5728 7.09114 2.39039 7.63645C2.24486 8.1313 2.24193 8.65676 2.22844 9.17096C2.21786 10.0609 2.21989 10.9512 2.21899 11.8414C2.21899 13.2539 2.21921 14.6664 2.22191 16.0789C2.22394 16.5461 2.22889 17.0143 2.26982 17.4795C2.29929 17.7957 2.35035 18.1183 2.49273 18.3998C2.73835 18.8858 3.13648 19.2847 3.61265 19.487C4.02338 19.644 4.46491 19.6524 4.8952 19.6739C5.49532 19.6952 6.09565 19.6818 6.69599 19.6884C8.5854 19.6886 10.4746 19.6891 12.364 19.6869C12.8577 19.683 13.3521 19.6835 13.8443 19.6369C14.1646 19.6053 14.4923 19.5431 14.7746 19.3665C15.2139 19.099 15.5773 18.6705 15.7546 18.1544C15.9042 17.6595 15.9039 17.1326 15.9201 16.6176C15.9327 15.5895 15.9285 15.127 15.9296 14.0988C15.9321 13.8734 16.025 13.6515 16.182 13.5043C16.4148 13.2737 16.7814 13.2287 17.0556 13.3975C17.2994 13.5349 17.4497 13.8271 17.4521 14.1236C17.4548 14.7186 17.4512 13.4604 17.4512 14.0554C17.4476 14.5868 17.4528 16.406 17.435 16.9371C17.4209 17.3932 17.393 17.8518 17.2985 18.2977C17.1635 18.964 16.8293 19.5693 16.3965 20.0571C15.9143 20.5997 15.2917 21.0046 14.6101 21.1602C14.1009 21.2778 13.5784 21.3018 13.0595 21.3101C12.2954 21.3221 11.5313 21.3165 10.7672 21.3197C9.18461 21.3221 7.60223 21.3233 6.01963 21.3165C5.38195 21.3125 4.7427 21.3228 4.10727 21.2565C3.66889 21.2077 3.22847 21.1119 2.82967 20.9015C1.87777 20.403 1.10694 19.4576 0.853891 18.33C0.759195 17.8646 0.726805 17.3869 0.71061 16.9114C0.693516 16.3239 0.700489 15.736 0.697115 15.1483C0.69509 13.605 0.693741 12.0614 0.698914 10.5181C0.702738 9.92107 0.693966 9.32382 0.716908 8.72732C0.741651 8.09284 0.798783 7.44366 1.03788 6.85695C1.45535 5.86358 2.2534 5.06105 3.20733 4.71466C3.632 4.56008 4.08163 4.51991 4.52564 4.48953Z" fill="#4B4B4B"/>
<path opacity="0.7" d="M21.322 7.44188C21.992 7.35677 22.6952 7.72307 23.0485 8.36184C23.2282 8.6826 23.3153 9.06308 23.3047 9.43958C23.3058 11.6376 23.3038 13.8359 23.3056 16.0339C23.3022 16.325 23.3211 16.6187 23.2766 16.9076C23.2105 17.3749 22.9669 17.8024 22.6268 18.0861C22.1407 18.5027 21.4544 18.6343 20.8815 18.3703C20.5509 18.2147 20.2535 17.9883 19.9391 17.7987C19.4863 17.5115 19.0333 17.2244 18.581 16.9362C18.0605 16.6042 17.7145 15.9545 17.7206 15.2876C17.7177 13.7361 17.7188 12.1846 17.7199 10.633C17.7208 9.97384 18.0621 9.33407 18.5758 9.00336C19.2519 8.57261 19.929 8.14361 20.6053 7.71311C20.8251 7.57252 21.0689 7.47373 21.322 7.44188ZM21.4538 9.10563C21.3757 9.13624 21.3062 9.18676 21.2345 9.23155C20.6254 9.62024 20.016 10.0084 19.4047 10.3926C19.3176 10.4449 19.2405 10.5412 19.2423 10.6564C19.2432 12.1497 19.2427 13.6428 19.2427 15.1361C19.245 15.2306 19.229 15.3351 19.2794 15.4188C19.3241 15.5041 19.4094 15.5439 19.4838 15.5907C20.135 15.9976 20.7754 16.4251 21.4333 16.8182C21.58 16.9093 21.7774 16.7627 21.7806 16.5836C21.7817 14.1765 21.7808 11.7695 21.7804 9.36244C21.7824 9.18725 21.6038 9.04019 21.4538 9.10563Z" fill="#4B4B4B"/>
</svg>
