<svg width="24" height="24" viewBox="0 0 24 24" fill="none" xmlns="http://www.w3.org/2000/svg">
<path d="M5.99254 2.43952C6.59715 2.30906 7.2436 2.39048 7.79828 2.66332C8.49848 3.00477 9.04371 3.65121 9.25492 4.4018C9.41125 4.93736 9.34939 5.50059 9.36154 6.05031C9.97357 6.27007 10.4896 6.75637 10.7244 7.36503C10.8996 7.82119 10.8805 8.31918 10.8845 8.79918C10.8794 9.26096 10.9046 9.72657 10.8279 10.1841C10.6864 10.9646 10.0815 11.634 9.32847 11.8746C8.86534 12.0195 8.37365 11.9898 7.89477 11.9972C6.71029 11.9905 5.52536 12.0168 4.34111 11.9797C3.40517 11.925 2.54369 11.2122 2.32956 10.297C2.25623 9.97601 2.24949 9.64492 2.24949 9.31719C2.24814 8.97215 2.24679 8.62711 2.25398 8.28207C2.26298 7.9485 2.30122 7.6084 2.43528 7.29935C2.6809 6.71993 3.18429 6.2649 3.77248 6.04941C3.77316 5.74418 3.76934 5.43873 3.77293 5.1335C3.77653 4.44612 4.05342 3.76705 4.52218 3.26591C4.91153 2.84731 5.43292 2.55558 5.99254 2.43952ZM5.82092 4.13909C5.58339 4.30801 5.40435 4.5615 5.33935 4.84694C5.2559 5.19963 5.31168 5.56334 5.29751 5.9212C6.14392 5.923 6.99033 5.92458 7.83674 5.9221C7.83427 5.63622 7.84349 5.35033 7.83202 5.06445C7.80053 4.57522 7.45279 4.12649 6.98943 3.96859C6.60323 3.82778 6.15247 3.89886 5.82092 4.13909ZM4.37395 7.4667C4.11483 7.50921 3.8872 7.70872 3.81545 7.96199C3.7934 8.03644 3.79183 8.11449 3.78688 8.19142C3.76506 8.57358 3.77114 8.95663 3.77541 9.33946C3.77743 9.51491 3.77541 9.69148 3.79813 9.8658C3.83524 10.1695 4.10178 10.429 4.40679 10.4553C4.80401 10.4907 5.20304 10.4751 5.60116 10.4792C6.53845 10.4772 7.47573 10.4837 8.41279 10.4738C8.63389 10.4691 8.87906 10.47 9.06126 10.3253C9.24435 10.1937 9.34467 9.96904 9.34984 9.74681C9.36199 9.20001 9.37526 8.6523 9.34107 8.10617C9.32825 7.78677 9.05721 7.49999 8.73983 7.46692C8.52682 7.44195 8.31157 7.4451 8.09743 7.44195C7.07783 7.4415 6.058 7.44173 5.03839 7.44173C4.81683 7.4433 4.5946 7.44398 4.37395 7.4667Z" fill="#4B4B4B"/>
<path opacity="0.7" d="M16.8164 1.93168C17.2143 1.8696 17.6109 1.77806 18.0162 1.7884C18.8021 1.79538 19.5844 2.0563 20.2133 2.52887C20.7781 2.94994 21.2241 3.53116 21.4756 4.18975C21.6398 4.61735 21.7233 5.0753 21.7244 5.53303C21.7244 8.61457 21.7244 11.6961 21.7244 14.7779C21.7257 15.3325 21.7212 15.8872 21.7271 16.4421C21.7356 17.2321 21.4801 18.0198 21.0235 18.6631C20.5885 19.2738 19.9632 19.7457 19.2587 20.001C18.5038 20.2779 17.6588 20.3003 16.8902 20.0642C16.3189 19.8916 15.7903 19.5801 15.364 19.1622C14.8098 18.6224 14.4263 17.9075 14.2925 17.1448C14.149 16.351 14.2695 15.5114 14.6348 14.7918C14.9695 14.128 15.5073 13.5698 16.1567 13.2085C16.8265 12.8318 17.6154 12.6712 18.3792 12.7582C19.0446 12.8307 19.6912 13.0803 20.2268 13.4832C20.2268 11.7811 20.227 10.0791 20.2268 8.37705C18.0893 8.73266 15.9522 9.0894 13.8147 9.44546C12.8329 9.61079 13.8171 9.44799 12.8364 9.62231C12.6888 9.64908 12.5332 9.64256 12.3937 9.5843C12.1431 9.48308 11.9533 9.23971 11.927 8.96934C11.8908 8.67941 12.0437 8.37643 12.2981 8.2327C12.4587 8.13665 12.6504 8.12878 12.8301 8.09751C15.9521 7.5795 17.1061 7.38016 20.227 6.8554C20.2257 6.39969 20.2281 5.94421 20.2257 5.4885C20.2142 4.78514 19.8494 4.09618 19.2695 3.69671C18.9105 3.44524 18.478 3.29858 18.0394 3.28801C17.7964 3.27856 17.5569 3.32715 17.3187 3.36809C15.667 3.64115 14.016 3.91849 12.3646 4.19335C12.0061 4.25701 11.6435 4.30087 11.2899 4.38972C11.0659 4.44797 10.8144 4.40254 10.632 4.25791C10.4084 4.08899 10.2966 3.78668 10.3564 3.51294C10.4075 3.25607 10.605 3.03406 10.8544 2.95354C11.1808 2.87077 11.5128 2.81363 11.8452 2.761C13.5023 2.48524 15.1591 2.20767 16.8164 1.93168ZM17.7987 14.2419C17.1493 14.2857 16.5371 14.6425 16.1571 15.1675C15.7224 15.7498 15.6193 16.5512 15.8616 17.2325C16.0636 17.8084 16.513 18.2904 17.0719 18.5344C17.6889 18.814 18.4323 18.787 19.0284 18.466C19.4092 18.2656 19.7299 17.9532 19.9391 17.5771C20.2133 17.0899 20.2952 16.4984 20.1629 15.9552C20.0655 15.5444 19.8458 15.1652 19.5446 14.8703C19.0893 14.4216 18.4355 14.1872 17.7987 14.2419Z" fill="#4B4B4B"/>
<path opacity="0.7" d="M8.24124 13.6928C8.24282 13.3089 8.59078 12.9683 8.97361 12.9692C9.36612 12.9508 9.73568 13.2956 9.73747 13.6897C9.74175 15.5571 9.7377 16.2163 9.73838 18.0839C9.74175 18.457 9.74445 18.834 9.66865 19.2016C9.5094 20.0196 9.06516 20.7779 8.43311 21.3204C7.87776 21.8008 7.17598 22.107 6.44743 22.1963C5.68087 22.2919 4.88687 22.14 4.20848 21.7709C3.5888 21.4365 3.06853 20.9223 2.72507 20.308C2.31524 19.586 2.16342 18.7245 2.29185 17.9051C2.39037 17.2505 2.66928 16.6252 3.08878 16.1133C3.54111 15.559 4.15337 15.1348 4.83491 14.9157C5.67592 14.6395 6.615 14.6798 7.43105 15.0208C7.71806 15.1404 7.98932 15.2966 8.23989 15.4803C8.24057 14.4816 8.23877 14.6913 8.24124 13.6928ZM5.655 16.257C4.97729 16.3571 4.35851 16.7874 4.02898 17.3882C3.76627 17.859 3.68214 18.4255 3.79686 18.9523C3.93069 19.5837 4.35176 20.1456 4.91993 20.4515C5.38351 20.7052 5.93819 20.7862 6.4553 20.6771C7.0977 20.5473 7.66542 20.1132 7.97448 19.5372C8.2237 19.074 8.29905 18.5216 8.18951 18.0076C8.0568 17.3702 7.62831 16.8029 7.05339 16.4979C6.62962 16.2687 6.13073 16.1864 5.655 16.257Z" fill="#4B4B4B"/>
</svg>
