<svg width="24" height="24" viewBox="0 0 24 24" fill="none" xmlns="http://www.w3.org/2000/svg">
<path d="M15.4501 4.4667L7.9251 6.9667C2.86676 8.65837 2.86676 11.4167 7.9251 13.1L10.1584 13.8417L10.9001 16.075C12.5834 21.1334 15.3501 21.1334 17.0334 16.075L19.5418 8.55837C20.6584 5.18337 18.8251 3.3417 15.4501 4.4667ZM15.7168 8.95004L12.5501 12.1334C12.4251 12.2584 12.2668 12.3167 12.1084 12.3167C11.9501 12.3167 11.7918 12.2584 11.6668 12.1334C11.4251 11.8917 11.4251 11.4917 11.6668 11.25L14.8334 8.0667C15.0751 7.82504 15.4751 7.82504 15.7168 8.0667C15.9584 8.30837 15.9584 8.70837 15.7168 8.95004Z" fill="#4B4B4B"/>
</svg>
