<svg width="24" height="24" viewBox="0 0 24 24" fill="none" xmlns="http://www.w3.org/2000/svg">
<path d="M16.0162 7.90399C16.2445 7.6704 16.5916 7.56416 16.912 7.62458C17.2271 7.6777 17.5073 7.89304 17.6448 8.18097C17.833 8.5573 17.751 9.04474 17.4493 9.33794C15.2729 11.5148 13.096 13.6917 10.9195 15.8682C10.7532 16.03 10.6003 16.2198 10.3793 16.3094C10.0046 16.4797 9.53462 16.388 9.24913 16.092C8.36183 15.2075 7.47737 14.3203 6.59088 13.435C6.43881 13.2886 6.3208 13.102 6.27944 12.8932C6.19144 12.5193 6.34432 12.1057 6.65009 11.8745C7.02602 11.5716 7.6189 11.6 7.96319 11.939C8.63394 12.6077 9.30266 13.2784 9.973 13.9476C11.9873 11.9333 14.0023 9.91906 16.0162 7.90399Z" fill="#4B4B4B"/>
</svg>
