<svg width="24" height="24" viewBox="0 0 24 24" fill="none" xmlns="http://www.w3.org/2000/svg">
<path d="M11.5869 1.26816C12.5211 1.18566 13.479 1.38546 14.2986 1.84236C15.2478 2.36556 16.0071 3.22356 16.4091 4.23006C16.8516 5.32326 16.8633 6.58266 16.4427 7.68456C16.0653 8.68746 15.3348 9.55116 14.4111 10.0936C13.4178 10.6855 12.204 10.8871 11.0712 10.6594C10.212 10.4911 9.40377 10.0753 8.76417 9.47736C8.06217 8.82666 7.56387 7.95906 7.36047 7.02336C7.16337 6.12696 7.23057 5.17326 7.55757 4.31496C7.90467 3.39546 8.54727 2.59116 9.36597 2.04726C10.0248 1.60566 10.7964 1.33476 11.5869 1.26816ZM11.5356 2.78316C10.9455 2.86686 10.3803 3.11856 9.92277 3.50076C9.36867 3.95916 8.97357 4.60686 8.82327 5.31066C8.66817 6.02376 8.76027 6.78906 9.08667 7.44216C9.41577 8.10996 9.98157 8.65656 10.6602 8.96196C11.2911 9.24966 12.0156 9.32406 12.6927 9.17616C13.3734 9.03006 14.0019 8.65536 14.4564 8.12826C14.7858 7.74906 15.0261 7.29246 15.1494 6.80556C15.3195 6.14046 15.2733 5.42196 15.0153 4.78566C14.7084 4.01706 14.0949 3.37806 13.3404 3.03876C12.7797 2.78316 12.1452 2.69586 11.5356 2.78316Z" fill="#4B4B4B"/>
<path opacity="0.5" fill-rule="evenodd" clip-rule="evenodd" d="M14.5 12.4619C13.5415 12.2946 12.5649 12.2301 11.5927 12.2553C9.87459 12.3054 8.14629 12.6309 6.57999 13.3548C5.56689 13.8297 4.60659 14.4879 3.94929 15.4077C3.52809 15.9951 3.26259 16.7034 3.25119 17.43L3.25115 17.4367C3.24666 18.2389 3.24205 19.0632 3.51399 19.8288C3.70659 20.3862 4.05909 20.8851 4.51749 21.2559C5.23629 21.8403 6.13689 22.14 7.02939 22.3398C8.39589 22.6344 9.79779 22.713 11.1922 22.743C12.6838 22.7646 14.1802 22.74 15.6628 22.56C16.6588 22.4319 17.6629 22.2414 18.5797 21.8163C19.0813 21.5808 19.552 21.2622 19.9117 20.8368C20.2459 20.4474 20.4721 19.9719 20.5933 19.4748C20.616 19.3836 20.6355 19.292 20.6522 19.2H19.1143C19.0842 19.3051 19.0467 19.4083 18.9997 19.5087C18.8167 19.9056 18.4621 20.193 18.0808 20.3898C17.4856 20.6952 16.8277 20.8506 16.1734 20.9685C14.9146 21.1824 13.6351 21.2349 12.3607 21.2487C11.0104 21.2553 9.65559 21.2241 8.31549 21.0444C7.62099 20.9454 6.92439 20.8119 6.27039 20.5506C5.84949 20.3784 5.43279 20.1441 5.15769 19.7718C4.91379 19.4433 4.82379 19.0311 4.78659 18.6312C4.75552 18.3077 4.75316 17.9826 4.7508 17.658C4.75055 17.6222 4.75029 17.5864 4.74999 17.5506C4.74669 17.3301 4.78059 17.1093 4.85169 16.9005C5.01879 16.4052 5.35899 15.9885 5.74599 15.6456C6.43569 15.0453 7.27419 14.6412 8.13429 14.3475C9.20109 13.9905 10.3219 13.8078 11.4445 13.7616C12.4665 13.7211 13.4959 13.7895 14.5 13.9879V12.4619Z" fill="#4B4B4B"/>
<path d="M19.3767 10.0107C19.6447 9.96051 19.9381 10.0903 20.0775 10.3254C20.1204 10.3956 20.1378 10.477 20.1693 10.5522C20.4 11.1178 20.6928 11.6652 21.0946 12.1288C21.4289 12.5169 21.8489 12.8363 22.3279 13.0229C22.5784 13.1611 22.8543 13.2476 23.1005 13.3943C23.2468 13.4818 23.3841 13.6003 23.4509 13.7611C23.5361 13.9661 23.5122 14.221 23.3653 14.3922C23.2175 14.5658 23.0018 14.6568 22.7973 14.7447C22.6352 14.8097 22.4761 14.882 22.3238 14.9675C21.791 15.1852 21.334 15.5621 20.9802 16.0126C20.6033 16.4926 20.3233 17.0439 20.1181 17.617C19.9919 17.876 19.6897 18.0261 19.407 17.9962C19.2507 17.981 19.0986 17.8994 19.0109 17.7675C18.659 17.1778 18.4563 16.4994 18.0095 15.9676C17.9147 15.8493 17.7975 15.7528 17.695 15.6419C17.516 15.4587 17.3053 15.3091 17.0843 15.181C16.6514 14.9301 16.1797 14.7552 15.7449 14.5082C15.4508 14.3008 15.4218 13.8292 15.6569 13.5666C15.7259 13.4848 15.8276 13.4461 15.9206 13.3987C16.4665 13.119 17.0527 12.8993 17.5336 12.5088C17.6655 12.4038 17.7821 12.2818 17.893 12.1554C18.0503 12.0077 18.1806 11.8335 18.2885 11.6473C18.5716 11.1639 18.7273 10.607 19.0873 10.1695C19.1578 10.0805 19.2682 10.0335 19.3767 10.0107ZM17.8991 14.0118C18.5204 14.4458 19.0673 14.9849 19.5131 15.5979C19.9562 14.9839 20.4916 14.436 21.1008 13.9861C20.4816 13.5495 19.9362 13.0086 19.4943 12.3931C19.0596 13.0181 18.5171 13.5674 17.8991 14.0118Z" fill="#4B4B4B"/>
<path d="M4.93836 8.00536C5.07236 7.98025 5.21906 8.04514 5.28874 8.1627C5.31018 8.19778 5.31892 8.2385 5.33463 8.27612C5.45001 8.55892 5.59642 8.8326 5.79728 9.06442C5.96447 9.25844 6.17445 9.41813 6.41396 9.51143C6.53922 9.58055 6.67717 9.62381 6.80026 9.69717C6.87342 9.7409 6.94206 9.80015 6.97545 9.88056C7.01804 9.98307 7.0061 10.1105 6.93266 10.1961C6.85875 10.2829 6.75089 10.3284 6.64867 10.3723C6.56762 10.4049 6.48806 10.441 6.41189 10.4838C6.14549 10.5926 5.91699 10.7811 5.74011 11.0063C5.55166 11.2463 5.41164 11.522 5.30905 11.8085C5.24595 11.938 5.09484 12.0131 4.9535 11.9981C4.87536 11.9905 4.79928 11.9497 4.75546 11.8838C4.57952 11.5889 4.47815 11.2497 4.25472 10.9838C4.20733 10.9247 4.14875 10.8764 4.0975 10.8209C4.00798 10.7293 3.90266 10.6546 3.79217 10.5905C3.5757 10.4651 3.33986 10.3776 3.12245 10.2541C2.97538 10.1504 2.96089 9.9146 3.07844 9.78331C3.11295 9.7424 3.16382 9.72303 3.21028 9.69933C3.48326 9.55948 3.77637 9.44964 4.01682 9.2544C4.08273 9.20192 4.14104 9.14088 4.19652 9.07768C4.27513 9.00385 4.3403 8.91677 4.39427 8.82366C4.5358 8.58196 4.61366 8.30349 4.79364 8.08474C4.8289 8.04025 4.8841 8.01674 4.93836 8.00536ZM4.19953 10.0059C4.51022 10.2229 4.78367 10.4924 5.00654 10.7989C5.22808 10.492 5.4958 10.218 5.80038 9.99304C5.49082 9.77476 5.21812 9.50428 4.99713 9.19656C4.77982 9.50907 4.50853 9.78369 4.19953 10.0059Z" fill="#4B4B4B"/>
</svg>
