<svg width="24" height="24" viewBox="0 0 24 24" fill="none" xmlns="http://www.w3.org/2000/svg">
<path d="M9.3982 1.27103C10.9351 1.25213 12.472 1.25723 14.0089 1.26353C15.3028 1.28003 16.603 1.29383 17.8846 1.49093C18.874 1.64603 19.8709 1.95263 20.6668 2.58143C21.1258 2.94203 21.5155 3.39143 21.8035 3.89963C22.3231 4.81223 22.5181 5.86523 22.6243 6.89813C22.765 8.37353 22.7509 9.85763 22.7593 11.3384C22.7542 12.9185 22.7755 14.5001 22.7005 16.0793C22.6402 17.1731 22.5409 18.2831 22.1692 19.3217C21.8623 20.1914 21.3043 20.975 20.5567 21.5192C19.7446 22.1192 18.748 22.4009 17.7613 22.5455C16.459 22.7318 15.1405 22.7405 13.8277 22.7552C12.1876 22.7591 10.5472 22.7702 8.9074 22.7366C7.7725 22.7039 6.6289 22.6562 5.5168 22.4084C4.8844 22.2644 4.2631 22.0418 3.7135 21.6923C2.9383 21.2042 2.3254 20.4704 1.969 19.6277C1.5451 18.6359 1.4152 17.5505 1.3399 16.4837C1.2817 15.6002 1.2685 14.7143 1.2619 13.8293C1.2565 12.5789 1.2562 11.3285 1.2625 10.0781C1.2697 9.26754 1.2829 8.45633 1.3324 7.64663C1.3774 6.93863 1.4488 6.23003 1.6042 5.53673C1.7443 4.91573 1.9582 4.30493 2.2948 3.76163C2.7187 3.07253 3.3325 2.50223 4.051 2.13053C4.6633 1.80953 5.3377 1.62653 6.0163 1.50983C7.1332 1.32383 8.2684 1.29323 9.3982 1.27103ZM9.3091 2.77313C8.1796 2.79923 7.0408 2.82443 5.9302 3.05393C5.4379 3.16043 4.9492 3.31883 4.5208 3.58943C4.0777 3.86813 3.7117 4.26623 3.4684 4.72913C3.208 5.22233 3.0721 5.76953 2.9803 6.31643C2.8651 7.02443 2.8219 7.74173 2.7949 8.45783C2.7508 9.74784 2.7598 11.039 2.7583 12.3293C2.7589 13.3388 2.7583 14.3483 2.788 15.3575C2.8108 16.0604 2.8468 16.7645 2.944 17.4617C3.0199 17.9966 3.1315 18.5321 3.3454 19.0307C3.523 19.4504 3.79 19.8338 4.1323 20.1359C4.4389 20.4101 4.8046 20.612 5.1895 20.753C5.7004 20.9399 6.2395 21.0359 6.778 21.1022C7.5847 21.1979 8.3974 21.2255 9.2089 21.2426C10.747 21.2666 12.2857 21.26 13.8241 21.2549C15.0358 21.2411 16.2523 21.2351 17.4553 21.074C18.0556 20.9879 18.6595 20.8598 19.2067 20.5898C19.6651 20.3657 20.065 20.024 20.3557 19.6046C20.6275 19.214 20.7976 18.7622 20.9128 18.3029C21.0598 17.7116 21.127 17.1038 21.1723 16.4972C21.2692 15.08 21.2527 13.6583 21.259 12.2384C21.2533 10.7387 21.2737 9.23723 21.187 7.73933C21.1471 7.11683 21.0871 6.49343 20.9527 5.88353C20.8456 5.40173 20.6857 4.92503 20.4184 4.50713C20.1343 4.06133 19.729 3.69353 19.258 3.45383C18.8002 3.21653 18.2959 3.08603 17.7907 2.99603C17.137 2.88263 16.4737 2.83553 15.8116 2.80523C15.0307 2.77133 14.2489 2.76473 13.4677 2.76053C12.0814 2.75903 10.6951 2.75183 9.3091 2.77313Z" fill="#4B4B4B"/>
<path opacity="0.5" d="M8.86238 6.69947C9.05228 6.47867 9.37778 6.38867 9.65408 6.48167C9.94778 6.57077 10.1674 6.85787 10.174 7.16537C10.1911 8.56757 10.204 9.96977 10.2208 11.372C10.6243 11.5169 10.9858 11.7779 11.2456 12.1193C11.5714 12.542 11.7361 13.0844 11.6992 13.6169C11.6692 14.1137 11.464 14.5976 11.1289 14.9657C10.8718 15.2513 10.5397 15.4661 10.1758 15.5888C10.1746 16.0007 10.1779 16.4129 10.1743 16.8248C10.1686 17.1623 9.90428 17.471 9.57308 17.5319C9.28778 17.5922 8.97398 17.4683 8.81048 17.2262C8.72288 17.1014 8.67368 16.9496 8.67548 16.7972C8.67548 16.382 8.67578 15.9668 8.67548 15.5516C8.21858 15.3749 7.82318 15.0437 7.57058 14.6237C7.28408 14.1563 7.18568 13.5806 7.29128 13.0436C7.43258 12.2876 7.99718 11.6342 8.72048 11.3762C8.70488 9.99227 8.69048 8.60867 8.67518 7.22477C8.66798 7.03427 8.73488 6.84197 8.86238 6.69947ZM9.31388 12.7637C9.01478 12.8288 8.77568 13.1003 8.75318 13.4063C8.71988 13.712 8.90678 14.0237 9.19088 14.1407C9.45188 14.2565 9.77768 14.1971 9.98078 13.9967C10.183 13.8065 10.258 13.4957 10.1641 13.2344C10.0528 12.8921 9.66368 12.6749 9.31388 12.7637Z" fill="#4B4B4B"/>
<path opacity="0.5" d="M14.5981 6.4545C15.0316 6.381 15.4648 6.7596 15.4504 7.1988C15.4525 7.614 15.4474 8.0295 15.4528 8.445C15.9631 8.6397 16.393 9.0324 16.6378 9.5202C16.8646 9.9663 16.9315 10.4904 16.828 10.98C16.6786 11.7237 16.1191 12.363 15.4054 12.6177C15.4195 14.0118 15.436 15.4059 15.4501 16.7997C15.4519 17.0451 15.322 17.2857 15.1174 17.4207C14.9107 17.5617 14.6317 17.5875 14.4031 17.4858C14.1331 17.3733 13.9468 17.0907 13.9504 16.7982C13.9351 15.4065 13.9198 14.0145 13.9054 12.6228C13.5001 12.4773 13.138 12.2142 12.8773 11.8716C12.5839 11.4894 12.4207 11.0094 12.4219 10.5276C12.4183 10.0374 12.5842 9.5478 12.8857 9.1608C13.1545 8.8104 13.5313 8.5443 13.9507 8.4057C13.9516 7.9926 13.9489 7.5795 13.9519 7.1664C13.957 6.8133 14.2486 6.4962 14.5981 6.4545ZM14.4439 9.8238C14.1064 9.9159 13.8724 10.2756 13.9285 10.6218C13.9726 11.0142 14.3785 11.3151 14.7673 11.2389C15.1621 11.1843 15.4528 10.764 15.3604 10.3749C15.2893 9.9708 14.8351 9.6966 14.4439 9.8238Z" fill="#4B4B4B"/>
</svg>
