<svg width="24" height="24" viewBox="0 0 24 24" fill="none" xmlns="http://www.w3.org/2000/svg">
<path d="M10.7233 1.28278C11.3572 1.23658 11.9941 1.25188 12.6295 1.25458C13.0486 1.26148 13.4758 1.27228 13.8793 1.39828C14.8441 1.71298 15.6076 2.61028 15.7075 3.62788C15.7504 3.88708 15.7048 4.16218 15.8134 4.40818C15.8812 4.57588 16.0075 4.71778 16.1632 4.80928C16.4122 4.94848 16.7293 4.93798 16.9792 4.80598C17.2579 4.65808 17.5462 4.52128 17.8546 4.44898C18.8626 4.21888 20.0005 4.62298 20.5987 5.47558C20.9143 5.91178 21.166 6.38938 21.439 6.85228C21.703 7.32418 21.9991 7.79218 22.1218 8.32528C22.2685 9.02038 22.1227 9.77008 21.7351 10.3644C21.496 10.7505 21.1294 11.0334 20.7478 11.2689C20.4943 11.4222 20.308 11.7018 20.3119 12.0039C20.3098 12.2964 20.4856 12.5688 20.7289 12.7224C21.0469 12.9234 21.3622 13.1439 21.5953 13.4439C22.03 13.9983 22.2394 14.7237 22.1626 15.4245C22.1077 15.9849 21.8152 16.4799 21.5476 16.962C21.2419 17.4822 20.9599 18.0183 20.611 18.5115C20.0551 19.3173 19.0192 19.7292 18.0589 19.593C17.7205 19.5477 17.401 19.4151 17.1001 19.2585C16.9759 19.1943 16.8496 19.1283 16.7095 19.1079C16.4401 19.0563 16.1446 19.149 15.9637 19.3575C15.8158 19.5177 15.7444 19.7364 15.7387 19.9518C15.7255 20.2977 15.6907 20.6478 15.571 20.9748C15.3247 21.636 14.8105 22.1922 14.1706 22.4892C13.7959 22.6743 13.3732 22.7268 12.9604 22.7409C12.5401 22.755 12.1192 22.7541 11.6986 22.7529C11.1643 22.743 10.6159 22.764 10.1002 22.5996C9.31658 22.3359 8.67128 21.6933 8.40548 20.9103C8.29868 20.5923 8.27138 20.2554 8.25818 19.9224C8.24828 19.6815 8.14478 19.4397 7.95818 19.2831C7.75448 19.1007 7.45388 19.0545 7.19528 19.128C7.06718 19.1613 6.95528 19.2339 6.83798 19.2921C6.62018 19.3962 6.39758 19.494 6.16208 19.5504C5.14958 19.7901 4.00118 19.386 3.39938 18.528C3.06428 18.0618 2.79638 17.5524 2.50598 17.0583C2.21888 16.5456 1.89488 16.0233 1.83638 15.4251C1.73408 14.502 2.12978 13.5222 2.89268 12.978C3.09758 12.8106 3.35768 12.7098 3.51908 12.4929C3.67238 12.2901 3.73118 12.0141 3.65108 11.7705C3.58808 11.5599 3.43598 11.3847 3.25148 11.2698C2.98088 11.0979 2.71328 10.9131 2.49818 10.6728C1.93808 10.0401 1.69838 9.13648 1.88018 8.31028C1.95488 7.97758 2.11028 7.67188 2.26718 7.37188C2.46758 7.00498 2.67968 6.64438 2.88878 6.28258C3.12368 5.88778 3.35228 5.48158 3.67448 5.15008C4.42058 4.41298 5.62508 4.16608 6.58838 4.59808C6.86168 4.70308 7.10618 4.90498 7.41068 4.90888C7.72628 4.92718 8.03438 4.73518 8.16698 4.45018C8.29808 4.18588 8.24618 3.88288 8.29418 3.60088C8.42378 2.38618 9.50408 1.35658 10.7233 1.28278ZM10.8139 2.78188C10.3684 2.81548 9.98138 3.15028 9.83018 3.56218C9.76718 3.75808 9.76838 3.96658 9.75518 4.16998C9.72788 4.70398 9.52088 5.22898 9.16808 5.63158C8.79878 6.05338 8.26958 6.33238 7.71188 6.39328C7.22768 6.45148 6.72908 6.35038 6.29858 6.12388C6.09998 6.02278 5.89808 5.90668 5.67098 5.88958C5.33468 5.86348 4.98248 5.97358 4.73768 6.20968C4.53428 6.42688 4.39388 6.69238 4.23938 6.94438C3.99428 7.36948 3.74228 7.79098 3.51248 8.22478C3.42968 8.39518 3.34058 8.57038 3.32498 8.76238C3.29828 9.08848 3.40058 9.42688 3.61688 9.67408C3.82118 9.88858 4.10168 10.005 4.32368 10.1976C4.55558 10.3881 4.75058 10.623 4.89668 10.8852C5.16338 11.358 5.25008 11.928 5.14118 12.4596C5.03168 12.9987 4.72058 13.4916 4.29038 13.833C4.07498 14.01 3.81218 14.1261 3.61778 14.3295C3.32438 14.6703 3.22448 15.1878 3.42728 15.5985C3.64598 16.0647 3.92138 16.5015 4.17488 16.9491C4.33058 17.2104 4.47878 17.478 4.66778 17.7171C4.92068 18.0222 5.34458 18.1578 5.73158 18.1077C5.97248 18.0681 6.18188 17.9349 6.39908 17.832C6.91988 17.5815 7.53338 17.5236 8.08928 17.6862C8.54378 17.8203 8.95838 18.0945 9.24848 18.4704C9.55418 18.8574 9.72968 19.3422 9.75578 19.8339C9.76688 20.0454 9.76838 20.262 9.83768 20.4648C9.94988 20.7465 10.1671 20.9868 10.4407 21.12C10.6711 21.2385 10.9381 21.2316 11.1901 21.2457C11.7298 21.2556 12.2695 21.2565 12.8092 21.2457C13.024 21.2355 13.2442 21.2349 13.4503 21.1668C13.7857 21.0408 14.0599 20.7606 14.1751 20.4207C14.2279 20.2398 14.2306 20.0493 14.2417 19.8624C14.2609 19.3896 14.4193 18.9219 14.698 18.5388C14.9872 18.1362 15.4135 17.8341 15.8884 17.6925C16.4206 17.5299 17.0077 17.5737 17.5171 17.7933C17.7619 17.8968 17.9863 18.0579 18.2527 18.105C18.6181 18.1584 19.0138 18.0426 19.276 17.7783C19.4701 17.5638 19.6081 17.307 19.7578 17.061C20.0002 16.6413 20.2492 16.2249 20.476 15.7965C20.5675 15.6117 20.6668 15.4209 20.6755 15.2106C20.6935 14.8872 20.5867 14.5536 20.3662 14.3139C20.2492 14.199 20.1115 14.1084 19.9741 14.0205C19.5166 13.7427 19.1485 13.3143 18.9595 12.8121C18.7729 12.3252 18.763 11.7738 18.928 11.2794C19.0726 10.8513 19.3414 10.4661 19.6933 10.1829C19.9117 9.99958 20.1808 9.88198 20.38 9.67498C20.6677 9.34108 20.7715 8.83618 20.5816 8.42998C20.4613 8.15938 20.3116 7.90288 20.1649 7.64608C19.9147 7.21978 19.6819 6.78208 19.3993 6.37588C19.1755 6.03778 18.7546 5.86528 18.3574 5.88748C18.1108 5.89768 17.893 6.02638 17.6779 6.13318C17.1853 6.39118 16.6018 6.47608 16.0579 6.35578C15.5446 6.24268 15.0709 5.94928 14.749 5.53288C14.4445 5.14588 14.2684 4.66168 14.2429 4.17058C14.2318 3.96028 14.2297 3.74458 14.1619 3.54268C14.026 3.19348 13.7233 2.90578 13.3582 2.81038C13.0393 2.74618 12.7114 2.75968 12.388 2.75218C11.8633 2.75398 11.3371 2.73748 10.8139 2.78188Z" fill="#4B4B4B"/>
<path opacity="0.5" d="M11.5949 8.27125C12.2831 8.19685 12.9926 8.31386 13.6163 8.61566C14.5109 9.03836 15.2219 9.83186 15.5429 10.7682C15.8069 11.5212 15.8183 12.3591 15.5798 13.1202C15.2798 14.0904 14.5661 14.9229 13.6526 15.3666C12.6356 15.8736 11.3852 15.8772 10.3658 15.375C9.35481 14.892 8.58801 13.932 8.34411 12.8379C8.15841 12.0279 8.24841 11.1555 8.60631 10.4046C8.96841 9.62755 9.60801 8.98405 10.3823 8.61595C10.7627 8.43295 11.1752 8.31655 11.5949 8.27125ZM11.6864 9.77125C11.0138 9.86095 10.3961 10.278 10.0568 10.8648C9.75351 11.3769 9.67131 12.0126 9.82761 12.5862C9.95511 13.0683 10.2524 13.5012 10.6505 13.8006C10.9874 14.0547 11.3978 14.2101 11.8187 14.2422C12.3308 14.2854 12.8567 14.1462 13.2782 13.8513C13.6286 13.6098 13.9091 13.2675 14.0741 12.8748C14.3114 12.3165 14.309 11.6613 14.0654 11.1054C13.8653 10.6422 13.5044 10.2498 13.0586 10.0134C12.6425 9.78895 12.1541 9.70585 11.6864 9.77125Z" fill="#4B4B4B"/>
</svg>
