<svg width="24" height="24" viewBox="0 0 24 24" fill="none" xmlns="http://www.w3.org/2000/svg">
<path d="M14.5414 1.68108C16.167 1.55984 17.8256 2.0016 19.1783 2.90987C20.3507 3.68903 21.2945 4.80828 21.8586 6.09825C22.1285 6.7123 22.3127 7.36325 22.409 8.02679C22.4279 8.13746 22.4306 8.25375 22.393 8.36104C22.3211 8.58709 22.1038 8.75737 21.8665 8.77086C21.6427 8.78998 21.4153 8.66919 21.3046 8.47395C21.2522 8.38803 21.2315 8.28839 21.2196 8.18987C21.0257 6.81172 20.3468 5.50938 19.3311 4.5586C18.7629 4.02305 18.0935 3.595 17.3685 3.30529C16.3847 2.90964 15.2985 2.77514 14.2479 2.91639C14.0893 2.94248 13.9208 2.90515 13.7915 2.80865C13.6165 2.68359 13.5209 2.45911 13.5508 2.24633C13.5803 1.9962 13.7838 1.77847 14.0326 1.73596C14.2011 1.70919 14.3714 1.6939 14.5414 1.68108Z" fill="#4B4B4B"/>
<path d="M14.6752 3.95215C15.5457 3.88444 16.4326 4.04482 17.2239 4.4137C17.972 4.7601 18.6349 5.2889 19.1385 5.94165C19.645 6.5953 19.9883 7.37333 20.1309 8.1878C20.1608 8.35627 20.1981 8.53689 20.1259 8.70064C20.0243 8.96898 19.7132 9.1325 19.4345 9.0621C19.1916 9.00969 18.9975 8.79196 18.9727 8.54476C18.8776 7.84456 18.589 7.17202 18.1463 6.62094C17.6681 6.0224 17.0127 5.56714 16.2837 5.33074C15.7214 5.14607 15.1172 5.09344 14.531 5.17284C14.242 5.21918 13.9422 5.01899 13.8715 4.7358C13.8009 4.49063 13.9095 4.20992 14.1253 4.07473C14.2868 3.96587 14.4894 3.97374 14.6752 3.95215Z" fill="#4B4B4B"/>
<path d="M14.8106 6.22332C15.5835 6.15067 16.3788 6.41384 16.9592 6.9287C17.4875 7.39004 17.8384 8.052 17.9135 8.75019C17.9378 9.05407 17.6929 9.3467 17.3899 9.37729C17.0824 9.4243 16.7677 9.19105 16.7241 8.88334C16.6782 8.51828 16.5118 8.16919 16.2511 7.90895C15.933 7.58482 15.4785 7.39971 15.0241 7.4123C14.9047 7.41163 14.7857 7.44604 14.6667 7.42625C14.4937 7.40106 14.3342 7.29579 14.244 7.14621C14.1406 6.97954 14.1264 6.76091 14.2101 6.58321C14.2794 6.43049 14.4154 6.3097 14.5758 6.26044C14.6521 6.23727 14.7317 6.23052 14.8106 6.22332Z" fill="#4B4B4B"/>
<path opacity="0.5" d="M2.77295 12.7859C8.93535 12.7874 15.0975 12.7865 21.2599 12.7863C21.2545 13.2863 21.2459 13.787 21.2068 14.2857C15.0799 14.2861 8.95289 14.2861 2.82603 14.2857C2.78689 13.7868 2.77834 13.2861 2.77295 12.7859Z" fill="#4B4B4B"/>
<path opacity="0.5" d="M11.2669 18.2839C11.7667 18.2839 12.2662 18.2839 12.766 18.2839C12.7658 19.4504 12.7654 20.6169 12.7663 21.7832C13.8574 21.7845 14.9487 21.7827 16.0401 21.7841C16.4333 21.7861 16.7772 22.1446 16.7651 22.5374C16.7725 22.9278 16.429 23.2807 16.0385 23.2821C13.4143 23.2843 10.79 23.2825 8.16578 23.2832C7.97482 23.2924 7.77261 23.2745 7.61066 23.1629C7.33602 22.9913 7.20173 22.6307 7.29823 22.3214C7.38235 22.0207 7.67206 21.7919 7.98494 21.7845C9.07877 21.7814 10.1728 21.7861 11.2669 21.7823C11.266 20.6162 11.2657 19.45 11.2669 18.2839Z" fill="#4B4B4B"/>
<path d="M8.59826 1.80911C9.51012 1.7891 10.4225 1.78977 11.3345 1.7891C11.5437 1.78707 11.7516 1.87682 11.8919 2.03224C12.0944 2.2457 12.1472 2.58265 12.0231 2.84896C11.909 3.10583 11.6407 3.286 11.3586 3.28825C10.6013 3.28983 9.84369 3.28848 9.08613 3.29995C8.10251 3.31592 7.11755 3.34471 6.13865 3.44795C5.60939 3.50756 5.07856 3.58246 4.56819 3.73901C4.33022 3.81616 4.08617 3.90501 3.89813 4.07573C3.71728 4.23318 3.55039 4.40773 3.41048 4.60274C3.1824 4.92484 3.05487 5.30587 2.97367 5.68915C2.86705 6.19952 2.82926 6.72113 2.80407 7.24117C2.76426 8.16315 2.77055 9.08627 2.76943 10.0092C2.77055 10.9345 2.76628 11.8601 2.77258 12.7857C2.77798 13.2859 2.78652 13.7866 2.82566 14.2855C2.86457 14.7318 2.91653 15.1852 3.08546 15.6036C3.21052 15.916 3.43612 16.1891 3.7283 16.3582C4.04546 16.5427 4.41074 16.6203 4.76995 16.6738C5.35005 16.7546 5.93666 16.7678 6.52148 16.7782C7.66188 16.7903 8.80227 16.7818 9.94289 16.7845C12.199 16.7843 14.455 16.7847 16.7113 16.7843C17.4774 16.7789 18.2455 16.7827 19.0087 16.7053C19.3855 16.663 19.7672 16.6041 20.1178 16.4529C20.3812 16.3405 20.6147 16.1563 20.7769 15.9194C20.9469 15.6731 21.0373 15.3825 21.0987 15.0926C21.1536 14.8265 21.1844 14.5561 21.2065 14.2855C21.2456 13.7868 21.2542 13.2862 21.2596 12.7861C21.2656 12.0403 21.2625 11.2946 21.2632 10.5488C21.2596 10.3551 21.3342 10.1614 21.4683 10.0215C21.6696 9.80222 22.0072 9.72664 22.2835 9.83731C22.563 9.9419 22.763 10.2267 22.7626 10.5258C22.7614 11.4782 22.7686 12.4307 22.7509 13.3831C22.7646 13.5561 22.7356 13.7277 22.7322 13.9004C22.7086 14.3984 22.6692 14.8973 22.5689 15.3865C22.4825 15.8074 22.3453 16.2219 22.1251 16.5931C21.8109 17.1275 21.3253 17.5569 20.7593 17.8088C20.3299 18.0032 19.8655 18.1062 19.4001 18.1687C18.9046 18.2339 18.4045 18.2569 17.9054 18.2704C17.2232 18.2872 16.5405 18.2834 15.8581 18.2839C14.8275 18.2839 13.7966 18.2841 12.7658 18.2839C12.266 18.2839 11.7664 18.2839 11.2666 18.2839C10.1199 18.2841 8.97344 18.2839 7.82675 18.2839C7.16703 18.2839 6.50686 18.285 5.84759 18.2618C5.37299 18.2436 4.89771 18.2141 4.42851 18.1386C3.99215 18.0679 3.55871 17.9537 3.16148 17.7562C2.60613 17.482 2.13873 17.033 1.84699 16.4865C1.63488 16.0949 1.50982 15.6619 1.43222 15.2248C1.34427 14.7295 1.31323 14.2264 1.29209 13.7243C1.26128 13.5369 1.29052 13.3476 1.2777 13.1591C1.26577 12.4314 1.27095 11.7038 1.26982 10.9759C1.27117 10.0771 1.26555 9.17826 1.27635 8.27944C1.29119 7.39254 1.30964 6.5007 1.45921 5.62415C1.54694 5.1221 1.68684 4.62456 1.92302 4.17088C2.17786 3.67288 2.55462 3.24552 2.98109 2.88743C3.32186 2.60154 3.73865 2.42497 4.16039 2.29541C4.72339 2.12582 5.30641 2.03427 5.88943 1.96679C6.78892 1.86647 7.69404 1.83003 8.59826 1.80911Z" fill="#4B4B4B"/>
</svg>
