<svg width="24" height="24" viewBox="0 0 24 24" fill="none" xmlns="http://www.w3.org/2000/svg">
<path d="M17.2451 2.86185C17.5139 2.70617 17.8629 2.70495 18.1334 2.85796C18.9247 3.30798 19.7165 3.75678 20.5074 4.20753C20.7764 4.3654 20.9506 4.6702 20.9493 4.98229C20.9523 5.86579 20.954 6.74929 20.9569 7.63278C20.9596 7.95461 20.7752 8.26792 20.4935 8.42287C19.7087 8.86949 18.9247 9.31756 18.1398 9.76344C17.8729 9.91013 17.5319 9.90623 17.2677 9.75566C16.5311 9.33775 15.7953 8.91911 15.0587 8.50096C13.2219 9.36743 11.3853 10.2346 9.54851 11.1011C9.54778 11.6968 9.54851 12.2928 9.54802 12.8885C11.381 13.755 13.2153 14.618 15.048 15.4852C15.7264 15.1009 16.4029 14.7134 17.0809 14.3278C17.1882 14.268 17.2918 14.1987 17.4098 14.1612C17.6494 14.0812 17.9216 14.1091 18.1407 14.2344C18.9216 14.6781 19.7027 15.122 20.4838 15.5657C20.6842 15.6771 20.8387 15.8669 20.9073 16.0858C20.9622 16.2466 20.9476 16.4183 20.9503 16.5852C20.9525 17.3882 20.954 18.1912 20.9569 18.9942C20.9593 19.2216 20.8737 19.449 20.719 19.6162C20.6377 19.7081 20.5336 19.7752 20.4266 19.8334C19.719 20.236 19.0118 20.6395 18.3044 21.0426C18.1719 21.1197 18.0371 21.2014 17.8836 21.2272C17.6545 21.2737 17.4122 21.2219 17.2152 21.0988C16.4491 20.6626 15.6824 20.2279 14.9164 19.7923C14.6002 19.62 14.4219 19.2525 14.4533 18.8976C14.4513 18.207 14.4503 17.5164 14.4474 16.8258C12.5997 15.954 10.7521 15.0814 8.90413 14.2101C8.22934 14.5944 7.55431 14.978 6.87953 15.3621C6.78466 15.4154 6.69198 15.4748 6.58786 15.5093C6.34534 15.5925 6.06852 15.566 5.84643 15.438C5.0612 14.9907 4.27525 14.5446 3.49027 14.097C3.22075 13.9413 3.04536 13.6382 3.04463 13.3271C3.04341 12.4426 3.04414 11.5581 3.04439 10.6739C3.04293 10.426 3.14826 10.1799 3.32997 10.011C3.42265 9.9201 3.54038 9.86221 3.65204 9.79823C4.37523 9.3864 5.09891 8.97555 5.8221 8.56323C6.10987 8.38468 6.49494 8.38784 6.78101 8.56907C7.48936 8.97287 8.19845 9.3757 8.90729 9.77901C10.7558 8.90695 12.6038 8.03391 14.4525 7.16257C14.4506 6.43573 14.4486 5.70889 14.4467 4.98205C14.444 4.66241 14.6257 4.35008 14.9052 4.19512C15.6851 3.7507 16.465 3.30603 17.2451 2.86185ZM17.5973 4.38145C17.0979 4.65779 16.6048 4.94653 16.1074 5.22676C16.0166 5.27152 15.95 5.36493 15.9551 5.4688C15.9549 6.02026 15.9575 6.57171 15.9587 7.12317C15.9512 7.22606 16.0033 7.32872 16.095 7.37761C16.555 7.63984 17.0162 7.90036 17.4759 8.16283C17.5496 8.2037 17.6238 8.25746 17.7121 8.25454C17.7997 8.25333 17.8722 8.19786 17.9461 8.15748C18.3996 7.89817 18.854 7.64032 19.3074 7.38126C19.4025 7.3331 19.457 7.22825 19.449 7.12292C19.4453 6.5632 19.4487 6.00323 19.4419 5.44374C19.4395 5.3119 19.3191 5.23576 19.214 5.18371C18.7535 4.92318 18.294 4.66071 17.8337 4.39994C17.763 4.35835 17.673 4.34618 17.5973 4.38145ZM6.21812 10.0597C6.1359 10.0918 6.06292 10.1431 5.98581 10.185C5.55647 10.4292 5.12713 10.6734 4.69754 10.9174C4.60802 10.9626 4.54697 11.0578 4.55159 11.1594C4.55061 11.7114 4.55159 12.2636 4.55134 12.8155C4.54453 12.9167 4.59805 13.0174 4.68878 13.0646C5.17505 13.3419 5.66204 13.618 6.1483 13.8956C6.2096 13.9316 6.28331 13.9527 6.3541 13.9337C6.42415 13.914 6.48448 13.8715 6.54748 13.8367C7.00115 13.5776 7.45628 13.3207 7.90946 13.0612C7.99801 13.0133 8.04763 12.914 8.04203 12.8148C8.04179 12.2636 8.04252 11.7124 8.04155 11.1611C8.0452 11.0634 7.99119 10.9695 7.90533 10.9237C7.43001 10.652 6.95347 10.3832 6.47864 10.111C6.40202 10.0628 6.30788 10.0256 6.21812 10.0597ZM17.6231 15.744C17.4757 15.8085 17.3424 15.9009 17.2006 15.9763C16.8289 16.189 16.4562 16.3999 16.0848 16.6129C15.9989 16.6599 15.9493 16.7565 15.9546 16.8535C15.9558 17.405 15.9568 17.9567 15.959 18.5084C15.9532 18.6103 16.012 18.7078 16.1023 18.7543C16.5888 19.0309 17.0755 19.307 17.5618 19.5838C17.6263 19.6222 17.7058 19.6397 17.7788 19.6164C17.8413 19.5943 17.897 19.557 17.9546 19.5247C18.4086 19.2651 18.8637 19.0075 19.3174 18.7475C19.4027 18.7003 19.4538 18.6045 19.4485 18.5074C19.4465 17.9474 19.4472 17.3875 19.4429 16.8277C19.4458 16.6864 19.3169 16.6054 19.2052 16.5512C18.7498 16.2931 18.295 16.0342 17.8403 15.7757C17.7756 15.737 17.6958 15.7195 17.6231 15.744Z" fill="#4B4B4B"/>
<path opacity="0.5" d="M17.6 4.38594C17.6757 4.35067 17.7657 4.36283 17.8365 4.40443C18.2967 4.6652 18.7562 4.92767 19.2167 5.18819C19.3218 5.24025 19.4422 5.31639 19.4446 5.44823C19.4514 6.00771 19.448 6.56768 19.4517 7.12741C19.4597 7.23274 19.4052 7.33758 19.3101 7.38575C18.8567 7.64481 18.4023 7.90266 17.9489 8.16197C17.8749 8.20235 17.8024 8.25781 17.7149 8.25903C17.6266 8.26195 17.5524 8.20819 17.4787 8.16732C17.0189 7.90485 16.5577 7.64432 16.0977 7.3821C16.006 7.3332 15.9539 7.23055 15.9615 7.12765C15.9603 6.5762 15.9576 6.02474 15.9578 5.47329C15.9527 5.36942 16.0194 5.27601 16.1101 5.23125C16.6076 4.95102 17.1006 4.66228 17.6 4.38594Z" fill="#4B4B4B"/>
<path opacity="0.5" d="M6.21716 10.0595C6.30692 10.0255 6.40106 10.0627 6.47769 10.1109C6.95252 10.3831 7.42905 10.6519 7.90437 10.9236C7.99024 10.9693 8.04424 11.0632 8.04059 11.161C8.04157 11.7122 8.04084 12.2634 8.04108 12.8146C8.04667 12.9139 7.99705 13.0131 7.90851 13.061C7.45532 13.3206 7.0002 13.5775 6.54653 13.8365C6.48352 13.8713 6.4232 13.9139 6.35314 13.9336C6.28235 13.9526 6.20865 13.9314 6.14735 13.8954C5.66108 13.6178 5.17409 13.3418 4.68783 13.0644C4.59709 13.0172 4.54358 12.9165 4.55039 12.8153C4.55063 12.2634 4.54966 11.7112 4.55063 11.1593C4.54601 11.0576 4.60707 10.9625 4.69658 10.9172C5.12617 10.6733 5.55551 10.429 5.98485 10.1848C6.06197 10.143 6.13494 10.0916 6.21716 10.0595Z" fill="#4B4B4B"/>
<path opacity="0.5" d="M17.6269 15.7399C17.6996 15.7153 17.7794 15.7328 17.8441 15.7715C18.2988 16.0301 18.7537 16.2889 19.209 16.547C19.3207 16.6013 19.4496 16.6823 19.4467 16.8236C19.4511 17.3833 19.4503 17.9433 19.4523 18.5033C19.4576 18.6003 19.4065 18.6962 19.3212 18.7434C18.8675 19.0034 18.4124 19.261 17.9585 19.5206C17.9008 19.5529 17.8451 19.5901 17.7826 19.6123C17.7096 19.6356 17.6301 19.6181 17.5656 19.5797C17.0793 19.3028 16.5926 19.0267 16.1061 18.7502C16.0158 18.7037 15.957 18.6062 15.9628 18.5042C15.9606 17.9525 15.9596 17.4008 15.9584 16.8494C15.9531 16.7523 16.0027 16.6558 16.0886 16.6088C16.46 16.3957 16.8327 16.1848 17.2044 15.9722C17.3462 15.8968 17.4795 15.8044 17.6269 15.7399Z" fill="#4B4B4B"/>
</svg>
