<svg width="24" height="24" viewBox="0 0 24 24" fill="none" xmlns="http://www.w3.org/2000/svg">
<path opacity="0.5" d="M17.6171 1.9506C17.9114 1.75271 18.3152 1.73111 18.6235 1.91024C19.5035 2.41795 20.3832 2.92588 21.2629 3.43402C21.5435 3.59504 21.7298 3.90813 21.7342 4.23191C21.7348 5.25737 21.7339 6.28282 21.7346 7.30828C21.7313 7.63228 21.5472 7.94777 21.267 8.11031C20.451 8.58137 19.635 9.05264 18.819 9.52369C18.6866 9.59766 18.5596 9.68689 18.4104 9.72464C18.1686 9.79228 17.9007 9.75977 17.683 9.63431C16.8949 9.17918 16.1066 8.72406 15.3183 8.26893C15.2803 8.24864 15.2456 8.22049 15.2031 8.21089C15.1582 8.17249 15.103 8.15046 15.0532 8.11969C14.7862 7.96937 14.6031 7.6818 14.5758 7.37722C14.5717 7.18522 14.5706 6.99344 14.5717 6.80144C14.5804 5.96057 14.573 5.11904 14.5754 4.27795C14.5693 3.99846 14.6917 3.71853 14.9046 3.53657C14.9871 3.46304 15.0859 3.4122 15.1811 3.357C15.9929 2.88791 16.805 2.41948 17.6171 1.9506ZM18.0724 3.60988C17.9786 3.64871 17.8955 3.70893 17.806 3.75649C17.3267 4.03358 16.8471 4.3098 16.368 4.58711C16.279 4.63795 16.2257 4.7418 16.2344 4.84369C16.2344 5.46966 16.2344 6.0954 16.2342 6.72115C16.2314 6.82086 16.2892 6.91795 16.3769 6.96486C16.9217 7.27969 17.4667 7.59409 18.0118 7.90893C18.0966 7.96238 18.2107 7.96304 18.2963 7.91024C18.8352 7.59955 19.3739 7.28777 19.913 6.97729C20.0467 6.92013 20.095 6.76718 20.0762 6.63213C20.0762 6.02886 20.076 5.42537 20.0762 4.82209C20.0782 4.72566 20.023 4.63271 19.9398 4.58493C19.3907 4.26835 18.8419 3.95133 18.293 3.63453C18.2275 3.59504 18.1448 3.58675 18.0724 3.60988Z" fill="#4B4B4B"/>
<path opacity="0.5" d="M17.6663 14.3725C17.8826 14.2436 18.1516 14.2074 18.3944 14.2737C18.5696 14.3167 18.7162 14.4264 18.8725 14.5113C19.6738 14.9745 20.4763 15.4362 21.277 15.9002C21.5478 16.0645 21.7241 16.3728 21.7285 16.6896C21.7285 17.6354 21.7282 18.5815 21.7285 19.5273C21.7256 19.6866 21.7424 19.8498 21.6929 20.0042C21.6255 20.2357 21.4706 20.4426 21.2611 20.5641C20.4866 21.0109 19.7122 21.4584 18.9377 21.9055C18.807 21.9786 18.6807 22.0591 18.5469 22.1265C18.2744 22.2522 17.9421 22.241 17.6816 22.0907C16.9073 21.6443 16.1334 21.1968 15.3595 20.7502C15.1775 20.6365 14.9705 20.5536 14.8239 20.3919C14.6622 20.218 14.5679 19.9822 14.5695 19.7446C14.5684 18.8985 14.5717 18.0526 14.5679 17.2067C14.5773 17.0206 14.5651 16.834 14.5723 16.6479C14.5904 16.3501 14.7602 16.0678 15.0122 15.9087C15.0735 15.8697 15.1402 15.8398 15.1998 15.7975C16.0208 15.3207 16.8445 14.8477 17.6663 14.3725ZM18.053 16.0687C17.4907 16.3831 16.9363 16.7123 16.3769 17.0319C16.2859 17.0782 16.2242 17.1772 16.2283 17.28C16.2283 17.9125 16.2285 18.5448 16.2283 19.1771C16.2259 19.2735 16.2805 19.3678 16.3645 19.4151C16.9141 19.7326 17.4639 20.0498 18.0135 20.3673C18.0977 20.4166 18.2077 20.4153 18.2906 20.3638C18.8393 20.047 19.388 19.7306 19.9365 19.4134C20.0183 19.3665 20.0709 19.2738 20.0703 19.1795C20.0705 18.5461 20.0696 17.913 20.0705 17.2796C20.0727 17.1786 20.014 17.0806 19.9248 17.0339C19.3808 16.7199 18.8369 16.4062 18.2932 16.0918C18.2221 16.0484 18.1306 16.0377 18.053 16.0687Z" fill="#4B4B4B"/>
<path d="M8.74833 9.54665C10.6906 8.634 12.6291 7.71327 14.5718 6.80127C14.5707 6.99327 14.5718 7.18505 14.5759 7.37705C14.6032 7.68163 14.7863 7.9692 15.0533 8.11953C15.1031 8.15029 15.1583 8.17233 15.2032 8.21073C13.2773 9.11771 11.353 10.0278 9.42753 10.9352C9.4212 11.6456 9.426 12.3569 9.42513 13.0675C10.0037 13.3496 10.5902 13.6186 11.1719 13.8957C12.5143 14.5297 13.8577 15.1622 15.1997 15.7971C15.1402 15.8395 15.0734 15.8694 15.0121 15.9084C14.7601 16.0675 14.5903 16.3498 14.5722 16.6476C14.565 16.8337 14.5773 17.0203 14.5679 17.2064C12.6285 16.2918 10.6897 15.3761 8.75051 14.4614C7.96899 14.9111 7.18899 15.363 6.4079 15.8133C6.11051 16.019 5.69902 16.0535 5.38244 15.8707C4.58477 15.411 3.78753 14.9499 2.99008 14.4898C2.81968 14.3868 2.62986 14.3041 2.50026 14.1473C2.3508 13.9769 2.2655 13.7517 2.26528 13.525C2.26462 12.5227 2.26528 11.5203 2.26506 10.5178C2.25677 10.242 2.37371 9.96491 2.57968 9.78076C2.66913 9.69698 2.77931 9.642 2.88404 9.58069C3.714 9.10134 4.54397 8.62243 5.37393 8.14331C5.60717 8.00869 5.89866 7.98163 6.15284 8.06956C6.2676 8.10622 6.36775 8.17429 6.47182 8.23276C7.23066 8.67043 7.98906 9.10942 8.74833 9.54665ZM5.74375 9.84796C5.18368 10.1641 4.62906 10.4907 4.07095 10.8106C3.98586 10.8545 3.92608 10.9459 3.92477 11.0421C3.92455 11.6816 3.92477 12.3211 3.92455 12.9606C3.9239 13.0566 3.98062 13.1489 4.06419 13.1951C4.61313 13.5113 5.16142 13.8283 5.70993 14.1449C5.79262 14.1933 5.90106 14.1926 5.9831 14.1433C6.5364 13.8237 7.09015 13.5051 7.6428 13.1844C7.7412 13.1253 7.7783 13.0033 7.76651 12.894C7.7663 12.2829 7.76651 11.672 7.76651 11.0611C7.77066 10.9603 7.71306 10.8614 7.6247 10.8134C7.07968 10.499 6.5351 10.1846 5.9903 9.87C5.91742 9.82462 5.82317 9.8148 5.74375 9.84796Z" fill="#4B4B4B"/>
</svg>
