<svg width="24" height="24" viewBox="0 0 24 24" fill="none" xmlns="http://www.w3.org/2000/svg">
<path d="M4.41688 5.52055C5.06599 5.44661 5.72005 5.4353 6.37247 5.42813C7.70543 5.42261 9.03812 5.42537 10.3711 5.42648C11.1628 5.43365 11.9576 5.43696 12.7435 5.54206C13.37 5.62758 14.0012 5.80055 14.5258 6.16524C14.949 6.45792 15.2936 6.86261 15.5162 7.32661C15.7548 7.81848 15.8654 8.36082 15.9267 8.90068C16.0028 9.59061 16.0105 10.2855 16.0166 10.9788C16.0194 11.7509 16.0207 12.5233 16.0138 13.2957C16.0053 13.8954 15.9943 14.4965 15.9239 15.093C15.8652 15.6339 15.7498 16.1768 15.5096 16.6684C15.2963 17.1073 14.9741 17.4927 14.5785 17.7788C14.2293 18.0334 13.8246 18.203 13.4075 18.3106C12.8936 18.4433 12.3628 18.4924 11.8343 18.5211C11.1821 18.5548 10.5286 18.555 9.87564 18.5564C8.9195 18.5564 7.96364 18.5561 7.0075 18.5564C6.3504 18.5542 5.69302 18.5531 5.03674 18.5145C4.52116 18.4822 4.00336 18.4276 3.50433 18.2888C3.1104 18.1796 2.72971 18.0113 2.39978 17.768C2.00585 17.4792 1.68585 17.0916 1.47509 16.651C1.24116 16.1674 1.13109 15.635 1.06902 15.1048C1.00199 14.5136 0.98764 13.9183 0.979365 13.3241C0.972192 12.6808 0.975503 12.0375 0.974675 11.3942C0.977709 10.7219 0.979089 10.0488 1.02378 9.37765C1.05992 8.85875 1.12254 8.33765 1.27647 7.83917C1.39316 7.4593 1.56916 7.09517 1.81523 6.78151C2.09936 6.41655 2.47012 6.12055 2.88778 5.92192C3.3664 5.69186 3.89247 5.58261 4.41688 5.52055ZM5.25716 7.11227C4.78019 7.14041 4.29688 7.17517 3.83867 7.32055C3.58323 7.4022 3.33992 7.53986 3.16447 7.7462C2.95399 7.98648 2.85109 8.29848 2.78626 8.60606C2.67647 9.15034 2.65771 9.70786 2.64199 10.2615C2.62378 11.2088 2.62957 12.1567 2.63288 13.104C2.64226 13.7997 2.64392 14.499 2.7515 15.1881C2.81716 15.5821 2.9264 15.9959 3.21385 16.2896C3.45164 16.5388 3.78571 16.6643 4.11564 16.7363C4.60364 16.8408 5.10405 16.8651 5.60143 16.8833C6.37357 16.9062 7.14626 16.8999 7.91867 16.9012C8.79067 16.9001 9.6624 16.9034 10.5344 16.8985C11.2271 16.8896 11.9234 16.888 12.61 16.7862C13.0166 16.7211 13.4461 16.6149 13.7504 16.3186C14.0486 16.0342 14.167 15.6212 14.2354 15.2273C14.3482 14.5363 14.3501 13.8336 14.3601 13.1354C14.3642 12.2513 14.3672 11.3672 14.3556 10.4833C14.3424 9.87586 14.33 9.26482 14.2191 8.66592C14.1496 8.30592 14.0296 7.93517 13.7606 7.6731C13.4938 7.40579 13.1201 7.2891 12.7581 7.22096C12.1532 7.11172 11.5363 7.09986 10.9234 7.08744C9.83923 7.07448 8.75481 7.08275 7.6704 7.08055C6.86598 7.0822 6.06074 7.07392 5.25716 7.11227Z" fill="#4B4B4B"/>
<path opacity="0.5" d="M20.8865 6.94136C21.3009 6.85833 21.7538 6.89557 22.1185 7.12288C22.4774 7.33364 22.7235 7.70054 22.8311 8.09805C22.9726 8.61336 22.9618 9.1535 22.9698 9.68343C22.9693 11.2826 22.9718 12.8821 22.9684 14.4815C22.958 14.9988 22.9596 15.5304 22.7853 16.0244C22.6603 16.385 22.4071 16.7025 22.0705 16.8865C21.7119 17.0915 21.2777 17.1185 20.8791 17.0388C20.4319 16.9502 20.0093 16.7737 19.5883 16.604C18.4324 16.1237 17.2774 15.6415 16.1218 15.1601C16.057 15.1348 15.9946 15.0975 15.9238 15.0928C15.9941 14.4964 16.0051 13.8953 16.0137 13.2956C16.0206 12.5232 16.0192 11.7508 16.0164 10.9786C16.0104 10.2854 16.0026 9.59047 15.9265 8.90054C17.0796 8.4244 18.2302 7.94136 19.3822 7.46247C19.8738 7.2633 20.3638 7.04509 20.8865 6.94136ZM20.3756 8.84426C19.3262 9.27626 18.2802 9.71571 17.2327 10.1519C17.2308 11.3767 17.2333 12.6015 17.2313 13.8264C18.2744 14.2666 19.3204 14.7006 20.3668 15.1334C20.6529 15.2448 20.9381 15.369 21.2421 15.4222C21.3213 15.0595 21.3066 14.6851 21.3141 14.3163C21.3155 12.7811 21.3149 11.2457 21.3144 9.71047C21.308 9.32757 21.321 8.94054 21.2454 8.56343C20.942 8.60509 20.6598 8.7364 20.3756 8.84426Z" fill="#4B4B4B"/>
<path opacity="0.5" d="M11.2392 8.48802C11.5314 8.41658 11.8497 8.45713 12.1134 8.60278C12.4428 8.77989 12.6811 9.11644 12.736 9.48692C12.789 9.81547 12.6994 10.1639 12.4936 10.426C12.2679 10.72 11.9021 10.9004 11.5308 10.8982C11.1653 10.9021 10.8039 10.7289 10.5766 10.4431C10.3443 10.1589 10.2536 9.76747 10.3349 9.40996C10.4296 8.96389 10.7954 8.5912 11.2392 8.48802Z" fill="#4B4B4B"/>
</svg>
