<svg width="24" height="24" viewBox="0 0 24 24" fill="none" xmlns="http://www.w3.org/2000/svg">
<path d="M8.83029 1.27389C10.3165 1.23789 11.8027 1.25439 13.2892 1.25049C14.7412 1.26309 16.2001 1.25589 17.6425 1.44759C18.6949 1.59129 19.7656 1.88349 20.6191 2.54289C21.3844 3.12099 21.9331 3.95589 22.222 4.86579C22.6063 6.06369 22.6711 7.33269 22.7185 8.58069C22.7656 10.2697 22.7455 11.9596 22.747 13.6489C22.7353 14.9365 22.7281 16.2286 22.57 17.5084C22.4446 18.4873 22.2088 19.4794 21.6685 20.3185C21.1624 21.1111 20.3986 21.7285 19.5271 22.078C18.4423 22.516 17.2615 22.6243 16.1038 22.6906C14.3968 22.7728 12.6871 22.7434 10.9786 22.7494C9.53857 22.7413 8.09379 22.7491 6.66039 22.5913C5.61638 22.4698 4.55169 22.2364 3.65949 21.655C2.84949 21.1321 2.22759 20.3383 1.88619 19.4389C1.64769 18.8263 1.51629 18.1777 1.43139 17.5276C1.33149 16.7488 1.29519 15.9634 1.27359 15.1789C1.24899 14.209 1.24959 13.2388 1.25019 12.2686C1.25169 10.8988 1.23999 9.52809 1.29639 8.15919C1.33329 7.35069 1.39239 6.54009 1.54959 5.74479C1.67949 5.09259 1.88169 4.44759 2.21619 3.86979C2.63379 3.14229 3.25989 2.53689 4.00089 2.14389C4.65399 1.79319 5.37969 1.60209 6.10809 1.48479C7.00809 1.34169 7.92068 1.29969 8.83029 1.27389ZM8.86028 2.77389C7.83787 2.80599 6.80709 2.84499 5.80569 3.07119C5.32509 3.18369 4.84989 3.35109 4.43859 3.62919C4.03449 3.89979 3.69969 4.27179 3.47048 4.70019C3.24519 5.11869 3.11198 5.58009 3.01959 6.04419C2.88519 6.73119 2.83328 7.43109 2.79909 8.12949C2.75739 9.04869 2.75379 9.96909 2.75019 10.8892C2.75199 12.0292 2.74539 13.1695 2.75798 14.3095C2.76878 15.1105 2.78649 15.9124 2.85309 16.711C2.90019 17.2549 2.96859 17.7988 3.10389 18.3286C3.21699 18.7687 3.38169 19.2016 3.64029 19.5784C3.92229 19.993 4.31199 20.3329 4.75899 20.56C5.26867 20.8207 5.83239 20.953 6.39459 21.0421C7.12749 21.1543 7.86909 21.1942 8.60949 21.2191C10.129 21.2638 11.6494 21.2452 13.1695 21.2494C14.4991 21.2392 15.8332 21.247 17.1571 21.1021C17.7742 21.0295 18.3949 20.9209 18.9727 20.6839C19.4284 20.4973 19.8454 20.2096 20.1643 19.8325C20.5036 19.4398 20.7205 18.9568 20.8597 18.4606C21.0274 17.86 21.1027 17.2387 21.1537 16.6189C21.256 15.2518 21.2449 13.8799 21.2488 12.5101C21.2443 10.9597 21.2671 9.40809 21.1861 7.85919C21.1468 7.19469 21.0877 6.52869 20.9446 5.87769C20.8366 5.39289 20.6764 4.91259 20.4058 4.49289C20.128 4.05789 19.7338 3.69909 19.2769 3.45909C18.8059 3.21069 18.2845 3.07569 17.7625 2.98419C17.0881 2.86869 16.4038 2.82249 15.721 2.79309C14.8114 2.75679 13.9009 2.75289 12.9907 2.75079C11.614 2.75379 10.237 2.74029 8.86028 2.77389Z" fill="#4B4B4B"/>
<path opacity="0.5" d="M10.2652 6.42541C10.5439 6.17971 11.0053 6.19351 11.2669 6.45811C11.587 6.74551 11.5675 7.30321 11.233 7.57201C10.8007 7.96381 10.3693 8.35651 9.93763 8.74921C11.9644 8.74981 13.9912 8.74891 16.018 8.74981C16.4053 8.74921 16.7491 9.09421 16.7479 9.48151C16.768 9.88021 16.4191 10.2471 16.0204 10.2483C13.9933 10.251 11.9662 10.2483 9.93913 10.2498C10.3786 10.6497 10.8187 11.049 11.2582 11.4492C11.4559 11.6286 11.542 11.9181 11.4769 12.177C11.4121 12.4557 11.1733 12.684 10.8913 12.735C10.6621 12.7812 10.4134 12.7119 10.2421 12.5523C9.32113 11.7141 8.39863 10.878 7.47883 10.0389C7.17163 9.76171 7.17463 9.22981 7.48243 8.95441C8.41003 8.11111 9.33643 7.26691 10.2652 6.42541Z" fill="#4B4B4B"/>
<path opacity="0.5" d="M13.0921 11.2668C13.3249 11.2155 13.5805 11.2833 13.7554 11.4462C14.6716 12.2796 15.5887 13.1121 16.5046 13.9458C16.831 14.2248 16.828 14.7825 16.5004 15.0594C15.5836 15.8922 14.6674 16.7256 13.7506 17.5587C13.5502 17.7426 13.246 17.8005 12.9916 17.7045C12.7141 17.6058 12.5107 17.3307 12.5008 17.0358C12.4888 16.8132 12.5833 16.5885 12.7504 16.4406C13.1884 16.0443 13.6237 15.6447 14.0629 15.2496C12.0448 15.2502 10.0267 15.249 8.00828 15.2499C7.77398 15.255 7.54208 15.1404 7.40168 14.9529C7.25948 14.7684 7.21388 14.5155 7.27928 14.2923C7.36568 13.9746 7.68098 13.7409 8.01008 13.7499C10.0264 13.7493 12.0427 13.7502 14.059 13.7493C13.6195 13.3491 13.1791 12.9498 12.7396 12.5496C12.5491 12.3762 12.4615 12.1008 12.5152 11.8491C12.5701 11.5638 12.8071 11.3247 13.0921 11.2668Z" fill="#4B4B4B"/>
</svg>
