<svg width="24" height="24" viewBox="0 0 24 24" fill="none" xmlns="http://www.w3.org/2000/svg">
<path opacity="0.5" fill-rule="evenodd" clip-rule="evenodd" d="M17.2549 8.9486C17.2459 9.09423 17.281 9.24219 17.3511 9.37052C17.5171 9.75132 17.597 10.1634 17.6597 10.5724C17.7475 11.1905 17.7675 11.8167 17.7454 12.4399C17.7171 13.1073 17.6431 13.7808 17.4321 14.4175C17.4128 14.484 17.384 14.5474 17.3553 14.6107C17.3083 14.7142 17.2614 14.8175 17.2562 14.9333C17.2236 15.2621 17.4368 15.5939 17.7493 15.7008C18.068 15.8224 18.4582 15.6893 18.6359 15.398C18.752 15.1985 18.8274 14.9781 18.898 14.7592C19.1272 14.0084 19.2178 13.2225 19.2459 12.4404C19.2725 11.5616 19.2277 10.6758 19.0478 9.8134C18.9612 9.41798 18.8534 9.02278 18.6728 8.65884C18.5442 8.39354 18.2471 8.22926 17.956 8.24755L17.2549 8.9486ZM19.5476 6.65591C19.7773 7.01688 19.9494 7.41353 20.0989 7.81355C20.3888 8.60801 20.5618 9.44159 20.6587 10.2806C20.7429 11.0186 20.7674 11.7627 20.7451 12.505C20.7201 13.2976 20.6369 14.0896 20.472 14.8658C20.288 15.7129 20.019 16.5532 19.5714 17.3002C19.5381 17.361 19.4967 17.4171 19.4554 17.4731C19.3882 17.5642 19.3211 17.6552 19.2889 17.7656C19.212 17.9995 19.2617 18.2695 19.4162 18.4611C19.5905 18.6851 19.898 18.7926 20.174 18.7245C20.3492 18.6844 20.5065 18.5778 20.6122 18.433C20.8544 18.1122 21.047 17.7568 21.2175 17.394C21.5636 16.6486 21.8011 15.8564 21.9647 15.0523C22.1856 13.9569 22.2668 12.8363 22.2503 11.7199C22.2272 10.2932 22.0398 8.85835 21.5796 7.50338C21.3441 6.82634 21.051 6.15987 20.6266 5.5782C20.6267 5.57845 20.6264 5.57795 20.6266 5.5782L19.5476 6.65591Z" fill="#4B4B4B"/>
<path fill-rule="evenodd" clip-rule="evenodd" d="M15.8936 5.90338C15.8238 5.48129 15.7252 5.06163 15.5529 4.669C15.3988 4.31676 15.1757 3.99061 14.8817 3.74049C14.6109 3.51241 14.2949 3.33989 13.9615 3.2218C13.5805 3.08504 13.1648 3.0585 12.7663 3.12238C12.0289 3.24294 11.36 3.60171 10.7198 3.96992C10.0145 4.3845 9.33181 4.8351 8.64913 5.28568C8.36215 5.47509 8.07518 5.6645 7.78653 5.85123C7.51459 6.03612 7.20554 6.1668 6.88007 6.21764C6.69059 6.24607 6.49881 6.24629 6.30737 6.2465C6.25951 6.24656 6.21167 6.24661 6.16389 6.2471C6.01567 6.24813 5.86732 6.24788 5.71892 6.24763C5.18589 6.24673 4.65228 6.24582 4.12198 6.30424C3.6602 6.35575 3.20089 6.47766 2.79647 6.71091C2.22042 7.04043 1.72535 7.51458 1.37739 8.08006C1.18867 8.38866 1.05911 8.73123 0.979711 9.08347C0.885916 9.49869 0.851501 9.92426 0.822036 10.3481C0.819862 10.3821 0.817679 10.4161 0.815495 10.4501C0.783106 10.9549 0.75069 11.46 0.750058 11.966C0.748374 12.5077 0.78354 13.0486 0.818666 13.5889C0.821068 13.6259 0.82347 13.6628 0.825859 13.6997C0.863648 14.2229 0.910208 14.7522 1.07508 15.2533C1.18912 15.6042 1.36727 15.9333 1.59197 16.2257C1.98267 16.7316 2.48832 17.1562 3.07313 17.4194C3.40214 17.5655 3.75461 17.6432 4.11115 17.6859L5.55271 16.2444C5.52423 16.2441 5.49576 16.2437 5.46728 16.2432C5.39118 16.242 5.31497 16.2412 5.2387 16.2404C4.83981 16.2362 4.43954 16.232 4.0464 16.1614C3.63411 16.088 3.27512 15.8422 2.98631 15.5484C2.73731 15.2979 2.53847 14.9895 2.4566 14.6429C2.37245 14.2894 2.34707 13.926 2.32178 13.564C2.31706 13.4964 2.31234 13.4289 2.30725 13.3614C2.26339 12.7247 2.23167 12.0861 2.26114 11.448C2.2843 10.9448 2.31467 10.4419 2.36168 9.94023C2.39294 9.65119 2.43006 9.35743 2.54297 9.08707C2.66376 8.79646 2.86687 8.54746 3.0972 8.3358C3.27782 8.1725 3.47936 8.02855 3.70429 7.93273C3.9688 7.82071 4.25829 7.79057 4.54215 7.7719C4.92214 7.74983 5.30271 7.74871 5.68316 7.7476C5.77564 7.74733 5.86811 7.74706 5.96056 7.74649C6.02956 7.74611 6.09864 7.74624 6.16774 7.74637C6.4676 7.74695 6.76799 7.74754 7.06541 7.70622C7.47096 7.64594 7.86773 7.52043 8.231 7.32947C8.49054 7.18861 8.7365 7.02506 8.98232 6.8616C9.07564 6.79955 9.16895 6.7375 9.26297 6.67672C9.40622 6.58305 9.54921 6.48892 9.69222 6.39477C10.3439 5.96574 10.9958 5.53653 11.6742 5.15102C12.091 4.92384 12.5184 4.69127 12.9901 4.60512C13.3079 4.53854 13.6266 4.669 13.8781 4.85681C14.0956 5.02821 14.2033 5.2961 14.2823 5.55342C14.4247 6.04444 14.4768 6.55593 14.5234 7.06337C14.5288 7.12827 14.5339 7.19319 14.5389 7.25811L15.8936 5.90338ZM9.03706 17.1661C9.06427 17.1841 9.09151 17.202 9.11879 17.2199C9.20353 17.2756 9.28823 17.3314 9.37293 17.3873C9.77207 17.6502 10.1712 17.9132 10.5736 18.1709C10.6006 18.188 10.6277 18.205 10.6547 18.2221C11.2185 18.5786 11.7853 18.9369 12.3987 19.2031C12.7116 19.3302 13.0564 19.4568 13.3976 19.3756C13.6615 19.2942 13.9271 19.1536 14.0769 18.9127C14.2112 18.7008 14.283 18.4572 14.3412 18.2154C14.4377 17.7955 14.4843 17.3661 14.5227 16.9378C14.5748 16.328 14.6044 15.7167 14.6339 15.1055C14.6358 15.0675 14.6376 15.0295 14.6395 14.9915C14.6461 14.8432 14.653 14.6949 14.6598 14.5466C14.6984 13.709 14.737 12.8711 14.7454 12.0328C14.7448 11.8436 14.742 11.6545 14.7377 11.4655L16.1867 10.0165C16.1978 10.2766 16.2082 10.5367 16.2176 10.7968C16.2367 11.3515 16.2545 11.9068 16.2394 12.462C16.2147 13.4599 16.1664 14.457 16.1181 15.4541C16.1145 15.5282 16.1109 15.6022 16.1074 15.6762C16.1058 15.7045 16.1043 15.7329 16.1027 15.7612C16.0594 16.5518 16.0159 17.3444 15.8874 18.1266C15.7823 18.7406 15.613 19.3655 15.2358 19.8723C15.0448 20.1296 14.7989 20.3437 14.5232 20.5059C14.17 20.7155 13.7748 20.8669 13.3625 20.8955C12.9273 20.9288 12.4921 20.8368 12.0843 20.6899C11.5255 20.4868 11.0057 20.1932 10.4967 19.8896C9.8997 19.5295 9.31744 19.1461 8.73522 18.7626C8.64708 18.7046 8.55895 18.6465 8.47077 18.5886C8.38527 18.5329 8.30021 18.4765 8.21514 18.4201C8.12848 18.3627 8.04181 18.3052 7.95467 18.2485L9.03706 17.1661Z" fill="#4B4B4B"/>
<path fill-rule="evenodd" clip-rule="evenodd" d="M21.4394 2.56078C21.8004 2.92178 21.8004 3.50707 21.4394 3.86806L3.86806 21.4394C3.50707 21.8003 2.92178 21.8003 2.56078 21.4394C2.19979 21.0784 2.19979 20.4931 2.56078 20.1321L20.1321 2.56078C20.4931 2.19979 21.0784 2.19979 21.4394 2.56078Z" fill="#4B4B4B"/>
</svg>
