<svg width="24" height="24" viewBox="0 0 24 24" fill="none" xmlns="http://www.w3.org/2000/svg">
<g clip-path="url(#clip0_27038_11307)">
<path d="M9.69689 0.578423C11.0751 0.565523 12.4536 0.570023 13.8321 0.574523C15.3324 0.589523 16.8411 0.594023 18.3267 0.828023C19.3416 0.991223 20.3598 1.31102 21.1824 1.94672C21.6441 2.30252 22.0407 2.74322 22.3446 3.24092C22.86 4.08872 23.0994 5.07122 23.2275 6.04622C23.424 7.55192 23.4156 9.07382 23.4279 10.5894C23.4312 12.2391 23.4414 13.8894 23.3997 15.5388C23.3652 16.6971 23.301 17.8632 23.0403 18.9957C22.8177 19.9566 22.3944 20.8941 21.6915 21.6C21.1341 22.1793 20.424 22.5993 19.6623 22.8495C18.6738 23.1837 17.6271 23.2896 16.5912 23.355C14.9328 23.4495 13.2711 23.4264 11.6109 23.43C10.0257 23.4276 8.43809 23.4405 6.85679 23.316C5.74019 23.2194 4.60169 23.0466 3.59009 22.5384C2.77979 22.1364 2.09399 21.4944 1.63079 20.7183C1.25699 20.0964 1.03619 19.3953 0.892786 18.6879C0.659386 17.4933 0.616786 16.2723 0.588886 15.0588C0.563086 13.7091 0.571786 12.3594 0.569986 11.0094C0.579286 9.47912 0.569986 7.94432 0.726586 6.41972C0.827386 5.50832 0.996286 4.59002 1.38419 3.75272C1.74959 2.94872 2.34149 2.25002 3.07769 1.76162C3.63209 1.38662 4.26629 1.14572 4.91249 0.983423C5.61149 0.809723 6.32909 0.725423 7.04609 0.670523C7.92809 0.604823 8.81279 0.587423 9.69689 0.578423ZM9.36869 2.08202C8.67419 2.09252 7.97939 2.10932 7.28609 2.15672C6.62309 2.20472 5.95859 2.27372 5.31149 2.43002C4.85489 2.54282 4.40309 2.69882 4.00259 2.94962C3.55379 3.22892 3.17069 3.61622 2.90579 4.07462C2.63639 4.53752 2.47679 5.05532 2.36969 5.57762C2.21639 6.33902 2.15909 7.11572 2.12249 7.89032C2.06369 9.25952 2.07179 10.6302 2.06999 12.0003C2.07059 13.1505 2.06759 14.3007 2.09819 15.4506C2.12129 16.2243 2.15789 16.9986 2.25989 17.7666C2.33729 18.3351 2.45159 18.9036 2.66639 19.4379C2.97419 20.2305 3.59219 20.9001 4.36979 21.2499C4.91129 21.5025 5.50049 21.6315 6.08849 21.7209C6.87389 21.8355 7.66799 21.8736 8.46059 21.9C10.0002 21.945 11.541 21.9255 13.0812 21.93C14.4501 21.9258 15.8217 21.9264 17.1867 21.8058C17.8836 21.7398 18.5847 21.6408 19.2474 21.4056C20.0481 21.1404 20.754 20.5773 21.15 19.8282C21.4065 19.3545 21.5541 18.8307 21.654 18.3036C21.7878 17.58 21.846 16.8447 21.8784 16.11C21.9423 14.5008 21.93 12.8895 21.93 11.2794C21.9222 9.90902 21.9339 8.53652 21.8361 7.16882C21.7779 6.45362 21.699 5.73482 21.4995 5.04332C21.366 4.58972 21.1779 4.14602 20.8911 3.76712C20.5899 3.36692 20.1981 3.03302 19.7484 2.81072C19.2045 2.53082 18.6018 2.39042 18.0012 2.29502C16.6116 2.08892 15.2028 2.08922 13.8012 2.07422C12.3237 2.06972 10.8462 2.06462 9.36869 2.08202Z" fill="#4B4B4B"/>
<path opacity="0.5" d="M9.69914 2.64993C11.0056 2.63523 12.3121 2.63943 13.6186 2.64393C14.509 2.65173 15.4006 2.65803 16.2889 2.72613C17.2699 2.80533 18.28 2.93043 19.1623 3.39663C19.6732 3.67083 20.1154 4.07193 20.4352 4.55553C20.7064 4.96533 20.8858 5.42943 21.0076 5.90373C21.1552 6.48573 21.2278 7.08423 21.2731 7.68183C21.3748 9.10863 21.3565 10.5402 21.3607 11.9697C21.3565 13.3905 21.3748 14.8134 21.2794 16.2324C21.2263 16.9299 21.1501 17.6316 20.9494 18.3045C20.8315 18.6978 20.6746 19.0827 20.4472 19.4262C20.1247 19.9164 19.6816 20.3283 19.1626 20.6034C18.7159 20.8416 18.2272 20.9913 17.7322 21.0906C17.1181 21.2118 16.4932 21.2658 15.8689 21.3015C14.3611 21.3798 12.8503 21.354 11.3407 21.36C10.0189 21.3546 8.69414 21.3642 7.37594 21.2466C6.65354 21.1761 5.92574 21.0645 5.24804 20.7942C4.48634 20.4969 3.82574 19.938 3.42974 19.2201C3.18224 18.7797 3.02864 18.2931 2.92514 17.8005C2.79074 17.1432 2.72864 16.4736 2.69504 15.8046C2.65574 14.9973 2.64614 14.1888 2.64224 13.3809C2.64224 11.9406 2.63054 10.5 2.66234 9.06003C2.68604 8.24913 2.72204 7.43643 2.84534 6.63363C2.93534 6.07263 3.06974 5.51283 3.31634 4.99833C3.65744 4.27263 4.25384 3.67203 4.97744 3.32643C5.46104 3.09063 5.98664 2.95473 6.51524 2.86623C7.56674 2.68863 8.63564 2.67093 9.69914 2.64993Z" fill="#4B4B4B"/>
</g>
<defs>
<clipPath id="clip0_27038_11307">
<rect width="24" height="24" fill="white"/>
</clipPath>
</defs>
</svg>
