<svg width="24" height="25" viewBox="0 0 24 25" fill="none" xmlns="http://www.w3.org/2000/svg">
<path d="M9.69677 1.0783C11.075 1.0654 12.4535 1.0699 13.832 1.0744C15.3323 1.0894 16.841 1.0939 18.3266 1.3279C19.3415 1.4911 20.3597 1.8109 21.1823 2.4466C21.644 2.8024 22.0406 3.2431 22.3445 3.7408C22.8599 4.5886 23.0993 5.5711 23.2274 6.5461C23.4239 8.0518 23.4155 9.5737 23.4278 11.0893C23.4311 12.739 23.4413 14.3893 23.3996 16.0387C23.3651 17.197 23.3009 18.3631 23.0402 19.4956C22.8176 20.4565 22.3943 21.394 21.6914 22.0999C21.134 22.6792 20.4239 23.0992 19.6622 23.3494C18.6737 23.6836 17.627 23.7895 16.5911 23.8549C14.9327 23.9494 13.271 23.9263 11.6108 23.9299C10.0256 23.9275 8.43797 23.9404 6.85667 23.8159C5.74007 23.7193 4.60157 23.5465 3.58997 23.0383C2.77967 22.6363 2.09387 21.9943 1.63067 21.2182C1.25687 20.5963 1.03607 19.8952 0.892664 19.1878C0.659264 17.9932 0.616664 16.7722 0.588764 15.5587C0.562964 14.209 0.571664 12.8593 0.569864 11.5093C0.579164 9.979 0.569864 8.4442 0.726464 6.9196C0.827264 6.0082 0.996164 5.0899 1.38407 4.2526C1.74947 3.4486 2.34137 2.7499 3.07757 2.2615C3.63197 1.8865 4.26617 1.6456 4.91237 1.4833C5.61137 1.3096 6.32897 1.2253 7.04597 1.1704C7.92797 1.1047 8.81267 1.0873 9.69677 1.0783ZM9.36857 2.5819C8.67407 2.5924 7.97927 2.6092 7.28597 2.6566C6.62297 2.7046 5.95847 2.7736 5.31137 2.9299C4.85477 3.0427 4.40297 3.1987 4.00247 3.4495C3.55367 3.7288 3.17057 4.1161 2.90567 4.5745C2.63627 5.0374 2.47667 5.5552 2.36957 6.0775C2.21627 6.8389 2.15897 7.6156 2.12237 8.3902C2.06357 9.7594 2.07167 11.1301 2.06987 12.5002C2.07047 13.6504 2.06747 14.8006 2.09807 15.9505C2.12117 16.7242 2.15777 17.4985 2.25977 18.2665C2.33717 18.835 2.45147 19.4035 2.66627 19.9378C2.97407 20.7304 3.59207 21.4 4.36967 21.7498C4.91117 22.0024 5.50037 22.1314 6.08837 22.2208C6.87377 22.3354 7.66787 22.3735 8.46047 22.3999C10.0001 22.4449 11.5409 22.4254 13.0811 22.4299C14.45 22.4257 15.8216 22.4263 17.1866 22.3057C17.8835 22.2397 18.5846 22.1407 19.2473 21.9055C20.048 21.6403 20.7539 21.0772 21.1499 20.3281C21.4064 19.8544 21.554 19.3306 21.6539 18.8035C21.7877 18.0799 21.8459 17.3446 21.8783 16.6099C21.9422 15.0007 21.9299 13.3894 21.9299 11.7793C21.9221 10.4089 21.9338 9.0364 21.836 7.6687C21.7778 6.9535 21.6989 6.2347 21.4994 5.5432C21.3659 5.0896 21.1778 4.6459 20.891 4.267C20.5898 3.8668 20.198 3.5329 19.7483 3.3106C19.2044 3.0307 18.6017 2.8903 18.0011 2.7949C16.6115 2.5888 15.2027 2.5891 13.8011 2.5741C12.3236 2.5696 10.8461 2.5645 9.36857 2.5819Z" fill="#4B4B4B"/>
<path opacity="0.5" d="M9.69914 3.14986C11.0056 3.13516 12.3121 3.13936 13.6186 3.14386C14.509 3.15166 15.4006 3.15796 16.2889 3.22606C17.2699 3.30526 18.28 3.43036 19.1623 3.89656C19.6732 4.17076 20.1154 4.57186 20.4352 5.05546C20.7064 5.46526 20.8858 5.92936 21.0076 6.40366C21.1552 6.98566 21.2278 7.58417 21.2731 8.18177C21.3748 9.60857 21.3565 11.0401 21.3607 12.4696C21.3565 13.8904 21.3748 15.3133 21.2794 16.7323C21.2263 17.4298 21.1501 18.1315 20.9494 18.8044C20.8315 19.1977 20.6746 19.5826 20.4472 19.9261C20.1247 20.4163 19.6816 20.8282 19.1626 21.1033C18.7159 21.3415 18.2272 21.4912 17.7322 21.5905C17.1181 21.7117 16.4932 21.7657 15.8689 21.8014C14.3611 21.8797 12.8503 21.8539 11.3407 21.8599C10.0189 21.8545 8.69414 21.8641 7.37594 21.7465C6.65354 21.676 5.92574 21.5644 5.24804 21.2941C4.48634 20.9968 3.82574 20.4379 3.42974 19.72C3.18224 19.2796 3.02864 18.793 2.92514 18.3004C2.79074 17.6431 2.72864 16.9735 2.69504 16.3045C2.65574 15.4972 2.64614 14.6887 2.64224 13.8808C2.64224 12.4405 2.63054 10.9999 2.66234 9.55996C2.68604 8.74906 2.72204 7.93636 2.84534 7.13356C2.93534 6.57256 3.06974 6.01276 3.31634 5.49826C3.65744 4.77256 4.25384 4.17196 4.97744 3.82636C5.46104 3.59056 5.98664 3.45466 6.51524 3.36616C7.56674 3.18856 8.63564 3.17086 9.69914 3.14986Z" fill="#4B4B4B"/>
</svg>
