<svg width="24" height="24" viewBox="0 0 24 24" fill="none" xmlns="http://www.w3.org/2000/svg">
<path d="M8.82901 1.27383C10.3161 1.23783 11.8035 1.25433 13.2906 1.25043C14.7006 1.26183 16.1157 1.25763 17.5176 1.43043C18.5634 1.56453 19.629 1.82943 20.4981 2.45313C21.2841 3.00723 21.8655 3.82533 22.1769 4.73193C22.5849 5.90883 22.6605 7.16613 22.7127 8.40093C22.767 10.0098 22.7442 11.6199 22.7496 13.2294C22.74 14.5896 22.7424 15.954 22.5948 17.3082C22.4829 18.2832 22.2783 19.2726 21.7827 20.1312C21.3174 20.9436 20.5899 21.5991 19.7382 21.9858C18.7632 22.4328 17.6847 22.5756 16.6254 22.6578C15.0963 22.7643 13.5624 22.746 12.0306 22.7493C10.5108 22.746 8.98891 22.764 7.47121 22.6647C6.37261 22.5843 5.25181 22.4439 4.24201 21.9768C3.32461 21.5562 2.55601 20.8203 2.10211 19.9188C1.63321 18.9996 1.46371 17.9643 1.36861 16.947C1.30051 16.1898 1.27681 15.4299 1.26331 14.67C1.24291 13.3605 1.25311 12.0504 1.25041 10.7406C1.26121 9.34503 1.25761 7.94493 1.42111 6.55683C1.52071 5.75733 1.68721 4.95513 2.03221 4.22223C2.37181 3.49413 2.90761 2.85753 3.57151 2.40453C4.09531 2.04423 4.69381 1.80513 5.30791 1.64883C6.45781 1.36173 7.64941 1.31013 8.82901 1.27383ZM8.86231 2.77383C7.90441 2.80263 6.94111 2.84163 5.99881 3.02913C5.49361 3.13293 4.99051 3.28713 4.54801 3.55893C4.10851 3.82683 3.74101 4.21113 3.49231 4.66203C3.27151 5.05773 3.13681 5.49543 3.04201 5.93673C2.89471 6.63873 2.83891 7.35633 2.80231 8.07153C2.76541 8.85063 2.75701 9.63033 2.75281 10.41C2.75041 11.6499 2.74711 12.8898 2.75641 14.1297C2.76601 14.9697 2.78161 15.8106 2.84821 16.6485C2.89531 17.2125 2.96401 17.7771 3.10381 18.3264C3.21181 18.7464 3.36571 19.1595 3.60451 19.524C3.88921 19.9632 4.29301 20.3229 4.75951 20.5599C5.26351 20.8176 5.82091 20.9499 6.37681 21.039C7.10551 21.1521 7.84291 21.1926 8.57911 21.2178C10.1088 21.264 11.6397 21.2448 13.17 21.2493C14.4993 21.2391 15.8331 21.2469 17.1564 21.102C17.7813 21.0285 18.4095 20.9184 18.9933 20.6754C19.4484 20.4858 19.8636 20.1948 20.1798 19.815C20.5206 19.4139 20.7351 18.9213 20.8722 18.417C21.0363 17.8101 21.1095 17.1831 21.1587 16.5579C21.255 15.2211 21.2457 13.8795 21.2493 12.54C21.2448 10.9944 21.2673 9.44733 21.189 7.90293C21.1509 7.23873 21.0936 6.57273 20.9544 5.92083C20.8479 5.42883 20.6898 4.94043 20.4189 4.51263C20.1408 4.06953 19.743 3.70413 19.2804 3.46053C18.8082 3.21123 18.2859 3.07563 17.7627 2.98413C17.1081 2.87193 16.4442 2.82543 15.7815 2.79573C14.8917 2.75793 14.001 2.75403 13.1103 2.75073C11.6943 2.75403 10.278 2.73963 8.86231 2.77383Z" fill="#4B4B4B"/>
</svg>
