<svg width="24" height="25" viewBox="0 0 24 25" fill="none" xmlns="http://www.w3.org/2000/svg">
<path d="M8.82883 1.77389C10.316 1.73789 11.8034 1.75439 13.2905 1.75049C14.7005 1.76189 16.1156 1.75769 17.5175 1.93049C18.5633 2.06459 19.6289 2.32949 20.498 2.95319C21.284 3.50729 21.8654 4.32539 22.1768 5.23199C22.5848 6.40889 22.6604 7.66619 22.7126 8.90099C22.7669 10.5099 22.7441 12.12 22.7495 13.7295C22.7399 15.0897 22.7423 16.4541 22.5947 17.8083C22.4828 18.7833 22.2782 19.7727 21.7826 20.6313C21.3173 21.4437 20.5898 22.0992 19.7381 22.4859C18.7631 22.9329 17.6846 23.0757 16.6253 23.1579C15.0962 23.2644 13.5623 23.2461 12.0305 23.2494C10.5107 23.2461 8.98873 23.2641 7.47103 23.1648C6.37243 23.0844 5.25163 22.944 4.24183 22.4769C3.32443 22.0563 2.55583 21.3204 2.10193 20.4189C1.63303 19.4997 1.46353 18.4644 1.36843 17.4471C1.30033 16.6899 1.27663 15.93 1.26313 15.1701C1.24273 13.8606 1.25293 12.5505 1.25023 11.2407C1.26103 9.84509 1.25743 8.44499 1.42093 7.05689C1.52053 6.25739 1.68703 5.45519 2.03203 4.72229C2.37163 3.99419 2.90743 3.35759 3.57133 2.90459C4.09513 2.54429 4.69363 2.30519 5.30773 2.14889C6.45763 1.86179 7.64923 1.81019 8.82883 1.77389ZM8.86213 3.27389C7.90423 3.30269 6.94093 3.34169 5.99863 3.52919C5.49343 3.63299 4.99033 3.78719 4.54783 4.05899C4.10833 4.32689 3.74083 4.71119 3.49213 5.16209C3.27133 5.55779 3.13663 5.99549 3.04183 6.43679C2.89453 7.13879 2.83873 7.85639 2.80213 8.57159C2.76523 9.35069 2.75683 10.1304 2.75263 10.9101C2.75023 12.15 2.74693 13.3899 2.75623 14.6298C2.76583 15.4698 2.78143 16.3107 2.84803 17.1486C2.89513 17.7126 2.96383 18.2772 3.10363 18.8265C3.21163 19.2465 3.36553 19.6596 3.60433 20.0241C3.88903 20.4633 4.29283 20.823 4.75933 21.06C5.26333 21.3177 5.82073 21.45 6.37663 21.5391C7.10533 21.6522 7.84273 21.6927 8.57893 21.7179C10.1087 21.7641 11.6396 21.7449 13.1699 21.7494C14.4992 21.7392 15.833 21.747 17.1563 21.6021C17.7812 21.5286 18.4094 21.4185 18.9932 21.1755C19.4483 20.9859 19.8635 20.6949 20.1797 20.3151C20.5205 19.914 20.735 19.4214 20.8721 18.9171C21.0362 18.3102 21.1094 17.6832 21.1586 17.058C21.2549 15.7212 21.2456 14.3796 21.2492 13.0401C21.2447 11.4945 21.2672 9.94739 21.1889 8.40299C21.1508 7.73879 21.0935 7.07279 20.9543 6.42089C20.8478 5.92889 20.6897 5.44049 20.4188 5.01269C20.1407 4.56959 19.7429 4.20419 19.2803 3.96059C18.8081 3.71129 18.2858 3.57569 17.7626 3.48419C17.108 3.37199 16.4441 3.32549 15.7814 3.29579C14.8916 3.25799 14.0009 3.25409 13.1102 3.25079C11.6942 3.25409 10.2779 3.23969 8.86213 3.27389Z" fill="#4B4B4B"/>
</svg>
