<svg width="24" height="24" viewBox="0 0 24 24" fill="none" xmlns="http://www.w3.org/2000/svg">
<path d="M10.2027 4.04868C10.4187 3.97533 10.6604 3.98514 10.8702 4.07627C11.123 4.1844 11.3255 4.40994 11.4085 4.67823C11.4395 4.77564 11.4548 4.87814 11.4549 4.98065C11.4548 5.42074 11.4549 5.86084 11.4548 6.30093C11.7909 6.1018 12.1268 5.90228 12.4627 5.70302C12.5304 5.66354 12.5965 5.62039 12.6683 5.58901C12.8693 5.49919 13.1011 5.48507 13.3112 5.54887C13.5247 5.61176 13.7148 5.75441 13.8376 5.94464C13.9653 6.1388 14.0213 6.38134 13.9916 6.61381C13.9567 6.90733 13.7847 7.17981 13.5367 7.3303C13.161 7.55388 12.7847 7.77654 12.4088 7.99959C12.7691 8.21415 13.1301 8.42766 13.4906 8.64169C13.7392 8.77584 13.9238 9.02674 13.9792 9.30968C14.0283 9.54607 13.9874 9.80063 13.8667 10.0081C13.7568 10.2019 13.5792 10.3536 13.3741 10.43C13.1161 10.529 12.8167 10.505 12.5774 10.3644C12.203 10.1429 11.8292 9.92053 11.4549 9.69904C11.4547 10.1006 11.4549 10.502 11.4548 10.9035C11.4544 10.9859 11.4577 11.0686 11.4464 11.1505C11.4148 11.3994 11.2849 11.6331 11.0929 11.7881C10.9359 11.9168 10.7384 11.9918 10.5377 11.9991C10.3056 12.0093 10.0712 11.9283 9.89264 11.7756C9.67922 11.5959 9.54788 11.318 9.5461 11.0342C9.54559 10.5888 9.54623 10.1435 9.54572 9.69813C9.20592 9.89922 8.86638 10.101 8.52672 10.3024C8.45876 10.3419 8.39271 10.3855 8.32017 10.4154C8.12647 10.499 7.90567 10.5129 7.70319 10.4557C7.4843 10.395 7.2878 10.2513 7.16245 10.0569C7.0362 9.86601 6.97957 9.62831 7.00579 9.39911C7.03697 9.1014 7.20941 8.82317 7.4605 8.67046C7.83682 8.44649 8.2139 8.22356 8.59048 7.99986C8.21988 7.77981 7.84904 7.56002 7.47832 7.34011C7.31975 7.24675 7.18816 7.10555 7.10543 6.93806C7.00401 6.73645 6.9741 6.49796 7.02284 6.27661C7.07553 6.0312 7.22417 5.80919 7.42894 5.67151C7.71465 5.47448 8.1056 5.45552 8.40709 5.6268C8.78697 5.85116 9.16596 6.07709 9.54572 6.30158C9.54623 5.85678 9.54559 5.41185 9.5461 4.96705C9.54801 4.75223 9.62182 4.53925 9.7524 4.37163C9.86731 4.22179 10.026 4.10778 10.2027 4.04868Z" fill="#4B4B4B"/>
</svg>
