<svg width="24" height="24" viewBox="0 0 24 24" fill="none" xmlns="http://www.w3.org/2000/svg">
<path d="M9.92769 1.2704C11.1698 1.2614 12.4119 1.2632 13.6539 1.26725C14.7711 1.27557 15.8904 1.28659 17.0036 1.38893C17.9269 1.47778 18.8597 1.63253 19.7102 2.01829C20.4034 2.33049 21.0179 2.81679 21.4741 3.42567C21.8796 3.96213 22.1497 4.59013 22.3218 5.23748C22.5409 6.0605 22.6241 6.91186 22.6749 7.75962C22.7492 9.1002 22.7397 10.4433 22.7429 11.7854C22.7409 13.0682 22.7498 14.3514 22.7044 15.6337C22.668 16.5532 22.6088 17.4768 22.419 18.3795C22.2636 19.1172 22.0035 19.8442 21.5687 20.4657C21.1169 21.1164 20.4886 21.6412 19.7711 21.9759C18.9953 22.3409 18.1437 22.5062 17.2971 22.6032C16.2217 22.7217 15.1385 22.7402 14.0574 22.7521C12.828 22.7609 11.5983 22.7591 10.3686 22.7552C9.54284 22.7503 8.71667 22.7408 7.89185 22.6983C7.13789 22.6576 6.38235 22.5924 5.64211 22.4372C5.00466 22.3031 4.37665 22.0948 3.81523 21.7601C3.11277 21.3442 2.52863 20.732 2.1449 20.0113C1.76117 19.2965 1.56796 18.4969 1.45324 17.6986C1.31671 16.724 1.28409 15.7388 1.26408 14.7561C1.24338 13.4814 1.25013 12.2065 1.2499 10.9318C1.2526 10.0391 1.25688 9.14586 1.29287 8.25356C1.32841 7.42155 1.38689 6.58729 1.54704 5.76877C1.66243 5.18755 1.83382 4.6133 2.10621 4.08517C2.49826 3.31388 3.11862 2.66091 3.86944 2.2304C4.66344 1.77221 5.57238 1.56325 6.4739 1.44607C7.61901 1.30211 8.77515 1.28389 9.92769 1.2704ZM9.25358 2.779C8.19169 2.80329 7.12304 2.83163 6.07622 3.0271C5.58408 3.12269 5.0944 3.26372 4.65422 3.50912C4.13148 3.79883 3.70141 4.24982 3.43307 4.78335C3.19982 5.24333 3.07049 5.74785 2.98231 6.25371C2.84241 7.07786 2.80214 7.91482 2.77605 8.74931C2.75468 9.49923 2.75131 10.2494 2.74951 10.9995C2.74974 12.2967 2.74231 13.5938 2.76661 14.8906C2.78752 15.793 2.81924 16.6981 2.95352 17.592C3.03292 18.103 3.14786 18.6136 3.36042 19.0873C3.60244 19.6355 4.00597 20.1125 4.51498 20.4304C4.92368 20.6881 5.38794 20.8433 5.85669 20.9495C6.57017 21.1074 7.30119 21.1659 8.02951 21.2041C8.89841 21.2466 9.76867 21.2527 10.6385 21.2568C11.996 21.2581 13.3536 21.2648 14.7111 21.2439C15.6877 21.2232 16.6682 21.1949 17.6352 21.0446C18.121 20.9661 18.606 20.8539 19.0574 20.6535C19.6829 20.3825 20.2142 19.898 20.5307 19.2931C20.88 18.6287 21.0114 17.8774 21.0986 17.1396C21.2242 15.9824 21.2302 14.8166 21.2403 13.6539C21.2442 12.2965 21.2482 10.9388 21.2332 9.58132C21.2192 8.68071 21.1976 7.77829 21.0984 6.88239C21.0134 6.16127 20.8861 5.42822 20.5541 4.7748C20.2529 4.17491 19.7423 3.68592 19.1337 3.40385C18.7036 3.20119 18.2391 3.0831 17.7726 3.00078C17.2584 2.91103 16.7379 2.86425 16.2174 2.83231C15.1837 2.77203 14.1479 2.7691 13.113 2.76483C11.8264 2.76483 10.54 2.75808 9.25358 2.779Z" fill="#4B4B4B"/>
<path d="M5.69827 9.70226C5.98776 9.69776 6.27747 9.69911 6.56695 9.69934C6.86588 9.70159 7.16594 9.69979 7.46352 9.73218C7.6754 9.75625 7.89044 9.80528 8.07196 9.92247C8.36099 10.1066 8.59694 10.3937 8.67319 10.7326C8.73775 11.0113 8.7409 11.2992 8.74697 11.5838C8.74989 12.0338 8.75349 12.4839 8.74202 12.9338C8.72898 13.228 8.71548 13.5335 8.58929 13.8052C8.45951 14.0668 8.24448 14.2847 7.98716 14.4221C7.72984 14.5524 7.43563 14.5724 7.15267 14.5866C6.71046 14.6021 6.26802 14.5962 5.82581 14.5953C5.51158 14.5897 5.1933 14.5908 4.88538 14.5202C4.55136 14.4455 4.26839 14.2145 4.08328 13.932C3.94967 13.7307 3.90086 13.488 3.87859 13.2509C3.84305 12.8384 3.85452 12.4241 3.85205 12.0107C3.85295 11.696 3.85025 11.3806 3.87657 11.0669C3.89838 10.8269 3.94292 10.579 4.0772 10.3739C4.25962 10.0896 4.54123 9.85634 4.87458 9.77829C5.14382 9.71373 5.42273 9.70879 5.69827 9.70226ZM5.54532 10.8163C5.30644 10.8404 5.08129 11.0005 5.00706 11.2329C4.93531 11.4625 4.94566 11.707 4.94071 11.9448C4.94138 12.2221 4.93419 12.5001 4.9542 12.7772C4.96837 12.952 5.00346 13.1396 5.1292 13.271C5.22097 13.3774 5.35098 13.4442 5.48796 13.4691C5.73966 13.5168 5.99743 13.5044 6.25227 13.5087C6.49295 13.5065 6.7343 13.5134 6.97407 13.4903C7.12455 13.4747 7.282 13.4406 7.40032 13.3402C7.50783 13.2541 7.58363 13.1317 7.61377 12.9977C7.66281 12.7847 7.65763 12.5645 7.66078 12.3474C7.65831 12.0629 7.66911 11.7776 7.64526 11.4938C7.63019 11.3348 7.59668 11.167 7.48849 11.043C7.39424 10.9258 7.25524 10.8512 7.10791 10.8255C6.85576 10.779 6.59799 10.7911 6.34292 10.7871C6.07705 10.7904 5.80939 10.779 5.54532 10.8163Z" fill="#4B4B4B"/>
<path d="M17.4433 9.71168C18.2101 9.62756 19.0052 9.93571 19.5158 10.5137C20.0147 11.0623 20.2367 11.8456 20.1036 12.5745C19.9774 13.3204 19.4801 13.9896 18.805 14.3297C18.1338 14.6776 17.3 14.6853 16.6221 14.3513C15.9869 14.0456 15.4981 13.4529 15.3229 12.7698C15.1843 12.2432 15.2271 11.6706 15.4455 11.1717C15.6956 10.592 16.1792 10.1183 16.7643 9.88106C16.9809 9.79198 17.2103 9.73508 17.4433 9.71168ZM17.5484 10.8001C17.0816 10.8451 16.6543 11.1539 16.4608 11.5804C16.3009 11.9241 16.295 12.3357 16.4469 12.6834C16.5787 12.9929 16.8313 13.2484 17.1385 13.3852C17.4588 13.5298 17.836 13.5417 18.1651 13.4183C18.4708 13.3056 18.7313 13.0775 18.8853 12.7907C19.0322 12.5201 19.0813 12.1987 19.0237 11.8966C18.9629 11.5637 18.7699 11.2585 18.4978 11.0581C18.2283 10.857 17.8824 10.7636 17.5484 10.8001Z" fill="#4B4B4B"/>
<path opacity="0.5" d="M12.4696 6.55275C13.0294 6.06218 13.7883 5.81993 14.5288 5.86649C15.4933 5.91867 16.402 6.40632 17.0476 7.11372C17.055 6.98237 17.0565 6.83841 17.1438 6.73089C17.2336 6.60831 17.3978 6.55297 17.5446 6.58514C17.8096 6.63687 18.0067 6.90634 17.9846 7.17378C17.9536 7.62296 17.9241 8.07215 17.8919 8.52133C17.8791 8.68913 17.7565 8.84658 17.5896 8.88347C17.4927 8.90979 17.393 8.88617 17.2992 8.86008C16.8649 8.74716 16.4301 8.63627 15.9958 8.52381C15.7205 8.45453 15.5288 8.14908 15.5929 7.87106C15.6237 7.71968 15.7477 7.59035 15.9011 7.56223C16.0365 7.53254 16.1674 7.59282 16.2976 7.62027C15.7691 7.10293 15.0227 6.786 14.2775 6.8546C13.796 6.89644 13.3313 7.11327 12.9936 7.45989C12.6371 7.82068 12.4286 8.31305 12.3803 8.81509C12.3735 8.91294 12.3454 9.01236 12.2802 9.08748C12.1904 9.1977 12.0386 9.24741 11.9003 9.22087C11.6402 9.17543 11.4414 8.91901 11.45 8.65742C11.5062 7.86184 11.8598 7.07639 12.4696 6.55275Z" fill="#4B4B4B"/>
<path opacity="0.5" d="M11.8405 9.79561C11.9957 9.76142 12.1617 9.77964 12.3052 9.84824C12.7465 10.0604 13.1874 10.2729 13.6284 10.4855C13.8214 10.5784 13.9676 10.7617 14.0155 10.9707C14.1244 11.4462 14.2328 11.9217 14.3412 12.3974C14.3903 12.6086 14.3383 12.8403 14.202 13.0092C13.9065 13.3806 13.6098 13.751 13.3144 14.1226C13.2195 14.2504 13.085 14.3489 12.9316 14.3932C12.816 14.4299 12.6934 14.4238 12.5737 14.4236C12.139 14.4233 11.7039 14.4238 11.2692 14.4236C11.1059 14.4238 10.9432 14.3676 10.8155 14.2654C10.7345 14.2029 10.6756 14.1183 10.6119 14.0396C10.3361 13.6932 10.0595 13.3473 9.78391 13.0007C9.6521 12.832 9.60217 12.6039 9.65143 12.3956C9.76052 11.9183 9.86871 11.441 9.97847 10.9639C10.028 10.7547 10.1769 10.573 10.3715 10.4819C10.7752 10.2869 11.1796 10.0925 11.5836 9.89773C11.6662 9.85702 11.7496 9.81473 11.8405 9.79561ZM11.8198 10.9252C11.7102 10.9522 11.6128 11.0109 11.5112 11.0575C11.3312 11.1493 11.125 11.2145 10.9981 11.3818C10.8497 11.5546 10.8364 11.7905 10.7806 12.0015C10.7379 12.1637 10.7046 12.3362 10.7554 12.5006C10.7972 12.6759 10.9273 12.8059 11.0341 12.9437C11.1517 13.0877 11.2568 13.2546 11.4324 13.3344C11.5964 13.4226 11.7867 13.4116 11.9667 13.4105C12.0715 13.4091 12.1765 13.4129 12.2813 13.4085C12.4829 13.3977 12.677 13.2964 12.8027 13.1388C12.9055 13.0097 13.0088 12.8812 13.1111 12.7519C13.2332 12.5958 13.2865 12.3879 13.2535 12.1925C13.2193 12.0238 13.1772 11.8569 13.1403 11.6889C13.1028 11.5105 12.9962 11.3476 12.8464 11.2437C12.6898 11.1463 12.5164 11.08 12.3529 10.9954C12.1911 10.9084 11.9984 10.8787 11.8198 10.9252Z" fill="#4B4B4B"/>
<path opacity="0.5" d="M5.4718 15.7468C5.44706 15.4424 5.71585 15.1354 6.02828 15.1563C6.22127 15.1646 6.38164 15.3336 6.39626 15.5234C6.4309 15.9177 6.55551 16.3075 6.77977 16.6357C7.00965 16.9769 7.34524 17.2452 7.72874 17.3941C8.10865 17.5435 8.53107 17.5725 8.93099 17.4969C9.45418 17.3995 9.93868 17.1317 10.3193 16.7625C10.1872 16.7898 10.0539 16.8516 9.91686 16.8192C9.76998 16.79 9.65122 16.6679 9.6168 16.5234C9.54708 16.252 9.725 15.9483 9.99109 15.8667C10.3951 15.7596 10.8006 15.6577 11.2053 15.5527C11.3083 15.529 11.4093 15.4894 11.5161 15.4874C11.6518 15.4863 11.7849 15.5603 11.8531 15.6779C11.8992 15.7515 11.9145 15.839 11.9185 15.9245C11.9435 16.3037 11.97 16.6827 11.9957 17.0617C12.0033 17.1762 12.0209 17.295 11.9835 17.4063C11.9194 17.6198 11.7222 17.7977 11.4943 17.8058C11.3501 17.813 11.2057 17.7345 11.1358 17.6076C11.0741 17.5059 11.0773 17.3831 11.0687 17.2686C10.5424 17.8438 9.84803 18.2736 9.08372 18.4425C8.34258 18.6112 7.53238 18.5109 6.87941 18.1121C6.28807 17.7597 5.84541 17.1805 5.63195 16.5286C5.5476 16.2756 5.49384 16.0124 5.4718 15.7468Z" fill="#4B4B4B"/>
</svg>
