<svg width="24" height="24" viewBox="0 0 24 24" fill="none" xmlns="http://www.w3.org/2000/svg">
<path d="M9.92793 1.27039C11.17 1.26139 12.4121 1.26319 13.6541 1.26724C14.7713 1.27557 15.8906 1.28659 17.0038 1.38893C17.9271 1.47778 18.8599 1.63253 19.7104 2.01828C20.4036 2.33049 21.0181 2.81678 21.4743 3.42567C21.8798 3.96213 22.1499 4.59013 22.322 5.23748C22.5411 6.0605 22.6243 6.91185 22.6751 7.75961C22.7494 9.1002 22.7399 10.4433 22.7431 11.7854C22.7411 13.0682 22.75 14.3514 22.7046 15.6337C22.6682 16.5532 22.609 17.4768 22.4192 18.3794C22.2638 19.1172 22.0037 19.8442 21.5689 20.4657C21.1171 21.1164 20.4888 21.6412 19.7713 21.9758C18.9955 22.3409 18.1439 22.5062 17.2973 22.6032C16.2219 22.7217 15.1387 22.7402 14.0576 22.7521C12.8282 22.7609 11.5985 22.7591 10.3688 22.7552C9.54308 22.7503 8.71691 22.7408 7.89209 22.6983C7.13813 22.6576 6.38259 22.5924 5.64235 22.4372C5.0049 22.3031 4.37689 22.0948 3.81547 21.7601C3.11301 21.3442 2.52887 20.732 2.14514 20.0113C1.76141 19.2965 1.5682 18.4969 1.45348 17.6986C1.31695 16.724 1.28433 15.7388 1.26432 14.7561C1.24362 13.4814 1.25037 12.2065 1.25014 10.9318C1.25284 10.0391 1.25712 9.14586 1.29311 8.25356C1.32865 7.42155 1.38713 6.58728 1.54728 5.76876C1.66267 5.18754 1.83406 4.6133 2.10645 4.08516C2.4985 3.31388 3.11886 2.66091 3.86968 2.23039C4.66368 1.77221 5.57262 1.56325 6.47414 1.44606C7.61925 1.30211 8.77539 1.28389 9.92793 1.27039ZM9.25382 2.779C8.19193 2.80329 7.12328 2.83163 6.07646 3.02709C5.58432 3.12269 5.09464 3.26372 4.65446 3.50912C4.13172 3.79883 3.70165 4.24981 3.43331 4.78334C3.20006 5.24333 3.07073 5.74784 2.98255 6.25371C2.84265 7.07785 2.80238 7.91482 2.77629 8.74931C2.75492 9.49922 2.75155 10.2494 2.74975 10.9995C2.74998 12.2967 2.74255 13.5938 2.76685 14.8906C2.78776 15.793 2.81948 16.6981 2.95376 17.592C3.03316 18.103 3.1481 18.6136 3.36066 19.0873C3.60268 19.6355 4.00621 20.1125 4.51522 20.4304C4.92392 20.6881 5.38818 20.8433 5.85693 20.9495C6.57041 21.1074 7.30143 21.1659 8.02975 21.2041C8.89865 21.2466 9.76891 21.2527 10.6387 21.2567C11.9962 21.2581 13.3538 21.2648 14.7113 21.2439C15.6879 21.2232 16.6684 21.1949 17.6354 21.0446C18.1212 20.9661 18.6062 20.8539 19.0576 20.6535C19.6831 20.3824 20.2144 19.8979 20.5309 19.2931C20.8802 18.6287 21.0116 17.8774 21.0988 17.1396C21.2244 15.9824 21.2304 14.8166 21.2405 13.6539C21.2444 12.2964 21.2484 10.9388 21.2334 9.58132C21.2194 8.6807 21.1978 7.77828 21.0986 6.88239C21.0136 6.16126 20.8863 5.42822 20.5543 4.7748C20.2531 4.17491 19.7425 3.68591 19.1339 3.40385C18.7038 3.20119 18.2393 3.0831 17.7728 3.00078C17.2586 2.91103 16.7381 2.86424 16.2176 2.8323C15.1839 2.77202 14.1481 2.7691 13.1132 2.76483C11.8266 2.76483 10.5402 2.75808 9.25382 2.779Z" fill="#4B4B4B"/>
<path d="M5.69815 9.70233C5.98764 9.69783 6.27735 9.69918 6.56683 9.6994C6.86576 9.70165 7.16582 9.69985 7.4634 9.73224C7.67528 9.75631 7.89032 9.80535 8.07184 9.92253C8.36087 10.1068 8.59682 10.3938 8.67307 10.7327C8.73763 11.0114 8.74078 11.2993 8.74685 11.5839C8.74977 12.0339 8.75337 12.484 8.7419 12.9339C8.72886 13.2281 8.71536 13.5336 8.58917 13.8053C8.45939 14.0669 8.24436 14.2848 7.98704 14.4223C7.72972 14.5525 7.43551 14.5725 7.15255 14.5867C6.71034 14.6022 6.2679 14.5963 5.82569 14.5954C5.51146 14.5898 5.19318 14.5909 4.88526 14.5203C4.55124 14.4456 4.26827 14.2146 4.08316 13.9321C3.94955 13.7308 3.90074 13.4881 3.87847 13.251C3.84293 12.8385 3.8544 12.4242 3.85193 12.0108C3.85283 11.6961 3.85013 11.3808 3.87645 11.067C3.89826 10.827 3.9428 10.5791 4.07708 10.374C4.2595 10.0897 4.54111 9.8564 4.87446 9.77835C5.1437 9.7138 5.42261 9.70885 5.69815 9.70233ZM5.5452 10.8164C5.30632 10.8405 5.08117 11.0006 5.00694 11.233C4.93519 11.4626 4.94554 11.7071 4.94059 11.9449C4.94126 12.2222 4.93407 12.5002 4.95408 12.7773C4.96825 12.9521 5.00334 13.1397 5.12908 13.2711C5.22085 13.3775 5.35086 13.4443 5.48784 13.4692C5.73954 13.5169 5.99731 13.5045 6.25215 13.5088C6.49283 13.5066 6.73418 13.5135 6.97395 13.4904C7.12443 13.4748 7.28188 13.4407 7.4002 13.3403C7.50771 13.2542 7.58351 13.1318 7.61365 12.9978C7.66269 12.7848 7.65751 12.5646 7.66066 12.3475C7.65819 12.063 7.66899 11.7778 7.64514 11.4939C7.63007 11.3349 7.59656 11.1671 7.48837 11.0431C7.39412 10.9259 7.25512 10.8513 7.10779 10.8256C6.85564 10.7791 6.59787 10.7912 6.3428 10.7872C6.07693 10.7905 5.80927 10.7791 5.5452 10.8164Z" fill="#4B4B4B"/>
<path d="M17.4433 9.71177C18.2101 9.62764 19.0052 9.9358 19.5158 10.5139C20.0147 11.0625 20.2367 11.8457 20.1036 12.5747C19.9774 13.3205 19.4801 13.9897 18.805 14.3298C18.1338 14.6778 17.3 14.6854 16.6221 14.3514C15.9869 14.0457 15.4981 13.453 15.3229 12.7699C15.1843 12.2434 15.2271 11.6707 15.4455 11.1718C15.6956 10.5921 16.1792 10.1184 16.7643 9.88114C16.9809 9.79207 17.2103 9.73516 17.4433 9.71177ZM17.5484 10.8002C17.0816 10.8452 16.6543 11.154 16.4608 11.5805C16.3009 11.9242 16.295 12.3358 16.4469 12.6835C16.5787 12.993 16.8313 13.2486 17.1385 13.3853C17.4588 13.5299 17.836 13.5419 18.1651 13.4184C18.4708 13.3057 18.7313 13.0776 18.8853 12.7908C19.0322 12.5202 19.0813 12.1988 19.0237 11.8967C18.9629 11.5638 18.7699 11.2586 18.4978 11.0582C18.2283 10.8571 17.8824 10.7638 17.5484 10.8002Z" fill="#4B4B4B"/>
<path opacity="0.5" d="M12.4695 6.55266C13.0293 6.06209 13.7882 5.81984 14.5287 5.8664C15.4932 5.91858 16.4019 6.40623 17.0475 7.11363C17.0549 6.98228 17.0564 6.83832 17.1437 6.7308C17.2335 6.60822 17.3977 6.55289 17.5445 6.58505C17.8095 6.63678 18.0066 6.90625 17.9845 7.17369C17.9535 7.62288 17.924 8.07206 17.8918 8.52125C17.879 8.68904 17.7564 8.84649 17.5895 8.88338C17.4926 8.9097 17.3929 8.88608 17.2991 8.85999C16.8648 8.74707 16.43 8.63618 15.9957 8.52372C15.7204 8.45444 15.5287 8.14899 15.5928 7.87097C15.6236 7.7196 15.7476 7.59026 15.901 7.56214C16.0364 7.53245 16.1673 7.59274 16.2975 7.62018C15.769 7.10284 15.0226 6.78591 14.2774 6.85452C13.7959 6.89635 13.3312 7.11318 12.9935 7.4598C12.637 7.82059 12.4285 8.31296 12.3802 8.815C12.3734 8.91285 12.3453 9.01227 12.2801 9.08739C12.1903 9.19761 12.0385 9.24732 11.9002 9.22078C11.6401 9.17534 11.4413 8.91892 11.4499 8.65733C11.5061 7.86175 11.8597 7.0763 12.4695 6.55266Z" fill="#4B4B4B"/>
<path opacity="0.5" d="M11.8405 9.79571C11.9957 9.76152 12.1617 9.77974 12.3052 9.84834C12.7466 10.0604 13.1874 10.273 13.6285 10.4856C13.8215 10.5785 13.9677 10.7618 14.0156 10.9707C14.1245 11.4462 14.2329 11.9217 14.3413 12.3975C14.3903 12.6087 14.3384 12.8404 14.2021 13.0093C13.9065 13.3806 13.6098 13.7511 13.3145 14.1227C13.2196 14.2504 13.0851 14.349 12.9317 14.3933C12.8161 14.4299 12.6935 14.4239 12.5738 14.4236C12.139 14.4234 11.704 14.4239 11.2692 14.4236C11.1059 14.4239 10.9433 14.3676 10.8155 14.2655C10.7346 14.203 10.6756 14.1184 10.612 14.0397C10.3362 13.6933 10.0595 13.3473 9.78401 13.0007C9.6522 12.832 9.60227 12.604 9.65152 12.3957C9.76062 11.9184 9.86881 11.4411 9.97857 10.964C10.0281 10.7548 10.177 10.5731 10.3715 10.482C10.7753 10.287 11.1797 10.0926 11.5837 9.89782C11.6662 9.85711 11.7497 9.81483 11.8405 9.79571ZM11.8198 10.9253C11.7103 10.9523 11.6129 11.011 11.5112 11.0576C11.3313 11.1493 11.125 11.2146 10.9982 11.3819C10.8497 11.5547 10.8365 11.7906 10.7807 12.0016C10.7379 12.1638 10.7046 12.3363 10.7555 12.5007C10.7973 12.6759 10.9273 12.8059 11.0342 12.9438C11.1518 13.0878 11.2568 13.2547 11.4325 13.3345C11.5965 13.4227 11.7868 13.4117 11.9667 13.4106C12.0715 13.4092 12.1766 13.413 12.2814 13.4085C12.4829 13.3977 12.6771 13.2965 12.8028 13.1388C12.9056 13.0097 13.0088 12.8813 13.1112 12.752C13.2333 12.5959 13.2866 12.388 13.2535 12.1926C13.2194 12.0239 13.1773 11.857 13.1404 11.6889C13.1028 11.5106 12.9962 11.3477 12.8464 11.2438C12.6899 11.1464 12.5165 11.0801 12.3529 10.9955C12.1912 10.9084 11.9984 10.8787 11.8198 10.9253Z" fill="#4B4B4B"/>
<path opacity="0.5" d="M5.47186 15.7467C5.44712 15.4423 5.71591 15.1353 6.02834 15.1562C6.22133 15.1645 6.3817 15.3335 6.39632 15.5233C6.43096 15.9176 6.55557 16.3074 6.77983 16.6356C7.0097 16.9768 7.3453 17.2451 7.7288 17.394C8.10871 17.5434 8.53113 17.5724 8.93105 17.4968C9.45424 17.3994 9.93874 17.1316 10.3193 16.7624C10.1873 16.7897 10.0539 16.8515 9.91692 16.8191C9.77004 16.7899 9.65128 16.6678 9.61686 16.5233C9.54714 16.2519 9.72506 15.9482 9.99115 15.8666C10.3951 15.7595 10.8007 15.6576 11.2053 15.5526C11.3083 15.5289 11.4093 15.4893 11.5162 15.4873C11.6518 15.4862 11.785 15.5602 11.8531 15.6778C11.8992 15.7514 11.9145 15.8389 11.9186 15.9244C11.9435 16.3036 11.9701 16.6826 11.9957 17.0616C12.0034 17.1761 12.0209 17.2949 11.9836 17.4062C11.9195 17.6197 11.7222 17.7976 11.4944 17.8057C11.3502 17.8129 11.2058 17.7344 11.1358 17.6075C11.0742 17.5058 11.0773 17.383 11.0688 17.2685C10.5424 17.8437 9.84809 18.2735 9.08378 18.4424C8.34264 18.6111 7.53244 18.5108 6.87947 18.112C6.28813 17.7596 5.84547 17.1804 5.63201 16.5285C5.54766 16.2755 5.4939 16.0123 5.47186 15.7467Z" fill="#4B4B4B"/>
</svg>
