<svg width="24" height="24" viewBox="0 0 24 24" fill="none" xmlns="http://www.w3.org/2000/svg">
<g clip-path="url(#clip0_35569_36338)">
<mask id="mask0_35569_36338" style="mask-type:luminance" maskUnits="userSpaceOnUse" x="0" y="0" width="24" height="24">
<path d="M24 0H0V24H24V0Z" fill="white"/>
</mask>
<g mask="url(#mask0_35569_36338)">
<mask id="mask1_35569_36338" style="mask-type:luminance" maskUnits="userSpaceOnUse" x="0" y="0" width="24" height="24">
<path d="M24 0H0V24H24V0Z" fill="white"/>
</mask>
<g mask="url(#mask1_35569_36338)">
<path opacity="0.08" d="M6.5187 3.10711C7.17381 2.97571 7.84372 3.00347 8.50623 3.00347C11.2784 3.01643 14.0525 2.97756 16.8228 3.02198C19.0565 3.10526 20.9774 5.11129 20.9885 7.34125C21.0033 10.478 21.0051 13.6147 20.9866 16.7515C20.9385 18.9333 19.0676 20.8876 16.8802 20.9912C13.6509 21.006 10.4216 20.9986 7.19231 20.9949C4.98641 20.9357 3.047 18.9722 3.00443 16.7663C2.99703 13.6166 3.00073 10.4669 3.00258 7.31719C3.00998 5.31856 4.56633 3.48648 6.5187 3.10711Z" fill="#4B4B4B"/>
<path d="M6.07031 0.828415C9.73219 0.719665 13.3959 0.832164 17.0578 0.787164C18.9984 0.717789 20.9466 1.66091 22.0716 3.24529C22.8066 4.25216 23.2116 5.48966 23.2191 6.73654C23.2341 10.1809 23.2209 13.6272 23.2247 17.0715C23.2341 18.0653 23.0259 19.0647 22.5741 19.9515C21.5953 21.9203 19.4616 23.244 17.2603 23.2272C13.6284 23.2159 9.99469 23.2459 6.36281 23.2122C3.44719 23.0959 0.910311 20.5347 0.788436 17.6247C0.758436 15.7422 0.765935 13.8578 0.78281 11.9753C0.732185 11.1353 2.10469 11.0097 2.24344 11.8328C2.32969 13.7903 2.21906 15.7553 2.29406 17.7128C2.47406 19.9234 4.51969 21.7722 6.73781 21.7272C10.3116 21.7234 13.8872 21.7328 17.4609 21.7234C19.6997 21.6728 21.6666 19.6815 21.7153 17.4484C21.7434 14.0715 21.7134 10.6947 21.7284 7.31779C21.7416 6.55279 21.6984 5.76341 21.3759 5.05466C20.7253 3.41029 19.0228 2.26279 17.2509 2.27966C13.7541 2.26654 10.2553 2.26841 6.75656 2.27779C4.82719 2.25716 2.98406 3.62216 2.45906 5.48216C2.11969 6.48904 2.38594 7.56529 2.20969 8.59279C1.92094 9.23217 0.867185 9.09904 0.79031 8.38654C0.74156 7.11529 0.696561 5.78966 1.18406 4.58779C1.95281 2.55716 3.91219 1.05154 6.07031 0.828415Z" fill="#4B4B4B"/>
<path d="M8.25246 10.5037C8.23003 9.38706 9.14399 8.33028 10.2748 8.27604C11.2803 8.22741 12.2877 8.27043 13.2933 8.2536C14.1661 8.20496 15.0782 8.65199 15.4726 9.45253C15.687 9.83963 15.724 10.4416 15.7318 10.9679C15.7363 11.2688 15.4895 11.5153 15.1885 11.5153C14.8797 11.5153 14.6383 11.2558 14.6231 10.9474C14.5915 10.3088 14.4212 9.57603 13.8129 9.43195C12.7026 9.31599 11.5756 9.39454 10.4598 9.3908C9.85984 9.35714 9.37575 9.90704 9.37762 10.485C9.37389 11.5474 9.34211 12.6154 9.39631 13.6759C9.42622 14.2202 9.96263 14.6074 10.4804 14.6111C11.2953 14.6373 12.1083 14.6036 12.9232 14.6223C13.3792 14.6036 13.9362 14.6766 14.2764 14.3006C14.5357 14.045 14.594 13.4954 14.6099 13.02C14.6205 12.703 14.8723 12.4509 15.1895 12.4509C15.4975 12.4509 15.7556 12.6893 15.742 12.997C15.706 13.8173 15.4714 14.8141 14.8857 15.2583C14.0726 15.9297 12.9624 15.7034 11.9943 15.739C11.1457 15.6978 10.228 15.8942 9.44491 15.4752C8.70664 15.1217 8.24686 14.3137 8.25433 13.502C8.24312 12.5032 8.24686 11.5025 8.25246 10.5037Z" fill="#4B4B4B"/>
</g>
</g>
</g>
<defs>
<clipPath id="clip0_35569_36338">
<rect width="24" height="24" fill="white"/>
</clipPath>
</defs>
</svg>
