<svg width="24" height="24" viewBox="0 0 24 24" fill="none" xmlns="http://www.w3.org/2000/svg">
<path d="M12.0039 18.9995C15.8699 18.9995 19.0039 15.8655 19.0039 11.9995C19.0039 8.13352 15.8699 4.99951 12.0039 4.99951C8.13791 4.99951 5.00391 8.13352 5.00391 11.9995C5.00391 15.8655 8.13791 18.9995 12.0039 18.9995Z" fill="#4B4B4B"/>
<path d="M12.002 22.959C11.452 22.959 11.002 22.549 11.002 21.999V21.919C11.002 21.369 11.452 20.919 12.002 20.919C12.552 20.919 13.002 21.369 13.002 21.919C13.002 22.469 12.552 22.959 12.002 22.959ZM19.142 20.139C18.882 20.139 18.632 20.039 18.432 19.849L18.302 19.719C17.912 19.329 17.912 18.699 18.302 18.309C18.692 17.919 19.322 17.919 19.712 18.309L19.842 18.439C20.232 18.829 20.232 19.459 19.842 19.849C19.652 20.039 19.402 20.139 19.142 20.139ZM4.86195 20.139C4.60195 20.139 4.35195 20.039 4.15195 19.849C3.76195 19.459 3.76195 18.829 4.15195 18.439L4.28195 18.309C4.67195 17.919 5.30195 17.919 5.69195 18.309C6.08195 18.699 6.08195 19.329 5.69195 19.719L5.56195 19.849C5.37195 20.039 5.11195 20.139 4.86195 20.139ZM22.002 12.999H21.922C21.372 12.999 20.922 12.549 20.922 11.999C20.922 11.449 21.372 10.999 21.922 10.999C22.472 10.999 22.962 11.449 22.962 11.999C22.962 12.549 22.552 12.999 22.002 12.999ZM2.08195 12.999H2.00195C1.45195 12.999 1.00195 12.549 1.00195 11.999C1.00195 11.449 1.45195 10.999 2.00195 10.999C2.55195 10.999 3.04195 11.449 3.04195 11.999C3.04195 12.549 2.63195 12.999 2.08195 12.999ZM19.012 5.98902C18.752 5.98902 18.502 5.88902 18.302 5.69902C17.912 5.30902 17.912 4.67902 18.302 4.28902L18.432 4.15902C18.822 3.76902 19.452 3.76902 19.842 4.15902C20.232 4.54902 20.232 5.17902 19.842 5.56902L19.712 5.69902C19.522 5.88902 19.272 5.98902 19.012 5.98902ZM4.99195 5.98902C4.73195 5.98902 4.48195 5.88902 4.28195 5.69902L4.15195 5.55902C3.76195 5.16902 3.76195 4.53902 4.15195 4.14902C4.54195 3.75902 5.17195 3.75902 5.56195 4.14902L5.69195 4.27902C6.08195 4.66902 6.08195 5.29902 5.69195 5.68902C5.50195 5.88902 5.24195 5.98902 4.99195 5.98902ZM12.002 3.03902C11.452 3.03902 11.002 2.62902 11.002 2.07902V1.99902C11.002 1.44902 11.452 0.999023 12.002 0.999023C12.552 0.999023 13.002 1.44902 13.002 1.99902C13.002 2.54902 12.552 3.03902 12.002 3.03902Z" fill="#4B4B4B"/>
</svg>
