<svg width="24" height="24" viewBox="0 0 24 24" fill="none" xmlns="http://www.w3.org/2000/svg">
<path d="M8.88776 1.27255C10.3548 1.23835 11.8224 1.25425 13.2897 1.25065C14.7198 1.26235 16.1559 1.25695 17.5773 1.43845C18.6363 1.57825 19.7154 1.86055 20.5809 2.51395C21.3648 3.09295 21.9279 3.93925 22.2213 4.86385C22.4685 5.62015 22.5774 6.41335 22.644 7.20355C22.7514 8.56975 22.7454 9.94135 22.7487 11.3105C22.7439 12.9401 22.7697 14.5709 22.6848 16.1987C22.617 17.3255 22.5039 18.473 22.0767 19.5284C21.7254 20.4065 21.0999 21.1754 20.2986 21.6806C19.4361 22.2296 18.417 22.4603 17.4141 22.5821C16.035 22.7423 14.6439 22.7387 13.2576 22.7492C11.8266 22.7459 10.3953 22.7603 8.96426 22.7291C8.11406 22.7081 7.26236 22.6724 6.41846 22.5608C5.40176 22.4255 4.36886 22.1618 3.52106 21.5609C2.73806 21.0143 2.15366 20.2079 1.83776 19.31C1.42526 18.1508 1.34456 16.9085 1.29026 15.6893C1.24496 14.4803 1.25036 13.2701 1.25006 12.0605C1.25156 10.7003 1.24076 9.33955 1.30466 7.98055C1.34516 7.18975 1.41026 6.39745 1.57496 5.62165C1.71266 4.97545 1.92716 4.33885 2.27336 3.77305C2.71286 3.04945 3.36206 2.45605 4.12136 2.08135C4.79426 1.74415 5.53466 1.56775 6.27566 1.45885C7.14056 1.33465 8.01506 1.29535 8.88776 1.27255ZM6.43046 2.95225C5.84846 3.04225 5.26376 3.17725 4.73786 3.45055C4.27376 3.69025 3.87416 4.05325 3.59216 4.49335C3.32216 4.91335 3.16256 5.39365 3.05396 5.87815C2.92826 6.45085 2.86766 7.03555 2.82776 7.61995C2.74316 8.95825 2.75246 10.2998 2.75006 11.6402C2.74976 11.8901 2.74976 12.1397 2.75006 12.3899C2.75276 13.73 2.74316 15.0719 2.82986 16.4102C2.84666 16.6604 2.86856 16.9103 2.89766 17.1596C2.96186 17.7074 3.05546 18.2564 3.24056 18.7778C3.38486 19.187 3.59816 19.5758 3.89186 19.8974C4.19156 20.2313 4.57016 20.4905 4.98296 20.6651C5.57156 20.9159 6.20786 21.0266 6.83966 21.1019C7.09886 21.1313 7.35896 21.1541 7.61936 21.1715C8.95736 21.2561 10.2993 21.2468 11.6397 21.2492C11.8995 21.2495 12.1593 21.2495 12.4194 21.2492C13.7595 21.2465 15.1014 21.2558 16.4397 21.1673C16.7001 21.149 16.9602 21.1259 17.2194 21.0947C17.7552 21.029 18.2913 20.9345 18.8004 20.7506C19.2018 20.6063 19.5822 20.3951 19.8981 20.1065C20.238 19.8011 20.4999 19.4141 20.6748 18.9932C20.9184 18.4109 21.027 17.783 21.1014 17.1596C21.1296 16.9103 21.1518 16.6604 21.1689 16.4102C21.2556 15.0719 21.2463 13.73 21.2487 12.3896C21.249 12.1397 21.249 11.8898 21.2487 11.6399C21.2466 10.2998 21.2556 8.95825 21.1713 7.61995C21.138 7.12795 21.0882 6.63625 21 6.15055C20.9025 5.62915 20.7597 5.10835 20.4972 4.64395C20.2731 4.24435 19.9551 3.89875 19.5774 3.63985C19.1838 3.37045 18.7296 3.20305 18.2688 3.08905C17.7078 2.95225 17.1321 2.88625 16.5573 2.84065C15.7896 2.78335 15.0201 2.76685 14.2506 2.75755C12.9402 2.74615 11.6295 2.75005 10.3188 2.75275C9.02127 2.76685 7.71746 2.76625 6.43046 2.95225Z" fill="#4B4B4B"/>
<path opacity="0.75" d="M6.43083 2.95239C7.71783 2.76639 9.02163 2.76699 10.3191 2.75289C11.6298 2.75019 12.9405 2.74629 14.2509 2.75769C15.0204 2.76699 15.7899 2.78349 16.5576 2.84079C17.1324 2.88639 17.7081 2.95239 18.2691 3.08919C18.7299 3.20319 19.1841 3.37059 19.5777 3.63999C19.9554 3.89889 20.2734 4.24449 20.4975 4.64409C20.76 5.10849 20.9028 5.62929 21.0003 6.15069C21.0885 6.63639 21.1383 7.12809 21.1716 7.62009C19.8543 7.62009 18.537 7.62009 17.2197 7.62009C16.9596 7.62009 16.6998 7.62009 16.4397 7.62009C15.0996 7.62009 13.7598 7.62009 12.4197 7.62009C12.1596 7.62009 11.8998 7.62009 11.6397 7.62009C10.2996 7.62009 8.95953 7.62009 7.61943 7.62009C7.35963 7.62009 7.09983 7.62009 6.83973 7.62009C5.50263 7.62009 4.16523 7.62009 2.82812 7.62009C2.86803 7.03569 2.92863 6.45099 3.05433 5.87829C3.16293 5.39379 3.32253 4.91349 3.59253 4.49349C3.87453 4.05339 4.27413 3.69039 4.73823 3.45069C5.26413 3.17739 5.84883 3.04239 6.43083 2.95239Z" fill="#4B4B4B"/>
<path opacity="0.5" d="M6.83953 7.61719C7.09963 7.61719 7.35943 7.61719 7.61923 7.61719C7.62013 8.95699 7.61863 10.2968 7.62013 11.6366C8.95963 11.6375 10.2994 11.6375 11.6389 11.6366C11.6404 10.2968 11.6389 8.95699 11.6395 7.61719C11.8996 7.61719 12.1594 7.61719 12.4195 7.61719C12.4201 8.95699 12.4186 10.2968 12.4201 11.6369C13.7596 11.6375 15.0994 11.6378 16.4392 11.6366C16.4401 10.2968 16.4392 8.95699 16.4395 7.61719C16.6996 7.61719 16.9594 7.61719 17.2195 7.61719C17.2198 8.95699 17.2189 10.2968 17.2201 11.6366C18.5629 11.6381 19.9057 11.6366 21.2488 11.6372C21.2491 11.8871 21.2491 12.137 21.2488 12.3869C19.906 12.3878 18.5629 12.3866 17.2201 12.3875C17.2189 13.7273 17.2192 15.0671 17.2201 16.4066C18.5362 16.4081 19.8526 16.4066 21.169 16.4075C21.1519 16.6577 21.1297 16.9076 21.1015 17.1569C19.8076 17.1578 18.514 17.1563 17.2201 17.1575C17.2186 18.4691 17.2201 19.7804 17.2195 21.092C16.9603 21.1232 16.7002 21.1463 16.4398 21.1646C16.4389 19.829 16.4404 18.4934 16.4389 17.1578C15.0994 17.1569 13.7596 17.1569 12.4201 17.1578C12.4189 18.5207 12.4201 19.8836 12.4195 21.2465C12.1594 21.2468 11.8996 21.2468 11.6398 21.2465C11.6389 19.8836 11.6404 18.5207 11.6389 17.1578C10.2994 17.1569 8.95963 17.1569 7.62013 17.1575C7.61863 18.4946 7.62013 19.8317 7.61953 21.1688C7.35913 21.1514 7.09903 21.1286 6.83983 21.0992C6.83863 19.7852 6.84043 18.4715 6.83893 17.1578C5.52523 17.1563 4.21153 17.1581 2.89782 17.1569C2.86872 16.9076 2.84682 16.6577 2.83002 16.4075C4.16623 16.4063 5.50273 16.4081 6.83893 16.4066C6.83983 15.0671 6.83983 13.7273 6.83893 12.3878C5.47603 12.3863 4.11313 12.3878 2.75023 12.3872C2.74992 12.137 2.74992 11.8874 2.75023 11.6375C4.11313 11.6366 5.47603 11.6381 6.83893 11.6366C6.84043 10.2968 6.83893 8.95699 6.83953 7.61719ZM7.62013 12.3875C7.61923 13.7273 7.61923 15.0671 7.61983 16.4069C8.95963 16.4072 10.2994 16.4075 11.6392 16.4069C11.6398 15.0671 11.6398 13.7273 11.6392 12.3875C10.2994 12.3869 8.95963 12.3869 7.62013 12.3875ZM12.4198 12.3875C12.4192 13.7273 12.4189 15.0671 12.4201 16.4069C13.7596 16.4072 15.0994 16.4075 16.4392 16.4069C16.4398 15.0671 16.4398 13.7273 16.4392 12.3875C15.0994 12.3869 13.7596 12.3869 12.4198 12.3875Z" fill="#4B4B4B"/>
</svg>
