<svg width="24" height="24" viewBox="0 0 24 24" fill="none" xmlns="http://www.w3.org/2000/svg">
<path d="M7.76705 1.31589C9.16655 1.24029 10.5687 1.25169 11.9697 1.25019C13.0791 1.25019 14.1885 1.24599 15.2976 1.27689C16.0596 1.29969 16.8225 1.33809 17.5791 1.43829C18.2661 1.53069 18.952 1.67679 19.5924 1.94889C20.4379 2.30889 21.2146 2.90649 21.6501 3.72999C21.9903 4.35549 22.1871 5.04789 22.3296 5.74239C22.587 7.04259 22.6644 8.36979 22.7109 9.69159C22.7355 10.4611 22.7449 11.2309 22.7472 12.0007C22.752 12.2965 22.5597 12.58 22.287 12.6919C21.9555 12.838 21.5355 12.6991 21.3543 12.3862C21.2146 12.163 21.253 11.8927 21.246 11.6428C21.2341 10.3006 21.2113 8.95659 21.0847 7.61949C21.0142 6.91149 20.9184 6.20349 20.7366 5.51469C20.6094 5.04279 20.4454 4.56909 20.1567 4.16949C19.903 3.84729 19.5621 3.60189 19.1985 3.41769C18.6541 3.15099 18.0546 3.02079 17.4576 2.93589C16.1157 2.75619 14.7585 2.76279 13.407 2.75109C11.8377 2.75229 10.2678 2.73819 8.69855 2.77599C8.01095 2.80029 7.32275 2.83269 6.63995 2.92239C6.15185 2.98809 5.66435 3.07959 5.20025 3.24879C4.73975 3.41289 4.30505 3.66789 3.96605 4.02369C3.64655 4.34799 3.41165 4.74909 3.25805 5.17629C2.97305 5.95839 2.88875 6.79479 2.82815 7.61949C2.74325 8.95869 2.75345 10.3015 2.75015 11.6428C2.74895 11.8906 2.74925 12.1384 2.75015 12.3862C2.75315 13.7284 2.74385 15.0721 2.82995 16.4122C2.84585 16.6606 2.86745 16.909 2.89685 17.1562C2.97035 17.7661 3.07565 18.379 3.30695 18.9511C3.48005 19.3741 3.73175 19.7722 4.07495 20.0773C4.43345 20.362 4.87595 20.5126 5.30975 20.6413C5.81195 20.7838 6.32675 20.8768 6.84275 20.9521C7.09985 20.9899 7.35785 21.0214 7.61645 21.0466C8.95415 21.1834 10.2993 21.223 11.643 21.2404C11.9031 21.2473 12.1884 21.2113 12.4152 21.3688C12.648 21.5203 12.7809 21.8092 12.7443 22.0849C12.714 22.3582 12.5199 22.6045 12.2613 22.6975C12.0921 22.7641 11.9073 22.7395 11.7303 22.7416C10.2675 22.7239 8.80295 22.6822 7.34765 22.5262C6.54065 22.4371 5.73455 22.3147 4.95065 22.0984C4.40225 21.9439 3.85925 21.7435 3.38135 21.4279C3.04625 21.2104 2.76935 20.9155 2.52815 20.5999C2.19455 20.1604 1.94945 19.6588 1.77815 19.1359C1.56545 18.487 1.45595 17.8093 1.38605 17.1319C1.31285 16.4038 1.28465 15.6721 1.26845 14.941C1.24175 13.6507 1.25255 12.3601 1.25045 11.0698C1.25525 9.74919 1.25285 8.42589 1.36325 7.10859C1.44185 6.23469 1.57385 5.35419 1.89725 4.53369C2.22275 3.69009 2.79545 2.94069 3.54035 2.42529C4.07225 2.05299 4.68335 1.80699 5.31005 1.64769C6.11345 1.44459 6.94175 1.36449 7.76705 1.31589Z" fill="#4B4B4B"/>
<path opacity="0.5" d="M17.9897 16.2264C18.4751 16.1529 18.9857 16.2543 19.403 16.5141C19.7579 16.7316 20.0453 17.0571 20.2163 17.4369C20.4248 17.8917 20.4599 18.4224 20.3165 18.9018C20.1824 19.359 19.8854 19.7658 19.4921 20.0343C19.1543 20.2683 18.746 20.3979 18.335 20.403C17.8667 20.4114 17.3966 20.2575 17.0261 19.9704C16.643 19.6791 16.3661 19.251 16.2584 18.7821C16.1408 18.2862 16.2125 17.7486 16.457 17.3013C16.7636 16.7301 17.3474 16.3188 17.9897 16.2264ZM18.1865 17.562C17.9441 17.5983 17.7275 17.7627 17.6243 17.9841C17.5094 18.2229 17.5358 18.5223 17.6912 18.7371C17.8406 18.9501 18.1052 19.0752 18.365 19.0509C18.6677 19.0302 18.9419 18.8052 19.0232 18.5136C19.1006 18.2571 19.0265 17.9619 18.8345 17.7744C18.6692 17.6046 18.4199 17.5242 18.1865 17.562Z" fill="#4B4B4B"/>
<path opacity="0.75" d="M6.63993 2.92291C7.32273 2.83321 8.01092 2.80081 8.69852 2.77651C10.2678 2.73871 11.8377 2.75281 13.407 2.75161C14.7585 2.76331 16.1157 2.75671 17.4576 2.93641C18.0546 3.02131 18.654 3.15151 19.1985 3.41821C19.5621 3.60241 19.9029 3.84781 20.1567 4.17001C20.4453 4.56961 20.6094 5.04331 20.7366 5.51521C20.9184 6.20401 21.0141 6.91201 21.0846 7.62001C19.7952 7.62001 18.5058 7.62001 17.2164 7.62001C16.9584 7.61971 16.7007 7.61971 16.443 7.62001C15.1008 7.62001 13.7586 7.62001 12.4164 7.62001C12.1587 7.61971 11.9007 7.61971 11.643 7.62001C10.3008 7.62001 8.95863 7.62001 7.61643 7.62001C7.35873 7.61971 7.10073 7.61971 6.84303 7.62001C5.50473 7.62001 4.16643 7.62001 2.82812 7.62001C2.88873 6.79531 2.97303 5.95891 3.25803 5.17681C3.41163 4.74961 3.64653 4.34851 3.96603 4.02421C4.30503 3.66841 4.73973 3.41341 5.20023 3.24931C5.66433 3.08011 6.15182 2.98861 6.63993 2.92291Z" fill="#4B4B4B"/>
<path opacity="0.5" d="M6.84369 7.61741C7.10139 7.61711 7.35939 7.61711 7.61709 7.61741C7.61739 8.95841 7.61649 10.2994 7.61739 11.6404C8.95959 11.641 10.3015 11.641 11.6434 11.6404C11.644 10.2994 11.6437 8.95841 11.6437 7.61741C11.9014 7.61711 12.1594 7.61711 12.4171 7.61741C12.4171 8.95841 12.4165 10.2994 12.4174 11.6407C13.7593 11.6407 15.1015 11.6413 16.4434 11.6404C16.4443 10.2994 16.4437 8.95841 16.4437 7.61741C16.7014 7.61711 16.9591 7.61711 17.2171 7.61741C17.2171 8.95841 17.2168 10.2994 17.2174 11.6404C18.5605 11.6413 19.9036 11.6407 21.2467 11.6407C21.2536 11.8906 21.2152 12.1609 21.355 12.3841C18.3757 12.3841 15.3964 12.3838 12.4174 12.3841C12.4159 15.3784 12.4189 18.3727 12.4159 21.3667C12.1891 21.2092 11.9038 21.2452 11.6437 21.2383C11.6437 19.8772 11.644 18.5158 11.6437 17.1544C10.3015 17.1535 8.95929 17.1541 7.61709 17.1541C7.61679 18.451 7.61709 19.7476 7.61709 21.0445C7.35849 21.0193 7.10049 20.9878 6.84339 20.95C6.84399 19.6849 6.84399 18.4198 6.84339 17.1544C5.52819 17.1535 4.21269 17.1541 2.89749 17.1541C2.86809 16.9069 2.84649 16.6585 2.83059 16.4101C4.16829 16.4113 5.50569 16.411 6.84339 16.4104C6.84399 15.0682 6.84399 13.7263 6.84339 12.3844C5.47899 12.3835 4.11489 12.3841 2.75079 12.3841C2.74989 12.1363 2.74959 11.8885 2.75079 11.6407C4.11489 11.6407 5.47929 11.641 6.84369 11.6404C6.84399 10.2994 6.84369 8.95841 6.84369 7.61741ZM7.61709 12.3841C7.61679 13.7263 7.61709 15.0685 7.61709 16.4107C8.95929 16.4107 10.3012 16.411 11.6434 16.4104C11.644 15.0685 11.644 13.7263 11.6437 12.3841C10.3015 12.3838 8.95929 12.3838 7.61709 12.3841Z" fill="#4B4B4B"/>
<path d="M18.0748 12.8809C18.586 12.8179 19.093 12.9799 19.5442 13.2088C20.0923 13.4905 20.6143 13.8196 21.1465 14.1298C21.5959 14.4016 22.0591 14.6623 22.4485 15.0187C22.8133 15.3505 23.0647 15.8011 23.1577 16.285C23.2798 16.9177 23.2468 17.566 23.2522 18.2068C23.2465 18.8257 23.2756 19.4479 23.1982 20.0641C23.1475 20.4772 23.0098 20.8855 22.7602 21.2224C22.5298 21.5413 22.2145 21.7852 21.8899 22.0015C21.5065 22.2541 21.1072 22.4818 20.7133 22.717C20.3071 22.9549 19.9063 23.2039 19.4827 23.4106C19.1338 23.5828 18.7555 23.7106 18.3634 23.722C17.8903 23.7382 17.4343 23.5738 17.0191 23.3611C16.5184 23.0998 16.0384 22.8007 15.5512 22.5157C15.0883 22.2367 14.611 21.9718 14.2027 21.6142C13.8253 21.2869 13.5571 20.8366 13.4557 20.347C13.3183 19.6822 13.3597 18.9988 13.3522 18.3244C13.3591 17.6656 13.3219 17.0005 13.4341 16.348C13.5181 15.8551 13.7602 15.3901 14.1253 15.0469C14.5315 14.6665 15.0214 14.3938 15.4951 14.1079C15.9691 13.831 16.4356 13.5403 16.9201 13.2814C17.281 13.0906 17.6647 12.9232 18.0748 12.8809ZM18.1648 14.2336C17.8015 14.3113 17.4841 14.5177 17.1628 14.695C16.6351 15.0067 16.1038 15.3127 15.5839 15.6373C15.3577 15.7852 15.1234 15.9334 14.9518 16.1458C14.7796 16.363 14.7469 16.6501 14.7265 16.9174C14.6932 17.386 14.7046 17.8561 14.7022 18.3256C14.7046 18.805 14.6923 19.2856 14.734 19.7641C14.7547 20.0506 14.8288 20.3554 15.0511 20.5546C15.3922 20.8705 15.8095 21.0862 16.2025 21.3286C16.6879 21.6109 17.1625 21.9127 17.6629 22.1683C17.9023 22.2865 18.1666 22.4092 18.4405 22.3564C18.7249 22.2991 18.9793 22.1512 19.2319 22.0147C19.7146 21.7408 20.1898 21.4534 20.6671 21.1702C20.995 20.9659 21.343 20.7781 21.6109 20.4946C21.8509 20.2348 21.8659 19.861 21.8872 19.5271C21.9136 18.9067 21.8983 18.2857 21.9016 17.6647C21.8941 17.2744 21.9034 16.8784 21.8176 16.4953C21.7633 16.2382 21.5812 16.0339 21.3754 15.8818C21.0556 15.643 20.7082 15.445 20.3662 15.2404C19.912 14.9758 19.4665 14.6956 19.0006 14.4517C18.7432 14.3227 18.4615 14.179 18.1648 14.2336Z" fill="#4B4B4B"/>
</svg>
