<svg width="24" height="24" viewBox="0 0 24 24" fill="none" xmlns="http://www.w3.org/2000/svg">
<path d="M8.80465 2.68506C9.30588 2.25048 9.96208 2.00302 10.6231 2C11.7268 2 12.8306 2 13.9342 2C14.6054 2.00302 15.2711 2.25793 15.7754 2.70437C16.2269 3.10051 16.5467 3.64695 16.6659 4.23885C16.7164 4.5175 16.9603 4.7537 17.2431 4.77442C17.9512 4.8048 18.6637 4.85691 19.3534 5.03074C19.7467 5.13033 20.1308 5.27458 20.4835 5.47799C20.8949 5.71781 21.2687 6.0216 21.5972 6.36745C21.882 6.67205 22.1377 7.00724 22.3344 7.37663C22.6896 8.04518 22.8344 8.80246 22.9076 9.55049C22.9966 10.5001 22.9936 11.4552 22.9994 12.408C22.9972 13.4484 23.0072 14.4887 22.9806 15.5289C22.9575 16.2757 22.9202 17.0269 22.765 17.7597C22.6719 18.1951 22.5301 18.6222 22.3174 19.0137C22.0428 19.5119 21.672 19.9537 21.2472 20.3281C20.9642 20.5745 20.6578 20.7961 20.3241 20.9675C19.6679 21.3067 18.9319 21.4471 18.2037 21.5201C17.3022 21.6073 16.3955 21.6089 15.4907 21.6149C13.9327 21.617 12.3747 21.6161 10.8167 21.6158C10.4001 21.6157 10.0621 21.2786 10.0621 20.862C10.0622 20.4451 10.4002 20.1073 10.8171 20.1072C11.7097 20.1069 12.6024 20.1073 13.495 20.1072C14.4727 20.1058 15.4505 20.1114 16.428 20.0973C16.9593 20.0881 17.4913 20.0724 18.0204 20.0221C18.6515 19.9573 19.3065 19.8551 19.8506 19.504C20.1845 19.2867 20.4831 19.0141 20.7298 18.7001C20.8778 18.5125 21.009 18.3101 21.102 18.089C21.2827 17.6673 21.3587 17.2094 21.4091 16.7557C21.5051 15.8132 21.4965 14.8641 21.5035 13.9179C21.5021 12.9653 21.5091 12.0125 21.4901 11.06C21.4779 10.5432 21.4584 10.0259 21.3988 9.51227C21.3453 9.07025 21.2643 8.62461 21.0788 8.2176C20.9711 7.97859 20.8191 7.76271 20.6518 7.56273C20.4192 7.28609 20.145 7.04546 19.8426 6.8495C19.5708 6.67427 19.2642 6.5606 18.9519 6.48475C18.4056 6.35437 17.8431 6.31353 17.2838 6.28677C16.9627 6.28416 16.6418 6.20972 16.355 6.06305C15.8332 5.80231 15.4267 5.31905 15.2552 4.75792C15.2087 4.61427 15.1938 4.46137 15.1333 4.32194C14.976 3.92882 14.6153 3.63146 14.2061 3.54152C14.0256 3.49706 13.8389 3.51074 13.6552 3.50893C12.638 3.50933 11.6205 3.50793 10.6033 3.50954C10.0945 3.51919 9.60526 3.85236 9.41997 4.33261C9.36212 4.46901 9.34796 4.6183 9.30209 4.75853C9.15589 5.23475 8.84155 5.65544 8.42968 5.93046C8.12352 6.13709 7.76231 6.26082 7.39451 6.28195C6.97466 6.29764 6.55501 6.3256 6.13875 6.38395C5.75799 6.43908 5.37704 6.52136 5.0248 6.68091C4.8076 6.77788 4.60914 6.91187 4.42285 7.05955C4.10771 7.31084 3.83267 7.61443 3.61746 7.95666C3.31329 8.4528 3.21117 9.04047 3.14754 9.61125C3.0524 10.5534 3.06078 11.5016 3.054 12.4474C3.05334 12.8526 2.71971 13.1799 2.31458 13.1799C1.90062 13.1799 1.55824 12.8441 1.55859 12.4301C1.55921 11.6978 1.56434 10.9654 1.60018 10.2339C1.63409 9.59978 1.69273 8.96281 1.85249 8.34697C1.96458 7.91582 2.13232 7.49714 2.37127 7.12111C2.70974 6.59158 3.14734 6.12743 3.65176 5.75603C3.92262 5.55404 4.21642 5.38323 4.52816 5.25406C5.40297 4.89232 6.35975 4.81768 7.29479 4.77563C7.58419 4.76416 7.83949 4.52515 7.89095 4.24066C8.01222 3.6385 8.34072 3.08281 8.80465 2.68506Z" fill="#4B4B4B"/>
<path d="M18.0924 9.06086C18.1875 9.03692 18.2863 9.04115 18.3836 9.04155C18.683 9.04175 18.9824 9.04095 19.2815 9.04175C19.5847 9.04437 19.8703 9.25662 19.9673 9.54553C20.047 9.77087 20.0119 10.034 19.8737 10.2288C19.7375 10.4282 19.5011 10.5521 19.2612 10.5501C18.9287 10.5507 18.5962 10.5507 18.2639 10.5501C18.1237 10.5501 17.9841 10.5098 17.8658 10.4342C17.6384 10.293 17.4992 10.0216 17.5172 9.75256C17.5305 9.42723 17.7775 9.13148 18.0924 9.06086Z" fill="#4B4B4B"/>
<path d="M11.8704 9.06345C12.589 8.98378 13.3304 9.11717 13.9743 9.45034C14.6428 9.79216 15.2041 10.3426 15.5625 11.0065C15.8908 11.6087 16.0474 12.3034 16.0149 12.9895C15.9877 13.6108 15.804 14.224 15.4855 14.7565C15.2194 15.2028 14.8606 15.5923 14.4394 15.8933C13.9062 16.2759 13.2712 16.5125 12.6194 16.5705C11.93 16.6341 11.2228 16.5029 10.6047 16.1872C10.0079 15.887 9.49472 15.4207 9.13391 14.8551C8.73061 14.2284 8.52218 13.4776 8.54013 12.731C8.5533 12.0523 8.75315 11.3788 9.11276 10.8052C9.50728 10.1716 10.0925 9.66119 10.7714 9.36041C11.1197 9.20509 11.4918 9.10489 11.8704 9.06345ZM11.9687 10.5716C11.7769 10.5985 11.5882 10.6502 11.4099 10.7263C10.8231 10.9721 10.353 11.482 10.1523 12.09C9.92693 12.7527 10.0308 13.5184 10.4284 14.0934C10.8211 14.6785 11.4984 15.0567 12.1995 15.0756C12.8914 15.106 13.5857 14.7869 14.0191 14.2425C14.4773 13.685 14.6378 12.8987 14.4404 12.2032C14.3327 11.8117 14.1167 11.452 13.8247 11.1725C13.3392 10.7009 12.6357 10.4738 11.9687 10.5716Z" fill="#4B4B4B"/>
<path opacity="0.5" d="M4.36072 14.5593C4.53305 14.4553 4.74746 14.4281 4.94053 14.4824C5.24809 14.5641 5.48245 14.8629 5.48703 15.1842C5.48763 15.9469 5.48703 16.7098 5.48723 17.4725C6.23538 17.4729 6.98354 17.4723 7.73189 17.4729C7.95587 17.4715 8.17727 17.5787 8.31589 17.7564C8.4571 17.9314 8.51115 18.1723 8.46189 18.3922C8.39427 18.7209 8.08632 18.9788 7.75283 18.9812C6.9977 18.9822 6.24256 18.9812 5.48743 18.9816C5.48683 19.7411 5.48743 20.5006 5.48723 21.2603C5.48683 21.5509 5.29915 21.8277 5.03407 21.9394C4.77299 22.055 4.44888 22.0013 4.23925 21.8058C4.08148 21.6645 3.98973 21.4535 3.99173 21.241C3.99073 20.488 3.99173 19.7349 3.99113 18.9818C3.2368 18.9812 2.48246 18.9822 1.72813 18.9812C1.49477 18.978 1.26879 18.8535 1.13575 18.6609C1.01209 18.4863 0.970404 18.2568 1.02106 18.0487C1.09446 17.725 1.40062 17.4749 1.73032 17.4733C2.48406 17.4719 3.23759 17.4731 3.99133 17.4727C3.99133 16.7631 3.99133 16.0535 3.99133 15.3439C3.99173 15.2502 3.98714 15.1554 4.00609 15.063C4.04578 14.8542 4.17882 14.6661 4.36072 14.5593Z" fill="#4B4B4B"/>
</svg>
