<svg width="24" height="24" viewBox="0 0 24 24" fill="none" xmlns="http://www.w3.org/2000/svg">
<path d="M4.3375 2.36749C5.465 2.15999 6.6275 2.24999 7.77 2.25749C9.2575 2.19499 10.6875 3.46999 10.7275 4.96999C10.7775 5.98999 10.78 7.01499 10.7275 8.03499C10.6725 9.42999 9.4275 10.6875 8.0275 10.7275C7.01 10.7775 5.99 10.78 4.9725 10.7275C3.5725 10.675 2.3075 9.42749 2.2725 8.01999C2.2225 7.00249 2.22 5.97999 2.275 4.96249C2.315 3.77499 3.225 2.71749 4.3375 2.36749ZM4.795 3.81249C4.285 3.97499 3.78 4.42499 3.7825 4.99999C3.725 6.06249 3.6875 7.13499 3.81 8.19499C3.97 8.70499 4.4125 9.21749 4.985 9.21749C6.055 9.27249 7.135 9.31499 8.2025 9.18749C8.71 9.02749 9.22 8.57999 9.2175 8.00749C9.275 6.93999 9.3125 5.85999 9.19 4.79749C9.025 4.29749 8.59 3.78999 8.025 3.78499C6.95 3.72499 5.865 3.68499 4.795 3.81249Z" fill="#4B4B4B"/>
<path d="M15.3375 13.3675C16.4625 13.16 17.6225 13.25 18.76 13.2575C20.2525 13.19 21.685 14.465 21.7275 15.97C21.7775 16.985 21.78 18.005 21.7275 19.02C21.68 20.4175 20.435 21.685 19.0325 21.7275C18.015 21.7775 16.9975 21.78 15.9825 21.7275C14.58 21.68 13.31 20.4325 13.2725 19.025C13.2225 18.015 13.22 17.0025 13.2725 15.9925C13.3025 14.7925 14.215 13.72 15.3375 13.3675ZM15.805 14.81C15.295 14.97 14.785 15.4175 14.785 15.99C14.725 17.055 14.6875 18.1325 14.81 19.195C14.9675 19.7075 15.4175 20.22 15.995 20.2175C17.0625 20.275 18.14 20.3125 19.205 20.1875C19.7075 20.0275 20.215 19.5875 20.215 19.02C20.275 17.9525 20.3125 16.8725 20.19 15.81C20.0325 15.2975 19.585 14.785 19.0125 14.7825C17.945 14.725 16.8675 14.6875 15.805 14.81Z" fill="#4B4B4B"/>
<path opacity="0.5" d="M17.1025 2.38C17.4725 2.0825 18.0725 2.3075 18.1825 2.7575C18.6275 3.885 19.3375 5.0125 20.52 5.465C20.97 5.73 21.735 5.8525 21.75 6.5C21.755 7.16 20.96 7.24 20.525 7.52C19.3525 7.99 18.64 9.09 18.2025 10.22C18.0825 10.7425 17.305 10.9625 16.9825 10.51C16.55 9.78 16.32 8.91 15.665 8.3325C15.1175 7.715 14.31 7.475 13.6075 7.0925C13.13 6.89 13.1375 6.09 13.6175 5.9025C14.3725 5.505 15.225 5.2275 15.785 4.545C16.43 3.9575 16.545 3.0125 17.1025 2.38ZM15.8 6.5125C16.4625 6.975 17.04 7.545 17.515 8.2C17.9875 7.545 18.5525 6.965 19.2025 6.485C18.5425 6.02 17.965 5.445 17.495 4.79C17.0325 5.4575 16.46 6.0375 15.8 6.5125Z" fill="#4B4B4B"/>
<path opacity="0.5" d="M4.335 13.3675C5.465 13.155 6.6275 13.26 7.7725 13.2575C9.265 13.195 10.6925 14.48 10.73 15.9825C10.775 17.0025 10.775 18.025 10.7275 19.045C10.6775 20.2275 9.7775 21.2775 8.6675 21.63C7.5375 21.845 6.3725 21.74 5.23 21.7425C4.205 21.7775 3.22 21.2075 2.6875 20.345C1.9725 19.195 2.3275 17.76 2.2475 16.4825C2.125 15.1175 3.025 13.7675 4.335 13.3675ZM4.82 14.8025C3.945 15.0075 3.635 15.935 3.745 16.7425C3.835 17.88 3.35 19.46 4.5775 20.1375C5.6275 20.3475 6.72 20.245 7.7875 20.24C8.46 20.2575 9.195 19.725 9.2175 19.02C9.265 17.9525 9.3125 16.8725 9.195 15.8075C9.03 15.3 8.59 14.78 8.0125 14.78C6.95 14.7325 5.88 14.69 4.82 14.8025Z" fill="#4B4B4B"/>
</svg>
