<svg width="24" height="24" viewBox="0 0 24 24" fill="none" xmlns="http://www.w3.org/2000/svg">
<path d="M4.3375 2.36725C5.465 2.15975 6.6275 2.24975 7.77 2.25725C9.2575 2.19475 10.6875 3.46975 10.7275 4.96975C10.7775 5.98975 10.78 7.01475 10.7275 8.03475C10.6725 9.42975 9.4275 10.6873 8.0275 10.7273C7.01 10.7773 5.99 10.7798 4.9725 10.7273C3.5725 10.6748 2.3075 9.42725 2.2725 8.01975C2.2225 7.00225 2.22 5.97975 2.275 4.96225C2.315 3.77475 3.225 2.71725 4.3375 2.36725ZM4.795 3.81225C4.285 3.97475 3.78 4.42475 3.7825 4.99975C3.725 6.06225 3.6875 7.13475 3.81 8.19475C3.97 8.70475 4.4125 9.21725 4.985 9.21725C6.055 9.27225 7.135 9.31475 8.2025 9.18725C8.71 9.02725 9.22 8.57975 9.2175 8.00725C9.275 6.93975 9.3125 5.85975 9.19 4.79725C9.025 4.29725 8.59 3.78975 8.025 3.78475C6.95 3.72475 5.865 3.68475 4.795 3.81225Z" fill="#4B4B4B"/>
<path d="M15.3373 13.3677C16.4623 13.1602 17.6223 13.2502 18.7598 13.2577C20.2523 13.1902 21.6848 14.4652 21.7273 15.9702C21.7773 16.9852 21.7798 18.0052 21.7273 19.0202C21.6798 20.4177 20.4348 21.6852 19.0323 21.7277C18.0148 21.7777 16.9973 21.7802 15.9823 21.7277C14.5798 21.6802 13.3098 20.4327 13.2723 19.0252C13.2223 18.0152 13.2198 17.0027 13.2723 15.9927C13.3023 14.7927 14.2148 13.7202 15.3373 13.3677ZM15.8048 14.8102C15.2948 14.9702 14.7848 15.4177 14.7848 15.9902C14.7248 17.0552 14.6873 18.1327 14.8098 19.1952C14.9673 19.7077 15.4173 20.2202 15.9948 20.2177C17.0623 20.2752 18.1398 20.3127 19.2048 20.1877C19.7073 20.0277 20.2148 19.5877 20.2148 19.0202C20.2748 17.9527 20.3123 16.8727 20.1898 15.8102C20.0323 15.2977 19.5848 14.7852 19.0123 14.7827C17.9448 14.7252 16.8673 14.6877 15.8048 14.8102Z" fill="#4B4B4B"/>
<path opacity="0.5" d="M17.1025 2.38003C17.4725 2.08253 18.0725 2.30753 18.1825 2.75753C18.6275 3.88503 19.3375 5.01253 20.52 5.46503C20.97 5.73003 21.735 5.85253 21.75 6.50003C21.755 7.16003 20.96 7.24003 20.525 7.52003C19.3525 7.99003 18.64 9.09003 18.2025 10.22C18.0825 10.7425 17.305 10.9625 16.9825 10.51C16.55 9.78003 16.32 8.91003 15.665 8.33253C15.1175 7.71503 14.31 7.47503 13.6075 7.09253C13.13 6.89003 13.1375 6.09003 13.6175 5.90253C14.3725 5.50503 15.225 5.22753 15.785 4.54503C16.43 3.95753 16.545 3.01253 17.1025 2.38003ZM15.8 6.51253C16.4625 6.97503 17.04 7.54503 17.515 8.20003C17.9875 7.54503 18.5525 6.96503 19.2025 6.48503C18.5425 6.02003 17.965 5.44503 17.495 4.79003C17.0325 5.45753 16.46 6.03753 15.8 6.51253Z" fill="#4B4B4B"/>
<path opacity="0.5" d="M4.33527 13.3672C5.46527 13.1547 6.62777 13.2597 7.77277 13.2572C9.26527 13.1947 10.6927 14.4797 10.7302 15.9822C10.7752 17.0022 10.7752 18.0247 10.7277 19.0447C10.6777 20.2272 9.77777 21.2772 8.66777 21.6297C7.53777 21.8447 6.37277 21.7397 5.23027 21.7422C4.20527 21.7772 3.22027 21.2072 2.68777 20.3447C1.97277 19.1947 2.32777 17.7597 2.24777 16.4822C2.12527 15.1172 3.02527 13.7672 4.33527 13.3672ZM4.82027 14.8022C3.94527 15.0072 3.63527 15.9347 3.74527 16.7422C3.83527 17.8797 3.35027 19.4597 4.57777 20.1372C5.62777 20.3472 6.72027 20.2447 7.78777 20.2397C8.46027 20.2572 9.19527 19.7247 9.21777 19.0197C9.26527 17.9522 9.31277 16.8722 9.19527 15.8072C9.03027 15.2997 8.59027 14.7797 8.01277 14.7797C6.95027 14.7322 5.88027 14.6897 4.82027 14.8022Z" fill="#4B4B4B"/>
</svg>
