<svg width="24" height="24" viewBox="0 0 24 24" fill="none" xmlns="http://www.w3.org/2000/svg">
<path d="M4.53983 2.07505C5.07854 2.0105 5.62174 2.0069 6.16337 2.00645C6.68049 2.00375 7.19783 2.00105 7.71517 2.0069C8.16143 2.01477 8.61241 2.04086 9.0454 2.15805C9.77012 2.36094 10.4008 2.83846 10.8431 3.44173C11.391 4.17612 11.7309 5.03378 12.1548 5.8397C13.4718 5.8415 14.7888 5.84038 16.1057 5.84083C16.6678 5.8415 17.2302 5.83655 17.792 5.8532C18.2358 5.86692 18.6807 5.88694 19.1196 5.95914C19.5127 6.02459 19.9032 6.13683 20.2505 6.3368C20.8288 6.66767 21.3108 7.16814 21.6116 7.7633C21.9305 8.42549 21.987 9.17294 22.0155 9.89631C22.0335 10.2506 21.7454 10.5879 21.3941 10.6305C21.0711 10.6799 20.7323 10.4739 20.623 10.1669C20.5503 9.96446 20.5803 9.74606 20.5562 9.5362C20.5209 9.13087 20.4865 8.70913 20.291 8.34362C20.103 8.01882 19.8283 7.74058 19.495 7.56536C19.2208 7.41668 18.9057 7.38137 18.6016 7.34133C18.0413 7.28128 17.4769 7.28712 16.9146 7.28218C13.578 7.27655 10.2414 7.28173 6.90497 7.27948C6.54575 7.28195 6.21511 6.97425 6.19217 6.61548C6.1573 6.26482 6.42609 5.92023 6.76911 5.85342C6.85076 5.83768 6.93421 5.84218 7.01698 5.84173C8.19359 5.83655 9.36997 5.8433 10.5466 5.83993C10.3142 5.38962 10.1046 4.92559 9.82636 4.50092C9.70062 4.30883 9.56521 4.12011 9.39404 3.96581C9.19565 3.78429 8.96083 3.64034 8.70441 3.55734C8.45833 3.47479 8.19584 3.47119 7.93942 3.45567C7.36945 3.43453 6.79925 3.44555 6.22905 3.4442C5.72769 3.446 5.22519 3.4469 4.72607 3.50133C4.42917 3.53507 4.12551 3.5958 3.86797 3.75573C3.51663 3.97323 3.2159 4.28566 3.04787 4.66647C2.94148 4.90422 2.90864 5.16536 2.8794 5.42178C2.82924 5.92203 2.83509 6.42542 2.83127 6.92746C2.82587 8.62996 2.82857 10.3324 2.83194 12.0351C2.84184 13.1227 2.84904 14.2131 2.9669 15.2957C3.03033 15.8432 3.11783 16.3929 3.30654 16.9132C3.40844 17.1905 3.53552 17.4611 3.70827 17.702C3.90283 17.9758 4.14508 18.2158 4.42084 18.4072C4.78973 18.6661 5.22002 18.821 5.65323 18.9333C6.49987 19.147 7.37642 19.1917 8.24487 19.2336C9.40956 19.2813 10.5756 19.2615 11.741 19.2745C12.0835 19.2783 12.3894 19.5689 12.4266 19.9068C12.483 20.2961 12.1544 20.6889 11.7632 20.7093C10.7733 20.7075 9.78294 20.7147 8.79325 20.6904C7.87531 20.665 6.9549 20.6263 6.04686 20.4828C5.29267 20.3609 4.53893 20.1558 3.87606 19.7662C3.17226 19.3517 2.58587 18.7376 2.21518 18.0088C1.85282 17.3059 1.6749 16.5245 1.57211 15.7451C1.4385 14.7165 1.41128 13.678 1.39869 12.642C1.38474 11.135 1.39104 9.62797 1.38969 8.12094C1.38969 7.5359 1.39217 6.95063 1.39554 6.36559C1.40971 5.7738 1.41556 5.17458 1.55816 4.59652C1.69222 4.03127 2.00172 3.51663 2.40187 3.09938C2.77818 2.71003 3.24536 2.40615 3.75955 2.23385C4.01192 2.14928 4.27599 2.10587 4.53983 2.07505Z" fill="#4B4B4B"/>
<path opacity="0.5" d="M16.7885 12.3174C17.0303 12.2371 17.3171 12.3354 17.4606 12.5455C17.6277 12.7758 17.5969 13.1233 17.3884 13.3181C17.0132 13.6623 16.6337 14.0021 16.259 14.3472C17.8868 14.3472 19.5144 14.3472 21.1422 14.3469C21.2596 14.3474 21.3816 14.3393 21.4936 14.3829C21.7142 14.4605 21.8768 14.678 21.8879 14.9117C21.9056 15.1628 21.7457 15.4145 21.5107 15.5047C21.3872 15.5557 21.2511 15.5472 21.1204 15.5465C19.5 15.5465 17.8794 15.5465 16.259 15.5467C16.6304 15.8866 17.004 16.2247 17.3767 16.5634C17.5258 16.7004 17.5996 16.9152 17.558 17.1147C17.52 17.3268 17.3596 17.5117 17.1531 17.5751C16.9576 17.6363 16.7293 17.5947 16.5759 17.4566C15.8143 16.7634 15.0509 16.0719 14.2904 15.3776C14.0479 15.1596 14.0477 14.734 14.29 14.5161C15.0073 13.8611 15.7275 13.2092 16.4457 12.5554C16.5469 12.4602 16.6515 12.3577 16.7885 12.3174Z" fill="#4B4B4B"/>
<path opacity="0.5" d="M18.6752 16.5168C18.8947 16.3526 19.2292 16.3706 19.4287 16.5595C20.1394 17.2057 20.8504 17.8522 21.5615 18.4982C21.6591 18.5877 21.7686 18.6723 21.8269 18.7946C21.9429 19.0225 21.8901 19.3237 21.7002 19.496C21.0095 20.1247 20.3183 20.7531 19.6271 21.3816C19.5346 21.4612 19.4512 21.5521 19.3508 21.622C19.1835 21.7302 18.9604 21.7486 18.7791 21.6643C18.6126 21.5907 18.4858 21.4358 18.4428 21.2594C18.3935 21.0606 18.454 20.8372 18.6018 20.6944C18.9761 20.348 19.3585 20.0106 19.7314 19.6626C18.0579 19.6566 16.3845 19.6622 14.711 19.6606C14.5832 19.659 14.4548 19.6222 14.3518 19.545C14.1736 19.415 14.0756 19.182 14.114 18.964C14.1457 18.7494 14.307 18.5641 14.5104 18.493C14.6174 18.4518 14.7337 18.462 14.8459 18.4613C16.4758 18.4613 18.1056 18.4617 19.7355 18.4597C19.3706 18.1268 19.0051 17.7946 18.6392 17.4631C18.549 17.3837 18.479 17.28 18.4475 17.1635C18.3791 16.9286 18.4752 16.6574 18.6752 16.5168Z" fill="#4B4B4B"/>
</svg>
