<svg width="24" height="25" viewBox="0 0 24 25" fill="none" xmlns="http://www.w3.org/2000/svg">
<path d="M2.56376 2.83521C3.02869 2.73399 3.50824 2.75379 3.98081 2.74929C9.19963 2.74929 14.4185 2.74929 19.6373 2.74929C20.1382 2.75401 20.6414 2.73309 21.1407 2.78618C21.5188 2.82734 21.9019 2.95262 22.1839 3.21714C22.4622 3.46704 22.623 3.82445 22.6824 4.18951C22.7586 4.65759 22.7386 5.13377 22.7433 5.60612C22.7386 6.04496 22.7523 6.48942 22.6597 6.92128C22.5859 7.26925 22.4073 7.60035 22.1297 7.8273C21.8782 8.04031 21.557 8.1512 21.2349 8.19888C20.8467 8.25219 20.4538 8.24567 20.0628 8.24792C14.6573 8.24769 9.25204 8.24792 3.84653 8.24769C3.48035 8.24545 3.11236 8.24972 2.7491 8.19686C2.37931 8.1449 2.01245 7.9969 1.75041 7.72383C1.48927 7.46179 1.34936 7.10213 1.2992 6.74044C1.24634 6.37246 1.25197 5.99952 1.24927 5.62861C1.25084 5.26085 1.24409 4.89242 1.27019 4.52511C1.29605 4.13845 1.38265 3.73875 1.6213 3.42408C1.84691 3.11727 2.1942 2.91461 2.56376 2.83521ZM2.87686 4.3022C2.78801 4.31007 2.79881 4.42029 2.78126 4.48395C2.7311 4.94595 2.75427 5.41201 2.75022 5.87604C2.75832 6.14348 2.7419 6.41834 2.82018 6.67746C2.94794 6.71997 3.08334 6.72897 3.21695 6.73707C3.59911 6.75371 3.98194 6.74651 4.36454 6.74831C9.64275 6.74809 14.9209 6.74899 20.1991 6.74786C20.4918 6.74336 20.7871 6.75461 21.0766 6.70378C21.1166 6.69231 21.1796 6.69141 21.185 6.63787C21.239 6.42576 21.2347 6.20421 21.2412 5.98693C21.2442 5.60522 21.2464 5.22329 21.2376 4.84158C21.2298 4.66636 21.2273 4.48754 21.1724 4.31907C20.9151 4.24305 20.6427 4.25767 20.3775 4.25002C15.4968 4.24732 10.616 4.24957 5.73527 4.24889C4.98603 4.25024 4.23701 4.24597 3.48777 4.25137C3.28376 4.25699 3.0766 4.25564 2.87686 4.3022Z" fill="#4B4B4B"/>
<path d="M9.28916 11.2759C9.54918 11.1981 9.84676 11.2773 10.0346 11.4732C10.6882 12.1266 11.3421 12.7798 11.9951 13.4339C12.6109 12.8219 13.2232 12.2062 13.8377 11.5928C13.9286 11.5035 14.0138 11.4044 14.1274 11.3429C14.3422 11.2201 14.6184 11.2145 14.8377 11.3292C15.0831 11.4518 15.2471 11.7186 15.2453 11.993C15.2509 12.2274 15.1299 12.4471 14.9547 12.5969C14.3215 13.2292 13.6901 13.8628 13.0563 14.4942C13.6575 15.0957 14.2588 15.6969 14.8602 16.2984C14.9871 16.4273 15.1342 16.5492 15.1956 16.7257C15.3164 17.0269 15.2116 17.3976 14.9509 17.5906C14.7361 17.7588 14.4268 17.7921 14.1805 17.6754C14.0104 17.6014 13.8977 17.4484 13.7659 17.3252C13.1759 16.7352 12.5862 16.1452 11.9962 15.5554C11.3702 16.1812 10.7445 16.8072 10.1185 17.4331C10.0465 17.5047 9.97745 17.5818 9.88928 17.634C9.67582 17.7672 9.39466 17.7809 9.1695 17.6693C8.93467 17.5573 8.768 17.316 8.74978 17.0559C8.73021 16.8389 8.81299 16.6169 8.96751 16.4635C9.62273 15.8065 10.2804 15.1519 10.9352 14.4942C10.2775 13.8367 9.62004 13.179 8.96234 12.5216C8.78982 12.3497 8.71289 12.0902 8.76125 11.8517C8.81141 11.5811 9.02375 11.3492 9.28916 11.2759Z" fill="#4B4B4B"/>
<g opacity="0.4">
<path d="M2.74909 8.19687C3.11235 8.24973 3.48033 8.24545 3.84652 8.2477C9.25203 8.24793 14.6573 8.2477 20.0628 8.24793C20.4538 8.24568 20.8467 8.2522 21.2349 8.19889C21.248 8.2639 21.2439 8.33048 21.2437 8.39661C21.2439 10.0082 21.2437 11.6198 21.2437 13.2315C21.2401 14.4531 21.2554 15.6756 21.1895 16.896C21.1342 17.7969 21.0397 18.7135 20.7005 19.5581C20.4346 20.2275 19.9805 20.8228 19.3941 21.2428C18.7357 21.7203 17.9345 21.9497 17.1392 22.0678C16.1119 22.2174 15.0714 22.2275 14.0354 22.2397C12.6262 22.2449 11.217 22.2462 9.80806 22.2383C8.97492 22.2289 8.14065 22.2131 7.31134 22.1265C6.58256 22.0474 5.84749 21.9088 5.18238 21.5887C4.53615 21.2815 3.98035 20.7862 3.60449 20.1768C3.17713 19.489 2.98976 18.6842 2.88989 17.8889C2.76506 16.8515 2.75943 15.8044 2.75089 14.761C2.74661 12.5729 2.74976 10.385 2.74909 8.19687ZM9.28914 11.2759C9.02373 11.3493 8.81139 11.5812 8.76123 11.8518C8.71287 12.0902 8.7898 12.3497 8.96232 12.5216C9.62002 13.1791 10.2775 13.8368 10.9352 14.4942C10.2804 15.1519 9.62271 15.8065 8.96749 16.4635C8.81297 16.6169 8.73019 16.8389 8.74976 17.056C8.76798 17.316 8.93465 17.5573 9.16948 17.6693C9.39464 17.7809 9.6758 17.7672 9.88926 17.634C9.97743 17.5818 10.0465 17.5047 10.1185 17.4332C10.7444 16.8072 11.3702 16.1812 11.9962 15.5554C12.5862 16.1452 13.1759 16.7352 13.7659 17.3252C13.8977 17.4485 14.0104 17.6014 14.1805 17.6754C14.4268 17.7921 14.736 17.7589 14.9509 17.5906C15.2115 17.3976 15.3164 17.0269 15.1956 16.7258C15.1342 16.5492 14.9871 16.4273 14.8602 16.2984C14.2587 15.6969 13.6575 15.0957 13.0563 14.4942C13.6901 13.8628 14.3215 13.2292 14.9547 12.5969C15.1299 12.4471 15.2509 12.2274 15.2453 11.993C15.2471 11.7186 15.0831 11.4518 14.8377 11.3292C14.6184 11.2145 14.3422 11.2201 14.1274 11.343C14.0138 11.4044 13.9285 11.5036 13.8377 11.5929C13.2232 12.2062 12.6109 12.8219 11.995 13.4339C11.3421 12.7798 10.6882 12.1266 10.0346 11.4732C9.84674 11.2773 9.54916 11.1981 9.28914 11.2759Z" fill="#4B4B4B"/>
</g>
</svg>
