<svg width="24" height="24" viewBox="0 0 24 24" fill="none" xmlns="http://www.w3.org/2000/svg">
<path d="M2.564 2.33521C3.02893 2.23399 3.50848 2.25379 3.98105 2.24929C9.19987 2.24929 14.4187 2.24929 19.6375 2.24929C20.1384 2.25401 20.6416 2.23309 21.1409 2.28618C21.519 2.32734 21.9021 2.45262 22.1841 2.71714C22.4624 2.96704 22.6232 3.32445 22.6826 3.68951C22.7588 4.15759 22.7388 4.63377 22.7435 5.10612C22.7388 5.54496 22.7525 5.98942 22.6599 6.42128C22.5861 6.76925 22.4075 7.10035 22.1299 7.3273C21.8784 7.54031 21.5572 7.6512 21.2351 7.69888C20.8469 7.75219 20.454 7.74567 20.063 7.74792C14.6575 7.74769 9.25228 7.74792 3.84677 7.74769C3.48059 7.74545 3.1126 7.74972 2.74934 7.69686C2.37955 7.6449 2.01269 7.4969 1.75065 7.22383C1.48951 6.96179 1.3496 6.60213 1.29944 6.24044C1.24658 5.87246 1.25221 5.49952 1.24951 5.12861C1.25108 4.76085 1.24433 4.39242 1.27043 4.02511C1.29629 3.63845 1.38289 3.23875 1.62154 2.92408C1.84715 2.61727 2.19444 2.41461 2.564 2.33521ZM2.8771 3.8022C2.78825 3.81007 2.79905 3.92029 2.7815 3.98395C2.73134 4.44595 2.75451 4.91201 2.75046 5.37604C2.75856 5.64348 2.74214 5.91834 2.82042 6.17746C2.94818 6.21997 3.08358 6.22897 3.21719 6.23707C3.59935 6.25371 3.98218 6.24651 4.36478 6.24831C9.64299 6.24809 14.9211 6.24899 20.1993 6.24786C20.492 6.24336 20.7873 6.25461 21.0768 6.20378C21.1168 6.19231 21.1798 6.19141 21.1852 6.13787C21.2392 5.92576 21.2349 5.70421 21.2414 5.48693C21.2444 5.10522 21.2466 4.72329 21.2378 4.34158C21.23 4.16636 21.2275 3.98754 21.1726 3.81907C20.9153 3.74305 20.6429 3.75767 20.3777 3.75002C15.497 3.74732 10.6162 3.74957 5.73551 3.74889C4.98627 3.75024 4.23725 3.74597 3.48801 3.75137C3.284 3.75699 3.07684 3.75564 2.8771 3.8022Z" fill="#4B4B4B"/>
<path d="M9.28928 10.7761C9.5493 10.6983 9.84688 10.7775 10.0347 10.9734C10.6883 11.6268 11.3422 12.28 11.9952 12.9341C12.611 12.3221 13.2233 11.7064 13.8378 11.093C13.9287 11.0037 14.0139 10.9046 14.1275 10.8431C14.3423 10.7203 14.6185 10.7147 14.8378 10.8294C15.0832 10.952 15.2472 11.2188 15.2454 11.4932C15.251 11.7276 15.13 11.9473 14.9548 12.0971C14.3216 12.7294 13.6902 13.363 13.0564 13.9944C13.6576 14.5959 14.2589 15.1971 14.8603 15.7986C14.9872 15.9275 15.1343 16.0494 15.1957 16.2259C15.3165 16.5271 15.2117 16.8978 14.951 17.0908C14.7362 17.259 14.4269 17.2923 14.1806 17.1756C14.0105 17.1016 13.8978 16.9486 13.766 16.8254C13.176 16.2354 12.5863 15.6454 11.9963 15.0556C11.3703 15.6814 10.7446 16.3074 10.1186 16.9333C10.0466 17.0049 9.97757 17.082 9.8894 17.1342C9.67594 17.2674 9.39478 17.2811 9.16962 17.1695C8.93479 17.0575 8.76812 16.8162 8.7499 16.5561C8.73033 16.3391 8.81311 16.1171 8.96763 15.9637C9.62285 15.3067 10.2805 14.6521 10.9353 13.9944C10.2776 13.3369 9.62016 12.6792 8.96246 12.0218C8.78994 11.8499 8.71301 11.5904 8.76137 11.3519C8.81153 11.0813 9.02387 10.8494 9.28928 10.7761Z" fill="#4B4B4B"/>
<g opacity="0.4">
<path d="M2.74903 7.69678C3.11229 7.74964 3.48027 7.74536 3.84646 7.74761C9.25197 7.74784 14.6573 7.74761 20.0628 7.74784C20.4537 7.74559 20.8467 7.75211 21.2349 7.6988C21.2479 7.76381 21.2439 7.83039 21.2437 7.89652C21.2439 9.50814 21.2437 11.1198 21.2437 12.7314C21.2401 13.953 21.2554 15.1755 21.1895 16.396C21.1341 17.2968 21.0397 18.2134 20.7005 19.058C20.4346 19.7274 19.9805 20.3228 19.3941 20.7427C18.7357 21.2202 17.9345 21.4497 17.1392 21.5678C16.1119 21.7173 15.0714 21.7275 14.0353 21.7396C12.6262 21.7448 11.217 21.7461 9.808 21.7383C8.97486 21.7288 8.14059 21.7131 7.31128 21.6265C6.58251 21.5473 5.84743 21.4087 5.18232 21.0887C4.53609 20.7814 3.98029 20.2861 3.60444 19.6768C3.17707 18.9889 2.9897 18.1841 2.88983 17.3888C2.765 16.3514 2.75937 15.3044 2.75083 14.2609C2.74655 12.0728 2.7497 9.8849 2.74903 7.69678ZM9.28909 10.7759C9.02367 10.8492 8.81133 11.0811 8.76117 11.3517C8.71281 11.5901 8.78974 11.8497 8.96226 12.0215C9.61996 12.679 10.2774 13.3367 10.9351 13.9942C10.2804 14.6519 9.62266 15.3064 8.96744 15.9634C8.81291 16.1168 8.73013 16.3388 8.7497 16.5559C8.76792 16.8159 8.9346 17.0573 9.16942 17.1693C9.39458 17.2808 9.67574 17.2671 9.8892 17.1339C9.97737 17.0818 10.0464 17.0046 10.1184 16.9331C10.7444 16.3071 11.3702 15.6811 11.9961 15.0554C12.5861 15.6451 13.1759 16.2351 13.7659 16.8251C13.8977 16.9484 14.0104 17.1013 14.1804 17.1753C14.4267 17.2921 14.736 17.2588 14.9508 17.0905C15.2115 16.8975 15.3163 16.5269 15.1955 16.2257C15.1341 16.0491 14.987 15.9272 14.8602 15.7983C14.2587 15.1969 13.6575 14.5956 13.0562 13.9942C13.6901 13.3628 14.3215 12.7292 14.9546 12.0969C15.1299 11.9471 15.2509 11.7273 15.2452 11.4929C15.247 11.2185 15.0831 10.9518 14.8377 10.8292C14.6184 10.7145 14.3422 10.7201 14.1273 10.8429C14.0138 10.9043 13.9285 11.0035 13.8376 11.0928C13.2231 11.7062 12.6109 12.3218 11.995 12.9338C11.342 12.2797 10.6882 11.6265 10.0345 10.9731C9.84669 10.7772 9.5491 10.698 9.28909 10.7759Z" fill="#4B4B4B"/>
</g>
</svg>
