<svg width="24" height="24" viewBox="0 0 24 24" fill="none" xmlns="http://www.w3.org/2000/svg">
<path d="M12.7658 3.12287C13.1644 3.05899 13.58 3.08553 13.9611 3.22229C14.2944 3.34038 14.6104 3.5129 14.8813 3.74098C15.1752 3.9911 15.3984 4.31725 15.5524 4.66949C15.7443 5.10675 15.8449 5.57753 15.9159 6.04786C16.0448 6.94285 16.0819 7.84775 16.1283 8.74994C16.1607 9.43215 16.1926 10.1146 16.2171 10.7972C16.2362 11.3519 16.254 11.9072 16.2389 12.4624C16.2124 13.5344 16.1586 14.6055 16.1069 15.6766C16.0619 16.4954 16.0201 17.3168 15.8869 18.127C15.7819 18.7411 15.6125 19.3659 15.2353 19.8727C15.0443 20.13 14.7985 20.3441 14.5227 20.5063C14.1696 20.7159 13.7744 20.8673 13.3621 20.8959C12.9268 20.9292 12.4916 20.8372 12.0838 20.6903C11.5251 20.4872 11.0053 20.1937 10.4962 19.89C9.80884 19.4755 9.14102 19.0299 8.47028 18.589C8.18395 18.4025 7.90256 18.2082 7.60948 18.0323C7.39332 17.905 7.15197 17.8231 6.90567 17.7786C6.72753 17.7469 6.54601 17.748 6.36562 17.7455C5.75133 17.7395 5.13615 17.7563 4.52254 17.7219C4.0286 17.6933 3.52813 17.622 3.07265 17.4198C2.48783 17.1567 1.98219 16.732 1.59148 16.2261C1.36678 15.9337 1.18863 15.6046 1.0746 15.2538C0.90972 14.7526 0.863159 14.2234 0.825371 13.7002C0.788033 13.123 0.747771 12.5451 0.74957 11.9664C0.750245 11.4263 0.787133 10.8872 0.821547 10.3485C0.851013 9.92475 0.885428 9.49918 0.979223 9.08396C1.05863 8.73172 1.18818 8.38914 1.3769 8.08054C1.72487 7.51507 2.21994 7.04092 2.79598 6.7114C3.20041 6.47815 3.65971 6.35624 4.12149 6.30473C4.79943 6.23005 5.48277 6.25232 6.16341 6.2476C6.40228 6.24512 6.64273 6.25367 6.87958 6.21813C7.20505 6.1673 7.51411 6.03661 7.78605 5.85172C8.76134 5.22079 9.71752 4.55927 10.7194 3.97041C11.3595 3.6022 12.0285 3.24344 12.7658 3.12287ZM12.9896 4.60561C12.5179 4.69176 12.0905 4.92434 11.6738 5.15151C10.8465 5.62162 10.0585 6.15673 9.26249 6.67721C8.92082 6.89809 8.5886 7.13562 8.23051 7.32996C7.86725 7.52092 7.47047 7.64643 7.06492 7.70672C6.69896 7.75755 6.3285 7.74495 5.96007 7.74698C5.48727 7.7499 5.01401 7.74495 4.54166 7.7724C4.2578 7.79106 3.96832 7.8212 3.7038 7.93322C3.47887 8.02904 3.27733 8.17299 3.09671 8.33629C2.86639 8.54795 2.66327 8.79695 2.54249 9.08756C2.42957 9.35793 2.39246 9.65168 2.36119 9.94072C2.31418 10.4423 2.28382 10.9452 2.26065 11.4484C2.23118 12.0865 2.2629 12.7251 2.30676 13.3619C2.33915 13.7904 2.35624 14.2238 2.45611 14.6433C2.53799 14.9899 2.73683 15.2983 2.98582 15.5489C3.27463 15.8426 3.63362 16.0885 4.04592 16.1618C4.51422 16.2459 4.99265 16.2358 5.4668 16.2437C5.95445 16.2518 6.44344 16.2277 6.92997 16.2695C7.42841 16.3226 7.91741 16.4783 8.35152 16.7295C8.61401 16.882 8.86436 17.0541 9.11831 17.2203C9.60236 17.5388 10.0853 17.8589 10.5732 18.1713C11.1638 18.5445 11.7554 18.9246 12.3983 19.2035C12.7111 19.3306 13.0559 19.4572 13.3972 19.376C13.661 19.2946 13.9267 19.154 14.0765 18.9131C14.2107 18.7012 14.2825 18.4577 14.3407 18.2159C14.4372 17.7959 14.4838 17.3665 14.5223 16.9383C14.5776 16.2905 14.6075 15.6411 14.639 14.9919C14.6833 14.0061 14.735 13.02 14.7449 12.0332C14.7427 11.3125 14.7087 10.5925 14.679 9.87279C14.6343 8.93618 14.6003 7.99867 14.5229 7.06387C14.4764 6.55643 14.4242 6.04494 14.2818 5.55391C14.2029 5.29659 14.0951 5.0287 13.8776 4.85731C13.6261 4.66949 13.3074 4.53903 12.9896 4.60561Z" fill="#4B4B4B"/>
<path opacity="0.5" d="M19.8942 5.25624C20.1747 5.21125 20.4684 5.34441 20.6272 5.57834C21.0517 6.16001 21.3448 6.82647 21.5803 7.50351C22.0405 8.85849 22.2278 10.2933 22.251 11.72C22.2674 12.8364 22.1862 13.957 21.9653 15.0524C21.8018 15.8565 21.5643 16.6487 21.2181 17.3941C21.0476 17.7569 20.8551 18.1123 20.6128 18.4331C20.5071 18.5779 20.3499 18.6845 20.1747 18.7246C19.8987 18.7927 19.5912 18.6852 19.4169 18.4612C19.2624 18.2695 19.2126 17.9996 19.2896 17.7657C19.3415 17.5873 19.4846 17.4598 19.5721 17.3003C20.0197 16.5533 20.2887 15.713 20.4727 14.8659C20.6376 14.0897 20.7208 13.2977 20.7458 12.505C20.768 11.7628 20.7435 11.0187 20.6594 10.2807C20.5624 9.44173 20.3895 8.60814 20.0995 7.81369C19.9144 7.31817 19.6944 6.82782 19.3735 6.40406C19.2005 6.14471 19.218 5.7774 19.414 5.53515C19.5305 5.38535 19.7064 5.28368 19.8942 5.25624Z" fill="#4B4B4B"/>
<path opacity="0.5" d="M17.8231 8.26919C18.1522 8.18102 18.5249 8.35264 18.6733 8.65877C18.854 9.02271 18.9617 9.41791 19.0483 9.81334C19.2282 10.6757 19.273 11.5615 19.2465 12.4403C19.2183 13.2224 19.1277 14.0083 18.8985 14.7591C18.8279 14.978 18.7525 15.1984 18.6364 15.3979C18.4588 15.6892 18.0685 15.8224 17.7498 15.7007C17.4373 15.5938 17.2241 15.2621 17.2567 14.9332C17.2651 14.7465 17.3818 14.5924 17.4326 14.4174C17.6436 13.7807 17.7176 13.1072 17.746 12.4399C17.768 11.8166 17.748 11.1904 17.6603 10.5723C17.5975 10.1633 17.5176 9.75125 17.3516 9.37045C17.257 9.19725 17.2261 8.98829 17.2815 8.79755C17.3494 8.54068 17.5651 8.3315 17.8231 8.26919Z" fill="#4B4B4B"/>
</svg>
