<svg width="24" height="24" viewBox="0 0 24 24" fill="none" xmlns="http://www.w3.org/2000/svg">
<path d="M10.984 2.59575C11.4544 2.37708 12.0062 2.34452 12.4994 2.50553C13.121 2.7024 13.6417 3.11555 14.1283 3.53497C14.9583 4.26895 15.7215 5.07284 16.5102 5.84985C17.4175 6.7559 18.3266 7.66017 19.2326 8.56771C19.6833 9.02507 20.1375 9.48004 20.5558 9.96758C20.9226 10.3992 21.2736 10.8617 21.4664 11.3997C21.6338 11.8574 21.6413 12.373 21.4724 12.8315C21.305 13.3077 20.9466 13.691 20.5388 13.9769C19.9869 14.3619 19.3614 14.6224 18.7419 14.8772C17.957 15.1894 17.1643 15.4811 16.3734 15.7773C16.1228 15.8712 15.8402 15.8107 15.6507 15.6217C15.3002 15.2723 15.4281 14.6787 15.8919 14.506C16.731 14.1934 17.5705 13.882 18.4011 13.5476C18.8925 13.3397 19.3934 13.1329 19.8249 12.8136C20.0049 12.6771 20.1753 12.4996 20.219 12.2702C20.2738 12.0112 20.1594 11.7564 20.0309 11.5374C19.7752 11.118 19.4419 10.7532 19.1096 10.3936C18.3493 9.59057 17.552 8.82373 16.7761 8.03627C15.9608 7.22521 15.1496 6.40997 14.334 5.59981C13.8121 5.09435 13.3004 4.57276 12.7135 4.14139C12.4545 3.96186 12.1721 3.76977 11.8454 3.76409C11.5682 3.76081 11.3364 3.94871 11.1804 4.16141C10.8645 4.58501 10.663 5.07882 10.46 5.56246C10.1216 6.41033 9.81224 7.26908 9.49878 8.12615C9.32821 8.59256 8.73517 8.72264 8.38396 8.37154C8.19437 8.18201 8.13201 7.89956 8.22398 7.64776C8.53102 6.80712 8.83454 5.96504 9.16437 5.13289C9.38116 4.60323 9.60752 4.07328 9.91803 3.59053C10.1839 3.17947 10.533 2.80367 10.984 2.59575Z" fill="#4B4B4B"/>
<path d="M6.55184 10.1502C6.70754 10.1033 6.86474 10.0582 7.01385 9.99219C7.34323 10.3208 7.6732 10.6491 8.00167 10.9783C7.75075 11.1695 7.45551 11.2908 7.15758 11.3875C6.33385 11.6448 5.48407 11.821 4.67711 12.1302C4.47829 12.2222 4.22767 12.3017 4.14293 12.5254C4.08634 12.667 4.0519 12.8361 4.12347 12.9786C4.23485 13.2128 4.41092 13.4076 4.5798 13.6018C4.90617 13.9614 5.25201 14.3029 5.59516 14.6467C6.9384 15.9859 8.28014 17.3263 9.62248 18.6665C9.99497 19.0321 10.3579 19.4112 10.7756 19.7267C10.9244 19.8282 11.0879 19.9579 11.2804 19.9283C11.4191 19.9107 11.5685 19.868 11.6637 19.7592C11.7909 19.603 11.8649 19.4121 11.9374 19.2263C12.1565 18.6225 12.3108 17.9985 12.485 17.3813C12.6192 16.9072 12.7449 16.4122 13.0479 16.0131C13.38 16.342 13.7094 16.6736 14.0415 17.0025C13.9855 17.0987 13.9594 17.2092 13.9235 17.3141C13.701 18.0532 13.5237 18.806 13.2734 19.537C13.1189 19.9743 12.9321 20.4182 12.5988 20.7516C12.2212 21.1203 11.682 21.3001 11.1588 21.2908C10.76 21.2834 10.3842 21.1122 10.0614 20.8881C9.62577 20.5831 9.24909 20.2052 8.86792 19.8372C8.24061 19.2122 7.61301 18.5873 6.9893 17.9588C6.65214 17.6311 6.32337 17.2953 5.9931 16.961C5.57121 16.5493 5.15769 16.129 4.73909 15.7138C4.28366 15.2528 3.81266 14.805 3.39286 14.3103C3.07127 13.9271 2.77424 13.4843 2.72753 12.9729C2.67962 12.3372 2.92665 11.6564 3.44586 11.2651C3.81266 10.9843 4.25402 10.8265 4.68879 10.6837C5.30411 10.4869 5.93112 10.3297 6.55184 10.1502Z" fill="#4B4B4B"/>
<path opacity="0.5" d="M4.20266 6.01113C4.44969 5.83607 4.80541 5.84712 5.04436 6.03114C6.9619 7.93287 8.86926 9.84566 10.7829 11.7516C12.4199 13.385 14.0572 15.0182 15.6944 16.6517C16.4445 17.4048 17.2045 18.1483 17.9479 18.9074C18.0815 19.0842 18.1249 19.3241 18.0614 19.5365C17.9973 19.7633 17.812 19.9515 17.5862 20.0199C17.338 20.1008 17.047 20.0306 16.8649 19.8433C15.8714 18.8518 14.8767 17.8612 13.8841 16.8685C13.552 16.5396 13.2226 16.208 12.8906 15.8791C11.209 14.2003 9.52681 12.5223 7.84432 10.8443C7.51585 10.5151 7.18587 10.1868 6.8565 9.8582C5.98516 8.98919 5.11413 8.12018 4.24309 7.25087C4.13829 7.14302 4.01522 7.04534 3.95593 6.90284C3.80682 6.59754 3.91791 6.19664 4.20266 6.01113Z" fill="#4B4B4B"/>
<path d="M6.33022 16.6697C6.66049 17.004 6.98926 17.3397 7.32642 17.6674C7.27252 17.677 7.24378 17.729 7.20545 17.7618C5.99905 18.9672 4.79295 20.1729 3.58655 21.3786C3.44313 21.5313 3.22903 21.6146 3.01943 21.5919C2.7727 21.571 2.54813 21.4022 2.45561 21.1737C2.34991 20.9254 2.41309 20.6189 2.60772 20.4316C3.52367 19.5136 4.44352 18.5992 5.36097 17.6827C5.68555 17.3624 6.00354 17.035 6.33232 16.719C6.33172 16.7067 6.33082 16.6819 6.33022 16.6697Z" fill="#4B4B4B"/>
</svg>
