<svg width="24" height="24" viewBox="0 0 24 24" fill="none" xmlns="http://www.w3.org/2000/svg">
<path d="M11.4872 3.44958C11.7647 3.17748 12.2534 3.18498 12.5234 3.46368C14.528 5.46888 16.5329 7.47348 18.5378 9.47838C18.6911 9.63528 18.7691 9.86238 18.7436 10.0808C18.7172 10.3421 18.542 10.5824 18.2999 10.685C18.0161 10.8161 17.6591 10.7393 17.4479 10.511C15.8879 8.94738 14.3207 7.39098 12.7652 5.82318C12.5024 5.57838 12.2618 5.30808 11.9954 5.06838C11.7347 5.31468 11.4905 5.57868 11.2292 5.82438C9.72468 7.34178 8.20788 8.84778 6.69858 10.3607C6.58578 10.4687 6.48498 10.5959 6.34128 10.6649C6.09198 10.7987 5.76588 10.7699 5.54358 10.5953C5.19738 10.3481 5.14878 9.79878 5.44368 9.49308C7.45788 7.47858 9.47268 5.46408 11.4872 3.44958Z" fill="#4B4B4B"/>
<path opacity="0.5" d="M11.2344 5.82631C11.4957 5.58061 11.7399 5.31661 12.0006 5.07031C12.267 5.31001 12.5076 5.58031 12.7704 5.82511C12.7662 5.83801 12.7578 5.86351 12.7533 5.87641C12.753 10.5879 12.7536 15.2991 12.7533 20.0106C12.753 20.2575 12.6186 20.4978 12.4107 20.6304C12.1887 20.7783 11.8854 20.7912 11.6514 20.6631C11.4129 20.5395 11.2539 20.2782 11.2533 20.0094C11.2533 15.2982 11.2533 10.5867 11.2533 5.87551C11.2485 5.86321 11.2392 5.83861 11.2344 5.82631Z" fill="#4B4B4B"/>
</svg>
