<svg width="24" height="24" viewBox="0 0 24 24" fill="none" xmlns="http://www.w3.org/2000/svg">
<path d="M11.8514 2.29344C12.9015 2.19424 13.9751 2.35237 14.9513 2.75207C16.269 3.29167 17.3981 4.27979 18.1021 5.5178C18.4521 6.12669 18.6937 6.79586 18.8278 7.48481C20.0721 8.0134 21.1445 8.93966 21.8389 10.1002C22.406 11.04 22.7209 12.1293 22.7418 13.2268C22.7636 14.2036 22.5578 15.1852 22.1394 16.0685C21.5249 17.3749 20.4538 18.457 19.158 19.0922C18.7106 19.3131 18.2376 19.4811 17.7519 19.5943C17.5837 19.6381 17.4008 19.6514 17.2362 19.5866C16.9154 19.4728 16.6984 19.1228 16.751 18.7843C16.7879 18.4768 17.0322 18.2098 17.3365 18.1493C18.218 17.9633 19.0444 17.5292 19.7007 16.9127C20.3204 16.3328 20.7869 15.5896 21.0334 14.777C21.443 13.4587 21.2471 11.9683 20.5093 10.8011C19.7974 9.64976 18.5907 8.82157 17.262 8.56493C16.3913 8.39331 15.4745 8.45224 14.636 8.7451C14.5075 8.79076 14.3672 8.80313 14.2331 8.77726C13.9621 8.72643 13.7304 8.51454 13.6557 8.24913C13.5802 7.99563 13.6535 7.70615 13.8386 7.51788C13.9625 7.3836 14.1402 7.32332 14.3105 7.27248C15.2246 6.98142 16.2026 6.90292 17.1529 7.02596C16.8702 6.24095 16.3812 5.53242 15.7516 4.9854C15.1353 4.44894 14.3847 4.06858 13.5878 3.88886C12.6602 3.67855 11.6732 3.73636 10.7778 4.05756C9.55032 4.4919 8.51204 5.43211 7.96232 6.61299C7.47444 7.65824 7.37458 8.88028 7.6942 9.98941C8.16115 10.1268 8.61056 10.3276 9.01971 10.5919C9.12498 10.6563 9.22327 10.7357 9.28963 10.8411C9.45225 11.0809 9.45562 11.4152 9.2966 11.6576C9.14702 11.8999 8.85056 12.0389 8.56873 11.9986C8.44951 11.9842 8.33525 11.939 8.23628 11.8716C7.47085 11.3639 6.50297 11.1808 5.60258 11.3562C4.92149 11.4874 4.27954 11.8218 3.78672 12.3108C3.25544 12.8309 2.89645 13.5255 2.78781 14.2614C2.66342 15.0737 2.84157 15.9291 3.28535 16.6214C3.72329 17.314 4.41135 17.8443 5.19276 18.0915C5.54905 18.2065 5.924 18.2602 6.29806 18.2609C6.62443 18.2598 6.92989 18.502 7.00951 18.8176C7.07654 19.0664 7.00322 19.3482 6.82305 19.5327C6.68584 19.6723 6.4933 19.7583 6.29671 19.7592C5.24944 19.7668 4.20352 19.435 3.35126 18.8271C2.67647 18.3484 2.12202 17.7008 1.75651 16.9586C1.34871 16.1358 1.18271 15.1969 1.27381 14.2837C1.35636 13.4319 1.66878 12.6044 2.16588 11.9082C2.71763 11.1313 3.49611 10.5184 4.37941 10.1614C4.92891 9.9379 5.51823 9.81644 6.11047 9.79394C5.95032 8.8976 5.98203 7.96706 6.20741 7.08466C6.55493 5.71462 7.38065 4.47615 8.50012 3.6158C9.46305 2.87083 10.6392 2.40635 11.8514 2.29344Z" fill="#4B4B4B"/>
<path d="M11.4826 15.4638C11.7152 15.2305 12.1091 15.197 12.3871 15.3673C12.48 15.4224 12.5502 15.5065 12.6273 15.5807C13.2346 16.1876 13.8415 16.7949 14.4488 17.4018C14.5376 17.4873 14.6272 17.5775 14.6762 17.6928C14.8269 18.0028 14.725 18.4054 14.4463 18.6074C14.1705 18.8245 13.7439 18.8029 13.4899 18.5617C13.2389 18.3179 12.9946 18.0676 12.7461 17.8215C12.7456 19.2215 12.7463 20.6214 12.7458 22.0214C12.7447 22.3363 12.5216 22.6339 12.2195 22.7229C12.0384 22.7794 11.8362 22.7648 11.6657 22.6811C11.419 22.5612 11.2478 22.2967 11.2467 22.0216C11.246 20.6216 11.2469 19.2217 11.2462 17.8217C11.0062 18.0597 10.7694 18.3008 10.5285 18.5381C10.3706 18.6965 10.1403 18.7788 9.9178 18.7541C9.64429 18.7282 9.39506 18.537 9.29722 18.2808C9.1942 18.0203 9.25268 17.7021 9.44702 17.4994C10.125 16.8201 10.8036 16.1419 11.4826 15.4638Z" fill="#4B4B4B"/>
<path opacity="0.3" d="M10.5339 4.64132C11.2568 4.301 12.0708 4.16042 12.8664 4.23037C13.6136 4.29403 14.344 4.54505 14.9699 4.95802C15.5692 5.35232 16.0741 5.89058 16.4225 6.51791C15.7032 6.50621 14.981 6.59776 14.2911 6.80402C14.0824 6.86632 13.868 6.92818 13.6867 7.05324C13.3752 7.26445 13.1818 7.63288 13.1721 8.00784C13.1631 8.32522 13.2872 8.64304 13.5086 8.87067C13.8192 9.20042 14.3244 9.32435 14.7522 9.17568C15.5494 8.89271 16.4252 8.84166 17.2512 9.02047C17.9599 9.17253 18.6296 9.50047 19.186 9.9645C19.731 10.4168 20.1672 11.0005 20.442 11.6535C20.7659 12.4064 20.8492 13.2528 20.7162 14.0591C20.5322 15.191 19.8831 16.2358 18.9564 16.9097C18.6671 17.1218 18.3522 17.2988 18.0204 17.4351C17.9165 17.4805 17.8034 17.506 17.7089 17.5712C17.45 17.6823 17.1529 17.6846 16.9059 17.8276C16.6198 17.9844 16.4057 18.2637 16.3269 18.58C16.2748 18.7737 16.2793 18.9788 16.3236 19.1736C15.6551 19.1702 14.9861 19.1826 14.3179 19.168C14.4938 19.0962 14.6701 19.0152 14.8075 18.8801C15.0516 18.6562 15.196 18.3279 15.1906 17.9963C15.1875 17.6929 15.0707 17.3881 14.8552 17.1722C14.2481 16.5653 13.6413 15.9582 13.0342 15.3511C12.8846 15.2067 12.7497 15.0396 12.5596 14.9458C12.1244 14.7099 11.5418 14.7751 11.1821 15.1199C10.499 15.8012 9.81834 16.4846 9.135 17.1656C8.88668 17.4131 8.76589 17.7759 8.79941 18.1232C8.83337 18.5179 9.08417 18.8798 9.43304 19.0636C9.50389 19.1061 9.58824 19.1207 9.65549 19.1702C8.92717 19.1779 8.19817 19.1754 7.46985 19.1707C7.51304 18.8717 7.43678 18.5582 7.26224 18.3119C7.04518 18.0035 6.6763 17.8049 6.29797 17.8053C5.86543 17.8069 5.43244 17.7199 5.03498 17.5485C4.9774 17.5262 4.94344 17.47 4.88923 17.4425C4.29677 17.1431 3.80957 16.6402 3.52931 16.0387C3.15637 15.2515 3.15412 14.2991 3.52368 13.5103C3.78235 12.9469 4.22344 12.4714 4.76035 12.1628C4.82692 12.1238 4.90003 12.0955 4.95896 12.0444C5.01407 11.9956 5.08537 11.9738 5.15217 11.947C6.00848 11.6126 7.01302 11.6828 7.81309 12.1367C7.89991 12.1843 7.98021 12.2426 8.06546 12.293C8.3572 12.4608 8.72068 12.497 9.03986 12.3902C9.38445 12.2779 9.66854 11.9992 9.78977 11.6578C9.92743 11.2855 9.86153 10.8478 9.6213 10.5322C9.52368 10.398 9.39345 10.2918 9.25287 10.2054C8.88241 9.96675 8.48091 9.77804 8.06546 9.63183C7.89159 8.88057 7.92893 8.08342 8.15633 7.34745C8.52005 6.16342 9.41212 5.16113 10.5339 4.64132Z" fill="#4B4B4B"/>
</svg>
