<svg width="24" height="24" viewBox="0 0 24 24" fill="none" xmlns="http://www.w3.org/2000/svg">
<path d="M11.1953 2.37618C12.8078 2.05098 14.5406 2.35968 15.9317 3.24078C16.8596 3.82068 17.6366 4.64088 18.1619 5.60088C18.4832 6.18378 18.707 6.81858 18.833 7.47168C19.7702 7.87098 20.6123 8.49258 21.2657 9.27468C21.9302 10.0661 22.3991 11.021 22.6124 12.0326C22.8581 13.1903 22.775 14.417 22.3673 15.5285C21.9995 16.5398 21.3668 17.4512 20.555 18.1571C19.7651 18.8465 18.8051 19.3391 17.7845 19.5782C17.6417 19.6151 17.4914 19.6409 17.3453 19.6073C17.0687 19.5509 16.8353 19.3265 16.7714 19.0511C16.6961 18.7613 16.8176 18.434 17.0633 18.2633C17.1626 18.1877 17.2835 18.1502 17.4044 18.1256C18.4877 17.8838 19.4813 17.2634 20.1752 16.397C20.8289 15.59 21.2132 14.5682 21.2468 13.5296C21.2849 12.5525 21.0164 11.5661 20.4869 10.7438C19.9406 9.88488 19.1198 9.20598 18.1766 8.82438C17.0615 8.36838 15.7802 8.33538 14.6426 8.73168C14.471 8.79408 14.2772 8.79498 14.1074 8.72598C13.8683 8.63478 13.685 8.41278 13.643 8.16018C13.5917 7.89318 13.7021 7.60458 13.9169 7.43838C14.0444 7.33578 14.2061 7.29468 14.3591 7.24578C15.2606 6.96588 16.2227 6.89118 17.1581 7.01328C16.8494 6.15438 16.2938 5.38788 15.5774 4.82358C14.9429 4.32108 14.1839 3.97758 13.3877 3.83328C12.4469 3.66048 11.4563 3.75978 10.5713 4.12428C9.6029 4.51878 8.7674 5.22918 8.2229 6.12168C7.5191 7.25898 7.3259 8.69358 7.697 9.97758C8.189 10.1222 8.6609 10.337 9.0869 10.6226C9.2849 10.7528 9.4106 10.9826 9.4166 11.2193C9.428 11.4902 9.278 11.7602 9.0416 11.8931C8.7974 12.038 8.4731 12.0239 8.2409 11.861C7.6184 11.4497 6.8633 11.2478 6.1187 11.2841C5.2508 11.3201 4.4006 11.6888 3.7853 12.3026C3.2615 12.8153 2.9063 13.4981 2.7932 14.2226C2.6681 14.9987 2.8178 15.8165 3.2159 16.4948C3.6611 17.2664 4.4117 17.8544 5.267 18.104C5.6021 18.2048 5.9525 18.2507 6.302 18.2513C6.5975 18.2525 6.8777 18.4493 6.9833 18.7244C7.1039 19.0157 7.0124 19.3769 6.7679 19.5761C6.6371 19.6841 6.4703 19.7492 6.3002 19.7501C5.2529 19.7582 4.2068 19.427 3.3539 18.8189C2.6261 18.3032 2.0378 17.5907 1.6757 16.775C1.3238 15.9893 1.1879 15.1103 1.2761 14.2547C1.3664 13.3574 1.7117 12.4883 2.2589 11.7716C2.804 11.0522 3.5474 10.4858 4.3844 10.148C4.9331 9.92538 5.5211 9.80388 6.1127 9.78198C5.9141 8.67558 6.0095 7.51638 6.3995 6.46128C6.7598 5.47788 7.3694 4.58868 8.1518 3.89328C9.0074 3.12858 10.07 2.59908 11.1953 2.37618Z" fill="#4B4B4B"/>
<path opacity="0.5" d="M11.4916 15.4482C11.7634 15.183 12.2386 15.1845 12.5104 15.4497C13.186 16.1235 13.8598 16.7991 14.5348 17.4735C14.7097 17.6466 14.7859 17.9097 14.7349 18.15C14.6833 18.4143 14.4772 18.6402 14.2189 18.7161C13.9618 18.7989 13.666 18.7236 13.4749 18.5349C13.2319 18.2952 12.9922 18.0522 12.7504 17.8119C12.7498 19.2042 12.7501 20.5965 12.7501 21.9891C12.7558 22.2522 12.6106 22.5123 12.3826 22.6437C12.1846 22.7637 11.9302 22.7817 11.7166 22.6938C11.4364 22.5828 11.2423 22.2915 11.2501 21.9897C11.2501 20.5971 11.2504 19.2045 11.2498 17.8119C11.008 18.0522 10.768 18.2952 10.5256 18.5349C10.3768 18.681 10.1659 18.7605 9.9577 18.7476C9.6853 18.7359 9.4303 18.5604 9.3181 18.3126C9.1879 18.0381 9.2485 17.6877 9.4648 17.4741C10.1407 16.7988 10.8151 16.1226 11.4916 15.4482Z" fill="#4B4B4B"/>
</svg>
