<svg width="24" height="24" viewBox="0 0 24 24" fill="none" xmlns="http://www.w3.org/2000/svg">
<g clip-path="url(#clip0_35569_36335)">
<mask id="mask0_35569_36335" style="mask-type:luminance" maskUnits="userSpaceOnUse" x="0" y="0" width="24" height="24">
<path d="M24 0H0V24H24V0Z" fill="white"/>
</mask>
<g mask="url(#mask0_35569_36335)">
<mask id="mask1_35569_36335" style="mask-type:luminance" maskUnits="userSpaceOnUse" x="0" y="0" width="24" height="24">
<path d="M24 0H0V24H24V0Z" fill="white"/>
</mask>
<g mask="url(#mask1_35569_36335)">
<path opacity="0.2" d="M6.5187 3.10711C7.17381 2.97571 7.84372 3.00347 8.50623 3.00347C11.2784 3.01643 14.0525 2.97756 16.8228 3.02198C19.0565 3.10526 20.9774 5.11129 20.9885 7.34125C21.0033 10.478 21.0051 13.6147 20.9866 16.7515C20.9385 18.9333 19.0676 20.8876 16.8802 20.9912C13.6509 21.006 10.4216 20.9986 7.19231 20.9949C4.98641 20.9357 3.047 18.9722 3.00443 16.7663C2.99703 13.6166 3.00073 10.4669 3.00258 7.31719C3.00998 5.31856 4.56633 3.48648 6.5187 3.10711Z" fill="#4B4B4B"/>
<path d="M6.07031 0.828415C9.73219 0.719665 13.3959 0.832164 17.0578 0.787164C18.9984 0.717789 20.9466 1.66091 22.0716 3.24529C22.8066 4.25216 23.2116 5.48966 23.2191 6.73654C23.2341 10.1809 23.2209 13.6272 23.2247 17.0715C23.2341 18.0653 23.0259 19.0647 22.5741 19.9515C21.5953 21.9203 19.4616 23.244 17.2603 23.2272C13.6284 23.2159 9.99469 23.2459 6.36281 23.2122C3.44719 23.0959 0.910311 20.5347 0.788436 17.6247C0.758436 15.7422 0.765935 13.8578 0.78281 11.9753C0.732185 11.1353 2.10469 11.0097 2.24344 11.8328C2.32969 13.7903 2.21906 15.7553 2.29406 17.7128C2.47406 19.9234 4.51969 21.7722 6.73781 21.7272C10.3116 21.7234 13.8872 21.7328 17.4609 21.7234C19.6997 21.6728 21.6666 19.6815 21.7153 17.4484C21.7434 14.0715 21.7134 10.6947 21.7284 7.31779C21.7416 6.55279 21.6984 5.76341 21.3759 5.05466C20.7253 3.41029 19.0228 2.26279 17.2509 2.27966C13.7541 2.26654 10.2553 2.26841 6.75656 2.27779C4.82719 2.25716 2.98406 3.62216 2.45906 5.48216C2.11969 6.48904 2.38594 7.56529 2.20969 8.59279C1.92094 9.23217 0.867185 9.09904 0.79031 8.38654C0.74156 7.11529 0.696561 5.78966 1.18406 4.58779C1.95281 2.55716 3.91219 1.05154 6.07031 0.828415Z" fill="#4B4B4B"/>
<path d="M11.5304 6.38611C12.4711 6.19641 13.4819 6.37648 14.2933 6.89046C14.8346 7.22873 15.2879 7.70718 15.5943 8.26718C15.7817 8.60721 15.9123 8.97751 15.9858 9.35848C16.5325 9.59141 17.0237 9.95401 17.4048 10.4102C17.7925 10.8719 18.066 11.4289 18.1904 12.019C18.3337 12.6943 18.2853 13.4099 18.0474 14.0583C17.8329 14.6482 17.4638 15.1799 16.9903 15.5916C16.5295 15.9938 15.9695 16.2811 15.3741 16.4206C15.2908 16.4421 15.2032 16.4572 15.1179 16.4376C14.9566 16.4047 14.8204 16.2738 14.7832 16.1131C14.7392 15.9441 14.8101 15.7532 14.9534 15.6536C15.0114 15.6095 15.0819 15.5876 15.1524 15.5733C15.7843 15.4322 16.3639 15.0703 16.7687 14.5649C17.15 14.0942 17.3742 13.4981 17.3938 12.8923C17.416 12.3223 17.2594 11.7469 16.9505 11.2672C16.6319 10.7662 16.1531 10.3702 15.6029 10.1476C14.9524 9.88156 14.205 9.86231 13.5414 10.0935C13.4413 10.1299 13.3282 10.1304 13.2292 10.0902C13.0897 10.037 12.9828 9.90746 12.9583 9.76011C12.9283 9.60436 12.9927 9.43601 13.118 9.33906C13.1924 9.27921 13.2867 9.25523 13.376 9.22671C13.9019 9.06343 14.4631 9.01986 15.0087 9.09108C14.8287 8.59006 14.5046 8.14293 14.0867 7.81376C13.7165 7.52063 13.2738 7.32026 12.8093 7.23608C12.2605 7.13528 11.6827 7.19321 11.1664 7.40583C10.6015 7.63596 10.1142 8.05036 9.79653 8.57098C9.38598 9.23441 9.27328 10.0713 9.48975 10.8203C9.77675 10.9046 10.052 11.0299 10.3005 11.1965C10.416 11.2725 10.4894 11.4065 10.4929 11.5446C10.4995 11.7026 10.412 11.8601 10.2741 11.9376C10.1317 12.0222 9.94248 12.0139 9.80703 11.9189C9.4439 11.679 9.00343 11.5612 8.56908 11.5824C8.0628 11.6034 7.56685 11.8185 7.20793 12.1765C6.90238 12.4756 6.69518 12.8739 6.6292 13.2965C6.55623 13.7492 6.64355 14.2263 6.87578 14.622C7.13548 15.0721 7.57333 15.4151 8.07225 15.5607C8.26773 15.6195 8.47213 15.6462 8.676 15.6466C8.84838 15.6473 9.01183 15.7621 9.07343 15.9226C9.14378 16.0925 9.0904 16.3032 8.94778 16.4194C8.87148 16.4824 8.77418 16.5204 8.67495 16.5209C8.06403 16.5256 7.4538 16.3324 6.95628 15.9777C6.53173 15.6769 6.18855 15.2612 5.97733 14.7854C5.77205 14.3271 5.69278 13.8143 5.74423 13.3152C5.7969 12.7918 5.99833 12.2848 6.31753 11.8668C6.6355 11.4471 7.06915 11.1167 7.5574 10.9197C7.87748 10.7898 8.22048 10.7189 8.56558 10.7062C8.44973 10.0608 8.50538 9.38456 8.73288 8.76908C8.94305 8.19543 9.29865 7.67673 9.75505 7.27108C10.2542 6.82501 10.874 6.51613 11.5304 6.38611Z" fill="#4B4B4B"/>
<path d="M11.7036 14.0116C11.8621 13.8569 12.1393 13.8577 12.2979 14.0124C12.692 14.4055 13.085 14.7996 13.4788 15.193C13.5808 15.294 13.6252 15.4474 13.5955 15.5876C13.5654 15.7418 13.4452 15.8736 13.2945 15.9178C13.1445 15.9661 12.972 15.9222 12.8605 15.8121C12.7187 15.6723 12.5789 15.5306 12.4379 15.3904C12.4375 16.2026 12.4377 17.0147 12.4377 17.8271C12.441 17.9806 12.3563 18.1323 12.2233 18.2089C12.1078 18.2789 11.9594 18.2894 11.8348 18.2382C11.6714 18.1734 11.5581 18.0035 11.5627 17.8274C11.5627 17.0151 11.5629 16.2027 11.5625 15.3904C11.4215 15.5306 11.2815 15.6723 11.1401 15.8121C11.0533 15.8974 10.9302 15.9437 10.8088 15.9362C10.6499 15.9294 10.5011 15.827 10.4357 15.6825C10.3597 15.5223 10.3951 15.3179 10.5213 15.1933C10.9155 14.7994 11.3089 14.405 11.7036 14.0116Z" fill="#4B4B4B"/>
</g>
</g>
</g>
<defs>
<clipPath id="clip0_35569_36335">
<rect width="24" height="24" fill="white"/>
</clipPath>
</defs>
</svg>
