<svg width="24" height="24" viewBox="0 0 24 24" fill="none" xmlns="http://www.w3.org/2000/svg">
<path d="M11.8513 2.29317C12.9015 2.19397 13.9751 2.3521 14.9513 2.7518C16.2689 3.2914 17.3981 4.27952 18.1021 5.51753C18.4521 6.12642 18.6937 6.79559 18.8277 7.48454C20.0721 8.01313 21.1445 8.93939 21.8389 10.1C22.4059 11.0398 22.7208 12.1291 22.7417 13.2266C22.7636 14.2034 22.5578 15.185 22.1394 16.0683C21.5249 17.3747 20.4538 18.4568 19.1579 19.092C18.7106 19.3129 18.2375 19.4809 17.7519 19.5941C17.5837 19.6379 17.4008 19.6512 17.2361 19.5864C16.9154 19.4726 16.6983 19.1226 16.751 18.7841C16.7879 18.4766 17.0321 18.2096 17.3365 18.1491C18.218 17.9631 19.0443 17.529 19.7007 16.9125C20.3204 16.3326 20.7869 15.5894 21.0334 14.7768C21.443 13.4585 21.2471 11.9681 20.5093 10.8009C19.7974 9.64949 18.5907 8.8213 17.262 8.56466C16.3913 8.39304 15.4745 8.45197 14.636 8.74483C14.5075 8.79049 14.3672 8.80286 14.2331 8.77699C13.9621 8.72616 13.7304 8.51427 13.6557 8.24886C13.5801 7.99536 13.6535 7.70588 13.8386 7.51761C13.9625 7.38333 14.1402 7.32305 14.3105 7.27221C15.2246 6.98115 16.2026 6.90265 17.1529 7.02569C16.8702 6.24068 16.3812 5.53215 15.7516 4.98513C15.1353 4.44867 14.3847 4.06831 13.5878 3.88859C12.6602 3.67828 11.6732 3.73609 10.7777 4.05729C9.55029 4.49163 8.51201 5.43184 7.96229 6.61272C7.47441 7.65797 7.37454 8.88001 7.69417 9.98914C8.16112 10.1266 8.61053 10.3274 9.01968 10.5917C9.12495 10.6561 9.22324 10.7355 9.2896 10.8409C9.45222 11.0807 9.45559 11.415 9.29657 11.6574C9.14699 11.8997 8.85053 12.0387 8.5687 11.9984C8.44948 11.984 8.33522 11.9388 8.23625 11.8714C7.47081 11.3637 6.50294 11.1806 5.60255 11.356C4.92146 11.4872 4.27951 11.8216 3.78669 12.3106C3.25541 12.8307 2.89642 13.5253 2.78778 14.2612C2.66339 15.0735 2.84154 15.9289 3.28532 16.6212C3.72326 17.3138 4.41132 17.8441 5.19273 18.0913C5.54901 18.2063 5.92397 18.26 6.29803 18.2607C6.6244 18.2596 6.92986 18.5018 7.00948 18.8174C7.07651 19.0662 7.00319 19.348 6.82302 19.5325C6.68581 19.6721 6.49327 19.7581 6.29668 19.759C5.24941 19.7666 4.20349 19.4348 3.35123 18.8269C2.67644 18.3482 2.12199 17.7006 1.75647 16.9584C1.34868 16.1356 1.18268 15.1967 1.27378 14.2835C1.35632 13.4317 1.66875 12.6042 2.16585 11.908C2.7176 11.1311 3.49608 10.5182 4.37938 10.1612C4.92888 9.93763 5.5182 9.81617 6.11044 9.79367C5.95029 8.89733 5.982 7.96679 6.20738 7.08439C6.5549 5.71435 7.38062 4.47588 8.50009 3.61553C9.46302 2.87056 10.6392 2.40608 11.8513 2.29317Z" fill="#4B4B4B"/>
<path d="M11.4827 15.4637C11.7152 15.2304 12.1091 15.1969 12.3871 15.3672C12.48 15.4223 12.5502 15.5064 12.6273 15.5806C13.2346 16.1875 13.8415 16.7948 14.4488 17.4017C14.5377 17.4872 14.6272 17.5774 14.6762 17.6927C14.8269 18.0027 14.725 18.4053 14.4463 18.6073C14.1706 18.8244 13.7439 18.8028 13.4899 18.5616C13.2389 18.3178 12.9946 18.0675 12.7461 17.8214C12.7456 19.2214 12.7463 20.6213 12.7459 22.0213C12.7447 22.3362 12.5216 22.6338 12.2195 22.7228C12.0385 22.7793 11.8363 22.7647 11.6658 22.681C11.419 22.5611 11.2478 22.2966 11.2467 22.0215C11.246 20.6215 11.2469 19.2216 11.2463 17.8216C11.0063 18.0596 10.7694 18.3007 10.5285 18.538C10.3706 18.6964 10.1403 18.7787 9.91783 18.754C9.64432 18.7281 9.3951 18.5369 9.29725 18.2807C9.19423 18.0202 9.25271 17.702 9.44705 17.4993C10.125 16.82 10.8036 16.1418 11.4827 15.4637Z" fill="#4B4B4B"/>
<path opacity="0.3" d="M10.5341 4.64123C11.2571 4.30091 12.0711 4.16033 12.8667 4.23028C13.6139 4.29394 14.3442 4.54496 14.9702 4.95793C15.5694 5.35223 16.0744 5.89049 16.4228 6.51782C15.7035 6.50612 14.9812 6.59767 14.2914 6.80393C14.0826 6.86623 13.8683 6.92809 13.687 7.05315C13.3754 7.26436 13.182 7.63279 13.1723 8.00775C13.1633 8.32513 13.2875 8.64295 13.5088 8.87058C13.8195 9.20033 14.3247 9.32426 14.7525 9.17559C15.5496 8.89262 16.4255 8.84157 17.2514 9.02038C17.9602 9.17244 18.6298 9.50038 19.1863 9.96441C19.7313 10.4167 20.1674 11.0004 20.4423 11.6534C20.7662 12.4063 20.8494 13.2527 20.7165 14.059C20.5325 15.1909 19.8833 16.2357 18.9566 16.9096C18.6674 17.1217 18.3525 17.2987 18.0207 17.435C17.9168 17.4804 17.8036 17.5059 17.7092 17.5711C17.4503 17.6822 17.1531 17.6845 16.9062 17.8275C16.6201 17.9843 16.4059 18.2636 16.3272 18.5799C16.275 18.7736 16.2795 18.9787 16.3238 19.1735C15.6553 19.1701 14.9864 19.1825 14.3181 19.1679C14.494 19.0961 14.6704 19.0151 14.8078 18.88C15.0518 18.6561 15.1963 18.3278 15.1909 17.9962C15.1877 17.6928 15.071 17.388 14.8555 17.1721C14.2484 16.5652 13.6415 15.9581 13.0345 15.351C12.8849 15.2066 12.7499 15.0395 12.5599 14.9457C12.1246 14.7098 11.542 14.775 11.1824 15.1198C10.4993 15.8011 9.81863 16.4845 9.1353 17.1655C8.88698 17.413 8.76619 17.7758 8.7997 18.1231C8.83367 18.5178 9.08446 18.8797 9.43333 19.0635C9.50418 19.106 9.58853 19.1206 9.65578 19.1701C8.92746 19.1778 8.19846 19.1753 7.47014 19.1706C7.51333 18.8716 7.43708 18.5581 7.26253 18.3118C7.04548 18.0034 6.67659 17.8048 6.29826 17.8052C5.86572 17.8068 5.43273 17.7198 5.03528 17.5484C4.9777 17.5261 4.94373 17.4699 4.88952 17.4424C4.29706 17.143 3.80986 16.6401 3.5296 16.0386C3.15667 15.2514 3.15442 14.299 3.52398 13.5102C3.78264 12.9468 4.22373 12.4713 4.76064 12.1627C4.82722 12.1237 4.90032 12.0954 4.95925 12.0443C5.01436 11.9955 5.08566 11.9737 5.15247 11.9469C6.00877 11.6125 7.01331 11.6827 7.81339 12.1366C7.90021 12.1842 7.98051 12.2425 8.06576 12.2929C8.35749 12.4607 8.72098 12.4969 9.04015 12.3901C9.38474 12.2778 9.66883 11.9991 9.79007 11.6577C9.92772 11.2854 9.86182 10.8477 9.6216 10.5321C9.52398 10.3979 9.39374 10.2917 9.25316 10.2053C8.8827 9.96666 8.4812 9.77795 8.06576 9.63174C7.89189 8.88048 7.92922 8.08333 8.15663 7.34736C8.52034 6.16333 9.41241 5.16104 10.5341 4.64123Z" fill="#4B4B4B"/>
</svg>
