<svg width="24" height="24" viewBox="0 0 24 24" fill="none" xmlns="http://www.w3.org/2000/svg">
<path d="M10.3949 1.25831C11.2733 1.21625 12.1633 1.42138 12.9305 1.85212C13.6634 2.2588 14.2821 2.86588 14.7095 3.58633C15.1097 4.25932 15.3368 5.03353 15.365 5.81606C15.3991 6.66382 15.2032 7.52035 14.7963 8.26532C14.3834 9.02491 13.7599 9.66933 13.0126 10.1046C12.2899 10.5302 11.4512 10.7515 10.6133 10.7506C9.842 10.7513 9.0712 10.5599 8.39124 10.1957C7.61275 9.78247 6.95394 9.14727 6.51217 8.38476C6.17613 7.80624 5.96267 7.15619 5.89677 6.49017C5.80859 5.64016 5.95277 4.76631 6.31626 3.99233C6.6667 3.24039 7.22003 2.58539 7.89909 2.10944C8.6283 1.59705 9.5046 1.29812 10.3949 1.25831ZM10.2654 2.77164C9.4144 2.86093 8.60919 3.30629 8.07881 3.97748C7.64289 4.52091 7.3903 5.20807 7.37275 5.90468C7.35588 6.44991 7.47802 6.99896 7.72814 7.48414C8.06059 8.13373 8.61796 8.66547 9.284 8.9644C10.1122 9.34183 11.1005 9.34633 11.9316 8.9752C12.5844 8.68864 13.1359 8.18007 13.4755 7.55342C13.8573 6.85861 13.9659 6.02142 13.7819 5.25081C13.6015 4.47683 13.1217 3.77932 12.4676 3.32856C11.8327 2.885 11.0346 2.68639 10.2654 2.77164Z" fill="#4B4B4B"/>
<path d="M16.8781 10.9385C17.2628 10.9163 17.6496 10.9149 18.0345 10.9354C18.5869 10.9583 19.0872 11.3839 19.2163 11.9183C19.2518 12.054 19.2505 12.195 19.2655 12.3335C19.2784 12.4557 19.3926 12.5607 19.5175 12.5508C19.6396 12.5421 19.7368 12.4586 19.8488 12.4179C20.2285 12.2523 20.6839 12.2978 21.0355 12.5112C21.2056 12.6111 21.3432 12.7578 21.4514 12.9211C21.5789 13.1134 21.6889 13.3165 21.8061 13.5151C21.8972 13.6732 21.9861 13.8336 22.0524 14.0041C22.2425 14.5178 22.0594 15.1443 21.619 15.4715C21.5376 15.5327 21.448 15.5827 21.3709 15.649C21.2634 15.7446 21.276 15.9374 21.3927 16.0204C21.4998 16.1002 21.6179 16.1659 21.715 16.2586C22.0585 16.575 22.204 17.0861 22.0864 17.5371C22.0216 17.7717 21.8925 17.9804 21.7735 18.1905C21.6183 18.4503 21.4842 18.7283 21.2744 18.9503C20.9478 19.2801 20.437 19.413 19.9914 19.283C19.8605 19.2454 19.741 19.1788 19.6187 19.1212C19.5114 19.0715 19.367 19.1044 19.3054 19.2092C19.2399 19.3138 19.2633 19.4424 19.2464 19.559C19.203 20.0196 18.8834 20.433 18.4616 20.615C18.2219 20.7216 17.9544 20.7252 17.6969 20.7268C17.4117 20.7261 17.1251 20.7371 16.841 20.7068C16.2612 20.6447 15.7641 20.1402 15.7114 19.5592C15.6901 19.4267 15.7242 19.2668 15.6156 19.1651C15.5241 19.0688 15.3734 19.0916 15.2697 19.1539C15.0308 19.2897 14.7514 19.3579 14.477 19.3248C14.1306 19.2888 13.7953 19.115 13.5834 18.8358C13.4248 18.6278 13.3042 18.3945 13.1715 18.1698C13.0498 17.9534 12.9162 17.7373 12.8598 17.4925C12.7682 17.0766 12.8944 16.6182 13.1897 16.3105C13.2925 16.1992 13.4223 16.1196 13.5463 16.035C13.6508 15.9673 13.6965 15.815 13.6304 15.7059C13.5602 15.5948 13.4297 15.5494 13.3326 15.4675C12.8915 15.1348 12.7106 14.5001 12.9122 13.9852C13.0147 13.7272 13.1679 13.4937 13.3031 13.2524C13.4493 13.0032 13.5944 12.7382 13.836 12.5681C14.1677 12.3284 14.6151 12.251 15.0056 12.3785C15.1298 12.4159 15.2386 12.4894 15.3594 12.5344C15.451 12.5704 15.5641 12.5479 15.6291 12.4728C15.7126 12.3711 15.6984 12.2319 15.7083 12.1093C15.7564 11.5087 16.2758 10.9844 16.8781 10.9385ZM16.944 11.8356C16.781 11.8625 16.6354 11.9948 16.6098 12.1606C16.592 12.2796 16.5994 12.4015 16.5734 12.5196C16.505 12.8671 16.2722 13.1809 15.9519 13.3356C15.6032 13.5081 15.1709 13.4807 14.838 13.2839C14.7179 13.2121 14.5625 13.1928 14.4345 13.256C14.3108 13.3084 14.244 13.4323 14.1774 13.5414C14.0362 13.7839 13.8872 14.0228 13.7658 14.276C13.6736 14.4639 13.7674 14.7075 13.9491 14.803C14.2928 14.9945 14.5393 15.362 14.5598 15.7579C14.5872 16.1645 14.3733 16.5726 14.0328 16.7932C13.9309 16.8596 13.813 16.9228 13.7671 17.0433C13.6988 17.1846 13.7343 17.3517 13.8171 17.479C13.9356 17.6954 14.0555 17.9114 14.1864 18.1208C14.2368 18.1961 14.2768 18.2816 14.3479 18.3405C14.4804 18.4483 14.6815 18.4629 14.8266 18.3707C15.1711 18.1664 15.6242 18.1367 15.9802 18.3293C16.2866 18.4865 16.5063 18.7926 16.5734 19.1287C16.5959 19.2333 16.5947 19.3408 16.6039 19.4472C16.615 19.6388 16.7846 19.8082 16.9769 19.8167C17.2695 19.8356 17.563 19.8282 17.8561 19.8246C17.972 19.8212 18.0995 19.8158 18.1926 19.7376C18.3136 19.6512 18.3645 19.4978 18.3604 19.3538C18.3604 18.8977 18.6486 18.4498 19.0771 18.2823C19.3989 18.1516 19.7784 18.1779 20.0816 18.3464C20.1848 18.4024 20.3025 18.4546 20.4226 18.426C20.5605 18.4064 20.6655 18.3007 20.7337 18.1855C20.888 17.9248 21.0454 17.6655 21.1833 17.3956C21.2496 17.2708 21.2371 17.1133 21.1646 16.9939C21.105 16.8942 20.9959 16.8443 20.9044 16.78C20.5551 16.5436 20.3472 16.1061 20.4041 15.6854C20.4469 15.3139 20.6896 14.9816 21.0121 14.7995C21.1948 14.7039 21.2832 14.4567 21.1894 14.2702C21.0684 14.0212 20.9219 13.7857 20.7829 13.5466C20.7141 13.4339 20.6446 13.3055 20.5159 13.2526C20.3861 13.1908 20.2314 13.2159 20.1117 13.2886C19.7309 13.5122 19.2197 13.5066 18.8568 13.2481C18.5611 13.0448 18.3766 12.6952 18.3622 12.338C18.3555 12.2231 18.3564 12.0962 18.2801 12.002C18.2005 11.8877 18.061 11.8266 17.9238 11.8277C17.5972 11.823 17.2697 11.8135 16.944 11.8356Z" fill="#4B4B4B"/>
<path d="M17.1914 14.0614C17.6248 13.9904 18.0846 14.0826 18.4523 14.3244C18.7578 14.5201 18.9985 14.8132 19.1361 15.1485C19.2891 15.5201 19.3093 15.9434 19.1959 16.3285C19.0533 16.8258 18.68 17.2476 18.2076 17.4563C17.7539 17.6601 17.2141 17.6608 16.7602 17.4572C16.2233 17.224 15.8195 16.7109 15.7233 16.133C15.6513 15.7257 15.726 15.295 15.9322 14.9364C16.1936 14.4771 16.6686 14.144 17.1914 14.0614ZM17.2804 14.9598C16.8376 15.055 16.5166 15.5338 16.6095 15.9799C16.6808 16.454 17.1952 16.8042 17.6628 16.692C18.1199 16.609 18.4526 16.1168 18.354 15.6616C18.2787 15.1814 17.7514 14.835 17.2804 14.9598Z" fill="#4B4B4B"/>
<path opacity="0.3" d="M10.3317 3.37769C11.1549 3.28119 12.0117 3.60419 12.5668 4.2196C13.1071 4.80172 13.3565 5.63643 13.2261 6.41963C13.1071 7.19992 12.612 7.90912 11.9251 8.29622C11.1799 8.72786 10.2199 8.75576 9.45056 8.3682C8.73916 8.02136 8.20337 7.33735 8.04007 6.56224C7.89634 5.9068 8.01398 5.19782 8.36644 4.62627C8.78306 3.93709 9.52956 3.45956 10.3317 3.37769Z" fill="#4B4B4B"/>
<path opacity="0.3" d="M17.0079 12.3016C17.2897 12.2825 17.5729 12.2911 17.8554 12.2944C17.9834 12.2911 18.1156 12.346 18.1883 12.4546C18.2556 12.5425 18.2499 12.6584 18.258 12.763C18.2753 13.0932 18.4602 13.413 18.7457 13.5828C19.061 13.7783 19.4816 13.7704 19.7995 13.5851C19.9036 13.523 20.0361 13.498 20.1497 13.5491C20.2707 13.5959 20.3346 13.7162 20.3985 13.8208C20.5195 14.0305 20.649 14.2358 20.7534 14.4544C20.8344 14.6195 20.7552 14.8348 20.5944 14.9189C20.3143 15.0779 20.102 15.3645 20.0606 15.6871C20.012 16.0134 20.1447 16.3544 20.3863 16.576C20.4608 16.6466 20.551 16.6965 20.6344 16.7552C20.7716 16.8472 20.8238 17.0432 20.7545 17.1921C20.6322 17.4384 20.4875 17.673 20.3478 17.9098C20.2855 18.0153 20.1859 18.1096 20.0588 18.1221C19.9252 18.1462 19.8096 18.0619 19.6944 18.0097C19.4047 17.879 19.0527 17.8887 18.7754 18.0466C18.4875 18.204 18.2951 18.5126 18.2607 18.8367C18.2504 18.9303 18.2621 19.0282 18.2261 19.1175C18.1786 19.252 18.0439 19.346 17.9017 19.3489C17.6165 19.3599 17.3304 19.3624 17.0452 19.3478C16.8981 19.3449 16.7638 19.2376 16.7193 19.0992C16.6981 19.0221 16.7013 18.9413 16.6945 18.8626C16.6693 18.5153 16.457 18.1847 16.1441 18.0286C15.8295 17.8633 15.4338 17.8927 15.1317 18.0724C14.9907 18.1602 14.7889 18.1341 14.6783 18.0097C14.5064 17.7695 14.3694 17.5063 14.2257 17.2487C14.1598 17.1385 14.1472 16.9948 14.2095 16.8801C14.2583 16.7732 14.3715 16.7247 14.4617 16.6599C14.7505 16.4604 14.9268 16.1048 14.8996 15.7534C14.8791 15.4327 14.6915 15.1328 14.4234 14.9592C14.3119 14.9016 14.2064 14.8134 14.1789 14.6848C14.1429 14.5692 14.1931 14.4538 14.2496 14.3546C14.3692 14.1321 14.497 13.9135 14.6308 13.6991C14.701 13.5819 14.8377 13.5079 14.9747 13.5235C15.084 13.5307 15.1718 13.6017 15.2696 13.6424C15.5564 13.7646 15.9005 13.7569 16.1738 13.6022C16.4764 13.4369 16.6774 13.1071 16.6957 12.7641C16.7026 12.6761 16.6979 12.583 16.7368 12.5014C16.7881 12.3961 16.892 12.3194 17.0079 12.3016ZM17.1912 14.0613C16.6684 14.1438 16.1934 14.4769 15.932 14.9362C15.7258 15.2948 15.6511 15.7255 15.7231 16.1329C15.8193 16.7107 16.2231 17.2238 16.76 17.457C17.2139 17.6606 17.7537 17.6599 18.2074 17.4561C18.6798 17.2474 19.0532 16.8257 19.1958 16.3283C19.3091 15.9433 19.2889 15.5199 19.1359 15.1484C18.9983 14.813 18.7576 14.5199 18.4521 14.3242C18.0844 14.0824 17.6246 13.9902 17.1912 14.0613Z" fill="#4B4B4B"/>
<path opacity="0.3" d="M8.46803 14.35C9.79378 14.117 11.1499 14.0718 12.4905 14.1845C12.4579 14.3923 12.4637 14.6076 12.5258 14.8096C12.5604 14.94 12.6349 15.0547 12.6709 15.1847C12.7748 15.4925 13.0076 15.7426 13.2885 15.8996C13.2698 15.9479 13.2431 15.9945 13.1997 16.0251C13.1041 16.0948 13.0006 16.1537 12.9118 16.2327C12.5782 16.5199 12.4174 16.9864 12.486 17.4192C12.5055 17.5717 12.5717 17.7112 12.6319 17.8506C12.7302 18.1558 12.9102 18.4244 13.0656 18.7022C13.1963 18.9233 13.3232 19.1559 13.5224 19.3239C13.8898 19.6352 14.4368 19.725 14.879 19.5279C14.9865 19.4863 15.0817 19.4062 15.2004 19.3997C15.2477 19.3993 15.3032 19.4038 15.3383 19.4397C15.3547 19.556 15.359 19.675 15.3961 19.7877C15.4271 19.9067 15.4964 20.0111 15.5302 20.1292C15.5884 20.317 15.7022 20.4816 15.8329 20.6265C14.8329 20.8309 13.8119 20.9067 12.7939 20.9495C12.0674 20.978 11.3402 20.9841 10.6132 20.978C9.70558 20.9681 8.79758 20.9364 7.89378 20.8487C7.20505 20.7794 6.51586 20.6823 5.84782 20.4971C5.41416 20.3743 4.98409 20.2142 4.61003 19.9582C4.32145 19.7618 4.0756 19.4949 3.93255 19.1739C3.74653 18.7665 3.72021 18.3106 3.71391 17.8695C3.71481 17.6518 3.69907 17.4311 3.74743 17.217C3.83627 16.7943 4.0855 16.4228 4.38713 16.1209C4.83924 15.669 5.40089 15.3435 5.98031 15.0829C6.77296 14.7308 7.61577 14.5021 8.46803 14.35Z" fill="#4B4B4B"/>
<path opacity="0.3" d="M17.3228 15.2023C17.6407 15.1153 17.9979 15.3188 18.0883 15.6346C18.194 15.9486 18.0075 16.3198 17.6944 16.4253C17.4142 16.5328 17.0718 16.408 16.9247 16.147C16.7718 15.8965 16.8246 15.5447 17.0455 15.351C17.1236 15.2793 17.2198 15.2277 17.3228 15.2023Z" fill="#4B4B4B"/>
<path opacity="0.5" d="M9.4872 12.2931C10.731 12.1977 11.987 12.2584 13.2151 12.4786C13.0687 12.6714 12.9484 12.8817 12.8283 13.0913C12.6861 13.3448 12.5237 13.5902 12.4274 13.8662C12.1305 13.8374 11.8343 13.7983 11.5363 13.7808C10.4247 13.7052 9.3032 13.7652 8.20798 13.9706C7.40363 14.1245 6.61098 14.3555 5.86646 14.6996C5.21012 15.0057 4.57762 15.3928 4.07985 15.9252C3.75842 16.2689 3.49818 16.6855 3.40708 17.152C3.35557 17.3954 3.37739 17.6451 3.37514 17.8918C3.38414 18.3516 3.39201 18.8205 3.52854 19.2639C3.61784 19.5585 3.78789 19.828 4.01934 20.0318C4.34954 20.3267 4.76116 20.5102 5.17593 20.653C5.79246 20.8613 6.43621 20.976 7.08018 21.0599C8.7069 21.2669 10.3504 21.2556 11.987 21.2388C13.0154 21.221 14.046 21.1989 15.0686 21.0788C15.4302 21.0332 15.7922 20.9769 16.1422 20.8728C16.2452 20.9562 16.3453 21.0469 16.4676 21.1018C16.6966 21.2111 16.9566 21.2012 17.204 21.2064C17.5498 21.205 17.8968 21.2192 18.2412 21.1803C18.0174 21.5141 17.7108 21.7901 17.3608 21.9866C16.6865 22.3567 15.9143 22.4862 15.1597 22.5771C14.0535 22.7021 12.9392 22.7255 11.8269 22.7402C10.5074 22.7541 9.1858 22.7559 7.86969 22.6491C7.05207 22.582 6.23535 22.4781 5.43662 22.2876C4.81784 22.1373 4.20738 21.9288 3.65428 21.6094C3.09803 21.2867 2.61151 20.8247 2.31865 20.2473C2.11419 19.8534 1.997 19.4197 1.93762 18.9816C1.86721 18.4642 1.87194 17.9406 1.87396 17.4197C1.88858 16.6369 2.19831 15.8782 2.67696 15.2653C3.16393 14.6319 3.80161 14.1283 4.48854 13.727C5.17436 13.3287 5.91392 13.0266 6.67329 12.8001C7.58898 12.5288 8.53525 12.3653 9.4872 12.2931Z" fill="#4B4B4B"/>
</svg>
