<svg width="24" height="24" viewBox="0 0 24 24" fill="none" xmlns="http://www.w3.org/2000/svg">
<path d="M11.5858 1.26825C12.5275 1.18485 13.4935 1.38855 14.3179 1.85325C15.2713 2.38425 16.0306 3.25455 16.426 4.27215C16.8754 5.41305 16.8565 6.72885 16.3741 7.85655C15.97 8.81235 15.2419 9.62625 14.3383 10.136C13.3498 10.7006 12.1546 10.8845 11.041 10.6535C10.0741 10.4579 9.17589 9.94725 8.50899 9.22095C7.82199 8.48085 7.38159 7.51575 7.27749 6.51105C7.18659 5.67195 7.32189 4.80885 7.67169 4.04055C8.09229 3.10905 8.82309 2.32155 9.72069 1.83225C10.294 1.51695 10.9336 1.32375 11.5858 1.26825ZM11.5354 2.78325C11.0014 2.85945 10.4875 3.07185 10.0561 3.39585C9.53229 3.78525 9.13089 4.33665 8.92179 4.95495C8.66829 5.69805 8.69619 6.53355 9.00219 7.25715C9.30009 7.97265 9.86409 8.57235 10.5595 8.91435C11.2135 9.24075 11.9797 9.33255 12.6934 9.17595C13.3738 9.03015 14.002 8.65545 14.4565 8.12835C14.7574 7.78185 14.9842 7.37085 15.115 6.93075C15.3193 6.24795 15.2917 5.49795 15.034 4.83315C14.7727 4.14945 14.272 3.56175 13.6396 3.19365C13.012 2.82285 12.2563 2.67885 11.5354 2.78325Z" fill="#4B4B4B"/>
<path d="M18.452 10.9263C18.7901 10.9251 19.1294 10.9113 19.4669 10.9395C20.0081 10.9839 20.4866 11.4129 20.6039 11.9406C20.6351 12.0693 20.6342 12.2025 20.648 12.3336C20.6612 12.4482 20.7608 12.5496 20.8793 12.5514C21.0029 12.5562 21.101 12.468 21.212 12.4278C21.6536 12.2241 22.2026 12.3132 22.5734 12.6219C22.7732 12.7887 22.8998 13.0212 23.0309 13.2414C23.1611 13.4724 23.3051 13.6968 23.4101 13.941C23.6225 14.4252 23.4878 15.0336 23.1002 15.3909C22.9976 15.492 22.8674 15.5571 22.7567 15.6477C22.6487 15.7449 22.6574 15.93 22.7717 16.0191C22.8806 16.1007 23.0015 16.1667 23.0999 16.2621C23.4428 16.578 23.5871 17.0886 23.4704 17.5386C23.4089 17.7624 23.2874 17.9625 23.1746 18.1632C23.0282 18.4077 22.9001 18.666 22.718 18.8868C22.4018 19.26 21.8609 19.4205 21.3911 19.2903C21.2576 19.2543 21.1358 19.1886 21.0125 19.1289C20.9075 19.0767 20.7644 19.0989 20.6969 19.1997C20.6189 19.305 20.6489 19.4439 20.6282 19.5654C20.5841 20.0349 20.2511 20.4534 19.8176 20.6292C19.5374 20.7447 19.2275 20.7255 18.9311 20.7315C18.6908 20.7288 18.4496 20.7375 18.2108 20.7084C17.7062 20.6487 17.2649 20.2551 17.1311 19.7676C17.093 19.6323 17.0855 19.4913 17.0774 19.3518C17.0744 19.2315 16.9835 19.1127 16.8593 19.1034C16.7252 19.0887 16.619 19.1871 16.4996 19.2297C15.9863 19.4616 15.3299 19.299 14.9801 18.8586C14.8226 18.6585 14.705 18.4317 14.5757 18.2133C14.4632 18.0141 14.3423 17.817 14.2688 17.5992C14.1218 17.1378 14.2625 16.5978 14.6165 16.2669C14.7098 16.1772 14.8211 16.1097 14.9273 16.0368C15.032 15.9678 15.0779 15.8172 15.011 15.7071C14.9462 15.6006 14.8214 15.5577 14.7296 15.4806C14.2781 15.1533 14.0909 14.5125 14.2904 13.9929C14.3705 13.785 14.4887 13.5945 14.5982 13.4013C14.7194 13.1949 14.8325 12.9819 14.981 12.7932C15.3356 12.3477 16.0037 12.1887 16.5194 12.432C16.6502 12.4872 16.7897 12.6018 16.9373 12.5277C17.0777 12.4644 17.0837 12.294 17.0864 12.1617C17.1047 11.7075 17.3906 11.2848 17.7908 11.0769C17.9921 10.965 18.2249 10.932 18.452 10.9263ZM18.4247 11.8284C18.2846 11.8248 18.1436 11.8827 18.062 11.9997C17.9696 12.1089 17.9864 12.2586 17.9735 12.3912C17.9423 12.768 17.7194 13.1262 17.3861 13.3083C17.0333 13.5093 16.5794 13.4925 16.2308 13.2909C16.1111 13.2186 15.9614 13.191 15.8306 13.2513C15.6875 13.302 15.6197 13.4469 15.5438 13.5666C15.4079 13.8018 15.2636 14.0328 15.1463 14.2779C15.0536 14.4708 15.1517 14.7165 15.3404 14.8098C15.677 15.003 15.9182 15.3621 15.9404 15.753C15.9701 16.155 15.7643 16.5591 15.4316 16.7832C15.3338 16.8528 15.212 16.9056 15.1604 17.0217C15.0893 17.1498 15.0992 17.3091 15.173 17.4342C15.3233 17.7117 15.4772 17.988 15.65 18.2523C15.7631 18.4371 16.0307 18.4887 16.2104 18.3714C16.5584 18.168 17.0105 18.1389 17.3678 18.3351C17.7119 18.5139 17.9429 18.8793 17.9738 19.2636C17.984 19.3599 17.9759 19.4595 18.0065 19.5528C18.0611 19.6962 18.1988 19.8117 18.3554 19.8192C18.6356 19.8384 18.917 19.8306 19.1978 19.8285C19.3286 19.8234 19.4768 19.8291 19.5806 19.7346C19.7021 19.6467 19.7471 19.4946 19.7423 19.3503C19.7483 18.9459 19.9706 18.5466 20.3273 18.3495C20.6645 18.1542 21.0992 18.1557 21.4418 18.3369C21.5537 18.3966 21.677 18.4614 21.8081 18.4269C21.9632 18.4062 22.067 18.279 22.1387 18.1509C22.2845 17.9049 22.4327 17.6595 22.5629 17.4048C22.6304 17.2836 22.6232 17.1315 22.5566 17.0118C22.5005 16.8999 22.3799 16.8483 22.2833 16.7787C21.9296 16.5366 21.7235 16.0911 21.7907 15.6645C21.8393 15.3015 22.0778 14.9832 22.3919 14.8026C22.5785 14.7072 22.6679 14.457 22.5713 14.2689C22.4567 14.0307 22.3157 13.8063 22.1843 13.5771C22.1045 13.452 22.0334 13.2984 21.8822 13.2474C21.749 13.1895 21.6005 13.2234 21.4814 13.2969C21.1187 13.5021 20.6447 13.5069 20.2901 13.2816C19.9721 13.089 19.7681 12.7317 19.7462 12.3624C19.7366 12.237 19.7453 12.096 19.6556 11.9952C19.5728 11.8785 19.4303 11.8245 19.2908 11.8281C19.0022 11.8206 18.7133 11.8203 18.4247 11.8284Z" fill="#4B4B4B"/>
<path opacity="0.5" d="M10.0134 12.383C11.5338 12.1796 13.0866 12.2075 14.5968 12.4799C14.4243 12.701 14.2932 12.95 14.1513 13.1909C14.0259 13.4123 13.8894 13.6301 13.8051 13.8716C12.4008 13.6838 10.9659 13.7114 9.57305 13.9742C8.56655 14.168 7.57445 14.4839 6.67955 14.9906C6.14105 15.2981 5.63225 15.6776 5.25035 16.1711C4.95935 16.5476 4.75325 17.0069 4.75055 17.4893C4.75265 17.9378 4.74875 18.3887 4.81025 18.8339C4.85825 19.1729 4.95995 19.514 5.17025 19.7891C5.43095 20.1329 5.81465 20.3573 6.20555 20.5244C6.80465 20.7746 7.44455 20.9099 8.08385 21.011C9.30965 21.1955 10.5516 21.2417 11.7894 21.2498C12.7503 21.2513 13.7112 21.2456 14.6715 21.2099C15.3039 21.1844 15.9369 21.1496 16.5651 21.0674C16.8873 21.023 17.2104 20.9708 17.5221 20.8754C17.6136 20.9453 17.6967 21.0278 17.8011 21.0797C18.0432 21.2183 18.3321 21.2033 18.6015 21.2102C18.9423 21.2069 19.2849 21.224 19.6239 21.1823C19.3725 21.5588 19.0167 21.86 18.6111 22.0595C18.009 22.3565 17.34 22.4783 16.6794 22.5647C15.4758 22.7102 14.2614 22.7306 13.0506 22.7459C11.3778 22.7612 9.69785 22.7528 8.03825 22.5206C7.06355 22.3781 6.08045 22.166 5.20085 21.707C4.71545 21.4496 4.26965 21.1025 3.94595 20.6549C3.64955 20.2523 3.46295 19.7771 3.36605 19.2884C3.24455 18.6875 3.24875 18.0713 3.25055 17.4608C3.25565 16.7465 3.50585 16.0466 3.91145 15.4628C4.47125 14.6513 5.27615 14.0387 6.13775 13.5761C7.33955 12.938 8.66945 12.5678 10.0134 12.383Z" fill="#4B4B4B"/>
<path opacity="0.5" d="M18.6159 14.0563C19.0404 13.9966 19.4868 14.0932 19.8441 14.3317C20.2425 14.5903 20.5281 15.0148 20.6175 15.4813C20.7051 15.9223 20.619 16.3954 20.3778 16.7752C20.1408 17.1544 19.7562 17.4388 19.3233 17.5522C18.909 17.6626 18.4548 17.6188 18.0714 17.4259C17.652 17.2204 17.3208 16.8427 17.1726 16.3999C17.0238 15.9652 17.0514 15.4726 17.2512 15.0586C17.5005 14.524 18.0306 14.1331 18.6159 14.0563ZM18.7311 14.9491C18.2544 15.0097 17.8956 15.5059 17.9913 15.9778C18.0624 16.4581 18.5772 16.8079 19.0503 16.6918C19.4982 16.6069 19.8231 16.1359 19.7397 15.6868C19.6788 15.2188 19.1955 14.866 18.7311 14.9491Z" fill="#4B4B4B"/>
</svg>
