<svg width="24" height="24" viewBox="0 0 24 24" fill="none" xmlns="http://www.w3.org/2000/svg">
<path d="M11.5869 1.26816C12.5211 1.18566 13.479 1.38546 14.2986 1.84236C15.2478 2.36556 16.0071 3.22356 16.4091 4.23006C16.8516 5.32326 16.8633 6.58266 16.4427 7.68456C16.0653 8.68746 15.3348 9.55116 14.4111 10.0936C13.4178 10.6855 12.204 10.8871 11.0712 10.6594C10.212 10.4911 9.40377 10.0753 8.76417 9.47736C8.06217 8.82666 7.56387 7.95906 7.36047 7.02336C7.16337 6.12696 7.23057 5.17326 7.55757 4.31496C7.90467 3.39546 8.54727 2.59116 9.36597 2.04726C10.0248 1.60566 10.7964 1.33476 11.5869 1.26816ZM11.5356 2.78316C10.9455 2.86686 10.3803 3.11856 9.92277 3.50076C9.36867 3.95916 8.97357 4.60686 8.82327 5.31066C8.66817 6.02376 8.76027 6.78906 9.08667 7.44216C9.41577 8.10996 9.98157 8.65656 10.6602 8.96196C11.2911 9.24966 12.0156 9.32406 12.6927 9.17616C13.3734 9.03006 14.0019 8.65536 14.4564 8.12826C14.7858 7.74906 15.0261 7.29246 15.1494 6.80556C15.3195 6.14046 15.2733 5.42196 15.0153 4.78566C14.7084 4.01706 14.0949 3.37806 13.3404 3.03876C12.7797 2.78316 12.1452 2.69586 11.5356 2.78316Z" fill="#4B4B4B"/>
<path opacity="0.5" d="M11.5927 12.2553C12.9952 12.219 14.407 12.3693 15.7603 12.7458C16.7737 13.0314 17.761 13.443 18.631 14.0421C19.3387 14.5326 19.9765 15.1569 20.3683 15.9318C20.6191 16.4208 20.7544 16.9692 20.7514 17.5191C20.7523 18.1728 20.7526 18.8361 20.5933 19.4748C20.4721 19.9719 20.2459 20.4474 19.9117 20.8368C19.552 21.2622 19.0813 21.5808 18.5797 21.8163C17.6629 22.2414 16.6588 22.4319 15.6628 22.56C14.1802 22.74 12.6838 22.7646 11.1922 22.743C9.79779 22.713 8.39589 22.6344 7.02939 22.3398C6.13689 22.14 5.23629 21.8403 4.51749 21.2559C4.05909 20.8851 3.70659 20.3862 3.51399 19.8288C3.24129 19.0611 3.24669 18.2343 3.25119 17.43C3.26259 16.7034 3.52809 15.9951 3.94929 15.4077C4.60659 14.4879 5.56689 13.8297 6.57999 13.3548C8.14629 12.6309 9.87459 12.3054 11.5927 12.2553ZM11.4445 13.7616C10.3219 13.8078 9.20109 13.9905 8.13429 14.3475C7.27419 14.6412 6.43569 15.0453 5.74599 15.6456C5.35899 15.9885 5.01879 16.4052 4.85169 16.9005C4.78059 17.1093 4.74669 17.3301 4.74999 17.5506C4.75299 17.9109 4.75209 18.2721 4.78659 18.6312C4.82379 19.0311 4.91379 19.4433 5.15769 19.7718C5.43279 20.1441 5.84949 20.3784 6.27039 20.5506C6.92439 20.8119 7.62099 20.9454 8.31549 21.0444C9.65559 21.2241 11.0104 21.2553 12.3607 21.2487C13.6351 21.2349 14.9146 21.1824 16.1734 20.9685C16.8277 20.8506 17.4856 20.6952 18.0808 20.3898C18.4621 20.193 18.8167 19.9056 18.9997 19.5087C19.2193 19.0398 19.2322 18.5097 19.2469 18.0018C19.2451 17.691 19.2775 17.3739 19.1983 17.0694C19.045 16.446 18.6115 15.9345 18.1252 15.5349C17.3452 14.9055 16.4092 14.4987 15.4534 14.2185C14.1544 13.8444 12.793 13.7082 11.4445 13.7616Z" fill="#4B4B4B"/>
</svg>
