<svg width="24" height="24" viewBox="0 0 24 24" fill="none" xmlns="http://www.w3.org/2000/svg">
<path d="M11.7711 1.27003C12.6495 1.22797 13.5395 1.4331 14.3067 1.86384C15.0396 2.27052 15.6583 2.8776 16.0857 3.59805C16.4859 4.27104 16.713 5.04525 16.7412 5.82778C16.7753 6.67554 16.5794 7.53207 16.1725 8.27704C15.7596 9.03663 15.1361 9.68105 14.3888 10.1163C13.6661 10.5419 12.8274 10.7632 11.9895 10.7623C11.2182 10.763 10.4474 10.5716 9.76746 10.2074C8.98897 9.79419 8.33016 9.15899 7.88839 8.39648C7.55235 7.81796 7.33889 7.16791 7.27299 6.50189C7.18481 5.65188 7.32899 4.77803 7.69248 4.00405C8.04292 3.25211 8.59625 2.59711 9.27531 2.12116C10.0045 1.60877 10.8808 1.30984 11.7711 1.27003ZM11.6416 2.78336C10.7906 2.87265 9.98541 3.31801 9.45503 3.9892C9.01911 4.53263 8.76652 5.21979 8.74897 5.9164C8.7321 6.46163 8.85424 7.01068 9.10436 7.49586C9.43681 8.14545 9.99418 8.67719 10.6602 8.97612C11.4884 9.35355 12.4767 9.35805 13.3078 8.98692C13.9606 8.70036 14.5121 8.19179 14.8517 7.56514C15.2335 6.87033 15.3421 6.03314 15.1581 5.26253C14.9777 4.48855 14.4979 3.79104 13.8438 3.34028C13.2089 2.89672 12.4108 2.69811 11.6416 2.78336Z" fill="#4B4B4B"/>
<path d="M18.2543 10.9502C18.639 10.928 19.0258 10.9266 19.4107 10.9471C19.9631 10.97 20.4634 11.3956 20.5925 11.93C20.628 12.0657 20.6267 12.2067 20.6417 12.3452C20.6546 12.4674 20.7688 12.5724 20.8937 12.5625C21.0158 12.5538 21.113 12.4703 21.225 12.4296C21.6047 12.264 22.0601 12.3095 22.4117 12.5229C22.5818 12.6228 22.7194 12.7695 22.8276 12.9328C22.9551 13.1251 23.0651 13.3282 23.1823 13.5268C23.2734 13.6849 23.3623 13.8453 23.4286 14.0158C23.6187 14.5295 23.4356 15.156 22.9952 15.4832C22.9138 15.5444 22.8242 15.5944 22.7471 15.6607C22.6396 15.7563 22.6522 15.9491 22.7689 16.0321C22.876 16.1119 22.9941 16.1776 23.0912 16.2703C23.4347 16.5867 23.5802 17.0978 23.4626 17.5488C23.3978 17.7834 23.2687 17.9921 23.1497 18.2022C22.9945 18.462 22.8604 18.74 22.6506 18.962C22.324 19.2918 21.8132 19.4247 21.3676 19.2947C21.2367 19.2571 21.1172 19.1905 20.9949 19.1329C20.8876 19.0832 20.7432 19.1161 20.6816 19.2209C20.6161 19.3255 20.6395 19.4541 20.6226 19.5707C20.5792 20.0313 20.2596 20.4447 19.8378 20.6267C19.5981 20.7333 19.3306 20.7369 19.0731 20.7385C18.7879 20.7378 18.5013 20.7488 18.2172 20.7185C17.6374 20.6564 17.1403 20.1519 17.0876 19.5709C17.0663 19.4384 17.1004 19.2785 16.9918 19.1768C16.9003 19.0805 16.7496 19.1033 16.6459 19.1656C16.407 19.3014 16.1276 19.3696 15.8532 19.3365C15.5068 19.3005 15.1715 19.1267 14.9596 18.8475C14.801 18.6395 14.6804 18.4062 14.5477 18.1815C14.426 17.9651 14.2924 17.749 14.236 17.5042C14.1444 17.0883 14.2706 16.6299 14.5659 16.3222C14.6687 16.2109 14.7985 16.1313 14.9225 16.0467C15.027 15.979 15.0727 15.8267 15.0066 15.7176C14.9364 15.6065 14.8059 15.5611 14.7088 15.4792C14.2677 15.1465 14.0868 14.5118 14.2884 13.9969C14.3909 13.7389 14.5441 13.5054 14.6793 13.2641C14.8255 13.0149 14.9706 12.7499 15.2122 12.5798C15.5439 12.3401 15.9913 12.2627 16.3818 12.3902C16.506 12.4276 16.6148 12.5011 16.7356 12.5461C16.8272 12.5821 16.9403 12.5596 17.0053 12.4845C17.0888 12.3828 17.0746 12.2436 17.0845 12.121C17.1326 11.5204 17.652 10.9961 18.2543 10.9502ZM18.3202 11.8473C18.1572 11.8742 18.0116 12.0065 17.986 12.1723C17.9682 12.2913 17.9756 12.4132 17.9496 12.5313C17.8812 12.8788 17.6484 13.1926 17.3281 13.3473C16.9794 13.5198 16.5471 13.4924 16.2142 13.2956C16.0941 13.2238 15.9387 13.2045 15.8107 13.2677C15.687 13.3201 15.6202 13.444 15.5536 13.5531C15.4124 13.7956 15.2634 14.0345 15.142 14.2877C15.0498 14.4756 15.1436 14.7192 15.3253 14.8147C15.669 15.0062 15.9155 15.3737 15.936 15.7696C15.9634 16.1762 15.7495 16.5843 15.409 16.8049C15.3071 16.8713 15.1892 16.9345 15.1433 17.055C15.075 17.1963 15.1105 17.3634 15.1933 17.4907C15.3118 17.7071 15.4317 17.9231 15.5626 18.1325C15.613 18.2078 15.653 18.2933 15.7241 18.3522C15.8566 18.46 16.0577 18.4746 16.2028 18.3824C16.5473 18.1781 17.0004 18.1484 17.3564 18.341C17.6628 18.4982 17.8825 18.8043 17.9496 19.1404C17.9721 19.245 17.9709 19.3525 17.9801 19.4589C17.9912 19.6505 18.1608 19.8199 18.3531 19.8284C18.6457 19.8473 18.9392 19.8399 19.2323 19.8363C19.3482 19.8329 19.4757 19.8275 19.5688 19.7493C19.6898 19.6629 19.7407 19.5095 19.7366 19.3655C19.7366 18.9094 20.0248 18.4615 20.4533 18.294C20.7751 18.1633 21.1546 18.1896 21.4578 18.3581C21.561 18.4141 21.6787 18.4663 21.7988 18.4377C21.9367 18.4181 22.0417 18.3124 22.1099 18.1972C22.2642 17.9365 22.4216 17.6772 22.5595 17.4073C22.6258 17.2825 22.6133 17.125 22.5408 17.0056C22.4812 16.9059 22.3721 16.856 22.2806 16.7917C21.9313 16.5553 21.7234 16.1178 21.7803 15.6971C21.8231 15.3256 22.0658 14.9933 22.3883 14.8112C22.571 14.7156 22.6594 14.4684 22.5656 14.2819C22.4446 14.0329 22.2981 13.7974 22.1591 13.5583C22.0903 13.4456 22.0208 13.3172 21.8921 13.2643C21.7623 13.2025 21.6076 13.2276 21.4879 13.3003C21.1071 13.5239 20.5959 13.5183 20.233 13.2598C19.9373 13.0565 19.7528 12.7069 19.7384 12.3497C19.7317 12.2348 19.7326 12.1079 19.6563 12.0137C19.5767 11.8994 19.4372 11.8383 19.3 11.8394C18.9734 11.8347 18.6459 11.8252 18.3202 11.8473Z" fill="#4B4B4B"/>
<path d="M18.5676 14.0731C19.001 14.0021 19.4608 14.0943 19.8285 14.3361C20.134 14.5318 20.3747 14.8249 20.5123 15.1602C20.6653 15.5318 20.6855 15.9551 20.5721 16.3402C20.4295 16.8375 20.0562 17.2593 19.5838 17.468C19.1301 17.6718 18.5903 17.6725 18.1364 17.4689C17.5995 17.2357 17.1957 16.7226 17.0995 16.1447C17.0275 15.7374 17.1022 15.3067 17.3084 14.9481C17.5698 14.4888 18.0448 14.1557 18.5676 14.0731ZM18.6566 14.9715C18.2138 15.0667 17.8928 15.5455 17.9857 15.9916C18.057 16.4657 18.5714 16.8159 19.039 16.7037C19.4961 16.6207 19.8288 16.1285 19.7302 15.6733C19.6549 15.1931 19.1276 14.8467 18.6566 14.9715Z" fill="#4B4B4B"/>
<path opacity="0.3" d="M11.7079 3.38941C12.5311 3.29291 13.3879 3.61591 13.943 4.23132C14.4833 4.81344 14.7327 5.64815 14.6023 6.43135C14.4833 7.21164 13.9882 7.92084 13.3013 8.30794C12.5561 8.73958 11.5961 8.76748 10.8268 8.37992C10.1154 8.03308 9.57959 7.34907 9.41629 6.57396C9.27256 5.91852 9.3902 5.20954 9.74266 4.63799C10.1593 3.94881 10.9058 3.47128 11.7079 3.38941Z" fill="#4B4B4B"/>
<path opacity="0.3" d="M18.3841 12.3133C18.6659 12.2942 18.9491 12.3028 19.2316 12.3061C19.3596 12.3028 19.4918 12.3577 19.5645 12.4663C19.6318 12.5542 19.6261 12.6701 19.6342 12.7747C19.6515 13.1049 19.8364 13.4247 20.1219 13.5945C20.4372 13.79 20.8578 13.7821 21.1757 13.5968C21.2798 13.5347 21.4123 13.5097 21.5259 13.5608C21.6469 13.6076 21.7108 13.7279 21.7747 13.8325C21.8957 14.0422 22.0252 14.2475 22.1296 14.4661C22.2106 14.6312 22.1314 14.8465 21.9706 14.9306C21.6905 15.0896 21.4782 15.3762 21.4368 15.6988C21.3882 16.0251 21.5209 16.3661 21.7625 16.5877C21.837 16.6583 21.9272 16.7082 22.0106 16.7669C22.1478 16.8589 22.2 17.0549 22.1307 17.2038C22.0084 17.4501 21.8637 17.6847 21.724 17.9215C21.6617 18.027 21.5621 18.1213 21.435 18.1338C21.3014 18.1579 21.1858 18.0736 21.0706 18.0214C20.7809 17.8907 20.4289 17.9004 20.1516 18.0583C19.8637 18.2157 19.6713 18.5243 19.6369 18.8484C19.6266 18.942 19.6383 19.0399 19.6023 19.1292C19.5548 19.2637 19.4201 19.3577 19.2779 19.3606C18.9927 19.3716 18.7066 19.3741 18.4214 19.3595C18.2743 19.3566 18.14 19.2493 18.0955 19.1109C18.0743 19.0338 18.0775 18.953 18.0707 18.8743C18.0455 18.527 17.8332 18.1964 17.5203 18.0403C17.2057 17.875 16.81 17.9044 16.5079 18.0841C16.3669 18.1719 16.1651 18.1458 16.0545 18.0214C15.8826 17.7812 15.7456 17.518 15.6019 17.2604C15.536 17.1502 15.5234 17.0065 15.5857 16.8918C15.6345 16.7849 15.7477 16.7364 15.8379 16.6716C16.1267 16.4721 16.303 16.1165 16.2758 15.7651C16.2553 15.4444 16.0677 15.1445 15.7996 14.9709C15.6881 14.9133 15.5826 14.8251 15.5551 14.6965C15.5191 14.5809 15.5693 14.4655 15.6258 14.3663C15.7454 14.1438 15.8732 13.9252 16.007 13.7108C16.0772 13.5936 16.2139 13.5196 16.3509 13.5352C16.4602 13.5424 16.548 13.6134 16.6458 13.6541C16.9326 13.7763 17.2767 13.7686 17.55 13.6139C17.8526 13.4486 18.0536 13.1188 18.0719 12.7758C18.0788 12.6878 18.0741 12.5947 18.113 12.5131C18.1643 12.4078 18.2682 12.3311 18.3841 12.3133ZM18.5674 14.073C18.0446 14.1555 17.5696 14.4886 17.3082 14.9479C17.102 15.3065 17.0273 15.7372 17.0993 16.1446C17.1955 16.7224 17.5993 17.2355 18.1362 17.4687C18.5901 17.6723 19.1299 17.6716 19.5836 17.4678C20.056 17.2591 20.4294 16.8374 20.572 16.34C20.6853 15.955 20.6651 15.5316 20.5121 15.1601C20.3745 14.8247 20.1338 14.5316 19.8283 14.3359C19.4606 14.0941 19.0008 14.0019 18.5674 14.073Z" fill="#4B4B4B"/>
<path opacity="0.3" d="M9.84425 14.3617C11.17 14.1287 12.5261 14.0835 13.8667 14.1962C13.8341 14.404 13.8399 14.6193 13.902 14.8213C13.9366 14.9517 14.0111 15.0664 14.0471 15.1964C14.151 15.5042 14.3838 15.7543 14.6647 15.9113C14.646 15.9596 14.6193 16.0062 14.5759 16.0368C14.4803 16.1065 14.3768 16.1654 14.288 16.2444C13.9544 16.5316 13.7936 16.9981 13.8622 17.4309C13.8817 17.5834 13.9479 17.7229 14.0081 17.8623C14.1064 18.1675 14.2864 18.4361 14.4418 18.7139C14.5725 18.935 14.6994 19.1676 14.8986 19.3356C15.266 19.6469 15.813 19.7367 16.2552 19.5396C16.3627 19.498 16.4579 19.4179 16.5766 19.4114C16.6239 19.411 16.6794 19.4155 16.7145 19.4514C16.7309 19.5677 16.7352 19.6867 16.7723 19.7994C16.8033 19.9184 16.8726 20.0228 16.9064 20.1409C16.9646 20.3287 17.0784 20.4933 17.2091 20.6382C16.2091 20.8426 15.1881 20.9184 14.1701 20.9612C13.4436 20.9897 12.7164 20.9958 11.9894 20.9897C11.0818 20.9798 10.1738 20.9481 9.27 20.8604C8.58127 20.7911 7.89208 20.694 7.22404 20.5088C6.79038 20.386 6.36031 20.2259 5.98625 19.9699C5.69767 19.7735 5.45182 19.5066 5.30877 19.1856C5.12275 18.7782 5.09643 18.3223 5.09013 17.8812C5.09103 17.6635 5.07529 17.4428 5.12365 17.2287C5.21249 16.806 5.46172 16.4345 5.76335 16.1326C6.21546 15.6807 6.77711 15.3552 7.35653 15.0946C8.14918 14.7425 8.99199 14.5138 9.84425 14.3617Z" fill="#4B4B4B"/>
<path opacity="0.3" d="M18.699 15.214C19.0169 15.127 19.3741 15.3305 19.4645 15.6463C19.5702 15.9603 19.3837 16.3315 19.0706 16.437C18.7904 16.5445 18.448 16.4197 18.3009 16.1587C18.148 15.9082 18.2008 15.5564 18.4217 15.3627C18.4998 15.291 18.596 15.2394 18.699 15.214Z" fill="#4B4B4B"/>
<path opacity="0.5" d="M10.8634 12.3049C12.1072 12.2095 13.3632 12.2702 14.5913 12.4904C14.4449 12.6832 14.3246 12.8935 14.2045 13.1031C14.0623 13.3566 13.8999 13.602 13.8036 13.878C13.5067 13.8492 13.2105 13.8101 12.9125 13.7926C11.8009 13.717 10.6794 13.777 9.5842 13.9824C8.77985 14.1363 7.9872 14.3673 7.24268 14.7114C6.58634 15.0175 5.95384 15.4046 5.45607 15.937C5.13464 16.2807 4.8744 16.6973 4.7833 17.1638C4.73179 17.4072 4.75361 17.6569 4.75136 17.9036C4.76036 18.3634 4.76823 18.8323 4.90476 19.2757C4.99406 19.5703 5.16411 19.8398 5.39556 20.0436C5.72576 20.3385 6.13738 20.522 6.55215 20.6648C7.16868 20.8731 7.81243 20.9878 8.4564 21.0717C10.0831 21.2787 11.7266 21.2674 13.3632 21.2506C14.3916 21.2328 15.4222 21.2107 16.4448 21.0906C16.8064 21.045 17.1684 20.9887 17.5184 20.8846C17.6214 20.968 17.7215 21.0587 17.8438 21.1136C18.0728 21.2229 18.3328 21.213 18.5802 21.2182C18.926 21.2168 19.273 21.231 19.6174 21.1921C19.3936 21.5259 19.087 21.8019 18.737 21.9984C18.0627 22.3685 17.2905 22.498 16.5359 22.5889C15.4297 22.7139 14.3154 22.7373 13.2031 22.752C11.8836 22.7659 10.562 22.7677 9.24591 22.6609C8.42829 22.5938 7.61157 22.4899 6.81284 22.2994C6.19406 22.1491 5.5836 21.9406 5.0305 21.6212C4.47425 21.2985 3.98773 20.8365 3.69487 20.2591C3.49041 19.8652 3.37322 19.4315 3.31384 18.9934C3.24343 18.476 3.24816 17.9524 3.25018 17.4315C3.2648 16.6487 3.57453 15.89 4.05318 15.2771C4.54015 14.6437 5.17783 14.1401 5.86476 13.7388C6.55058 13.3405 7.29014 13.0384 8.04951 12.8119C8.9652 12.5406 9.91147 12.3771 10.8634 12.3049Z" fill="#4B4B4B"/>
</svg>
