<svg width="24" height="24" viewBox="0 0 24 24" fill="none" xmlns="http://www.w3.org/2000/svg">
<path d="M11.771 1.26994C12.6494 1.22788 13.5394 1.43301 14.3066 1.86375C15.0395 2.27043 15.6582 2.87751 16.0856 3.59796C16.4858 4.27095 16.7129 5.04516 16.7411 5.82769C16.7752 6.67545 16.5793 7.53198 16.1724 8.27695C15.7595 9.03654 15.136 9.68096 14.3887 10.1162C13.666 10.5418 12.8273 10.7631 11.9894 10.7622C11.2181 10.7629 10.4473 10.5715 9.76734 10.2073C8.98885 9.7941 8.33004 9.1589 7.88827 8.39639C7.55223 7.81787 7.33877 7.16782 7.27287 6.5018C7.18469 5.65179 7.32887 4.77794 7.69236 4.00396C8.0428 3.25202 8.59613 2.59702 9.27519 2.12107C10.0044 1.60868 10.8807 1.30975 11.771 1.26994ZM11.6415 2.78327C10.7905 2.87256 9.98529 3.31792 9.45491 3.98911C9.01899 4.53254 8.7664 5.2197 8.74885 5.91631C8.73198 6.46154 8.85412 7.01059 9.10424 7.49577C9.43669 8.14536 9.99406 8.6771 10.6601 8.97603C11.4883 9.35346 12.4766 9.35796 13.3077 8.98683C13.9605 8.70027 14.512 8.1917 14.8516 7.56505C15.2334 6.87024 15.342 6.03305 15.158 5.26244C14.9776 4.48846 14.4978 3.79095 13.8437 3.34019C13.2088 2.89663 12.4107 2.69802 11.6415 2.78327Z" fill="#4B4B4B"/>
<path d="M18.2544 10.9502C18.639 10.928 19.0259 10.9266 19.4107 10.9471C19.9632 10.97 20.4634 11.3956 20.5925 11.93C20.6281 12.0657 20.6267 12.2067 20.6418 12.3452C20.6546 12.4674 20.7689 12.5724 20.8937 12.5625C21.0158 12.5538 21.113 12.4703 21.225 12.4296C21.6047 12.264 22.0602 12.3095 22.4118 12.5229C22.5818 12.6228 22.7195 12.7695 22.8276 12.9328C22.9552 13.1251 23.0652 13.3282 23.1824 13.5268C23.2735 13.6849 23.3623 13.8453 23.4287 14.0158C23.6187 14.5295 23.4356 15.156 22.9952 15.4832C22.9138 15.5444 22.8243 15.5944 22.7471 15.6607C22.6396 15.7563 22.6522 15.9491 22.7689 16.0321C22.876 16.1119 22.9941 16.1776 23.0913 16.2703C23.4347 16.5867 23.5803 17.0978 23.4626 17.5488C23.3978 17.7834 23.2687 17.9921 23.1497 18.2022C22.9945 18.462 22.8605 18.74 22.6506 18.962C22.324 19.2918 21.8132 19.4247 21.3676 19.2947C21.2367 19.2571 21.1173 19.1905 20.9949 19.1329C20.8876 19.0832 20.7432 19.1161 20.6816 19.2209C20.6161 19.3255 20.6395 19.4541 20.6227 19.5707C20.5792 20.0313 20.2596 20.4447 19.8379 20.6267C19.5981 20.7333 19.3307 20.7369 19.0731 20.7385C18.7879 20.7378 18.5013 20.7488 18.2173 20.7185C17.6374 20.6564 17.1403 20.1519 17.0877 19.5709C17.0663 19.4384 17.1005 19.2785 16.9918 19.1768C16.9003 19.0805 16.7496 19.1033 16.6459 19.1656C16.407 19.3014 16.1277 19.3696 15.8533 19.3365C15.5069 19.3005 15.1715 19.1267 14.9596 18.8475C14.801 18.6395 14.6805 18.4062 14.5478 18.1815C14.4261 17.9651 14.2925 17.749 14.236 17.5042C14.1445 17.0883 14.2706 16.6299 14.566 16.3222C14.6688 16.2109 14.7986 16.1313 14.9225 16.0467C15.0271 15.979 15.0727 15.8267 15.0066 15.7176C14.9364 15.6065 14.806 15.5611 14.7088 15.4792C14.2677 15.1465 14.0869 14.5118 14.2884 13.9969C14.391 13.7389 14.5442 13.5054 14.6793 13.2641C14.8255 13.0149 14.9706 12.7499 15.2122 12.5798C15.544 12.3401 15.9914 12.2627 16.3818 12.3902C16.506 12.4276 16.6149 12.5011 16.7357 12.5461C16.8272 12.5821 16.9403 12.5596 17.0053 12.4845C17.0888 12.3828 17.0746 12.2436 17.0845 12.121C17.1327 11.5204 17.652 10.9961 18.2544 10.9502ZM18.3203 11.8473C18.1572 11.8742 18.0117 12.0065 17.986 12.1723C17.9683 12.2913 17.9757 12.4132 17.9496 12.5313C17.8812 12.8788 17.6484 13.1926 17.3281 13.3473C16.9795 13.5198 16.5472 13.4924 16.2143 13.2956C16.0942 13.2238 15.9387 13.2045 15.8107 13.2677C15.687 13.3201 15.6202 13.444 15.5536 13.5531C15.4124 13.7956 15.2635 14.0345 15.142 14.2877C15.0498 14.4756 15.1436 14.7192 15.3253 14.8147C15.669 15.0062 15.9156 15.3737 15.936 15.7696C15.9635 16.1762 15.7496 16.5843 15.409 16.8049C15.3071 16.8713 15.1893 16.9345 15.1434 17.055C15.075 17.1963 15.1105 17.3634 15.1933 17.4907C15.3118 17.7071 15.4317 17.9231 15.5626 18.1325C15.613 18.2078 15.6531 18.2933 15.7241 18.3522C15.8566 18.46 16.0577 18.4746 16.2028 18.3824C16.5474 18.1781 17.0004 18.1484 17.3565 18.341C17.6628 18.4982 17.8826 18.8043 17.9496 19.1404C17.9721 19.245 17.971 19.3525 17.9802 19.4589C17.9912 19.6505 18.1608 19.8199 18.3531 19.8284C18.6458 19.8473 18.9393 19.8399 19.2324 19.8363C19.3482 19.8329 19.4757 19.8275 19.5689 19.7493C19.6899 19.6629 19.7407 19.5095 19.7367 19.3655C19.7367 18.9094 20.0248 18.4615 20.4533 18.294C20.7752 18.1633 21.1546 18.1896 21.4578 18.3581C21.5611 18.4141 21.6787 18.4663 21.7988 18.4377C21.9367 18.4181 22.0417 18.3124 22.1099 18.1972C22.2642 17.9365 22.4216 17.6772 22.5595 17.4073C22.6259 17.2825 22.6133 17.125 22.5409 17.0056C22.4813 16.9059 22.3722 16.856 22.2806 16.7917C21.9313 16.5553 21.7235 16.1178 21.7804 15.6971C21.8231 15.3256 22.0658 14.9933 22.3884 14.8112C22.571 14.7156 22.6594 14.4684 22.5656 14.2819C22.4446 14.0329 22.2982 13.7974 22.1592 13.5583C22.0903 13.4456 22.0208 13.3172 21.8922 13.2643C21.7624 13.2025 21.6076 13.2276 21.488 13.3003C21.1072 13.5239 20.5959 13.5183 20.2331 13.2598C19.9373 13.0565 19.7529 12.7069 19.7385 12.3497C19.7317 12.2348 19.7326 12.1079 19.6564 12.0137C19.5767 11.8994 19.4373 11.8383 19.3001 11.8394C18.9735 11.8347 18.646 11.8252 18.3203 11.8473Z" fill="#4B4B4B"/>
<path d="M18.5675 14.0729C19.0009 14.0019 19.4607 14.0941 19.8284 14.3359C20.1339 14.5316 20.3746 14.8247 20.5122 15.16C20.6652 15.5316 20.6854 15.9549 20.572 16.34C20.4294 16.8373 20.0561 17.2591 19.5837 17.4678C19.13 17.6716 18.5902 17.6723 18.1363 17.4687C17.5994 17.2355 17.1956 16.7224 17.0994 16.1445C17.0274 15.7372 17.1021 15.3065 17.3083 14.9479C17.5697 14.4886 18.0447 14.1555 18.5675 14.0729ZM18.6565 14.9713C18.2137 15.0665 17.8927 15.5453 17.9856 15.9914C18.0569 16.4655 18.5713 16.8157 19.0389 16.7035C19.496 16.6205 19.8287 16.1283 19.7301 15.6731C19.6548 15.1929 19.1275 14.8465 18.6565 14.9713Z" fill="#4B4B4B"/>
<path opacity="0.3" d="M11.708 3.38947C12.5312 3.29297 13.388 3.61597 13.9431 4.23138C14.4834 4.8135 14.7328 5.64821 14.6024 6.43141C14.4834 7.2117 13.9883 7.9209 13.3014 8.308C12.5562 8.73964 11.5962 8.76754 10.8269 8.37998C10.1155 8.03314 9.57971 7.34913 9.41641 6.57402C9.27268 5.91858 9.39032 5.2096 9.74278 4.63805C10.1594 3.94887 10.9059 3.47134 11.708 3.38947Z" fill="#4B4B4B"/>
<path opacity="0.3" d="M18.3842 12.3133C18.666 12.2942 18.9492 12.3028 19.2317 12.3061C19.3597 12.3028 19.4919 12.3577 19.5646 12.4663C19.6319 12.5542 19.6262 12.6701 19.6343 12.7747C19.6516 13.1049 19.8365 13.4247 20.122 13.5945C20.4373 13.79 20.8579 13.7821 21.1758 13.5968C21.2799 13.5347 21.4124 13.5097 21.526 13.5608C21.647 13.6076 21.7109 13.7279 21.7748 13.8325C21.8958 14.0422 22.0253 14.2475 22.1297 14.4661C22.2107 14.6312 22.1315 14.8465 21.9707 14.9306C21.6906 15.0896 21.4783 15.3762 21.4369 15.6988C21.3883 16.0251 21.521 16.3661 21.7626 16.5877C21.8371 16.6583 21.9273 16.7082 22.0107 16.7669C22.1479 16.8589 22.2001 17.0549 22.1308 17.2038C22.0085 17.4501 21.8638 17.6847 21.7241 17.9215C21.6618 18.027 21.5622 18.1213 21.4351 18.1338C21.3015 18.1579 21.1859 18.0736 21.0707 18.0214C20.781 17.8907 20.429 17.9004 20.1517 18.0583C19.8638 18.2157 19.6714 18.5243 19.637 18.8484C19.6267 18.942 19.6384 19.0399 19.6024 19.1292C19.5549 19.2637 19.4202 19.3577 19.278 19.3606C18.9928 19.3716 18.7067 19.3741 18.4215 19.3595C18.2744 19.3566 18.1401 19.2493 18.0956 19.1109C18.0744 19.0338 18.0776 18.953 18.0708 18.8743C18.0456 18.527 17.8333 18.1964 17.5204 18.0403C17.2058 17.875 16.8101 17.9044 16.508 18.0841C16.367 18.1719 16.1652 18.1458 16.0546 18.0214C15.8827 17.7812 15.7457 17.518 15.602 17.2604C15.5361 17.1502 15.5235 17.0065 15.5858 16.8918C15.6346 16.7849 15.7478 16.7364 15.838 16.6716C16.1268 16.4721 16.3031 16.1165 16.2759 15.7651C16.2554 15.4444 16.0678 15.1445 15.7997 14.9709C15.6882 14.9133 15.5827 14.8251 15.5552 14.6965C15.5192 14.5809 15.5694 14.4655 15.6259 14.3663C15.7455 14.1438 15.8733 13.9252 16.0071 13.7108C16.0773 13.5936 16.214 13.5196 16.351 13.5352C16.4603 13.5424 16.5481 13.6134 16.6459 13.6541C16.9327 13.7763 17.2768 13.7686 17.5501 13.6139C17.8527 13.4486 18.0537 13.1188 18.072 12.7758C18.0789 12.6878 18.0742 12.5947 18.1131 12.5131C18.1644 12.4078 18.2683 12.3311 18.3842 12.3133ZM18.5675 14.073C18.0447 14.1555 17.5697 14.4886 17.3083 14.9479C17.1021 15.3065 17.0274 15.7372 17.0994 16.1446C17.1956 16.7224 17.5994 17.2355 18.1363 17.4687C18.5902 17.6723 19.13 17.6716 19.5837 17.4678C20.0561 17.2591 20.4295 16.8374 20.5721 16.34C20.6854 15.955 20.6652 15.5316 20.5122 15.1601C20.3746 14.8247 20.1339 14.5316 19.8284 14.3359C19.4607 14.0941 19.0009 14.0019 18.5675 14.073Z" fill="#4B4B4B"/>
<path opacity="0.3" d="M9.84425 14.3615C11.17 14.1285 12.5261 14.0833 13.8667 14.196C13.8341 14.4038 13.8399 14.6191 13.902 14.8211C13.9366 14.9515 14.0111 15.0662 14.0471 15.1962C14.151 15.504 14.3838 15.7541 14.6647 15.9111C14.646 15.9594 14.6193 16.006 14.5759 16.0366C14.4803 16.1063 14.3768 16.1652 14.288 16.2442C13.9544 16.5314 13.7936 16.9979 13.8622 17.4307C13.8817 17.5832 13.9479 17.7227 14.0081 17.8621C14.1064 18.1673 14.2864 18.4359 14.4418 18.7137C14.5725 18.9348 14.6994 19.1674 14.8986 19.3354C15.266 19.6467 15.813 19.7365 16.2552 19.5394C16.3627 19.4978 16.4579 19.4177 16.5766 19.4112C16.6239 19.4108 16.6794 19.4153 16.7145 19.4512C16.7309 19.5675 16.7352 19.6865 16.7723 19.7992C16.8033 19.9182 16.8726 20.0226 16.9064 20.1407C16.9646 20.3285 17.0784 20.4931 17.2091 20.638C16.2091 20.8424 15.1881 20.9182 14.1701 20.961C13.4436 20.9895 12.7164 20.9956 11.9894 20.9895C11.0818 20.9796 10.1738 20.9479 9.27 20.8602C8.58127 20.7909 7.89208 20.6938 7.22404 20.5086C6.79038 20.3858 6.36031 20.2257 5.98625 19.9697C5.69767 19.7733 5.45182 19.5064 5.30877 19.1854C5.12275 18.778 5.09643 18.3221 5.09013 17.881C5.09103 17.6633 5.07529 17.4426 5.12365 17.2285C5.21249 16.8058 5.46172 16.4343 5.76335 16.1324C6.21546 15.6805 6.77711 15.355 7.35653 15.0944C8.14918 14.7423 8.99199 14.5136 9.84425 14.3615Z" fill="#4B4B4B"/>
<path opacity="0.3" d="M18.699 15.2142C19.0169 15.1272 19.3741 15.3307 19.4645 15.6465C19.5702 15.9605 19.3837 16.3317 19.0706 16.4372C18.7904 16.5447 18.448 16.4199 18.3009 16.1589C18.148 15.9084 18.2008 15.5566 18.4217 15.3629C18.4998 15.2912 18.596 15.2396 18.699 15.2142Z" fill="#4B4B4B"/>
<path opacity="0.5" d="M10.8632 12.3048C12.1071 12.2094 13.3631 12.2701 14.5912 12.4903C14.4448 12.6831 14.3244 12.8934 14.2043 13.103C14.0621 13.3565 13.8997 13.6019 13.8035 13.8779C13.5066 13.8491 13.2103 13.81 12.9123 13.7925C11.8007 13.7169 10.6792 13.7769 9.58402 13.9823C8.77967 14.1362 7.98702 14.3672 7.2425 14.7113C6.58616 15.0174 5.95366 15.4045 5.45589 15.9369C5.13446 16.2806 4.87422 16.6972 4.78312 17.1637C4.73161 17.4071 4.75343 17.6568 4.75118 17.9035C4.76018 18.3633 4.76805 18.8322 4.90458 19.2756C4.99388 19.5702 5.16393 19.8397 5.39538 20.0435C5.72558 20.3384 6.1372 20.5219 6.55197 20.6647C7.1685 20.873 7.81225 20.9877 8.45622 21.0716C10.0829 21.2786 11.7265 21.2673 13.3631 21.2505C14.3914 21.2327 15.4221 21.2106 16.4446 21.0905C16.8063 21.0449 17.1682 20.9886 17.5182 20.8845C17.6212 20.9679 17.7213 21.0586 17.8437 21.1135C18.0726 21.2228 18.3327 21.2129 18.5801 21.2181C18.9258 21.2167 19.2729 21.2309 19.6172 21.192C19.3934 21.5258 19.0869 21.8018 18.7369 21.9983C18.0625 22.3684 17.2903 22.4979 16.5357 22.5888C15.4295 22.7138 14.3152 22.7372 13.2029 22.7519C11.8835 22.7658 10.5618 22.7676 9.24573 22.6608C8.42811 22.5937 7.61139 22.4898 6.81266 22.2993C6.19388 22.149 5.58342 21.9405 5.03032 21.6211C4.47407 21.2984 3.98754 20.8364 3.69469 20.259C3.49023 19.8651 3.37304 19.4314 3.31366 18.9933C3.24325 18.4759 3.24798 17.9523 3.25 17.4314C3.26462 16.6486 3.57435 15.8899 4.053 15.277C4.53997 14.6436 5.17765 14.14 5.86458 13.7387C6.55039 13.3404 7.28996 13.0383 8.04933 12.8118C8.96501 12.5405 9.91129 12.377 10.8632 12.3048Z" fill="#4B4B4B"/>
</svg>
