<svg width="24" height="24" viewBox="0 0 24 24" fill="none" xmlns="http://www.w3.org/2000/svg">
<path d="M10.2057 1.26776C11.1474 1.18436 12.1134 1.38806 12.9378 1.85276C13.8912 2.38376 14.6505 3.25406 15.0459 4.27166C15.4953 5.41256 15.4764 6.72836 14.994 7.85606C14.5899 8.81186 13.8618 9.62576 12.9582 10.1355C11.9697 10.7001 10.7745 10.884 9.66088 10.653C8.69398 10.4574 7.79577 9.94676 7.12887 9.22046C6.44187 8.48036 6.00147 7.51526 5.89737 6.51056C5.80647 5.67146 5.94177 4.80836 6.29157 4.04006C6.71217 3.10856 7.44297 2.32106 8.34056 1.83176C8.91388 1.51646 9.55348 1.32326 10.2057 1.26776ZM10.1553 2.78276C9.62128 2.85896 9.10738 3.07136 8.67598 3.39536C8.15216 3.78476 7.75077 4.33616 7.54167 4.95446C7.28817 5.69756 7.31606 6.53306 7.62206 7.25666C7.91996 7.97216 8.48396 8.57186 9.17937 8.91386C9.83337 9.24026 10.5996 9.33206 11.3133 9.17546C11.9937 9.02966 12.6219 8.65496 13.0764 8.12786C13.3773 7.78136 13.6041 7.37036 13.7349 6.93026C13.9392 6.24746 13.9116 5.49746 13.6539 4.83266C13.3926 4.14896 12.8919 3.56126 12.2595 3.19316C11.6319 2.82236 10.8762 2.67836 10.1553 2.78276Z" fill="#4B4B4B"/>
<path d="M17.0718 10.9258C17.4099 10.9246 17.7492 10.9108 18.0867 10.939C18.6279 10.9834 19.1064 11.4124 19.2237 11.9401C19.2549 12.0688 19.254 12.202 19.2678 12.3331C19.281 12.4477 19.3806 12.5491 19.4991 12.5509C19.6227 12.5557 19.7208 12.4675 19.8318 12.4273C20.2734 12.2236 20.8224 12.3127 21.1932 12.6214C21.393 12.7882 21.5196 13.0207 21.6507 13.2409C21.7809 13.4719 21.9249 13.6963 22.0299 13.9405C22.2423 14.4247 22.1076 15.0331 21.72 15.3904C21.6174 15.4915 21.4872 15.5566 21.3765 15.6472C21.2685 15.7444 21.2772 15.9295 21.3915 16.0186C21.5004 16.1002 21.6213 16.1662 21.7197 16.2616C22.0626 16.5775 22.2069 17.0881 22.0902 17.5381C22.0287 17.7619 21.9072 17.962 21.7944 18.1627C21.648 18.4072 21.5199 18.6655 21.3378 18.8863C21.0216 19.2595 20.4807 19.42 20.0109 19.2898C19.8774 19.2538 19.7556 19.1881 19.6323 19.1284C19.5273 19.0762 19.3842 19.0984 19.3167 19.1992C19.2387 19.3045 19.2687 19.4434 19.248 19.5649C19.2039 20.0344 18.8709 20.4529 18.4374 20.6287C18.1572 20.7442 17.8473 20.725 17.5509 20.731C17.3106 20.7283 17.0694 20.737 16.8306 20.7079C16.326 20.6482 15.8847 20.2546 15.7509 19.7671C15.7128 19.6318 15.7053 19.4908 15.6972 19.3513C15.6942 19.231 15.6033 19.1122 15.4791 19.1029C15.345 19.0882 15.2388 19.1866 15.1194 19.2292C14.6061 19.4611 13.9497 19.2985 13.5999 18.8581C13.4424 18.658 13.3248 18.4312 13.1955 18.2128C13.083 18.0136 12.9621 17.8165 12.8886 17.5987C12.7416 17.1373 12.8823 16.5973 13.2363 16.2664C13.3296 16.1767 13.4409 16.1092 13.5471 16.0363C13.6518 15.9673 13.6977 15.8167 13.6308 15.7066C13.566 15.6001 13.4412 15.5572 13.3494 15.4801C12.8979 15.1528 12.7107 14.512 12.9102 13.9924C12.9903 13.7845 13.1085 13.594 13.218 13.4008C13.3392 13.1944 13.4523 12.9814 13.6008 12.7927C13.9554 12.3472 14.6235 12.1882 15.1392 12.4315C15.27 12.4867 15.4095 12.6013 15.5571 12.5272C15.6975 12.4639 15.7035 12.2935 15.7062 12.1612C15.7245 11.707 16.0104 11.2843 16.4106 11.0764C16.6119 10.9645 16.8447 10.9315 17.0718 10.9258ZM17.0445 11.8279C16.9044 11.8243 16.7634 11.8822 16.6818 11.9992C16.5894 12.1084 16.6062 12.2581 16.5933 12.3907C16.5621 12.7675 16.3392 13.1257 16.0059 13.3078C15.6531 13.5088 15.1992 13.492 14.8506 13.2904C14.7309 13.2181 14.5812 13.1905 14.4504 13.2508C14.3073 13.3015 14.2395 13.4464 14.1636 13.5661C14.0277 13.8013 13.8834 14.0323 13.7661 14.2774C13.6734 14.4703 13.7715 14.716 13.9602 14.8093C14.2968 15.0025 14.538 15.3616 14.5602 15.7525C14.5899 16.1545 14.3841 16.5586 14.0514 16.7827C13.9536 16.8523 13.8318 16.9051 13.7802 17.0212C13.7091 17.1493 13.719 17.3086 13.7928 17.4337C13.9431 17.7112 14.097 17.9875 14.2698 18.2518C14.3829 18.4366 14.6505 18.4882 14.8302 18.3709C15.1782 18.1675 15.6303 18.1384 15.9876 18.3346C16.3317 18.5134 16.5627 18.8788 16.5936 19.2631C16.6038 19.3594 16.5957 19.459 16.6263 19.5523C16.6809 19.6957 16.8186 19.8112 16.9752 19.8187C17.2554 19.8379 17.5368 19.8301 17.8176 19.828C17.9484 19.8229 18.0966 19.8286 18.2004 19.7341C18.3219 19.6462 18.3669 19.4941 18.3621 19.3498C18.3681 18.9454 18.5904 18.5461 18.9471 18.349C19.2843 18.1537 19.719 18.1552 20.0616 18.3364C20.1735 18.3961 20.2968 18.4609 20.4279 18.4264C20.583 18.4057 20.6868 18.2785 20.7585 18.1504C20.9043 17.9044 21.0525 17.659 21.1827 17.4043C21.2502 17.2831 21.243 17.131 21.1764 17.0113C21.1203 16.8994 20.9997 16.8478 20.9031 16.7782C20.5494 16.5361 20.3433 16.0906 20.4105 15.664C20.4591 15.301 20.6976 14.9827 21.0117 14.8021C21.1983 14.7067 21.2877 14.4565 21.1911 14.2684C21.0765 14.0302 20.9355 13.8058 20.8041 13.5766C20.7243 13.4515 20.6532 13.2979 20.502 13.2469C20.3688 13.189 20.2203 13.2229 20.1012 13.2964C19.7385 13.5016 19.2645 13.5064 18.9099 13.2811C18.5919 13.0885 18.3879 12.7312 18.366 12.3619C18.3564 12.2365 18.3651 12.0955 18.2754 11.9947C18.1926 11.878 18.0501 11.824 17.9106 11.8276C17.622 11.8201 17.3331 11.8198 17.0445 11.8279Z" fill="#4B4B4B"/>
<path opacity="0.5" d="M8.63327 12.3826C10.1537 12.1792 11.7065 12.2071 13.2167 12.4795C13.0442 12.7006 12.9131 12.9496 12.7712 13.1905C12.6458 13.4119 12.5093 13.6297 12.425 13.8712C11.0207 13.6834 9.58577 13.711 8.19292 13.9738C7.18642 14.1676 6.19432 14.4835 5.29942 14.9902C4.76092 15.2977 4.25212 15.6772 3.87022 16.1707C3.57922 16.5472 3.37312 17.0065 3.37042 17.4889C3.37252 17.9374 3.36862 18.3883 3.43012 18.8335C3.47812 19.1725 3.57982 19.5136 3.79012 19.7887C4.05082 20.1325 4.43452 20.3569 4.82542 20.524C5.42452 20.7742 6.06442 20.9095 6.70372 21.0106C7.92952 21.1951 9.17147 21.2413 10.4093 21.2494C11.3702 21.2509 12.3311 21.2452 13.2914 21.2095C13.9238 21.184 14.5568 21.1492 15.185 21.067C15.5072 21.0226 15.8303 20.9704 16.142 20.875C16.2335 20.9449 16.3166 21.0274 16.421 21.0793C16.6631 21.2179 16.952 21.2029 17.2214 21.2098C17.5622 21.2065 17.9048 21.2236 18.2438 21.1819C17.9924 21.5584 17.6366 21.8596 17.231 22.0591C16.6289 22.3561 15.9599 22.4779 15.2993 22.5643C14.0957 22.7098 12.8813 22.7302 11.6705 22.7455C9.99767 22.7608 8.31772 22.7524 6.65812 22.5202C5.68342 22.3777 4.70032 22.1656 3.82072 21.7066C3.33532 21.4492 2.88952 21.1021 2.56582 20.6545C2.26942 20.2519 2.08282 19.7767 1.98592 19.288C1.86442 18.6871 1.86862 18.0709 1.87042 17.4604C1.87552 16.7461 2.12572 16.0462 2.53132 15.4624C3.09112 14.6509 3.89602 14.0383 4.75762 13.5757C5.95942 12.9376 7.28932 12.5674 8.63327 12.3826Z" fill="#4B4B4B"/>
<path opacity="0.5" d="M17.2358 14.0558C17.6603 13.9961 18.1067 14.0927 18.464 14.3312C18.8624 14.5898 19.148 15.0143 19.2374 15.4808C19.325 15.9218 19.2389 16.3949 18.9977 16.7747C18.7607 17.1539 18.3761 17.4383 17.9432 17.5517C17.5289 17.6621 17.0747 17.6183 16.6913 17.4254C16.2719 17.2199 15.9407 16.8422 15.7925 16.3994C15.6437 15.9647 15.6713 15.4721 15.8711 15.0581C16.1204 14.5235 16.6505 14.1326 17.2358 14.0558ZM17.351 14.9486C16.8743 15.0092 16.5155 15.5054 16.6112 15.9773C16.6823 16.4576 17.1971 16.8074 17.6702 16.6913C18.1181 16.6064 18.443 16.1354 18.3596 15.6863C18.2987 15.2183 17.8154 14.8655 17.351 14.9486Z" fill="#4B4B4B"/>
</svg>
