<svg width="24" height="24" viewBox="0 0 24 24" fill="none" xmlns="http://www.w3.org/2000/svg">
<g clip-path="url(#clip0_35569_36334)">
<mask id="mask0_35569_36334" style="mask-type:luminance" maskUnits="userSpaceOnUse" x="0" y="0" width="24" height="24">
<path d="M24 0H0V24H24V0Z" fill="white"/>
</mask>
<g mask="url(#mask0_35569_36334)">
<mask id="mask1_35569_36334" style="mask-type:luminance" maskUnits="userSpaceOnUse" x="0" y="0" width="24" height="24">
<path d="M24 0H0V24H24V0Z" fill="white"/>
</mask>
<g mask="url(#mask1_35569_36334)">
<path d="M3.92692 1.77444C4.99004 1.10459 6.24535 0.74834 7.5016 0.750215C10.5011 0.749277 13.5002 0.749277 16.4997 0.750215C17.7663 0.74834 19.0319 1.10928 20.1011 1.78991C21.3878 2.60038 22.3881 3.85709 22.8808 5.29616C23.087 5.88491 23.1972 6.50319 23.2459 7.12334C23.2544 7.84241 23.2478 8.56147 23.2511 9.28053C23.2684 9.52991 23.1784 9.79006 22.9792 9.94897C22.7247 10.1731 22.3136 10.1829 22.0488 9.97053C21.8645 9.83366 21.7492 9.61006 21.7511 9.37991C21.7483 8.87834 21.7511 8.37631 21.7502 7.87475C15.25 7.87475 8.75035 7.87475 2.2502 7.87475C2.24926 9.37663 2.25207 10.8785 2.24926 12.3799C2.25723 12.7779 1.89723 13.1342 1.49973 13.1243C1.10223 13.1323 0.739889 12.7756 0.751139 12.3762C0.749264 10.782 0.75067 9.18725 0.750202 7.59303C0.734264 6.77459 0.880514 5.95428 1.15848 5.18506C1.66754 3.78209 2.65895 2.56147 3.92692 1.77444ZM6.46801 2.351C6.98317 3.69256 7.49926 5.03366 8.01535 6.37475C9.33957 6.37475 10.6633 6.37475 11.9875 6.37428C11.3983 4.99944 10.8091 3.62459 10.2198 2.24975C9.31332 2.24975 8.40676 2.24928 7.5002 2.25022C7.15379 2.25022 6.80832 2.28538 6.46801 2.351ZM11.8525 2.25022C12.4403 3.62506 13.0314 4.9985 13.6183 6.37381C14.8248 6.37616 16.0309 6.37428 17.2375 6.37428C16.6483 4.99944 16.0591 3.62459 15.4698 2.24975C14.2638 2.24975 13.0581 2.24928 11.8525 2.25022ZM17.118 2.28538C17.6997 3.6485 18.287 5.00975 18.8683 6.37334C19.7884 6.37616 20.7091 6.37428 21.6297 6.37428C21.4277 5.45506 20.9744 4.5935 20.3294 3.90866C19.4936 3.01194 18.3358 2.42506 17.118 2.28538ZM2.37114 6.37428C3.71692 6.37522 5.06223 6.37475 6.40801 6.37428C5.95707 5.201 5.5052 4.02772 5.05426 2.85444C3.70145 3.55991 2.69129 4.88225 2.37114 6.37428Z" fill="#4B4B4B"/>
<path d="M22.3678 12.3863C22.8075 12.2926 23.2608 12.6741 23.2491 13.1218C23.25 14.2791 23.2519 15.437 23.2477 16.5948C23.2327 18.233 22.5877 19.8535 21.4767 21.0573C20.4572 22.1757 19.0524 22.9374 17.5547 23.1662C16.912 23.2745 16.2586 23.2459 15.6099 23.2496C12.9061 23.2491 10.2023 23.2505 7.4986 23.2491C6.05297 23.2515 4.61204 22.7734 3.45797 21.9029C2.26266 21.0137 1.37766 19.7176 0.98813 18.2795C0.78563 17.5491 0.723755 16.7855 0.757036 16.0299C0.795005 15.631 1.1986 15.3198 1.59422 15.3807C1.99594 15.422 2.29547 15.8237 2.25094 16.2202C2.20172 17.3879 2.52797 18.5734 3.21094 19.5259C4.0036 20.6551 5.25704 21.4501 6.61922 21.6746C7.15688 21.7726 7.70579 21.7459 8.24954 21.7496C10.9683 21.7496 13.6875 21.7496 16.4063 21.7496C17.272 21.7609 18.1416 21.5649 18.9099 21.1637C20.1694 20.5177 21.1434 19.3402 21.5367 17.9799C21.683 17.4854 21.7514 16.9688 21.75 16.4537C21.7509 15.3423 21.7486 14.2304 21.7509 13.119C21.7449 12.7679 22.0219 12.4416 22.3678 12.3863Z" fill="#4B4B4B"/>
<path opacity="0.5" d="M10.7755 10.6725C11.1413 10.6015 11.5316 10.6899 11.8351 10.9048C12.0249 11.0395 12.2168 11.1719 12.404 11.3101C12.5965 11.4563 12.6397 11.7576 12.4952 11.9519C12.3622 12.1485 12.0717 12.2113 11.8713 12.083C11.6646 11.9474 11.4704 11.7933 11.2629 11.6586C11.0851 11.5471 10.8376 11.5852 10.6931 11.7346C10.5954 11.8283 10.5518 11.966 10.5568 12.0995C10.5577 13.5439 10.5562 14.9886 10.5577 16.433C10.5509 16.6449 10.7075 16.8427 10.9118 16.8922C11.051 16.9306 11.202 16.8943 11.3165 16.8088C12.3387 16.0846 13.3608 15.3597 14.3822 14.634C14.6256 14.471 14.6444 14.0775 14.4151 13.8944C14.1917 13.7231 13.9542 13.5713 13.7302 13.4012C13.5377 13.245 13.5098 12.9326 13.6708 12.7442C13.8162 12.5579 14.1073 12.5152 14.2992 12.6537C14.529 12.8155 14.7604 12.9759 14.9864 13.1433C15.3693 13.4396 15.5727 13.9445 15.5094 14.4238C15.465 14.8156 15.2448 15.1811 14.9225 15.4066C13.8998 16.1335 12.8761 16.8586 11.8527 17.5847C11.5822 17.7795 11.2426 17.8788 10.9097 17.8467C10.482 17.8105 10.0768 17.569 9.8422 17.2085C9.6918 16.9804 9.61469 16.7068 9.61557 16.4339C9.61498 14.9795 9.61528 13.5248 9.61557 12.0703C9.61204 11.7122 9.74949 11.3541 9.9979 11.0955C10.2048 10.878 10.4806 10.7277 10.7755 10.6725Z" fill="#4B4B4B"/>
</g>
</g>
</g>
<defs>
<clipPath id="clip0_35569_36334">
<rect width="24" height="24" fill="white"/>
</clipPath>
</defs>
</svg>
