<svg width="24" height="24" viewBox="0 0 24 24" fill="none" xmlns="http://www.w3.org/2000/svg">
<path d="M4.7261 3.82803C5.23242 3.79896 5.73984 3.79991 6.2466 3.79967C7.17982 3.798 5.65352 3.79795 6.58674 3.79747C6.96594 3.79032 7.31494 4.15493 7.318 4.56911C7.33485 4.92466 7.09591 5.26163 6.78564 5.35814C6.66464 5.39961 6.53641 5.38293 6.41169 5.38602C5.32509 5.38912 6.69779 5.37989 5.61118 5.39013C5.23111 5.39561 4.85038 5.40157 4.47162 5.43922C4.19439 5.4683 3.91454 5.52692 3.66444 5.66538C3.20757 5.92418 2.8264 6.35885 2.64895 6.88932C2.50738 7.3707 2.50453 7.88187 2.4914 8.38207C2.48112 9.24784 2.48309 10.1139 2.48221 10.9799C2.48221 12.354 2.48243 13.728 2.48506 15.1021C2.48703 15.5566 2.49184 16.012 2.53166 16.4645C2.56033 16.7722 2.61 17.086 2.7485 17.3598C2.98744 17.8326 3.37474 18.2206 3.83795 18.4175C4.2375 18.5702 4.66702 18.5783 5.0856 18.5993C5.66939 18.62 6.25339 18.6069 6.83739 18.6133C8.67539 18.6136 10.5132 18.6141 12.3512 18.6119C12.8315 18.6081 13.3124 18.6086 13.7912 18.5633C14.1027 18.5326 14.4215 18.472 14.6961 18.3002C15.1235 18.04 15.4771 17.6232 15.6495 17.1211C15.795 16.6397 15.7948 16.1271 15.8105 15.6262C15.8228 14.626 15.8186 14.1761 15.8197 13.1759C15.8221 12.9566 15.9125 12.7407 16.0652 12.5975C16.2917 12.3733 16.6484 12.3294 16.9151 12.4936C17.1523 12.6273 17.2984 12.9116 17.3008 13.1999C17.3035 13.7788 17.3 12.5548 17.3 13.1337C17.2965 13.6506 17.3015 15.4203 17.2842 15.9369C17.2704 16.3806 17.2433 16.8268 17.1514 17.2605C17.0201 17.9087 16.695 18.4975 16.274 18.972C15.8049 19.4998 15.1992 19.8938 14.5362 20.0451C14.0408 20.1595 13.5325 20.1828 13.0277 20.1909C12.2844 20.2026 11.5411 20.1971 10.7978 20.2002C9.25829 20.2026 7.71897 20.2038 6.17943 20.1971C5.55911 20.1933 4.93725 20.2033 4.31912 20.1387C3.89266 20.0913 3.46423 19.9981 3.07628 19.7934C2.15028 19.3085 1.40042 18.3889 1.15426 17.2919C1.06214 16.8391 1.03063 16.3744 1.01488 15.9119C0.998253 15.3404 1.00503 14.7685 1.00175 14.1968C0.999785 12.6955 0.998472 11.1939 1.0035 9.69252C1.00722 9.11177 0.998691 8.53078 1.02101 7.9505C1.04508 7.33329 1.10065 6.70177 1.33325 6.13103C1.73936 5.16469 2.51569 4.384 3.44366 4.04703C3.85677 3.89666 4.29417 3.85758 4.7261 3.82803Z" fill="#4B4B4B"/>
<path d="M13.5757 20.1719C13.0694 20.201 12.562 20.2 12.0552 20.2003C11.122 20.202 12.6483 20.202 11.7151 20.2025C11.3359 20.2096 10.9869 19.845 10.9838 19.4308C10.967 19.0753 11.2059 18.7383 11.5162 18.6418C11.6372 18.6004 11.7654 18.617 11.8901 18.6139C12.9767 18.6108 11.604 18.6201 12.6906 18.6098C13.0707 18.6043 13.4514 18.5984 13.8302 18.5607C14.1074 18.5317 14.3873 18.473 14.6374 18.3346C15.0942 18.0758 15.4754 17.6411 15.6529 17.1106C15.7944 16.6293 15.7973 16.1181 15.8104 15.6179C15.8207 14.7521 15.8187 13.8861 15.8196 13.0201C15.8196 11.646 15.8194 10.2719 15.8168 8.89783C15.8148 8.44338 15.81 7.98797 15.7702 7.53543C15.7415 7.22778 15.6918 6.91393 15.5533 6.64011C15.3144 6.16731 14.9271 5.77935 14.4639 5.58251C14.0643 5.42975 13.6348 5.42165 13.2162 5.40068C12.6324 5.37994 12.0484 5.39305 11.4644 5.38662C9.62643 5.38638 7.78865 5.3859 5.95066 5.38805C5.47037 5.39186 4.98943 5.39138 4.51067 5.43666C4.19909 5.4674 3.88029 5.52793 3.60568 5.69975C3.17835 5.95998 2.82475 6.37678 2.65233 6.87889C2.50682 7.36027 2.50704 7.87287 2.49129 8.37379C2.47903 9.37397 2.48319 9.82391 2.4821 10.8241C2.47969 11.0434 2.38932 11.2593 2.23659 11.4025C2.01012 11.6267 1.65347 11.6706 1.38674 11.5064C1.14955 11.3727 1.00338 11.0884 1.00098 10.8001C0.998349 10.2212 1.00185 11.4452 1.00185 10.8663C1.00535 10.3494 1.00032 8.57969 1.01761 8.06304C1.03139 7.61931 1.05852 7.1732 1.15042 6.73948C1.28171 6.09129 1.60686 5.50243 2.02785 5.02797C2.49697 4.50012 3.10264 4.10619 3.76563 3.95487C4.26101 3.84048 4.76931 3.81713 5.2741 3.80902C6.01739 3.79735 6.76069 3.80283 7.50398 3.79973C9.04352 3.79735 10.5828 3.79616 12.1224 3.80283C12.7427 3.80664 13.3646 3.79663 13.9827 3.86121C14.4092 3.90864 14.8376 4.00182 15.2255 4.20652C16.1515 4.69148 16.9014 5.6111 17.1476 6.70803C17.2397 7.16081 17.2712 7.62551 17.2869 8.08806C17.3036 8.65952 17.2968 9.23146 17.3001 9.80316C17.302 11.3045 17.3033 12.8061 17.2983 14.3074C17.2946 14.8882 17.3031 15.4692 17.2808 16.0495C17.2567 16.6667 17.2012 17.2982 16.9686 17.8689C16.5625 18.8353 15.7861 19.616 14.8582 19.9529C14.445 20.1033 14.0076 20.1424 13.5757 20.1719Z" fill="#4B4B4B"/>
<path d="M21.0696 7.14613C21.7214 7.06334 22.4054 7.41967 22.7492 8.04106C22.924 8.35309 23.0087 8.72322 22.9984 9.08947C22.9995 11.2276 22.9975 13.3661 22.9993 15.5043C22.996 15.7875 23.0144 16.0732 22.9711 16.3542C22.9067 16.8088 22.6698 17.2247 22.3389 17.5007C21.8661 17.9059 21.1985 18.0339 20.6412 17.7771C20.3195 17.6258 20.0303 17.4055 19.7244 17.2211C19.2839 16.9417 18.8432 16.6624 18.4032 16.3821C17.8969 16.0591 17.5604 15.4271 17.5663 14.7783C17.5634 13.269 17.5645 11.7597 17.5656 10.2504C17.5665 9.6092 17.8984 8.98683 18.3982 8.66512C19.0559 8.2461 19.7145 7.82877 20.3725 7.40999C20.5863 7.27322 20.8235 7.17711 21.0696 7.14613ZM21.1978 8.76461C21.1219 8.79439 21.0543 8.84353 20.9845 8.8871C20.392 9.26522 19.7992 9.64285 19.2045 10.0166C19.1198 10.0674 19.0448 10.1611 19.0465 10.2732C19.0474 11.7258 19.0469 13.1782 19.0469 14.6309C19.0491 14.7229 19.0336 14.8246 19.0826 14.9059C19.1262 14.9889 19.2091 15.0277 19.2815 15.0732C19.915 15.469 20.5379 15.8848 21.1779 16.2673C21.3206 16.3559 21.5127 16.2133 21.5158 16.039C21.5169 13.6975 21.516 11.3559 21.5155 9.01443C21.5175 8.84401 21.3438 8.70095 21.1978 8.76461Z" fill="#4B4B4B"/>
<path opacity="0.5" d="M13.5 9.05859C14.3284 9.05859 15 8.38702 15 7.55859C15 6.73016 14.3284 6.05859 13.5 6.05859C12.6716 6.05859 12 6.73016 12 7.55859C12 8.38702 12.6716 9.05859 13.5 9.05859Z" fill="#4B4B4B"/>
</svg>
