<svg width="24" height="24" viewBox="0 0 24 24" fill="none" xmlns="http://www.w3.org/2000/svg">
<path d="M21.0696 7.14613C21.7214 7.06334 22.4054 7.41967 22.7492 8.04106C22.924 8.35309 23.0087 8.72322 22.9984 9.08947C22.9995 11.2276 22.9975 13.3661 22.9993 15.5043C22.996 15.7875 23.0144 16.0732 22.9711 16.3542C22.9067 16.8088 22.6698 17.2247 22.3389 17.5007C21.8661 17.9059 21.1985 18.0339 20.6412 17.7771C20.3195 17.6258 20.0303 17.4055 19.7244 17.2211C19.2839 16.9417 18.8432 16.6624 18.4032 16.3821C17.8969 16.0591 17.5604 15.4271 17.5663 14.7783C17.5634 13.269 17.5645 11.7597 17.5656 10.2504C17.5665 9.6092 17.8984 8.98683 18.3982 8.66512C19.0559 8.2461 19.7145 7.82877 20.3725 7.40999C20.5863 7.27322 20.8235 7.17711 21.0696 7.14613ZM21.1978 8.76461C21.1219 8.79439 21.0543 8.84353 20.9845 8.8871C20.392 9.26522 19.7992 9.64285 19.2045 10.0166C19.1198 10.0674 19.0448 10.1611 19.0465 10.2732C19.0474 11.7258 19.0469 13.1782 19.0469 14.6309C19.0491 14.7229 19.0336 14.8246 19.0826 14.9059C19.1262 14.9889 19.2091 15.0277 19.2815 15.0732C19.915 15.469 20.5379 15.8848 21.1779 16.2673C21.3206 16.3559 21.5127 16.2133 21.5158 16.039C21.5169 13.6975 21.516 11.3559 21.5155 9.01443C21.5175 8.84401 21.3438 8.70095 21.1978 8.76461Z" fill="#4B4B4B"/>
<path opacity="0.5" fill-rule="evenodd" clip-rule="evenodd" d="M14.8773 6.96344C14.6469 6.43108 14.117 6.05859 13.5 6.05859C12.6716 6.05859 12 6.73017 12 7.55859C12 8.17556 12.3725 8.70553 12.9048 8.93589L14.8773 6.96344Z" fill="#4B4B4B"/>
<path fill-rule="evenodd" clip-rule="evenodd" d="M20.374 3.60473C20.735 3.96573 20.735 4.55102 20.374 4.91201L2.80264 22.4834C2.44164 22.8444 1.85635 22.8444 1.49536 22.4834C1.13436 22.1224 1.13436 21.5371 1.49536 21.1761L19.0667 3.60473C19.4277 3.24374 20.013 3.24374 20.374 3.60473Z" fill="#4B4B4B"/>
<path fill-rule="evenodd" clip-rule="evenodd" d="M16.5151 5.32493C16.1701 4.8531 15.7232 4.46688 15.2255 4.20622C14.8376 4.00152 14.4092 3.90834 13.9827 3.86091C13.4612 3.80643 12.9371 3.80504 12.4135 3.80364C12.3164 3.80339 12.2194 3.80313 12.1224 3.80253C10.5828 3.79586 9.04352 3.79705 7.50398 3.79943C7.2562 3.80047 7.00842 3.80054 6.76063 3.80062L6.65983 3.80066C6.63565 3.7981 6.61126 3.79701 6.58675 3.79747C6.17135 3.79768 6.24327 3.79781 6.36867 3.79804C6.525 3.79832 6.76444 3.79875 6.24661 3.79967L6.18856 3.7997C5.79184 3.79985 5.39476 3.8 4.99816 3.81512C4.75273 3.82297 4.50717 3.83767 4.26338 3.86789C3.98537 3.8996 3.70949 3.95028 3.44367 4.04703C3.36583 4.0753 3.28906 4.10669 3.21349 4.14104C2.89355 4.28518 2.59465 4.48497 2.32746 4.72575C2.12989 4.90343 1.94938 5.10388 1.78989 5.32243C1.65486 5.50673 1.53444 5.70416 1.43306 5.91223C1.39768 5.98399 1.36438 6.05697 1.33326 6.13103C1.28268 6.25514 1.24047 6.38213 1.20513 6.51122C1.18962 6.56709 1.17552 6.62347 1.16291 6.68033C1.09111 6.99697 1.05581 7.32398 1.03577 7.65038C1.02962 7.75058 1.02491 7.85073 1.02102 7.9505C1.00504 8.36583 1.00487 8.78152 1.0047 9.19723C1.00464 9.36233 1.00457 9.52744 1.00351 9.69252C1.00229 10.0556 1.00145 10.4186 1.00089 10.7816C0.999478 10.4742 1 10.7377 1.00071 10.9082C0.999239 12.0044 1.00032 13.1007 1.00176 14.1968C1.00275 14.3687 1.00282 14.5406 1.0029 14.7125C1.00308 15.1124 1.00326 15.5122 1.01489 15.9119C1.03064 16.3744 1.06215 16.8391 1.15427 17.2919C1.3426 18.1312 1.82577 18.8666 2.45708 19.383L3.5655 18.2746C3.22342 18.0594 2.93888 17.7365 2.74851 17.3598C2.61001 17.086 2.56034 16.7722 2.53167 16.4645C2.49185 16.012 2.48704 15.5566 2.48507 15.1021C2.48244 13.728 2.48222 12.354 2.48222 10.9799L2.48252 10.4904C2.48279 9.78752 2.48307 9.08472 2.49141 8.38207L2.49349 8.30041L2.4957 8.2228C2.50322 7.95606 2.5108 7.68724 2.54257 7.42275C2.56236 7.2602 2.59117 7.09925 2.63422 6.94133C2.63939 6.92255 2.64477 6.90381 2.65037 6.88512C2.66169 6.85149 2.67384 6.81826 2.68677 6.78543C2.87712 6.30217 3.23777 5.90708 3.66445 5.66538C3.77747 5.60281 3.89657 5.55654 4.01875 5.52194C4.1797 5.47712 4.34619 5.45259 4.51067 5.43636C4.6595 5.42229 4.80853 5.41263 4.95769 5.4059C5.15649 5.39738 5.35552 5.39389 5.55441 5.39096C5.6453 5.38997 5.73619 5.38932 5.82708 5.38866L5.95066 5.38775C7.63535 5.38578 9.31986 5.38602 11.0045 5.38625L11.4644 5.38632C11.6782 5.38867 11.892 5.38841 12.1058 5.38815C12.476 5.38769 12.8461 5.38723 13.2162 5.40038L13.3218 5.40548C13.7067 5.42373 14.0979 5.44227 14.4639 5.58221C14.8514 5.7469 15.1858 6.04538 15.4247 6.41539L16.5151 5.32493ZM7.6328 18.6135C9.20561 18.6137 10.7783 18.6137 12.3512 18.6119L12.4747 18.611C12.5653 18.6103 12.6569 18.6097 12.7475 18.6087C12.9464 18.6058 13.1454 18.6023 13.3441 18.5938C13.4933 18.587 13.6423 18.5774 13.7912 18.5633C13.9556 18.5471 14.1221 18.5225 14.283 18.4777C14.4052 18.4431 14.5243 18.3969 14.6374 18.3343C14.7718 18.2582 14.8996 18.1668 15.0176 18.0623C15.274 17.8348 15.484 17.5449 15.615 17.2143C15.628 17.1814 15.6401 17.1482 15.6515 17.1145C15.657 17.096 15.6623 17.0775 15.6674 17.0589C15.7106 16.9008 15.7394 16.7396 15.7593 16.5769C15.791 16.3124 15.7986 16.0436 15.8061 15.7769L15.8083 15.6989L15.8104 15.6176C15.8188 14.9149 15.819 14.2122 15.8193 13.5093L15.8196 13.0198C15.8196 12.1557 15.8195 11.2916 15.8188 10.4274L17.2985 8.9477C17.2988 9.06084 17.2989 9.17398 17.2989 9.28713C17.299 9.45905 17.2991 9.63096 17.3001 9.80286C17.3015 10.899 17.3026 11.9953 17.3011 13.0915C17.3018 13.262 17.3024 13.5254 17.3009 13.2182C17.3004 13.5812 17.2995 13.9442 17.2983 14.3071C17.2973 14.4722 17.2972 14.6373 17.2971 14.8024C17.297 15.2181 17.2968 15.6338 17.2808 16.0492C17.2769 16.1493 17.2722 16.2498 17.266 16.3504C17.2595 16.4568 17.2513 16.563 17.2408 16.6689C17.2191 16.8883 17.1872 17.1063 17.1389 17.3195C17.1263 17.3763 17.1122 17.4325 17.0968 17.4882C17.0614 17.6174 17.0192 17.7444 16.9686 17.8686C16.9374 17.9427 16.9041 18.0157 16.8687 18.0875C16.7674 18.2954 16.6471 18.4927 16.5122 18.6769C16.1373 19.1906 15.6464 19.6044 15.0907 19.8575C15.0144 19.8923 14.9368 19.9241 14.8582 19.9526C14.5923 20.0494 14.3164 20.1001 14.0383 20.1318C13.7947 20.162 13.5492 20.1767 13.3039 20.1845C12.9072 20.1997 12.51 20.1998 12.1132 20.2H12.0552C11.5375 20.2009 11.7768 20.2013 11.9331 20.2016C12.0581 20.2018 12.1298 20.202 11.7151 20.2022C11.6906 20.2026 11.6662 20.2016 11.642 20.199H11.5411C11.2934 20.1991 11.0456 20.1992 10.7978 20.2002C9.2583 20.2026 7.71898 20.2038 6.17944 20.1971C6.13622 20.1969 6.09298 20.1967 6.04975 20.1965L7.6328 18.6135Z" fill="#4B4B4B"/>
</svg>
