<svg width="24" height="24" viewBox="0 0 24 24" fill="none" xmlns="http://www.w3.org/2000/svg">
<path d="M11.4108 5.27548C12.9234 5.14168 14.4417 5.54548 15.7788 6.23848C16.7412 6.73318 17.6277 7.36588 18.4458 8.07208C19.3251 8.83078 20.1267 9.67708 20.8611 10.5759C21.1101 10.8741 21.3561 11.193 21.4593 11.5743C21.5715 11.9721 21.5172 12.4104 21.3213 12.7737C21.1869 13.0368 20.9952 13.2639 20.8077 13.4898C20.0664 14.3934 19.2543 15.24 18.3651 15.9993C17.5917 16.6578 16.758 17.2506 15.8574 17.7228C14.8113 18.2715 13.6644 18.6537 12.4809 18.7341C11.3841 18.813 10.2786 18.6153 9.25382 18.2265C8.18582 17.823 7.19882 17.2278 6.29342 16.5366C5.13332 15.648 4.09892 14.6031 3.17252 13.4748C2.94632 13.2027 2.71622 12.9231 2.58782 12.5889C2.44202 12.222 2.43962 11.8014 2.58002 11.4324C2.70752 11.0913 2.94032 10.8051 3.17132 10.5288C3.93032 9.60268 4.76342 8.73478 5.67782 7.96048C6.47192 7.28968 7.32902 6.68818 8.25692 6.21688C9.23912 5.71648 10.3086 5.36668 11.4108 5.27548ZM11.4732 6.77578C10.7262 6.84628 9.99842 7.06468 9.31592 7.37218C8.45462 7.76008 7.66052 8.28478 6.92552 8.87548C5.94842 9.66358 5.07092 10.5702 4.27952 11.5434C4.18952 11.6547 4.09712 11.7651 4.02092 11.8866C3.99032 11.9364 3.95492 11.9991 3.98912 12.057C4.04942 12.1797 4.14152 12.2829 4.22462 12.3906C4.71872 13.0035 5.24672 13.5897 5.81162 14.1381C6.64802 14.9478 7.56332 15.6843 8.57912 16.257C9.52652 16.7892 10.5759 17.1759 11.6676 17.241C12.7179 17.3073 13.7664 17.0475 14.7168 16.6119C15.6615 16.1799 16.5246 15.5865 17.3181 14.9202C18.2445 14.1393 19.08 13.2543 19.8348 12.3075C19.8999 12.2202 19.9734 12.135 20.0133 12.0321C20.0283 11.9187 19.9299 11.8329 19.8738 11.745C19.0305 10.6776 18.0825 9.68848 17.0199 8.83708C16.1553 8.14888 15.2073 7.54978 14.1681 7.16308C13.3119 6.84388 12.3864 6.68488 11.4732 6.77578Z" fill="#4B4B4B"/>
<path opacity="0.5" d="M11.4792 7.88436C12.2871 7.78176 13.1247 7.92096 13.8531 8.28666C14.6802 8.69826 15.3627 9.39366 15.7554 10.2304C16.2396 11.2438 16.281 12.4567 15.8721 13.5022C15.4968 14.4772 14.7375 15.2968 13.794 15.7456C12.798 16.228 11.6064 16.2826 10.5693 15.898C9.65578 15.5647 8.87068 14.8969 8.39188 14.0509C8.03818 13.4305 7.84978 12.7174 7.85158 12.0031C7.84888 11.1784 8.10028 10.3549 8.56558 9.67416C9.22168 8.69736 10.3098 8.02446 11.4792 7.88436ZM11.5953 9.38256C10.6146 9.52356 9.75448 10.2661 9.47038 11.2147C9.27208 11.8486 9.32278 12.5572 9.61498 13.1542C9.84628 13.6354 10.2273 14.0428 10.6917 14.3059C11.2152 14.6068 11.8437 14.7157 12.4386 14.6161C13.3752 14.4691 14.1978 13.7752 14.5032 12.8782C14.7093 12.2923 14.7006 11.6332 14.4768 11.0539C14.2632 10.4929 13.8519 10.0105 13.3326 9.70986C12.8139 9.40506 12.189 9.29016 11.5953 9.38256Z" fill="#4B4B4B"/>
</svg>
