<svg width="24" height="24" viewBox="0 0 24 24" fill="none" xmlns="http://www.w3.org/2000/svg">
<path d="M17.3278 0.952358C18.1373 0.849565 18.9576 1.07742 19.6617 1.47149C20.5688 1.97736 21.3288 2.71063 21.9802 3.51228C22.1278 3.68795 22.2623 3.89421 22.2709 4.13084C22.2853 4.35104 22.1899 4.56135 22.0569 4.73162C21.6033 5.30722 21.0936 5.84165 20.5178 6.29623C19.9946 6.70808 19.4113 7.0556 18.7721 7.25151C18.2822 7.40289 17.7592 7.45327 17.2511 7.3786C16.568 7.28188 15.9276 6.98542 15.3588 6.60304C14.652 6.12619 14.04 5.5209 13.5026 4.86163C13.3479 4.67922 13.1983 4.46936 13.1859 4.22171C13.1666 3.99206 13.2689 3.77275 13.4088 3.59663C13.9233 2.94703 14.509 2.34782 15.1817 1.86107C15.8163 1.40401 16.5444 1.04638 17.3278 0.952358ZM17.6353 2.04304C17.0948 2.07363 16.5835 2.29519 16.1339 2.58647C15.5396 2.97492 15.0306 3.48146 14.5868 4.03277C14.5542 4.07708 14.5124 4.11892 14.5007 4.17447C14.5148 4.21654 14.5432 4.25162 14.5699 4.28671C14.8241 4.60679 15.1014 4.90909 15.4035 5.18486C15.8984 5.63382 16.4661 6.02924 17.1164 6.21121C17.5471 6.3347 18.0116 6.32885 18.4403 6.19929C18.8962 6.06568 19.3128 5.82253 19.6896 5.53687C20.1754 5.16484 20.6062 4.7224 20.9798 4.23858C21.0513 4.1675 20.9708 4.0881 20.9249 4.03007C20.3886 3.36608 19.757 2.75674 18.9927 2.36289C18.5753 2.15011 18.1072 2.0165 17.6353 2.04304Z" fill="#4B4B4B"/>
<path d="M5.02399 1.60557C5.19921 1.5833 5.376 1.57791 5.55257 1.57813C7.44918 1.57836 9.34579 1.57813 11.2424 1.57836C11.5935 1.57431 11.9188 1.8512 11.9734 2.19736C12.0362 2.52014 11.856 2.86788 11.5578 3.00486C11.4469 3.05929 11.3223 3.08089 11.1992 3.07819C9.28686 3.07751 7.3745 3.07751 5.46237 3.07819C4.90882 3.07684 4.36674 3.31256 3.96974 3.6945C3.53405 4.11129 3.27088 4.69813 3.234 5.29892C3.225 5.4485 3.22792 5.59853 3.22747 5.7481C3.22702 10.6817 3.22815 15.6153 3.2268 20.5489C3.22972 20.6099 3.22702 20.7026 3.30305 20.7194C3.38267 20.7239 3.44543 20.6612 3.49244 20.6045C3.75088 20.275 4.14856 20.0638 4.56378 20.021C5.01094 19.9718 5.47362 20.1274 5.80292 20.4331C5.94732 20.5618 6.05304 20.7248 6.16551 20.8803C6.27347 21.0343 6.38369 21.1868 6.49638 21.3375C6.66845 21.5661 7.01394 21.6401 7.26316 21.4986C7.39542 21.4322 7.48179 21.3083 7.56862 21.1936C7.877 20.7993 8.33225 20.5253 8.82282 20.4297C9.48862 20.2941 10.2091 20.5123 10.6947 20.9857C10.8002 21.0843 10.8877 21.1994 10.9747 21.3144C11.0649 21.4316 11.1914 21.5229 11.3369 21.5564C11.5751 21.6117 11.8398 21.5085 11.9793 21.3081C12.1307 21.0951 12.3178 20.9075 12.5331 20.7595C13.0688 20.3874 13.7814 20.2896 14.398 20.5017C14.761 20.6214 15.0851 20.847 15.3341 21.1358C15.4252 21.2332 15.4859 21.3576 15.5939 21.439C15.7669 21.5733 16.0143 21.6133 16.2154 21.5204C16.3265 21.4745 16.4162 21.3899 16.488 21.2952C16.6497 21.0748 16.802 20.8476 16.9669 20.6295C17.2593 20.2464 17.7337 20.0122 18.2152 20.0127C18.6919 20.0071 19.1642 20.2331 19.4602 20.6065C19.5005 20.6517 19.5295 20.7118 19.5855 20.7403C19.6485 20.7498 19.7038 20.6972 19.7151 20.638C19.7299 20.5566 19.7211 20.4736 19.7232 20.3917C19.7216 16.7179 19.722 13.0439 19.7227 9.36992C19.7198 8.97719 20.0727 8.62923 20.465 8.6353C20.862 8.62113 21.2234 8.97112 21.2214 9.36835C21.2223 12.9375 21.2214 16.5067 21.2219 20.0757C21.2201 20.281 21.2255 20.4864 21.2187 20.6918C21.1969 21.0712 21.044 21.4435 20.7835 21.7217C20.4747 22.0551 20.0212 22.2521 19.5657 22.2402C19.1392 22.2341 18.7204 22.0409 18.4359 21.7237C18.377 21.6626 18.3351 21.5825 18.2607 21.5379C18.2287 21.5184 18.179 21.5078 18.1568 21.546C17.9253 21.8349 17.7449 22.1632 17.4874 22.4311C17.147 22.7841 16.6794 23.0094 16.1922 23.0596C15.5327 23.134 14.8503 22.8686 14.4074 22.3763C14.2866 22.2498 14.2054 22.0843 14.0547 21.9887C13.861 21.8603 13.5934 21.8587 13.3988 21.9853C13.251 22.0764 13.1701 22.2359 13.0553 22.3605C12.6541 22.8146 12.051 23.0832 11.4444 23.0713C10.8391 23.0645 10.2433 22.7811 9.85593 22.3158C9.76101 22.2019 9.68341 22.0683 9.5552 21.988C9.36131 21.86 9.09342 21.8589 8.89908 21.986C8.7477 22.0807 8.66537 22.2458 8.54549 22.3729C8.08438 22.8893 7.35921 23.1545 6.67362 23.0499C6.25998 22.9894 5.86612 22.8025 5.55617 22.5225C5.3074 22.3005 5.13735 22.0098 4.93986 21.7449C4.88161 21.6646 4.8283 21.5564 4.71853 21.5427C4.64993 21.5352 4.61551 21.6032 4.57795 21.6473C4.30961 21.9894 3.89237 22.2105 3.45803 22.2368C2.86714 22.2816 2.26882 21.9662 1.96652 21.4576C1.80614 21.192 1.72427 20.8807 1.72764 20.571C1.72877 15.6452 1.72652 10.7195 1.72899 5.79376C1.73079 5.56838 1.72179 5.34233 1.74316 5.1174C1.81626 4.28246 2.15613 3.47024 2.71261 2.84179C3.29945 2.16835 4.13596 1.71354 5.02399 1.60557Z" fill="#4B4B4B"/>
<path opacity="0.5" d="M17.4608 2.45702C17.7663 2.40979 18.0845 2.4442 18.3716 2.56004C18.7438 2.70737 19.0601 2.98943 19.2513 3.34122C19.4235 3.65522 19.4931 4.02366 19.4494 4.37905C19.4087 4.72724 19.2573 5.06103 19.0238 5.3224C18.7584 5.62268 18.3859 5.82602 17.9892 5.8845C17.5962 5.94501 17.183 5.86583 16.842 5.66092C16.5456 5.48525 16.304 5.21893 16.1582 4.90696C16.015 4.6042 15.9644 4.25938 16.0109 3.92784C16.0617 3.55603 16.2397 3.20334 16.5067 2.93972C16.7633 2.68375 17.1023 2.51146 17.4608 2.45702ZM17.5964 3.69346C17.4122 3.74227 17.2662 3.90602 17.239 4.09451C17.2116 4.26343 17.2797 4.44293 17.4122 4.55089C17.5425 4.66156 17.7321 4.69462 17.8929 4.63682C18.0704 4.57609 18.2044 4.40581 18.2204 4.21867C18.2377 4.05627 18.1673 3.8887 18.0405 3.78681C17.919 3.68581 17.748 3.65072 17.5964 3.69346Z" fill="#4B4B4B"/>
<path opacity="0.5" d="M7.04474 8.34845C7.1599 8.32281 7.27911 8.3318 7.3963 8.32686C8.58056 8.32596 9.76481 8.32641 10.9491 8.32618C11.1421 8.32978 11.3456 8.30391 11.526 8.39006C11.8312 8.51737 12.0213 8.86286 11.9667 9.18879C11.921 9.53945 11.596 9.82714 11.2419 9.82556C9.9677 9.82624 8.69347 9.82556 7.41947 9.82601C7.25572 9.82714 7.0841 9.83658 6.93137 9.76686C6.64616 9.64787 6.45385 9.34061 6.47814 9.03156C6.49141 8.71194 6.73433 8.42245 7.04474 8.34845Z" fill="#4B4B4B"/>
<path opacity="0.5" d="M7.17494 11.8274C10.1953 11.8207 13.2159 11.827 16.2362 11.8256C16.6278 11.8213 16.9787 12.1718 16.9731 12.5641C16.99 12.9554 16.6501 13.3156 16.2589 13.3234C13.3423 13.327 10.4256 13.3234 7.50896 13.325C7.31304 13.3212 7.10656 13.3482 6.92346 13.2609C6.60789 13.1282 6.41782 12.7611 6.49137 12.4264C6.55143 12.1041 6.84654 11.8427 7.17494 11.8274Z" fill="#4B4B4B"/>
<path opacity="0.5" d="M7.04676 15.3455C7.10209 15.3325 7.15878 15.3262 7.21546 15.3244C10.2225 15.3241 13.2294 15.3244 16.2362 15.3244C16.4429 15.3239 16.6451 15.4195 16.783 15.5722C16.9765 15.7828 17.0282 16.1073 16.9144 16.3689C16.8035 16.6357 16.5257 16.8224 16.2364 16.8235C13.2968 16.8244 10.3572 16.8233 7.41767 16.8242C7.23255 16.828 7.03596 16.8291 6.87064 16.7335C6.55551 16.5687 6.39312 16.1627 6.51863 15.8278C6.6014 15.5938 6.80316 15.4015 7.04676 15.3455Z" fill="#4B4B4B"/>
</svg>
