<svg width="24" height="24" viewBox="0 0 24 24" fill="none" xmlns="http://www.w3.org/2000/svg">
<path d="M11.4171 5.27459C12.8598 5.14889 14.3115 5.51219 15.6009 6.14849C16.5675 6.62459 17.46 7.24049 18.2832 7.93349C19.1667 8.67719 19.9734 9.50939 20.7126 10.3962C20.9775 10.7187 21.2667 11.0376 21.4143 11.4354C21.5748 11.853 21.5439 12.3357 21.3417 12.7335C21.2124 12.9993 21.0246 13.2294 20.8368 13.455C20.1105 14.3421 19.3173 15.1758 18.45 15.9261C17.6649 16.6035 16.8177 17.214 15.9003 17.7C14.8947 18.2337 13.7958 18.6129 12.6585 18.7197C11.5668 18.8262 10.458 18.6573 9.4278 18.2901C8.4087 17.9277 7.4592 17.3886 6.5859 16.7544C5.3403 15.8475 4.2372 14.7561 3.2535 13.5732C2.9676 13.2273 2.6568 12.8757 2.535 12.4329C2.4237 12.0381 2.4735 11.6034 2.6646 11.241C2.7948 10.9854 2.9769 10.7616 3.1599 10.5423C3.7788 9.78599 4.4469 9.06899 5.1681 8.40899C5.9832 7.66409 6.8667 6.98849 7.83 6.44549C8.9313 5.82359 10.1502 5.37869 11.4171 5.27459ZM11.4768 6.77519C10.6773 6.85049 9.9018 7.09649 9.177 7.43579C8.247 7.87529 7.3971 8.46839 6.6147 9.13289C5.7249 9.89039 4.9197 10.7442 4.1892 11.6553C4.1097 11.7642 4.0065 11.8668 3.9744 12.0012C4.0311 12.1929 4.1919 12.3336 4.3074 12.4926C4.7952 13.0905 5.3163 13.662 5.8725 14.1969C6.6774 14.9685 7.5546 15.672 8.5245 16.2261C9.4692 16.7646 10.5162 17.16 11.6079 17.2371C12.6711 17.3163 13.7364 17.0589 14.7003 16.6194C15.633 16.1955 16.4859 15.6132 17.2716 14.9592C18.2169 14.1684 19.0683 13.2693 19.8357 12.306C19.902 12.2184 19.9749 12.1323 20.0136 12.0285C20.022 11.9088 19.9239 11.8215 19.8615 11.7306C19.0272 10.674 18.0879 9.69629 17.0382 8.85179C16.1805 8.16689 15.2415 7.56929 14.2119 7.17959C13.3443 6.84959 12.4041 6.68369 11.4768 6.77519Z" fill="#4B4B4B"/>
<path d="M11.5026 7.881C12.2439 7.7922 13.0089 7.905 13.6908 8.2098C14.6169 8.6208 15.3813 9.3837 15.7923 10.3098C16.2483 11.322 16.2708 12.5196 15.8541 13.5483C15.4779 14.4897 14.7429 15.2829 13.8312 15.7272C12.8415 16.2201 11.6505 16.2858 10.6101 15.9129C9.651 15.5742 8.8284 14.8671 8.3475 13.971C8.0223 13.3686 7.8486 12.6843 7.8519 11.9994C7.8486 11.1549 8.1147 10.3122 8.6013 9.6219C9.2643 8.6673 10.3464 8.013 11.5026 7.881ZM11.5962 9.3819C10.5354 9.5319 9.6198 10.3938 9.4098 11.445C9.2892 12.0087 9.3558 12.6123 9.6045 13.1331C9.8382 13.6287 10.2291 14.0484 10.7079 14.3151C11.2746 14.6358 11.9616 14.7306 12.5958 14.586C13.4949 14.385 14.2632 13.6791 14.5305 12.7962C14.7267 12.1734 14.6835 11.478 14.406 10.8861C14.1723 10.3824 13.7763 9.9549 13.2903 9.6858C12.7806 9.399 12.1737 9.2931 11.5962 9.3819Z" fill="#4B4B4B"/>
<path opacity="0.35" d="M11.5029 7.13069C12.3657 7.05389 13.2411 7.18859 14.052 7.48919C15.0162 7.84379 15.8889 8.41079 16.6767 9.06419C17.6853 9.90389 18.5637 10.8864 19.3821 11.9088C19.4316 11.961 19.4469 12.0483 19.3959 12.1053C18.3459 13.3671 17.2338 14.6061 15.8763 15.5457C14.9595 16.1799 13.92 16.6671 12.8097 16.8285C11.76 16.9884 10.6755 16.8315 9.6939 16.4358C8.7834 16.0737 7.9554 15.5295 7.2024 14.9067C6.2271 14.0943 5.3709 13.1481 4.5903 12.1494C4.5249 12.0834 4.5273 11.9775 4.5921 11.9121C5.5797 10.6434 6.6831 9.44279 8.0019 8.51159C9.0357 7.78379 10.2309 7.23689 11.5029 7.13069ZM11.5026 7.88099C10.3464 8.01299 9.2643 8.66729 8.6013 9.62189C8.1147 10.3122 7.8486 11.1549 7.8519 11.9994C7.8486 12.6843 8.0223 13.3686 8.3475 13.971C8.8284 14.8671 9.651 15.5742 10.6101 15.9129C11.6505 16.2858 12.8415 16.2201 13.8312 15.7272C14.7429 15.2829 15.4779 14.4897 15.8541 13.5483C16.2708 12.5196 16.2483 11.322 15.7923 10.3098C15.3813 9.38369 14.6169 8.62079 13.6908 8.20979C13.0089 7.90499 12.2439 7.79219 11.5026 7.88099Z" fill="#4B4B4B"/>
<path opacity="0.35" d="M11.8026 10.9071C12.2859 10.8114 12.807 11.0841 13.0077 11.5332C13.1442 11.8248 13.1442 12.1764 13.0068 12.4677C12.8847 12.732 12.6543 12.9447 12.3801 13.0434C12.0993 13.1466 11.7768 13.1295 11.5089 12.9957C11.2485 12.8679 11.0415 12.6339 10.9491 12.3588C10.8471 12.063 10.878 11.7246 11.034 11.4531C11.1927 11.1696 11.4819 10.9629 11.8026 10.9071Z" fill="#4B4B4B"/>
</svg>
