<svg width="24" height="24" viewBox="0 0 24 24" fill="none" xmlns="http://www.w3.org/2000/svg">
<path d="M17.3278 0.952164C18.1373 0.849371 18.9576 1.07722 19.6617 1.4713C20.5688 1.97717 21.3288 2.71044 21.9802 3.51209C22.1278 3.68776 22.2623 3.89402 22.2709 4.13065C22.2853 4.35085 22.1899 4.56116 22.0569 4.73143C21.6033 5.30703 21.0936 5.84146 20.5178 6.29604C19.9946 6.70789 19.4113 7.05541 18.7721 7.25132C18.2822 7.4027 17.7592 7.45308 17.2511 7.37841C16.568 7.28169 15.9276 6.98523 15.3588 6.60285C14.652 6.126 14.04 5.52071 13.5026 4.86144C13.3479 4.67902 13.1983 4.46916 13.1859 4.22152C13.1666 3.99186 13.2689 3.77256 13.4088 3.59644C13.9233 2.94684 14.509 2.34763 15.1817 1.86088C15.8163 1.40382 16.5444 1.04618 17.3278 0.952164ZM17.6353 2.04285C17.0948 2.07344 16.5835 2.29499 16.1339 2.58628C15.5396 2.97473 15.0306 3.48127 14.5868 4.03258C14.5542 4.07689 14.5124 4.11872 14.5007 4.17428C14.5148 4.21634 14.5432 4.25143 14.5699 4.28652C14.8241 4.6066 15.1014 4.9089 15.4035 5.18467C15.8984 5.63363 16.4661 6.02905 17.1164 6.21102C17.5471 6.33451 18.0116 6.32866 18.4403 6.1991C18.8962 6.06549 19.3128 5.82234 19.6896 5.53668C20.1754 5.16465 20.6062 4.72221 20.9798 4.23839C21.0513 4.16731 20.9708 4.08791 20.9249 4.02988C20.3886 3.36588 19.757 2.75655 18.9927 2.3627C18.5753 2.14991 18.1072 2.01631 17.6353 2.04285Z" fill="#4B4B4B"/>
<path d="M5.02417 1.60559C5.19939 1.58332 5.37618 1.57793 5.55275 1.57815C7.44936 1.57838 9.34597 1.57815 11.2426 1.57838C11.5937 1.57433 11.9189 1.85122 11.9736 2.19738C12.0364 2.52016 11.8562 2.8679 11.5579 3.00488C11.447 3.05931 11.3224 3.08091 11.1994 3.07821C9.28704 3.07753 7.37468 3.07753 5.46256 3.07821C4.909 3.07686 4.36692 3.31258 3.96992 3.69451C3.53423 4.11131 3.27107 4.69815 3.23418 5.29894C3.22518 5.44852 3.2281 5.59854 3.22765 5.74812C3.2272 10.6817 3.22833 15.6153 3.22698 20.5489C3.2299 20.6099 3.2272 20.7026 3.30323 20.7194C3.38286 20.7239 3.44561 20.6612 3.49262 20.6045C3.75107 20.275 4.14874 20.0638 4.56396 20.021C5.01112 19.9718 5.4738 20.1274 5.8031 20.4331C5.9475 20.5618 6.05322 20.7248 6.16569 20.8803C6.27365 21.0343 6.38387 21.1868 6.49656 21.3376C6.66863 21.5661 7.01412 21.6401 7.26334 21.4986C7.3956 21.4322 7.48198 21.3083 7.5688 21.1936C7.87718 20.7993 8.33243 20.5253 8.82301 20.4297C9.4888 20.2941 10.2092 20.5123 10.6949 20.9858C10.8004 21.0843 10.8879 21.1994 10.9749 21.3144C11.0651 21.4316 11.1915 21.5229 11.337 21.5564C11.5752 21.6117 11.84 21.5085 11.9794 21.3081C12.1308 21.0951 12.318 20.9075 12.5332 20.7595C13.069 20.3874 13.7816 20.2896 14.3981 20.5017C14.7612 20.6214 15.0853 20.847 15.3343 21.1358C15.4254 21.2332 15.4861 21.3576 15.5941 21.439C15.767 21.5733 16.0145 21.6133 16.2155 21.5204C16.3267 21.4745 16.4164 21.39 16.4882 21.2953C16.6499 21.0748 16.8022 20.8477 16.967 20.6295C17.2594 20.2464 17.7338 20.0123 18.2154 20.0127C18.692 20.0071 19.1644 20.2331 19.4604 20.6065C19.5006 20.6517 19.5297 20.7118 19.5857 20.7404C19.6486 20.7498 19.704 20.6972 19.7152 20.638C19.7301 20.5566 19.7213 20.4736 19.7233 20.3917C19.7218 16.7179 19.7222 13.0439 19.7229 9.36994C19.72 8.97721 20.0729 8.62925 20.4651 8.63532C20.8621 8.62115 21.2236 8.97114 21.2216 9.36837C21.2225 12.9376 21.2216 16.5067 21.222 20.0757C21.2202 20.2811 21.2256 20.4864 21.2189 20.6918C21.1971 21.0712 21.0441 21.4435 20.7836 21.7217C20.4748 22.0551 20.0214 22.2521 19.5659 22.2402C19.1394 22.2341 18.7206 22.0409 18.4361 21.7238C18.3771 21.6626 18.3353 21.5825 18.2608 21.538C18.2289 21.5184 18.1792 21.5078 18.1569 21.5461C17.9255 21.8349 17.7451 22.1633 17.4875 22.4312C17.1472 22.7841 16.6796 23.0095 16.1924 23.0596C15.5329 23.1341 14.8504 22.8686 14.4076 22.3763C14.2868 22.2499 14.2056 22.0843 14.0549 21.9887C13.8612 21.8603 13.5935 21.8587 13.399 21.9853C13.2512 22.0764 13.1702 22.2359 13.0555 22.3605C12.6542 22.8147 12.0512 23.0832 11.4446 23.0713C10.8393 23.0646 10.2434 22.7812 9.85611 22.3158C9.76119 22.202 9.68359 22.0683 9.55538 21.988C9.36149 21.8601 9.0936 21.8589 8.89926 21.986C8.74788 22.0807 8.66556 22.2458 8.54567 22.3729C8.08456 22.8893 7.35939 23.1545 6.6738 23.0499C6.26016 22.9894 5.8663 22.8025 5.55635 22.5225C5.30758 22.3005 5.13753 22.0099 4.94004 21.7449C4.88179 21.6646 4.82848 21.5564 4.71871 21.5427C4.65011 21.5353 4.6157 21.6032 4.57813 21.6473C4.30979 21.9894 3.89255 22.2105 3.45821 22.2368C2.86732 22.2816 2.269 21.9662 1.9667 21.4577C1.80632 21.192 1.72445 20.8807 1.72782 20.571C1.72895 15.6453 1.7267 10.7195 1.72917 5.79378C1.73097 5.5684 1.72197 5.34235 1.74334 5.11742C1.81644 4.28248 2.15631 3.47026 2.71279 2.84181C3.29963 2.16837 4.13614 1.71356 5.02417 1.60559Z" fill="#4B4B4B"/>
<path opacity="0.5" d="M17.4608 2.45694C17.7662 2.4097 18.0845 2.44412 18.3715 2.55996C18.7438 2.70729 19.06 2.98935 19.2512 3.34114C19.4235 3.65514 19.493 4.02358 19.4494 4.37896C19.4087 4.72716 19.2573 5.06095 19.0238 5.32232C18.7584 5.6226 18.3859 5.82594 17.9891 5.88442C17.5962 5.94492 17.183 5.86575 16.842 5.66084C16.5455 5.48517 16.304 5.21885 16.1582 4.90687C16.0149 4.60412 15.9643 4.2593 16.0109 3.92775C16.0617 3.55595 16.2396 3.20326 16.5066 2.93964C16.7633 2.68367 17.1022 2.51137 17.4608 2.45694ZM17.5964 3.69338C17.4122 3.74219 17.2662 3.90594 17.239 4.09443C17.2116 4.26335 17.2797 4.44284 17.4122 4.55081C17.5424 4.66148 17.732 4.69454 17.8929 4.63673C18.0703 4.576 18.2044 4.40573 18.2204 4.21859C18.2377 4.05619 18.1673 3.88862 18.0404 3.78672C17.919 3.68573 17.748 3.65064 17.5964 3.69338Z" fill="#4B4B4B"/>
<path opacity="0.5" d="M7.04468 8.3483C7.15984 8.32266 7.27905 8.33166 7.39624 8.32671C8.5805 8.32581 9.76475 8.32626 10.949 8.32603C11.142 8.32963 11.3456 8.30377 11.526 8.38991C11.8312 8.51722 12.0212 8.86272 11.9666 9.18864C11.9209 9.5393 11.5959 9.82699 11.2419 9.82542C9.96764 9.82609 8.69341 9.82542 7.41941 9.82587C7.25566 9.82699 7.08404 9.83644 6.93131 9.76671C6.6461 9.64772 6.45379 9.34047 6.47808 9.03141C6.49135 8.71179 6.73427 8.4223 7.04468 8.3483Z" fill="#4B4B4B"/>
<path opacity="0.5" d="M7.17494 11.8275C10.1953 11.8208 13.2159 11.8271 16.2362 11.8257C16.6278 11.8214 16.9787 12.1719 16.9731 12.5642C16.99 12.9555 16.6501 13.3156 16.2589 13.3235C13.3423 13.3271 10.4256 13.3235 7.50896 13.3251C7.31304 13.3213 7.10656 13.3483 6.92346 13.261C6.60789 13.1283 6.41782 12.7612 6.49137 12.4265C6.55143 12.1042 6.84654 11.8428 7.17494 11.8275Z" fill="#4B4B4B"/>
<path opacity="0.5" d="M7.04652 15.3454C7.10185 15.3324 7.15854 15.3261 7.21522 15.3243C10.2223 15.324 13.2292 15.3243 16.236 15.3243C16.4427 15.3238 16.6449 15.4194 16.7828 15.5721C16.9763 15.7827 17.028 16.1073 16.9142 16.3688C16.8033 16.6356 16.5255 16.8223 16.2362 16.8234C13.2966 16.8243 10.357 16.8232 7.41743 16.8241C7.23231 16.8279 7.03572 16.8291 6.8704 16.7335C6.55527 16.5686 6.39288 16.1626 6.51839 15.8277C6.60116 15.5937 6.80292 15.4014 7.04652 15.3454Z" fill="#4B4B4B"/>
</svg>
