<svg width="24" height="24" viewBox="0 0 24 24" fill="none" xmlns="http://www.w3.org/2000/svg">
<path d="M11.4172 5.27447C12.8599 5.14877 14.3116 5.51207 15.601 6.14837C16.5676 6.62447 17.4601 7.24037 18.2833 7.93337C19.1668 8.67707 19.9735 9.50927 20.7127 10.3961C20.9776 10.7186 21.2668 11.0375 21.4144 11.4353C21.5749 11.8529 21.544 12.3356 21.3418 12.7334C21.2125 12.9992 21.0247 13.2293 20.8369 13.4549C20.1106 14.342 19.3174 15.1757 18.4501 15.926C17.665 16.6034 16.8178 17.2139 15.9004 17.6999C14.8948 18.2336 13.7959 18.6128 12.6586 18.7196C11.5669 18.8261 10.4581 18.6572 9.42788 18.29C8.40879 17.9276 7.45928 17.3885 6.58598 16.7543C5.34038 15.8474 4.23728 14.756 3.25358 13.5731C2.96768 13.2272 2.65688 12.8756 2.53508 12.4328C2.42378 12.038 2.47358 11.6033 2.66468 11.2409C2.79488 10.9853 2.97698 10.7615 3.15998 10.5422C3.77888 9.78587 4.44698 9.06887 5.16818 8.40887C5.98328 7.66397 6.86678 6.98837 7.83008 6.44537C8.93138 5.82347 10.1503 5.37857 11.4172 5.27447ZM11.4769 6.77507C10.6774 6.85037 9.90188 7.09637 9.17708 7.43567C8.24708 7.87517 7.39718 8.46827 6.61479 9.13277C5.72498 9.89027 4.91978 10.7441 4.18928 11.6552C4.10978 11.7641 4.00658 11.8667 3.97448 12.0011C4.03118 12.1928 4.19198 12.3335 4.30748 12.4925C4.79528 13.0904 5.31638 13.6619 5.87258 14.1968C6.67748 14.9684 7.55468 15.6719 8.52458 16.226C9.46928 16.7645 10.5163 17.1599 11.608 17.237C12.6712 17.3162 13.7365 17.0588 14.7004 16.6193C15.6331 16.1954 16.486 15.6131 17.2717 14.9591C18.217 14.1683 19.0684 13.2692 19.8358 12.3059C19.9021 12.2183 19.975 12.1322 20.0137 12.0284C20.0221 11.9087 19.924 11.8214 19.8616 11.7305C19.0273 10.6739 18.088 9.69617 17.0383 8.85167C16.1806 8.16677 15.2416 7.56917 14.212 7.17947C13.3444 6.84947 12.4042 6.68357 11.4769 6.77507Z" fill="#4B4B4B"/>
<path d="M11.5024 7.881C12.2437 7.7922 13.0087 7.905 13.6906 8.2098C14.6167 8.6208 15.3811 9.3837 15.7921 10.3098C16.2481 11.322 16.2706 12.5196 15.8539 13.5483C15.4777 14.4897 14.7427 15.2829 13.831 15.7272C12.8413 16.2201 11.6503 16.2858 10.6099 15.9129C9.65071 15.5742 8.82811 14.8671 8.34721 13.971C8.02201 13.3686 7.84831 12.6843 7.85161 11.9994C7.84831 11.1549 8.11441 10.3122 8.60101 9.6219C9.26401 8.6673 10.3462 8.013 11.5024 7.881ZM11.596 9.3819C10.5352 9.5319 9.61951 10.3938 9.40951 11.445C9.28891 12.0087 9.35551 12.6123 9.60421 13.1331C9.83791 13.6287 10.2289 14.0484 10.7077 14.3151C11.2744 14.6358 11.9614 14.7306 12.5956 14.586C13.4947 14.385 14.263 13.6791 14.5303 12.7962C14.7265 12.1734 14.6833 11.478 14.4058 10.8861C14.1721 10.3824 13.7761 9.9549 13.2901 9.6858C12.7804 9.399 12.1735 9.2931 11.596 9.3819Z" fill="#4B4B4B"/>
<path opacity="0.35" d="M11.503 7.13057C12.3658 7.05377 13.2412 7.18847 14.0521 7.48907C15.0163 7.84367 15.889 8.41067 16.6768 9.06407C17.6854 9.90377 18.5638 10.8863 19.3822 11.9087C19.4317 11.9609 19.447 12.0482 19.396 12.1052C18.346 13.367 17.2339 14.606 15.8764 15.5456C14.9596 16.1798 13.9201 16.667 12.8098 16.8284C11.7601 16.9883 10.6756 16.8314 9.69402 16.4357C8.78352 16.0736 7.95552 15.5294 7.20252 14.9066C6.22722 14.0942 5.37102 13.148 4.59042 12.1493C4.52502 12.0833 4.52742 11.9774 4.59222 11.912C5.57982 10.6433 6.68322 9.44267 8.00202 8.51147C9.03582 7.78367 10.231 7.23677 11.503 7.13057ZM11.5027 7.88087C10.3465 8.01287 9.26442 8.66717 8.60142 9.62177C8.11482 10.3121 7.84872 11.1548 7.85202 11.9993C7.84872 12.6842 8.02242 13.3685 8.34762 13.9709C8.82852 14.867 9.65112 15.5741 10.6102 15.9128C11.6506 16.2857 12.8416 16.22 13.8313 15.7271C14.743 15.2828 15.478 14.4896 15.8542 13.5482C16.2709 12.5195 16.2484 11.3219 15.7924 10.3097C15.3814 9.38357 14.617 8.62067 13.6909 8.20967C13.009 7.90487 12.244 7.79207 11.5027 7.88087Z" fill="#4B4B4B"/>
<path opacity="0.35" d="M11.8028 10.907C12.2861 10.8113 12.8072 11.084 13.0079 11.5331C13.1444 11.8247 13.1444 12.1763 13.007 12.4676C12.8849 12.7319 12.6545 12.9446 12.3803 13.0433C12.0995 13.1465 11.777 13.1294 11.5091 12.9956C11.2487 12.8678 11.0417 12.6338 10.9493 12.3587C10.8473 12.0629 10.8782 11.7245 11.0342 11.453C11.1929 11.1695 11.4821 10.9628 11.8028 10.907Z" fill="#4B4B4B"/>
</svg>
