<svg width="24" height="24" viewBox="0 0 24 24" fill="none" xmlns="http://www.w3.org/2000/svg">
<path fill-rule="evenodd" clip-rule="evenodd" d="M18.7497 10.9997C18.7495 14.7276 15.7274 17.7495 11.9996 17.7495C8.27153 17.7495 5.24937 14.7273 5.24951 10.9992L5.24954 10.2495C5.24955 9.83527 5.58535 9.4995 5.99956 9.49951C6.41378 9.49953 6.74955 9.83533 6.74954 10.2496L6.74951 10.9993C6.7494 13.8989 9.09998 16.2495 11.9996 16.2495C14.899 16.2495 17.2495 13.8991 17.2497 10.9996V10.2495C17.2497 9.83527 17.5855 9.4995 17.9997 9.49951C18.4139 9.49953 18.7497 9.83533 18.7497 10.2496V10.9997Z" fill="#4B4B4B"/>
<path opacity="0.5" fill-rule="evenodd" clip-rule="evenodd" d="M15.75 11.0004C15.75 13.0714 14.071 14.7504 12 14.7504C9.92893 14.7504 8.25 13.0714 8.25 11.0004V5.99951C8.25 3.92845 9.92893 2.24951 12 2.24951C14.071 2.24951 15.75 3.92845 15.75 5.99951V11.0004ZM12 3.74951C10.7573 3.74951 9.75 4.75687 9.75 5.99951V11.0004C9.75 12.243 10.7573 13.2504 12 13.2504C13.2426 13.2504 14.25 12.243 14.25 11.0004V5.99951C14.25 4.75687 13.2426 3.74951 12 3.74951Z" fill="#4B4B4B"/>
<path fill-rule="evenodd" clip-rule="evenodd" d="M12 16.4316C12.4142 16.4316 12.75 16.7674 12.75 17.1816V20.9997C12.75 21.4139 12.4142 21.7497 12 21.7497C11.5857 21.7497 11.25 21.4139 11.25 20.9997V17.1816C11.25 16.7674 11.5857 16.4316 12 16.4316Z" fill="#4B4B4B"/>
<path fill-rule="evenodd" clip-rule="evenodd" d="M7.875 20.9995C7.875 20.5853 8.21078 20.2495 8.625 20.2495H15.375C15.7892 20.2495 16.125 20.5853 16.125 20.9995C16.125 21.4137 15.7892 21.7495 15.375 21.7495H8.625C8.21078 21.7495 7.875 21.4137 7.875 20.9995Z" fill="#4B4B4B"/>
</svg>
