<svg width="24" height="24" viewBox="0 0 24 24" fill="none" xmlns="http://www.w3.org/2000/svg">
<path d="M11.8391 7.00938C12.1957 6.92345 12.5879 7.15176 12.7069 7.49477C12.7591 7.63738 12.7409 7.79168 12.7472 7.94058C12.7467 9.88263 12.7476 11.8249 12.7467 13.7669C12.7452 14.1601 12.3814 14.5085 11.9883 14.493C11.6021 14.4975 11.2496 14.1543 11.248 13.7674C11.2474 11.7572 11.248 9.74722 11.2476 7.73702C11.2429 7.39468 11.506 7.07888 11.8391 7.00938Z" fill="#4B4B4B"/>
<path d="M11.9289 15.7554C12.4123 15.712 12.8921 16.0791 12.9773 16.5569C13.0556 16.9136 12.9069 17.3007 12.6264 17.5301C12.4975 17.6383 12.3381 17.7067 12.1736 17.7391C11.8455 17.7992 11.4928 17.679 11.2645 17.4368C11.0836 17.2438 10.9849 16.977 10.9977 16.7125C11.0051 16.477 11.1014 16.2465 11.262 16.0744C11.4334 15.8888 11.6768 15.7716 11.9289 15.7554Z" fill="#4B4B4B"/>
</svg>
