<svg width="24" height="24" viewBox="0 0 24 24" fill="none" xmlns="http://www.w3.org/2000/svg">
<path d="M11.8132 3.99735C12.9844 3.96962 14.1613 4.20097 15.2326 4.67577C16.2573 5.12836 17.1833 5.80095 17.9348 6.63151C18.5518 7.31284 19.0514 8.10081 19.3995 8.9519C19.9464 10.2778 20.1271 11.7521 19.914 13.1707C19.7395 14.3549 19.2962 15.4993 18.6212 16.4883C18.0079 17.3901 17.2092 18.1655 16.2891 18.7512C15.2865 19.3927 14.1368 19.7994 12.9556 19.9408C11.5618 20.1095 10.1245 19.9051 8.83557 19.3479C7.96717 18.9749 7.16741 18.4442 6.48301 17.7928C5.67283 17.0227 5.02628 16.0815 4.60066 15.0478C4.13888 13.9358 3.93894 12.7179 4.01126 11.5165C4.07714 10.4205 4.36855 9.33768 4.86955 8.36019C5.37055 7.37918 6.07716 6.5045 6.92901 5.80632C7.75221 5.12989 8.71193 4.62077 9.7343 4.32094C10.409 4.12207 11.11 4.01206 11.8132 3.99735ZM11.5122 5.03291C11.096 5.06125 10.6825 5.12775 10.2782 5.23055C9.2356 5.49346 8.25766 6.00457 7.44395 6.7072C6.63454 7.40523 5.98584 8.28987 5.56911 9.27456C5.18363 10.1828 4.99702 11.1736 5.02076 12.1596C5.04344 13.2899 5.35048 14.4122 5.9028 15.3982C6.44502 16.3708 7.2244 17.2095 8.15393 17.8223C8.92964 18.3353 9.80831 18.6933 10.7236 18.8602C12.1998 19.134 13.7647 18.921 15.1079 18.2476C16.0812 17.763 16.9371 17.0462 17.5891 16.1764C18.2602 15.2842 18.7082 14.2271 18.8878 13.1256C19.0454 12.173 18.9982 11.1881 18.758 10.2531C18.5236 9.33308 18.096 8.46315 17.5116 7.71487C16.8235 6.83207 15.9236 6.11351 14.9049 5.64851C13.8496 5.16252 12.6707 4.95278 11.5122 5.03291Z" fill="#FFAD0D"/>
<path opacity="0.3" d="M11.7946 5.56389C12.8942 5.5282 14.002 5.7787 14.9757 6.29165C15.9368 6.79556 16.768 7.54553 17.3653 8.45177C17.8847 9.2382 18.2299 10.1394 18.3626 11.0728C18.5018 12.0363 18.4185 13.031 18.123 13.9584C17.8076 14.9516 17.2411 15.8625 16.4966 16.5911C15.7842 17.2927 14.9051 17.8231 13.9519 18.126C13.0379 18.42 12.0573 18.5014 11.1065 18.3693C10.1903 18.244 9.30244 17.9167 8.52474 17.4163C7.65925 16.8608 6.92767 16.097 6.41472 15.2053C5.84354 14.2156 5.54463 13.0711 5.55857 11.9285C5.56746 10.9802 5.78869 10.0338 6.20497 9.18136C6.64698 8.27236 7.30686 7.47061 8.11367 6.86144C8.93228 6.24017 9.90226 5.81868 10.9165 5.65046C11.2067 5.60174 11.5004 5.57293 11.7946 5.56389ZM11.8868 8.64497C11.7403 8.68021 11.6168 8.7968 11.5743 8.94143C11.545 9.03045 11.5559 9.12529 11.554 9.21721C11.5542 10.3407 11.5537 11.4642 11.5543 12.5876C11.556 12.7494 11.6541 12.9053 11.8004 12.975C11.9911 13.0726 12.2446 13.0035 12.3595 12.8228C12.44 12.7106 12.4348 12.5672 12.4324 12.4357C12.4319 11.3631 12.4333 10.2905 12.4315 9.21783C12.4284 9.10782 12.4445 8.99153 12.3932 8.8895C12.3109 8.70074 12.0863 8.59027 11.8868 8.64497ZM11.8997 13.7558C11.569 13.7999 11.3325 14.1672 11.427 14.4865C11.4992 14.7832 11.8336 14.9843 12.1295 14.9049C12.4319 14.8418 12.6395 14.5055 12.5648 14.2064C12.5078 13.9121 12.1922 13.7057 11.8997 13.7558Z" fill="#FFAD0D"/>
<path d="M11.9067 8.6112C12.1602 8.54886 12.4437 8.75774 12.4483 9.02114C12.454 9.30896 12.4491 9.59691 12.4503 9.88474C12.4509 10.771 12.4511 11.6573 12.4503 12.5437C12.4491 12.6175 12.4564 12.693 12.436 12.7652C12.4018 12.8968 12.3047 13.0101 12.1796 13.0637C12.0083 13.1395 11.7916 13.0941 11.6677 12.9527C11.5832 12.861 11.5437 12.7339 11.5506 12.6104C11.5526 11.4592 11.5496 10.3077 11.5514 9.15648C11.5527 9.08442 11.5453 9.01075 11.5646 8.94044C11.6056 8.77838 11.7429 8.64561 11.9067 8.6112Z" fill="#FFAD0D"/>
<path d="M11.9339 13.7253C12.2453 13.6811 12.5613 13.9303 12.5942 14.2423C12.6269 14.4524 12.5279 14.6704 12.3608 14.7981C12.2504 14.8854 12.1073 14.9261 11.9676 14.9195C11.8145 14.911 11.667 14.8397 11.5619 14.7289C11.4363 14.5983 11.3781 14.407 11.4082 14.2287C11.4343 14.0651 11.5282 13.9114 11.6685 13.8216C11.7473 13.7681 11.8395 13.7362 11.9339 13.7253Z" fill="#FFAD0D"/>
</svg>
