<svg width="24" height="24" viewBox="0 0 24 24" fill="none" xmlns="http://www.w3.org/2000/svg">
<g clip-path="url(#clip0_35569_35215)">
<mask id="mask0_35569_35215" style="mask-type:luminance" maskUnits="userSpaceOnUse" x="0" y="0" width="24" height="24">
<path d="M24 0H0V24H24V0Z" fill="white"/>
</mask>
<g mask="url(#mask0_35569_35215)">
<mask id="mask1_35569_35215" style="mask-type:luminance" maskUnits="userSpaceOnUse" x="0" y="0" width="24" height="24">
<path d="M24 0H0V24H24V0Z" fill="white"/>
</mask>
<g mask="url(#mask1_35569_35215)">
<path d="M11.7243 0.253272C13.4436 0.21256 15.1716 0.552203 16.7443 1.24926C18.2486 1.9137 19.6081 2.90114 20.7114 4.12049C21.6171 5.12075 22.3506 6.27757 22.8617 7.52705C23.6647 9.47359 23.9299 11.6381 23.617 13.7207C23.3608 15.4592 22.7101 17.1394 21.719 18.5913C20.8186 19.9153 19.6461 21.0536 18.2954 21.9136C16.8234 22.8553 15.1356 23.4523 13.4014 23.6599C11.3552 23.9076 9.24513 23.6075 7.35279 22.7894C6.07789 22.2419 4.90376 21.4628 3.899 20.5064C2.70957 19.3759 1.76037 17.9942 1.13551 16.4766C0.457576 14.844 0.164042 13.056 0.270209 11.2921C0.366929 9.68323 0.794745 8.09342 1.53026 6.65837C2.26578 5.21815 3.30316 3.93402 4.55377 2.90902C5.76232 1.91595 7.17128 1.16851 8.67223 0.728323C9.66282 0.436365 10.6919 0.274865 11.7243 0.253272ZM11.2823 1.77357C10.6714 1.81518 10.0643 1.9128 9.47073 2.06373C7.94009 2.44971 6.50436 3.20008 5.30976 4.2316C4.12145 5.25638 3.1691 6.55513 2.55729 8.00075C1.99137 9.33414 1.7174 10.7888 1.75227 12.2364C1.78556 13.8957 2.23632 15.5433 3.04719 16.991C3.84322 18.4188 4.98743 19.6501 6.35208 20.5498C7.4909 21.3029 8.78087 21.8285 10.1246 22.0735C12.2918 22.4754 14.5892 22.1628 16.5612 21.1742C17.9902 20.4628 19.2466 19.4103 20.2039 18.1334C21.1891 16.8236 21.8468 15.2716 22.1104 13.6546C22.3419 12.256 22.2726 10.8101 21.9199 9.43738C21.5758 8.08667 20.948 6.80952 20.0901 5.71097C19.0799 4.41492 17.7587 3.36 16.2631 2.67734C14.7138 1.96386 12.9832 1.65593 11.2823 1.77357Z" fill="#4B4B4B"/>
<path opacity="0.5" d="M11.7046 2.55325C13.3189 2.50085 14.9454 2.86861 16.3748 3.62167C17.7858 4.36146 19.0061 5.4625 19.8831 6.79296C20.6456 7.94752 21.1523 9.27056 21.3471 10.6408C21.5516 12.0554 21.4292 13.5157 20.9953 14.8772C20.5324 16.3354 19.7007 17.6726 18.6077 18.7424C17.5618 19.7723 16.2711 20.551 14.8719 20.9957C13.5299 21.4274 12.0904 21.5468 10.6945 21.3529C9.34936 21.1689 8.0459 20.6885 6.90415 19.9538C5.63353 19.1382 4.55949 18.017 3.80642 16.7079C2.96788 15.2548 2.52905 13.5746 2.54951 11.8971C2.56256 10.505 2.88736 9.11558 3.49849 7.86407C4.14742 6.52956 5.11619 5.35251 6.30067 4.45818C7.50247 3.54609 8.9265 2.92731 10.4156 2.68034C10.8416 2.60881 11.2728 2.56653 11.7046 2.55325ZM11.84 7.07659C11.625 7.12833 11.4437 7.2995 11.3812 7.51183C11.3382 7.64251 11.3542 7.78175 11.3515 7.9167C11.3517 9.56611 11.351 11.2155 11.3519 12.8647C11.3544 13.1023 11.4984 13.3312 11.7132 13.4336C11.9932 13.5769 12.3652 13.4754 12.5339 13.21C12.6523 13.0453 12.6446 12.8348 12.641 12.6418C12.6403 11.0671 12.6424 9.49234 12.6397 7.9176C12.6352 7.7561 12.6588 7.58538 12.5834 7.43558C12.4626 7.15847 12.1329 6.99629 11.84 7.07659ZM11.8589 14.5798C11.3735 14.6446 11.0262 15.1838 11.165 15.6525C11.271 16.0882 11.762 16.3833 12.1963 16.2668C12.6403 16.1741 12.9451 15.6804 12.8353 15.2413C12.7517 14.8092 12.2883 14.5063 11.8589 14.5798Z" fill="#4B4B4B"/>
</g>
</g>
</g>
<defs>
<clipPath id="clip0_35569_35215">
<rect width="24" height="24" fill="white"/>
</clipPath>
</defs>
</svg>
