<svg width="24" height="24" viewBox="0 0 24 24" fill="none" xmlns="http://www.w3.org/2000/svg">
<g clip-path="url(#clip0_35569_35226)">
<mask id="mask0_35569_35226" style="mask-type:luminance" maskUnits="userSpaceOnUse" x="0" y="0" width="24" height="24">
<path d="M24 0H0V24H24V0Z" fill="white"/>
</mask>
<g mask="url(#mask0_35569_35226)">
<mask id="mask1_35569_35226" style="mask-type:luminance" maskUnits="userSpaceOnUse" x="0" y="0" width="24" height="24">
<path d="M24 0H0V24H24V0Z" fill="white"/>
</mask>
<g mask="url(#mask1_35569_35226)">
<path d="M10.5799 0.572249C11.7695 0.567975 12.9594 0.5691 14.1493 0.577647C15.3209 0.589343 16.4955 0.603739 17.6611 0.738472C18.5417 0.837441 19.4263 1.00704 20.235 1.38199C20.9277 1.6951 21.5429 2.17555 22.0128 2.77319C22.4031 3.26353 22.6815 3.8353 22.8732 4.42979C23.1204 5.19478 23.2304 5.99553 23.3028 6.79358C23.4265 8.23695 23.413 9.68708 23.4227 11.1342C23.4224 12.3941 23.4299 13.6541 23.406 14.914C23.3842 15.9792 23.3529 17.0479 23.1998 18.1039C23.0765 18.9242 22.8813 19.7468 22.4894 20.4841C22.1208 21.1956 21.5636 21.8049 20.8963 22.2471C20.3047 22.6414 19.6259 22.8846 18.9371 23.0458C18.0311 23.255 17.1003 23.3225 16.1741 23.3691C14.9219 23.4269 13.6679 23.4222 12.4146 23.4217C11.1635 23.4231 9.91206 23.4298 8.661 23.3983C7.87307 23.3758 7.08424 23.3446 6.30081 23.2548C5.62872 23.1752 4.95798 23.0542 4.31581 22.836C3.73257 22.636 3.17541 22.3477 2.69856 21.9543C2.08293 21.4484 1.59933 20.7851 1.29725 20.0484C1.00214 19.3359 0.848293 18.5742 0.753823 17.8115C0.627188 16.753 0.595023 15.6857 0.581752 14.6204C0.566007 13.3237 0.570055 12.027 0.570955 10.7303C0.574779 9.79977 0.580627 8.86878 0.61864 7.9387C0.656203 7.07654 0.718959 6.21214 0.882483 5.36348C1.02509 4.63043 1.25474 3.90526 1.64229 3.26286C2.15828 2.39755 2.96218 1.71354 3.88867 1.32194C4.77174 0.946081 5.72927 0.790206 6.67937 0.700909C7.97587 0.582596 9.27911 0.581021 10.5799 0.572249ZM9.47862 2.07995C8.53594 2.0939 7.59169 2.11392 6.65305 2.21041C5.90224 2.28981 5.14422 2.4124 4.44672 2.71403C4.0342 2.8942 3.65609 3.15489 3.34704 3.48261C2.86006 3.98871 2.5834 4.6572 2.42325 5.33221C2.20529 6.25645 2.15243 7.20902 2.1106 8.15463C2.05999 9.56696 2.07213 10.9806 2.06943 12.3939C2.07191 13.6987 2.06696 15.0046 2.13152 16.3083C2.17943 17.1513 2.24848 17.9998 2.46351 18.8192C2.56293 19.1872 2.69204 19.5502 2.88166 19.8822C3.10029 20.2619 3.39157 20.6009 3.74021 20.867C4.28094 21.2786 4.94066 21.4972 5.60038 21.629C6.40743 21.7903 7.23112 21.8434 8.05189 21.8785C8.82407 21.9097 9.59693 21.9194 10.3695 21.9221C11.6588 21.923 12.9481 21.9259 14.2374 21.9183C15.2951 21.9066 16.3545 21.8841 17.4074 21.7761C17.945 21.7192 18.4823 21.6353 19.0006 21.4781C19.3557 21.3701 19.7039 21.2298 20.0181 21.0303C20.3324 20.8287 20.6137 20.5754 20.8441 20.2815C21.2975 19.7027 21.5207 18.9818 21.6529 18.2681C21.8506 17.1763 21.8812 16.0638 21.9062 14.9571C21.9303 13.5705 21.9249 12.1838 21.9215 10.7971C21.9192 10.0541 21.9172 9.31144 21.8961 8.56873C21.872 7.74323 21.832 6.91639 21.7146 6.0981C21.6151 5.43253 21.4624 4.76224 21.1405 4.1655C20.8067 3.54739 20.2671 3.04355 19.6274 2.75317C18.8035 2.36966 17.8874 2.26169 16.9922 2.17847C15.9046 2.08535 14.8121 2.08445 13.7215 2.07343C12.3071 2.06916 10.8927 2.06466 9.47862 2.07995Z" fill="#4B4B4B"/>
<path opacity="0.5" d="M10.4219 2.64343C11.724 2.64096 13.0262 2.63151 14.3283 2.65063C15.3591 2.66885 16.3945 2.69202 17.415 2.85307C18.1141 2.96756 18.8161 3.16077 19.416 3.54945C20.0051 3.93273 20.4729 4.49663 20.7448 5.14465C21.0651 5.8867 21.1772 6.69667 21.2514 7.49539C21.3243 8.3463 21.3384 9.20081 21.3483 10.0545C21.3551 10.8266 21.354 11.5988 21.3526 12.371C21.3524 13.6392 21.3578 14.9084 21.2764 16.1743C21.2105 17.066 21.1083 17.9731 20.7635 18.8058C20.5015 19.4471 20.0539 20.0125 19.4792 20.401C18.8649 20.818 18.1357 21.0254 17.4094 21.1408C16.3835 21.3012 15.3427 21.3264 14.3065 21.3437C12.942 21.3592 11.5778 21.3552 10.2136 21.3489C9.25278 21.3405 8.29053 21.3279 7.33346 21.2357C6.58826 21.1622 5.83633 21.0414 5.14354 20.7454C4.44176 20.448 3.83468 19.9244 3.45477 19.2617C3.0436 18.5492 2.8812 17.7268 2.78426 16.9191C2.66932 15.8873 2.6547 14.8477 2.64323 13.8108C2.6385 12.5959 2.6385 11.3811 2.643 10.1662C2.65222 9.1538 2.67247 8.13982 2.77751 7.13213C2.84161 6.54911 2.94463 5.96632 3.14257 5.41255C3.3693 4.7472 3.78722 4.14574 4.34392 3.71478C4.94066 3.25232 5.6773 3.01389 6.41215 2.88186C7.28712 2.72688 8.17716 2.6873 9.06384 2.66098C9.51639 2.64951 9.96918 2.64591 10.4219 2.64343ZM11.8178 6.98255C11.5481 7.05678 11.3392 7.31927 11.3403 7.60111C11.3408 9.35624 11.3372 11.1116 11.339 12.8668C11.3374 13.0863 11.4481 13.3054 11.6361 13.4221C11.8504 13.5661 12.1501 13.5679 12.3626 13.419C12.5356 13.3018 12.653 13.0993 12.6521 12.8886C12.6539 11.1413 12.6552 9.39425 12.6539 7.64722C12.6582 7.50259 12.6184 7.35616 12.534 7.23785C12.3804 7.01359 12.0788 6.9063 11.8178 6.98255ZM11.8635 14.6331C11.5938 14.6763 11.3477 14.8468 11.2227 15.0911C11.0843 15.341 11.0877 15.6566 11.2182 15.9089C11.3309 16.1219 11.5358 16.2816 11.767 16.3471C12.0936 16.4429 12.4688 16.3176 12.6791 16.0518C12.8689 15.8136 12.9306 15.4732 12.8167 15.1883C12.6786 14.811 12.2594 14.5677 11.8635 14.6331Z" fill="#4B4B4B"/>
</g>
</g>
</g>
<defs>
<clipPath id="clip0_35569_35226">
<rect width="24" height="24" fill="white"/>
</clipPath>
</defs>
</svg>
