<svg width="24" height="24" viewBox="0 0 24 24" fill="none" xmlns="http://www.w3.org/2000/svg">
<path d="M11.1913 1.27964C12.8956 1.15166 14.6305 1.43237 16.2027 2.10424C17.7327 2.75361 19.1048 3.76782 20.1822 5.03282C21.0497 6.04995 21.7257 7.23038 22.1589 8.49539C22.8969 10.6257 22.9374 12.9897 22.2738 15.1443C21.7895 16.7368 20.9238 18.2099 19.7739 19.4128C18.7111 20.5266 17.409 21.4126 15.978 21.9817C14.0409 22.7582 11.8753 22.9437 9.8318 22.5254C8.53643 22.2617 7.29257 21.7525 6.18209 21.0359C4.80552 20.1501 3.63409 18.9465 2.78993 17.5436C1.95589 16.1612 1.43518 14.5892 1.29392 12.9798C1.17583 11.677 1.29325 10.3526 1.64638 9.0928C2.06183 7.5959 2.81669 6.19728 3.82483 5.01663C4.83611 3.83012 6.10922 2.86765 7.52762 2.2203C8.68039 1.69329 9.92695 1.37051 11.1913 1.27964ZM11.7257 2.75293C10.2869 2.79117 8.85966 3.1758 7.59465 3.86184C6.21178 4.60928 5.02775 5.71728 4.18607 7.04437C3.4339 8.223 2.95863 9.57595 2.80612 10.9655C2.68713 12.0367 2.75394 13.1289 3.00743 14.1766C3.3563 15.6234 4.06303 16.982 5.04755 18.0978C6.01924 19.2036 7.25568 20.0766 8.62775 20.6114C10.138 21.2048 11.8063 21.3814 13.4093 21.1366C15.0695 20.8854 16.653 20.1632 17.9376 19.083C19.1732 18.0481 20.1316 16.6851 20.6847 15.1711C21.1521 13.8923 21.3287 12.5095 21.2054 11.154C21.0817 9.75904 20.6311 8.39507 19.9035 7.19867C19.0857 5.85202 17.9178 4.72107 16.5471 3.94461C15.0893 3.11507 13.4015 2.70255 11.7257 2.75293Z" fill="#4B4B4B"/>
<path opacity="0.5" d="M11.8415 7.00884C12.2795 6.90155 12.764 7.28011 12.7437 7.73581C12.7505 9.74601 12.7451 11.7562 12.7457 13.7664C12.7453 14.1517 12.3949 14.4965 12.0095 14.4924C11.615 14.5104 11.2479 14.1607 11.2475 13.7657C11.247 11.7483 11.247 9.73072 11.2473 7.71332C11.2551 7.37997 11.5152 7.07452 11.8415 7.00884Z" fill="#4B4B4B"/>
<path opacity="0.5" d="M11.8863 15.7594C12.3976 15.6887 12.9174 16.0875 12.9847 16.5986C13.0355 16.8908 12.9363 17.1989 12.7408 17.4191C12.5852 17.5995 12.3603 17.7151 12.125 17.7468C11.784 17.7911 11.4261 17.6449 11.2118 17.3766C11.0836 17.2131 11.0042 17.0102 10.9974 16.8019C10.9848 16.4956 11.1132 16.1807 11.3539 15.9868C11.5039 15.8608 11.6915 15.7807 11.8863 15.7594Z" fill="#4B4B4B"/>
</svg>
