<svg width="24" height="24" viewBox="0 0 24 24" fill="none" xmlns="http://www.w3.org/2000/svg">
<path d="M11.1914 1.27964C12.8957 1.15165 14.6305 1.43237 16.2028 2.10423C17.7328 2.7536 19.1048 3.76781 20.1823 5.03282C21.0498 6.04995 21.7257 7.23038 22.1589 8.49538C22.8969 10.6257 22.9374 12.9897 22.2739 15.1443C21.7896 16.7368 20.9238 18.2099 19.774 19.4128C18.7112 20.5267 17.4091 21.4126 15.9781 21.9817C14.041 22.7582 11.8754 22.9437 9.83189 22.5254C8.53652 22.2618 7.29266 21.7525 6.18218 21.0359C4.80561 20.1501 3.63418 18.9465 2.79002 17.5436C1.95598 16.1612 1.43527 14.5892 1.29401 12.9798C1.17592 11.677 1.29333 10.3526 1.64647 9.0928C2.06192 7.59589 2.81678 6.19728 3.82492 5.01662C4.8362 3.83012 6.10931 2.86764 7.52771 2.22029C8.68048 1.69328 9.92704 1.37051 11.1914 1.27964ZM11.7258 2.75293C10.2869 2.79117 8.85975 3.1758 7.59474 3.86183C6.21187 4.60927 5.02784 5.71728 4.18616 7.04436C3.43399 8.22299 2.95871 9.57595 2.80621 10.9656C2.68722 12.0367 2.75403 13.1289 3.00752 14.1767C3.35639 15.6234 4.06312 16.982 5.04764 18.0979C6.01933 19.2036 7.25577 20.0766 8.62784 20.6114C10.138 21.2048 11.8063 21.3814 13.4094 21.1367C15.0696 20.8854 16.6531 20.1632 17.9377 19.0831C19.1732 18.0482 20.1316 16.6851 20.6847 15.1711C21.1522 13.8923 21.3287 12.5095 21.2055 11.1541C21.0818 9.75904 20.6312 8.39507 19.9036 7.19867C19.0857 5.85201 17.9179 4.72106 16.5472 3.94461C15.0894 3.11507 13.4015 2.70254 11.7258 2.75293Z" fill="#4B4B4B"/>
<path opacity="0.5" d="M11.8417 7.00878C12.2796 6.90149 12.7641 7.28005 12.7439 7.73575C12.7506 9.74595 12.7452 11.7561 12.7459 13.7663C12.7454 14.1516 12.395 14.4965 12.0097 14.4924C11.6152 14.5104 11.2481 14.1606 11.2476 13.7657C11.2472 11.7483 11.2472 9.73065 11.2474 7.71326C11.2553 7.37991 11.5153 7.07446 11.8417 7.00878Z" fill="#4B4B4B"/>
<path opacity="0.5" d="M11.8862 15.7592C12.3975 15.6886 12.9173 16.0874 12.9845 16.5984C13.0354 16.8906 12.9362 17.1988 12.7407 17.419C12.5851 17.5994 12.3601 17.715 12.1248 17.7467C11.7839 17.791 11.426 17.6448 11.2116 17.3765C11.0834 17.2129 11.004 17.0101 10.9973 16.8018C10.9847 16.4954 11.1131 16.1805 11.3538 15.9866C11.5038 15.8607 11.6914 15.7806 11.8862 15.7592Z" fill="#4B4B4B"/>
</svg>
