<svg width="24" height="24" viewBox="0 0 24 24" fill="none" xmlns="http://www.w3.org/2000/svg">
<path d="M8.62748 1.27944C10.1448 1.23625 11.6631 1.25357 13.1809 1.2502C14.3067 1.25784 15.4338 1.25627 16.5571 1.33747C17.4388 1.40337 18.3271 1.50774 19.169 1.7907C19.8204 2.00686 20.4358 2.3456 20.939 2.81548C21.4844 3.32292 21.8954 3.96825 22.1484 4.66755C22.4044 5.38643 22.5367 6.14309 22.6111 6.90065C22.7402 8.29297 22.7368 9.69271 22.7434 11.0898C22.7393 12.3535 22.7492 13.6173 22.726 14.881C22.7074 15.7926 22.6687 16.7054 22.5492 17.6101C22.4294 18.4891 22.2148 19.3731 21.7642 20.1457C21.327 20.8999 20.6619 21.5173 19.8829 21.9071C19.1584 22.2677 18.3599 22.4512 17.5614 22.5558C16.5839 22.6822 15.5969 22.711 14.6122 22.731C13.438 22.7486 12.2634 22.7394 11.0893 22.7414C10.2863 22.7412 9.48356 22.7396 8.68101 22.7151C7.93739 22.6903 7.19288 22.6548 6.45443 22.5587C5.73264 22.465 5.01151 22.3102 4.34279 22.016C3.40753 21.6154 2.61779 20.8884 2.14072 19.9901C1.75114 19.2523 1.55343 18.4297 1.44299 17.6074C1.30308 16.5504 1.27519 15.4829 1.25944 14.4181C1.24572 13.181 1.24977 11.9436 1.25112 10.7065C1.25405 9.80697 1.26102 8.90725 1.30308 8.00888C1.34514 7.17957 1.41286 6.348 1.59348 5.53601C1.72979 4.9269 1.93716 4.32813 2.26083 3.79213C2.71586 3.03389 3.40079 2.41826 4.20041 2.04172C4.99914 1.66069 5.87951 1.49514 6.75314 1.39775C7.37574 1.32915 8.00172 1.29901 8.62748 1.27944ZM9.97322 2.75475C9.39268 2.76082 8.81192 2.7696 8.23183 2.79411C7.40768 2.83213 6.57904 2.88971 5.77357 3.0773C5.35632 3.17829 4.94358 3.3182 4.57447 3.5411C4.231 3.74602 3.92914 4.0202 3.69341 4.34343C3.49187 4.62009 3.34005 4.93072 3.22827 5.25372C3.07465 5.70088 2.98398 6.16693 2.92257 6.63501C2.81664 7.46275 2.78515 8.29792 2.76603 9.13151C2.75209 9.85151 2.75187 10.5716 2.74985 11.2916C2.75187 12.5885 2.74106 13.8859 2.77435 15.1826C2.80134 16.0947 2.84296 17.0109 3.01098 17.9097C3.1077 18.4034 3.24693 18.8955 3.49391 19.3369C3.80656 19.905 4.3122 20.3605 4.90354 20.6241C5.57474 20.9264 6.31115 21.0402 7.0379 21.1165C8.00285 21.2121 8.97363 21.226 9.94263 21.2373C10.6849 21.2447 11.4271 21.2425 12.1696 21.2427C13.5116 21.238 14.8551 21.2535 16.1954 21.1759C17.0929 21.1151 18.0061 21.038 18.8555 20.7213C19.4718 20.4955 20.0237 20.0816 20.3827 19.5287C20.6328 19.147 20.7932 18.7133 20.9019 18.272C21.1045 17.4382 21.1605 16.5779 21.1994 15.7234C21.2588 14.2768 21.237 12.8287 21.2426 11.3815C21.2426 10.5869 21.2424 9.79213 21.2228 8.9979C21.1988 8.1263 21.1677 7.25199 21.0346 6.38916C20.9273 5.71505 20.7575 5.03059 20.3762 4.45432C20.1555 4.12097 19.8663 3.83374 19.5334 3.61286C19.2185 3.40457 18.8658 3.25949 18.5048 3.1531C18.0088 3.0087 17.496 2.93222 16.9831 2.87846C15.8544 2.7669 14.7185 2.7606 13.5853 2.75183C12.3813 2.75048 11.1773 2.74598 9.97322 2.75475Z" fill="#4B4B4B"/>
<path opacity="0.5" d="M11.8405 7.00874C12.2631 6.90483 12.7357 7.25302 12.7434 7.69208C12.7528 8.17186 12.7447 8.65186 12.7467 9.13163C12.7476 10.6089 12.7481 12.0863 12.7467 13.5638C12.7447 13.6869 12.7569 13.8128 12.7229 13.9332C12.6658 14.1525 12.504 14.3414 12.2955 14.4307C12.0099 14.5571 11.6486 14.4813 11.4421 14.2456C11.3013 14.0929 11.2354 13.881 11.2469 13.6752C11.2503 11.7561 11.2453 9.83679 11.2483 7.91769C11.2505 7.79757 11.2381 7.67476 11.2703 7.55757C11.3387 7.28743 11.5674 7.0661 11.8405 7.00874Z" fill="#4B4B4B"/>
<path opacity="0.5" d="M11.8872 15.7585C12.407 15.6847 12.9345 16.1008 12.9894 16.6218C13.044 16.9727 12.8787 17.3366 12.5998 17.5498C12.4156 17.6956 12.1767 17.7635 11.9435 17.7525C11.6879 17.7383 11.4416 17.6193 11.2662 17.4342C11.0566 17.2163 10.9594 16.8969 11.0095 16.599C11.0532 16.326 11.21 16.0693 11.4441 15.9193C11.5757 15.83 11.7295 15.7767 11.8872 15.7585Z" fill="#4B4B4B"/>
</svg>
