<svg width="24" height="24" viewBox="0 0 24 24" fill="none" xmlns="http://www.w3.org/2000/svg">
<path d="M8.62741 1.27938C10.1448 1.23619 11.6631 1.25351 13.1809 1.25014C14.3067 1.25779 15.4338 1.25621 16.5571 1.33741C17.4388 1.40332 18.3271 1.50768 19.169 1.79065C19.8204 2.0068 20.4358 2.34555 20.9389 2.81543C21.4844 3.32287 21.8953 3.96819 22.1484 4.6675C22.4044 5.38637 22.5366 6.14304 22.6111 6.9006C22.7402 8.29291 22.7368 9.69265 22.7433 11.0897C22.7393 12.3533 22.7492 13.6172 22.726 14.8809C22.7073 15.7925 22.6686 16.7053 22.5492 17.61C22.4293 18.489 22.2147 19.373 21.7642 20.1456C21.3269 20.8998 20.6618 21.5172 19.8829 21.907C19.1584 22.2676 18.3599 22.4511 17.5614 22.5557C16.5838 22.6821 15.5969 22.7109 14.6121 22.7309C13.438 22.7485 12.2634 22.7393 11.0893 22.7413C10.2863 22.741 9.48349 22.7395 8.68094 22.715C7.93732 22.6902 7.19281 22.6547 6.45436 22.5586C5.73256 22.4648 5.01144 22.3101 4.34272 22.0159C3.40746 21.6153 2.61774 20.8883 2.14066 19.9899C1.75108 19.2522 1.55337 18.4296 1.44293 17.6073C1.30302 16.5503 1.27513 15.4828 1.25939 14.418C1.24566 13.1809 1.24971 11.9435 1.25106 10.7064C1.25399 9.80692 1.26096 8.9072 1.30302 8.00883C1.34508 7.17951 1.41279 6.34795 1.59341 5.53595C1.72971 4.92684 1.9371 4.32808 2.26077 3.79207C2.71581 3.03383 3.40072 2.4182 4.20034 2.04167C4.99907 1.66064 5.87944 1.49509 6.75307 1.39769C7.37567 1.32909 8.00165 1.29895 8.62741 1.27938ZM9.97316 2.7547C9.39262 2.76077 8.81185 2.76954 8.23176 2.79406C7.40761 2.83207 6.57897 2.88965 5.7735 3.07724C5.35626 3.17824 4.94351 3.31814 4.5744 3.54105C4.23093 3.74596 3.92908 4.02015 3.69335 4.34337C3.49181 4.62004 3.33999 4.93067 3.2282 5.25366C3.07457 5.70082 2.98392 6.16688 2.92252 6.63496C2.81657 7.4627 2.78508 8.29786 2.76596 9.13145C2.75202 9.85145 2.75179 10.5715 2.74977 11.2915C2.75179 12.5884 2.741 13.8858 2.77429 15.1825C2.80128 16.0946 2.84289 17.0107 3.01091 17.9096C3.10763 18.4033 3.24686 18.8954 3.49384 19.3367C3.80649 19.9049 4.31213 20.3604 4.90347 20.624C5.57466 20.9263 6.31108 21.0401 7.03783 21.1164C8.00278 21.212 8.97358 21.2259 9.94257 21.2372C10.6848 21.2446 11.4271 21.2423 12.1696 21.2426C13.5115 21.2378 14.855 21.2534 16.1954 21.1758C17.0929 21.115 18.0061 21.0379 18.8554 20.7212C19.4717 20.4954 20.0237 20.0815 20.3827 19.5286C20.6328 19.1469 20.7932 18.7132 20.9018 18.2719C21.1045 17.4381 21.1605 16.5778 21.1994 15.7232C21.2588 14.2767 21.237 12.8286 21.2426 11.3814C21.2426 10.5867 21.2424 9.79207 21.2228 8.99784C21.1987 8.12624 21.1677 7.25194 21.0345 6.38911C20.9272 5.71499 20.7574 5.03053 20.3762 4.45426C20.1555 4.12092 19.8662 3.83368 19.5333 3.6128C19.2184 3.40452 18.8658 3.25944 18.5047 3.15305C18.0088 3.00864 17.4959 2.93216 16.9831 2.87841C15.8544 2.76684 14.7185 2.76054 13.5853 2.75177C12.3813 2.75042 11.1772 2.74592 9.97316 2.7547Z" fill="#4B4B4B"/>
<path opacity="0.5" d="M11.8405 7.0088C12.2631 6.90488 12.7357 7.25307 12.7433 7.69214C12.7528 8.17191 12.7447 8.65191 12.7467 9.13169C12.7476 10.609 12.7481 12.0864 12.7467 13.5639C12.7447 13.687 12.7568 13.8129 12.7229 13.9333C12.6657 14.1526 12.504 14.3415 12.2955 14.4308C12.0098 14.5572 11.6486 14.4814 11.4421 14.2457C11.3013 14.093 11.2354 13.8811 11.2469 13.6753C11.2503 11.7562 11.2453 9.83684 11.2482 7.91774C11.2505 7.79763 11.2381 7.67482 11.2703 7.55763C11.3387 7.28749 11.5674 7.06616 11.8405 7.0088Z" fill="#4B4B4B"/>
<path opacity="0.5" d="M11.8871 15.7586C12.4069 15.6848 12.9343 16.1009 12.9892 16.6218C13.0439 16.9727 12.8785 17.3367 12.5996 17.5499C12.4154 17.6957 12.1765 17.7636 11.9433 17.7526C11.6878 17.7384 11.4415 17.6194 11.266 17.4343C11.0564 17.2163 10.9592 16.8969 11.0094 16.5991C11.053 16.3261 11.2098 16.0694 11.4439 15.9194C11.5755 15.8301 11.7294 15.7768 11.8871 15.7586Z" fill="#4B4B4B"/>
</svg>
