<svg width="24" height="24" viewBox="0 0 24 24" fill="none" xmlns="http://www.w3.org/2000/svg">
<g clip-path="url(#clip0_27038_11355)">
<path d="M10.5798 0.572248C11.7695 0.567975 12.9593 0.569099 14.1492 0.577647C15.3209 0.589343 16.4955 0.603739 17.6611 0.738471C18.5417 0.837441 19.4263 1.00704 20.2349 1.382C20.9277 1.6951 21.5429 2.17555 22.0128 2.77319C22.403 3.26353 22.6815 3.8353 22.8731 4.42979C23.1203 5.19478 23.2303 5.99553 23.3027 6.79358C23.4265 8.23695 23.413 9.68708 23.4226 11.1343C23.4224 12.3941 23.4298 13.6542 23.406 14.914C23.3842 15.9793 23.3529 17.0479 23.1997 18.1039C23.0765 18.9243 22.8812 19.7468 22.4894 20.4842C22.1207 21.1956 21.5636 21.8049 20.8962 22.2472C20.3047 22.6415 19.6258 22.8846 18.9371 23.0459C18.0311 23.2551 17.1003 23.3225 16.174 23.3691C14.9219 23.4269 13.6679 23.4222 12.4146 23.4217C11.1635 23.4231 9.912 23.4298 8.66094 23.3983C7.87301 23.3759 7.08418 23.3446 6.30075 23.2548C5.62866 23.1752 4.95792 23.0542 4.31575 22.836C3.73251 22.6361 3.17536 22.3477 2.6985 21.9543C2.08287 21.4484 1.59927 20.7851 1.29719 20.0485C1.00208 19.3359 0.848232 18.5743 0.753762 17.8115C0.627127 16.753 0.594962 15.6857 0.581691 14.6205C0.565946 13.3237 0.569994 12.027 0.570894 10.7303C0.574718 9.79977 0.580566 8.86878 0.618579 7.9387C0.656143 7.07654 0.718898 6.21214 0.882422 5.36348C1.02503 4.63043 1.25468 3.90526 1.64223 3.26286C2.15822 2.39755 2.96212 1.71354 3.88861 1.32194C4.77168 0.946082 5.72921 0.790205 6.67931 0.700908C7.97581 0.582595 9.27905 0.581021 10.5798 0.572248ZM9.47856 2.07995C8.53588 2.0939 7.59163 2.11392 6.65299 2.21041C5.90218 2.28981 5.14417 2.4124 4.44666 2.71403C4.03414 2.8942 3.65603 3.15489 3.34698 3.48261C2.86 3.98871 2.58334 4.6572 2.42319 5.33221C2.20523 6.25645 2.15238 7.20903 2.11054 8.15463C2.05993 9.56696 2.07208 10.9806 2.06938 12.3939C2.07185 13.6987 2.0669 15.0046 2.13146 16.3083C2.17937 17.1514 2.24842 17.9998 2.46345 18.8192C2.56287 19.1872 2.69198 19.5502 2.8816 19.8822C3.10023 20.2619 3.39151 20.6009 3.74015 20.867C4.28089 21.2786 4.9406 21.4972 5.60032 21.629C6.40737 21.7903 7.23106 21.8434 8.05183 21.8785C8.82402 21.9098 9.59688 21.9194 10.3695 21.9221C11.6588 21.923 12.9481 21.926 14.2374 21.9183C15.295 21.9066 16.3544 21.8841 17.4073 21.7761C17.9449 21.7192 18.4823 21.6353 19.0005 21.4781C19.3557 21.3702 19.7039 21.2298 20.0181 21.0303C20.3323 20.8287 20.6137 20.5755 20.844 20.2815C21.2975 19.7027 21.5206 18.9818 21.6529 18.2681C21.8506 17.1763 21.8812 16.0638 21.9062 14.9572C21.9302 13.5705 21.9248 12.1838 21.9214 10.7971C21.9192 10.0542 21.9172 9.31144 21.896 8.56873C21.872 7.74323 21.8319 6.91639 21.7145 6.0981C21.6151 5.43253 21.4624 4.76224 21.1405 4.1655C20.8067 3.54739 20.2671 3.04355 19.6274 2.75317C18.8035 2.36966 17.8873 2.2617 16.9921 2.17847C15.9046 2.08535 14.8121 2.08445 13.7214 2.07343C12.3071 2.06916 10.8927 2.06466 9.47856 2.07995Z" fill="#4B4B4B"/>
<path opacity="0.5" d="M10.4217 2.64337C11.7238 2.6409 13.0259 2.63145 14.328 2.65057C15.3589 2.66879 16.3942 2.69196 17.4147 2.85301C18.1138 2.9675 18.8158 3.16071 19.4157 3.54939C20.0048 3.93267 20.4726 4.49657 20.7446 5.14459C21.0649 5.88664 21.1769 6.69661 21.2511 7.49533C21.324 8.34624 21.3382 9.20075 21.3481 10.0544C21.3548 10.8265 21.3537 11.5987 21.3523 12.3709C21.3521 13.6391 21.3575 14.9083 21.2761 16.1742C21.2102 17.0659 21.1081 17.973 20.7633 18.8057C20.5012 19.447 20.0536 20.0124 19.4789 20.4009C18.8646 20.8179 18.1354 21.0253 17.4091 21.1407C16.3832 21.3011 15.3424 21.3263 14.3062 21.3436C12.9418 21.3591 11.5776 21.3551 10.2134 21.3488C9.25248 21.3404 8.29023 21.3278 7.33315 21.2356C6.58796 21.1621 5.83602 21.0413 5.14323 20.7453C4.44145 20.4479 3.83437 19.9243 3.45446 19.2616C3.04329 18.5491 2.88089 17.7267 2.78395 16.919C2.66901 15.8872 2.65439 14.8476 2.64291 13.8107C2.63819 12.5958 2.63819 11.381 2.64269 10.1661C2.65191 9.15374 2.67216 8.13976 2.7772 7.13207C2.8413 6.54905 2.94432 5.96626 3.14226 5.41249C3.36899 4.74714 3.78691 4.14568 4.34361 3.71472C4.94035 3.25226 5.67699 3.01383 6.41184 2.8818C7.28681 2.72682 8.17686 2.68724 9.06353 2.66092C9.51609 2.64945 9.96888 2.64585 10.4217 2.64337ZM11.8176 6.98249C11.5479 7.05672 11.3389 7.31921 11.34 7.60105C11.3405 9.35618 11.3369 11.1115 11.3387 12.8667C11.3371 13.0862 11.4478 13.3053 11.6358 13.422C11.8502 13.566 12.1498 13.5678 12.3624 13.4189C12.5353 13.3017 12.6527 13.0992 12.6518 12.8885C12.6536 11.1412 12.655 9.39419 12.6536 7.64716C12.6579 7.50253 12.6181 7.3561 12.5337 7.23779C12.3801 7.01353 12.0785 6.90624 11.8176 6.98249ZM11.8632 14.633C11.5935 14.6762 11.3475 14.8467 11.2224 15.091C11.0841 15.3409 11.0875 15.6565 11.2179 15.9088C11.3306 16.1218 11.5355 16.2815 11.7667 16.347C12.0933 16.4428 12.4685 16.3175 12.6788 16.0517C12.8687 15.8135 12.9303 15.4731 12.8165 15.1882C12.6784 14.8109 12.2591 14.5676 11.8632 14.633Z" fill="#4B4B4B"/>
</g>
<defs>
<clipPath id="clip0_27038_11355">
<rect width="24" height="24" fill="white"/>
</clipPath>
</defs>
</svg>
