<svg width="24" height="24" viewBox="0 0 24 24" fill="none" xmlns="http://www.w3.org/2000/svg">
<path d="M11.8389 7.0095C12.1955 6.92358 12.5877 7.15188 12.7067 7.4949C12.7589 7.6375 12.7407 7.79181 12.747 7.94071C12.7465 9.88275 12.7474 11.825 12.7465 13.7671C12.745 14.1602 12.3812 14.5087 11.9881 14.4931C11.6019 14.4976 11.2494 14.1544 11.2478 13.7675C11.2472 11.7573 11.2478 9.74735 11.2474 7.73715C11.2427 7.39481 11.5058 7.079 11.8389 7.0095Z" fill="#4B4B4B"/>
<path d="M11.9287 15.7554C12.4121 15.712 12.8918 16.0791 12.9771 16.5569C13.0554 16.9136 12.9067 17.3007 12.6262 17.5301C12.4973 17.6383 12.3378 17.7067 12.1734 17.7391C11.8452 17.7992 11.4925 17.679 11.2642 17.4368C11.0834 17.2438 10.9847 16.977 10.9975 16.7125C11.0049 16.477 11.1012 16.2465 11.2618 16.0744C11.4332 15.8888 11.6765 15.7716 11.9287 15.7554Z" fill="#4B4B4B"/>
</svg>
