<svg width="24" height="24" viewBox="0 0 24 24" fill="none" xmlns="http://www.w3.org/2000/svg">
<g clip-path="url(#clip0_27038_11340)">
<path d="M11.7242 0.253272C13.4436 0.21256 15.1715 0.552203 16.7442 1.24926C18.2486 1.9137 19.608 2.90114 20.7113 4.12049C21.6171 5.12075 22.3506 6.27757 22.8616 7.52705C23.6646 9.47359 23.9298 11.6381 23.617 13.7207C23.3608 15.4592 22.71 17.1394 21.719 18.5913C20.8186 19.9153 19.646 21.0536 18.2953 21.9136C16.8234 22.8553 15.1355 23.4523 13.4013 23.6599C11.3551 23.9076 9.24507 23.6075 7.35274 22.7894C6.07783 22.2419 4.9037 21.4628 3.89894 20.5064C2.70951 19.3759 1.76031 17.9942 1.13545 16.4766C0.457515 14.844 0.163981 13.056 0.270148 11.2921C0.366868 9.68323 0.794684 8.09342 1.5302 6.65837C2.26572 5.21815 3.3031 3.93402 4.55371 2.90902C5.76226 1.91595 7.17122 1.16851 8.67217 0.728323C9.66276 0.436365 10.6918 0.274865 11.7242 0.253272ZM11.2823 1.77357C10.6713 1.81518 10.0643 1.9128 9.47067 2.06373C7.94003 2.44971 6.5043 3.20008 5.3097 4.2316C4.12139 5.25638 3.16904 6.55513 2.55723 8.00075C1.99131 9.33414 1.71735 10.7888 1.75221 12.2364C1.7855 13.8957 2.23626 15.5433 3.04713 16.991C3.84316 18.4188 4.98737 19.6501 6.35202 20.5498C7.49084 21.3029 8.78081 21.8285 10.1245 22.0735C12.2917 22.4754 14.5892 22.1628 16.5611 21.1742C17.9901 20.4628 19.2466 19.4103 20.2039 18.1334C21.1891 16.8236 21.8468 15.2716 22.1104 13.6546C22.3418 12.256 22.2726 10.8101 21.9199 9.43738C21.5757 8.08667 20.9479 6.80952 20.0901 5.71097C19.0799 4.41492 17.7587 3.36 16.2631 2.67734C14.7138 1.96386 12.9832 1.65593 11.2823 1.77357Z" fill="#4B4B4B"/>
<path opacity="0.5" d="M11.7047 2.55319C13.319 2.50078 14.9454 2.86854 16.3749 3.62161C17.7859 4.3614 19.0061 5.46243 19.8831 6.79289C20.6456 7.94745 21.1524 9.27049 21.3472 10.6408C21.5516 12.0553 21.4293 13.5156 20.9954 14.8771C20.5325 16.3353 19.7007 17.6725 18.6078 18.7423C17.5618 19.7722 16.2712 20.5509 14.8719 20.9956C13.53 21.4273 12.0904 21.5467 10.6945 21.3528C9.34942 21.1688 8.04596 20.6884 6.90421 19.9538C5.63359 19.1382 4.55955 18.0169 3.80648 16.7078C2.96794 15.2547 2.52911 13.5745 2.54957 11.897C2.56262 10.5049 2.88742 9.11551 3.49855 7.86401C4.14747 6.5295 5.11625 5.35244 6.30073 4.45812C7.50253 3.54603 8.92656 2.92725 10.4156 2.68028C10.8416 2.60875 11.2728 2.56646 11.7047 2.55319ZM11.8401 7.07653C11.625 7.12826 11.4437 7.29943 11.3812 7.51177C11.3383 7.64245 11.3542 7.78168 11.3515 7.91664C11.3517 9.56605 11.3511 11.2155 11.352 12.8646C11.3544 13.1022 11.4984 13.3311 11.7132 13.4335C11.9932 13.5768 12.3653 13.4753 12.534 13.2099C12.6523 13.0453 12.6446 12.8347 12.641 12.6417C12.6404 11.067 12.6424 9.49227 12.6397 7.91754C12.6352 7.75604 12.6588 7.58532 12.5835 7.43551C12.4627 7.1584 12.1329 6.99623 11.8401 7.07653ZM11.859 14.5797C11.3736 14.6445 11.0263 15.1837 11.1651 15.6524C11.271 16.0881 11.762 16.3832 12.1964 16.2667C12.6404 16.174 12.9452 15.6803 12.8354 15.2413C12.7517 14.8092 12.2884 14.5062 11.859 14.5797Z" fill="#4B4B4B"/>
</g>
<defs>
<clipPath id="clip0_27038_11340">
<rect width="24" height="24" fill="white"/>
</clipPath>
</defs>
</svg>
